<svg xmlns="http://www.w3.org/2000/svg" xmlns:xlink="http://www.w3.org/1999/xlink" width="122" height="122" viewBox="0 0 122 122">
  <defs>
    <clipPath id="clip-path">
      <path id="user-check-solid" d="M25.255,28.863A14.431,14.431,0,1,0,10.823,14.431,14.43,14.43,0,0,0,25.255,28.863Zm10.1,3.608H33.474a19.626,19.626,0,0,1-16.438,0H15.153A15.157,15.157,0,0,0,0,47.623v4.69a5.413,5.413,0,0,0,5.412,5.412H45.1a5.413,5.413,0,0,0,5.412-5.412v-4.69A15.157,15.157,0,0,0,35.357,32.47ZM71.773,17.994l-3.134-3.168a1.337,1.337,0,0,0-1.894-.011L54.929,26.54,49.8,21.376a1.337,1.337,0,0,0-1.894-.011l-3.168,3.146a1.337,1.337,0,0,0-.011,1.894l9.211,9.279a1.337,1.337,0,0,0,1.894.011L71.762,19.888A1.347,1.347,0,0,0,71.773,17.994Z" transform="translate(1244 642.836)" fill="#2680eb"/>
    </clipPath>
  </defs>
  <g id="icon-landing-ppdb" transform="translate(-433.5 -486.5)">
    <circle id="Ellipse_84" data-name="Ellipse 84" cx="60.5" cy="60.5" r="60.5" transform="translate(434 487)" fill="#fff" stroke="#a3a6b7" stroke-width="1"/>
    <g id="Mask_Group_1575" data-name="Mask Group 1575" transform="translate(-780.578 -124.198)" clip-path="url(#clip-path)">
      <path id="user-check-solid-2" data-name="user-check-solid" d="M25.255,28.863A14.431,14.431,0,1,0,10.823,14.431,14.43,14.43,0,0,0,25.255,28.863Zm10.1,3.608H33.474a19.626,19.626,0,0,1-16.438,0H15.153A15.157,15.157,0,0,0,0,47.623v4.69a5.413,5.413,0,0,0,5.412,5.412H45.1a5.413,5.413,0,0,0,5.412-5.412v-4.69A15.157,15.157,0,0,0,35.357,32.47ZM71.773,17.994l-3.134-3.168a1.337,1.337,0,0,0-1.894-.011L54.929,26.54,49.8,21.376a1.337,1.337,0,0,0-1.894-.011l-3.168,3.146a1.337,1.337,0,0,0-.011,1.894l9.211,9.279a1.337,1.337,0,0,0,1.894.011L71.762,19.888A1.347,1.347,0,0,0,71.773,17.994Z" transform="translate(1244 642.836)" fill="#a3a6b7"/>
      <ellipse id="Ellipse_841" data-name="Ellipse 841" cx="37.006" cy="37.006" rx="37.006" ry="37.006" transform="translate(1200.471 627.872)" fill="#b3b5c3"/>
    </g>
  </g>
</svg>
