<svg xmlns="http://www.w3.org/2000/svg" xmlns:xlink="http://www.w3.org/1999/xlink" width="122" height="122" viewBox="0 0 122 122">
  <defs>
    <clipPath id="clip-path">
      <path id="globe-solid" d="M40.705,26.387C38.951,15.585,34.814,8,30,8s-8.952,7.585-10.706,18.387ZM18.387,38a75.821,75.821,0,0,0,.4,7.742H41.2A75.822,75.822,0,0,0,41.6,38a75.823,75.823,0,0,0-.4-7.742H18.786A75.821,75.821,0,0,0,18.387,38ZM57.665,26.387A30.063,30.063,0,0,0,38.552,9.258C41.5,13.347,43.536,19.5,44.6,26.387ZM21.435,9.258a30.043,30.043,0,0,0-19.1,17.129H15.4C16.452,19.5,18.484,13.347,21.435,9.258Zm37.524,21H45.084c.254,2.54.4,5.141.4,7.742s-.145,5.2-.4,7.742H58.947A29.741,29.741,0,0,0,59.988,38a30.261,30.261,0,0,0-1.028-7.742ZM14.516,38c0-2.6.145-5.2.4-7.742H1.04a29.328,29.328,0,0,0,0,15.484H14.9C14.661,43.2,14.516,40.6,14.516,38Zm4.778,11.613C21.048,60.415,25.185,68,30,68s8.952-7.585,10.706-18.387Zm19.27,17.129A30.092,30.092,0,0,0,57.677,49.613H44.613C43.548,56.5,41.516,62.653,38.564,66.742ZM2.335,49.613A30.063,30.063,0,0,0,21.447,66.742C18.5,62.653,16.464,56.5,15.4,49.613H2.335Z" transform="translate(0 -8)" fill="#2680eb"/>
    </clipPath>
  </defs>
  <g id="icon-landing-pusat-informasi" transform="translate(-434 -487)">
    <circle id="Ellipse_84" data-name="Ellipse 84" cx="60.5" cy="60.5" r="60.5" transform="translate(434.5 487.5)" fill="#fff" stroke="#a3a6b7" stroke-width="1"/>
    <g id="Group_4818" data-name="Group 4818" transform="translate(465 518)">
      <path id="globe-solid-2" data-name="globe-solid" d="M40.705,26.387C38.951,15.585,34.814,8,30,8s-8.952,7.585-10.706,18.387ZM18.387,38a75.821,75.821,0,0,0,.4,7.742H41.2A75.822,75.822,0,0,0,41.6,38a75.823,75.823,0,0,0-.4-7.742H18.786A75.821,75.821,0,0,0,18.387,38ZM57.665,26.387A30.063,30.063,0,0,0,38.552,9.258C41.5,13.347,43.536,19.5,44.6,26.387ZM21.435,9.258a30.043,30.043,0,0,0-19.1,17.129H15.4C16.452,19.5,18.484,13.347,21.435,9.258Zm37.524,21H45.084c.254,2.54.4,5.141.4,7.742s-.145,5.2-.4,7.742H58.947A29.741,29.741,0,0,0,59.988,38a30.261,30.261,0,0,0-1.028-7.742ZM14.516,38c0-2.6.145-5.2.4-7.742H1.04a29.328,29.328,0,0,0,0,15.484H14.9C14.661,43.2,14.516,40.6,14.516,38Zm4.778,11.613C21.048,60.415,25.185,68,30,68s8.952-7.585,10.706-18.387Zm19.27,17.129A30.092,30.092,0,0,0,57.677,49.613H44.613C43.548,56.5,41.516,62.653,38.564,66.742ZM2.335,49.613A30.063,30.063,0,0,0,21.447,66.742C18.5,62.653,16.464,56.5,15.4,49.613H2.335Z" transform="translate(0 -8)" fill="#a3a6b7"/>
      <g id="Mask_Group_1547" data-name="Mask Group 1547" transform="translate(0 0)" clip-path="url(#clip-path)">
        <ellipse id="Ellipse_710" data-name="Ellipse 710" cx="60.591" cy="60.591" rx="60.591" ry="60.591" transform="translate(-82.684 -54.188)" fill="#b3b5c3"/>
      </g>
    </g>
  </g>
</svg>
