<svg xmlns="http://www.w3.org/2000/svg" width="136" height="136" viewBox="0 0 136 136">
  <g id="PPDB_icon" data-name="PPDB icon" transform="translate(-11.592 -12)">
    <g id="Ellipse_8" data-name="Ellipse 8" transform="translate(11.592 12)" fill="none" stroke="#3a3a3a" stroke-width="3">
      <circle cx="68" cy="68" r="68" stroke="none"/>
      <circle cx="68" cy="68" r="66.5" fill="none"/>
    </g>
    <g id="Icon_feather-user-check" data-name="Icon feather-user-check" transform="translate(50.145 51.809)">
      <path id="Path_8" data-name="Path 8" d="M52.794,43.018V36.179A13.679,13.679,0,0,0,39.116,22.5H15.179A13.679,13.679,0,0,0,1.5,36.179v6.839" transform="translate(-1.5 11.834)" fill="none" stroke="#3a3a3a" stroke-linecap="round" stroke-linejoin="round" stroke-width="3"/>
      <path id="Path_9" data-name="Path 9" d="M34.107,18.179A13.679,13.679,0,1,1,20.429,4.5,13.679,13.679,0,0,1,34.107,18.179Z" transform="translate(5.219 -4.5)" fill="none" stroke="#3a3a3a" stroke-linecap="round" stroke-linejoin="round" stroke-width="3"/>
      <path id="Path_10" data-name="Path 10" d="M25.5,20.339l6.839,6.839L46.018,13.5" transform="translate(21.604 2.134)" fill="none" stroke="#3a3a3a" stroke-linecap="round" stroke-linejoin="round" stroke-width="3"/>
    </g>
    <rect id="Rectangle_6" data-name="Rectangle 6" width="57" height="3" rx="1.5" transform="translate(60.592 105)" fill="#3a3a3a"/>
  </g>
</svg>
