<svg xmlns="http://www.w3.org/2000/svg" width="136" height="136" viewBox="0 0 136 136">
  <g id="web-icon-hover" transform="translate(-12 -12)">
    <g id="Ellipse_6" data-name="Ellipse 6" transform="translate(12 12)" fill="none" stroke="#2680eb" stroke-width="3">
      <circle cx="68" cy="68" r="68" stroke="none"/>
      <circle cx="68" cy="68" r="66.5" fill="none"/>
    </g>
    <path id="internet-symbol" d="M78.024,17.72c-2.576-3.089-7.483-3.836-14.079-2.228A38.465,38.465,0,0,0,5.34,63.86c-3.117,6.571-3.392,11.826-.707,15.046,1.7,2.04,4.362,3.074,7.911,3.074h.138a1.872,1.872,0,0,0-.014-3.744h-.014c-2.447.02-4.175-.563-5.145-1.727-1.443-1.73-1.306-4.892.3-8.971A38.468,38.468,0,1,0,67.132,18.656c3.846-.616,6.683-.137,8.015,1.462,1.01,1.212,1.251,3.115.716,5.656a1.872,1.872,0,0,0,3.664.772C80.311,22.827,79.805,19.857,78.024,17.72ZM68.113,26.2a34.507,34.507,0,0,1,5.062,16.249H55.367a81.4,81.4,0,0,0-1.894-16.226H67.83A1.881,1.881,0,0,0,68.113,26.2Zm.121,36.046a1.867,1.867,0,0,0-.4-.045H53.524A81.638,81.638,0,0,0,55.367,46.2H73.174A34.507,34.507,0,0,1,68.233,62.249ZM38.485,79.065c-3.159,0-6.4-3.485-8.9-9.562-.461-1.122-.884-2.313-1.274-3.554H48.654c-.39,1.241-.813,2.432-1.274,3.554C44.885,75.58,41.643,79.065,38.485,79.065ZM27.287,62.2A76.812,76.812,0,0,1,25.348,46.2H51.621A76.794,76.794,0,0,1,49.682,62.2h-22.4ZM8.858,26.2a1.888,1.888,0,0,0,.29.025H23.5A81.388,81.388,0,0,0,21.6,42.439l-.013.013H3.8A34.508,34.508,0,0,1,8.858,26.2ZM38.485,9.584c3.159,0,6.4,3.485,8.9,9.562.372.906.719,1.856,1.045,2.84q-.437.244-.875.5H28.386c.371-1.162.77-2.279,1.2-3.335C32.084,13.07,35.326,9.584,38.485,9.584ZM49.631,26.227a76.568,76.568,0,0,1,1.99,16.226H26.991q2.574-2.4,5.449-4.8a121.26,121.26,0,0,1,16.11-11.427Zm-8.14,0a131,131,0,0,0-11.448,8.551q-2.337,1.948-4.537,3.955a73.449,73.449,0,0,1,1.831-12.506H41.491ZM23.445,62.2H10.457A82.016,82.016,0,0,1,21.649,47.741,80.524,80.524,0,0,0,23.445,62.2Zm27.4-44.48A29.268,29.268,0,0,0,46.825,10.6a34.632,34.632,0,0,1,12.818,6.192c-.39.139-.783.282-1.183.434A71.288,71.288,0,0,0,51.773,20.2C51.479,19.352,51.171,18.522,50.844,17.725ZM30.145,10.6a29.268,29.268,0,0,0-4.019,7.126,49.321,49.321,0,0,0-1.655,4.757H11.492A34.8,34.8,0,0,1,30.145,10.6ZM3.8,46.2H17.971A85.634,85.634,0,0,0,7.664,59.572c-.073.12-.141.238-.212.356A34.49,34.49,0,0,1,3.8,46.2Zm7.52,19.752H24.407a49.572,49.572,0,0,0,1.719,4.976,29.268,29.268,0,0,0,4.019,7.126A34.814,34.814,0,0,1,11.315,65.949Zm35.509,12.1a29.268,29.268,0,0,0,4.019-7.126,49.612,49.612,0,0,0,1.719-4.976H65.654A34.811,34.811,0,0,1,46.825,78.05ZM65.477,22.482H55.652q2.116-.984,4.143-1.759,1.62-.618,3.123-1.071A35.114,35.114,0,0,1,65.477,22.482Z" transform="translate(39.993 35.062)" fill="#2680eb"/>
  </g>
</svg>
