<svg xmlns="http://www.w3.org/2000/svg" xmlns:xlink="http://www.w3.org/1999/xlink" width="51.754" height="41.302" viewBox="0 0 51.754 41.302">
  <defs>
    <style>
      .cls-1 {
        fill: #6bb1fe;
      }

      .cls-2 {
        fill: #8cbcf6;
      }

      .cls-3 {
        clip-path: url(#clip-path);
      }

      .cls-4 {
        fill: #acd0fb;
      }
    </style>
    <clipPath id="clip-path">
      <path id="balance-scale-solid" class="cls-1" d="M20.7,27.1h0c0-1.3.109-.7-6.859-14.626A3.89,3.89,0,0,0,6.9,12.48C-.166,26.538,0,25.859,0,27.123H0c0,3.562,4.626,6.444,10.343,6.437S20.7,30.659,20.7,27.1ZM10.367,14.21l5.808,11.6L4.53,25.827ZM51.752,27.058c0-1.3.109-.7-6.859-14.626a3.89,3.89,0,0,0-6.944.009c-7.062,14.059-6.893,13.38-6.895,14.643h0c0,3.562,4.626,6.444,10.343,6.437s10.354-2.9,10.359-6.463Zm-16.17-1.27,5.837-11.617,5.808,11.6Zm7.1,10.311-14.232.018.03-23.765A6.481,6.481,0,0,0,32.24,7.732l10.481-.013a1.3,1.3,0,0,0,1.3-1.292l0-2.58a1.288,1.288,0,0,0-1.292-1.288l-11.674.014a6.422,6.422,0,0,0-10.293.013L9.087,2.6a1.3,1.3,0,0,0-1.3,1.292l0,2.58A1.288,1.288,0,0,0,9.081,7.761l10.481-.013a6.437,6.437,0,0,0,3.746,4.611l-.03,23.765-14.232.018a1.3,1.3,0,0,0-1.3,1.292l0,2.58A1.288,1.288,0,0,0,9.039,41.3l33.64-.042a1.3,1.3,0,0,0,1.3-1.292l0-2.58A1.288,1.288,0,0,0,42.686,36.1Z" transform="matrix(1, 0, 0, 1, 327.383, 2257)"/>
    </clipPath>
  </defs>
  <g id="Group_2571" data-name="Group 2571" transform="translate(-310.383 -417)">
    <path id="balance-scale-solid-2" data-name="balance-scale-solid" class="cls-2" d="M20.7,27.1h0c0-1.3.109-.7-6.859-14.626A3.89,3.89,0,0,0,6.9,12.48C-.166,26.538,0,25.859,0,27.123H0c0,3.562,4.626,6.444,10.343,6.437S20.7,30.659,20.7,27.1ZM10.367,14.21l5.808,11.6L4.53,25.827ZM51.752,27.058c0-1.3.109-.7-6.859-14.626a3.89,3.89,0,0,0-6.944.009c-7.062,14.059-6.893,13.38-6.895,14.643h0c0,3.562,4.626,6.444,10.343,6.437s10.354-2.9,10.359-6.463Zm-16.17-1.27,5.837-11.617,5.808,11.6Zm7.1,10.311-14.232.018.03-23.765A6.481,6.481,0,0,0,32.24,7.732l10.481-.013a1.3,1.3,0,0,0,1.3-1.292l0-2.58a1.288,1.288,0,0,0-1.292-1.288l-11.674.014a6.422,6.422,0,0,0-10.293.013L9.087,2.6a1.3,1.3,0,0,0-1.3,1.292l0,2.58A1.288,1.288,0,0,0,9.081,7.761l10.481-.013a6.437,6.437,0,0,0,3.746,4.611l-.03,23.765-14.232.018a1.3,1.3,0,0,0-1.3,1.292l0,2.58A1.288,1.288,0,0,0,9.039,41.3l33.64-.042a1.3,1.3,0,0,0,1.3-1.292l0-2.58A1.288,1.288,0,0,0,42.686,36.1Z" transform="matrix(1, 0, 0, 1, 310.383, 417)"/>
    <g id="Mask_Group_1385" data-name="Mask Group 1385" class="cls-3" transform="translate(-17 -1840)">
      <ellipse id="Ellipse_426" data-name="Ellipse 426" class="cls-4" cx="24" cy="24.5" rx="24" ry="24.5" transform="translate(310 2236)"/>
    </g>
  </g>
</svg>
