<svg xmlns="http://www.w3.org/2000/svg" width="1094.495" height="237" viewBox="0 0 1094.495 237">
  <defs>
    <style>
      .cls-1 {
        fill: #eef5ff;
      }

      .cls-2 {
        fill: #f5f5f5;
      }

      .cls-3 {
        fill: #e0e0e0;
      }

      .cls-4 {
        fill: #ebebeb;
      }

      .cls-5 {
        fill: #2680eb;
      }

      .cls-6 {
        opacity: 0.4;
      }

      .cls-7 {
        fill: #b78876;
      }

      .cls-8 {
        fill: #aa6550;
      }

      .cls-9 {
        fill: #263238;
      }

      .cls-10 {
        fill: #455a64;
      }

      .cls-11 {
        fill: #fafafa;
      }

      .cls-12 {
        opacity: 0.2;
      }

      .cls-13 {
        fill: #ffbe9d;
      }

      .cls-14 {
        fill: #eb996e;
      }
    </style>
  </defs>
  <g id="Group_1952" data-name="Group 1952" transform="translate(-415 -106)">
    <rect id="Rectangle_228" data-name="Rectangle 228" class="cls-1" width="1094.043" height="237" rx="10" transform="translate(415 106)"/>
    <g id="Conversation-pana" transform="translate(1071.185 106)">
      <g id="freepik--background-complete--inject-53" transform="translate(0)">
        <path id="Path_37117" data-name="Path 37117" class="cls-2" d="M685.052,125.714s-5.279-3.221-11.114,9.334a160.7,160.7,0,0,0-7.963,19.76s-1.572,2.64-3.4,1.017-4.42-6.315-7.426-5.355c-3.094,1-4,4.534-3.214,9.643s2.078,16.362,2.2,17.379-.411,2.526-1.838,1.591-9.763-9.542-13.628-5.342.632,18.073,1.124,19.576.183,2.191-.537,2.6-3.246-2.76-5.684-5.121-5.753-4.66-7.774-2.052-2.324,13.154,8.3,29.876l5.431,7.426,9.2-.846c19.577-3.006,27.319-10.167,27.95-13.407s-3.259-4.2-6.656-4.5-7.452-.133-7.616-.941.152-1.459,1.61-2.109,14.865-6.384,15.491-12.062-11.367-6.258-12.99-6.738-.84-1.857,0-2.431,10.174-7.01,14.525-9.782,6.359-5.759,5.1-8.753c-1.263-2.886-6.486-1.749-8.917-2.065s-1.471-3.233-1.471-3.233a157.723,157.723,0,0,0,9.63-18.989c5.608-12.674-.448-14.524-.448-14.524" transform="translate(-249.45 -87.952)"/>
        <path id="Path_37118" data-name="Path 37118" class="cls-3" d="M684.838,143.72s-.032.095-.107.272-.189.455-.328.789l-1.3,3c-1.137,2.608-2.8,6.372-4.881,11.013-4.155,9.283-10,22.052-16.507,36.134s-12.4,26.851-16.608,36.115l-4.97,10.969-1.351,2.981c-.158.328-.278.587-.36.77a2.8,2.8,0,0,1-.133.259,2.274,2.274,0,0,1,.1-.272c.082-.189.189-.448.328-.783.3-.7.745-1.711,1.3-3.006,1.137-2.608,2.8-6.366,4.882-11.007,4.155-9.283,10-22.052,16.507-36.141s12.384-26.845,16.589-36.1c2.1-4.616,3.789-8.361,4.97-10.963l1.358-2.981c.151-.335.271-.587.36-.777A1.591,1.591,0,0,1,684.838,143.72Z" transform="translate(-254.465 -94.724)"/>
        <path id="Path_37119" data-name="Path 37119" class="cls-3" d="M678.27,175.77a2.615,2.615,0,0,1,.259.632c.152.4.347.985.587,1.711.467,1.459,1.067,3.48,1.686,5.728l1.56,5.759c.189.688.347,1.263.48,1.743a2.409,2.409,0,0,1,.145.631,2.615,2.615,0,0,1-.259-.631c-.151-.4-.347-.985-.581-1.718-.455-1.459-1.029-3.492-1.648-5.74l-1.6-5.747-.486-1.737a2.855,2.855,0,0,1-.145-.632Z" transform="translate(-269.198 -106.534)"/>
        <path id="Path_37120" data-name="Path 37120" class="cls-3" d="M687.09,198.115c0-.082,4.092-1.5,9.2-3.157s9.277-2.962,9.3-2.88-4.092,1.5-9.2,3.158S687.115,198.2,687.09,198.115Z" transform="translate(-272.448 -112.542)"/>
        <path id="Path_37121" data-name="Path 37121" class="cls-3" d="M669.72,234.439a3.349,3.349,0,0,1,.682-.057l1.844-.063c1.553-.057,3.707-.139,6.075-.322s4.509-.4,6.062-.575l1.831-.208a2.661,2.661,0,0,1,.682-.038,3.162,3.162,0,0,1-.631.158c-.43.082-1.055.189-1.825.3-1.541.234-3.688.5-6.062.676s-4.534.227-6.1.221c-.777,0-1.408,0-1.844-.032A2.62,2.62,0,0,1,669.72,234.439Z" transform="translate(-266.047 -127.686)"/>
        <path id="Path_37122" data-name="Path 37122" class="cls-3" d="M656.6,213.54a2.567,2.567,0,0,1,.379.5c.227.328.556.815.947,1.421.789,1.206,1.857,2.886,3.019,4.749s2.2,3.562,2.943,4.8c.373.632.663,1.124.859,1.478a2.361,2.361,0,0,1,.284.562,2.172,2.172,0,0,1-.385-.5c-.227-.335-.549-.815-.947-1.421-.783-1.206-1.85-2.886-3.019-4.755s-2.2-3.562-2.943-4.8c-.366-.632-.631-1.124-.859-1.471a2.609,2.609,0,0,1-.278-.562Z" transform="translate(-261.212 -120.452)"/>
        <path id="Path_37123" data-name="Path 37123" class="cls-3" d="M637.5,241.2a3.737,3.737,0,0,1,.486.631l1.219,1.819c1.01,1.541,2.4,3.682,3.915,6.056s2.873,4.54,3.84,6.113l1.137,1.894a4.539,4.539,0,0,1,.379.707,3.821,3.821,0,0,1-.486-.632l-1.212-1.819c-1.017-1.547-2.406-3.688-3.922-6.062s-2.867-4.54-3.839-6.113c-.455-.745-.833-1.377-1.13-1.895A3.8,3.8,0,0,1,637.5,241.2Z" transform="translate(-254.174 -130.645)"/>
        <path id="Path_37124" data-name="Path 37124" class="cls-3" d="M654.65,266.415a4.052,4.052,0,0,1,.853-.1l2.337-.164c1.97-.139,4.7-.341,7.7-.632s5.683-.632,7.673-.9l2.318-.309a4.8,4.8,0,0,1,.859-.076,4.268,4.268,0,0,1-.84.2c-.543.107-1.332.246-2.305.4-1.958.322-4.667.7-7.673,1s-5.74.474-7.717.556c-.991.038-1.787.063-2.343.063A5.049,5.049,0,0,1,654.65,266.415Z" transform="translate(-260.494 -139.132)"/>
        <path id="Path_37125" data-name="Path 37125" class="cls-4" d="M90.04,166.1c14.733-9.832,18.313-28.417,18.017-45.209-.057-2.8.3-5.747-1.01-8.209s-4.42-4.206-6.991-3.063c-2.116.947-3.075,3.353-4.282,5.336a16.564,16.564,0,0,1-6.751,6.17c-1.819.9-4.061,1.427-5.829.429-2.425-1.364-2.665-4.7-2.6-7.49l.341-15.56a25.666,25.666,0,0,0-.726-8.285c-.84-2.659-2.734-5.134-5.406-5.917s-6.012.695-6.624,3.41a25.308,25.308,0,0,0-.133,3.467A2.873,2.873,0,0,1,66.264,93.9c-1.149.3-2.242-.5-3.075-1.32-2.867-2.861-4.787-6.5-6.574-10.1s-3.53-7.344-6.119-10.445-6.214-5.589-10.249-5.879-8.374,2.116-9.472,6.012,1.175,7.925,3.65,11.14A62.607,62.607,0,0,0,47.351,95.792a5.113,5.113,0,0,1,2.16,2.355c.581,1.895-1.225,3.682-3.094,4.269-2.116.632-4.42.41-6.593.632s-4.6,1.143-5.469,3.157c-1.194,2.829,1.168,5.848,3.511,7.837a54.12,54.12,0,0,0,15.787,9.327c2.065.783,4.237,1.471,5.886,2.936s2.627,3.978,1.585,5.923-3.65,2.526-5.816,2.109-4.092-1.623-6.151-2.425c-3.858-1.5-8.841-1.314-11.4,1.958a8.712,8.712,0,0,0-1.074,7.774,20.341,20.341,0,0,0,4.168,6.947,54.312,54.312,0,0,0,22.911,16.419c8.942,3.221,17.259,4.168,26.245,1.074" transform="translate(-30.49 -66.133)"/>
        <path id="Path_37126" data-name="Path 37126" class="cls-3" d="M91.5,167.708c-2.368-8.494-8.841-28.481-12.725-37.89l-2.886-6.946c-.954-2.28-1.894-4.534-2.962-6.688a125,125,0,0,0-6.82-12c-2.362-3.726-4.736-7.174-6.946-10.388s-4.42-6.151-6.492-8.759A99.371,99.371,0,0,0,41.934,73.476c-1.37-1.263-2.463-2.21-3.214-2.842l-.9-.77c-.2-.158-.3-.234-.3-.234s.088.095.272.265l.834.745c.726.631,1.806,1.617,3.157,2.9A105.458,105.458,0,0,1,52.392,85.165c2.059,2.614,4.193,5.57,6.435,8.778s4.591,6.669,6.946,10.388a125.332,125.332,0,0,1,6.776,12c1.055,2.147,2,4.42,2.949,6.675s1.895,4.6,2.886,6.946c3.858,9.4,10.35,29.365,12.737,37.833" transform="translate(-33.081 -67.421)"/>
        <path id="Path_37127" data-name="Path 37127" class="cls-3" d="M93.38,125.445a6.316,6.316,0,0,0,.278-1.187c.152-.77.341-1.894.556-3.271.436-2.766.909-6.605,1.421-10.843s1.048-8.058,1.541-10.811c.24-1.377.448-2.488.632-3.252a7.247,7.247,0,0,0,.2-1.2,6.378,6.378,0,0,0-.354,1.162c-.208.758-.461,1.895-.739,3.24-.613,2.741-1.181,6.574-1.692,10.83s-.954,8-1.295,10.855c-.171,1.326-.316,2.431-.429,3.284A7.088,7.088,0,0,0,93.38,125.445Z" transform="translate(-53.665 -76.726)"/>
        <path id="Path_37128" data-name="Path 37128" class="cls-3" d="M36.12,131.826a1.346,1.346,0,0,0,.373.063l1.074.107c.935.095,2.28.221,3.934.429,3.315.392,7.881,1.105,12.883,2.109s9.472,2.134,12.693,3.038c1.61.442,2.9.834,3.789,1.1l1.036.3a1.264,1.264,0,0,0,.366.082,1.261,1.261,0,0,0-.341-.158c-.278-.107-.632-.234-1.01-.379-.878-.316-2.166-.758-3.789-1.263-3.2-.979-7.685-2.147-12.693-3.158s-9.548-1.648-12.9-1.97c-1.661-.171-3.019-.253-3.953-.291H36.5A1.521,1.521,0,0,0,36.12,131.826Z" transform="translate(-32.565 -90.338)"/>
        <path id="Path_37129" data-name="Path 37129" class="cls-3" d="M117.42,180.116a2.526,2.526,0,0,0,.246-.436l.632-1.263c.543-1.124,1.263-2.766,2.2-4.806,1.806-4.073,4.124-9.782,6.605-16.11s4.749-12.074,6.473-16.179l2.071-4.85c.227-.543.417-.979.562-1.32a2.679,2.679,0,0,0,.171-.474,1.793,1.793,0,0,0-.246.436l-.632,1.263c-.543,1.124-1.295,2.766-2.191,4.8-1.806,4.079-4.13,9.788-6.605,16.116s-4.755,12.049-6.492,16.154l-2.071,4.85-.556,1.32A2.147,2.147,0,0,0,117.42,180.116Z" transform="translate(-62.524 -91.392)"/>
        <path id="Path_37130" data-name="Path 37130" class="cls-3" d="M41.49,181.22a2.525,2.525,0,0,0,.474.189l1.4.474,5.14,1.724c4.338,1.452,10.306,3.53,16.893,5.841s12.579,4.345,16.943,5.728c2.179.688,3.953,1.231,5.178,1.585l1.421.4a2.458,2.458,0,0,0,.505.114,2.7,2.7,0,0,0-.48-.2l-1.4-.474-5.14-1.711c-4.338-1.452-10.306-3.53-16.893-5.841s-12.573-4.351-16.937-5.728c-2.185-.688-3.953-1.231-5.185-1.585l-1.415-.4a2.646,2.646,0,0,0-.505-.114Z" transform="translate(-34.544 -108.542)"/>
        <path id="Path_37131" data-name="Path 37131" class="cls-2" d="M496.725,70.37h79.613L560.765,81.44v9.245a17.227,17.227,0,0,1-17.354,17.095H493.454A17.227,17.227,0,0,1,476.1,90.685h0A20.467,20.467,0,0,1,496.725,70.37Z" transform="translate(-194.698 -67.694)"/>
        <path id="Path_37132" data-name="Path 37132" class="cls-3" d="M554.261,89.844c0,.088-13.261.164-29.68.164s-29.68-.076-29.68-.164,13.261-.164,29.68-.164S554.261,89.749,554.261,89.844Z" transform="translate(-201.626 -74.81)"/>
        <path id="Path_37133" data-name="Path 37133" class="cls-3" d="M554.261,99.584c0,.088-13.261.164-29.68.164s-29.68-.076-29.68-.164,13.261-.164,29.68-.164S554.261,99.489,554.261,99.584Z" transform="translate(-201.626 -78.399)"/>
        <path id="Path_37134" data-name="Path 37134" class="cls-2" d="M262.517,370.42H168.31l15.345,11.1v21.787a4.547,4.547,0,0,0,4.553,4.547h74.308a4.547,4.547,0,0,0,4.553-4.547V374.967a4.553,4.553,0,0,0-4.553-4.547Z" transform="translate(-81.277 -178.263)"/>
        <path id="Path_37135" data-name="Path 37135" class="cls-3" d="M274.236,394.7c0,.095-14.209.164-31.733.164s-31.733-.069-31.733-.164,14.2-.164,31.733-.164S274.236,394.616,274.236,394.7Z" transform="translate(-96.923 -187.151)"/>
        <path id="Path_37136" data-name="Path 37136" class="cls-3" d="M274.236,407.954c0,.088-14.209.164-31.733.164s-31.733-.076-31.733-.164,14.2-.164,31.733-.164S274.236,407.866,274.236,407.954Z" transform="translate(-96.923 -192.034)"/>
      </g>
      <g id="freepik--character-2--inject-53" transform="translate(221.792 60.85)">
        <rect id="Rectangle_839" data-name="Rectangle 839" class="cls-5" width="159.245" height="138.728" rx="38.79" transform="translate(17.047 23.94)"/>
        <g id="Group_2854" data-name="Group 2854" class="cls-6" transform="translate(17.047 23.94)">
          <rect id="Rectangle_840" data-name="Rectangle 840" width="159.245" height="138.728" rx="38.79"/>
        </g>
        <path id="Path_37137" data-name="Path 37137" class="cls-5" d="M660.487,276.98h23.852L659.95,301.375Z" transform="translate(-484.238 -204.68)"/>
        <g id="Group_2855" data-name="Group 2855" class="cls-6" transform="translate(175.711 72.3)">
          <path id="Path_37138" data-name="Path 37138" d="M660.487,276.98h23.852L659.95,301.375Z" transform="translate(-659.95 -276.98)"/>
        </g>
        <path id="Path_37139" data-name="Path 37139" class="cls-7" d="M394.938,287.442l-10-11.367c-2.7-2.7-3.631-4-3.088-4.477.72-.632.41-.423,6.024,3.789,0,0-7.957-6.081-5.2-6.119a11.042,11.042,0,0,1,3.284,1.73c-1.97-1.674-2.526-2.8-2.141-3.341.632-.935,5.507,2.444,7.748,4.067a53.635,53.635,0,0,1-5.936-4.844c-.846-1.137.865-1.042,2.254-.568,1.56.53,10.18,4.932,12.731,6.069a1.648,1.648,0,0,0,2.374-.8c.941-3.953,3.789-6.523,4.875-6.858s1.926,1.055,1.149,2.065a15.067,15.067,0,0,0-1.68,3.776,9.77,9.77,0,0,0-.512,3.24c0,1.263.088,2.356.171,3.271l9.138,12.535-15.282,8.841Z" transform="translate(-381.705 -200.143)"/>
        <path id="Path_37140" data-name="Path 37140" class="cls-8" d="M392.6,280.956c-.1.139-1.895-1.08-3.966-2.728s-3.688-3.1-3.568-3.233,1.895,1.092,3.966,2.728A18.763,18.763,0,0,1,392.6,280.956Z" transform="translate(-382.941 -203.944)"/>
        <path id="Path_37141" data-name="Path 37141" class="cls-8" d="M395.146,277.854c-.1.145-2.065-1.055-4.389-2.671s-4.13-3.05-4.029-3.189,2.065,1.048,4.389,2.665S395.247,277.709,395.146,277.854Z" transform="translate(-383.554 -202.838)"/>
        <path id="Path_37142" data-name="Path 37142" class="cls-8" d="M397.607,274.735c-.1.145-1.983-.954-4.2-2.457s-3.934-2.835-3.839-2.987,1.977.954,4.2,2.457S397.7,274.59,397.607,274.735Z" transform="translate(-384.601 -201.841)"/>
        <path id="Path_37143" data-name="Path 37143" class="cls-7" d="M415.574,287,452,333.188l-8.342,19.419s-9.99-2.21-13.022-6.416-27.975-50.52-27.975-50.52Z" transform="translate(-389.427 -208.372)"/>
        <path id="Path_37144" data-name="Path 37144" class="cls-9" d="M564.7,184.68c2.621,2.273,2.615,6.277,2.311,9.731s-.537,7.389,1.857,9.9c1.977,2.071,5.557,2.974,6.012,5.8a3.252,3.252,0,0,1-5.374,2.949c.77,2.229.24,5.014-1.692,6.366s-5.172.518-5.772-1.762a2.861,2.861,0,1,1-5.614,1.023" transform="translate(-446.091 -170.667)"/>
        <path id="Path_37145" data-name="Path 37145" class="cls-9" d="M503.7,203.669a3.455,3.455,0,0,1-6.378-2.659c.6-1.314,2.021-2.261,2.16-3.7.164-1.737-1.61-2.981-3.157-3.738s-3.416-1.743-3.587-3.486,1.339-2.987,2.6-4.111,2.526-2.867,1.724-4.364c-.4-.77-1.225-1.206-1.762-1.894-1.181-1.5-.562-3.9.947-5.052a7.023,7.023,0,0,1,5.475-1,49.749,49.749,0,0,1,5.481,1.667,22.867,22.867,0,0,0,18.212-2.387" transform="translate(-422.614 -166.341)"/>
        <path id="Path_37146" data-name="Path 37146" class="cls-7" d="M518.161,243.384a12.681,12.681,0,0,0,14.9-9.725l8.961-41.085a18.232,18.232,0,0,0-14.063-22.039l-.935-.139a18.351,18.351,0,0,0-20.555,14.051c-2,8.67-4.086,18.276-4.717,22.993-1.307,9.769,8.21,12.712,8.21,12.712l-1.711,8.209a12.68,12.68,0,0,0,9.9,15Z" transform="translate(-425.896 -165.33)"/>
        <path id="Path_37147" data-name="Path 37147" class="cls-9" d="M512.06,202.372a1.415,1.415,0,0,0,1.137,1.6,1.345,1.345,0,0,0,1.617-1.042,1.4,1.4,0,0,0-1.13-1.6,1.351,1.351,0,0,0-1.623,1.042Z" transform="translate(-429.735 -176.79)"/>
        <path id="Path_37148" data-name="Path 37148" class="cls-9" d="M511.492,200.153c.145.208,1.314-.423,2.817-.2s2.482,1.13,2.671.973c.095-.069-.038-.423-.461-.84a3.864,3.864,0,0,0-2.109-1,3.719,3.719,0,0,0-2.273.379C511.625,199.755,511.423,200.058,511.492,200.153Z" transform="translate(-429.527 -175.96)"/>
        <path id="Path_37149" data-name="Path 37149" class="cls-9" d="M535.25,206.172a1.408,1.408,0,0,0,1.137,1.6A1.345,1.345,0,0,0,538,206.727a1.4,1.4,0,0,0-1.137-1.6,1.339,1.339,0,0,0-1.617,1.042Z" transform="translate(-438.28 -178.19)"/>
        <path id="Path_37150" data-name="Path 37150" class="cls-9" d="M534.752,204.013c.145.2,1.314-.423,2.81-.2s2.488,1.13,2.677.973c.088-.069-.038-.423-.467-.84a3.864,3.864,0,0,0-2.109-1,3.72,3.72,0,0,0-2.273.379C534.9,203.6,534.676,203.918,534.752,204.013Z" transform="translate(-438.098 -177.383)"/>
        <path id="Path_37151" data-name="Path 37151" class="cls-9" d="M521.437,213.773a10.06,10.06,0,0,0-2.368-.8c-.379-.095-.726-.227-.752-.5a1.982,1.982,0,0,1,.417-1.092q.752-1.307,1.56-2.747a54.125,54.125,0,0,0,3.656-7.25,53.515,53.515,0,0,0-4.231,6.946L518.2,211.1a2.274,2.274,0,0,0-.417,1.478.973.973,0,0,0,.549.631,2.69,2.69,0,0,0,.632.183A10.064,10.064,0,0,0,521.437,213.773Z" transform="translate(-431.849 -176.824)"/>
        <path id="Path_37152" data-name="Path 37152" class="cls-9" d="M535.5,194.828c.088.429,1.617.455,3.341.922s3.075,1.156,3.366.827c.126-.158-.063-.581-.575-1.055a6.012,6.012,0,0,0-5.109-1.332C535.814,194.355,535.467,194.658,535.5,194.828Z" transform="translate(-438.377 -174.128)"/>
        <path id="Path_37153" data-name="Path 37153" class="cls-9" d="M513.366,193.354c.215.379,1.263.177,2.526.341s2.261.568,2.526.246c.133-.158,0-.524-.392-.916a3.707,3.707,0,0,0-4.1-.467C513.467,192.842,513.272,193.17,513.366,193.354Z" transform="translate(-430.214 -173.417)"/>
        <path id="Path_37154" data-name="Path 37154" class="cls-9" d="M551.31,183.34l.044.051a7.742,7.742,0,0,1,2.122,5.38v.2c0,2.842-.512,5.684-.505,8.494s.549,5.8,2.324,8.014c.726.916,2.141,1.673,2.968.853a2.4,2.4,0,0,0,.537-1.225c1.5-6.637,4.206-12.321,5.222-19.343a5.98,5.98,0,0,0-1.749-5.178c-1.314-1.263-2.949-2.627-4.7-2.09s-4.307,3.284-5.765,4.421" transform="translate(-444.205 -168.342)"/>
        <path id="Path_37155" data-name="Path 37155" class="cls-7" d="M558.321,211.806c.177-.051,6.991-1,5.8,5.633s-7.578,4.073-7.578,3.877S558.321,211.806,558.321,211.806Z" transform="translate(-446.132 -180.635)"/>
        <path id="Path_37156" data-name="Path 37156" class="cls-8" d="M560.454,220.568a2.073,2.073,0,0,0,.278.221,1.181,1.181,0,0,0,.865.177,2.9,2.9,0,0,0,1.781-2.33,3.889,3.889,0,0,0,0-1.711,1.364,1.364,0,0,0-.714-1.042.594.594,0,0,0-.739.2c-.12.164-.1.309-.139.309s-.12-.133,0-.4a.733.733,0,0,1,.335-.366.89.89,0,0,1,.669-.057,1.661,1.661,0,0,1,1.023,1.263,3.985,3.985,0,0,1,.07,1.895,3.056,3.056,0,0,1-2.2,2.564,1.263,1.263,0,0,1-1.029-.366C560.435,220.726,560.429,220.574,560.454,220.568Z" transform="translate(-447.57 -182.034)"/>
        <path id="Path_37157" data-name="Path 37157" class="cls-9" d="M538.669,173.876c2.033-2.431-1.895-6.915-5.052-8.437s-7.7-.549-11.14.057c-2.166.385-4.364,1.042-6.523.632a14.7,14.7,0,0,1-4.067-1.7,11.007,11.007,0,0,0-4.13-1.446,4.067,4.067,0,0,0-3.833,1.711,2.548,2.548,0,0,0,1.187,3.65,3.309,3.309,0,1,0-1.762,5.936c-.84-.859-2.469.12-2.526,1.32a3.5,3.5,0,0,0,1.894,2.854c2.6,1.629,5.892,1.711,8.911,1.168s5.911-1.667,8.917-2.286,8.052-1.793,10.767-.36c2,1.048,3.094,3.789,4.364,3.416a4.124,4.124,0,0,0,2.526-2.69,12,12,0,0,0,.423-3.789" transform="translate(-425.224 -162.66)"/>
        <path id="Path_37158" data-name="Path 37158" class="cls-10" d="M574.657,212.094a1.023,1.023,0,0,0,.347-.152,1.977,1.977,0,0,0,.72-.821,2.9,2.9,0,0,0,.215-1.718,3.448,3.448,0,0,0-1.187-1.945,8.652,8.652,0,0,0-2.393-1.4,15.535,15.535,0,0,1-2.8-1.351,5.583,5.583,0,0,1-2.027-2.633,9.233,9.233,0,0,1-.587-3.587c.063-2.526.764-4.894.935-7.123a9.416,9.416,0,0,0-1.061-5.766,5.349,5.349,0,0,0-3.158-2.368,3.687,3.687,0,0,0-1.08-.107,1.4,1.4,0,0,0-.373.057,5.507,5.507,0,0,1,1.421.177,5.33,5.33,0,0,1,2.981,2.368,9.085,9.085,0,0,1,.96,5.614c-.221,2.179-.9,4.547-.973,7.142a9.473,9.473,0,0,0,.631,3.713,5.886,5.886,0,0,0,2.166,2.772,15.938,15.938,0,0,0,2.861,1.351,8.652,8.652,0,0,1,2.343,1.314,3.316,3.316,0,0,1,1.162,1.806,2.742,2.742,0,0,1-.152,1.623,2.173,2.173,0,0,1-.954,1.029Z" transform="translate(-448.221 -170.093)"/>
        <path id="Path_37159" data-name="Path 37159" class="cls-10" d="M504.511,170.957a1.144,1.144,0,0,0-.29-.158,2.445,2.445,0,0,0-.366-.145,3.157,3.157,0,0,0-.537-.133,4,4,0,0,0-3.347,1.023h0a5.355,5.355,0,0,0-1.187,3.953,6.58,6.58,0,0,0,2.438,4.5,10.186,10.186,0,0,0,5.519,2.217,22.506,22.506,0,0,0,6.555-.4,29.631,29.631,0,0,0,9.662-3.738,29.4,29.4,0,0,1,3.991-2.065,10.609,10.609,0,0,1,3.789-.777,11.31,11.31,0,0,1,5.443,1.263,18.938,18.938,0,0,1,1.762,1.118,7.741,7.741,0,0,0-1.7-1.263,11.139,11.139,0,0,0-5.513-1.408,10.875,10.875,0,0,0-3.89.751,29.79,29.79,0,0,0-4.035,2.065,29.819,29.819,0,0,1-9.574,3.669,22.362,22.362,0,0,1-6.46.41,9.946,9.946,0,0,1-5.361-2.122,6.347,6.347,0,0,1-2.374-4.3,5.141,5.141,0,0,1,1.086-3.789h0a3.922,3.922,0,0,1,3.2-1.055A6.828,6.828,0,0,1,504.511,170.957Z" transform="translate(-424.838 -165.432)"/>
        <path id="Path_37160" data-name="Path 37160" class="cls-10" d="M513.718,162.49a3.788,3.788,0,0,0,.234,1.49,6.264,6.264,0,0,0,2.614,3.157,7.837,7.837,0,0,0,2.646,1.1,11.227,11.227,0,0,0,3.284.171,43.728,43.728,0,0,0,7.287-1.623,14.735,14.735,0,0,1,7.287-.417,9.473,9.473,0,0,1,4.951,3.214,9.841,9.841,0,0,1,1.894,3.562c.253.928.284,1.471.328,1.465a2.993,2.993,0,0,0,0-.392,7.835,7.835,0,0,0-.183-1.105,9.521,9.521,0,0,0-1.838-3.682,9.655,9.655,0,0,0-5.052-3.366,14.721,14.721,0,0,0-7.445.392A45.406,45.406,0,0,1,522.5,168.1a11.128,11.128,0,0,1-3.2-.133,7.864,7.864,0,0,1-2.577-1.023,6.315,6.315,0,0,1-2.614-2.993A8.975,8.975,0,0,1,513.718,162.49Z" transform="translate(-430.35 -162.49)"/>
        <path id="Path_37161" data-name="Path 37161" class="cls-8" d="M518.719,228.3a7.183,7.183,0,0,0,.512,1.895,2.317,2.317,0,0,0,1.421,1.263,2.071,2.071,0,0,0,1.894-.575,3.353,3.353,0,0,0,.89-1.857c.1-.632,0-1.421-.631-1.623a1.617,1.617,0,0,0-.777,0l-3.5.632" transform="translate(-432.125 -186.393)"/>
        <path id="Path_37162" data-name="Path 37162" class="cls-9" d="M519.034,230.85a4.925,4.925,0,0,0,1.743.328,2.476,2.476,0,0,0,1.629-.745,2.627,2.627,0,0,0,.7-2.04,2.3,2.3,0,0,0-.126-.556c-.082-.171-.057-.158-.2-.177a2.2,2.2,0,0,0-.562.032l-.587.044c-.758.057-1.44.1-2.014.133a6.013,6.013,0,0,1-1.894-.038,6.424,6.424,0,0,1,1.838-.379c.568-.082,1.263-.164,2-.253l.581-.063a5.685,5.685,0,0,1,.631-.057.789.789,0,0,1,.461.164.92.92,0,0,1,.259.385,2.742,2.742,0,0,1,.164.707,3.1,3.1,0,0,1-.9,2.482,2.823,2.823,0,0,1-2,.777,2.615,2.615,0,0,1-1.377-.385C519.16,231.033,519.015,230.875,519.034,230.85Z" transform="translate(-431.827 -186.292)"/>
        <path id="Path_37163" data-name="Path 37163" class="cls-8" d="M514.468,249.3s6.366,2.412,12.561.632c0,0-4.673,3.922-13.2,2.419Z" transform="translate(-430.393 -194.48)"/>
        <path id="Path_37164" data-name="Path 37164" class="cls-11" d="M515.13,387.873a7.331,7.331,0,0,1-.871-.669c-.271-.221-.631-.493-1.017-.783s-.852-.631-1.389-.979-1.092-.726-1.743-1.086-1.339-.739-2.078-1.118a32.408,32.408,0,0,0-10.306-3.082c-.827-.088-1.61-.189-2.349-.208s-1.427-.051-2.052-.044-1.2.038-1.7.057-.928.057-1.263.095a6.651,6.651,0,0,1-1.092.076,8.3,8.3,0,0,1,1.08-.2,12.642,12.642,0,0,1,1.263-.152c.5-.038,1.067-.107,1.705-.107s1.326-.038,2.071,0,1.541.1,2.374.177a34.544,34.544,0,0,1,5.343,1.1,33.464,33.464,0,0,1,5.052,2.014c.739.392,1.452.751,2.078,1.156s1.219.764,1.737,1.13.972.72,1.37,1.023.726.594.985.834A6.648,6.648,0,0,1,515.13,387.873Z" transform="translate(-421.343 -242.515)"/>
        <path id="Path_37165" data-name="Path 37165" class="cls-5" d="M447.385,318l5.178-22.437c1.983-8.437,4.332-16.545,8.279-17.505v2.608l-1.692,64.1s-10.552,12-24,5.342c-4.206-2.09-11.878-16.773-11.878-16.773s-17.852-31.853-17.107-33.3,11.651-15.5,12.763-16.2Z" transform="translate(-390.711 -205.078)"/>
        <path id="Path_37166" data-name="Path 37166" class="cls-5" d="M531.185,267.2c10.293,1.97,21.881,7.976,27.218,23.365,1.945,5.62,16.116,47.053,16.116,47.053l-24.168-.505-3.9-8.532,1.894,13.861,1.636,19.766L488.95,363.24l.429-29.781.587-59.235s.682-.9,11.209-6.7C507.706,263.918,531.185,267.2,531.185,267.2Z" transform="translate(-421.225 -200.572)"/>
        <g id="Group_2856" data-name="Group 2856" class="cls-12" transform="translate(116.022 106.25)">
          <path id="Path_37167" data-name="Path 37167" d="M565.455,330.74c1,12.5,2.153,16.368,3.157,28.872a11.1,11.1,0,0,0,.632,3.473,3.789,3.789,0,0,0,2.526,2.3c1.781.36,4.092,1.648,4.591-.095l-1.686-12.043a23.756,23.756,0,0,0-1.667-5.084c-3.745-8.317-5.128-8.8-7.578-17.429" transform="translate(-565.43 -330.74)"/>
        </g>
        <path id="Path_37168" data-name="Path 37168" class="cls-5" d="M508.3,269.9l.2-1.3,1.951-12.478a1.453,1.453,0,0,1,1.554-1.225l24.029,2.008a2.76,2.76,0,0,1,2.526,2.955l-.537,7.25-7.5,9.788-10.8,1.686" transform="translate(-428.355 -196.54)"/>
        <path id="Path_37169" data-name="Path 37169" class="cls-9" d="M489.094,315.81c.095,0,.164,9.776.164,21.831s-.07,21.831-.164,21.831-.164-9.776-.164-21.831S489.006,315.81,489.094,315.81Z" transform="translate(-421.217 -218.989)"/>
        <path id="Path_37170" data-name="Path 37170" class="cls-9" d="M575.971,347.907s0-.044-.076-.139a2.527,2.527,0,0,1-.2-.43l-.733-1.661-2.633-6.132-8.582-20.277c-1.667-3.966-3.252-7.742-4.692-11.184a21.059,21.059,0,0,1-1.554-5.052,27.862,27.862,0,0,1-.417-4.61,18.592,18.592,0,0,1,.96-6.6l.2-.524.221-.442a3.867,3.867,0,0,1,.379-.669l.265-.392a1.1,1.1,0,0,1,.1-.126,12.971,12.971,0,0,0-1.042,2.2,19.094,19.094,0,0,0-.846,6.555,24.1,24.1,0,0,0,2.015,9.567l4.717,11.171,8.494,20.315,2.526,6.17.676,1.686.171.442A.775.775,0,0,1,575.971,347.907Z" transform="translate(-446.328 -209.356)"/>
        <path id="Path_37171" data-name="Path 37171" class="cls-11" d="M536.028,271.49a7.913,7.913,0,0,1-.7.631,10.852,10.852,0,0,1-2.3,1.345,17.306,17.306,0,0,1-4.054,1.137,50.284,50.284,0,0,1-5.557.549c-2.071.088-4.332.051-6.757.095a31.271,31.271,0,0,0-7.641.935,14.082,14.082,0,0,0-7.186,4.237,9.92,9.92,0,0,0-2,3.941,8.436,8.436,0,0,0,.076,4.515,7.167,7.167,0,0,0,1.055,2.021,5.324,5.324,0,0,0,1.705,1.44,3.713,3.713,0,0,0,2.109.442,2.886,2.886,0,0,0,1.857-.947,5.052,5.052,0,0,0,.935-4,6.562,6.562,0,0,0-.631-1.97,9.633,9.633,0,0,0-1.118-1.7,11.9,11.9,0,0,0-6.479-3.833,13.761,13.761,0,0,0-6.624.076,18.162,18.162,0,0,0-5.052,2.166,24.152,24.152,0,0,0-3.36,2.526c-.865.758-1.478,1.415-1.895,1.844l-.467.505a1.167,1.167,0,0,1-.17.164A20.562,20.562,0,0,1,484.233,285a22.736,22.736,0,0,1,3.347-2.564A18.13,18.13,0,0,1,492.7,280.2a13.893,13.893,0,0,1,6.744-.114,12.132,12.132,0,0,1,6.65,3.909,9.9,9.9,0,0,1,1.149,1.705,6.832,6.832,0,0,1,.631,2.065,6.63,6.63,0,0,1-.038,2.2,4.377,4.377,0,0,1-.966,2.052,3.2,3.2,0,0,1-2.059,1.055,4,4,0,0,1-2.3-.474,5.682,5.682,0,0,1-1.812-1.528,7.482,7.482,0,0,1-1.111-2.122,8.714,8.714,0,0,1-.076-4.692,10.1,10.1,0,0,1,2.065-4.073,14.448,14.448,0,0,1,7.351-4.326,31.394,31.394,0,0,1,7.723-.9c2.431-.038,4.692,0,6.751-.057a50.591,50.591,0,0,0,5.538-.5,17.91,17.91,0,0,0,4.042-1.074,11.539,11.539,0,0,0,2.311-1.263c.253-.171.423-.328.549-.417A1.317,1.317,0,0,1,536.028,271.49Z" transform="translate(-418.579 -202.657)"/>
        <path id="Path_37172" data-name="Path 37172" class="cls-11" d="M586.083,312.293a1.219,1.219,0,0,1-.272.044c-.177,0-.436.044-.777.057a25,25,0,0,1-2.861-.069c-1.206-.088-2.633-.271-4.212-.493s-3.309-.455-5.14-.549a19.813,19.813,0,0,0-5.109.385,12.88,12.88,0,0,0-3.9,1.484,11.231,11.231,0,0,0-2.88,2.526.894.894,0,0,1,.139-.234,4.547,4.547,0,0,1,.455-.631,8.706,8.706,0,0,1,2.166-1.895,12.694,12.694,0,0,1,3.953-1.579,19.378,19.378,0,0,1,5.2-.417c1.85.095,3.587.347,5.166.581s2.993.442,4.187.556,2.172.164,2.842.17A8.538,8.538,0,0,1,586.083,312.293Z" transform="translate(-447.75 -217.177)"/>
        <path id="Path_37173" data-name="Path 37173" class="cls-11" d="M544.549,347.717a12.722,12.722,0,0,0-3.625-.309,19.666,19.666,0,0,0-4.212.751c-1.61.436-3.41,1.074-5.431,1.7a22.355,22.355,0,0,1-6.807,1.181,19.5,19.5,0,0,1-7.755-1.61,19.293,19.293,0,0,1-7.073-5.14,14.711,14.711,0,0,1-2.526-3.928,8.98,8.98,0,0,1-.726-4.743,6.9,6.9,0,0,1,2.242-4.225,4.92,4.92,0,0,1,2.128-1.086,4.982,4.982,0,0,1,4.376,1.181,3.789,3.789,0,0,1,1.137,1.964,3.834,3.834,0,0,1-.171,2.217,5.33,5.33,0,0,1-1.181,1.812,9.415,9.415,0,0,1-3.467,2.2,10.579,10.579,0,0,1-1.895.524c-.316.057-.631.126-.941.171l-.941.114a20.5,20.5,0,0,1-6.89-.486,21.472,21.472,0,0,1-5.324-2.046,19.653,19.653,0,0,1-3.543-2.45l-.632-.549-.518-.524a8.766,8.766,0,0,1-.783-.846l-.455-.543a1.312,1.312,0,0,1-.139-.189,1.556,1.556,0,0,1,.171.171l.474.518a9.406,9.406,0,0,0,.8.821l.524.511.631.537a19.938,19.938,0,0,0,3.543,2.381,21.474,21.474,0,0,0,5.286,1.983,20.291,20.291,0,0,0,6.814.442l.922-.114c.309-.051.631-.12.935-.177a10.214,10.214,0,0,0,1.85-.518,9.162,9.162,0,0,0,3.353-2.141,5.052,5.052,0,0,0,1.111-1.711,3.618,3.618,0,0,0,.158-2.04,3.954,3.954,0,0,0-2.949-2.829,4.421,4.421,0,0,0-4.174.954,6.524,6.524,0,0,0-2.128,4.023,8.758,8.758,0,0,0,.695,4.566,14.663,14.663,0,0,0,2.45,3.846,19.032,19.032,0,0,0,6.946,5.052,19.367,19.367,0,0,0,7.635,1.617,22.2,22.2,0,0,0,6.744-1.137c2.015-.632,3.789-1.225,5.45-1.648a19.525,19.525,0,0,1,4.25-.7,12.587,12.587,0,0,1,1.573,0c.448.069.833.1,1.137.17l.688.171A1.019,1.019,0,0,1,544.549,347.717Z" transform="translate(-421.391 -224.291)"/>
        <path id="Path_37174" data-name="Path 37174" class="cls-11" d="M483.34,342.126c-.057,0-.347-.632-.96-1.692a16.482,16.482,0,0,0-6.738-6.283c-1.074-.543-1.781-.783-1.762-.84a1.891,1.891,0,0,1,.518.12,10.283,10.283,0,0,1,1.345.505,14.76,14.76,0,0,1,3.941,2.633,14.525,14.525,0,0,1,2.9,3.751,11.018,11.018,0,0,1,.632,1.3A1.964,1.964,0,0,1,483.34,342.126Z" transform="translate(-415.671 -225.437)"/>
        <path id="Path_37175" data-name="Path 37175" class="cls-11" d="M447.063,366.641a.9.9,0,0,1-.1-.158c-.057-.107-.152-.278-.259-.474-.227-.417-.556-1.042-.96-1.85a43.283,43.283,0,0,1-2.892-7.117,23,23,0,0,1-.9-5.235,16.322,16.322,0,0,1,.12-2.968,17.71,17.71,0,0,1,.745-3.063,13.349,13.349,0,0,1,3.707-5.608,9.075,9.075,0,0,1,6.738-2.368,5,5,0,0,1,3.322,1.617,4.079,4.079,0,0,1,.941,3.454,3.068,3.068,0,0,1-.9,1.56,3.656,3.656,0,0,1-1.541.84,4.547,4.547,0,0,1-3.3-.4,7.539,7.539,0,0,1-2.406-2.052,11.068,11.068,0,0,1-1.522-2.57,11.367,11.367,0,0,1-.827-5.229,10.736,10.736,0,0,1,1.263-4.2,10.96,10.96,0,0,1,1.983-2.652,10.3,10.3,0,0,1,1.623-1.32c.2-.133.36-.215.467-.278l.164-.082s-.2.145-.594.417a11.488,11.488,0,0,0-1.572,1.352,11.234,11.234,0,0,0-1.894,2.646,10.61,10.61,0,0,0-1.181,4.13,11.09,11.09,0,0,0,.859,5.115,10.914,10.914,0,0,0,1.49,2.494,7.307,7.307,0,0,0,2.324,1.964,4.231,4.231,0,0,0,3.082.366,2.968,2.968,0,0,0,2.2-2.172,3.789,3.789,0,0,0-.871-3.157,4.673,4.673,0,0,0-3.107-1.5,8.759,8.759,0,0,0-6.492,2.28,13.155,13.155,0,0,0-3.631,5.469,17.11,17.11,0,0,0-.752,3,16.367,16.367,0,0,0-.133,2.918,23.148,23.148,0,0,0,.859,5.185,46.167,46.167,0,0,0,2.779,7.123l.9,1.894c.095.2.17.366.234.493S447.063,366.641,447.063,366.641Z" transform="translate(-403.897 -222.924)"/>
        <path id="Path_37176" data-name="Path 37176" class="cls-11" d="M429.725,301.79a1.51,1.51,0,0,1,.057.259,7.7,7.7,0,0,1,.095.77,16.132,16.132,0,0,1,0,2.835,18.023,18.023,0,0,1-10.18,14.8,16.244,16.244,0,0,1-2.646,1.017c-.316.1-.575.145-.745.189s-.265.051-.265.038a8.073,8.073,0,0,1,.972-.347,19.94,19.94,0,0,0,2.583-1.105,18.484,18.484,0,0,0,10.054-14.613,20.562,20.562,0,0,0,.107-2.8A8,8,0,0,1,429.725,301.79Z" transform="translate(-394.357 -213.822)"/>
        <path id="Path_37177" data-name="Path 37177" class="cls-11" d="M599.756,345.148a9.232,9.232,0,0,0-2.437,2.223c-.631.815-1.263,1.894-1.977,3.031a23.368,23.368,0,0,1-2.7,3.568,22.735,22.735,0,0,1-6.473,4.869,18.956,18.956,0,0,1-2.261.966,4.943,4.943,0,0,1-.872.253,4.831,4.831,0,0,1,.821-.373c.53-.234,1.3-.562,2.2-1.055a24.31,24.31,0,0,0,6.315-4.882,24,24,0,0,0,2.684-3.5,32.971,32.971,0,0,1,2.052-3.019,7.978,7.978,0,0,1,1.812-1.673,3.95,3.95,0,0,1,.587-.322C599.68,345.167,599.756,345.136,599.756,345.148Z" transform="translate(-455.897 -229.799)"/>
        <path id="Path_37178" data-name="Path 37178" class="cls-9" d="M538.839,268.606a1,1,0,0,1-.291.076l-.84.151c-.732.12-1.793.278-3.1.455-2.627.354-6.264.77-10.3,1.067a51.2,51.2,0,0,1-5.683.2,16.114,16.114,0,0,1-4.6-.789,10.226,10.226,0,0,1-2.81-1.421,6.921,6.921,0,0,1-.669-.537c-.139-.139-.208-.208-.2-.221s.328.253.941.631a11.27,11.27,0,0,0,2.81,1.3,16.364,16.364,0,0,0,4.547.707,56.209,56.209,0,0,0,5.683-.227c4.023-.3,7.66-.669,10.287-.966l3.113-.354A8,8,0,0,1,538.839,268.606Z" transform="translate(-429.107 -201.219)"/>
        <path id="Path_37179" data-name="Path 37179" class="cls-7" d="M586.464,385.444a16.968,16.968,0,0,1-16.488,20.208l-47.836-.531,1.263-15.491,40.959-6.151" transform="translate(-433.455 -243.925)"/>
        <path id="Path_37180" data-name="Path 37180" class="cls-7" d="M511.5,391.977a44.286,44.286,0,0,1-5.456-2.311,17.835,17.835,0,0,0-8.4-1.629l-11.4.581a5.412,5.412,0,0,0,1.895,2.526c1.194.632,8.348.834,8.348.834l-.366.373a8.209,8.209,0,0,1-5.683,2.488h-1.092a10.6,10.6,0,0,1-2.381-.467l-2.81-1.137c-.853-.379-1.749-.322-2.122.537s-.088,1.844,2.236,3.012c1.295.631,6.107,2.318,6.107,2.318a11.333,11.333,0,0,0,.284,2.033c.208.7,2.1,1.4,2.1,1.4a25.163,25.163,0,0,0,1.68,3.006,17.166,17.166,0,0,0,3.757,1.3,16.223,16.223,0,0,0,8.986-.069l4.345-1.3V392.211" transform="translate(-418.625 -245.596)"/>
        <path id="Path_37181" data-name="Path 37181" class="cls-8" d="M500.723,407.111a12.927,12.927,0,0,1-5.753-1.516c0-.076,1.263.4,2.861.815S500.729,407.016,500.723,407.111Z" transform="translate(-423.443 -252.072)"/>
        <path id="Path_37182" data-name="Path 37182" class="cls-8" d="M501.664,411.727a2.917,2.917,0,0,1-1.6-.12,2.961,2.961,0,0,1-1.44-.707,9.529,9.529,0,0,1,1.516.436A10.27,10.27,0,0,1,501.664,411.727Z" transform="translate(-424.788 -254.029)"/>
        <path id="Path_37183" data-name="Path 37183" class="cls-8" d="M502.34,392.66a4.851,4.851,0,0,1-.878.941,14.062,14.062,0,0,1-2.488,1.895,9.8,9.8,0,0,1-2.911,1.124,4.2,4.2,0,0,1-1.263.139,16.626,16.626,0,0,0,4.054-1.509,19.387,19.387,0,0,0,2.494-1.787A7.183,7.183,0,0,1,502.34,392.66Z" transform="translate(-423.381 -247.308)"/>
        <path id="Path_37184" data-name="Path 37184" class="cls-5" d="M529.942,383.829l-1.162,17.518h45.057a16.829,16.829,0,0,0,8.683-2.406h0a16.849,16.849,0,0,0,7.856-17.682,51.834,51.834,0,0,0-2.9-9.719l-22.658,3.732.726,2.816Z" transform="translate(-435.902 -239.525)"/>
        <path id="Path_37185" data-name="Path 37185" class="cls-9" d="M577.058,379.576a3.687,3.687,0,0,1-.455.1l-1.32.24-4.869.808L554.4,383.251l-16.034,2.457-4.863.707-1.326.177a4.08,4.08,0,0,1-.467.038,2.238,2.238,0,0,1,.461-.107l1.314-.234,4.85-.815,16.015-2.526,16.065-2.475,4.863-.707,1.326-.177a2.15,2.15,0,0,1,.455-.013Z" transform="translate(-436.982 -242.484)"/>
        <path id="Path_37186" data-name="Path 37186" class="cls-11" d="M561.612,407.561c-.082,0,.272-1.263.316-3.328a14.359,14.359,0,0,0-.069-1.68,15.79,15.79,0,0,0-.278-1.895,17.638,17.638,0,0,0-1.465-4.155,19.013,19.013,0,0,0-2.463-3.663l-.632-.739c-.215-.24-.448-.448-.663-.663-.423-.436-.872-.783-1.263-1.118-1.61-1.263-2.753-1.894-2.715-1.951a4.883,4.883,0,0,1,.8.41,8.488,8.488,0,0,1,.909.549c.335.24.752.474,1.149.815a14.531,14.531,0,0,1,1.3,1.1c.221.215.467.417.688.631l.688.745a18.523,18.523,0,0,1,2.526,3.707,17.486,17.486,0,0,1,1.465,4.244,14.108,14.108,0,0,1,.253,1.951,12.016,12.016,0,0,1,0,1.705,11.12,11.12,0,0,1-.126,1.408,7.014,7.014,0,0,1-.183,1.042A5.308,5.308,0,0,1,561.612,407.561Z" transform="translate(-444.598 -245.727)"/>
        <path id="Path_37187" data-name="Path 37187" class="cls-11" d="M601.283,404.388a9.471,9.471,0,0,1-2.09-.246,10.815,10.815,0,0,1-2.337-.827,9.276,9.276,0,0,1-2.633-1.958,8.386,8.386,0,0,1-1.939-3.473,9.344,9.344,0,0,1-.335-2.21,8.587,8.587,0,0,1,.189-2.356,6.947,6.947,0,0,1,.935-2.318,5.242,5.242,0,0,1,1.894-1.806,4.7,4.7,0,0,1,2.646-.632,3.53,3.53,0,0,1,2.469,1.263,3.46,3.46,0,0,1,.833,2.659,3.157,3.157,0,0,1-1.553,2.223,7.4,7.4,0,0,1-4.976.682,10.388,10.388,0,0,1-8.784-9.952,7.461,7.461,0,0,1,.177-2.1,17.565,17.565,0,0,0-.051,2.09,10.736,10.736,0,0,0,1.8,5.317,10.306,10.306,0,0,0,6.9,4.376,7.13,7.13,0,0,0,4.762-.631,2.842,2.842,0,0,0,1.4-1.989,3.3,3.3,0,0,0-3.012-3.568,4.363,4.363,0,0,0-2.457.562,5.684,5.684,0,0,0-2.684,3.9,8.29,8.29,0,0,0-.2,2.286,9.071,9.071,0,0,0,.31,2.141,8.113,8.113,0,0,0,1.844,3.391,9.211,9.211,0,0,0,2.526,1.951,11.1,11.1,0,0,0,2.286.865C600.531,404.331,601.289,404.344,601.283,404.388Z" transform="translate(-456.837 -243.874)"/>
      </g>
      <g id="freepik--character-1--inject-53" transform="translate(25.449 22.999)">
        <path id="Path_37188" data-name="Path 37188" class="cls-5" d="M232.845,114.47H120a24.868,24.868,0,0,0-24.868,24.868v40.214H70.79L95.134,203.9v27.338A24.868,24.868,0,0,0,120,256.1H232.845a24.868,24.868,0,0,0,24.868-24.868v-91.9A24.868,24.868,0,0,0,232.845,114.47Z" transform="translate(-70.79 -106.943)"/>
        <path id="Path_37189" data-name="Path 37189" class="cls-9" d="M250.306,120.054c-.714,1.85.512,3.865,1.895,5.292s3.037,2.779,3.473,4.711c.36,1.623-.24,3.309-.095,4.964s1.061,3.214,1.579,4.831a15.842,15.842,0,0,1-.278,9.094,16.715,16.715,0,0,1-3.385,6.7,8.929,8.929,0,0,1-6.618,3.157,2.614,2.614,0,0,1-1.958-.707,3.157,3.157,0,0,1-.562-1.737,169.322,169.322,0,0,1,0-38.269" transform="translate(-134.35 -108.277)"/>
        <path id="Path_37190" data-name="Path 37190" class="cls-9" d="M244.617,185.541a10.162,10.162,0,0,1,10.136,10.5,11.719,11.719,0,0,1,8.405,13.1c-.36,1.857-1.187,3.625-1.3,5.507-.126,2.059.632,4.061,1,6.081a19.159,19.159,0,0,1-1.1,10.963c-.865,2.09-2.482,4.25-4.743,4.313a4.673,4.673,0,0,1-3.789-2.229,11.752,11.752,0,0,1-1.528-4.313c-.979-4.938-1.263-10.009-2.627-14.853s-4.016-9.618-8.393-12.074c-2.419-1.364-5.324-2.008-7.25-4.01a7.875,7.875,0,0,1-1.421-8.146A10.382,10.382,0,0,1,238.2,184.6" transform="translate(-129.993 -132.786)"/>
        <path id="Path_37191" data-name="Path 37191" class="cls-9" d="M191.627,118.856c-.063-2.349,2.1-4.162,4.288-5.052s4.616-1.187,6.561-2.526c1.73-1.162,2.886-2.974,4.345-4.42a14.455,14.455,0,0,1,24.313,6.631c.84,3.341.265,7.294-2.368,9.517-3.056,2.577-7.578,2-11.512,1.2s-8.355-1.591-11.626.714c-1.97,1.383-3.107,3.644-4.313,5.734s-2.715,4.218-5,5.008-5.38-.575-5.469-2.981" transform="translate(-115.032 -102.551)"/>
        <path id="Path_37192" data-name="Path 37192" class="cls-13" d="M204.694,125.99a3.928,3.928,0,0,0-3.5,3.991h0l2.343,53.046c.1,6.264,9.258,9.782,15.964,9.624h0c6.776-.158,6.991-3.48,7.079-9.441.139-9.952.126-13.691.133-13.634s8.557-1.44,10.306-12.63c.865-5.551.568-14.657.082-22.1-.436-6.7-4.894-14.91-11.569-14.19Z" transform="translate(-118.842 -109.206)"/>
        <path id="Path_37193" data-name="Path 37193" class="cls-9" d="M253.334,153.55A1.434,1.434,0,0,1,251.958,155a1.364,1.364,0,0,1-1.478-1.263,1.427,1.427,0,0,1,1.377-1.446,1.364,1.364,0,0,1,1.478,1.263Z" transform="translate(-137.006 -120.877)"/>
        <path id="Path_37194" data-name="Path 37194" class="cls-9" d="M251.635,149.8c-.177.189-1.263-.632-2.8-.632s-2.671.783-2.842.594c-.082-.082.1-.423.594-.783a3.909,3.909,0,0,1,2.267-.7,3.789,3.789,0,0,1,2.236.714C251.559,149.366,251.723,149.72,251.635,149.8Z" transform="translate(-135.344 -119.402)"/>
        <path id="Path_37195" data-name="Path 37195" class="cls-9" d="M229.884,153.55A1.434,1.434,0,0,1,228.508,155a1.364,1.364,0,0,1-1.478-1.263,1.427,1.427,0,0,1,1.377-1.446,1.364,1.364,0,0,1,1.478,1.263Z" transform="translate(-128.365 -120.877)"/>
        <path id="Path_37196" data-name="Path 37196" class="cls-9" d="M227.7,150.308c-.177.189-1.263-.632-2.8-.632s-2.671.783-2.835.594c-.082-.082.095-.423.587-.783a3.928,3.928,0,0,1,2.267-.707,3.789,3.789,0,0,1,2.236.72C227.591,149.885,227.755,150.226,227.7,150.308Z" transform="translate(-126.526 -119.587)"/>
        <path id="Path_37197" data-name="Path 37197" class="cls-9" d="M239.427,161.788a10.364,10.364,0,0,1,2.526-.455c.392-.044.764-.126.834-.392a2.065,2.065,0,0,0-.265-1.168l-1.175-2.993c-1.623-4.263-2.8-7.767-2.627-7.831s1.629,3.341,3.252,7.578l1.124,3.012a2.317,2.317,0,0,1,.208,1.541,1,1,0,0,1-.631.581,2.463,2.463,0,0,1-.632.088A10.009,10.009,0,0,1,239.427,161.788Z" transform="translate(-132.666 -119.649)"/>
        <path id="Path_37198" data-name="Path 37198" class="cls-14" d="M232.867,195.849A28.417,28.417,0,0,1,217.9,191.89s3.644,7.666,14.821,6.593Z" transform="translate(-125 -135.473)"/>
        <path id="Path_37199" data-name="Path 37199" class="cls-14" d="M236.131,174.55a2.772,2.772,0,0,0-2.526-1.023,2.526,2.526,0,0,0-1.749.941,1.6,1.6,0,0,0-.114,1.838,1.85,1.85,0,0,0,2.021.505,5.771,5.771,0,0,0,1.964-1.181,1.68,1.68,0,0,0,.442-.455.512.512,0,0,0,0-.575" transform="translate(-130.014 -128.697)"/>
        <path id="Path_37200" data-name="Path 37200" class="cls-9" d="M232.525,171c.253,0,.259,1.661,1.692,2.842s3.214,1,3.227,1.263c0,.107-.4.328-1.149.347a4.161,4.161,0,0,1-2.7-.928,3.631,3.631,0,0,1-1.307-2.387C232.222,171.4,232.411,171,232.525,171Z" transform="translate(-130.298 -127.775)"/>
        <path id="Path_37201" data-name="Path 37201" class="cls-9" d="M227.9,146.241c-.152.423-1.692.227-3.5.448s-3.271.72-3.511.341c-.107-.177.145-.575.733-.979a6.138,6.138,0,0,1,5.342-.632C227.649,145.717,227.984,146.045,227.9,146.241Z" transform="translate(-126.092 -118.222)"/>
        <path id="Path_37202" data-name="Path 37202" class="cls-9" d="M250.936,142.719c-.272.347-1.332,0-2.614,0s-2.355.24-2.6-.126c-.114-.177.057-.524.53-.859a3.789,3.789,0,0,1,4.2.12C250.936,142.188,251.069,142.548,250.936,142.719Z" transform="translate(-135.24 -116.777)"/>
        <path id="Path_37203" data-name="Path 37203" class="cls-9" d="M194.337,161.371a9.908,9.908,0,0,0,11.8-10.931c-.347-2.747-1.825-5.532-.871-8.134,1.263-3.429,6.069-4.484,7.344-7.913.739-1.989.076-4.319.916-6.271.789-1.831,2.722-2.886,4.6-3.568s3.89-1.149,5.469-2.374,2.558-3.536,1.541-5.26a105.776,105.776,0,0,0-24.4,5.93c-1.825.682-3.738,1.5-4.818,3.12-1.137,1.718-1.08,3.928-.985,5.987.467,10.028-1.061,19.419-.594,29.447" transform="translate(-116.284 -107.846)"/>
        <path id="Path_37204" data-name="Path 37204" class="cls-10" d="M188.681,155.529a.631.631,0,0,1-.183-.057,2.317,2.317,0,0,1-.512-.253,3.707,3.707,0,0,1-1.389-1.642,5.507,5.507,0,0,1-.366-3.391,10.792,10.792,0,0,1,2.027-4.061,29.762,29.762,0,0,0,3.069-4.509,6.946,6.946,0,0,0,.739-2.88,9.579,9.579,0,0,0-.631-3.107,9.435,9.435,0,0,1-.663-3.372,7.578,7.578,0,0,1,3.631-6.1,8.689,8.689,0,0,1,3.682-1.048,15.491,15.491,0,0,0,3.682-.632,4.806,4.806,0,0,0,2.589-2.33,17.857,17.857,0,0,0,1.225-3.3,17.842,17.842,0,0,1,1.263-3.157,11.942,11.942,0,0,1,4.187-4.7,9.056,9.056,0,0,1,5.3-1.377,6.814,6.814,0,0,1,4.174,1.711,6.593,6.593,0,0,1,1.863,2.867,5.31,5.31,0,0,1,.259,2.147,3.24,3.24,0,0,1-.126.745,6.453,6.453,0,0,0,.063-.751,5.589,5.589,0,0,0-.316-2.1,6.555,6.555,0,0,0-5.93-4.383,8.841,8.841,0,0,0-5.14,1.377,11.67,11.67,0,0,0-4.067,4.61,17.393,17.393,0,0,0-1.225,3.157,18,18,0,0,1-1.263,3.353,5.741,5.741,0,0,1-1.13,1.49,4.794,4.794,0,0,1-1.629.991,15.541,15.541,0,0,1-3.789.669,8.336,8.336,0,0,0-3.549,1,7.25,7.25,0,0,0-3.48,5.822,9.27,9.27,0,0,0,.631,3.271,9.668,9.668,0,0,1,.663,3.208,7.249,7.249,0,0,1-.783,2.993,30.526,30.526,0,0,1-3.126,4.528,10.583,10.583,0,0,0-2.033,3.96,5.355,5.355,0,0,0,.3,3.3,3.789,3.789,0,0,0,1.314,1.648C188.429,155.44,188.688,155.5,188.681,155.529Z" transform="translate(-113.287 -105.149)"/>
        <path id="Path_37205" data-name="Path 37205" class="cls-10" d="M241.57,105.22a1.036,1.036,0,0,1,.436.133,4.459,4.459,0,0,1,1.055.632,5.412,5.412,0,0,1,1.105,7.395,4.8,4.8,0,0,1-.821.916c-.227.189-.366.272-.379.253a15.7,15.7,0,0,0,1-1.263,5.45,5.45,0,0,0-1.055-7.092A14.378,14.378,0,0,0,241.57,105.22Z" transform="translate(-133.723 -103.535)"/>
        <path id="Path_37206" data-name="Path 37206" class="cls-10" d="M269.618,214.668a9.4,9.4,0,0,0,.322-1.187,5.469,5.469,0,0,0-.549-3.214,7.458,7.458,0,0,0-3.524-3.284A14.67,14.67,0,0,0,263.12,206c-.985-.253-2.027-.461-3.069-.8a6.947,6.947,0,0,1-2.823-1.541,4.711,4.711,0,0,1-1.332-2.678c-.171-.941-.227-1.831-.436-2.627a5.152,5.152,0,0,0-1.017-2.008,5.8,5.8,0,0,0-2.7-1.838c-.751-.227-1.2-.227-1.2-.265a1.63,1.63,0,0,1,.322,0,5.255,5.255,0,0,1,.916.145,5.728,5.728,0,0,1,2.842,1.812,5.336,5.336,0,0,1,1.105,2.09c.227.827.3,1.73.474,2.64a4.37,4.37,0,0,0,1.263,2.526,6.719,6.719,0,0,0,2.7,1.459c1.017.328,2.059.543,3.05.8a14.105,14.105,0,0,1,2.779,1,7.578,7.578,0,0,1,3.6,3.454,5.443,5.443,0,0,1,.467,3.341,3.952,3.952,0,0,1-.284.878,1.526,1.526,0,0,1-.152.278Z" transform="translate(-137.028 -136.338)"/>
        <path id="Path_37207" data-name="Path 37207" class="cls-9" d="M195.493,166.752c-5.683-1.516-10.546-7.054-12.529-12.567s-1.983-11.531-1.471-17.366c.366-4.225,1.111-8.7,3.915-11.878,4.231-4.8,8.841-7.25,15.207-7.048" transform="translate(-111.479 -108.201)"/>
        <path id="Path_37208" data-name="Path 37208" class="cls-2" d="M228.7,208.514l-5.273-1.326a3,3,0,0,0,1.048-3.675,4.831,4.831,0,0,0-4.029-2.987l-24.035-2.715A1.894,1.894,0,0,0,194.392,199q-1.6,4.067-.107,6.694h-.114l-4.635.922-7.856,69.3,51.454-2.406Z" transform="translate(-111.653 -137.648)"/>
        <path id="Path_37209" data-name="Path 37209" class="cls-9" d="M229.683,212.371a5.437,5.437,0,0,1-.966.189c-.632.1-1.535.208-2.659.322a62.114,62.114,0,0,1-17.612-.878c-1.111-.221-2-.423-2.614-.587a5.131,5.131,0,0,1-.941-.278,5.526,5.526,0,0,1,.966.158c.632.12,1.522.29,2.633.48a72.913,72.913,0,0,0,17.549.871c1.124-.076,2.033-.158,2.665-.221a6.245,6.245,0,0,1,.979-.057Z" transform="translate(-120.206 -142.566)"/>
        <path id="Path_37210" data-name="Path 37210" class="cls-3" d="M207.32,227.143a18.891,18.891,0,0,1,1.8-2.993,18.679,18.679,0,0,1,2.078-2.81,18.667,18.667,0,0,1-1.806,2.993A18.415,18.415,0,0,1,207.32,227.143Z" transform="translate(-121.102 -146.325)"/>
        <path id="Path_37211" data-name="Path 37211" class="cls-3" d="M231.063,229.258a36.179,36.179,0,0,1-4.313-5.368,18.367,18.367,0,0,1,2.286,2.583,17.8,17.8,0,0,1,2.027,2.785Z" transform="translate(-128.261 -147.265)"/>
        <path id="Path_37212" data-name="Path 37212" class="cls-3" d="M220.665,242.283a19.444,19.444,0,0,1-.777-3.448,18.2,18.2,0,0,1-.448-3.5,37.471,37.471,0,0,1,1.225,6.953Z" transform="translate(-125.568 -151.481)"/>
        <path id="Path_37213" data-name="Path 37213" class="cls-3" d="M237.885,247.2a27.785,27.785,0,0,1-2.918,3.107,27.233,27.233,0,0,1-3.158,2.873,27.735,27.735,0,0,1,2.918-3.107A28.73,28.73,0,0,1,237.885,247.2Z" transform="translate(-130.126 -155.855)"/>
        <path id="Path_37214" data-name="Path 37214" class="cls-3" d="M211.345,262.513a14.644,14.644,0,0,1-5.475-5.8c.088-.057,1.055,1.459,2.577,3.056S211.408,262.43,211.345,262.513Z" transform="translate(-120.567 -159.358)"/>
        <path id="Path_37215" data-name="Path 37215" class="cls-3" d="M219.646,280.34c0,.095-1.44.556-3.107,1.446s-2.886,1.825-2.949,1.743a9.187,9.187,0,0,1,2.8-2.04,8.992,8.992,0,0,1,3.259-1.149Z" transform="translate(-123.412 -168.067)"/>
        <path id="Path_37216" data-name="Path 37216" class="cls-3" d="M233.829,276.505a6.21,6.21,0,0,1-1-1.08c-.581-.695-1.358-1.686-2.166-2.817s-1.49-2.185-1.964-2.968a6.279,6.279,0,0,1-.695-1.3,7.255,7.255,0,0,1,.89,1.175l2.04,2.9,2.078,2.867a6.949,6.949,0,0,1,.821,1.219Z" transform="translate(-128.722 -163.645)"/>
        <path id="Path_37217" data-name="Path 37217" class="cls-3" d="M234.163,293.59a18.052,18.052,0,0,1-3.789.884,18.317,18.317,0,0,1-3.884.385,30.571,30.571,0,0,1,3.833-.707A32.681,32.681,0,0,1,234.163,293.59Z" transform="translate(-128.166 -172.949)"/>
        <path id="Path_37218" data-name="Path 37218" class="cls-3" d="M215.628,207.107c-.044,0,.259-.379.518-1.048a5.569,5.569,0,0,0,.278-2.741,11.175,11.175,0,0,0-.815-2.7,5.1,5.1,0,0,1-.429-1.111,3.736,3.736,0,0,1,.631,1.017,8.753,8.753,0,0,1,.928,2.741,5.134,5.134,0,0,1-.385,2.886,2.04,2.04,0,0,1-.726.954Z" transform="translate(-123.998 -138.281)"/>
        <path id="Path_37219" data-name="Path 37219" class="cls-3" d="M231.105,203.32a5.753,5.753,0,0,1,1.017,4.345c-.095,0-.107-1-.392-2.2S231.036,203.371,231.105,203.32Z" transform="translate(-129.864 -139.685)"/>
        <path id="Path_37220" data-name="Path 37220" class="cls-13" d="M298.872,241.307l23.934-42.039,2.886-7.294s7.464-16.04,7.982-17.682c.6-1.894,1.655-2.046,2.337-1.781,1.061.423,1.4,2,.935,3.637-.164.562-3.063,9.378-3.063,9.378a21.173,21.173,0,0,1,2.475-1.838c1.838-1.263,5.2-1.2,8.323-.088s3.89,1.7,3.517,2.924a1.629,1.629,0,0,1-1,.991,3.157,3.157,0,0,1-2.3.051c-5.014-1.705-7.237.556-7.237.556l-.373.954s3.789-1.206,5.911.5a3.158,3.158,0,0,1,.783.909,4.149,4.149,0,0,1,1.535,6.984,1.724,1.724,0,0,1-1.895.48,2.116,2.116,0,0,1-.714-.827,3.642,3.642,0,0,0-.347-.474l-1.427,2.526s-3.517,5.494-4.78,8.064l-16.482,43.908a11.62,11.62,0,0,1-15.156,6.725h0a11.626,11.626,0,0,1-5.835-16.564Z" transform="translate(-154.278 -128.295)"/>
        <path id="Path_37221" data-name="Path 37221" class="cls-13" d="M340.27,209.634a2.406,2.406,0,0,0,2.772-.48c.758-.657,1.263-1.56,2-2.273,2.128-2.128,5.683-2.33,7.723-4.559.284-.309.537-.783.291-1.124s-.7-.278-1.08-.2l-9.795,1.939" transform="translate(-170.094 -138.806)"/>
        <path id="Path_37222" data-name="Path 37222" class="cls-14" d="M342.191,202.8a4.2,4.2,0,0,1,1.036-.316c.676-.171,1.661-.392,2.873-.632l4.269-.9,1.263-.259a2,2,0,0,1,1.5.051.846.846,0,0,1,.316.89,1.673,1.673,0,0,1-.379.72,6.453,6.453,0,0,1-1.105.972,38.089,38.089,0,0,1-4.844,2.343,7.232,7.232,0,0,0-1.857,1.263c-.505.486-.9,1.042-1.32,1.516a3.524,3.524,0,0,1-2.6,1.459c-.751,0-1.061-.373-1.036-.379a2.936,2.936,0,0,0,1.023.158,3.416,3.416,0,0,0,2.3-1.5,20.309,20.309,0,0,1,1.295-1.591,7.635,7.635,0,0,1,1.951-1.4c1.471-.8,3.252-1.263,4.755-2.337a6.4,6.4,0,0,0,1-.878c.278-.309.373-.682.177-.789a1.992,1.992,0,0,0-1.067.032l-1.263.234-4.294.789c-1.225.215-2.217.379-2.9.48A3.486,3.486,0,0,1,342.191,202.8Z" transform="translate(-170.108 -138.67)"/>
        <path id="Path_37223" data-name="Path 37223" class="cls-14" d="M360.364,196.974a4.073,4.073,0,0,1,1.124-1.516,3.158,3.158,0,0,1,1.895-.631,8.159,8.159,0,0,1,2.526.417,12.838,12.838,0,0,0,2.564.581,4.13,4.13,0,0,0,2.147-.328,1.636,1.636,0,0,0,.916-1.149,1.023,1.023,0,0,0,0-.537c-.038,0-.038.189-.133.505a1.535,1.535,0,0,1-.884.947,4.206,4.206,0,0,1-2.015.227,13.9,13.9,0,0,1-2.488-.632,8.071,8.071,0,0,0-2.614-.4,3.334,3.334,0,0,0-2.04.758,2.892,2.892,0,0,0-.853,1.193C360.351,196.778,360.339,196.967,360.364,196.974Z" transform="translate(-177.495 -136.18)"/>
        <path id="Path_37224" data-name="Path 37224" class="cls-14" d="M358.105,177.33a10.729,10.729,0,0,0-.594,1.749c-.373,1.212-.815,2.652-1.307,4.244s-.979,3.019-1.37,4.225a10.06,10.06,0,0,0-.524,1.768,8.975,8.975,0,0,0,.77-1.68c.417-1.061.947-2.526,1.478-4.2s.941-3.158,1.206-4.288A8.793,8.793,0,0,0,358.105,177.33Z" transform="translate(-175.267 -130.107)"/>
        <path id="Path_37225" data-name="Path 37225" class="cls-14" d="M362.51,202.624a2.038,2.038,0,0,0,.581,0,1.711,1.711,0,0,1,1.377.366.928.928,0,0,1,.221.884,4.761,4.761,0,0,1-.448,1.111,2.071,2.071,0,0,0-.234,1.452,1.774,1.774,0,0,0,1.124,1.13,2,2,0,0,0,1.573-.158,2.457,2.457,0,0,0,1.042-1.017,8.128,8.128,0,0,0,.695-2.273,4.655,4.655,0,0,0,0-1.6,1.036,1.036,0,0,0-.221-.543c-.032,0,.051.2.082.562a5.576,5.576,0,0,1-.133,1.535,8.779,8.779,0,0,1-.732,2.153,1.977,1.977,0,0,1-2.2.991,1.4,1.4,0,0,1-.9-.884,1.743,1.743,0,0,1,.2-1.206,5.224,5.224,0,0,0,.442-1.206,1.2,1.2,0,0,0-.347-1.118,1.8,1.8,0,0,0-1.579-.328A1.743,1.743,0,0,0,362.51,202.624Z" transform="translate(-178.289 -139.191)"/>
        <path id="Path_37226" data-name="Path 37226" class="cls-14" d="M368.987,206.783a.87.87,0,0,0-.107.518,1.6,1.6,0,0,0,.733,1.231,2.134,2.134,0,0,0,2.128,0,3.479,3.479,0,0,0,1.6-2.046,4.205,4.205,0,0,0,0-2.6,4.016,4.016,0,0,0-1.168-1.768,3.789,3.789,0,0,0-1.219-.733,1.156,1.156,0,0,0-.512-.114A6.833,6.833,0,0,1,372,202.306a3.959,3.959,0,0,1,1,4.067,3.252,3.252,0,0,1-1.421,1.863,1.894,1.894,0,0,1-1.825.051,1.535,1.535,0,0,1-.733-1.029A4.655,4.655,0,0,1,368.987,206.783Z" transform="translate(-180.636 -138.929)"/>
        <path id="Path_37227" data-name="Path 37227" class="cls-14" d="M354.547,213.313a1.509,1.509,0,0,0-.846-.259,3.473,3.473,0,0,0-2.2.524l.272.183a10.163,10.163,0,0,0,.177-1.263,7.946,7.946,0,0,0-.631-4.269,19.7,19.7,0,0,1,.272,4.237,11.191,11.191,0,0,1-.158,1.206l-.076.41.347-.234a3.65,3.65,0,0,1,1.989-.594A8.541,8.541,0,0,0,354.547,213.313Z" transform="translate(-174.166 -141.494)"/>
        <path id="Path_37228" data-name="Path 37228" class="cls-14" d="M364.3,192.559c-.1,0,.038.758.707,1.339s1.421.632,1.421.524-.6-.29-1.175-.8S364.4,192.521,364.3,192.559Z" transform="translate(-178.939 -135.719)"/>
        <path id="Path_37229" data-name="Path 37229" class="cls-5" d="M246,291.026l25.039.246-4.2-18.168,1.408,3.429a17.246,17.246,0,0,0,15.958,10.7h0c7.919,0,13.394-5.892,16.741-13.066,7.831-16.773,15.377-43.782,15.377-43.782L301.06,216.977c-11.051,20.9-21.433,39.052-21.433,39.052s-3-9.113-5.317-17.246-2.3-12.4-5.854-16.457c-5.475-6.239-13.261-7.786-20.511-9.656l-.272,33.747L246,291.026" transform="translate(-135.355 -143.13)"/>
        <path id="Path_37230" data-name="Path 37230" class="cls-5" d="M179.6,265.261,225.2,274.1l2.217,17.518H157.508a13.767,13.767,0,0,1-13.893-14.853c1-12.769,2.1-28.493,2.93-35.143a45.3,45.3,0,0,1,5.159-15.156c3.53-6.643,15.295-15.156,25.607-15.6l1.951,43.428" transform="translate(-97.61 -142.467)"/>
        <g id="Group_2857" data-name="Group 2857" class="cls-6" transform="translate(45.962 68.441)">
          <path id="Path_37231" data-name="Path 37231" d="M246,291.026l25.039.246-4.2-18.168,1.408,3.429a17.246,17.246,0,0,0,15.958,10.7h0c7.919,0,13.394-5.892,16.741-13.066,7.831-16.773,15.377-43.782,15.377-43.782L301.06,216.977c-11.051,20.9-21.433,39.052-21.433,39.052s-3-9.113-5.317-17.246-2.3-12.4-5.854-16.457c-5.475-6.239-13.261-7.786-20.511-9.656l-.272,33.747L246,291.026" transform="translate(-181.317 -211.571)"/>
          <path id="Path_37232" data-name="Path 37232" d="M179.6,265.283l41.123,7.54a4.307,4.307,0,0,1,3.429,3.341l3.259,15.516H157.508a13.767,13.767,0,0,1-13.893-14.853c1-12.769,2.1-28.493,2.93-35.143a45.3,45.3,0,0,1,5.159-15.156c3.53-6.643,15.295-15.156,25.607-15.6l1.951,43.428" transform="translate(-143.572 -210.93)"/>
        </g>
        <path id="Path_37233" data-name="Path 37233" class="cls-9" d="M183.976,271.747a1.781,1.781,0,0,1,0-.417v-5.614c0-3.707-.069-8.841-.354-14.48-.145-2.829-.328-5.519-.524-7.957a32.639,32.639,0,0,0-.916-6.416,9.188,9.188,0,0,0-2.008-3.789A14.329,14.329,0,0,0,179,232a4.888,4.888,0,0,1,1.295.966,8.9,8.9,0,0,1,2.141,3.833,31.676,31.676,0,0,1,.985,6.479c.215,2.444.4,5.134.549,7.963.29,5.684.322,10.792.259,14.524-.038,1.857-.088,3.36-.133,4.421l-.069,1.194a1.581,1.581,0,0,1-.05.366Z" transform="translate(-110.666 -150.253)"/>
        <path id="Path_37234" data-name="Path 37234" class="cls-9" d="M240.273,306.345A6.948,6.948,0,0,0,238.612,305a10.5,10.5,0,0,0-2.33-.928c-.941-.272-2.046-.48-3.265-.726-4.875-1-11.6-2.381-19.052-3.789s-14.234-2.526-19.141-3.309l-5.816-.928-1.579-.265a3.434,3.434,0,0,1-.549-.114,3.248,3.248,0,0,1,.556.051l1.591.2c1.377.183,3.372.461,5.829.827,4.919.733,11.708,1.819,19.166,3.214s14.183,2.81,19.04,3.858c1.219.265,2.324.493,3.271.783a10.064,10.064,0,0,1,2.343,1,5.052,5.052,0,0,1,1.263,1.01,2.523,2.523,0,0,1,.265.322A.58.58,0,0,1,240.273,306.345Z" transform="translate(-113.569 -173.447)"/>
        <path id="Path_37235" data-name="Path 37235" class="cls-9" d="M180.39,294.94c0,.057-.84.253-2.141.783a19,19,0,0,0-2.21,1.086,19.779,19.779,0,0,0-2.456,1.73,19.322,19.322,0,0,0-2.1,2.122,17.836,17.836,0,0,0-1.452,1.983c-.745,1.194-1.086,2-1.143,1.977a2.367,2.367,0,0,1,.2-.587,12.84,12.84,0,0,1,.745-1.509,16.739,16.739,0,0,1,1.421-2.059,16.262,16.262,0,0,1,4.673-3.922,15.044,15.044,0,0,1,2.267-1.042,11.677,11.677,0,0,1,1.617-.474A2.1,2.1,0,0,1,180.39,294.94Z" transform="translate(-106.94 -173.447)"/>
        <path id="Path_37236" data-name="Path 37236" class="cls-9" d="M278.05,286.882a2.717,2.717,0,0,1-.095-.436c-.051-.316-.12-.732-.2-1.263-.177-1.093-.411-2.671-.676-4.629-.53-3.909-1.175-9.327-1.718-15.326s-.865-11.443-1.042-15.39c-.088-1.97-.139-3.568-.164-4.673V243.9a2.366,2.366,0,0,1,0-.442,1.892,1.892,0,0,1,.051.442l.082,1.263c.069,1.137.158,2.722.272,4.66.234,3.941.6,9.378,1.137,15.371s1.149,11.411,1.623,15.326c.234,1.932.429,3.5.568,4.642.057.524.107.941.145,1.263a1.8,1.8,0,0,1,.019.455Z" transform="translate(-145.726 -154.476)"/>
        <path id="Path_37237" data-name="Path 37237" class="cls-9" d="M302.234,293.717a4.544,4.544,0,0,1-.366-.417,12.109,12.109,0,0,1-.84-1.263,16.64,16.64,0,0,1-2.242-9.574,10.634,10.634,0,0,1,.2-1.5,2.1,2.1,0,0,1,.139-.537c.057,0-.063.783-.107,2.046a18.832,18.832,0,0,0,2.21,9.473C301.824,293.041,302.285,293.679,302.234,293.717Z" transform="translate(-154.792 -168.1)"/>
        <path id="Path_37238" data-name="Path 37238" class="cls-11" d="M173.508,254.361a1.094,1.094,0,0,1-.234.051,5.889,5.889,0,0,1-.688.069,10.426,10.426,0,0,1-2.526-.2,17.993,17.993,0,0,1-3.593-1.124c-1.307-.543-2.7-1.263-4.149-1.964a31.2,31.2,0,0,0-4.212-1.743,14.29,14.29,0,0,0-3.625-.714,11.759,11.759,0,0,0-3.391.385.771.771,0,0,1,.221-.1,4.422,4.422,0,0,1,.632-.221,8.664,8.664,0,0,1,2.526-.29,13.773,13.773,0,0,1,3.713.631,28.835,28.835,0,0,1,4.256,1.756c1.459.72,2.835,1.427,4.124,1.977a19.306,19.306,0,0,0,3.524,1.175A15.707,15.707,0,0,0,173.508,254.361Z" transform="translate(-100.381 -156.335)"/>
        <path id="Path_37239" data-name="Path 37239" class="cls-11" d="M194.622,255.35a22.525,22.525,0,0,1-3.713.8,21.229,21.229,0,0,1-3.789.474,22.524,22.524,0,0,1,3.713-.8A21.168,21.168,0,0,1,194.622,255.35Z" transform="translate(-113.658 -158.858)"/>
        <path id="Path_37240" data-name="Path 37240" class="cls-11" d="M171.768,276.81a4.82,4.82,0,0,1-.916.4c-.6.234-1.478.549-2.57.9a66.251,66.251,0,0,1-8.727,2.16c-1.73.3-3.391.524-4.907.676a19.916,19.916,0,0,1-4.054.107,6.947,6.947,0,0,1-2.627-.751,4.17,4.17,0,0,1-.632-.4.983.983,0,0,1-.2-.177,8.371,8.371,0,0,0,.878.467,7.243,7.243,0,0,0,2.6.631,20.883,20.883,0,0,0,4-.177c1.509-.171,3.157-.4,4.881-.7a80.3,80.3,0,0,0,8.715-2.052c1.1-.328,1.983-.632,2.6-.8A6.8,6.8,0,0,1,171.768,276.81Z" transform="translate(-98.925 -166.766)"/>
        <path id="Path_37241" data-name="Path 37241" class="cls-11" d="M194.653,282a36.156,36.156,0,0,1-6.883.114,36.162,36.162,0,0,1,6.883-.114Z" transform="translate(-113.897 -168.624)"/>
        <path id="Path_37242" data-name="Path 37242" class="cls-11" d="M147.21,315.513a1.264,1.264,0,0,1,.069-.341c.063-.253.152-.562.253-.947l.189-.682c.082-.246.189-.505.29-.789a19.191,19.191,0,0,1,.783-1.895l.512-1.08c.183-.379.417-.745.632-1.137a27.876,27.876,0,0,1,1.553-2.406,28.777,28.777,0,0,1,9.832-8.557,27.552,27.552,0,0,1,2.6-1.206c.423-.158.815-.341,1.212-.467l1.143-.36a17.933,17.933,0,0,1,2-.511c.3-.063.568-.133.821-.177l.707-.095.972-.12a1.163,1.163,0,0,1,.341,0,1.381,1.381,0,0,1-.335.082l-.96.183-.695.12-.815.2a19.608,19.608,0,0,0-1.964.556l-1.124.379c-.392.133-.783.316-1.194.48a28.175,28.175,0,0,0-2.564,1.219,32.168,32.168,0,0,0-5.336,3.7,32.509,32.509,0,0,0-4.42,4.768c-.568.821-1.13,1.591-1.56,2.368-.221.385-.455.745-.632,1.118l-.53,1.061a18.933,18.933,0,0,0-.821,1.895c-.107.278-.221.537-.309.777l-.221.669-.309.928A1.338,1.338,0,0,1,147.21,315.513Z" transform="translate(-98.951 -173.37)"/>
        <path id="Path_37243" data-name="Path 37243" class="cls-11" d="M191.7,296.92a11.367,11.367,0,0,0-2.589,3.259,15.7,15.7,0,0,0-1.452,4.288,44.483,44.483,0,0,0-.631,5.551,39.866,39.866,0,0,1-.632,5.589,15.458,15.458,0,0,1-1.585,4.326,9.516,9.516,0,0,1-1.894,2.431,5.351,5.351,0,0,1-.663.524c-.158.107-.246.164-.253.152a11.088,11.088,0,0,0,2.64-3.221,15.737,15.737,0,0,0,1.49-4.269,41.1,41.1,0,0,0,.632-5.551,40.993,40.993,0,0,1,.632-5.6,15.406,15.406,0,0,1,1.541-4.332,9.788,9.788,0,0,1,1.895-2.463,6.308,6.308,0,0,1,.632-.53,1.13,1.13,0,0,1,.24-.158Z" transform="translate(-111.771 -174.176)"/>
        <path id="Path_37244" data-name="Path 37244" class="cls-11" d="M214.41,324.734c-.088,0,0-5.443.234-12.15s.474-12.144.562-12.144,0,5.444-.234,12.156S214.5,324.74,214.41,324.734Z" transform="translate(-123.702 -175.474)"/>
        <path id="Path_37245" data-name="Path 37245" class="cls-11" d="M240.9,325.586a4.171,4.171,0,0,1-.278-.789,9.572,9.572,0,0,1-.259-.947c-.082-.373-.2-.8-.265-1.263a22.445,22.445,0,0,1-.335-3.372,23.686,23.686,0,0,1,1.263-8.178,22.73,22.73,0,0,1,1.332-3.12c.208-.436.442-.8.631-1.13a8.382,8.382,0,0,1,.53-.827,3.747,3.747,0,0,1,.5-.669c.057.032-.632,1.01-1.459,2.734a25.041,25.041,0,0,0-2.526,11.184,25.979,25.979,0,0,0,.259,3.341C240.613,324.431,240.966,325.567,240.9,325.586Z" transform="translate(-133.056 -177.261)"/>
        <path id="Path_37246" data-name="Path 37246" class="cls-11" d="M184.591,225.346c0,.051-1-.385-2.64-.916a29.978,29.978,0,0,0-13.261-1.175c-1.705.234-2.747.5-2.76.442a2.831,2.831,0,0,1,.714-.234,18.315,18.315,0,0,1,2.008-.436,26.851,26.851,0,0,1,13.375,1.181,20.476,20.476,0,0,1,1.895.777A3.086,3.086,0,0,1,184.591,225.346Z" transform="translate(-105.849 -146.813)"/>
        <path id="Path_37247" data-name="Path 37247" class="cls-11" d="M265.157,268.657a17.182,17.182,0,0,1-2.343-.038c-1.446-.057-3.442-.133-5.646-.183s-4.2-.082-5.646-.095a17.555,17.555,0,0,1-2.343-.082,2.827,2.827,0,0,1,.631-.076c.4,0,.991-.057,1.718-.076,1.446-.044,3.442-.057,5.652,0s4.206.171,5.683.291c.72.057,1.3.107,1.705.158a2.791,2.791,0,0,1,.587.1Z" transform="translate(-136.527 -163.545)"/>
        <path id="Path_37248" data-name="Path 37248" class="cls-11" d="M287.76,265.21c0,.057-.789.328-2.021.935a19.765,19.765,0,0,0-7.894,7.035c-.745,1.156-1.105,1.926-1.156,1.894a1.813,1.813,0,0,1,.2-.568,12.876,12.876,0,0,1,.758-1.459,17.537,17.537,0,0,1,3.448-4.174,17.853,17.853,0,0,1,4.54-2.949,13.417,13.417,0,0,1,1.535-.581A2.308,2.308,0,0,1,287.76,265.21Z" transform="translate(-146.664 -162.491)"/>
        <path id="Path_37249" data-name="Path 37249" class="cls-11" d="M271.929,233.089a9.4,9.4,0,0,0-3.208.448,21.565,21.565,0,0,0-3.24,1.44,26.257,26.257,0,0,1-4,1.8,16.311,16.311,0,0,1-7.913.512,14.2,14.2,0,0,1-2.33-.632,4.194,4.194,0,0,1-.815-.354,32.411,32.411,0,0,0,3.158.758,16.962,16.962,0,0,0,7.774-.6,28.56,28.56,0,0,0,3.972-1.756,19.98,19.98,0,0,1,3.3-1.389,7.439,7.439,0,0,1,2.4-.347,4.5,4.5,0,0,1,.632.063C271.853,233.058,271.935,233.076,271.929,233.089Z" transform="translate(-136.984 -150.61)"/>
        <path id="Path_37250" data-name="Path 37250" class="cls-11" d="M267.834,299.827a3.293,3.293,0,0,1-.732.347c-.24.1-.537.221-.89.335s-.752.265-1.2.379a24.616,24.616,0,0,1-3.221.669,26.146,26.146,0,0,1-4.016.208,27.009,27.009,0,0,1-4-.448,24.062,24.062,0,0,1-3.157-.865c-.448-.139-.834-.309-1.175-.448s-.631-.272-.871-.385a3.788,3.788,0,0,1-.714-.391c0-.057,1.067.448,2.835,1a26.351,26.351,0,0,0,3.158.783,26.03,26.03,0,0,0,7.919.24,26.54,26.54,0,0,0,3.2-.594C266.748,300.206,267.815,299.771,267.834,299.827Z" transform="translate(-136.041 -175.025)"/>
        <path id="Path_37251" data-name="Path 37251" class="cls-11" d="M299.15,312.641a1.293,1.293,0,0,1-.246-.2,8.322,8.322,0,0,1-.631-.632,15.037,15.037,0,0,1-2-2.678,21.819,21.819,0,0,1-2.816-10.578,42.569,42.569,0,0,1,1.434-10.906c.341-1.364.632-2.463.865-3.214.107-.347.2-.632.265-.865s.1-.3.114-.3a1.055,1.055,0,0,1-.051.309c-.05.24-.12.53-.2.884-.189.815-.448,1.895-.764,3.24a45.667,45.667,0,0,0-1.32,10.837,22.361,22.361,0,0,0,2.659,10.451,16.823,16.823,0,0,0,1.894,2.709C298.853,312.306,299.169,312.616,299.15,312.641Z" transform="translate(-152.844 -169.146)"/>
        <path id="Path_37252" data-name="Path 37252" class="cls-11" d="M325.489,288.87a12.457,12.457,0,0,0-3.341-1.894,26.886,26.886,0,0,0-4.042-1.055,44.835,44.835,0,0,1-5.052-1.156,20.739,20.739,0,0,1-8-4.812,19.07,19.07,0,0,1-1.894-2.128c-.208-.265-.347-.486-.448-.631s-.145-.227-.133-.234a7.989,7.989,0,0,1,.682.783,21.951,21.951,0,0,0,1.951,2.04,21.427,21.427,0,0,0,7.938,4.667,48.525,48.525,0,0,0,5,1.175,25.871,25.871,0,0,1,4.067,1.13,9.668,9.668,0,0,1,2.488,1.389,4.988,4.988,0,0,1,.581.512C325.439,288.794,325.5,288.864,325.489,288.87Z" transform="translate(-156.204 -166.821)"/>
        <path id="Path_37253" data-name="Path 37253" class="cls-11" d="M338.434,257.339a4.721,4.721,0,0,1-.676-.587c-.208-.2-.461-.436-.777-.7s-.632-.581-1.061-.884a28.971,28.971,0,0,0-2.93-2.078,29.408,29.408,0,0,0-8.058-3.448,30.34,30.34,0,0,0-3.53-.688c-.505-.082-.966-.114-1.37-.152s-.758-.07-1.042-.082a5.1,5.1,0,0,1-.89-.082,4.3,4.3,0,0,1,.89-.044,16.864,16.864,0,0,1,2.444.1,27.375,27.375,0,0,1,3.568.632,30.655,30.655,0,0,1,4.218,1.415,29.982,29.982,0,0,1,3.928,2.071,27.153,27.153,0,0,1,2.924,2.153,12.091,12.091,0,0,1,1.036.935,10.1,10.1,0,0,1,.739.745A4.243,4.243,0,0,1,338.434,257.339Z" transform="translate(-161.924 -156.363)"/>
        <path id="Path_37254" data-name="Path 37254" class="cls-11" d="M257.7,216.545a4.711,4.711,0,0,1-1.2.575,21.741,21.741,0,0,1-3.063.947,22.011,22.011,0,0,1-3.158.505,4.421,4.421,0,0,1-1.326,0c0-.1,2-.265,4.421-.84S257.658,216.45,257.7,216.545Z" transform="translate(-136.442 -144.555)"/>
        <path id="Path_37255" data-name="Path 37255" class="cls-13" d="M285.759,341.124a1.756,1.756,0,0,1-1.932,2.229h0a1.749,1.749,0,0,1-1.44-1.263l-.537-1.983h.082a1.838,1.838,0,0,1-2.052,2.166h0c-.827,0-1.541-1.206-1.781-1.844h0a3.435,3.435,0,0,1-3.208-1.541l-3.707-5.785-6.864-5.02,4.155-14.834,14.771,9.561c.581.455.669.632,1.591,1.5l9.536,8.772c-1.08.632-2,.6-3.5,0s-8.083-5.052-8.083-5.052l2.968,13.04" transform="translate(-142.106 -180.194)"/>
        <path id="Path_37256" data-name="Path 37256" class="cls-14" d="M278.26,338.07a3.023,3.023,0,0,1,.436.259l.493.341a2.982,2.982,0,0,1,.632.53,2.746,2.746,0,0,1,.505.853c.114.335.234.676.36,1.036l.808,2.374c.562,1.692,1.055,3.221,1.4,4.338a10.67,10.67,0,0,1,.486,1.825,10.791,10.791,0,0,1-.707-1.756c-.4-1.1-.928-2.614-1.49-4.3-.271-.84-.537-1.642-.783-2.381-.114-.366-.221-.714-.328-1.042a2.684,2.684,0,0,0-.423-.8,3.276,3.276,0,0,0-.543-.53l-.455-.385C278.373,338.215,278.247,338.089,278.26,338.07Z" transform="translate(-147.243 -189.34)"/>
        <path id="Path_37257" data-name="Path 37257" class="cls-14" d="M288.623,347.763a2.831,2.831,0,0,1-.208-.632l-.474-1.692c-.4-1.427-.941-3.4-1.629-5.557a19.938,19.938,0,0,0-2.273-5.26,4.565,4.565,0,0,0-1.206-1.206c-.347-.215-.568-.278-.562-.316a.425.425,0,0,1,.171.032,2.259,2.259,0,0,1,.455.171,4.15,4.15,0,0,1,1.332,1.181,18.358,18.358,0,0,1,2.393,5.3c.695,2.141,1.2,4.155,1.541,5.6.171.72.3,1.307.379,1.718A2.22,2.22,0,0,1,288.623,347.763Z" transform="translate(-148.721 -187.509)"/>
        <path id="Path_37258" data-name="Path 37258" class="cls-14" d="M294.851,348.042a2.813,2.813,0,0,1-.259-.663c-.158-.505-.354-1.118-.587-1.844-.48-1.56-1.118-3.72-1.806-6.107s-1.263-4.484-1.737-6.126a2.943,2.943,0,0,0-1.01-1.541,3.841,3.841,0,0,0-.631-.328.4.4,0,0,1,.189,0,1.555,1.555,0,0,1,.5.208,2.968,2.968,0,0,1,1.156,1.572c.518,1.56,1.13,3.72,1.831,6.107s1.295,4.566,1.718,6.138c.189.733.354,1.358.48,1.895a3.382,3.382,0,0,1,.158.688Z" transform="translate(-151.134 -186.891)"/>
      </g>
      <g id="freepik--speech-bubble--inject-53" transform="translate(226.087 21.37)">
        <path id="Path_37259" data-name="Path 37259" class="cls-10" d="M440.47,139.6a2.21,2.21,0,1,0,2.21-2.21,2.21,2.21,0,0,0-2.21,2.21Z" transform="translate(-407.655 -113.761)"/>
        <circle id="Ellipse_512" data-name="Ellipse 512" class="cls-10" cx="2.21" cy="2.21" r="2.21" transform="translate(23.968 23.629)"/>
        <path id="Path_37260" data-name="Path 37260" class="cls-10" d="M412.317,138.494a2.2,2.2,0,1,0,1.341-1.032A2.21,2.21,0,0,0,412.317,138.494Z" transform="translate(-397.171 -113.76)"/>
        <path id="Path_37261" data-name="Path 37261" class="cls-10" d="M414.545,99.99a2.951,2.951,0,0,0-.442,0l-1.313.038a7.543,7.543,0,0,0-.972.044l-1.156.164-1.351.2-1.516.373a24.421,24.421,0,0,0-7.319,3.157A25.892,25.892,0,0,0,388.6,123.387a27.523,27.523,0,0,0-.069,3.543c.044.594.031,1.206.12,1.806s.183,1.212.272,1.825a25.981,25.981,0,0,0,2.463,7.205,27.719,27.719,0,0,0,4.7,6.479,27.155,27.155,0,0,0,6.782,4.869,24.629,24.629,0,0,0,8.266,2.526,17.01,17.01,0,0,0,2.2.183,20.149,20.149,0,0,0,2.229.044,26.739,26.739,0,0,0,4.458-.562,26.137,26.137,0,0,0,8.885-3.745l-.265.032,9.049,3.631.537.215-.152-.556-2.665-9.675-.044.234a25.935,25.935,0,0,0,4.831-11.051,23.644,23.644,0,0,0,.354-5.683,19.2,19.2,0,0,0-.259-2.722q-.1-.669-.208-1.326c-.076-.436-.208-.859-.316-1.263a25.891,25.891,0,0,0-10.1-14.72,24.8,24.8,0,0,0-6.006-3.158l-1.358-.486-1.263-.328-1.175-.29c-.379-.069-.745-.107-1.086-.164-.682-.082-1.263-.2-1.812-.227l-1.326-.044h-.815a1.9,1.9,0,0,0-.278,0,.814.814,0,0,0,.278.038l.808.069,1.32.088c.524.038,1.118.171,1.8.272a25.753,25.753,0,0,1,20.574,19.122c.095.417.227.834.3,1.263s.126.859.2,1.3a18.5,18.5,0,0,1,.24,2.671,23.357,23.357,0,0,1-.366,5.551,25.582,25.582,0,0,1-4.793,10.8l-.082.107.038.133q1.263,4.686,2.64,9.681l.385-.341-9.049-3.644-.139-.057-.133.082a25.393,25.393,0,0,1-13.047,4.206,20.847,20.847,0,0,1-2.179-.038,16.235,16.235,0,0,1-2.153-.183,24.13,24.13,0,0,1-8.083-2.469,26.834,26.834,0,0,1-6.643-4.755,27.232,27.232,0,0,1-4.623-6.315,25.638,25.638,0,0,1-2.4-7.066c-.095-.631-.189-1.193-.278-1.787s-.076-1.187-.12-1.775a26.464,26.464,0,0,1,.051-3.473,25.569,25.569,0,0,1,11.563-19.191,24.63,24.63,0,0,1,7.205-3.246l1.49-.4,1.339-.221,1.149-.189c.354-.038.676-.051.96-.069l1.307-.095a2.064,2.064,0,0,0,.429-.057Z" transform="translate(-388.506 -99.972)"/>
      </g>
    </g>
  </g>
</svg>
