<svg xmlns="http://www.w3.org/2000/svg" xmlns:xlink="http://www.w3.org/1999/xlink" width="50" height="50" viewBox="0 0 50 50"><defs><clipPath id="a"><path d="M10.5,24a3,3,0,0,0,3-3h-6A3,3,0,0,0,10.5,24Zm10.1-7.018C19.69,16.009,18,14.545,18,9.75a7.4,7.4,0,0,0-6-7.273V1.5a1.5,1.5,0,1,0-3,0v.977A7.4,7.4,0,0,0,3,9.75c0,4.8-1.695,6.259-2.6,7.232A1.465,1.465,0,0,0,0,18a1.5,1.5,0,0,0,1.5,1.5H19.495A1.5,1.5,0,0,0,21,18,1.464,1.464,0,0,0,20.6,16.982Z" transform="translate(448.001 500)" fill="#2680eb"/></clipPath></defs><g transform="translate(-433 -487)"><circle cx="25" cy="25" r="25" transform="translate(433 487)" fill="#d9eeff" opacity="0.4"/><path d="M10.5,24a3,3,0,0,0,3-3h-6A3,3,0,0,0,10.5,24Zm10.1-7.018C19.69,16.009,18,14.545,18,9.75a7.4,7.4,0,0,0-6-7.273V1.5a1.5,1.5,0,1,0-3,0v.977A7.4,7.4,0,0,0,3,9.75c0,4.8-1.695,6.259-2.6,7.232A1.465,1.465,0,0,0,0,18a1.5,1.5,0,0,0,1.5,1.5H19.495A1.5,1.5,0,0,0,21,18,1.464,1.464,0,0,0,20.6,16.982Z" transform="translate(448.001 500)" fill="#2680eb"/><g clip-path="url(#a)"><circle cx="12.365" cy="12.365" r="12.365" transform="translate(436.77 494.17)" fill="#6bb1fe" opacity="0.5"/></g></g></svg>