<svg xmlns="http://www.w3.org/2000/svg" xmlns:xlink="http://www.w3.org/1999/xlink" width="444" height="59" viewBox="0 0 444 59">
  <defs>
    <clipPath id="clip-path">
      <path id="Path_37008" data-name="Path 37008" d="M103,.009,527-.209a10.224,10.224,0,0,1,10,10.435V58.573L93,58.791V10.444A10.224,10.224,0,0,1,103,.009Z" transform="translate(691 969.977)" fill="#eef5ff" opacity="0.75"/>
    </clipPath>
    <clipPath id="clip-path-2">
      <path id="Path_37023" data-name="Path 37023" d="M103,.007,527-.209a10.181,10.181,0,0,1,10,10.353v47.97L93,58.331V10.361A10.181,10.181,0,0,1,103,.007Z" transform="translate(46 414.209)" fill="#eef5ff" opacity="0.75"/>
    </clipPath>
    <clipPath id="clip-path-3">
      <path id="Union_1" data-name="Union 1" d="M2.029,45.828A3.424,3.424,0,0,1,0,42.655V8.488A3.427,3.427,0,0,1,3.473,5.062a3.677,3.677,0,0,1,1.114.174,32.669,32.669,0,0,0,9.978,1.478C27.83,6.713,41.094,0,54.358,0A31.879,31.879,0,0,1,66.9,2.419a3.428,3.428,0,0,1,2.03,3.173V39.759a3.427,3.427,0,0,1-3.473,3.426,3.679,3.679,0,0,1-1.114-.175,32.705,32.705,0,0,0-9.979-1.478c-13.264,0-26.529,6.715-39.794,6.715A31.877,31.877,0,0,1,2.029,45.828Zm19.257-21.7A13.176,13.176,0,1,0,34.463,10.948,13.176,13.176,0,0,0,21.286,24.124Zm14.9,6.117a1,1,0,0,1-.338-.779V22.344a1.064,1.064,0,0,1,.318-.806,1.19,1.19,0,0,1,.861-.306,1.241,1.241,0,0,1,.835.272,1.025,1.025,0,0,1,.359.718,1.949,1.949,0,0,1,.834-.746,2.852,2.852,0,0,1,2.739.169,2.908,2.908,0,0,1,1.044,1.241,4.289,4.289,0,0,1,.372,1.829,4.159,4.159,0,0,1-.372,1.81,2.728,2.728,0,0,1-2.569,1.62,2.679,2.679,0,0,1-1.173-.257,2.08,2.08,0,0,1-.834-.691v2.3a.958.958,0,0,1-.325.759,1.248,1.248,0,0,1-.854.285A1.284,1.284,0,0,1,36.184,30.241Zm2.373-6.8a1.987,1.987,0,0,0-.34,1.247,1.93,1.93,0,0,0,.34,1.227,1.169,1.169,0,0,0,.976.427,1.147,1.147,0,0,0,.956-.421,1.91,1.91,0,0,0,.332-1.207,2.052,2.052,0,0,0-.338-1.268,1.28,1.28,0,0,0-1.925-.007ZM33.243,28.57a1.494,1.494,0,0,1-.545-.5L30.734,25.2a1.561,1.561,0,0,0-.447-.446,1.03,1.03,0,0,0-.552-.143h-.982v2.7a1.37,1.37,0,0,1-.363,1,1.33,1.33,0,0,1-1,.37,1.279,1.279,0,0,1-1.376-1.375V19.231A1.161,1.161,0,0,1,27.3,17.946H31.1a4.363,4.363,0,0,1,2.911.839,3.023,3.023,0,0,1,.975,2.425,3.2,3.2,0,0,1-.665,2.048,3.268,3.268,0,0,1-1.875,1.126,2.041,2.041,0,0,1,.87.333,3.084,3.084,0,0,1,.733.77l.937,1.344a1.405,1.405,0,0,1,.272.771,1,1,0,0,1-.4.809,1.483,1.483,0,0,1-1.61.158Zm-4.521-6.045h1.936a2.321,2.321,0,0,0,1.322-.288,1.071,1.071,0,0,0,.4-.936,1.112,1.112,0,0,0-.4-.96,2.268,2.268,0,0,0-1.322-.3H28.723Z" transform="translate(0 0)" fill="#2680eb" stroke="rgba(0,0,0,0)" stroke-miterlimit="10" stroke-width="1"/>
    </clipPath>
  </defs>
  <g id="bg-card-saldo-rekening" transform="translate(-139 -414)">
    <g id="Mask_Group_1406" data-name="Mask Group 1406" transform="translate(-645 -555.768)" clip-path="url(#clip-path)">
      <ellipse id="Ellipse_445" data-name="Ellipse 445" cx="71.225" cy="71.226" rx="71.225" ry="71.226" transform="translate(1103 915.042)" fill="#6bb1fe" opacity="0.15"/>
    </g>
    <g id="Mask_Group_1560" data-name="Mask Group 1560" clip-path="url(#clip-path-2)">
      <g id="Group_2859" data-name="Group 2859" transform="matrix(0.998, -0.07, 0.07, 0.998, 76.514, -23.998)">
        <g id="Group_717" data-name="Group 717" transform="translate(377.793 480.987)">
          <path id="Path_279" data-name="Path 279" d="M793.805,337.572a3.107,3.107,0,0,0-.733-.771,2.041,2.041,0,0,0-.869-.332,3.263,3.263,0,0,0,1.874-1.126,3.194,3.194,0,0,0,.665-2.048,3.024,3.024,0,0,0-.975-2.425,4.359,4.359,0,0,0-2.909-.839h-3.793a1.161,1.161,0,0,0-1.285,1.284V339.4a1.278,1.278,0,0,0,1.375,1.375,1.331,1.331,0,0,0,1-.37,1.374,1.374,0,0,0,.363-1v-2.7h.982a1.035,1.035,0,0,1,.552.144,1.562,1.562,0,0,1,.446.446l1.964,2.871a1.5,1.5,0,0,0,.544.5,1.484,1.484,0,0,0,1.609-.159,1,1,0,0,0,.4-.809,1.4,1.4,0,0,0-.272-.771Zm-2.063-3.249a2.327,2.327,0,0,1-1.322.287h-1.934v-2.478h1.934a2.279,2.279,0,0,1,1.322.295,1.112,1.112,0,0,1,.4.96A1.074,1.074,0,0,1,791.742,334.324Z" transform="translate(-759.771 -312.083)" fill="#9dc5f7"/>
          <path id="Path_280" data-name="Path 280" d="M879.9,355.826a3.183,3.183,0,0,0-3.052-.189,2.172,2.172,0,0,0-.929.831,1.144,1.144,0,0,0-.4-.8,1.385,1.385,0,0,0-.929-.3,1.329,1.329,0,0,0-.959.34,1.186,1.186,0,0,0-.355.9v7.934a1.117,1.117,0,0,0,.378.869,1.434,1.434,0,0,0,1,.34,1.393,1.393,0,0,0,.952-.317,1.069,1.069,0,0,0,.363-.846v-2.569a2.312,2.312,0,0,0,.929.771,2.978,2.978,0,0,0,1.307.287,3.041,3.041,0,0,0,2.864-1.806,4.625,4.625,0,0,0,.416-2.017,4.777,4.777,0,0,0-.416-2.04A3.251,3.251,0,0,0,879.9,355.826Zm-1.451,4.768a1.278,1.278,0,0,1-1.065.469,1.307,1.307,0,0,1-1.088-.476,2.157,2.157,0,0,1-.378-1.368,2.219,2.219,0,0,1,.378-1.39,1.425,1.425,0,0,1,2.146.008,2.282,2.282,0,0,1,.378,1.413A2.126,2.126,0,0,1,878.447,360.594Z" transform="translate(-837.916 -334.712)" fill="#9dc5f7"/>
          <path id="Path_281" data-name="Path 281" d="M607.325,160.851h0a31.891,31.891,0,0,0-12.537-2.419c-13.265,0-26.529,6.714-39.794,6.714a32.673,32.673,0,0,1-9.978-1.478,3.686,3.686,0,0,0-1.115-.174,3.427,3.427,0,0,0-3.473,3.426v34.168a3.425,3.425,0,0,0,2.029,3.173,31.876,31.876,0,0,0,12.537,2.42c13.265,0,26.53-6.715,39.8-6.715a32.679,32.679,0,0,1,9.978,1.478,3.68,3.68,0,0,0,1.115.174,3.427,3.427,0,0,0,3.473-3.426V164.025A3.429,3.429,0,0,0,607.325,160.851Zm-32.434,34.882a13.176,13.176,0,1,1,13.177-13.177A13.177,13.177,0,0,1,574.891,195.733Z" transform="translate(-540.427 -158.432)" fill="#9dc5f7"/>
        </g>
        <g id="Mask_Group_3" data-name="Mask Group 3" transform="translate(377.792 480.986)" clip-path="url(#clip-path-3)">
          <ellipse id="Ellipse_94" data-name="Ellipse 94" cx="33.433" cy="32.206" rx="33.433" ry="32.206" transform="translate(-32.555 -24.866)" fill="#b9d7fc"/>
        </g>
      </g>
    </g>
  </g>
</svg>
