<svg xmlns="http://www.w3.org/2000/svg" xmlns:xlink="http://www.w3.org/1999/xlink" width="352" height="130" viewBox="0 0 352 130">
  <defs>
    <clipPath id="clip-path">
      <rect id="Rectangle_1757" data-name="Rectangle 1757" width="352" height="130" rx="10" transform="translate(599 263)" fill="#fff"/>
    </clipPath>
    <clipPath id="clip-path-2">
      <path id="Path_38623" data-name="Path 38623" d="M38.934,24.548V0H4.171A4.244,4.244,0,0,0,0,4.332V88.085a4.244,4.244,0,0,0,4.171,4.332h58.4a4.244,4.244,0,0,0,4.172-4.332V28.88H43.105A4.267,4.267,0,0,1,38.934,24.548Z" transform="translate(0 0)" fill="#2680eb" stroke="rgba(0,0,0,0)" stroke-miterlimit="10" stroke-width="1"/>
    </clipPath>
  </defs>
  <g id="bg-card-laporan-keuangan-neraca" transform="translate(-599 -263)" opacity="0.35" clip-path="url(#clip-path)">
    <ellipse id="Ellipse_771" data-name="Ellipse 771" cx="105.5" cy="81.188" rx="105.5" ry="81.188" transform="translate(800.25 319.578)" fill="#ecf4ff"/>
    <g id="Group_5375" data-name="Group 5375" transform="translate(841.35 354.892) rotate(-7)">
      <path id="Path_38618" data-name="Path 38618" d="M792.677,336.513a2.669,2.669,0,0,0-.63-.662,1.754,1.754,0,0,0-.747-.286,2.8,2.8,0,0,0,1.611-.967,2.745,2.745,0,0,0,.571-1.76,2.6,2.6,0,0,0-.838-2.085,3.746,3.746,0,0,0-2.5-.721h-3.26a1,1,0,0,0-1.1,1.1v6.948a1.1,1.1,0,0,0,1.182,1.182,1.144,1.144,0,0,0,.857-.318,1.181,1.181,0,0,0,.312-.864v-2.325h.844a.889.889,0,0,1,.474.123,1.343,1.343,0,0,1,.383.383l1.688,2.468a1.288,1.288,0,0,0,.468.429,1.276,1.276,0,0,0,1.383-.136.861.861,0,0,0,.344-.695,1.208,1.208,0,0,0-.234-.662ZM790.9,333.72a2,2,0,0,1-1.136.247h-1.662v-2.13h1.662a1.958,1.958,0,0,1,1.136.253.956.956,0,0,1,.344.825A.923.923,0,0,1,790.9,333.72Z" transform="translate(-760.469 -312.329)" fill="#6bb1fe"/>
      <path id="Path_38619" data-name="Path 38619" d="M878.966,355.757a2.735,2.735,0,0,0-2.623-.162,1.867,1.867,0,0,0-.8.714.983.983,0,0,0-.344-.688,1.19,1.19,0,0,0-.8-.26,1.142,1.142,0,0,0-.825.292,1.02,1.02,0,0,0-.305.773v6.818a.959.959,0,0,0,.325.747,1.232,1.232,0,0,0,.857.292,1.2,1.2,0,0,0,.818-.273.918.918,0,0,0,.312-.727v-2.208a1.987,1.987,0,0,0,.8.662,2.559,2.559,0,0,0,1.123.247,2.614,2.614,0,0,0,2.461-1.552,3.974,3.974,0,0,0,.357-1.734,4.105,4.105,0,0,0-.357-1.753A2.793,2.793,0,0,0,878.966,355.757Zm-1.247,4.1a1.1,1.1,0,0,1-.916.4,1.123,1.123,0,0,1-.935-.409,1.854,1.854,0,0,1-.325-1.175,1.907,1.907,0,0,1,.325-1.195,1.225,1.225,0,0,1,1.844.007,1.961,1.961,0,0,1,.324,1.214A1.827,1.827,0,0,1,877.719,359.854Z" transform="translate(-838.933 -335.021)" fill="#6bb1fe"/>
      <path id="Path_38620" data-name="Path 38620" d="M604.509,160.749h0a30.548,30.548,0,0,0-12.009-2.317c-12.707,0-25.413,6.431-38.119,6.431a31.3,31.3,0,0,1-9.558-1.416,3.53,3.53,0,0,0-1.068-.167,3.283,3.283,0,0,0-3.327,3.282v32.73a3.281,3.281,0,0,0,1.944,3.039,30.535,30.535,0,0,0,12.009,2.318c12.707,0,25.414-6.432,38.121-6.432a31.3,31.3,0,0,1,9.558,1.415,3.524,3.524,0,0,0,1.068.167,3.283,3.283,0,0,0,3.327-3.282V163.789A3.285,3.285,0,0,0,604.509,160.749ZM573.44,194.163a12.622,12.622,0,1,1,12.622-12.622A12.622,12.622,0,0,1,573.44,194.163Z" transform="translate(-540.427 -158.432)" fill="#6bb1fe"/>
    </g>
    <g id="Group_5376" data-name="Group 5376" transform="translate(893.92 330.071) rotate(9)">
      <path id="Path_38621" data-name="Path 38621" d="M21.031,18.953,4.015,1.264A4.091,4.091,0,0,0,1.06,0H0V23.1H22.248V22A4.4,4.4,0,0,0,21.031,18.953Z" transform="translate(44.493 0)" fill="#c6e1ff"/>
      <path id="Path_38622" data-name="Path 38622" d="M38.934,24.548V0H4.171A4.244,4.244,0,0,0,0,4.332V88.085a4.244,4.244,0,0,0,4.171,4.332h58.4a4.244,4.244,0,0,0,4.172-4.332V28.88H43.105A4.267,4.267,0,0,1,38.934,24.548Z" transform="translate(0 0)" fill="#c6e1ff"/>
      <g id="Mask_Group_1600" data-name="Mask Group 1600" transform="translate(0 0)" clip-path="url(#clip-path-2)">
        <ellipse id="Ellipse_772" data-name="Ellipse 772" cx="60.611" cy="57.346" rx="60.611" ry="57.346" transform="translate(-5.35 18.381)" fill="#80b5f6"/>
      </g>
      <line id="Line_260" data-name="Line 260" x2="43.987" transform="translate(10.403 41.227)" fill="none" stroke="#f4f4f7" stroke-linecap="round" stroke-width="1"/>
      <line id="Line_261" data-name="Line 261" x2="43.987" transform="translate(10.403 54.183)" fill="none" stroke="#f4f4f7" stroke-linecap="round" stroke-width="1"/>
      <line id="Line_262" data-name="Line 262" x2="43.987" transform="translate(10.403 68.318)" fill="none" stroke="#f4f4f7" stroke-linecap="round" stroke-width="1"/>
      <line id="Line_263" data-name="Line 263" x2="21.114" transform="translate(10.403 81.275)" fill="none" stroke="#f4f4f7" stroke-linecap="round" stroke-width="1"/>
      <path id="balance-scale-solid" d="M9.2,12.333h0c0-.594.049-.32-3.049-6.657a1.711,1.711,0,0,0-3.087,0C-.074,12.079,0,11.77,0,12.345H0c0,1.621,2.057,2.933,4.6,2.93S9.2,13.955,9.2,12.333ZM4.609,6.468l2.582,5.281-5.177.007Zm18.4,5.848c0-.594.049-.32-3.049-6.657a1.711,1.711,0,0,0-3.087,0c-3.14,6.4-3.065,6.09-3.065,6.665h0c0,1.621,2.057,2.933,4.6,2.93s4.6-1.32,4.605-2.942Zm-7.189-.578L18.414,6.45,21,11.731Zm3.158,4.693-6.327.008.013-10.817a2.936,2.936,0,0,0,1.67-2.1l4.659-.006a.583.583,0,0,0,.576-.588V1.751A.579.579,0,0,0,19,1.165l-5.19.007a2.816,2.816,0,0,0-4.576.006l-5.19.007a.583.583,0,0,0-.576.588V2.946a.579.579,0,0,0,.574.586L8.7,3.527a2.916,2.916,0,0,0,1.665,2.1l-.013,10.817-6.327.008a.583.583,0,0,0-.576.588v1.174a.579.579,0,0,0,.574.586l14.955-.019a.583.583,0,0,0,.576-.588V17.018A.579.579,0,0,0,18.977,16.431Z" transform="translate(6.734 3.876)" fill="#fafbfc"/>
    </g>
  </g>
</svg>
