<svg xmlns="http://www.w3.org/2000/svg" xmlns:xlink="http://www.w3.org/1999/xlink" width="1088" height="135.5" viewBox="0 0 1088 135.5">
  <defs>
    <filter id="Rectangle_442" x="-37.5" y="-27.5" width="1163" height="210.5" filterUnits="userSpaceOnUse">
      <feOffset dy="10" input="SourceAlpha"/>
      <feGaussianBlur stdDeviation="12.5" result="blur"/>
      <feFlood flood-color="#3a4166" flood-opacity="0.031"/>
      <feComposite operator="in" in2="blur"/>
      <feComposite in="SourceGraphic"/>
    </filter>
    <clipPath id="clip-path">
      <g transform="matrix(1, 0, 0, 1, 0, 0)" filter="url(#Rectangle_442)">
        <path id="Rectangle_442-2" data-name="Rectangle 442" d="M10,0H1078a10,10,0,0,1,10,10V135.5a0,0,0,0,1,0,0H0a0,0,0,0,1,0,0V10A10,10,0,0,1,10,0Z" transform="translate(139 144.5)" fill="#fff"/>
      </g>
    </clipPath>
    <clipPath id="clip-path-2">
      <path id="Path_38554" data-name="Path 38554" d="M57.849,36.474V0H6.2A6.305,6.305,0,0,0,0,6.437V130.879a6.305,6.305,0,0,0,6.2,6.437H92.972a6.306,6.306,0,0,0,6.2-6.437V42.911H64.047A6.34,6.34,0,0,1,57.849,36.474Z" transform="translate(0 0)" fill="#2680eb" stroke="rgba(0,0,0,0)" stroke-miterlimit="10" stroke-width="1"/>
    </clipPath>
  </defs>
  <g id="bg-header-laporan-keuangan-neraca" transform="translate(-139 -144.5)" opacity="0.5" clip-path="url(#clip-path)">
    <ellipse id="Ellipse_750" data-name="Ellipse 750" cx="156.756" cy="120.631" rx="156.756" ry="120.631" transform="translate(980.71 167.719)" fill="#ecf4ff"/>
    <g id="Group_5218" data-name="Group 5218" transform="translate(1041.778 220.189) rotate(-7)">
      <path id="Path_38549" data-name="Path 38549" d="M10.246,9.629a3.963,3.963,0,0,0-.936-.984A2.606,2.606,0,0,0,8.2,8.22a4.167,4.167,0,0,0,2.393-1.438,4.08,4.08,0,0,0,.849-2.615,3.863,3.863,0,0,0-1.245-3.1A5.566,5.566,0,0,0,6.484,0H1.641A1.645,1.645,0,0,0,.425.425,1.645,1.645,0,0,0,0,1.64V11.964a1.733,1.733,0,0,0,.473,1.283,1.733,1.733,0,0,0,1.283.473,1.7,1.7,0,0,0,1.273-.473,1.754,1.754,0,0,0,.463-1.283V8.51H4.747a1.322,1.322,0,0,1,.7.183,2,2,0,0,1,.569.569l2.508,3.666a1.913,1.913,0,0,0,.695.637,1.9,1.9,0,0,0,2.055-.2,1.279,1.279,0,0,0,.511-1.032,1.8,1.8,0,0,0-.347-.984ZM7.613,5.48a2.97,2.97,0,0,1-1.688.367H3.455V2.682h2.47a2.91,2.91,0,0,1,1.688.376,1.42,1.42,0,0,1,.511,1.225A1.371,1.371,0,0,1,7.613,5.48Z" transform="translate(37.609 26.304)" fill="#6bb1fe"/>
      <path id="Path_38550" data-name="Path 38550" d="M8.461.627A3.867,3.867,0,0,0,6.291,0,3.847,3.847,0,0,0,4.564.386,2.773,2.773,0,0,0,3.377,1.447,1.461,1.461,0,0,0,2.866.425,1.768,1.768,0,0,0,1.679.039,1.7,1.7,0,0,0,.454.473,1.515,1.515,0,0,0,0,1.621V11.752a1.425,1.425,0,0,0,.482,1.11,1.831,1.831,0,0,0,1.274.434,1.778,1.778,0,0,0,1.215-.405,1.364,1.364,0,0,0,.463-1.081V8.529a2.952,2.952,0,0,0,1.187.984,3.8,3.8,0,0,0,1.669.366,3.99,3.99,0,0,0,2.18-.6A4.006,4.006,0,0,0,9.947,7.574,5.9,5.9,0,0,0,10.478,5a6.1,6.1,0,0,0-.531-2.605A4.149,4.149,0,0,0,8.461.627ZM6.609,6.715a1.631,1.631,0,0,1-1.36.6,1.669,1.669,0,0,1-1.389-.608,2.754,2.754,0,0,1-.482-1.746,2.834,2.834,0,0,1,.482-1.775,1.637,1.637,0,0,1,1.37-.617,1.628,1.628,0,0,1,1.37.627A2.914,2.914,0,0,1,7.082,5,2.715,2.715,0,0,1,6.609,6.715Z" transform="translate(51.02 30.183)" fill="#6bb1fe"/>
      <path id="Path_38551" data-name="Path 38551" d="M95.215,3.443h0A45.39,45.39,0,0,0,77.371,0C58.491,0,39.612,9.556,20.732,9.556a46.5,46.5,0,0,1-14.2-2.1A5.245,5.245,0,0,0,4.944,7.2,4.878,4.878,0,0,0,0,12.08V60.712a4.875,4.875,0,0,0,2.888,4.516,45.37,45.37,0,0,0,17.844,3.444c18.88,0,37.761-9.557,56.641-9.557a46.513,46.513,0,0,1,14.2,2.1,5.237,5.237,0,0,0,1.586.248A4.878,4.878,0,0,0,98.1,56.59V7.96A4.88,4.88,0,0,0,95.215,3.443ZM49.052,53.09A18.754,18.754,0,1,1,67.806,34.336,18.754,18.754,0,0,1,49.052,53.09Z" transform="translate(0 0)" fill="#6bb1fe"/>
    </g>
    <g id="Group_5219" data-name="Group 5219" transform="translate(1119.888 183.31) rotate(9)">
      <path id="Path_38552" data-name="Path 38552" d="M31.249,28.16,5.965,1.877A6.078,6.078,0,0,0,1.575,0H0V34.329H33.057V32.693A6.544,6.544,0,0,0,31.249,28.16Z" transform="translate(66.109 0)" fill="#c6e1ff"/>
      <path id="Path_38553" data-name="Path 38553" d="M57.849,36.474V0H6.2A6.305,6.305,0,0,0,0,6.437V130.879a6.305,6.305,0,0,0,6.2,6.437H92.972a6.306,6.306,0,0,0,6.2-6.437V42.911H64.047A6.34,6.34,0,0,1,57.849,36.474Z" transform="translate(0 0)" fill="#c6e1ff"/>
      <g id="Mask_Group_1587" data-name="Mask Group 1587" transform="translate(0 0)" clip-path="url(#clip-path-2)">
        <ellipse id="Ellipse_745" data-name="Ellipse 745" cx="90.058" cy="85.207" rx="90.058" ry="85.207" transform="translate(-7.95 27.311)" fill="#80b5f6"/>
      </g>
      <line id="Line_232" data-name="Line 232" x2="65.357" transform="translate(15.458 61.256)" fill="none" stroke="#f4f4f7" stroke-linecap="round" stroke-width="1"/>
      <line id="Line_233" data-name="Line 233" x2="65.357" transform="translate(15.458 80.507)" fill="none" stroke="#f4f4f7" stroke-linecap="round" stroke-width="1"/>
      <line id="Line_234" data-name="Line 234" x2="65.357" transform="translate(15.458 101.509)" fill="none" stroke="#f4f4f7" stroke-linecap="round" stroke-width="1"/>
      <line id="Line_235" data-name="Line 235" x2="31.371" transform="translate(15.458 120.761)" fill="none" stroke="#f4f4f7" stroke-linecap="round" stroke-width="1"/>
      <path id="balance-scale-solid" d="M12.055,16.156h0c0-.778.064-.42-3.995-8.72a2.242,2.242,0,0,0-4.044.005C-.1,15.823,0,15.418,0,16.171H0c0,2.124,2.694,3.842,6.023,3.838S12.053,18.28,12.055,16.156ZM6.037,8.472,9.419,15.39,2.638,15.4Zm24.1,7.661c0-.778.064-.42-3.995-8.72a2.242,2.242,0,0,0-4.044.005c-4.113,8.382-4.014,7.977-4.015,8.73h0c0,2.124,2.694,3.842,6.023,3.838s6.03-1.73,6.032-3.853Zm-9.416-.757,3.4-6.927L27.5,15.367Zm4.137,6.148-8.288.011.017-14.169A3.846,3.846,0,0,0,18.775,4.61l6.1-.008a.763.763,0,0,0,.754-.77l0-1.538a.759.759,0,0,0-.753-.768l-6.8.009a3.688,3.688,0,0,0-5.994.008l-6.8.009a.763.763,0,0,0-.754.77l0,1.538a.759.759,0,0,0,.753.768l6.1-.008a3.82,3.82,0,0,0,2.181,2.749l-.017,14.169-8.288.011a.763.763,0,0,0-.754.77l0,1.538a.759.759,0,0,0,.753.768l19.59-.025a.763.763,0,0,0,.754-.77l0-1.538A.759.759,0,0,0,24.858,21.523Z" transform="translate(14.038 7.282)" fill="#fafbfc"/>
    </g>
  </g>
</svg>
