<svg width="1366" height="768" viewBox="0 0 1366 768" fill="none" xmlns="http://www.w3.org/2000/svg">
<g clip-path="url(#clip0_5999_117)">
<rect width="1366" height="768" fill="white"/>
<rect x="-19" y="115" width="1366" height="768" fill="url(#paint0_linear_5999_117)"/>
<rect y="115" width="1366" height="768" fill="url(#paint1_linear_5999_117)"/>
<g opacity="0.5">
<path opacity="0.1" d="M157.399 763.296L157.399 781.224L112.561 781.224L112.561 757.473L112.507 757.473C112.134 752.421 109.864 747.698 106.152 744.251C102.441 740.804 97.5631 738.888 92.4979 738.889C87.4327 738.888 82.5548 740.804 78.8434 744.251C75.132 747.698 72.8618 752.421 72.4884 757.473L72.4342 757.473L72.4342 825.039C59.4002 820.797 48.0429 812.539 39.9888 801.449C31.9346 790.358 27.5968 777.002 27.5964 763.295C27.5968 754.773 29.2759 746.333 32.5379 738.459C35.7998 730.585 40.5807 723.431 46.6076 717.405C52.6345 711.379 59.7894 706.598 67.6636 703.337C75.5379 700.076 83.9775 698.398 92.5003 698.398C109.712 698.399 126.219 705.236 138.39 717.407C150.56 729.577 157.398 746.084 157.399 763.296Z" fill="#2680EB"/>
<path opacity="0.35" d="M-57.0884 633.5L-57.0884 615.572L-12.2506 615.572L-12.2506 639.323L-12.1971 639.323C-11.8236 644.374 -9.5534 649.097 -5.842 652.544C-2.13059 655.991 2.74726 657.907 7.81246 657.907C12.8777 657.907 17.7555 655.991 21.4669 652.544C25.1783 649.097 27.4486 644.374 27.822 639.323L27.8755 639.323L27.8755 571.758C40.9094 576 52.2666 584.258 60.3208 595.349C68.3749 606.439 72.7128 619.794 72.7133 633.501C72.7125 650.714 65.8741 667.221 53.7025 679.392C41.5309 691.562 25.0231 698.399 7.81063 698.398C-9.40145 698.398 -25.9085 691.56 -38.0793 679.39C-50.2502 667.219 -57.0879 650.712 -57.0884 633.5Z" fill="#2680EB"/>
<path opacity="0.35" d="M72.4924 426.898L72.4924 444.826L27.6546 444.826L27.6546 421.074L27.601 421.074C27.2276 416.023 24.9574 411.3 21.246 407.853C17.5346 404.406 12.6567 402.49 7.59151 402.491C2.52632 402.49 -2.35153 404.406 -6.06294 407.853C-9.77434 411.3 -12.0446 416.023 -12.418 421.074L-12.4715 421.074L-12.4715 488.641C-25.5055 484.399 -36.8627 476.141 -44.9169 465.05C-52.971 453.959 -57.3089 440.604 -57.3093 426.897C-57.3089 418.374 -55.6298 409.935 -52.3679 402.061C-49.106 394.187 -44.3252 387.033 -38.2983 381.007C-32.2715 374.981 -25.1167 370.2 -17.2425 366.939C-9.36831 363.678 -0.928855 362 7.59397 362C24.8058 362 41.3126 368.838 53.4833 381.009C65.654 393.179 72.4917 409.686 72.4924 426.898Z" fill="#2680EB"/>
<path opacity="0.35" d="M262.097 636.654L262.097 654.582L217.259 654.582L217.259 630.831L217.205 630.831C216.832 625.779 214.562 621.056 210.85 617.609C207.139 614.162 202.261 612.247 197.196 612.247C192.131 612.247 187.253 614.162 183.541 617.609C179.83 621.056 177.56 625.779 177.186 630.831L177.133 630.831L177.133 698.397C164.099 694.155 152.742 685.897 144.687 674.807C136.633 663.716 132.295 650.36 132.295 636.654C132.295 628.131 133.974 619.692 137.236 611.818C140.498 603.944 145.279 596.789 151.306 590.763C157.333 584.737 164.488 579.957 172.362 576.696C180.236 573.434 188.675 571.756 197.198 571.756C214.41 571.757 230.917 578.594 243.088 590.765C255.258 602.936 262.096 619.442 262.097 636.654Z" fill="#2680EB"/>
<path d="M27.6013 506.858L27.6013 488.929L72.4391 488.929L72.4391 512.68L72.4926 512.68C72.866 517.732 75.1363 522.455 78.8477 525.902C82.5591 529.349 87.437 531.265 92.5022 531.264C97.5673 531.265 102.445 529.349 106.157 525.902C109.868 522.455 112.138 517.732 112.512 512.68L112.565 512.68L112.565 445.116C125.599 449.358 136.956 457.615 145.011 468.706C153.065 479.797 157.403 493.153 157.403 506.859C157.402 524.072 150.564 540.579 138.392 552.749C126.22 564.92 109.713 571.757 92.5003 571.756C75.2882 571.756 58.7812 564.918 46.6104 552.747C34.4395 540.577 27.6018 524.07 27.6013 506.858Z" fill="#D9EEFF"/>
<path d="M197.198 760.142L197.198 742.214L242.036 742.214L242.036 765.965L242.09 765.965C242.463 771.017 244.733 775.74 248.445 779.187C252.156 782.634 257.034 784.55 262.099 784.549C267.164 784.55 272.042 782.634 275.754 779.187C279.465 775.74 281.735 771.017 282.109 765.965L282.162 765.965L282.162 698.401C295.196 702.643 306.553 710.9 314.608 721.991C322.662 733.082 327 746.437 327 760.144C326.999 777.357 320.161 793.864 307.989 806.034C295.817 818.205 279.31 825.042 262.097 825.041C244.885 825.041 228.378 818.203 216.207 806.032C204.036 793.862 197.199 777.355 197.198 760.142Z" fill="#D9EEFF"/>
</g>
<g opacity="0.4">
<path d="M1262.81 324.705L1245.38 324.705L1245.38 281.122H1268.47V281.07C1273.38 280.708 1277.97 278.502 1281.32 274.895C1284.67 271.287 1286.53 266.546 1286.53 261.622C1286.53 256.699 1284.67 251.958 1281.32 248.35C1277.97 244.743 1273.38 242.537 1268.47 242.175L1268.47 242.122L1202.79 242.12C1206.38 231.053 1212.97 221.196 1221.81 213.638C1230.66 206.08 1241.42 201.116 1252.92 199.294C1264.41 197.473 1276.18 198.864 1286.93 203.316C1297.68 207.767 1306.99 215.105 1313.83 224.517C1320.67 233.93 1324.78 245.051 1325.69 256.65C1326.61 268.25 1324.3 279.877 1319.02 290.245C1313.73 300.613 1305.69 309.319 1295.77 315.4C1285.85 321.481 1274.44 324.701 1262.8 324.703L1262.81 324.705Z" fill="#B1D2F8"/>
<path d="M1361.49 89.4748L1378.92 89.4753L1378.92 133.059L1355.83 133.059L1355.83 133.111C1350.92 133.474 1346.33 135.68 1342.98 139.287C1339.63 142.894 1337.76 147.636 1337.76 152.559C1337.76 157.483 1339.63 162.224 1342.98 165.831C1346.33 169.438 1350.92 171.645 1355.83 172.007L1355.83 172.059L1421.51 172.059C1417.91 183.125 1411.33 192.983 1402.48 200.54C1393.63 208.098 1382.87 213.062 1371.38 214.884C1359.88 216.706 1348.11 215.314 1337.36 210.863C1326.61 206.411 1317.3 199.074 1310.46 189.661C1303.62 180.249 1299.52 169.128 1298.6 157.528C1297.69 145.928 1300 134.302 1305.28 123.933C1310.56 113.565 1318.6 104.859 1328.52 98.7781C1338.44 92.6969 1349.85 89.4775 1361.49 89.4757L1361.49 89.4748Z" fill="#D9EEFF"/>
<path d="M1325.67 30.2163L1325.67 47.6426L1282.09 47.6421V24.5558H1282.04C1281.68 19.6456 1279.47 15.0542 1275.86 11.7033C1272.25 8.35234 1267.51 6.48996 1262.59 6.48996C1257.67 6.48996 1252.93 8.35241 1249.32 11.7033C1245.71 15.0543 1243.5 19.6456 1243.14 24.5558L1243.09 24.5562L1243.09 90.2347C1232.02 86.6404 1222.16 80.0558 1214.61 71.2089C1207.05 62.3619 1202.08 51.5973 1200.26 40.1051C1198.44 28.6129 1199.83 16.8408 1204.28 6.09024C1208.73 -4.66032 1216.07 -13.9706 1225.48 -20.8111C1234.9 -27.6517 1246.02 -31.7561 1257.62 -32.6707C1269.22 -33.5852 1280.84 -31.2743 1291.21 -25.9933C1301.58 -20.7123 1310.29 -12.6671 1316.37 -2.74691C1322.45 7.17323 1325.67 18.5818 1325.67 30.2175L1325.67 30.2163Z" fill="#B1D2F8"/>
<path d="M1154.22 96.5604L1171.64 96.5599L1171.64 140.143L1148.56 140.143V140.195C1143.65 140.557 1139.06 142.764 1135.7 146.371C1132.35 149.978 1130.49 154.719 1130.49 159.643C1130.49 164.566 1132.35 169.308 1135.7 172.915C1139.06 176.522 1143.65 178.728 1148.56 179.091V179.143L1214.23 179.143C1210.64 190.209 1204.05 200.066 1195.21 207.624C1186.36 215.182 1175.6 220.146 1164.1 221.967C1152.61 223.789 1140.84 222.397 1130.09 217.946C1119.34 213.494 1110.03 206.157 1103.19 196.744C1096.35 187.332 1092.24 176.211 1091.33 164.612C1090.41 153.012 1092.73 141.386 1098.01 131.017C1103.29 120.649 1111.33 111.943 1121.25 105.862C1131.17 99.7813 1142.58 96.5622 1154.22 96.5604Z" fill="#D9EEFF"/>
</g>
</g>
<defs>
<linearGradient id="paint0_linear_5999_117" x1="664" y1="115" x2="664" y2="2060" gradientUnits="userSpaceOnUse">
<stop stop-color="white"/>
<stop offset="1" stop-color="#B4DCFF"/>
</linearGradient>
<linearGradient id="paint1_linear_5999_117" x1="683" y1="115" x2="683" y2="2060" gradientUnits="userSpaceOnUse">
<stop stop-color="white"/>
<stop offset="1" stop-color="#B4DCFF"/>
</linearGradient>
<clipPath id="clip0_5999_117">
<rect width="1366" height="768" fill="white"/>
</clipPath>
</defs>
</svg>
