<svg xmlns="http://www.w3.org/2000/svg" xmlns:xlink="http://www.w3.org/1999/xlink" width="398" height="125" viewBox="0 0 398 125">
  <defs>
    <linearGradient id="linear-gradient" x1="0.538" y1="1" x2="0.54" gradientUnits="objectBoundingBox">
      <stop offset="0" stop-color="#2680eb"/>
      <stop offset="1" stop-color="#6bb1fe"/>
    </linearGradient>
    <linearGradient id="linear-gradient-2" x1="0.5" x2="0.5" y2="1" gradientUnits="objectBoundingBox">
      <stop offset="0" stop-color="#fcd8ae"/>
      <stop offset="1" stop-color="#f9ac50"/>
    </linearGradient>
    <clipPath id="clip-path">
      <path id="Rectangle_289" data-name="Rectangle 289" d="M10,0H388a10,10,0,0,1,10,10V125a0,0,0,0,1,0,0H0a0,0,0,0,1,0,0V10A10,10,0,0,1,10,0Z" transform="translate(829 894)" fill="url(#linear-gradient)"/>
    </clipPath>
  </defs>
  <g id="bg-tk" transform="translate(-415 -1738)">
    <path id="Rectangle_288" data-name="Rectangle 288" d="M10,0H388a10,10,0,0,1,10,10V125a0,0,0,0,1,0,0H0a0,0,0,0,1,0,0V10A10,10,0,0,1,10,0Z" transform="translate(415 1738)" fill="url(#linear-gradient-2)"/>
    <g id="Mask_Group_1269" data-name="Mask Group 1269" transform="translate(-414 844)" clip-path="url(#clip-path)">
      <g id="Group_1452" data-name="Group 1452" transform="translate(4)">
        <g id="_004-calculator" data-name="004-calculator" transform="translate(861.827 875.942) rotate(20)" opacity="0.07">
          <path id="Path_1604" data-name="Path 1604" d="M116.879,56H89.444A1.444,1.444,0,0,0,88,57.444V69a1.444,1.444,0,0,0,1.444,1.444h27.435A1.444,1.444,0,0,0,118.323,69V57.444A1.444,1.444,0,0,0,116.879,56Zm-1.444,11.552H90.888V58.888h24.547Z" transform="translate(-58.224 -50.946)" fill="#d88b3e"/>
          <path id="Path_1605" data-name="Path 1605" d="M61.543,0H28.332A4.337,4.337,0,0,0,24,4.332V41.875a4.337,4.337,0,0,0,4.332,4.332H61.543a4.337,4.337,0,0,0,4.332-4.332V4.332A4.337,4.337,0,0,0,61.543,0Zm1.444,41.875a1.446,1.446,0,0,1-1.444,1.444H28.332a1.446,1.446,0,0,1-1.444-1.444V4.332a1.446,1.446,0,0,1,1.444-1.444H61.543a1.446,1.446,0,0,1,1.444,1.444Z" fill="#d88b3e"/>
          <path id="Path_1606" data-name="Path 1606" d="M95.22,240H89.444A1.444,1.444,0,0,0,88,241.444v5.776a1.444,1.444,0,0,0,1.444,1.444H95.22a1.444,1.444,0,0,0,1.444-1.444v-5.776A1.444,1.444,0,0,0,95.22,240Zm-1.444,5.776H90.888v-2.888h2.888Z" transform="translate(-58.224 -218.341)" fill="#d88b3e"/>
          <path id="Path_1607" data-name="Path 1607" d="M215.22,240h-5.776A1.444,1.444,0,0,0,208,241.444v5.776a1.444,1.444,0,0,0,1.444,1.444h5.776a1.444,1.444,0,0,0,1.444-1.444v-5.776A1.444,1.444,0,0,0,215.22,240Zm-1.444,5.776h-2.888v-2.888h2.888Z" transform="translate(-167.394 -218.341)" fill="#d88b3e"/>
          <path id="Path_1608" data-name="Path 1608" d="M95.22,360H89.444A1.444,1.444,0,0,0,88,361.444v5.776a1.444,1.444,0,0,0,1.444,1.444H95.22a1.444,1.444,0,0,0,1.444-1.444v-5.776A1.444,1.444,0,0,0,95.22,360Zm-1.444,5.776H90.888v-2.888h2.888Z" transform="translate(-58.224 -327.511)" fill="#d88b3e"/>
          <path id="Path_1609" data-name="Path 1609" d="M215.22,360h-5.776A1.444,1.444,0,0,0,208,361.444v5.776a1.444,1.444,0,0,0,1.444,1.444h5.776a1.444,1.444,0,0,0,1.444-1.444v-5.776A1.444,1.444,0,0,0,215.22,360Zm-1.444,5.776h-2.888v-2.888h2.888Z" transform="translate(-167.394 -327.511)" fill="#d88b3e"/>
          <path id="Path_1610" data-name="Path 1610" d="M335.22,240h-5.776A1.444,1.444,0,0,0,328,241.444V258.05a1.444,1.444,0,0,0,1.444,1.444h5.776a1.444,1.444,0,0,0,1.444-1.444V241.444A1.444,1.444,0,0,0,335.22,240Zm-1.444,16.606h-2.888V242.888h2.888Z" transform="translate(-276.565 -218.341)" fill="#d88b3e"/>
        </g>
        <g id="_003-backpack" data-name="003-backpack" transform="translate(822.713 901.466) rotate(20)" opacity="0.07">
          <path id="Path_1611" data-name="Path 1611" d="M55.7,30.547H50.312v-2.7A21.6,21.6,0,0,0,36.83,7.861a8.083,8.083,0,0,0-16.16,0A21.6,21.6,0,0,0,7.187,27.852v2.7H1.8a1.8,1.8,0,0,0-1.8,1.8v11.68a9,9,0,0,0,7.238,8.813,5.4,5.4,0,0,0,5.34,4.664H44.922a5.4,5.4,0,0,0,5.34-4.664A9,9,0,0,0,57.5,44.023V32.344A1.8,1.8,0,0,0,55.7,30.547ZM28.75,3.594a4.5,4.5,0,0,1,4.278,3.122,21.645,21.645,0,0,0-8.556,0A4.5,4.5,0,0,1,28.75,3.594ZM3.594,44.023V34.141H7.187V49.106A5.4,5.4,0,0,1,3.594,44.023Zm43.125,8.086a1.8,1.8,0,0,1-1.8,1.8H12.578a1.8,1.8,0,0,1-1.8-1.8V27.852a17.969,17.969,0,1,1,35.937,0Zm7.188-8.086a5.4,5.4,0,0,1-3.594,5.083V34.141h3.594Z" fill="#d88b3e"/>
          <path id="Path_1612" data-name="Path 1612" d="M135.273,112A15.291,15.291,0,0,0,120,127.273a1.8,1.8,0,0,0,3.594,0,11.68,11.68,0,0,1,23.359,0,1.8,1.8,0,0,0,3.594,0A15.291,15.291,0,0,0,135.273,112Z" transform="translate(-106.523 -99.422)" fill="#d88b3e"/>
          <path id="Path_1613" data-name="Path 1613" d="M151.359,304H133.391A5.4,5.4,0,0,0,128,309.391v6.289a5.4,5.4,0,0,0,5.391,5.391h17.969a5.4,5.4,0,0,0,5.391-5.391v-6.289A5.4,5.4,0,0,0,151.359,304Zm1.8,11.68a1.8,1.8,0,0,1-1.8,1.8H133.391a1.8,1.8,0,0,1-1.8-1.8v-6.289a1.8,1.8,0,0,1,1.8-1.8h17.969a1.8,1.8,0,0,1,1.8,1.8Z" transform="translate(-113.625 -269.859)" fill="#d88b3e"/>
        </g>
        <g id="_015-school_supplies" data-name="015-school supplies" transform="translate(940.07 978.312) rotate(20)" opacity="0.07">
          <path id="Path_1614" data-name="Path 1614" d="M49.812.3.707,34.671a1.638,1.638,0,0,0,.939,2.978h49.1a1.637,1.637,0,0,0,1.637-1.637V1.639A1.638,1.638,0,0,0,49.812.3Zm-.7,34.077H45.84v-.818a1.637,1.637,0,0,0-3.274,0v.818H39.293v-.818a1.637,1.637,0,0,0-3.274,0v.818H32.746v-.818a1.637,1.637,0,0,0-3.274,0v.818H26.2v-.818a1.637,1.637,0,0,0-3.274,0v.818H19.651v-.818a1.637,1.637,0,0,0-3.274,0v.818H6.839L49.114,4.783Z" transform="translate(0 0)" fill="#d88b3e"/>
          <path id="Path_1615" data-name="Path 1615" d="M255.435,167.392h14.958a1.637,1.637,0,0,0,1.637-1.637v-10.47a1.638,1.638,0,0,0-2.576-1.341L254.5,164.415A1.638,1.638,0,0,0,255.435,167.392Zm13.321-8.963v5.69h-8.128Z" transform="translate(-227.826 -137.928)" fill="#d88b3e"/>
          <path id="Path_1616" data-name="Path 1616" d="M.012,1.658V14.752a4.916,4.916,0,0,0,4.91,4.91H8.2a4.916,4.916,0,0,0,4.91-4.91V1.658A1.637,1.637,0,0,0,11.47.021H1.649A1.637,1.637,0,0,0,.012,1.658ZM8.2,16.389H4.922a1.639,1.639,0,0,1-1.637-1.637V13.116H9.833v1.637A1.639,1.639,0,0,1,8.2,16.389ZM9.833,3.295V9.842H3.286V3.295Z" transform="translate(-0.003 -0.019)" fill="#d88b3e"/>
          <path id="Path_1617" data-name="Path 1617" d="M55.48,425.842h-40.1a1.637,1.637,0,0,1-.8-.21l-5.729-3.222a1.637,1.637,0,0,1-.019-2.842l5.729-3.325a1.636,1.636,0,0,1,.822-.221h40.1a1.637,1.637,0,0,1,1.637,1.637v6.547A1.637,1.637,0,0,1,55.48,425.842Zm-39.673-3.274H53.843v-3.274H15.818l-2.87,1.666Z" transform="translate(-7.184 -373.462)" fill="#d88b3e"/>
        </g>
        <g id="_022-table_lamp" data-name="022-table lamp" transform="translate(903.169 889.379) rotate(20)" opacity="0.07">
          <path id="Path_1618" data-name="Path 1618" d="M81.758,46.251v-4.5a1.777,1.777,0,0,0-1.777-1.777H78.2V25.763a19.146,19.146,0,0,0-9.38-16.439A6.688,6.688,0,0,0,57.947,1.961L55.856,4.052a13.011,13.011,0,0,0-12.336,3.4L40.555,10.3a1.777,1.777,0,0,0-.027,2.539l3.4,3.4A7.1,7.1,0,1,0,53.975,26.283l2.434,2.434a1.777,1.777,0,0,0,2.485.026c4-3.837,2.76-2.636,3-2.88a13.011,13.011,0,0,0,3.418-12.35l1.338-1.337a15.581,15.581,0,0,1,8,13.588V39.976H72.875A1.777,1.777,0,0,0,71.1,41.752v4.442H67.545v-.888a1.777,1.777,0,0,0-3.553,0v.888H63.1A7.114,7.114,0,0,0,56,53.3v1.777a1.777,1.777,0,0,0,1.777,1.777H86.2a1.777,1.777,0,0,0,1.777-1.777V53.3a7.116,7.116,0,0,0-6.218-7.049ZM48.891,24.874a3.556,3.556,0,0,1-2.449-6.124l5.02,5.02A3.561,3.561,0,0,1,48.891,24.874ZM59.4,23.337l-1.708,1.637L44.324,11.607l1.694-1.624A9.453,9.453,0,0,1,59.4,23.337ZM59.41,5.523l1.049-1.049a3.136,3.136,0,0,1,5.115,3.418c-.316.763-.742,1.081-1.729,2.067A13.025,13.025,0,0,0,59.41,5.523ZM74.652,43.529H78.2v2.665H74.652ZM59.55,53.3A3.557,3.557,0,0,1,63.1,49.747H80.87A3.557,3.557,0,0,1,84.423,53.3Z" transform="translate(0 0)" fill="#d88b3e"/>
        </g>
        <g id="_025-dna" data-name="025-dna" transform="translate(772.763 963.454) rotate(20)" opacity="0.07">
          <path id="Path_1619" data-name="Path 1619" d="M140.249,24.377c7.344-6.253,11.805-12.979,11.757-22.864a1.52,1.52,0,1,0-3.041.015c.045,9.229-4.3,15.179-11.1,20.882-.8-.638-1.59-1.262-2.433-1.927,6.456-5.328,10.534-10.471,10.492-18.94a1.52,1.52,0,0,0-3.041.015,20.313,20.313,0,0,1-.111,2.258H123.23a20.4,20.4,0,0,1-.111-2.258,1.52,1.52,0,1,0-3.041-.015c-.051,10.27,5.907,15.368,13.843,21.621,7.3,5.753,15.044,11.849,15.044,23.984a1.52,1.52,0,0,0,3.041,0c0-9.786-4.391-16.479-11.757-22.771Zm1.925-17.52A16.087,16.087,0,0,1,140.926,9.9H125.072a16.058,16.058,0,0,1-1.246-3.041Zm-15.057,6.082h11.764A40.183,40.183,0,0,1,133,18.544,40.208,40.208,0,0,1,127.118,12.939Z" transform="translate(-57.919)" fill="#d88b3e"/>
          <path id="Path_1620" data-name="Path 1620" d="M59.118,1.53a1.52,1.52,0,0,0-3.041-.015c-.049,9.852,4.367,16.559,11.757,22.863-7.3,6.233-11.757,12.9-11.757,22.771a1.52,1.52,0,0,0,3.041,0c0-9.178,4.326-15.114,11.1-20.807.809.648,1.612,1.279,2.433,1.926C66.245,33.559,62.159,38.7,62.159,47.149a1.52,1.52,0,0,0,3.041,0,20.4,20.4,0,0,1,.124-2.281H84.84a20.441,20.441,0,0,1,.125,2.281,1.52,1.52,0,0,0,3.041,0c0-21.762-29.005-21.9-28.888-45.619ZM75.083,30.208A40.4,40.4,0,0,1,80.9,35.746H69.263A40.365,40.365,0,0,1,75.083,30.208Zm-9.144,11.62A16.183,16.183,0,0,1,67.2,38.787H82.962a16.172,16.172,0,0,1,1.264,3.041Z" transform="translate(0 -0.002)" fill="#d88b3e"/>
        </g>
        <g id="_014-basketball" data-name="014-basketball" transform="translate(978 876)" opacity="0.07">
          <path id="Path_1621" data-name="Path 1621" d="M40.117,6.883h0A23.5,23.5,0,0,0,6.883,40.117,23.5,23.5,0,0,0,40.117,6.883ZM38.04,8.96a20.438,20.438,0,0,1,5.305,9.172,16.056,16.056,0,0,0-4.3-2.825,19.309,19.309,0,0,0-9.894-1.228c-2.591.2-4.578.345-6.673-1.133a36.388,36.388,0,0,1,13.65-5.678A20.67,20.67,0,0,1,38.04,8.96ZM23.219,44.05A16.567,16.567,0,0,1,18.013,37.9a16.616,16.616,0,0,1-1-8.529c.227-3.01.462-6.114-2.238-9.335q.711-.873,1.481-1.705L36.964,39.041A20.509,20.509,0,0,1,23.219,44.05ZM3.131,26.243c1.418-3.53,3.45-5.962,5.347-6.38a3.027,3.027,0,0,1,2.354.509,39.333,39.333,0,0,0-5.762,12.25A20.537,20.537,0,0,1,3.131,26.243Zm4.714-9.249a8.542,8.542,0,0,0-4.631,3.2A20.442,20.442,0,0,1,7.959,10.036l6.214,6.214q-.807.87-1.558,1.782a5.973,5.973,0,0,0-4.769-1.039Zm2.191-9.035A20.443,20.443,0,0,1,20.194,3.214a8.534,8.534,0,0,0-3.2,4.649,5.975,5.975,0,0,0,1.043,4.752q-.911.75-1.782,1.558Zm9.824.527c.412-1.894,2.85-3.935,6.384-5.355a20.535,20.535,0,0,1,6.377,1.939,39.328,39.328,0,0,0-12.25,5.762A3.029,3.029,0,0,1,19.86,8.486ZM7.269,36.125a36.393,36.393,0,0,1,5.678-13.65c1.478,2.094,1.329,4.082,1.133,6.673a19.309,19.309,0,0,0,1.228,9.895,16.052,16.052,0,0,0,2.824,4.3A20.437,20.437,0,0,1,8.96,38.04a20.662,20.662,0,0,1-1.691-1.914Zm31.772.838L18.329,16.252q.832-.768,1.705-1.481c3.222,2.7,6.326,2.466,9.335,2.238a16.617,16.617,0,0,1,8.528,1,16.572,16.572,0,0,1,6.152,5.206A20.509,20.509,0,0,1,39.041,36.964Z" fill="#d88b3e"/>
        </g>
        <g id="_023-cubes_stack" data-name="023-cubes stack" transform="translate(1008.858 928.136) rotate(20)" opacity="0.07">
          <path id="Path_1622" data-name="Path 1622" d="M49.3,25.5H41.36a5.076,5.076,0,0,0,.292-1.7V5.1a5.106,5.106,0,0,0-5.1-5.1h-18.7a5.106,5.106,0,0,0-5.1,5.1V23.8a5.076,5.076,0,0,0,.292,1.7H5.1A5.106,5.106,0,0,0,0,30.6V49.3a5.106,5.106,0,0,0,5.1,5.1H23.8a5.08,5.08,0,0,0,3.4-1.3,5.079,5.079,0,0,0,3.4,1.3H49.3a5.106,5.106,0,0,0,5.1-5.1V30.6A5.106,5.106,0,0,0,49.3,25.5ZM16.151,23.8V5.1a1.7,1.7,0,0,1,1.7-1.7h18.7a1.7,1.7,0,0,1,1.7,1.7V23.8a1.7,1.7,0,0,1-1.7,1.7h-18.7A1.7,1.7,0,0,1,16.151,23.8ZM23.8,51H5.1a1.7,1.7,0,0,1-1.7-1.7V30.6a1.7,1.7,0,0,1,1.7-1.7H23.8a1.7,1.7,0,0,1,1.7,1.7V49.3A1.7,1.7,0,0,1,23.8,51ZM51,49.3A1.7,1.7,0,0,1,49.3,51H30.6a1.7,1.7,0,0,1-1.7-1.7V30.6a1.7,1.7,0,0,1,1.7-1.7H49.3A1.7,1.7,0,0,1,51,30.6Z" fill="#d88b3e"/>
          <path id="Path_1623" data-name="Path 1623" d="M337.1,312h-3.4a1.7,1.7,0,0,0,0,3.4h3.4a.85.85,0,0,1,0,1.7h-1.7a1.7,1.7,0,0,0,0,3.4h1.7a.85.85,0,0,1,0,1.7h-3.4a1.7,1.7,0,1,0,0,3.4h3.4a4.255,4.255,0,0,0,3.4-6.8A4.255,4.255,0,0,0,337.1,312Z" transform="translate(-296.723 -278.848)" fill="#d88b3e"/>
          <path id="Path_1624" data-name="Path 1624" d="M101.35,316.675a4.675,4.675,0,1,0-9.35,0,1.7,1.7,0,0,0,3.4,0,1.275,1.275,0,0,1,2.55,0,2.434,2.434,0,0,1-1.017,1.977l-4.221,3.015A1.7,1.7,0,0,0,92,323.051v.85a1.7,1.7,0,0,0,1.7,1.7h5.95a1.7,1.7,0,1,0,0-3.4H97.815l1.094-.782A5.841,5.841,0,0,0,101.35,316.675Z" transform="translate(-82.225 -278.848)" fill="#d88b3e"/>
          <path id="Path_1625" data-name="Path 1625" d="M233.7,75.4v8.5a1.7,1.7,0,1,0,3.4,0V73.7a1.7,1.7,0,0,0-1.7-1.7h-1.7a1.7,1.7,0,0,0,0,3.4Z" transform="translate(-207.349 -64.35)" fill="#d88b3e"/>
        </g>
        <g id="_007-geometry" data-name="007-geometry" transform="translate(1065.287 972.811) rotate(20)" opacity="0.07">
          <path id="Path_1626" data-name="Path 1626" d="M46.764,9.585a1.461,1.461,0,0,0-.841-1.322C45.768,8.191,20.891.153,20.866.146a1.455,1.455,0,0,0-.93.039C-.422,8.013.853,7.509.662,7.634a1.465,1.465,0,0,0-.62.886C-.026,8.809.008,37.461.01,37.486a1.467,1.467,0,0,0,.643,1.078c.242.162-1.223-.337,25.2,8.213a1.467,1.467,0,0,0,.568.066c.318-.026-.828.382,19.4-7.4a1.47,1.47,0,0,0,.8-.75c.207-.447.136,1.474.136-29.108Zm-40.92-.85L20.5,3.1,40.923,9.7,26.264,15.342ZM27.767,17.9l16.074-6.182V37.076L27.767,43.259ZM2.926,36.286V10.863l16.1,5.209a1.46,1.46,0,0,0,2.434.787l3.384,1.095V30.313a1.461,1.461,0,0,0,0,2.676V43.378Z" transform="translate(0 0)" fill="#d88b3e"/>
          <path id="Path_1627" data-name="Path 1627" d="M373.147,364.951a1.461,1.461,0,1,0,.941,1.84,1.461,1.461,0,0,0-.941-1.84Z" transform="translate(-337.332 -331.476)" fill="#d88b3e"/>
          <path id="Path_1628" data-name="Path 1628" d="M318.747,347.351a1.461,1.461,0,1,0,.941,1.839A1.461,1.461,0,0,0,318.747,347.351Z" transform="translate(-287.9 -315.483)" fill="#d88b3e"/>
          <path id="Path_1629" data-name="Path 1629" d="M427.548,382.55a1.461,1.461,0,1,0,.94,1.839A1.461,1.461,0,0,0,427.548,382.55Z" transform="translate(-386.764 -347.468)" fill="#d88b3e"/>
          <circle id="Ellipse_217" data-name="Ellipse 217" cx="1.461" cy="1.461" r="1.461" transform="translate(19 23.833)" fill="#d88b3e"/>
          <circle id="Ellipse_218" data-name="Ellipse 218" cx="1.461" cy="1.461" r="1.461" transform="translate(19 19.083)" fill="#d88b3e"/>
          <circle id="Ellipse_219" data-name="Ellipse 219" cx="1.461" cy="1.461" r="1.461" transform="translate(19 9.585)" fill="#d88b3e"/>
          <circle id="Ellipse_220" data-name="Ellipse 220" cx="1.461" cy="1.461" r="1.461" transform="translate(19 4.836)" fill="#d88b3e"/>
          <path id="Path_1630" data-name="Path 1630" d="M104.971,352.174a1.461,1.461,0,1,0,1.888.839A1.46,1.46,0,0,0,104.971,352.174Z" transform="translate(-94.533 -319.842)" fill="#d88b3e"/>
          <path id="Path_1631" data-name="Path 1631" d="M52.971,372.174a1.461,1.461,0,1,0,1.888.839A1.46,1.46,0,0,0,52.971,372.174Z" transform="translate(-47.282 -338.015)" fill="#d88b3e"/>
          <path id="Path_1632" data-name="Path 1632" d="M156.971,332.174a1.461,1.461,0,1,0,1.888.839A1.46,1.46,0,0,0,156.971,332.174Z" transform="translate(-141.784 -301.668)" fill="#d88b3e"/>
          <path id="Path_1633" data-name="Path 1633" d="M210.943,313.267a1.461,1.461,0,1,0-1.008,1.683A1.459,1.459,0,0,0,210.943,313.267Z" transform="translate(-189.049 -283.51)" fill="#d88b3e"/>
        </g>
        <g id="_019-globe" data-name="019-globe" transform="translate(830.442 929.926) rotate(20)" opacity="0.07">
          <path id="Path_1634" data-name="Path 1634" d="M92.48,33.339A20.939,20.939,0,0,0,93.671,2.923l.219-.2a1.5,1.5,0,0,0,0-2.256,1.866,1.866,0,0,0-2.47,0L86.864,4.629A19.664,19.664,0,0,0,62.224,5.7h0a15.722,15.722,0,0,0-1.176,22.506l-4.557,4.162a1.5,1.5,0,0,0,0,2.256,1.866,1.866,0,0,0,2.47,0l.219-.2a25.718,25.718,0,0,0,16.884,5.438v7.992H68.2a1.6,1.6,0,1,0,0,3.19H87.416a1.6,1.6,0,1,0,0-3.19H79.557v-8.33A25.1,25.1,0,0,0,92.48,33.339ZM85.688,7.959c.321.294.582,1.535-.731,4.134a29.153,29.153,0,0,1-5.46,7.131l-6.142-5.61a32.014,32.014,0,0,1,7.807-4.987,9.549,9.549,0,0,1,3.528-.906,1.562,1.562,0,0,1,1,.238ZM77.027,21.48a32.013,32.013,0,0,1-7.807,4.987c-2.845,1.2-4.2.961-4.526.667S64.111,25.6,65.424,23a29.152,29.152,0,0,1,5.46-7.131Zm2.463,2.25L84.38,28.2A16.047,16.047,0,0,1,69.16,29.937,33.248,33.248,0,0,0,79.49,23.73Zm7.36,2.21-4.89-4.466c2.681-2.637,5.48-6.089,6.795-9.436A12.644,12.644,0,0,1,86.85,25.94ZM81.222,5.158a33.182,33.182,0,0,0-10.331,6.206L66,6.9a16.041,16.041,0,0,1,15.221-1.74Zm-17.691,4,4.89,4.466c-2.681,2.637-5.48,6.089-6.795,9.436A12.644,12.644,0,0,1,63.532,9.154Zm-1.874,23.01,1.86-1.7a19.662,19.662,0,0,0,24.64-1.074A15.722,15.722,0,0,0,89.334,6.885l1.86-1.7a17.945,17.945,0,0,1-1.183,25.9A22.429,22.429,0,0,1,61.658,32.164Z" transform="translate(0 0)" fill="#d88b3e"/>
        </g>
        <g id="_009-trophy" data-name="009-trophy" transform="translate(1100.602 919.168) rotate(20)" opacity="0.07">
          <path id="Path_1635" data-name="Path 1635" d="M44.1,4.642c-3.358,0-4.331,3.047-5.318,4.816.492-5.091,1.357-6.18,1.557-6.367A1.547,1.547,0,0,0,40.232,0H9.284a1.547,1.547,0,0,0-.107,3.091c.2.187,1.065,1.275,1.557,6.367-.993-1.779-1.96-4.816-5.318-4.816C2.917,4.642,0,6.668,0,12.379c0,3.783,1.1,6.516,3.376,8.355a16.162,16.162,0,0,0,6.435,2.694c3.789.958,4.889,1.462,4.889,3.784a.642.642,0,0,1-1.094.453,1.547,1.547,0,1,0-2.188,2.188,3.736,3.736,0,0,0,6.046-1.107,11.68,11.68,0,0,0,5.747,2.847v5.544h-6.19a1.547,1.547,0,0,0-1.547,1.547v7.737H13.926a1.547,1.547,0,1,0,0,3.095H35.59a1.547,1.547,0,1,0,0-3.095H34.043V38.685A1.547,1.547,0,0,0,32.5,37.137h-6.19V31.593a11.681,11.681,0,0,0,5.747-2.847A3.736,3.736,0,0,0,38.1,29.854a1.547,1.547,0,1,0-2.188-2.188.642.642,0,0,1-1.094-.453v-.133c0-2.217,1.267-2.735,4.889-3.651a16.165,16.165,0,0,0,6.435-2.694c2.272-1.839,3.376-4.571,3.376-8.355,0-5.711-2.918-7.737-5.416-7.737ZM30.948,46.422H18.569v-6.19H30.948ZM3.095,12.379c0-2.141.608-4.642,2.321-4.642.843,0,1.244.532,2.1,2.239C8.2,11.349,9.1,13.138,11,13.728a19.293,19.293,0,0,0,1.169,7.123c-4.587-1.309-9.078-1.456-9.078-8.471ZM24.758,28.627c-5.711,0-10.488-7.71-10.615-13.459-.073-3.281-.335-8.983-1.49-12.073h24.21c-1.155,3.089-1.417,8.792-1.49,12.073-.128,5.738-4.9,13.459-10.615,13.459ZM37.343,20.85a19.267,19.267,0,0,0,1.169-7.123C42,12.65,41.992,7.737,44.1,7.737c1.713,0,2.321,2.5,2.321,4.642C46.422,19.375,41.966,19.531,37.343,20.85Z" transform="translate(0 0)" fill="#d88b3e"/>
        </g>
        <g id="_020-atom" data-name="020-atom" transform="translate(1057.581 887.899) rotate(20)" opacity="0.07">
          <path id="Path_1636" data-name="Path 1636" d="M199.264,192.271a7.03,7.03,0,1,0,7.03,7.03A7.038,7.038,0,0,0,199.264,192.271Zm0,10.545a3.515,3.515,0,1,1,3.515-3.515A3.519,3.519,0,0,1,199.264,202.816Z" transform="translate(-181.911 -184.22)" fill="#d88b3e"/>
          <path id="Path_1637" data-name="Path 1637" d="M71.785,28.151c9.3-11.294,4.246-20.26-10.3-17.835-5.132-13.7-15.422-13.807-20.594,0C26.463,7.91,21.224,16.767,30.6,28.151c-9.486,11.522-3.925,20.207,10.3,17.835,5.116,13.657,15.418,13.82,20.594,0C75.917,48.392,81.156,39.534,71.785,28.151Zm.714-12.3c1.2,2.078.06,5.672-3.108,9.666a50.157,50.157,0,0,0-5.456-4.722,50.152,50.152,0,0,0-1.362-7.09C65.746,13.231,70.9,13.072,72.5,15.848Zm-12.535,22.4c-.24,1.286-.523,2.5-.842,3.645-1.168-.3-2.363-.667-3.576-1.095C57.046,40.01,58.5,39.173,59.964,38.246Zm-8.774.779a59.534,59.534,0,0,1-9.418-5.437,59.62,59.62,0,0,1,0-10.875,59.527,59.527,0,0,1,9.418-5.437,59.534,59.534,0,0,1,9.418,5.437,59.62,59.62,0,0,1,0,10.875A59.527,59.527,0,0,1,51.19,39.025ZM46.834,40.8c-1.213.428-2.408.794-3.576,1.095-.319-1.142-.6-2.36-.842-3.645C43.848,39.152,45.3,39.991,46.834,40.8ZM38.06,30.7c-.993-.85-1.905-1.7-2.735-2.55.829-.847,1.742-1.7,2.735-2.55C37.991,27.313,37.991,28.989,38.06,30.7Zm4.356-12.646c.24-1.286.523-2.5.842-3.645,1.168.3,2.363.667,3.576,1.095-1.5.787-2.952,1.624-4.418,2.551ZM55.546,15.5c1.213-.428,2.408-.794,3.576-1.095q.478,1.713.842,3.645c-1.432-.906-2.882-1.745-4.418-2.551ZM64.32,25.6c.993.85,1.905,1.7,2.735,2.55-.829.847-1.742,1.7-2.735,2.55.069-1.712.069-3.388,0-5.1ZM51.19,3.545c2.4,0,4.942,2.784,6.817,7.525a50.136,50.136,0,0,0-6.817,2.364,50.141,50.141,0,0,0-6.817-2.364C46.248,6.33,48.791,3.545,51.19,3.545Zm-21.309,12.3c1.6-2.774,6.745-2.618,9.926-2.145a50.151,50.151,0,0,0-1.363,7.09,50.157,50.157,0,0,0-5.456,4.722c-3.168-3.994-4.308-7.588-3.108-9.666Zm0,24.605c-1.2-2.078-.06-5.672,3.108-9.666a50.159,50.159,0,0,0,5.456,4.722,50.136,50.136,0,0,0,1.363,7.09C36.628,43.071,31.48,43.223,29.881,40.453Zm21.309,12.3c-2.4,0-4.942-2.784-6.817-7.525a50.138,50.138,0,0,0,6.817-2.364,50.147,50.147,0,0,0,6.817,2.364C56.132,49.972,53.589,52.756,51.19,52.756ZM72.5,40.453c-1.6,2.773-6.742,2.619-9.926,2.145a50.135,50.135,0,0,0,1.362-7.09,50.156,50.156,0,0,0,5.456-4.722C72.559,34.781,73.7,38.376,72.5,40.453Z" transform="translate(-33.837 -13.07)" fill="#d88b3e"/>
        </g>
        <g id="_013-book" data-name="013-book" transform="translate(1156.386 886.646) rotate(20)" opacity="0.07">
          <path id="Path_1638" data-name="Path 1638" d="M84,0H53.04A5.045,5.045,0,0,0,48,5.04v36a5.045,5.045,0,0,0,5.04,5.04H84a1.44,1.44,0,0,0,1.44-1.44V1.44A1.44,1.44,0,0,0,84,0Zm-1.44,36H56.639V2.88H82.558ZM50.88,5.04a2.162,2.162,0,0,1,2.16-2.16h.72V36a5.913,5.913,0,0,0-2.88.484ZM82.558,43.2H53.04a2.16,2.16,0,1,1,0-4.32H82.558Z" fill="#d88b3e"/>
          <path id="Path_1639" data-name="Path 1639" d="M177.443,84.988H194.76a1.443,1.443,0,0,0,1.443-1.443v-10.1A1.443,1.443,0,0,0,194.76,72H177.443A1.443,1.443,0,0,0,176,73.443v10.1A1.443,1.443,0,0,0,177.443,84.988Zm1.443-10.1h14.431V82.1H178.886Z" transform="translate(-116.51 -65.506)" fill="#d88b3e"/>
          <path id="Path_1640" data-name="Path 1640" d="M201.317,320H185.443a1.443,1.443,0,1,0,0,2.886h15.874a1.443,1.443,0,1,0,0-2.886Z" transform="translate(-123.788 -291.206)" fill="#d88b3e"/>
        </g>
        <g id="_017-presentation" data-name="017-presentation" transform="translate(1141.393 861.914) rotate(20)" opacity="0.07">
          <path id="Path_1641" data-name="Path 1641" d="M50.052,9.687a1.615,1.615,0,0,0,1.615-1.615V1.615A1.615,1.615,0,0,0,50.052,0H1.615A1.615,1.615,0,0,0,0,1.615V8.073A1.615,1.615,0,0,0,1.615,9.687h.807V38.75H1.615a1.615,1.615,0,1,0,0,3.229h22.6v5.462a2.421,2.421,0,1,0,3.229,0V41.979h22.6a1.615,1.615,0,1,0,0-3.229h-.807V9.687ZM3.229,3.229H48.437V6.458H3.229ZM46.015,38.75H5.651V9.687H46.015Z" fill="#d88b3e"/>
          <path id="Path_1642" data-name="Path 1642" d="M103.846,137.094l4.563,1.977v5.306c0,1.845,1.159,3.5,3.262,4.673,6.038,3.354,16.574,1.044,16.574-4.673v-5.306l4.563-1.977a1.616,1.616,0,0,0,0-2.963l-13.839-6a1.615,1.615,0,0,0-1.284,0l-13.839,6a1.616,1.616,0,0,0,0,2.963Zm21.17,7.283c0,1.223-2.606,3-6.689,3s-6.689-1.776-6.689-3V140.47l6.047,2.62a1.615,1.615,0,0,0,1.284,0l6.047-2.62Zm-6.689-13,9.778,4.237-9.778,4.237-9.778-4.237Z" transform="translate(-92.494 -115.084)" fill="#d88b3e"/>
        </g>
        <g id="_018-chemistry" data-name="018-chemistry" transform="translate(1123.659 949.556) rotate(20)" opacity="0.07">
          <path id="Path_1643" data-name="Path 1643" d="M73.062,38.722,59.286,22.19V3.032a1.516,1.516,0,0,0,0-3.032H47.158a1.516,1.516,0,1,0,0,3.032V22.19L33.382,38.722a5.976,5.976,0,0,0,4.585,9.789H68.477A5.976,5.976,0,0,0,73.062,38.722ZM49.839,23.71a1.516,1.516,0,0,0,.351-.97V3.032h6.064V6.064H55.5a1.516,1.516,0,0,0,0,3.032h.758v3.032H55.5a1.516,1.516,0,0,0,0,3.032h.758v3.032H55.5a1.516,1.516,0,0,0,0,3.032h.758v1.516a1.516,1.516,0,0,0,.351.97l3.214,3.857A11.284,11.284,0,0,0,52.47,29c-1.372.784-3.733,1.437-7.476.52ZM68.477,45.479H37.966a2.94,2.94,0,0,1-2.256-4.816l7.153-8.584c3.66,1.168,7.774,1.463,11.11-.444,4.073-2.327,7.429-.5,9.284.058l7.475,8.97A2.94,2.94,0,0,1,68.477,45.479Z" transform="translate(-6.067 -2.049)" fill="#d88b3e"/>
        </g>
        <g id="_005-whiteboard" data-name="005-whiteboard" transform="translate(1205.829 970.604) rotate(20)" opacity="0.07">
          <path id="Path_1644" data-name="Path 1644" d="M48.764,29.886H47.191V1.573A1.573,1.573,0,0,0,45.618,0H4.721A1.573,1.573,0,0,0,3.148,1.573V29.886H1.575A1.573,1.573,0,0,0,0,31.459v6.292a1.573,1.573,0,0,0,1.573,1.573H7.354L4.781,48.33a1.573,1.573,0,1,0,3.025.864L8.6,46.4H41.735l.8,2.792a1.573,1.573,0,1,0,3.025-.864l-2.573-9.006h5.779a1.573,1.573,0,0,0,1.573-1.573V31.459A1.573,1.573,0,0,0,48.764,29.886ZM6.294,3.146H44.045v26.74H40.9V28.313a4.724,4.724,0,0,0-4.719-4.719H31.461a4.724,4.724,0,0,0-4.719,4.719v1.573H6.294Zm31.459,26.74H29.888V28.313a1.575,1.575,0,0,1,1.573-1.573H36.18a1.575,1.575,0,0,1,1.573,1.573Zm3.083,13.37H9.5l1.124-3.932H39.712Zm6.355-7.078H3.148V33.032H47.191Z" fill="#d88b3e"/>
          <path id="Path_1645" data-name="Path 1645" d="M217.44,66.224a4.723,4.723,0,0,0-6.292-4.448v-4.2a1.573,1.573,0,0,0-3.146,0v11.8a1.575,1.575,0,0,0,2.686,1.112A4.724,4.724,0,0,0,217.44,66.224Zm-4.719-1.573a1.573,1.573,0,1,1-1.573,1.573A1.575,1.575,0,0,1,212.721,64.651Z" transform="translate(-187.552 -50.495)" fill="#d88b3e"/>
          <path id="Path_1646" data-name="Path 1646" d="M94.754,112.422a4.718,4.718,0,1,0,0,8.515,1.575,1.575,0,0,0,2.686-1.112v-6.292A1.575,1.575,0,0,0,94.754,112.422Zm-2.033,5.831a1.573,1.573,0,1,1,1.573-1.573A1.575,1.575,0,0,1,92.721,118.253Z" transform="translate(-79.349 -100.95)" fill="#d88b3e"/>
          <path id="Path_1647" data-name="Path 1647" d="M336.059,120.054a1.573,1.573,0,1,0-2.224-2.224,1.573,1.573,0,1,1,0-2.225,1.573,1.573,0,1,0,2.224-2.224,4.719,4.719,0,1,0,0,6.673Z" transform="translate(-295.755 -100.988)" fill="#d88b3e"/>
        </g>
      </g>
    </g>
  </g>
</svg>
