<svg xmlns="http://www.w3.org/2000/svg" xmlns:xlink="http://www.w3.org/1999/xlink" width="1366" height="62" viewBox="0 0 1366 62">
  <defs>
    <clipPath id="clip-path">
      <rect id="Rectangle_1285" data-name="Rectangle 1285" width="1366" height="62" transform="translate(0 82)" fill="#fc544b"/>
    </clipPath>
  </defs>
  <g id="bg-verification-whatsapp" transform="translate(0 -82)">
    <rect id="Rectangle_1284" data-name="Rectangle 1284" width="1366" height="62" transform="translate(0 82)" fill="#fc544b"/>
    <g id="Mask_Group_1504" data-name="Mask Group 1504" clip-path="url(#clip-path)">
      <path id="Path_37247" data-name="Path 37247" d="M52.013,41.719A29.742,29.742,0,0,0,5.219,77.6L1,93l15.763-4.138a29.642,29.642,0,0,0,14.21,3.616h.013A29.543,29.543,0,0,0,52.013,41.719ZM30.987,87.469A24.668,24.668,0,0,1,18.4,84.027l-.9-.536L8.152,85.942l2.491-9.121-.589-.937A24.76,24.76,0,1,1,55.978,62.746,24.988,24.988,0,0,1,30.987,87.469ZM44.54,68.96c-.737-.375-4.393-2.17-5.076-2.411s-1.179-.375-1.674.375-1.915,2.411-2.357,2.92-.871.563-1.607.188c-4.366-2.183-7.232-3.9-10.112-8.839-.763-1.313.763-1.219,2.183-4.058a1.377,1.377,0,0,0-.067-1.3c-.187-.375-1.674-4.031-2.29-5.518-.6-1.446-1.219-1.246-1.674-1.272-.429-.027-.924-.027-1.42-.027a2.752,2.752,0,0,0-1.982.924,8.348,8.348,0,0,0-2.6,6.2c0,3.656,2.665,7.192,3.027,7.687s5.237,8,12.7,11.223c4.714,2.036,6.562,2.21,8.92,1.862,1.433-.214,4.393-1.795,5.009-3.536a6.213,6.213,0,0,0,.429-3.536C45.772,69.509,45.277,69.321,44.54,68.96Z" transform="translate(1314.296 36.297)" fill="#fff" opacity="0.15"/>
      <path id="Path_37248" data-name="Path 37248" d="M52.013,41.719A29.742,29.742,0,0,0,5.219,77.6L1,93l15.763-4.138a29.641,29.641,0,0,0,14.21,3.616h.013A29.543,29.543,0,0,0,52.013,41.719ZM30.987,87.469A24.668,24.668,0,0,1,18.4,84.027l-.9-.536L8.152,85.942l2.491-9.121-.589-.938A24.76,24.76,0,1,1,55.978,62.746,24.988,24.988,0,0,1,30.987,87.469ZM44.54,68.96c-.737-.375-4.393-2.17-5.076-2.411s-1.179-.375-1.674.375-1.915,2.411-2.357,2.92-.871.563-1.607.188c-4.366-2.183-7.232-3.9-10.112-8.839-.763-1.313.763-1.219,2.183-4.058a1.377,1.377,0,0,0-.067-1.3c-.187-.375-1.674-4.031-2.29-5.518-.6-1.446-1.219-1.246-1.674-1.272-.429-.027-.924-.027-1.42-.027a2.752,2.752,0,0,0-1.982.924,8.348,8.348,0,0,0-2.6,6.2c0,3.656,2.665,7.192,3.027,7.687s5.237,8,12.7,11.223c4.714,2.036,6.563,2.21,8.92,1.862,1.433-.214,4.393-1.795,5.009-3.536a6.213,6.213,0,0,0,.429-3.536C45.772,69.509,45.277,69.321,44.54,68.96Z" transform="translate(-10.282 62.182)" fill="#fff" opacity="0.15"/>
    </g>
  </g>
</svg>
