<svg xmlns="http://www.w3.org/2000/svg" xmlns:xlink="http://www.w3.org/1999/xlink" width="200" height="200" viewBox="0 0 200 200">
  <defs>
    <style>
      .cls-1 {
        fill: #2680eb;
      }

      .cls-2 {
        fill: #d9eeff;
        opacity: 0.4;
      }

      .cls-3 {
        clip-path: url(#clip-path);
      }

      .cls-4 {
        fill: #6bb1fe;
        opacity: 0.5;
      }

      .cls-5 {
        fill: #fff;
      }
    </style>
    <clipPath id="clip-path">
      <path id="comments-solid" class="cls-1" d="M88.536,66.052C88.536,47.238,68.722,32,44.268,32S0,47.238,0,66.052c0,7.3,3,14.025,8.087,19.58a47.9,47.9,0,0,1-7.619,11.6,1.692,1.692,0,0,0-.319,1.852A1.667,1.667,0,0,0,1.7,100.1,37.474,37.474,0,0,0,20.58,94.784,54.155,54.155,0,0,0,44.268,100.1C68.722,100.1,88.536,84.866,88.536,66.052ZM114.5,112.874c5.087-5.534,8.087-12.28,8.087-19.58,0-14.238-11.386-26.433-27.519-31.52a31.628,31.628,0,0,1,.277,4.278c0,22.538-22.922,40.863-51.079,40.863a63.814,63.814,0,0,1-6.747-.4c6.7,12.238,22.453,20.836,40.8,20.836a53.858,53.858,0,0,0,23.688-5.321,37.474,37.474,0,0,0,18.878,5.321,1.678,1.678,0,0,0,1.554-1.022,1.705,1.705,0,0,0-.319-1.852A47.394,47.394,0,0,1,114.5,112.874Z" transform="translate(0 -32)"/>
    </clipPath>
  </defs>
  <g id="Group_2687" data-name="Group 2687" transform="translate(-171 -193)">
    <circle id="Ellipse_302" data-name="Ellipse 302" class="cls-2" cx="100" cy="100" r="100" transform="translate(171 193)"/>
    <g id="Group_2686" data-name="Group 2686" transform="translate(211.029 246.372)">
      <path id="comments-solid-2" data-name="comments-solid" class="cls-1" d="M88.536,66.052C88.536,47.238,68.722,32,44.268,32S0,47.238,0,66.052c0,7.3,3,14.025,8.087,19.58a47.9,47.9,0,0,1-7.619,11.6,1.692,1.692,0,0,0-.319,1.852A1.667,1.667,0,0,0,1.7,100.1,37.474,37.474,0,0,0,20.58,94.784,54.155,54.155,0,0,0,44.268,100.1C68.722,100.1,88.536,84.866,88.536,66.052ZM114.5,112.874c5.087-5.534,8.087-12.28,8.087-19.58,0-14.238-11.386-26.433-27.519-31.52a31.628,31.628,0,0,1,.277,4.278c0,22.538-22.922,40.863-51.079,40.863a63.814,63.814,0,0,1-6.747-.4c6.7,12.238,22.453,20.836,40.8,20.836a53.858,53.858,0,0,0,23.688-5.321,37.474,37.474,0,0,0,18.878,5.321,1.678,1.678,0,0,0,1.554-1.022,1.705,1.705,0,0,0-.319-1.852A47.394,47.394,0,0,1,114.5,112.874Z" transform="translate(0 -32)"/>
      <g id="Mask_Group_1425" data-name="Mask Group 1425" class="cls-3" transform="translate(0 0)">
        <circle id="Ellipse_457" data-name="Ellipse 457" class="cls-4" cx="75.747" cy="75.747" r="75.747" transform="translate(-70.852 -82.416)"/>
      </g>
      <ellipse id="Ellipse_458" data-name="Ellipse 458" class="cls-5" cx="6.5" cy="7" rx="6.5" ry="7" transform="translate(19.971 26.629)"/>
      <circle id="Ellipse_459" data-name="Ellipse 459" class="cls-5" cx="7" cy="7" r="7" transform="translate(39.971 26.629)"/>
      <circle id="Ellipse_460" data-name="Ellipse 460" class="cls-5" cx="7" cy="7" r="7" transform="translate(59.971 26.629)"/>
    </g>
  </g>
</svg>
