<svg xmlns="http://www.w3.org/2000/svg" xmlns:xlink="http://www.w3.org/1999/xlink" width="175" height="240" viewBox="0 0 175 240">
  <defs>
    <clipPath id="clip-path">
      <path id="Path_2373" data-name="Path 2373" d="M1482.505,306.585c-3.12,6.238-30.7-15.291-51.815-15.291s-48.694,21.529-51.815,15.291a11.7,11.7,0,0,1-.628-6.058c.758-7.9,5.329-18.77,5.329-18.77s25.948-14.927,47.114-14.927,47.116,14.927,47.116,14.927,4.57,10.865,5.327,18.77A11.7,11.7,0,0,1,1482.505,306.585Z" transform="translate(-1378.141 -266.83)" fill="#3c7ceb"/>
    </clipPath>
  </defs>
  <g id="cover-tk" transform="translate(-256 -663)">
    <rect id="Rectangle_305" data-name="Rectangle 305" width="175" height="240" rx="10" transform="translate(256 663)" fill="#fce8d2" opacity="0.65"/>
    <g id="Group_1489" data-name="Group 1489" transform="translate(109.602 252.666)">
      <g id="Group_1488" data-name="Group 1488" transform="translate(181.866 485.413)">
        <g id="Group_1312" data-name="Group 1312">
          <path id="Path_462" data-name="Path 462" d="M1520.11,94.691s1.932-23.157-.6-31.135c-5.214-16.416-17.018-23.165-17.163-23.287h.006a63.609,63.609,0,0,0-41.614,0h.006c-.148.124-12.312,7.177-17.51,24.406-2.357,7.812-.256,30.015-.256,30.015,9.6-4.725,25.042-11.086,38.567-11.089S1510.506,89.966,1520.11,94.691Z" transform="translate(-1428.983 -36.77)" fill="#ededf4"/>
          <path id="Path_463" data-name="Path 463" d="M1409.1,103.016q0,1.989.066,4.064l-.013.018-3.943,3.822-4.647.558s-.292-1.46-.571-3.931h0c-1.291-11.425-2.33-44.478,26.876-54.978C1426.648,52.736,1409.107,66.471,1409.1,103.016Z" transform="translate(-1395.102 -49.327)" fill="#f9ac50"/>
          <path id="Path_464" data-name="Path 464" d="M1762.4,107.548c-.279,2.471-.571,3.931-.571,3.931l-4.65-.558-3.943-3.822-.012-.018c.047-1.386.067-2.738.067-4.064-.012-36.545-17.551-50.279-17.766-50.446C1764.734,63.07,1763.7,96.123,1762.4,107.548Z" transform="translate(-1662.168 -49.327)" fill="#f9ac50"/>
          <path id="Path_465" data-name="Path 465" d="M1482.505,306.585c-3.12,6.238-30.7-15.291-51.815-15.291s-48.694,21.529-51.815,15.291a11.7,11.7,0,0,1-.628-6.058c.758-7.9,5.329-18.77,5.329-18.77s25.948-14.927,47.114-14.927,47.116,14.927,47.116,14.927,4.57,10.865,5.327,18.77A11.7,11.7,0,0,1,1482.505,306.585Z" transform="translate(-1378.141 -219.605)" fill="#ffc107"/>
        </g>
      </g>
      <g id="Mask_Group_1285" data-name="Mask Group 1285" transform="translate(181.866 532.638)" clip-path="url(#clip-path)">
        <ellipse id="Ellipse_271" data-name="Ellipse 271" cx="41.572" cy="40.478" rx="41.572" ry="40.478" transform="translate(-30.595 -40.364)" fill="#fce8d2" opacity="0.25"/>
      </g>
    </g>
  </g>
</svg>
