<svg xmlns="http://www.w3.org/2000/svg" xmlns:xlink="http://www.w3.org/1999/xlink" width="175" height="240" viewBox="0 0 175 240">
  <defs>
    <clipPath id="clip-path">
      <path id="Path_482" data-name="Path 482" d="M1482.407,306.547c-3.117,6.232-30.671-15.276-51.765-15.276s-48.649,21.509-51.767,15.276a11.692,11.692,0,0,1-.627-6.052c.757-7.9,5.324-18.752,5.324-18.752s25.924-14.913,47.07-14.913,47.071,14.913,47.071,14.913,4.565,10.855,5.322,18.752A11.693,11.693,0,0,1,1482.407,306.547Z" transform="translate(-1378.141 -266.83)" fill="#3c7ceb"/>
    </clipPath>
  </defs>
  <g id="cover-sma-smk" transform="translate(-256 -663)">
    <rect id="Rectangle_305" data-name="Rectangle 305" width="175" height="240" rx="10" transform="translate(256 663)" fill="#ededf4" opacity="0.65"/>
    <g id="Group_1492" data-name="Group 1492" transform="translate(142.178 -138.796)">
      <g id="Group_1319" data-name="Group 1319" transform="translate(148.822 877.796)">
        <g id="Group_1312" data-name="Group 1312" transform="translate(0)">
          <path id="Path_462" data-name="Path 462" d="M1520.036,94.636s1.93-23.135-.6-31.106c-5.209-16.4-17-23.143-17.147-23.265h.006a63.549,63.549,0,0,0-41.575,0h.007c-.149.124-12.3,7.17-17.494,24.383-2.355,7.8-.255,29.987-.255,29.987,9.6-4.72,25.019-11.075,38.53-11.079S1510.441,89.915,1520.036,94.636Z" transform="translate(-1428.995 -36.77)" fill="#ededf4"/>
          <path id="Path_463" data-name="Path 463" d="M1409.088,102.968q0,1.987.066,4.061l-.012.018-3.939,3.819-4.643.558s-.291-1.458-.57-3.927h0c-1.29-11.415-2.328-44.436,26.851-54.926C1426.622,52.736,1409.1,66.458,1409.088,102.968Z" transform="translate(-1395.106 -49.33)" fill="#747998"/>
          <path id="Path_464" data-name="Path 464" d="M1762.379,107.5c-.279,2.469-.57,3.927-.57,3.927l-4.645-.558-3.94-3.819-.012-.018c.047-1.384.068-2.736.068-4.061-.013-36.51-17.534-50.232-17.75-50.4C1764.707,63.06,1763.671,96.081,1762.379,107.5Z" transform="translate(-1662.238 -49.33)" fill="#747998"/>
          <path id="Path_465" data-name="Path 465" d="M1482.407,306.547c-3.117,6.232-30.671-15.276-51.765-15.276s-48.649,21.509-51.767,15.276a11.692,11.692,0,0,1-.627-6.052c.757-7.9,5.324-18.752,5.324-18.752s25.924-14.913,47.07-14.913,47.071,14.913,47.071,14.913,4.565,10.855,5.322,18.752A11.693,11.693,0,0,1,1482.407,306.547Z" transform="translate(-1378.141 -219.65)" fill="#8a90b2"/>
          <g id="Group_1311" data-name="Group 1311" transform="translate(37.79 12.492)">
            <path id="Path_466" data-name="Path 466" d="M1605.657,213.294a5.414,5.414,0,0,0,2.762,1.005l-.207-1.344a7.1,7.1,0,0,1-2.447-.913c-1.506-.791-3.013-1.583-6.034.208l-.141.084-.141-.084c-3.021-1.791-4.527-1-6.034-.208a7.09,7.09,0,0,1-2.447.913l-.207,1.344a5.42,5.42,0,0,0,2.763-1.005c1.588-.944,3.124-1.855,6.066.209,2.943-2.064,4.478-1.152,6.067-.209Z" transform="translate(-1584.948 -187.893)" fill="#fff"/>
            <path id="Path_467" data-name="Path 467" d="M1607.907,221.324a5.734,5.734,0,0,1-3.131-1.083c-1.458-.866-2.867-1.7-5.621.3l-.162.118-.163-.118c-2.754-2-4.163-1.163-5.621-.3a5.735,5.735,0,0,1-3.131,1.083l-.069.445a5.053,5.053,0,0,0,2.89-1.07c1.6-1.011,3.136-1.985,6.093.267,2.958-2.252,4.5-1.279,6.092-.267a5.055,5.055,0,0,0,2.891,1.07l-.068-.445Z" transform="translate(-1584.35 -194.363)" fill="#f4f4f7"/>
            <path id="Path_468" data-name="Path 468" d="M1629.973,199.707c.136-.163.278-.323.428-.481a7.741,7.741,0,0,1,.563-.538,4.214,4.214,0,0,1-.3-.552,5.638,5.638,0,0,1-.281-.762,1.077,1.077,0,0,1-.167-.124l-.018-.018-.222.3-.222-.3-.019.017a1.078,1.078,0,0,1-.166.124,5.577,5.577,0,0,1-.282.762,4.07,4.07,0,0,1-.3.552,7.756,7.756,0,0,1,.563.538q.225.237.428.481Z" transform="translate(-1615.331 -176.817)" fill="#ffc107"/>
            <path id="Path_469" data-name="Path 469" d="M1632.109,212.163c-.141.037-.286.071-.439.1l-.154.193-.154-.193c-.152-.032-.3-.066-.438-.1q.287.145.592.321c.2-.117.4-.224.593-.321Z" transform="translate(-1616.874 -188.685)" fill="#ffc107"/>
            <path id="Path_470" data-name="Path 470" d="M1658.09,149.7c-.165-.1-.327-.192-.488-.282a.724.724,0,0,0-.093-.018,1.512,1.512,0,0,0-.928.215,1.355,1.355,0,0,0-.648.807,1.265,1.265,0,0,0-.029.149h0v.005h0a3.328,3.328,0,0,0,.494,1.411,5.8,5.8,0,0,1,.8,2.581v.022h0a4.839,4.839,0,0,1-1.232,3.18,3.956,3.956,0,0,1-2.184,1.2,2.53,2.53,0,0,0,.714.44,1.648,1.648,0,0,0,1.2,0l.174-.064.125.137a1.787,1.787,0,0,0,.481.367,2.874,2.874,0,0,0,1.81.227,3.538,3.538,0,0,0,1.755-.822,5.831,5.831,0,0,1-1.858.1l.052-.551a3.908,3.908,0,0,0,3.773-1.451,3.415,3.415,0,0,0,.362-.678h0q.034-.085.064-.172a4.981,4.981,0,0,1-1.548.426,9.564,9.564,0,0,1-2.106,0l.055-.551a9.028,9.028,0,0,0,1.984,0,3.638,3.638,0,0,0,1.985-.77,2.239,2.239,0,0,0,.751-1.518c0-.04.007-.08.01-.121a4.435,4.435,0,0,1-2.44.953,10.054,10.054,0,0,1-1.461.063l.011-.553a9.524,9.524,0,0,0,1.383-.061,3.843,3.843,0,0,0,2.183-.854,2.287,2.287,0,0,0,.711-1.586,4.164,4.164,0,0,1-3.526,1.1l.048-.553a3.382,3.382,0,0,0,3.48-1.465,2.853,2.853,0,0,0,.365-1.094h0v0a3.538,3.538,0,0,0-.953-2.413l-.091-.131a3.34,3.34,0,0,1-.354,2.337,2.145,2.145,0,0,1-.374.442,2.176,2.176,0,0,1-.412.29h0c-1.428.779-2.776-.011-4.036-.751Z" transform="translate(-1635.04 -137.193)" fill="#ffc107"/>
            <path id="Path_471" data-name="Path 471" d="M1642.281,155.018a6.637,6.637,0,0,0,1.273,3.634,5.47,5.47,0,0,0,.387.456,3.978,3.978,0,0,0-.291-2.331,5.3,5.3,0,0,0-1.369-1.759Z" transform="translate(-1625.902 -143.26)" fill="#ffc107"/>
            <path id="Path_472" data-name="Path 472" d="M1632.533,193.433l-.059-.033a2.64,2.64,0,0,1-.261-.174c-.04.029-.082.058-.125.085l.212.1a.807.807,0,0,1,.142.083.82.82,0,0,1,.089-.057Z" transform="translate(-1617.8 -173.632)" fill="#ffc107"/>
            <path id="Path_473" data-name="Path 473" d="M1626.849,164.166a8.7,8.7,0,0,1-1.343-3.427,5.883,5.883,0,0,0,.27,2.708,3.754,3.754,0,0,1,.167,2.3l-.53-.127a5.582,5.582,0,0,0-.581-2.512l-.1-.252a3.5,3.5,0,0,1-.143.888h0v0a2.859,2.859,0,0,1-.574.863,1.346,1.346,0,0,0-.445.829,2.214,2.214,0,0,0,.577,1.48,1.889,1.889,0,0,0,.225.207,1.662,1.662,0,0,0,.184.124,2.673,2.673,0,0,0,.347-.158,1.8,1.8,0,0,0,.352-.248l.185-.17.187.168a2.14,2.14,0,0,0,.354.258,2.189,2.189,0,0,0,.279.137,3.348,3.348,0,0,0,.94-1.371,3.009,3.009,0,0,0,.1-.339,2.453,2.453,0,0,0,.051-.336v0a3.619,3.619,0,0,0-.5-1.016Z" transform="translate(-1611.025 -147.807)" fill="#fc544b"/>
            <path id="Path_474" data-name="Path 474" d="M1569.137,149.422c-.162.09-.324.186-.489.282-1.261.74-2.607,1.53-4.036.751h0a2.2,2.2,0,0,1-.412-.29,2.145,2.145,0,0,1-.374-.442,3.342,3.342,0,0,1-.355-2.337l-.09.131a3.536,3.536,0,0,0-.952,2.413v0h0a2.849,2.849,0,0,0,.364,1.094,3.383,3.383,0,0,0,3.481,1.465l.048.553a4.164,4.164,0,0,1-3.527-1.1,2.284,2.284,0,0,0,.712,1.586,3.841,3.841,0,0,0,2.183.854,9.516,9.516,0,0,0,1.383.061l.011.553a10.045,10.045,0,0,1-1.461-.063,4.436,4.436,0,0,1-2.44-.953c0,.041.006.081.01.121a2.24,2.24,0,0,0,.75,1.518,3.642,3.642,0,0,0,1.986.77,9.031,9.031,0,0,0,1.985,0l.054.551a9.564,9.564,0,0,1-2.106,0,4.986,4.986,0,0,1-1.548-.426c.021.058.041.116.063.172h0a3.44,3.44,0,0,0,.362.678,3.908,3.908,0,0,0,3.773,1.451l.052.551a5.823,5.823,0,0,1-1.857-.1,3.531,3.531,0,0,0,1.754.822,2.874,2.874,0,0,0,1.81-.227,1.779,1.779,0,0,0,.481-.367l.125-.137.174.064a1.648,1.648,0,0,0,1.2,0,2.521,2.521,0,0,0,.715-.44,3.955,3.955,0,0,1-2.184-1.2,4.839,4.839,0,0,1-1.233-3.18h0v-.022h0v-.015h0a5.829,5.829,0,0,1,.8-2.563,3.277,3.277,0,0,0,.494-1.416,1.2,1.2,0,0,0-.029-.149,1.356,1.356,0,0,0-.648-.807,1.513,1.513,0,0,0-.928-.215.721.721,0,0,0-.092.018Z" transform="translate(-1562.414 -137.193)" fill="#ffc107"/>
            <path id="Path_475" data-name="Path 475" d="M1617.411,158.652a6.634,6.634,0,0,0,1.273-3.634,5.3,5.3,0,0,0-1.368,1.759,3.974,3.974,0,0,0-.291,2.331,5.377,5.377,0,0,0,.387-.456Z" transform="translate(-1605.779 -143.26)" fill="#ffc107"/>
            <path id="Path_476" data-name="Path 476" d="M1627.323,130.909h0l1.241,1.344,1.24-1.344a.531.531,0,0,0,.087-.506.563.563,0,0,0-.041-.1h0a.605.605,0,0,0-.055-.089l0,0h0l-1.228-1.529-1.228,1.529a.607.607,0,0,0-.1.531.479.479,0,0,0,.037.092.377.377,0,0,0,.052.076l0,0Z" transform="translate(-1613.921 -122.321)" fill="#ffc107"/>
            <path id="Path_477" data-name="Path 477" d="M1606.6,144.929l-.973-1.054.011,1.688c0,.191,0,.374-.013.549a7.21,7.21,0,0,1-1.391,4.016,3.211,3.211,0,0,1-1.861,1.378h-.056a.5.5,0,0,1-.225-.089.93.93,0,0,1-.162-.144,1.883,1.883,0,0,1-.443-1.258v-.008h0a4.955,4.955,0,0,1,.217-1.052,2.341,2.341,0,0,0-.193-2.358,1.4,1.4,0,0,0-1.675-.409,2.241,2.241,0,0,1,.349.165,1.9,1.9,0,0,1,.9,1.143,1.773,1.773,0,0,1,.043.216,3.452,3.452,0,0,1-.546,1.733,5.439,5.439,0,0,0-.74,2.311v.035a4.289,4.289,0,0,0,1.085,2.817,3.485,3.485,0,0,0,2.7,1.1h.018l.139,0,.086.109a3.926,3.926,0,0,0,1.162,1.018,4.936,4.936,0,0,0,.994.421l-.056-.059a6.913,6.913,0,0,0-.708-.653l-.213-.17.166-.215a3.473,3.473,0,0,0,.394-.664,5.109,5.109,0,0,0,.282-.795l.036-.131.126-.053a.452.452,0,0,0,.135-.087.815.815,0,0,0,.126-.15l.129-.193c-.047.029-.1.058-.145.085a3.32,3.32,0,0,1-.549.236l-.208-.013-.048-.024a2.183,2.183,0,0,1-.333-.214,2.471,2.471,0,0,1-.292-.269,2.776,2.776,0,0,1-.723-1.858,1.756,1.756,0,0,1,.58-1.189,2.446,2.446,0,0,0,.474-.7h0v0a3.3,3.3,0,0,0,.109-.749,3.324,3.324,0,0,1,.221-1.144l.481.05a2.914,2.914,0,0,1,.829-2.408l.459.278-.005.015h0c-.452,1.5.517,3.184,1.165,4.305a3.1,3.1,0,0,1,.572,1.335v0a2.922,2.922,0,0,1-.065.415,3.311,3.311,0,0,1-.119.4,3.883,3.883,0,0,1-1.24,1.719l-.116.089-.083-.028,0,0a.465.465,0,0,0,.135.087l.127.053.036.131a5.072,5.072,0,0,0,.282.795,3.449,3.449,0,0,0,.395.664l.165.215-.213.17a6.96,6.96,0,0,0-.708.653l-.055.059a4.959,4.959,0,0,0,.994-.421,3.925,3.925,0,0,0,1.162-1.018l.086-.109.139,0h.018a3.483,3.483,0,0,0,2.7-1.1,4.284,4.284,0,0,0,1.085-2.817v-.021a5.418,5.418,0,0,0-.74-2.325,3.521,3.521,0,0,1-.548-1.721v-.011h0a2.04,2.04,0,0,1,.043-.216,1.907,1.907,0,0,1,.9-1.143,2.227,2.227,0,0,1,.349-.165,1.4,1.4,0,0,0-1.675.409,2.342,2.342,0,0,0-.193,2.358,4.977,4.977,0,0,1,.217,1.052h0v.008a1.888,1.888,0,0,1-.443,1.258.939.939,0,0,1-.161.144.5.5,0,0,1-.225.089h-.057a3.212,3.212,0,0,1-1.861-1.378,7.21,7.21,0,0,1-1.39-4.016q-.014-.261-.013-.549l.011-1.688-.973,1.054-.2.221-.2-.221Z" transform="translate(-1592.164 -134.402)" fill="#f9ac50"/>
            <path id="Path_478" data-name="Path 478" d="M1605.416,102.534h0l1.412,7.734a6.827,6.827,0,0,1,1.495-1.56l-.013-2.172a.761.761,0,0,1-.051-.082,1.039,1.039,0,0,1-.082-.2,1.177,1.177,0,0,1,.207-1.03l1.444-1.8.216-.269.216.269,1.444,1.8v0l0,0a1.111,1.111,0,0,1,.116.18h0a1.148,1.148,0,0,1,.078.2,1.11,1.11,0,0,1-.125.93l-.013,2.172a6.827,6.827,0,0,1,1.5,1.56l1.412-7.734h0a4.718,4.718,0,0,1,.568-1.642,1.6,1.6,0,0,1,.543-.547,1.088,1.088,0,0,1,.394-.134,3.067,3.067,0,0,0-.637-.5.944.944,0,0,0-.617-.147.771.771,0,0,0-.479.358,3.553,3.553,0,0,0-.474,1.344l-.781,4.2-.546-.093.932-5.86c.054-.334-.255-.5-.623-.686a4.472,4.472,0,0,1-.651-.387l-.651,5.786-.552-.032.051-5.309c0-.281-.174-.394-.384-.528a.723.723,0,0,0-1.443,0c-.209.134-.386.247-.383.528l.051,5.309-.552.032-.651-5.786a4.44,4.44,0,0,1-.651.387c-.368.191-.677.351-.624.686l.933,5.86-.546.093-.782-4.2a3.549,3.549,0,0,0-.474-1.344.77.77,0,0,0-.479-.358.946.946,0,0,0-.618.147,3.05,3.05,0,0,0-.635.5,1.082,1.082,0,0,1,.392.134,1.6,1.6,0,0,1,.544.547,4.705,4.705,0,0,1,.568,1.642Z" transform="translate(-1595.401 -97.682)" fill="#ffc107"/>
          </g>
        </g>
      </g>
      <g id="Mask_Group_1259" data-name="Mask Group 1259" transform="translate(148.822 924.976)" clip-path="url(#clip-path)">
        <ellipse id="Ellipse_135" data-name="Ellipse 135" cx="41.17" cy="40.058" rx="41.17" ry="40.058" transform="translate(-29.841 -39.131)" fill="#f4f4f7" opacity="0.15"/>
      </g>
    </g>
  </g>
</svg>
