<svg xmlns="http://www.w3.org/2000/svg" xmlns:xlink="http://www.w3.org/1999/xlink" width="175" height="240" viewBox="0 0 175 240">
  <defs>
    <clipPath id="clip-path">
      <path id="Path_589" data-name="Path 589" d="M1481.414,306.169c-3.087,6.173-30.379-15.131-51.273-15.131s-48.186,21.3-51.273,15.131a11.577,11.577,0,0,1-.621-5.994c.749-7.822,5.273-18.574,5.273-18.574s25.677-14.771,46.622-14.771,46.623,14.771,46.623,14.771,4.521,10.751,5.271,18.574A11.582,11.582,0,0,1,1481.414,306.169Z" transform="translate(-1378.141 -266.83)" fill="#3c7ceb"/>
    </clipPath>
  </defs>
  <g id="cover-smp" transform="translate(36 76)">
    <rect id="Rectangle_305" data-name="Rectangle 305" width="175" height="240" rx="10" transform="translate(-36 -76)" fill="#d9eeff" opacity="0.65"/>
    <g id="Group_1485" data-name="Group 1485" transform="translate(-470.669 -765.61)">
      <g id="Group_1326" data-name="Group 1326" transform="translate(470.669 765.61)">
        <g id="Group_1312" data-name="Group 1312" transform="translate(0)">
          <path id="Path_462" data-name="Path 462" d="M1519.295,94.085s1.912-22.915-.6-30.81c-5.159-16.244-16.84-22.923-16.984-23.043h.006a62.945,62.945,0,0,0-41.179,0h.007c-.146.123-12.183,7.1-17.327,24.151-2.333,7.73-.253,29.7-.253,29.7,9.5-4.676,24.781-10.97,38.163-10.973S1509.791,89.409,1519.295,94.085Z" transform="translate(-1429.12 -36.77)" fill="#ededf4"/>
          <path id="Path_463" data-name="Path 463" d="M1409,102.488q0,1.968.065,4.022l-.012.018-3.9,3.782-4.6.553s-.289-1.444-.565-3.89h0c-1.278-11.306-2.305-44.013,26.6-54.4C1426.364,52.735,1409.007,66.326,1409,102.488Z" transform="translate(-1395.147 -49.361)" fill="#3772d8"/>
          <path id="Path_464" data-name="Path 464" d="M1762.123,106.973c-.276,2.446-.564,3.89-.564,3.89l-4.6-.553-3.9-3.782-.012-.018c.047-1.371.067-2.71.067-4.022-.012-36.162-17.367-49.754-17.581-49.918C1764.429,62.96,1763.4,95.667,1762.123,106.973Z" transform="translate(-1662.935 -49.361)" fill="#3772d8"/>
          <g id="Group_1311" data-name="Group 1311" transform="translate(37.43 12.373)">
            <path id="Path_466" data-name="Path 466" d="M1605.515,213.274a5.363,5.363,0,0,0,2.736,1l-.205-1.331a7.026,7.026,0,0,1-2.424-.9c-1.492-.784-2.984-1.568-5.976.206l-.14.083-.14-.083c-2.992-1.774-4.484-.99-5.976-.206a7.025,7.025,0,0,1-2.424.9l-.205,1.331a5.368,5.368,0,0,0,2.737-1c1.573-.935,3.094-1.838,6.008.207,2.915-2.044,4.435-1.141,6.009-.207Z" transform="translate(-1585.002 -188.115)" fill="#fff"/>
            <path id="Path_467" data-name="Path 467" d="M1607.736,221.3a5.679,5.679,0,0,1-3.1-1.072c-1.444-.858-2.84-1.687-5.568.294l-.161.117-.161-.117c-2.728-1.981-4.123-1.152-5.568-.294a5.679,5.679,0,0,1-3.1,1.072l-.068.44a5.005,5.005,0,0,0,2.863-1.06c1.582-1,3.106-1.966,6.035.265,2.929-2.231,4.452-1.266,6.034-.265a5.007,5.007,0,0,0,2.863,1.06l-.068-.44Z" transform="translate(-1584.403 -194.6)" fill="#f4f4f7"/>
            <path id="Path_468" data-name="Path 468" d="M1629.964,199.684c.135-.161.275-.32.424-.477a7.711,7.711,0,0,1,.558-.533,4.164,4.164,0,0,1-.3-.547,5.524,5.524,0,0,1-.278-.755,1.041,1.041,0,0,1-.165-.123l-.018-.017-.219.294-.219-.294-.019.017a1.071,1.071,0,0,1-.165.123,5.526,5.526,0,0,1-.279.755,4.132,4.132,0,0,1-.3.547c.2.171.383.35.558.533.148.156.289.315.424.477Z" transform="translate(-1615.46 -177.012)" fill="#ffc107"/>
            <path id="Path_469" data-name="Path 469" d="M1632.1,212.163c-.139.036-.283.07-.435.1l-.152.192-.153-.192c-.151-.032-.3-.066-.434-.1q.284.143.587.318.3-.174.587-.318Z" transform="translate(-1617.008 -188.909)" fill="#ffc107"/>
            <path id="Path_470" data-name="Path 470" d="M1658.048,149.682c-.163-.1-.324-.19-.483-.28a.723.723,0,0,0-.092-.018,1.5,1.5,0,0,0-.919.213,1.342,1.342,0,0,0-.642.8,1.218,1.218,0,0,0-.029.147h0v.005h0a3.291,3.291,0,0,0,.49,1.4,5.748,5.748,0,0,1,.789,2.556v.022h0a4.794,4.794,0,0,1-1.221,3.15,3.918,3.918,0,0,1-2.163,1.192,2.5,2.5,0,0,0,.708.436,1.631,1.631,0,0,0,1.185,0l.173-.063.124.135a1.778,1.778,0,0,0,.477.364,2.848,2.848,0,0,0,1.793.224,3.5,3.5,0,0,0,1.738-.814,5.776,5.776,0,0,1-1.841.1l.052-.546a3.87,3.87,0,0,0,3.737-1.437,3.386,3.386,0,0,0,.359-.672h0c.022-.056.043-.113.063-.171a4.931,4.931,0,0,1-1.533.422,9.471,9.471,0,0,1-2.086,0l.054-.546a8.937,8.937,0,0,0,1.965,0,3.6,3.6,0,0,0,1.967-.762,2.22,2.22,0,0,0,.744-1.5c0-.039.007-.079.009-.119a4.393,4.393,0,0,1-2.417.944,9.953,9.953,0,0,1-1.447.063l.01-.548a9.429,9.429,0,0,0,1.37-.06,3.808,3.808,0,0,0,2.163-.846,2.267,2.267,0,0,0,.7-1.571,4.125,4.125,0,0,1-3.493,1.09l.047-.548a3.351,3.351,0,0,0,3.448-1.451,2.841,2.841,0,0,0,.24-.536,2.872,2.872,0,0,0,.121-.547h0v0a3.507,3.507,0,0,0-.944-2.39l-.09-.13a3.308,3.308,0,0,1-.351,2.315,2.111,2.111,0,0,1-.37.437,2.161,2.161,0,0,1-.408.288h0c-1.415.772-2.749-.011-4-.744Z" transform="translate(-1635.218 -137.29)" fill="#ffc107"/>
            <path id="Path_471" data-name="Path 471" d="M1642.281,155.018a6.577,6.577,0,0,0,1.261,3.6,5.525,5.525,0,0,0,.383.451,3.935,3.935,0,0,0-.288-2.308,5.238,5.238,0,0,0-1.356-1.742Z" transform="translate(-1626.057 -143.372)" fill="#ffc107"/>
            <path id="Path_472" data-name="Path 472" d="M1632.528,193.431l-.058-.033a2.711,2.711,0,0,1-.259-.172c-.04.029-.08.057-.123.084l.21.1a.8.8,0,0,1,.141.082.821.821,0,0,1,.089-.056Z" transform="translate(-1617.936 -173.819)" fill="#ffc107"/>
            <path id="Path_473" data-name="Path 473" d="M1626.817,164.133a8.616,8.616,0,0,1-1.33-3.394,5.838,5.838,0,0,0,.268,2.682,3.721,3.721,0,0,1,.165,2.275l-.525-.126a5.535,5.535,0,0,0-.575-2.488l-.1-.25a3.473,3.473,0,0,1-.142.88h0v0a2.828,2.828,0,0,1-.569.855,1.334,1.334,0,0,0-.44.821,2.191,2.191,0,0,0,.572,1.466,1.824,1.824,0,0,0,.222.2,1.615,1.615,0,0,0,.182.123,2.649,2.649,0,0,0,.344-.156,1.792,1.792,0,0,0,.348-.246l.183-.168.185.166a2.116,2.116,0,0,0,.35.255,2.191,2.191,0,0,0,.277.136,3.315,3.315,0,0,0,.931-1.358,2.952,2.952,0,0,0,.1-.336,2.423,2.423,0,0,0,.051-.333v0a3.587,3.587,0,0,0-.494-1.007Z" transform="translate(-1611.144 -147.93)" fill="#fc544b"/>
            <path id="Path_474" data-name="Path 474" d="M1569.073,149.4c-.16.089-.321.184-.484.28-1.249.733-2.583,1.516-4,.744h0a2.169,2.169,0,0,1-.408-.288,2.112,2.112,0,0,1-.371-.437,3.31,3.31,0,0,1-.351-2.315l-.09.13a3.5,3.5,0,0,0-.943,2.39v0h0a2.832,2.832,0,0,0,.361,1.083,3.351,3.351,0,0,0,3.448,1.451l.047.548a4.125,4.125,0,0,1-3.493-1.09,2.263,2.263,0,0,0,.7,1.571,3.805,3.805,0,0,0,2.162.846,9.431,9.431,0,0,0,1.37.06l.01.548a9.945,9.945,0,0,1-1.447-.063,4.394,4.394,0,0,1-2.417-.944c0,.04.005.08.009.119a2.219,2.219,0,0,0,.743,1.5,3.6,3.6,0,0,0,1.967.762,8.937,8.937,0,0,0,1.965,0l.054.546a9.469,9.469,0,0,1-2.086,0,4.933,4.933,0,0,1-1.533-.422c.02.058.041.115.063.171h0a3.4,3.4,0,0,0,.359.672,3.87,3.87,0,0,0,3.737,1.437l.051.546a5.771,5.771,0,0,1-1.84-.1,3.5,3.5,0,0,0,1.737.814,2.847,2.847,0,0,0,1.793-.224,1.768,1.768,0,0,0,.477-.364l.124-.135.172.063a1.631,1.631,0,0,0,1.185,0,2.49,2.49,0,0,0,.708-.436,3.917,3.917,0,0,1-2.163-1.192,4.792,4.792,0,0,1-1.221-3.15h0V154.5h0v-.015h0a5.773,5.773,0,0,1,.789-2.539,3.247,3.247,0,0,0,.489-1.4,1.218,1.218,0,0,0-.029-.147,1.343,1.343,0,0,0-.642-.8,1.5,1.5,0,0,0-.919-.213.714.714,0,0,0-.092.018Z" transform="translate(-1562.413 -137.29)" fill="#ffc107"/>
            <path id="Path_475" data-name="Path 475" d="M1617.407,158.617a6.573,6.573,0,0,0,1.261-3.6,5.242,5.242,0,0,0-1.355,1.742,3.935,3.935,0,0,0-.288,2.308,5.429,5.429,0,0,0,.383-.451Z" transform="translate(-1605.885 -143.372)" fill="#ffc107"/>
            <path id="Path_476" data-name="Path 476" d="M1627.322,130.888h0l1.229,1.331,1.229-1.331a.526.526,0,0,0,.086-.5.582.582,0,0,0-.04-.1h0a.559.559,0,0,0-.055-.088l0,0h0l-1.217-1.515-1.216,1.515a.6.6,0,0,0-.1.526.449.449,0,0,0,.037.091.357.357,0,0,0,.052.075l0,0Z" transform="translate(-1614.047 -122.382)" fill="#ffc107"/>
            <path id="Path_477" data-name="Path 477" d="M1606.538,144.919l-.964-1.044.01,1.672c0,.19,0,.371-.012.544a7.143,7.143,0,0,1-1.377,3.978,3.18,3.18,0,0,1-1.844,1.365h-.055a.5.5,0,0,1-.222-.088.913.913,0,0,1-.16-.142,1.866,1.866,0,0,1-.439-1.246v-.008h0a4.919,4.919,0,0,1,.215-1.042,2.318,2.318,0,0,0-.191-2.336,1.391,1.391,0,0,0-1.659-.4,2.224,2.224,0,0,1,.345.163,1.886,1.886,0,0,1,.9,1.132,1.7,1.7,0,0,1,.042.214,3.423,3.423,0,0,1-.541,1.716,5.389,5.389,0,0,0-.733,2.289v.035a4.247,4.247,0,0,0,1.075,2.791,3.452,3.452,0,0,0,2.675,1.091h.018l.138,0,.085.108a3.89,3.89,0,0,0,1.151,1.008,4.883,4.883,0,0,0,.984.417l-.056-.058a6.841,6.841,0,0,0-.7-.647l-.211-.168.164-.213a3.422,3.422,0,0,0,.391-.657,5.08,5.08,0,0,0,.279-.787l.035-.13.126-.052a.449.449,0,0,0,.134-.087.794.794,0,0,0,.125-.148l.128-.191c-.046.029-.094.058-.144.084a3.263,3.263,0,0,1-.544.234l-.206-.013-.047-.024a2.138,2.138,0,0,1-.33-.211,2.426,2.426,0,0,1-.289-.267,2.75,2.75,0,0,1-.716-1.84,1.741,1.741,0,0,1,.574-1.177,2.413,2.413,0,0,0,.469-.691h0v0a3.289,3.289,0,0,0,.108-.742,3.287,3.287,0,0,1,.219-1.133l.477.049a2.886,2.886,0,0,1,.821-2.385l.454.275,0,.015h0c-.448,1.488.512,3.153,1.154,4.264a3.064,3.064,0,0,1,.567,1.323v0a2.829,2.829,0,0,1-.063.411,3.266,3.266,0,0,1-.118.4,3.848,3.848,0,0,1-1.229,1.7l-.115.088-.083-.028,0,0a.457.457,0,0,0,.134.087l.126.052.035.13a5.03,5.03,0,0,0,.28.787,3.409,3.409,0,0,0,.391.657l.163.213-.211.168a6.867,6.867,0,0,0-.7.647l-.055.058a4.907,4.907,0,0,0,.984-.417,3.89,3.89,0,0,0,1.151-1.008l.085-.108.137,0h.019a3.451,3.451,0,0,0,2.674-1.091,4.244,4.244,0,0,0,1.074-2.791v-.021a5.361,5.361,0,0,0-.733-2.3,3.484,3.484,0,0,1-.543-1.7v-.011h0a2,2,0,0,1,.042-.214,1.888,1.888,0,0,1,.9-1.132,2.2,2.2,0,0,1,.345-.163,1.391,1.391,0,0,0-1.659.4,2.319,2.319,0,0,0-.191,2.336,4.932,4.932,0,0,1,.215,1.042h0v.008a1.87,1.87,0,0,1-.439,1.246.94.94,0,0,1-.16.142.5.5,0,0,1-.222.088h-.056a3.182,3.182,0,0,1-1.844-1.365,7.139,7.139,0,0,1-1.377-3.978q-.014-.259-.012-.544l.01-1.672-.964,1.044-.2.219-.2-.219Z" transform="translate(-1592.237 -134.492)" fill="#f9ac50"/>
            <path id="Path_478" data-name="Path 478" d="M1605.4,102.488h0l1.4,7.66a6.762,6.762,0,0,1,1.481-1.545l-.013-2.152a.771.771,0,0,1-.05-.082,1.019,1.019,0,0,1-.082-.2,1.165,1.165,0,0,1,.2-1.02l1.43-1.781.214-.266.214.266,1.43,1.781v0l0,0a1.089,1.089,0,0,1,.115.179h0a1.157,1.157,0,0,1,.077.195,1.1,1.1,0,0,1-.124.921l-.013,2.151a6.757,6.757,0,0,1,1.481,1.545l1.4-7.66h0a4.671,4.671,0,0,1,.563-1.627,1.581,1.581,0,0,1,.539-.542,1.076,1.076,0,0,1,.389-.132,3.03,3.03,0,0,0-.63-.493.937.937,0,0,0-.612-.146.764.764,0,0,0-.475.355,3.524,3.524,0,0,0-.469,1.331l-.774,4.164-.541-.092.924-5.8c.053-.331-.253-.49-.617-.679a4.449,4.449,0,0,1-.645-.384l-.645,5.731-.547-.032.051-5.259c0-.278-.173-.39-.38-.523a.716.716,0,0,0-1.429,0c-.208.133-.383.245-.38.523l.051,5.259-.547.032-.645-5.731a4.41,4.41,0,0,1-.645.384c-.364.189-.67.348-.618.679l.924,5.8-.541.092-.774-4.164a3.518,3.518,0,0,0-.469-1.331.763.763,0,0,0-.475-.355.936.936,0,0,0-.612.146,3.009,3.009,0,0,0-.629.493,1.073,1.073,0,0,1,.388.132,1.581,1.581,0,0,1,.539.542,4.666,4.666,0,0,1,.563,1.627Z" transform="translate(-1595.482 -97.682)" fill="#ffc107"/>
          </g>
          <path id="Path_479" data-name="Path 479" d="M1481.414,306.169c-3.087,6.173-30.379-15.131-51.273-15.131s-48.186,21.3-51.273,15.131a11.577,11.577,0,0,1-.621-5.994c.749-7.822,5.273-18.574,5.273-18.574s25.677-14.771,46.622-14.771,46.623,14.771,46.623,14.771,4.521,10.751,5.271,18.574A11.582,11.582,0,0,1,1481.414,306.169Z" transform="translate(-1378.141 -220.099)" fill="#3c7ceb"/>
        </g>
      </g>
      <g id="Mask_Group_1263" data-name="Mask Group 1263" transform="translate(470.669 812.342)" clip-path="url(#clip-path)">
        <circle id="Ellipse_144" data-name="Ellipse 144" cx="40.119" cy="40.119" r="40.119" transform="translate(-28.237 -39.177)" fill="#6bb1fe" opacity="0.4"/>
      </g>
    </g>
  </g>
</svg>
