<svg xmlns="http://www.w3.org/2000/svg" width="21.999" height="15.399" viewBox="0 0 21.999 15.399">
  <path id="disposisi-surel" d="M6.6,39.7a3.85,3.85,0,1,0-3.85-3.85A3.848,3.848,0,0,0,6.6,39.7Zm2.64,1.1H8.954a5.315,5.315,0,0,1-4.709,0H3.96A3.961,3.961,0,0,0,0,44.759v.99A1.65,1.65,0,0,0,1.65,47.4h9.9a1.65,1.65,0,0,0,1.65-1.65v-.99A3.961,3.961,0,0,0,9.239,40.8Zm7.26-1.1a3.3,3.3,0,1,0-3.3-3.3A3.3,3.3,0,0,0,16.5,39.7Zm1.65,1.1h-.131a4.335,4.335,0,0,1-3.039,0h-.131a3.818,3.818,0,0,0-1.915.529,5.03,5.03,0,0,1,1.365,3.43v1.32c0,.076-.017.148-.021.22h6.07A1.65,1.65,0,0,0,22,44.649,3.848,3.848,0,0,0,18.149,40.8Z" transform="translate(0 -32)" fill="#2680eb"/>
</svg>
