<svg xmlns="http://www.w3.org/2000/svg" width="160" height="160" viewBox="0 0 160 160">
  <g id="icon-sekolah-kolaborasi" transform="translate(4143 20559)">
    <circle id="Ellipse_1" data-name="Ellipse 1" cx="80" cy="80" r="80" transform="translate(-4143 -20559)" fill="#ededf4"/>
    <g id="Group_1" data-name="Group 1" transform="translate(-4112.644 -20535.504)">
      <g id="Group_192" data-name="Group 192" transform="translate(0)">
        <path id="Path_98" data-name="Path 98" d="M103.941,91.58V45.6A4.345,4.345,0,0,0,99.6,41.255H78.963V28.745A3.26,3.26,0,0,0,77.291,25.9L60.537,16.556c-.092-.052-.188-.1-.284-.139V11.085h9.022a1.3,1.3,0,0,0,1.3-1.3V3.2a1.3,1.3,0,0,0-1.3-1.3H60.254V1.3a1.3,1.3,0,1,0-2.607,0V16.417c-.1.042-.191.087-.284.139L40.61,25.9a3.258,3.258,0,0,0-1.672,2.846v12.51H18.3A4.345,4.345,0,0,0,13.959,45.6V91.579a5.322,5.322,0,0,0,2.192,10.172h85.6a5.322,5.322,0,0,0,2.192-10.172ZM87.145,56.4a2.531,2.531,0,0,1,2.532-2.531H94.41A2.531,2.531,0,0,1,96.941,56.4v4.733a2.531,2.531,0,0,1-2.531,2.531H89.678a2.531,2.531,0,0,1-2.532-2.531V56.4Zm0,15.208a2.531,2.531,0,0,1,2.532-2.531H94.41a2.531,2.531,0,0,1,2.531,2.531v4.733a2.531,2.531,0,0,1-2.531,2.531H89.678a2.531,2.531,0,0,1-2.532-2.531V71.608ZM71.938,56.4a2.531,2.531,0,0,1,2.531-2.531H79.2A2.531,2.531,0,0,1,81.733,56.4v4.733A2.531,2.531,0,0,1,79.2,63.665H74.469a2.531,2.531,0,0,1-2.531-2.531Zm0,15.208a2.531,2.531,0,0,1,2.531-2.531H79.2a2.531,2.531,0,0,1,2.531,2.531v4.733A2.531,2.531,0,0,1,79.2,78.872H74.469a2.531,2.531,0,0,1-2.531-2.531ZM58.95,28.755a7.169,7.169,0,1,1-7.169,7.169A7.17,7.17,0,0,1,58.95,28.755ZM51.77,69.913A2.531,2.531,0,0,1,54.3,67.382h9.3a2.531,2.531,0,0,1,2.531,2.531V89.854a2.514,2.514,0,0,1-.334,1.254H52.106a2.514,2.514,0,0,1-.335-1.254V69.913ZM36.166,56.4A2.531,2.531,0,0,1,38.7,53.869H43.43A2.531,2.531,0,0,1,45.96,56.4v4.733a2.531,2.531,0,0,1-2.531,2.531H38.7a2.531,2.531,0,0,1-2.531-2.531Zm0,15.208A2.531,2.531,0,0,1,38.7,69.077H43.43a2.531,2.531,0,0,1,2.531,2.531v4.733a2.531,2.531,0,0,1-2.531,2.531H38.7a2.531,2.531,0,0,1-2.531-2.531ZM20.957,56.4a2.531,2.531,0,0,1,2.532-2.531h4.732A2.531,2.531,0,0,1,30.753,56.4v4.733a2.531,2.531,0,0,1-2.532,2.531H23.489a2.531,2.531,0,0,1-2.532-2.531V56.4Zm0,15.208a2.531,2.531,0,0,1,2.532-2.531h4.732a2.531,2.531,0,0,1,2.532,2.531v4.733a2.531,2.531,0,0,1-2.532,2.531H23.489a2.531,2.531,0,0,1-2.532-2.531V71.608Z" transform="translate(-10.828)" fill="#b6b8c7"/>
      </g>
    </g>
  </g>
</svg>
