<svg xmlns="http://www.w3.org/2000/svg" width="80" height="80" viewBox="0 0 80 80">
  <g id="empty-state-detail-perusahaan" transform="translate(-164 -139.523)">
    <rect id="Rectangle_2724" data-name="Rectangle 2724" width="80" height="80" rx="10" transform="translate(164 139.523)" fill="#ededf4"/>
    <circle id="Ellipse_307" data-name="Ellipse 307" cx="39.828" cy="39.828" r="39.828" transform="translate(164 139.867)" fill="#ededf4"/>
    <path id="Path_255" data-name="Path 255" d="M43.589,13.586H33.965V1.7a1.7,1.7,0,0,0-1.7-1.7H22.078a1.7,1.7,0,0,0-1.7,1.7V6.793H15.851V1.132A1.132,1.132,0,0,0,14.718,0H13.586a1.132,1.132,0,0,0-1.132,1.132V6.793H7.925V1.132A1.132,1.132,0,0,0,6.793,0H5.661A1.132,1.132,0,0,0,4.529,1.132V6.793H1.7A1.7,1.7,0,0,0,0,8.492V33.966A2.265,2.265,0,0,0,2.264,36.23H43.023a2.265,2.265,0,0,0,2.264-2.264V15.285A1.7,1.7,0,0,0,43.589,13.586Zm-34.532,15a.849.849,0,0,1-.849.849H5.378a.849.849,0,0,1-.849-.849V25.758a.849.849,0,0,1,.849-.849h2.83a.849.849,0,0,1,.849.849Zm0-6.793a.849.849,0,0,1-.849.849H5.378a.849.849,0,0,1-.849-.849V18.964a.849.849,0,0,1,.849-.849h2.83a.849.849,0,0,1,.849.849Zm0-6.793a.849.849,0,0,1-.849.849H5.378A.849.849,0,0,1,4.529,15V12.171a.849.849,0,0,1,.849-.849h2.83a.849.849,0,0,1,.849.849Zm9.057,13.586a.849.849,0,0,1-.849.849h-2.83a.849.849,0,0,1-.849-.849V25.758a.849.849,0,0,1,.849-.849h2.83a.849.849,0,0,1,.849.849Zm0-6.793a.849.849,0,0,1-.849.849h-2.83a.849.849,0,0,1-.849-.849V18.964a.849.849,0,0,1,.849-.849h2.83a.849.849,0,0,1,.849.849Zm0-6.793a.849.849,0,0,1-.849.849h-2.83A.849.849,0,0,1,13.586,15V12.171a.849.849,0,0,1,.849-.849h2.83a.849.849,0,0,1,.849.849Zm11.322,6.793a.849.849,0,0,1-.849.849h-2.83a.849.849,0,0,1-.849-.849V18.964a.849.849,0,0,1,.849-.849h2.83a.849.849,0,0,1,.849.849Zm0-6.793a.849.849,0,0,1-.849.849h-2.83A.849.849,0,0,1,24.908,15V12.171a.849.849,0,0,1,.849-.849h2.83a.849.849,0,0,1,.849.849Zm0-6.793a.849.849,0,0,1-.849.849h-2.83a.849.849,0,0,1-.849-.849V5.378a.849.849,0,0,1,.849-.849h2.83a.849.849,0,0,1,.849.849Zm11.322,20.38a.849.849,0,0,1-.849.849h-2.83a.849.849,0,0,1-.849-.849V25.758a.849.849,0,0,1,.849-.849h2.83a.849.849,0,0,1,.849.849Zm0-6.793a.849.849,0,0,1-.849.849h-2.83a.849.849,0,0,1-.849-.849V18.964a.849.849,0,0,1,.849-.849h2.83a.849.849,0,0,1,.849.849Z" transform="translate(181.317 161.801)" fill="#80849c"/>
  </g>
</svg>
