<svg xmlns="http://www.w3.org/2000/svg" width="30" height="30" viewBox="0 0 30 30">
  <g id="exclamation-notification-bar" transform="translate(-516 -94)">
    <circle id="Ellipse_547" data-name="Ellipse 547" cx="15" cy="15" r="15" transform="translate(516 94)" fill="#fff" opacity="0.3"/>
    <path id="Path_37246" data-name="Path 37246" d="M20.3,11.61a2.15,2.15,0,1,1-2.15-2.15A2.152,2.152,0,0,1,20.3,11.61ZM16.249.677l.366,7.31a.645.645,0,0,0,.644.613h1.783a.645.645,0,0,0,.644-.613l.366-7.31A.645.645,0,0,0,19.407,0H16.893A.645.645,0,0,0,16.249.677Z" transform="translate(513.194 102.619)" fill="#fff"/>
  </g>
</svg>
