<svg width="40" height="40" viewBox="0 0 40 40" fill="none" xmlns="http://www.w3.org/2000/svg">
<rect width="40" height="40" rx="8" fill="#D4E6FB" fill-opacity="0.5"/>
<g clip-path="url(#clip0_5986_4916)">
<g clip-path="url(#clip1_5986_4916)">
<path d="M23.7734 15.5C23.0938 11.3141 21.4906 8.375 19.625 8.375C17.7594 8.375 16.1562 11.3141 15.4766 15.5H23.7734ZM15.125 20C15.125 21.0406 15.1813 22.0391 15.2797 23H23.9656C24.0641 22.0391 24.1203 21.0406 24.1203 20C24.1203 18.9594 24.0641 17.9609 23.9656 17H15.2797C15.1813 17.9609 15.125 18.9594 15.125 20ZM30.3453 15.5C29.0047 12.3172 26.2906 9.85625 22.9391 8.8625C24.0828 10.4469 24.8703 12.8328 25.2828 15.5H30.3453ZM16.3062 8.8625C12.9594 9.85625 10.2406 12.3172 8.90469 15.5H13.9672C14.375 12.8328 15.1625 10.4469 16.3062 8.8625ZM30.8469 17H25.4703C25.5688 17.9844 25.625 18.9922 25.625 20C25.625 21.0078 25.5688 22.0156 25.4703 23H30.8422C31.1 22.0391 31.2453 21.0406 31.2453 20C31.2453 18.9594 31.1 17.9609 30.8469 17ZM13.625 20C13.625 18.9922 13.6813 17.9844 13.7797 17H8.40313C8.15 17.9609 8 18.9594 8 20C8 21.0406 8.15 22.0391 8.40313 23H13.775C13.6812 22.0156 13.625 21.0078 13.625 20ZM15.4766 24.5C16.1562 28.6859 17.7594 31.625 19.625 31.625C21.4906 31.625 23.0938 28.6859 23.7734 24.5H15.4766ZM22.9437 31.1375C26.2906 30.1438 29.0094 27.6828 30.35 24.5H25.2875C24.875 27.1672 24.0875 29.5531 22.9437 31.1375ZM8.90469 24.5C10.2453 27.6828 12.9594 30.1438 16.3109 31.1375C15.1672 29.5531 14.3797 27.1672 13.9672 24.5H8.90469Z" fill="#2680EB"/>
</g>
</g>
<g opacity="0.3">
<mask id="mask0_5986_4916" style="mask-type:alpha" maskUnits="userSpaceOnUse" x="8" y="8" width="24" height="24">
<path d="M23.7734 15.5C23.0938 11.3141 21.4906 8.375 19.625 8.375C17.7594 8.375 16.1562 11.3141 15.4766 15.5H23.7734ZM15.125 20C15.125 21.0406 15.1813 22.0391 15.2797 23H23.9656C24.0641 22.0391 24.1203 21.0406 24.1203 20C24.1203 18.9594 24.0641 17.9609 23.9656 17H15.2797C15.1813 17.9609 15.125 18.9594 15.125 20ZM30.3453 15.5C29.0047 12.3172 26.2906 9.85625 22.9391 8.8625C24.0828 10.4469 24.8703 12.8328 25.2828 15.5H30.3453ZM16.3062 8.8625C12.9594 9.85625 10.2406 12.3172 8.90469 15.5H13.9672C14.375 12.8328 15.1625 10.4469 16.3062 8.8625ZM30.8469 17H25.4703C25.5688 17.9844 25.625 18.9922 25.625 20C25.625 21.0078 25.5688 22.0156 25.4703 23H30.8422C31.1 22.0391 31.2453 21.0406 31.2453 20C31.2453 18.9594 31.1 17.9609 30.8469 17ZM13.625 20C13.625 18.9922 13.6813 17.9844 13.7797 17H8.40313C8.15 17.9609 8 18.9594 8 20C8 21.0406 8.15 22.0391 8.40313 23H13.775C13.6812 22.0156 13.625 21.0078 13.625 20ZM15.4766 24.5C16.1562 28.6859 17.7594 31.625 19.625 31.625C21.4906 31.625 23.0938 28.6859 23.7734 24.5H15.4766ZM22.9437 31.1375C26.2906 30.1438 29.0094 27.6828 30.35 24.5H25.2875C24.875 27.1672 24.0875 29.5531 22.9437 31.1375ZM8.90469 24.5C10.2453 27.6828 12.9594 30.1438 16.3109 31.1375C15.1672 29.5531 14.3797 27.1672 13.9672 24.5H8.90469Z" fill="#2680EB"/>
</mask>
<g mask="url(#mask0_5986_4916)">
<circle cx="4" cy="16" r="19" fill="#D4E6FB"/>
</g>
</g>
<defs>
<clipPath id="clip0_5986_4916">
<rect width="24" height="24" fill="white" transform="translate(8 8)"/>
</clipPath>
<clipPath id="clip1_5986_4916">
<rect width="24" height="24" fill="white" transform="translate(8 8)"/>
</clipPath>
</defs>
</svg>
