<svg xmlns="http://www.w3.org/2000/svg" xmlns:xlink="http://www.w3.org/1999/xlink" width="131" height="131" viewBox="0 0 131 131">
  <defs>
    <filter id="Ellipse_53" x="0" y="0" width="131" height="131" filterUnits="userSpaceOnUse">
      <feOffset dy="5" input="SourceAlpha"/>
      <feGaussianBlur stdDeviation="7.5" result="blur"/>
      <feFlood flood-color="#2680eb" flood-opacity="0.298"/>
      <feComposite operator="in" in2="blur"/>
      <feComposite in="SourceGraphic"/>
    </filter>
  </defs>
  <g id="icon-detail-buku-induk" transform="translate(22.5 17.5)">
    <g transform="matrix(1, 0, 0, 1, -22.5, -17.5)" filter="url(#Ellipse_53)">
      <circle id="Ellipse_53-2" data-name="Ellipse 53" cx="43" cy="43" r="43" transform="translate(22.5 17.5)" fill="#2680eb"/>
    </g>
    <g id="Group_1904" data-name="Group 1904" transform="translate(22.372 19.425)">
      <path id="book-solid" d="M41.256,33.152V2.21A2.2,2.2,0,0,0,39.046,0H8.841A8.843,8.843,0,0,0,0,8.841V38.309A8.843,8.843,0,0,0,8.841,47.15H39.046a2.2,2.2,0,0,0,2.21-2.21V43.466a2.227,2.227,0,0,0-.82-1.722,20.536,20.536,0,0,1,0-6.879,2.195,2.195,0,0,0,.82-1.713Zm-6.133,8.1H8.841a2.947,2.947,0,0,1,0-5.894H35.123A33.153,33.153,0,0,0,35.123,41.256Z" fill="#f4f4f7"/>
      <path id="Union_41" data-name="Union 41" d="M9.687,11.021a1.3,1.3,0,0,1-.48-.576l-.72-1.616H3.3l-.736,1.616a1.276,1.276,0,0,1-.488.576,1.274,1.274,0,0,1-.679.192,1.5,1.5,0,0,1-.985-.368,1.126,1.126,0,0,1-.44-.9,1.385,1.385,0,0,1,.144-.592L4.343.684A1.481,1.481,0,0,1,4.959.021a1.86,1.86,0,0,1,1.8,0,1.469,1.469,0,0,1,.624.663l4.225,8.672a1.385,1.385,0,0,1,.144.592,1.142,1.142,0,0,1-.424.9,1.434,1.434,0,0,1-.968.368A1.239,1.239,0,0,1,9.687,11.021ZM4.295,6.62H7.5l-1.6-3.568ZM15.769,3.615a.514.514,0,0,1-.153-.378V2.112H14.482a.507.507,0,0,1-.378-.158.53.53,0,0,1-.153-.382.523.523,0,0,1,.531-.531h1.134V-.093a.514.514,0,0,1,.153-.378.517.517,0,0,1,.378-.153.514.514,0,0,1,.378.153.51.51,0,0,1,.153.378V1.041h1.134a.523.523,0,0,1,.531.531.526.526,0,0,1-.153.382.5.5,0,0,1-.378.158H16.678V3.237a.521.521,0,0,1-.149.378.51.51,0,0,1-.382.153A.517.517,0,0,1,15.769,3.615Z" transform="translate(14.427 13.207)" fill="#2680eb" stroke="rgba(0,0,0,0)" stroke-miterlimit="10" stroke-width="1"/>
    </g>
  </g>
</svg>
