<svg xmlns="http://www.w3.org/2000/svg" xmlns:xlink="http://www.w3.org/1999/xlink" width="30" height="30" viewBox="0 0 30 30">
  <defs>
    <clipPath id="clip-path">
      <path id="Path_328" data-name="Path 328" d="M18.2.688a.622.622,0,0,0-.44-.439A13.068,13.068,0,0,0,14.787,0c-3.719,0-5.95,1.989-7.615,4.612H3.417a1.9,1.9,0,0,0-1.545.954L.091,9.126A1.023,1.023,0,0,0,0,9.512a.865.865,0,0,0,.865.865h3.74l-.81.81a1.173,1.173,0,0,0,0,1.63L5.629,14.65a1.175,1.175,0,0,0,1.631,0l.81-.81v3.741a.865.865,0,0,0,.865.865,1.028,1.028,0,0,0,.386-.091l3.557-1.779a1.889,1.889,0,0,0,.955-1.544V11.27c2.616-1.669,4.613-3.906,4.613-7.605A12.787,12.787,0,0,0,18.2.688ZM13.837,6.053a1.441,1.441,0,1,1,1.442-1.441A1.441,1.441,0,0,1,13.837,6.053Z" transform="translate(0 0)" fill="#2680eb"/>
    </clipPath>
  </defs>
  <g id="icon-cari-proyek" transform="translate(-35 -344)">
    <circle id="Ellipse_116" data-name="Ellipse 116" cx="15" cy="15" r="15" transform="translate(35 344)" fill="#d9eeff" opacity="0.7"/>
    <path id="Path_327" data-name="Path 327" d="M18.2.688a.622.622,0,0,0-.44-.439A13.068,13.068,0,0,0,14.787,0c-3.719,0-5.95,1.989-7.615,4.612H3.417a1.9,1.9,0,0,0-1.545.954L.091,9.126A1.023,1.023,0,0,0,0,9.512a.865.865,0,0,0,.865.865h3.74l-.81.81a1.173,1.173,0,0,0,0,1.63L5.629,14.65a1.175,1.175,0,0,0,1.631,0l.81-.81v3.741a.865.865,0,0,0,.865.865,1.028,1.028,0,0,0,.386-.091l3.557-1.779a1.889,1.889,0,0,0,.955-1.544V11.27c2.616-1.669,4.613-3.906,4.613-7.605A12.787,12.787,0,0,0,18.2.688ZM13.837,6.053a1.441,1.441,0,1,1,1.442-1.441A1.441,1.441,0,0,1,13.837,6.053Z" transform="translate(39.601 350.85)" fill="#2680eb"/>
    <g id="Mask_Group_9" data-name="Mask Group 9" transform="translate(39.601 350.85)" clip-path="url(#clip-path)">
      <ellipse id="Ellipse_117" data-name="Ellipse 117" cx="9.976" cy="9.976" rx="9.976" ry="9.976" transform="translate(-1.873 -12.151)" fill="#6bb1fe" opacity="0.5"/>
    </g>
  </g>
</svg>
