<svg xmlns="http://www.w3.org/2000/svg" xmlns:xlink="http://www.w3.org/1999/xlink" width="121" height="121" viewBox="0 0 121 121">
  <defs>
    <clipPath id="clip-path">
      <path id="Union_40" data-name="Union 40" d="M19.852,56.388V50.638A3.55,3.55,0,0,1,23.4,47.083H41.68V13.191l1.491-1.643,6.674-7.364c.007.013.024.031.038.05A10.742,10.742,0,0,1,52.064,9.9V47.083H52a10.769,10.769,0,0,1-10.684,9.305ZM0,56.388v-15.4H6.6A10.42,10.42,0,0,0,17.019,30.56V17.191h18.04l-6.645,7.281c-.024-.013-.048-.025-.073-.036a4.121,4.121,0,1,0,1.7,1.438l6.926-7.557V38.906h-12.1A11.159,11.159,0,0,0,13.709,50.055v6.333ZM52.064,9.9c.024.287.036.587.036.88V45.606c0,.3-.012.593-.036.887ZM0,35.976V0H41.314a10.714,10.714,0,0,1,7.034,2.613l-6.975,7.6H10.114V30.95a5.021,5.021,0,0,1-5.027,5.026Z" fill="#2680eb" stroke="rgba(0,0,0,0)" stroke-miterlimit="10" stroke-width="1"/>
    </clipPath>
  </defs>
  <g id="icon-admin-dapodik-portal" transform="translate(-312.899 -672.395)">
    <g id="Ellipse_83" data-name="Ellipse 83" transform="translate(312.899 672.395)" fill="#fff" stroke="#a3a6b7" stroke-width="1">
      <circle cx="60.5" cy="60.5" r="60.5" stroke="none"/>
      <circle cx="60.5" cy="60.5" r="60" fill="none"/>
    </g>
    <g id="Group_2860" data-name="Group 2860" transform="translate(346.899 704.395)">
      <g id="Group_1778" data-name="Group 1778">
        <path id="Path_2526" data-name="Path 2526" d="M682.837,1566.125v20.591h-12.1a11.152,11.152,0,0,0-11.152,11.153v6.33H645.87v-15.407h6.6a10.421,10.421,0,0,0,10.421-10.422V1565h18.037l-6.639,7.279-.076-.036a4.14,4.14,0,1,0,1.7,1.441Z" transform="translate(-645.87 -1547.811)" fill="#a3a6b7"/>
        <path id="Path_2527" data-name="Path 2527" d="M1272.985,1918.3v.594h-.065Q1272.961,1918.6,1272.985,1918.3Z" transform="translate(-1220.921 -1871.811)" fill="#a3a6b7"/>
        <path id="Path_2528" data-name="Path 2528" d="M694.221,1360.329l-6.975,7.607H655.988v20.733a5.027,5.027,0,0,1-5.026,5.026H645.87V1357.72h41.318A10.742,10.742,0,0,1,694.221,1360.329Z" transform="translate(-645.87 -1357.72)" fill="#a3a6b7"/>
        <path id="Path_2529" data-name="Path 2529" d="M917.472,1413.867v36.588c-.016.2-.037.4-.065.594a10.768,10.768,0,0,1-10.681,9.306H885.26V1454.6a3.554,3.554,0,0,1,3.554-3.554H907.09v-33.891l1.489-1.644,6.674-7.365.036.046A10.723,10.723,0,0,1,917.472,1413.867Z" transform="translate(-865.408 -1403.968)" fill="#a3a6b7"/>
        <path id="Path_2530" data-name="Path 2530" d="M1273.736,1477.97v34.825q0,.445-.036.882v-36.588C1273.724,1477.378,1273.736,1477.673,1273.736,1477.97Z" transform="translate(-1221.636 -1467.189)" fill="#a3a6b7"/>
        <path id="Path_2531" data-name="Path 2531" d="M846.742,1747.064" transform="translate(-830.084 -1714.777)" fill="#a3a6b7"/>
      </g>
      <g id="Mask_Group_1319" data-name="Mask Group 1319" transform="translate(0.002)" clip-path="url(#clip-path)">
        <circle id="Ellipse_304" data-name="Ellipse 304" cx="32.952" cy="32.952" r="32.952" transform="translate(-28.358 -21.617)" fill="#b3b5c3"/>
      </g>
    </g>
  </g>
</svg>
