<svg xmlns="http://www.w3.org/2000/svg" xmlns:xlink="http://www.w3.org/1999/xlink" width="50" height="50" viewBox="0 0 50 50">
  <defs>
    <clipPath id="clip-path">
      <path id="lock-solid_1_" data-name="lock-solid (1)" d="M18.75,10.5H17.625V7.125a7.125,7.125,0,0,0-14.25,0V10.5H2.25A2.251,2.251,0,0,0,0,12.75v9A2.251,2.251,0,0,0,2.25,24h16.5A2.251,2.251,0,0,0,21,21.75v-9A2.251,2.251,0,0,0,18.75,10.5Zm-4.875,0H7.125V7.125a3.375,3.375,0,0,1,6.75,0Z" transform="translate(448 574)" fill="#2680eb"/>
    </clipPath>
    <clipPath id="clip-path-2">
      <path id="gear-solid_1_" data-name="gear-solid (1)" d="M41.7,9.348a1.274,1.274,0,0,1-.353,1.38l-2.43,2.211a10.695,10.695,0,0,1,0,2.85L41.348,18a1.274,1.274,0,0,1,.353,1.38A14.242,14.242,0,0,1,40.82,21.3l-.264.454a14.783,14.783,0,0,1-1.24,1.756,1.283,1.283,0,0,1-1.375.382l-3.125-1a12.276,12.276,0,0,1-2.469,1.431l-.7,3.2a1.345,1.345,0,0,1-1.021,1,14.661,14.661,0,0,1-2.435.2,14.35,14.35,0,0,1-2.334-.2,1.345,1.345,0,0,1-1.021-1l-.7-3.2A11.028,11.028,0,0,1,21.665,22.9l-3.123,1a1.281,1.281,0,0,1-1.375-.382,14.723,14.723,0,0,1-1.241-1.756l-.263-.454a13.994,13.994,0,0,1-.885-1.925A1.275,1.275,0,0,1,15.134,18l2.427-2.211a10.885,10.885,0,0,1,0-2.85l-2.427-2.211a1.272,1.272,0,0,1-.356-1.38,14.061,14.061,0,0,1,.885-1.925l.262-.454a14.535,14.535,0,0,1,1.241-1.753,1.274,1.274,0,0,1,1.375-.382l3.123,1A10.79,10.79,0,0,1,24.134,4.4l.7-3.2a1.273,1.273,0,0,1,1.021-1,14.535,14.535,0,0,1,4.769,0,1.273,1.273,0,0,1,1.021,1l.7,3.2A11.981,11.981,0,0,1,34.817,5.83l3.125-1a1.277,1.277,0,0,1,1.375.382,14.526,14.526,0,0,1,1.24,1.753l.264.454A14.242,14.242,0,0,1,41.7,9.348Zm-13.46,9.5a4.514,4.514,0,1,0-4.489-4.539A4.5,4.5,0,0,0,28.241,18.852Z" transform="translate(-14.702 0)" fill="#2680eb"/>
    </clipPath>
  </defs>
  <g id="icon-setting-browser" transform="translate(-433 -561)">
    <circle id="Ellipse_629" data-name="Ellipse 629" cx="25" cy="25" r="25" transform="translate(433 561)" fill="#d9eeff" opacity="0.4"/>
    <path id="gear-solid_1_2" data-name="gear-solid (1)" d="M41.7,9.348a1.274,1.274,0,0,1-.353,1.38l-2.43,2.211a10.695,10.695,0,0,1,0,2.85L41.348,18a1.274,1.274,0,0,1,.353,1.38A14.242,14.242,0,0,1,40.82,21.3l-.264.454a14.783,14.783,0,0,1-1.24,1.756,1.283,1.283,0,0,1-1.375.382l-3.125-1a12.276,12.276,0,0,1-2.469,1.431l-.7,3.2a1.345,1.345,0,0,1-1.021,1,14.661,14.661,0,0,1-2.435.2,14.35,14.35,0,0,1-2.334-.2,1.345,1.345,0,0,1-1.021-1l-.7-3.2A11.028,11.028,0,0,1,21.665,22.9l-3.123,1a1.281,1.281,0,0,1-1.375-.382,14.723,14.723,0,0,1-1.241-1.756l-.263-.454a13.994,13.994,0,0,1-.885-1.925A1.275,1.275,0,0,1,15.134,18l2.427-2.211a10.885,10.885,0,0,1,0-2.85l-2.427-2.211a1.272,1.272,0,0,1-.356-1.38,14.061,14.061,0,0,1,.885-1.925l.262-.454a14.535,14.535,0,0,1,1.241-1.753,1.274,1.274,0,0,1,1.375-.382l3.123,1A10.79,10.79,0,0,1,24.134,4.4l.7-3.2a1.273,1.273,0,0,1,1.021-1,14.535,14.535,0,0,1,4.769,0,1.273,1.273,0,0,1,1.021,1l.7,3.2A11.981,11.981,0,0,1,34.817,5.83l3.125-1a1.277,1.277,0,0,1,1.375.382,14.526,14.526,0,0,1,1.24,1.753l.264.454A14.242,14.242,0,0,1,41.7,9.348Zm-13.46,9.5a4.514,4.514,0,1,0-4.489-4.539A4.5,4.5,0,0,0,28.241,18.852Z" transform="translate(430.261 571.636)" fill="#2680eb"/>
    <g id="Mask_Group_3713" data-name="Mask Group 3713" transform="translate(444.963 571.636)" clip-path="url(#clip-path-2)">
      <circle id="Ellipse_871" data-name="Ellipse 871" cx="15.5" cy="15.5" r="15.5" transform="translate(-8.964 -5.636)" fill="#6bb1fe" opacity="0.5"/>
    </g>
  </g>
</svg>
