<svg xmlns="http://www.w3.org/2000/svg" width="50" height="50" viewBox="0 0 50 50">
  <g id="icon-role-warga-sekolah" transform="translate(-235 -276)">
    <circle id="Ellipse_1" data-name="Ellipse 1" cx="25" cy="25" r="25" transform="translate(235 276)" fill="#d9eeff"/>
    <g id="Group_1" data-name="Group 1" transform="translate(247 288)">
      <g id="Group_192" data-name="Group 192" transform="translate(0)">
        <path id="Path_98" data-name="Path 98" d="M35.062,23.835V11.868a1.131,1.131,0,0,0-1.131-1.131h-5.37V7.481a.848.848,0,0,0-.435-.741l-4.36-2.432c-.024-.013-.049-.025-.074-.036V2.885H26.04a.339.339,0,0,0,.339-.339V.832A.339.339,0,0,0,26.04.493H23.692V.339a.339.339,0,1,0-.678,0V4.273c-.025.011-.05.023-.074.036l-4.36,2.432a.848.848,0,0,0-.435.741v3.256h-5.37a1.131,1.131,0,0,0-1.131,1.131V23.835a1.385,1.385,0,0,0,.57,2.648H34.492a1.385,1.385,0,0,0,.57-2.647Zm-4.371-9.156a.659.659,0,0,1,.659-.659h1.232a.659.659,0,0,1,.659.659v1.232a.659.659,0,0,1-.659.659H31.35a.659.659,0,0,1-.659-.659V14.679Zm0,3.958a.659.659,0,0,1,.659-.659h1.232a.659.659,0,0,1,.659.659v1.232a.659.659,0,0,1-.659.659H31.35a.659.659,0,0,1-.659-.659V18.637Zm-3.958-3.958a.659.659,0,0,1,.659-.659h1.232a.659.659,0,0,1,.659.659v1.232a.659.659,0,0,1-.659.659H27.392a.659.659,0,0,1-.659-.659Zm0,3.958a.659.659,0,0,1,.659-.659h1.232a.659.659,0,0,1,.659.659v1.232a.659.659,0,0,1-.659.659H27.392a.659.659,0,0,1-.659-.659ZM23.353,7.484A1.866,1.866,0,1,1,21.487,9.35,1.866,1.866,0,0,1,23.353,7.484ZM21.484,18.2a.659.659,0,0,1,.659-.659h2.419a.659.659,0,0,1,.659.659v5.19a.654.654,0,0,1-.087.326H21.571a.654.654,0,0,1-.087-.326V18.2Zm-4.061-3.517a.659.659,0,0,1,.659-.659h1.232a.659.659,0,0,1,.659.659v1.232a.659.659,0,0,1-.659.659H18.081a.659.659,0,0,1-.659-.659Zm0,3.958a.659.659,0,0,1,.659-.659h1.232a.659.659,0,0,1,.659.659v1.232a.659.659,0,0,1-.659.659H18.081a.659.659,0,0,1-.659-.659Zm-3.958-3.958a.659.659,0,0,1,.659-.659h1.232a.659.659,0,0,1,.659.659v1.232a.659.659,0,0,1-.659.659H14.123a.659.659,0,0,1-.659-.659V14.679Zm0,3.958a.659.659,0,0,1,.659-.659h1.232a.659.659,0,0,1,.659.659v1.232a.659.659,0,0,1-.659.659H14.123a.659.659,0,0,1-.659-.659V18.637Z" transform="translate(-10.828)" fill="#2680eb"/>
      </g>
    </g>
  </g>
</svg>
