<svg id="icon-absen-izin" xmlns="http://www.w3.org/2000/svg" width="50" height="50" viewBox="0 0 50 50">
  <circle id="Ellipse_1" data-name="Ellipse 1" cx="25" cy="25" r="25" fill="#e0fce4"/>
  <path id="Path_234" data-name="Path 234" d="M10.559,12.739h9.6a.952.952,0,0,0,.96-.944v-.944a.952.952,0,0,0-.96-.944h-9.6a.952.952,0,0,0-.96.944v.944A.952.952,0,0,0,10.559,12.739ZM9.6,17.458a.952.952,0,0,0,.96.944h9.6a.952.952,0,0,0,.96-.944v-.944a.952.952,0,0,0-.96-.944h-9.6a.952.952,0,0,0-.96.944ZM15.358,24.6a4.848,4.848,0,0,1-2.811-.9L0,14.8V27.368A2.856,2.856,0,0,0,2.88,30.2H27.837a2.856,2.856,0,0,0,2.88-2.831V14.8L18.17,23.707a4.852,4.852,0,0,1-2.811.9ZM29.613,9.609c-.531-.409-1.034-.795-1.776-1.346V5.66a2.856,2.856,0,0,0-2.88-2.831H20.3l-.542-.387C18.754,1.718,16.75-.024,15.358,0c-1.392-.021-3.4,1.721-4.4,2.445l-.542.387H5.759A2.856,2.856,0,0,0,2.88,5.66v2.6c-.742.55-1.245.936-1.776,1.346A2.814,2.814,0,0,0,0,11.837v.628l5.759,4.091V5.66h19.2v10.9l5.759-4.091v-.628a2.814,2.814,0,0,0-1.1-2.228Z" transform="translate(9.642 9.904)" fill="#63ed7a"/>
</svg>
