<svg xmlns="http://www.w3.org/2000/svg" xmlns:xlink="http://www.w3.org/1999/xlink" width="24" height="24" viewBox="0 0 24 24">
  <defs>
    <clipPath id="clip-path">
      <path id="Union_9" data-name="Union 9" d="M7.748,13.9A18.854,18.854,0,0,0,.935,12.435.97.97,0,0,1,0,11.48V.958A.935.935,0,0,1,.291.28,1.006,1.006,0,0,1,.992,0l.061,0A25.883,25.883,0,0,1,4.5.424a11.518,11.518,0,0,1,3.742,1.31.47.47,0,0,1,.227.4V3.683a4.045,4.045,0,0,0,0,8.027v1.768a.461.461,0,0,1-.148.341.509.509,0,0,1-.575.078Zm1.869-.08a.462.462,0,0,1-.149-.342V11.71a4.044,4.044,0,0,0,0-8.027V2.143a.475.475,0,0,1,.226-.41A11.523,11.523,0,0,1,13.436.424,25.869,25.869,0,0,1,16.887,0l.061,0a1.006,1.006,0,0,1,.7.28.932.932,0,0,1,.29.678V11.48a.971.971,0,0,1-.935.955A18.889,18.889,0,0,0,10.193,13.9a.507.507,0,0,1-.576-.078ZM7.248,10.509a2.051,2.051,0,0,1-.987-2.9,2.069,2.069,0,0,1,.7-.73l.951.991a3.858,3.858,0,0,0-.325.922.36.36,0,0,0,.04.3.275.275,0,0,0,.223.081,2.89,2.89,0,0,0,1.062-.357c.542-.536.874-.861,1.023-1.007a2.05,2.05,0,0,1-2.683,2.692ZM9.2,6.588,8.156,7.624A2.024,2.024,0,0,1,8.544,5.3,2.026,2.026,0,1,1,11.073,8.44Zm.536-.525-.274.256.984.961s.218-.221.283-.31a.649.649,0,0,0,.094-.348.662.662,0,0,0-.282-.532.686.686,0,0,0-.422-.157A.644.644,0,0,0,9.737,6.064Z" transform="translate(0)" fill="#2680eb" stroke="rgba(0,0,0,0)" stroke-miterlimit="10" stroke-width="1"/>
    </clipPath>
  </defs>
  <g id="icon-smartlibrary" transform="translate(-1037 -339)">
    <circle id="Ellipse_109" data-name="Ellipse 109" cx="12" cy="12" r="12" transform="translate(1037 339)" fill="#d9eeff" opacity="0.7"/>
    <g id="Group_706" data-name="Group 706" transform="translate(901.788 83.002)">
      <path id="Union_7" data-name="Union 7" d="M7.748,13.9A18.854,18.854,0,0,0,.935,12.435.97.97,0,0,1,0,11.48V.958A.935.935,0,0,1,.291.28,1.006,1.006,0,0,1,.992,0l.061,0A25.883,25.883,0,0,1,4.5.424a11.518,11.518,0,0,1,3.742,1.31.47.47,0,0,1,.227.4V3.683a4.045,4.045,0,0,0,0,8.027v1.768a.461.461,0,0,1-.148.341.509.509,0,0,1-.575.078Zm1.869-.08a.462.462,0,0,1-.149-.342V11.71a4.044,4.044,0,0,0,0-8.027V2.143a.475.475,0,0,1,.226-.41A11.523,11.523,0,0,1,13.436.424,25.869,25.869,0,0,1,16.887,0l.061,0a1.006,1.006,0,0,1,.7.28.932.932,0,0,1,.29.678V11.48a.971.971,0,0,1-.935.955A18.889,18.889,0,0,0,10.193,13.9a.507.507,0,0,1-.576-.078ZM7.248,10.509a2.051,2.051,0,0,1-.987-2.9,2.069,2.069,0,0,1,.7-.73l.951.991a3.858,3.858,0,0,0-.325.922.36.36,0,0,0,.04.3.275.275,0,0,0,.223.081,2.89,2.89,0,0,0,1.062-.357c.542-.536.874-.861,1.023-1.007a2.05,2.05,0,0,1-2.683,2.692ZM9.2,6.588,8.156,7.624A2.024,2.024,0,0,1,8.544,5.3,2.026,2.026,0,1,1,11.073,8.44Zm.536-.525-.274.256.984.961s.218-.221.283-.31a.649.649,0,0,0,.094-.348.662.662,0,0,0-.282-.532.686.686,0,0,0-.422-.157A.644.644,0,0,0,9.737,6.064Z" transform="translate(138.238 260.998)" fill="#2680eb" stroke="rgba(0,0,0,0)" stroke-miterlimit="10" stroke-width="1"/>
      <g id="Mask_Group_13" data-name="Mask Group 13" transform="translate(138.238 260.998)" clip-path="url(#clip-path)">
        <circle id="Ellipse_104" data-name="Ellipse 104" cx="9.5" cy="9.5" r="9.5" transform="translate(-10.026 -6.502)" fill="#6bb1fe" opacity="0.5"/>
      </g>
    </g>
  </g>
</svg>
