<svg xmlns="http://www.w3.org/2000/svg" xmlns:xlink="http://www.w3.org/1999/xlink" width="30" height="30" viewBox="0 0 30 30">
  <defs>
    <clipPath id="clip-path">
      <path id="Union_5" data-name="Union 5" d="M1.158,15.948A1.158,1.158,0,0,1,0,14.789V12.637a1.158,1.158,0,0,1,1.158-1.158H18.394a.423.423,0,0,1,.4.572,4.742,4.742,0,0,0,0,3.324.423.423,0,0,1-.4.572Zm.864-5.739a.425.425,0,0,1-.4-.574,4.739,4.739,0,0,0,0-3.322.425.425,0,0,1,.4-.574H13.241v2.58a.638.638,0,0,0,.9.59l1.166-.545,1.166.545a.637.637,0,0,0,.732-.14.65.65,0,0,0,.173-.451V5.739h1.875A1.158,1.158,0,0,1,20.416,6.9V9.05a1.159,1.159,0,0,1-1.158,1.158ZM15.58,7.088a.634.634,0,0,0-.537,0l-.531.247v-1.6h1.6v1.6ZM1.158,4.469A1.158,1.158,0,0,1,0,3.31V1.158A1.158,1.158,0,0,1,1.158,0H18.394a.423.423,0,0,1,.4.572,4.742,4.742,0,0,0,0,3.324.423.423,0,0,1-.4.572Z" transform="translate(-0.001 0)" fill="#2680eb" stroke="rgba(0,0,0,0)" stroke-miterlimit="10" stroke-width="1"/>
    </clipPath>
  </defs>
  <g id="icon-semua-buku" transform="translate(-180 -187)">
    <circle id="Ellipse_98" data-name="Ellipse 98" cx="15" cy="15" r="15" transform="translate(180 187)" fill="#d9eeff" opacity="0.7"/>
    <g id="Group_607" data-name="Group 607" transform="translate(184.811 194.38)">
      <path id="Path_283" data-name="Path 283" d="M1078.152-277.458h17.236a.423.423,0,0,0,.4-.573,4.748,4.748,0,0,1,0-3.323.423.423,0,0,0-.4-.573h-17.236a1.158,1.158,0,0,0-1.158,1.158v2.152A1.158,1.158,0,0,0,1078.152-277.458Z" transform="translate(-1076.995 281.927)" fill="#2680eb"/>
      <path id="Path_284" data-name="Path 284" d="M1132.4-146.427h-1.876v2.578a.651.651,0,0,1-.173.451.635.635,0,0,1-.731.14l-1.166-.544-1.166.544a.637.637,0,0,1-.9-.589v-2.58h-11.219a.423.423,0,0,0-.4.573,4.745,4.745,0,0,1,0,3.323.423.423,0,0,0,.4.573H1132.4a1.158,1.158,0,0,0,1.158-1.158v-2.153A1.158,1.158,0,0,0,1132.4-146.427Z" transform="translate(-1113.146 152.167)" fill="#2680eb"/>
      <path id="Path_285" data-name="Path 285" d="M1420.153-145.079h0a.635.635,0,0,1,.537,0l.531.248v-1.6h-1.6v1.6Z" transform="translate(-1405.11 152.167)" fill="#2680eb"/>
      <path id="Path_286" data-name="Path 286" d="M1095.388-10.927h-17.236a1.158,1.158,0,0,0-1.158,1.158v2.152a1.158,1.158,0,0,0,1.158,1.158h17.236a.423.423,0,0,0,.4-.573,4.748,4.748,0,0,1,0-3.323A.423.423,0,0,0,1095.388-10.927Z" transform="translate(-1076.995 22.406)" fill="#2680eb"/>
    </g>
    <g id="Mask_Group_11" data-name="Mask Group 11" transform="translate(184.811 194.381)" clip-path="url(#clip-path)">
      <ellipse id="Ellipse_99" data-name="Ellipse 99" cx="14.5" cy="13.5" rx="14.5" ry="13.5" transform="translate(-15.811 -12.381)" fill="#6bb1fe" opacity="0.5"/>
    </g>
  </g>
</svg>
