<svg id="icon-pratinjau" xmlns="http://www.w3.org/2000/svg" width="50" height="50" viewBox="0 0 50 50">
  <circle id="Ellipse_37" data-name="Ellipse 37" cx="25" cy="25" r="25" fill="#fff" opacity="0.3"/>
  <g id="Group_467" data-name="Group 467" transform="translate(807.617 -24.513)">
    <path id="Path_195" data-name="Path 195" d="M-530.712,40.506l-5.588-5.593a1.369,1.369,0,0,0-.97-.4h-.348v7.306h7.306v-.348A1.365,1.365,0,0,0-530.712,40.506Z" transform="translate(-240.806 0)" fill="#fff"/>
    <circle id="Ellipse_71" data-name="Ellipse 71" cx="3.613" cy="3.613" r="3.613" transform="translate(-787.389 49.165)" fill="#fff"/>
    <path id="Path_196" data-name="Path 196" d="M-780.493,42.482V34.513h-11.719a1.4,1.4,0,0,0-1.406,1.406V63.107a1.4,1.4,0,0,0,1.406,1.406h19.688a1.4,1.4,0,0,0,1.406-1.406V43.888h-7.969A1.41,1.41,0,0,1-780.493,42.482Zm1.959,13.977a.7.7,0,0,1,.493.2l2.889,2.889a.7.7,0,0,1,0,.985l-.82.82a.693.693,0,0,1-.982,0l-2.889-2.889a.7.7,0,0,1-.2-.493V57.5a6,6,0,0,1-3.709,1.275,6.026,6.026,0,0,1-6.027-6.027,6.026,6.026,0,0,1,6.027-6.027,6.026,6.026,0,0,1,6.027,6.027,6,6,0,0,1-1.275,3.709Z" fill="#fff"/>
  </g>
</svg>
