<svg id="icon-tatap-muka" xmlns="http://www.w3.org/2000/svg" width="48" height="48" viewBox="0 0 48 48">
  <circle id="Ellipse_56" data-name="Ellipse 56" cx="24" cy="24" r="24" fill="#fff" opacity="0.3"/>
  <path id="Path_2634" data-name="Path 2634" d="M-1027.648-60.083h-4.584a3.671,3.671,0,0,0-3.667-3.667,3.671,3.671,0,0,0-3.667,3.667h-4.584a2.75,2.75,0,0,0-2.75,2.75v20.169a2.75,2.75,0,0,0,2.75,2.75h16.5a2.751,2.751,0,0,0,2.75-2.75V-57.332A2.751,2.751,0,0,0-1027.648-60.083Zm-8.251-1.375a1.376,1.376,0,0,1,1.375,1.375,1.376,1.376,0,0,1-1.375,1.375,1.375,1.375,0,0,1-1.375-1.375A1.375,1.375,0,0,1-1035.9-61.458Zm-1.184,7.882a3.106,3.106,0,0,1,3.107,3.107,3.106,3.106,0,0,1-3.107,3.107,3.107,3.107,0,0,1-3.108-3.107A3.107,3.107,0,0,1-1037.082-53.576Zm5.437,11.263a1.165,1.165,0,0,1-1.165,1.165h-8.544a1.166,1.166,0,0,1-1.166-1.165v-1.01a3.263,3.263,0,0,1,3.263-3.262h.405a4.241,4.241,0,0,0,1.77.388,4.232,4.232,0,0,0,1.769-.388h.405a3.263,3.263,0,0,1,3.262,3.262Zm4.576-6.981-3.43,3.4a.288.288,0,0,1-.408,0l-1.983-2a.287.287,0,0,1,0-.407l.682-.677a.288.288,0,0,1,.408,0l1.1,1.112,2.543-2.525a.289.289,0,0,1,.408,0l.675.682A.291.291,0,0,1-1027.069-49.295Z" transform="translate(1059.899 71.081)" fill="#fff"/>
</svg>
