<svg xmlns="http://www.w3.org/2000/svg" xmlns:xlink="http://www.w3.org/1999/xlink" width="30" height="30" viewBox="0 0 30 30">
  <defs>
    <clipPath id="clip-path">
      <path id="flag-solid" d="M17.923,2.87c-1.557,0-2.843-1.011-4.8-1.011a5.647,5.647,0,0,0-1.977.349A1.627,1.627,0,1,0,8.7,2.962V14.178a.7.7,0,0,0,.7.7h.465a.7.7,0,0,0,.7-.7V11.435a8.117,8.117,0,0,1,3.325-.643c1.557,0,2.843,1.011,4.8,1.011a6.082,6.082,0,0,0,3.559-1.187.928.928,0,0,0,.4-.766V2.788a.93.93,0,0,0-1.321-.843,8.458,8.458,0,0,1-3.4.925Z" transform="translate(89.68 146.563)" fill="#2680eb"/>
    </clipPath>
  </defs>
  <g id="icon-gelombang-ppdb" transform="translate(-90 -139)">
    <circle id="Ellipse_673" data-name="Ellipse 673" cx="15" cy="15" r="15" transform="translate(90 139)" fill="#d9eeff" opacity="0.4"/>
    <path id="flag-solid-2" data-name="flag-solid" d="M17.923,2.87c-1.557,0-2.843-1.011-4.8-1.011a5.647,5.647,0,0,0-1.977.349A1.627,1.627,0,1,0,8.7,2.962V14.178a.7.7,0,0,0,.7.7h.465a.7.7,0,0,0,.7-.7V11.435a8.117,8.117,0,0,1,3.325-.643c1.557,0,2.843,1.011,4.8,1.011a6.082,6.082,0,0,0,3.559-1.187.928.928,0,0,0,.4-.766V2.788a.93.93,0,0,0-1.321-.843,8.458,8.458,0,0,1-3.4.925Z" transform="translate(89.68 146.563)" fill="#2680eb"/>
    <g id="Mask_Group_1539" data-name="Mask Group 1539" clip-path="url(#clip-path)">
      <ellipse id="Ellipse_674" data-name="Ellipse 674" cx="15.178" cy="15.177" rx="15.178" ry="15.177" transform="translate(81.021 127.912)" fill="#87beff" opacity="0.5"/>
    </g>
  </g>
</svg>
