<svg id="icon-akun-rekening" xmlns="http://www.w3.org/2000/svg" xmlns:xlink="http://www.w3.org/1999/xlink" width="30" height="30" viewBox="0 0 30 30">
  <defs>
    <clipPath id="clip-path">
      <path id="credit-card-regular" d="M16.139,32H1.471A1.468,1.468,0,0,0,0,33.467V44.229A1.468,1.468,0,0,0,1.471,45.7H16.139a1.468,1.468,0,0,0,1.471-1.467V33.467A1.468,1.468,0,0,0,16.139,32ZM1.654,33.467h14.3a.184.184,0,0,1,.183.183v1.284H1.471V33.651A.184.184,0,0,1,1.654,33.467Zm14.3,10.761H1.654a.184.184,0,0,1-.183-.183v-5.2H16.139v5.2A.184.184,0,0,1,15.955,44.229ZM5.87,41.172v1.223a.368.368,0,0,1-.367.367H3.3a.368.368,0,0,1-.367-.367V41.172A.368.368,0,0,1,3.3,40.8H5.5A.368.368,0,0,1,5.87,41.172Zm5.87,0v1.223a.368.368,0,0,1-.367.367H7.215a.368.368,0,0,1-.367-.367V41.172a.368.368,0,0,1,.367-.367h4.158A.368.368,0,0,1,11.74,41.172Z" transform="translate(0 -32)" fill="#4899f4"/>
    </clipPath>
  </defs>
  <circle id="Ellipse_302" data-name="Ellipse 302" cx="15" cy="15" r="15" fill="#d9eeff" opacity="0.4"/>
  <g id="Group_5081" data-name="Group 5081" transform="translate(-1.195 -1.321)">
    <path id="credit-card-regular-2" data-name="credit-card-regular" d="M16.139,32H1.471A1.468,1.468,0,0,0,0,33.467V44.229A1.468,1.468,0,0,0,1.471,45.7H16.139a1.468,1.468,0,0,0,1.471-1.467V33.467A1.468,1.468,0,0,0,16.139,32ZM1.654,33.467h14.3a.184.184,0,0,1,.183.183v1.284H1.471V33.651A.184.184,0,0,1,1.654,33.467Zm14.3,10.761H1.654a.184.184,0,0,1-.183-.183v-5.2H16.139v5.2A.184.184,0,0,1,15.955,44.229ZM5.87,41.172v1.223a.368.368,0,0,1-.367.367H3.3a.368.368,0,0,1-.367-.367V41.172A.368.368,0,0,1,3.3,40.8H5.5A.368.368,0,0,1,5.87,41.172Zm5.87,0v1.223a.368.368,0,0,1-.367.367H7.215a.368.368,0,0,1-.367-.367V41.172a.368.368,0,0,1,.367-.367h4.158A.368.368,0,0,1,11.74,41.172Z" transform="translate(7.391 -22.527)" fill="#2680eb"/>
    <g id="Mask_Group_1561" data-name="Mask Group 1561" transform="translate(7.391 9.473)" clip-path="url(#clip-path)">
      <ellipse id="Ellipse_699" data-name="Ellipse 699" cx="9.914" cy="9.914" rx="9.914" ry="9.914" transform="translate(-9.914 -9.215)" fill="#6bb1fe" opacity="0.5"/>
    </g>
  </g>
</svg>
