<svg xmlns="http://www.w3.org/2000/svg" width="30" height="24.107" viewBox="0 0 30 24.107">
  <g id="icon-kelas" transform="translate(-8 -56)">
    <path id="Path_113" data-name="Path 113" d="M37.514,56H8.486A.486.486,0,0,0,8,56.486V77.772a.486.486,0,0,0,.486.486H31.532l1.706,1.707a.485.485,0,0,0,.685,0L35.292,78.6a.486.486,0,0,0,.142-.337,0,0,0,0,1,0,0h2.078A.486.486,0,0,0,38,77.772V56.486A.486.486,0,0,0,37.514,56ZM33.579,78.937,28.793,74.15a0,0,0,0,1,0,0l.681-.681h0l4.786,4.786a0,0,0,0,1,0,0l-.681.681Zm-5.473-4.1.518.518a0,0,0,0,1,0,0H18.647a0,0,0,0,1,0,0V73.9a1.454,1.454,0,0,0-1.452-1.452H13.323A1.454,1.454,0,0,0,11.871,73.9v1.449a0,0,0,0,1,0,0h-.963a0,0,0,0,1,0,0V58.906a0,0,0,0,1,0,0H35.094a0,0,0,0,1,0,0V75.353a0,0,0,0,1,0,0H32.734L30.159,72.78a.968.968,0,0,0-1.368,0l-.685.685A.968.968,0,0,0,28.107,74.833ZM17.677,73.9v1.449a0,0,0,0,1,0,0H12.841a0,0,0,0,1,0,0V73.9a.485.485,0,0,1,.484-.484h3.871A.485.485,0,0,1,17.677,73.9ZM37.03,77.29H34.669l-.963-.963a0,0,0,0,1,0,0h1.871a.486.486,0,0,0,.486-.486V58.422a.486.486,0,0,0-.486-.486H10.422a.486.486,0,0,0-.486.486V75.836a.486.486,0,0,0,.486.486H29.6l.963.963a0,0,0,0,1,0,0H8.97a0,0,0,0,1,0,0V56.97a0,0,0,0,1,0,0H37.03a0,0,0,0,1,0,0V77.288A0,0,0,0,1,37.03,77.29Z" transform="translate(0 0)" fill="#fff"/>
    <path id="Path_114" data-name="Path 114" d="M151.71,167.543a1.825,1.825,0,0,1-.242.351c-1.555,1.866-1.411,3.492-.758,4.392a2.653,2.653,0,0,0,3.244.722c.382-.153.668-.16.849-.02.5.385.5,1.793.427,2.414a.484.484,0,1,0,.96.12c.031-.251.275-2.473-.8-3.3a1.729,1.729,0,0,0-1.8-.113,1.72,1.72,0,0,1-2.1-.392c-.439-.6-.482-1.764.718-3.2.512-.614.632-1.126.359-1.52-.325-.468-1.1-.775-4.576.144-1.808.479-3.555,1.088-3.572,1.094a.484.484,0,0,0,.32.913c.016-.006,1.6-.558,3.3-1.017,2.568-.695,3.421-.641,3.672-.584Z" transform="translate(-127.871 -103.857)" fill="#fff"/>
    <path id="Path_115" data-name="Path 115" d="M112.709,209.142l-.468.468a.5.5,0,0,0-.025.691.484.484,0,0,0,.693.009h0l.468-.468a.5.5,0,0,0,.025-.691A.484.484,0,0,0,112.709,209.142Z" transform="translate(-97.793 -143.746)" fill="#fff"/>
  </g>
</svg>
