<svg xmlns="http://www.w3.org/2000/svg" width="69" height="69" viewBox="0 0 69 69">
  <g id="icon-buku-kerja-guru" transform="translate(-164 -140)">
    <path id="Path_38536" data-name="Path 38536" d="M34.5,0A34.5,34.5,0,1,1,0,34.5,34.5,34.5,0,0,1,34.5,0Z" transform="translate(164 140)" fill="#2680eb"/>
    <g id="Group_5346" data-name="Group 5346" transform="translate(146.701 -185.021)">
      <path id="Path_212" data-name="Path 212" d="M31.6,25.391V1.693A1.689,1.689,0,0,0,29.9,0H6.771A6.773,6.773,0,0,0,0,6.771V29.34a6.773,6.773,0,0,0,6.771,6.771H29.9A1.689,1.689,0,0,0,31.6,34.418V33.29a1.706,1.706,0,0,0-.628-1.319,15.728,15.728,0,0,1,0-5.269,1.681,1.681,0,0,0,.628-1.312ZM9.028,9.451a.424.424,0,0,1,.423-.423H24.4a.424.424,0,0,1,.423.423v1.411a.424.424,0,0,1-.423.423H9.451a.424.424,0,0,1-.423-.423Zm0,4.514a.424.424,0,0,1,.423-.423H24.4a.424.424,0,0,1,.423.423v1.411a.424.424,0,0,1-.423.423H9.451a.424.424,0,0,1-.423-.423ZM26.9,31.6H6.771a2.257,2.257,0,0,1,0-4.514H26.9A25.39,25.39,0,0,0,26.9,31.6Z" transform="translate(36 341.465)" fill="#fff"/>
    </g>
  </g>
</svg>
