<svg xmlns="http://www.w3.org/2000/svg" xmlns:xlink="http://www.w3.org/1999/xlink" width="24" height="24" viewBox="0 0 24 24">
  <defs>
    <clipPath id="clip-path">
      <path id="user-solid" d="M6.066,6.933A3.466,3.466,0,1,0,2.6,3.466,3.466,3.466,0,0,0,6.066,6.933ZM8.492,7.8H8.04a4.714,4.714,0,0,1-3.948,0H3.64A3.641,3.641,0,0,0,0,11.439v1.127a1.3,1.3,0,0,0,1.3,1.3h9.532a1.3,1.3,0,0,0,1.3-1.3V11.439A3.641,3.641,0,0,0,8.492,7.8Z" transform="translate(0 0)" fill="#2680eb"/>
    </clipPath>
    <clipPath id="clip-path-2">
      <path id="user-solid-2" data-name="user-solid" d="M5.069,5.793a2.9,2.9,0,1,0-2.9-2.9A2.9,2.9,0,0,0,5.069,5.793ZM7.1,6.517H6.718a3.939,3.939,0,0,1-3.3,0H3.041A3.042,3.042,0,0,0,0,9.559V10.5a1.086,1.086,0,0,0,1.086,1.086H9.051A1.086,1.086,0,0,0,10.138,10.5V9.559A3.042,3.042,0,0,0,7.1,6.517Z" transform="translate(0 0)" fill="#fff"/>
    </clipPath>
    <clipPath id="clip-path-3">
      <path id="user-solid-3" data-name="user-solid" d="M5.069,5.793a2.9,2.9,0,1,0-2.9-2.9A2.9,2.9,0,0,0,5.069,5.793ZM7.1,6.517H6.718a3.939,3.939,0,0,1-3.3,0H3.041A3.042,3.042,0,0,0,0,9.559V10.5a1.086,1.086,0,0,0,1.086,1.086H9.051A1.086,1.086,0,0,0,10.138,10.5V9.559A3.042,3.042,0,0,0,7.1,6.517Z" transform="translate(0 0)" fill="#2680eb"/>
    </clipPath>
  </defs>
  <g id="icon-user" transform="translate(-89.746 -138.413)">
    <circle id="Ellipse_673" data-name="Ellipse 673" cx="12" cy="12" r="12" transform="translate(89.746 138.413)" fill="#d9eeff" opacity="0.4"/>
    <g id="Mask_Group_1427" data-name="Mask Group 1427" transform="translate(96.816 144.935)" clip-path="url(#clip-path-2)">
      <path id="user-solid-4" data-name="user-solid" d="M5.069,5.793a2.9,2.9,0,1,0-2.9-2.9A2.9,2.9,0,0,0,5.069,5.793ZM7.1,6.517H6.718a3.939,3.939,0,0,1-3.3,0H3.041A3.042,3.042,0,0,0,0,9.559V10.5a1.086,1.086,0,0,0,1.086,1.086H9.051A1.086,1.086,0,0,0,10.138,10.5V9.559A3.042,3.042,0,0,0,7.1,6.517Z" transform="translate(0 0)" fill="#2680eb"/>
    </g>
    <g id="Mask_Group_1428" data-name="Mask Group 1428" transform="translate(96.816 144.935)" clip-path="url(#clip-path-3)">
      <path id="Path_37061" data-name="Path 37061" d="M7.3,0c4.031,0,7.939,3.519,7.939,7.551.911,1.768-.81,1.548-1.195,2.545A7.3,7.3,0,1,1,7.3,0Z" transform="translate(-6.828 -5.032)" fill="#6bb1fe" opacity="0.5"/>
    </g>
  </g>
</svg>
