<svg xmlns="http://www.w3.org/2000/svg" xmlns:xlink="http://www.w3.org/1999/xlink" width="80" height="80" viewBox="0 0 80 80">
  <defs>
    <clipPath id="clip-path">
      <path id="Union_1" data-name="Union 1" d="M1.346,30.407A2.272,2.272,0,0,1,0,28.3V5.632A2.274,2.274,0,0,1,2.3,3.359a2.44,2.44,0,0,1,.739.115,21.676,21.676,0,0,0,6.62.98c8.8,0,17.6-4.455,26.4-4.454a21.152,21.152,0,0,1,8.318,1.605,2.275,2.275,0,0,1,1.347,2.105v22.67a2.274,2.274,0,0,1-2.3,2.273,2.441,2.441,0,0,1-.739-.116,21.7,21.7,0,0,0-6.621-.98c-8.8,0-17.6,4.455-26.4,4.455A21.151,21.151,0,0,1,1.346,30.407Zm12.777-14.4a8.743,8.743,0,1,0,8.743-8.743A8.742,8.742,0,0,0,14.124,16.007Zm9.885,4.059a.664.664,0,0,1-.225-.517V14.826a.706.706,0,0,1,.211-.535.789.789,0,0,1,.571-.2.823.823,0,0,1,.554.18.68.68,0,0,1,.238.477,1.294,1.294,0,0,1,.553-.495,1.892,1.892,0,0,1,1.817.112,1.929,1.929,0,0,1,.693.823,2.846,2.846,0,0,1,.247,1.214,2.759,2.759,0,0,1-.247,1.2,1.81,1.81,0,0,1-1.7,1.075,1.777,1.777,0,0,1-.778-.171,1.38,1.38,0,0,1-.553-.459v1.529a.636.636,0,0,1-.216.5.828.828,0,0,1-.567.189A.852.852,0,0,1,24.008,20.065Zm1.575-4.511a1.318,1.318,0,0,0-.225.828,1.28,1.28,0,0,0,.225.814.776.776,0,0,0,.647.284.761.761,0,0,0,.635-.279,1.267,1.267,0,0,0,.22-.8,1.361,1.361,0,0,0-.225-.841.849.849,0,0,0-1.278,0Zm-3.526,3.4a.991.991,0,0,1-.361-.331l-1.3-1.905a1.035,1.035,0,0,0-.3-.3.684.684,0,0,0-.366-.1h-.652v1.795a.909.909,0,0,1-.241.667.883.883,0,0,1-.662.245.848.848,0,0,1-.913-.912V12.76a.771.771,0,0,1,.853-.852h2.517a2.9,2.9,0,0,1,1.932.557,2.006,2.006,0,0,1,.647,1.609,2.12,2.12,0,0,1-.442,1.359,2.169,2.169,0,0,1-1.244.747,1.354,1.354,0,0,1,.577.221,2.046,2.046,0,0,1,.486.511l.622.892a.932.932,0,0,1,.18.512.664.664,0,0,1-.266.537.984.984,0,0,1-1.068.1Zm-3-4.011h1.284a1.54,1.54,0,0,0,.877-.191.711.711,0,0,0,.266-.621.738.738,0,0,0-.266-.637,1.5,1.5,0,0,0-.877-.2H19.058Z" transform="translate(0 0)" fill="#2680eb" stroke="rgba(0,0,0,0)" stroke-miterlimit="10" stroke-width="1"/>
    </clipPath>
  </defs>
  <g id="icon-keuangan" transform="translate(-368.441 -462.442)">
    <g id="icon-tata-usaha" transform="translate(368.443 462.442)">
      <circle id="Ellipse_84" data-name="Ellipse 84" cx="40" cy="40" r="40" transform="translate(-0.002 0)" fill="#d9eeff" opacity="0.7"/>
    </g>
    <g id="Group_2859" data-name="Group 2859" transform="translate(7.782 5.449)">
      <g id="Group_717" data-name="Group 717" transform="translate(377.792 480.987)">
        <path id="Path_279" data-name="Path 279" d="M791.1,335.035a2.06,2.06,0,0,0-.486-.511,1.354,1.354,0,0,0-.577-.221,2.165,2.165,0,0,0,1.243-.747,2.119,2.119,0,0,0,.441-1.359,2.007,2.007,0,0,0-.647-1.609,2.892,2.892,0,0,0-1.93-.556h-2.517a.77.77,0,0,0-.852.852v5.364a.848.848,0,0,0,.913.912.883.883,0,0,0,.662-.246.912.912,0,0,0,.241-.667v-1.795h.652a.687.687,0,0,1,.366.1,1.036,1.036,0,0,1,.3.3l1.3,1.905a1,1,0,0,0,.361.331.985.985,0,0,0,1.068-.105.665.665,0,0,0,.266-.536.932.932,0,0,0-.18-.511Zm-1.369-2.156a1.544,1.544,0,0,1-.877.191h-1.283v-1.644h1.283a1.512,1.512,0,0,1,.877.2.738.738,0,0,1,.266.637A.712.712,0,0,1,789.736,332.879Z" transform="translate(-768.523 -318.122)" fill="#2680eb"/>
        <path id="Path_280" data-name="Path 280" d="M877.667,355.661a2.112,2.112,0,0,0-2.025-.125,1.441,1.441,0,0,0-.617.552.759.759,0,0,0-.266-.531.919.919,0,0,0-.617-.2.882.882,0,0,0-.637.226.788.788,0,0,0-.236.6v5.264a.741.741,0,0,0,.251.577.951.951,0,0,0,.662.226.924.924,0,0,0,.632-.211.709.709,0,0,0,.241-.561v-1.7a1.533,1.533,0,0,0,.617.511,1.976,1.976,0,0,0,.867.19,2.018,2.018,0,0,0,1.9-1.2,3.069,3.069,0,0,0,.276-1.339,3.17,3.17,0,0,0-.276-1.354A2.157,2.157,0,0,0,877.667,355.661Zm-.962,3.163a.848.848,0,0,1-.707.311.867.867,0,0,1-.722-.316,1.431,1.431,0,0,1-.251-.907,1.472,1.472,0,0,1,.251-.922.945.945,0,0,1,1.424.005,1.514,1.514,0,0,1,.251.938A1.411,1.411,0,0,1,876.705,358.824Z" transform="translate(-849.812 -341.652)" fill="#2680eb"/>
        <path id="Path_281" data-name="Path 281" d="M584.814,160.037h0a21.16,21.16,0,0,0-8.318-1.605c-8.8,0-17.6,4.455-26.4,4.455a21.68,21.68,0,0,1-6.621-.98,2.444,2.444,0,0,0-.74-.116,2.274,2.274,0,0,0-2.3,2.273v22.671a2.273,2.273,0,0,0,1.346,2.105,21.15,21.15,0,0,0,8.318,1.606c8.8,0,17.6-4.455,26.4-4.455a21.684,21.684,0,0,1,6.621.98,2.441,2.441,0,0,0,.74.116,2.274,2.274,0,0,0,2.3-2.273v-22.67A2.275,2.275,0,0,0,584.814,160.037Zm-21.52,23.144a8.743,8.743,0,1,1,8.743-8.743A8.743,8.743,0,0,1,563.294,183.182Z" transform="translate(-540.427 -158.432)" fill="#2680eb"/>
      </g>
      <g id="Mask_Group_3" data-name="Mask Group 3" transform="translate(377.792 480.986)" clip-path="url(#clip-path)">
        <ellipse id="Ellipse_94" data-name="Ellipse 94" cx="22.183" cy="21.369" rx="22.183" ry="21.369" transform="translate(-21.6 -16.499)" fill="#6bb1fe" opacity="0.5"/>
      </g>
    </g>
  </g>
</svg>
