<svg id="icon-absen-sakit" xmlns="http://www.w3.org/2000/svg" width="50" height="50" viewBox="0 0 50 50">
  <circle id="Ellipse_1" data-name="Ellipse 1" cx="25" cy="25" r="25" fill="#fce8d2"/>
  <path id="Path_233" data-name="Path 233" d="M31.6,15.6a1.231,1.231,0,1,0-1.231-1.231A1.231,1.231,0,0,0,31.6,15.6Zm-3.283,5.746a1.231,1.231,0,1,0,1.231,1.231h0A1.231,1.231,0,0,0,28.318,21.341Zm-3.283-2.873A1.231,1.231,0,1,0,26.266,19.7,1.231,1.231,0,0,0,25.034,18.468ZM31.6,23.8a1.231,1.231,0,1,0,1.231,1.231A1.231,1.231,0,0,0,31.6,23.8Zm0-5.335A1.231,1.231,0,1,0,32.832,19.7,1.231,1.231,0,0,0,31.6,18.468Zm-3.283-2.052a1.231,1.231,0,1,0,1.231,1.231A1.231,1.231,0,0,0,28.318,16.416Zm-3.836-2.309C23.4,11.69,21.993,6.323,20.73,4.527A10.677,10.677,0,0,0,12.009,0H9.85A9.842,9.842,0,0,0,3.283,17.179v9.086H14.774V24.624h3.283a3.283,3.283,0,0,0,3.283-3.283H16.416a1.642,1.642,0,1,1,0-3.283h4.925V16.416h1.642a1.642,1.642,0,0,0,1.5-2.309Zm-9.707-2.616A1.642,1.642,0,1,1,16.416,9.85,1.642,1.642,0,0,1,14.774,11.491Z" transform="translate(8.584 11.867)" fill="#f9ac50"/>
</svg>
