<svg xmlns="http://www.w3.org/2000/svg" xmlns:xlink="http://www.w3.org/1999/xlink" width="50" height="50" viewBox="0 0 50 50">
  <defs>
    <clipPath id="clip-path">
      <path id="Subtraction_57" data-name="Subtraction 57" d="M17.553,28.6H1.17a1.1,1.1,0,0,1-.829-.391A1.443,1.443,0,0,1,0,27.26V1.34A1.437,1.437,0,0,1,.341.392,1.094,1.094,0,0,1,1.17,0h9.752V7.6a1.266,1.266,0,0,0,1.17,1.341h6.63V20.872l-4.122,3.4L14.056,26.8a.55.55,0,0,0,.106.456.521.521,0,0,0,.411.2l2.544-.014,1.6-1.323V27.26a1.439,1.439,0,0,1-.342.95A1.1,1.1,0,0,1,17.553,28.6ZM3.783,21.245a.817.817,0,1,0,0,1.634h7.181a.817.817,0,0,0,0-1.634Zm0-3.27a.817.817,0,1,0,0,1.634H14.971a.817.817,0,1,0,0-1.634Zm0-3.269a.817.817,0,1,0,0,1.634H14.971a.817.817,0,1,0,0-1.634Zm0-3.267a.817.817,0,1,0,0,1.634H14.971a.817.817,0,1,0,0-1.634ZM15.36,26.7h0a.328.328,0,0,1-.256-.123.34.34,0,0,1-.068-.287l.339-1.579,4.215-3.48,1.572,1.98-4.217,3.481ZM21.5,22.924h0l-1.572-1.978.858-.708a.654.654,0,0,1,.932.1l.738.93a.685.685,0,0,1-.1.95l-.857.707ZM18.723,7.15H12.482V0h.3a1.091,1.091,0,0,1,.828.391l4.775,5.474a1.44,1.44,0,0,1,.34.945v.339Z" transform="translate(0 0)" fill="#2680eb"/>
    </clipPath>
  </defs>
  <g id="icon-ujian-gelombang-ppdb" transform="translate(-792 -462)">
    <circle id="Ellipse_84" data-name="Ellipse 84" cx="25" cy="25" r="25" transform="translate(792 462)" fill="#d9eeff" opacity="0.5"/>
    <g id="Group_4288" data-name="Group 4288" transform="translate(337.574 13.7)">
      <path id="Subtraction_31" data-name="Subtraction 31" d="M17.553,28.6H1.17a1.1,1.1,0,0,1-.829-.391A1.443,1.443,0,0,1,0,27.26V1.34A1.437,1.437,0,0,1,.341.392,1.094,1.094,0,0,1,1.17,0h9.752V7.6a1.266,1.266,0,0,0,1.17,1.341h6.63V20.872l-4.122,3.4L14.056,26.8a.55.55,0,0,0,.106.456.521.521,0,0,0,.411.2l2.544-.014,1.6-1.323V27.26a1.439,1.439,0,0,1-.342.95A1.1,1.1,0,0,1,17.553,28.6ZM3.783,21.245a.817.817,0,1,0,0,1.634h7.181a.817.817,0,0,0,0-1.634Zm0-3.27a.817.817,0,1,0,0,1.634H14.971a.817.817,0,1,0,0-1.634Zm0-3.269a.817.817,0,1,0,0,1.634H14.971a.817.817,0,1,0,0-1.634Zm0-3.267a.817.817,0,1,0,0,1.634H14.971a.817.817,0,1,0,0-1.634ZM15.36,26.7h0a.328.328,0,0,1-.256-.123.34.34,0,0,1-.068-.287l.339-1.579,4.215-3.48,1.572,1.98-4.217,3.481ZM21.5,22.924h0l-1.572-1.978.858-.708a.654.654,0,0,1,.932.1l.738.93a.685.685,0,0,1-.1.95l-.857.707ZM18.723,7.15H12.482V0h.3a1.091,1.091,0,0,1,.828.391l4.775,5.474a1.44,1.44,0,0,1,.34.945v.339Z" transform="translate(470.122 459)" fill="#2680eb"/>
      <g id="Mask_Group_1526" data-name="Mask Group 1526" transform="translate(470.122 459)" clip-path="url(#clip-path)">
        <circle id="Ellipse_647" data-name="Ellipse 647" cx="13.137" cy="13.137" r="13.137" transform="translate(-17.302 -9.153)" fill="#6bb1fe" stroke="rgba(0,0,0,0)" stroke-miterlimit="10" stroke-width="1" opacity="0.5"/>
      </g>
    </g>
  </g>
</svg>
