<svg xmlns="http://www.w3.org/2000/svg" xmlns:xlink="http://www.w3.org/1999/xlink" width="24" height="24" viewBox="0 0 24 24">
  <defs>
    <clipPath id="clip-path">
      <path id="calendar-alt-solid" d="M0,12.617a1.306,1.306,0,0,0,1.305,1.305h9.571a1.306,1.306,0,0,0,1.305-1.305v-7.4H0ZM8.7,7.287a.327.327,0,0,1,.326-.326h1.088a.327.327,0,0,1,.326.326V8.375a.327.327,0,0,1-.326.326H9.027A.327.327,0,0,1,8.7,8.375Zm0,3.48a.327.327,0,0,1,.326-.326h1.088a.327.327,0,0,1,.326.326v1.088a.327.327,0,0,1-.326.326H9.027a.327.327,0,0,1-.326-.326Zm-3.48-3.48a.327.327,0,0,1,.326-.326H6.635a.327.327,0,0,1,.326.326V8.375a.327.327,0,0,1-.326.326H5.547a.327.327,0,0,1-.326-.326Zm0,3.48a.327.327,0,0,1,.326-.326H6.635a.327.327,0,0,1,.326.326v1.088a.327.327,0,0,1-.326.326H5.547a.327.327,0,0,1-.326-.326ZM1.74,7.287a.327.327,0,0,1,.326-.326H3.154a.327.327,0,0,1,.326.326V8.375a.327.327,0,0,1-.326.326H2.067a.327.327,0,0,1-.326-.326Zm0,3.48a.327.327,0,0,1,.326-.326H3.154a.327.327,0,0,1,.326.326v1.088a.327.327,0,0,1-.326.326H2.067a.327.327,0,0,1-.326-.326ZM10.876,1.74H9.571V.435A.436.436,0,0,0,9.136,0h-.87a.436.436,0,0,0-.435.435V1.74H4.351V.435A.436.436,0,0,0,3.916,0h-.87A.436.436,0,0,0,2.61.435V1.74H1.305A1.306,1.306,0,0,0,0,3.045V4.351H12.182V3.045A1.306,1.306,0,0,0,10.876,1.74Z" fill="#2680eb"/>
    </clipPath>
  </defs>
  <g id="Group_2243" data-name="Group 2243" transform="translate(-26.182 -1969.182)">
    <circle id="Ellipse_392" data-name="Ellipse 392" cx="12" cy="12" r="12" transform="translate(26.182 1969.182)" fill="#eef5ff"/>
    <path id="calendar-alt-solid-2" data-name="calendar-alt-solid" d="M0,12.617a1.306,1.306,0,0,0,1.305,1.305h9.571a1.306,1.306,0,0,0,1.305-1.305v-7.4H0ZM8.7,7.287a.327.327,0,0,1,.326-.326h1.088a.327.327,0,0,1,.326.326V8.375a.327.327,0,0,1-.326.326H9.027A.327.327,0,0,1,8.7,8.375Zm0,3.48a.327.327,0,0,1,.326-.326h1.088a.327.327,0,0,1,.326.326v1.088a.327.327,0,0,1-.326.326H9.027a.327.327,0,0,1-.326-.326Zm-3.48-3.48a.327.327,0,0,1,.326-.326H6.635a.327.327,0,0,1,.326.326V8.375a.327.327,0,0,1-.326.326H5.547a.327.327,0,0,1-.326-.326Zm0,3.48a.327.327,0,0,1,.326-.326H6.635a.327.327,0,0,1,.326.326v1.088a.327.327,0,0,1-.326.326H5.547a.327.327,0,0,1-.326-.326ZM1.74,7.287a.327.327,0,0,1,.326-.326H3.154a.327.327,0,0,1,.326.326V8.375a.327.327,0,0,1-.326.326H2.067a.327.327,0,0,1-.326-.326Zm0,3.48a.327.327,0,0,1,.326-.326H3.154a.327.327,0,0,1,.326.326v1.088a.327.327,0,0,1-.326.326H2.067a.327.327,0,0,1-.326-.326ZM10.876,1.74H9.571V.435A.436.436,0,0,0,9.136,0h-.87a.436.436,0,0,0-.435.435V1.74H4.351V.435A.436.436,0,0,0,3.916,0h-.87A.436.436,0,0,0,2.61.435V1.74H1.305A1.306,1.306,0,0,0,0,3.045V4.351H12.182V3.045A1.306,1.306,0,0,0,10.876,1.74Z" transform="translate(32.091 1974.279)" fill="#2680eb"/>
    <g id="Mask_Group_1475" data-name="Mask Group 1475" transform="translate(32.091 1974.279)" clip-path="url(#clip-path)">
      <circle id="Ellipse_527" data-name="Ellipse 527" cx="8.65" cy="8.65" r="8.65" transform="translate(-7.432 -7.025)" fill="#6bb1fe" opacity="0.5"/>
    </g>
  </g>
</svg>
