<svg xmlns="http://www.w3.org/2000/svg" xmlns:xlink="http://www.w3.org/1999/xlink" width="20" height="18.316" viewBox="0 0 20 18.316">
  <defs>
    <clipPath id="clip-path">
      <path id="briefcase-solid" d="M11.764,43.131a.587.587,0,0,1-.588.586H7.646a.587.587,0,0,1-.588-.586V41.373H0v5.273A1.806,1.806,0,0,0,1.765,48.4H17.057a1.806,1.806,0,0,0,1.765-1.758V41.373H11.764Zm5.294-7.616H14.116V33.758A1.806,1.806,0,0,0,12.352,32H6.47a1.806,1.806,0,0,0-1.765,1.758v1.758H1.765A1.806,1.806,0,0,0,0,37.273V40.2H18.822V37.273A1.806,1.806,0,0,0,17.057,35.515Zm-5.294,0H7.058V34.343h4.705Z" transform="translate(0 -32)" fill="#87beff"/>
    </clipPath>
  </defs>
  <g id="icon-alumni-mencari-kerja" transform="translate(-411.562 -1942.052)">
    <g id="Group_2842" data-name="Group 2842" transform="translate(411.562 1942.052)">
      <path id="Subtraction_36" data-name="Subtraction 36" d="M13.332,16.4H1.765A1.807,1.807,0,0,1,0,14.646V9.374H7.058v1.758a.588.588,0,0,0,.588.585h3.529a.588.588,0,0,0,.588-.585V9.374h7.058v3.175a3.366,3.366,0,0,0-6.211,1.781,3.307,3.307,0,0,0,.721,2.073Zm5.49-8.2H0V5.273A1.807,1.807,0,0,1,1.765,3.515H4.706V1.758A1.807,1.807,0,0,1,6.47,0h5.882a1.807,1.807,0,0,1,1.764,1.758V3.515h2.941a1.807,1.807,0,0,1,1.765,1.758V8.2ZM7.058,2.344V3.515h4.706V2.344Z" transform="translate(0 0)" fill="#2680eb"/>
      <path id="search-solid" d="M7.008,6.143,5.624,4.76a.333.333,0,0,0-.236-.1H5.162a2.885,2.885,0,1,0-.5.5v.226a.333.333,0,0,0,.1.236L6.143,7.008a.332.332,0,0,0,.47,0l.393-.393A.335.335,0,0,0,7.008,6.143ZM2.886,4.663A1.776,1.776,0,1,1,4.663,2.886,1.775,1.775,0,0,1,2.886,4.663Z" transform="translate(12.895 11.21)" fill="#2680eb"/>
    </g>
    <g id="Mask_Group_1448" data-name="Mask Group 1448" transform="translate(411.562 1942.053)" clip-path="url(#clip-path)">
      <ellipse id="Ellipse_514" data-name="Ellipse 514" cx="16.804" cy="16.737" rx="16.804" ry="16.737" transform="translate(-19.351 -20.567)" fill="#87beff" opacity="0.5"/>
    </g>
  </g>
</svg>
