<svg xmlns="http://www.w3.org/2000/svg" width="15" height="15" viewBox="0 0 15 15">
  <g id="icon-check-success" transform="translate(-968.014 -633.514)">
    <circle id="Ellipse_41" data-name="Ellipse 41" cx="7.5" cy="7.5" r="7.5" transform="translate(968.014 633.514)" fill="#63ed7a"/>
    <path id="Path_160" data-name="Path 160" d="M3.381,71.644.146,68.734a.417.417,0,0,1,0-.633l.7-.633a.538.538,0,0,1,.7,0l2.179,1.96,4.667-4.2a.538.538,0,0,1,.7,0l.7.633a.417.417,0,0,1,0,.633L4.085,71.644a.538.538,0,0,1-.7,0Z" transform="translate(970.537 572.556)" fill="#fff"/>
  </g>
</svg>
