<svg xmlns="http://www.w3.org/2000/svg" xmlns:xlink="http://www.w3.org/1999/xlink" width="30" height="30" viewBox="0 0 30 30">
  <defs>
    <clipPath id="clip-path">
      <path id="Subtraction_11" data-name="Subtraction 11" d="M.3,16.618a.29.29,0,0,1-.271-.178.3.3,0,0,1,.056-.323,9.428,9.428,0,0,0,2.032-3.553A6.8,6.8,0,0,1,0,7.716C0,3.461,4.26,0,9.5,0s9.5,3.461,9.5,7.716-4.26,7.716-9.5,7.716a11.275,11.275,0,0,1-3.983-.72A8.538,8.538,0,0,1,.3,16.618Zm7.581-7.89h2.268l.315.707a.571.571,0,0,0,.21.252.546.546,0,0,0,.294.084.626.626,0,0,0,.423-.161.5.5,0,0,0,.185-.392.6.6,0,0,0-.063-.259L9.662,5.165a.643.643,0,0,0-.273-.29A.79.79,0,0,0,9,4.774a.781.781,0,0,0-.4.1.656.656,0,0,0-.27.29L6.484,8.96a.6.6,0,0,0-.063.259.494.494,0,0,0,.193.392.655.655,0,0,0,.43.161.546.546,0,0,0,.511-.336l.322-.707Zm4.209-3.366a.232.232,0,0,0-.236.237.233.233,0,0,0,.068.169.225.225,0,0,0,.168.07h.5v.5a.236.236,0,1,0,.472,0v-.5h.5a.225.225,0,0,0,.168-.07A.233.233,0,0,0,13.8,5.6a.232.232,0,0,0-.236-.237h-.5v-.5a.236.236,0,1,0-.472,0v.5Zm-2.375,2.4h-1.4l.7-1.561.7,1.559Z" transform="translate(0 0)" fill="#2680eb" stroke="rgba(0,0,0,0)" stroke-miterlimit="10" stroke-width="1"/>
    </clipPath>
  </defs>
  <g id="icon-predikat-nilai" transform="translate(-20.768 -158.768)">
    <circle id="Ellipse_279" data-name="Ellipse 279" cx="15" cy="15" r="15" transform="translate(20.768 158.768)" fill="#d9eeff" opacity="0.4"/>
    <path id="Subtraction_10" data-name="Subtraction 10" d="M.3,16.618a.29.29,0,0,1-.271-.178.3.3,0,0,1,.056-.323,9.428,9.428,0,0,0,2.032-3.553A6.8,6.8,0,0,1,0,7.716C0,3.461,4.26,0,9.5,0s9.5,3.461,9.5,7.716-4.26,7.716-9.5,7.716a11.275,11.275,0,0,1-3.983-.72A8.538,8.538,0,0,1,.3,16.618Zm7.581-7.89h2.268l.315.707a.571.571,0,0,0,.21.252.546.546,0,0,0,.294.084.626.626,0,0,0,.423-.161.5.5,0,0,0,.185-.392.6.6,0,0,0-.063-.259L9.662,5.165a.643.643,0,0,0-.273-.29A.79.79,0,0,0,9,4.774a.781.781,0,0,0-.4.1.656.656,0,0,0-.27.29L6.484,8.96a.6.6,0,0,0-.063.259.494.494,0,0,0,.193.392.655.655,0,0,0,.43.161.546.546,0,0,0,.511-.336l.322-.707Zm4.209-3.366a.232.232,0,0,0-.236.237.233.233,0,0,0,.068.169.225.225,0,0,0,.168.07h.5v.5a.236.236,0,1,0,.472,0v-.5h.5a.225.225,0,0,0,.168-.07A.233.233,0,0,0,13.8,5.6a.232.232,0,0,0-.236-.237h-.5v-.5a.236.236,0,1,0-.472,0v.5Zm-2.375,2.4h-1.4l.7-1.561.7,1.559Z" transform="translate(26.272 165.459)" fill="#2680eb" stroke="rgba(0,0,0,0)" stroke-miterlimit="10" stroke-width="1"/>
    <g id="Mask_Group_1291" data-name="Mask Group 1291" transform="translate(26.272 165.459)" clip-path="url(#clip-path)">
      <circle id="Ellipse_278" data-name="Ellipse 278" cx="8.927" cy="8.927" r="8.927" transform="translate(-8.008 -6.675)" fill="#6bb1fe" opacity="0.5"/>
    </g>
  </g>
</svg>
