<svg xmlns="http://www.w3.org/2000/svg" xmlns:xlink="http://www.w3.org/1999/xlink" width="24" height="24" viewBox="0 0 24 24">
  <defs>
    <clipPath id="clip-path">
      <path id="calendar-alt-solid" d="M0,13.058a1.351,1.351,0,0,0,1.351,1.351h9.906a1.351,1.351,0,0,0,1.351-1.351V5.4H0ZM9.005,7.542A.339.339,0,0,1,9.343,7.2h1.126a.339.339,0,0,1,.338.338V8.668a.339.339,0,0,1-.338.338H9.343a.339.339,0,0,1-.338-.338Zm0,3.6a.339.339,0,0,1,.338-.338h1.126a.339.339,0,0,1,.338.338V12.27a.339.339,0,0,1-.338.338H9.343a.339.339,0,0,1-.338-.338Zm-3.6-3.6A.339.339,0,0,1,5.741,7.2H6.867a.339.339,0,0,1,.338.338V8.668a.339.339,0,0,1-.338.338H5.741A.339.339,0,0,1,5.4,8.668Zm0,3.6a.339.339,0,0,1,.338-.338H6.867a.339.339,0,0,1,.338.338V12.27a.339.339,0,0,1-.338.338H5.741A.339.339,0,0,1,5.4,12.27Zm-3.6-3.6A.339.339,0,0,1,2.139,7.2H3.264a.339.339,0,0,1,.338.338V8.668a.339.339,0,0,1-.338.338H2.139A.339.339,0,0,1,1.8,8.668Zm0,3.6a.339.339,0,0,1,.338-.338H3.264a.339.339,0,0,1,.338.338V12.27a.339.339,0,0,1-.338.338H2.139A.339.339,0,0,1,1.8,12.27ZM11.257,1.8H9.906V.45A.452.452,0,0,0,9.456,0h-.9A.452.452,0,0,0,8.1.45V1.8H4.5V.45A.452.452,0,0,0,4.052,0h-.9A.452.452,0,0,0,2.7.45V1.8H1.351A1.351,1.351,0,0,0,0,3.152V4.5H12.607V3.152A1.351,1.351,0,0,0,11.257,1.8Z" fill="#2680eb"/>
    </clipPath>
  </defs>
  <g id="icon-tanggal-jalur-pendaftaran" transform="translate(-26.542 -1969.542)">
    <circle id="Ellipse_392" data-name="Ellipse 392" cx="12" cy="12" r="12" transform="translate(26.542 1969.542)" fill="#eef5ff"/>
    <path id="calendar-alt-solid-2" data-name="calendar-alt-solid" d="M0,13.058a1.351,1.351,0,0,0,1.351,1.351h9.906a1.351,1.351,0,0,0,1.351-1.351V5.4H0ZM9.005,7.542A.339.339,0,0,1,9.343,7.2h1.126a.339.339,0,0,1,.338.338V8.668a.339.339,0,0,1-.338.338H9.343a.339.339,0,0,1-.338-.338Zm0,3.6a.339.339,0,0,1,.338-.338h1.126a.339.339,0,0,1,.338.338V12.27a.339.339,0,0,1-.338.338H9.343a.339.339,0,0,1-.338-.338Zm-3.6-3.6A.339.339,0,0,1,5.741,7.2H6.867a.339.339,0,0,1,.338.338V8.668a.339.339,0,0,1-.338.338H5.741A.339.339,0,0,1,5.4,8.668Zm0,3.6a.339.339,0,0,1,.338-.338H6.867a.339.339,0,0,1,.338.338V12.27a.339.339,0,0,1-.338.338H5.741A.339.339,0,0,1,5.4,12.27Zm-3.6-3.6A.339.339,0,0,1,2.139,7.2H3.264a.339.339,0,0,1,.338.338V8.668a.339.339,0,0,1-.338.338H2.139A.339.339,0,0,1,1.8,8.668Zm0,3.6a.339.339,0,0,1,.338-.338H3.264a.339.339,0,0,1,.338.338V12.27a.339.339,0,0,1-.338.338H2.139A.339.339,0,0,1,1.8,12.27ZM11.257,1.8H9.906V.45A.452.452,0,0,0,9.456,0h-.9A.452.452,0,0,0,8.1.45V1.8H4.5V.45A.452.452,0,0,0,4.052,0h-.9A.452.452,0,0,0,2.7.45V1.8H1.351A1.351,1.351,0,0,0,0,3.152V4.5H12.607V3.152A1.351,1.351,0,0,0,11.257,1.8Z" transform="translate(32.238 1974.398)" fill="#2680eb"/>
    <g id="Mask_Group_1475" data-name="Mask Group 1475" transform="translate(32.238 1974.398)" clip-path="url(#clip-path)">
      <circle id="Ellipse_527" data-name="Ellipse 527" cx="8.952" cy="8.952" r="8.952" transform="translate(-7.691 -7.271)" fill="#6bb1fe" opacity="0.5"/>
    </g>
  </g>
</svg>
