<svg id="icon-total-realisasi" xmlns="http://www.w3.org/2000/svg" width="51" height="51" viewBox="0 0 51 51">
  <path id="Path_38599" data-name="Path 38599" d="M25.5,0A25.5,25.5,0,1,1,0,25.5,25.5,25.5,0,0,1,25.5,0Z" fill="#eef5ff" opacity="0.75"/>
  <g id="Group_5358" data-name="Group 5358" transform="translate(-164.589 -240.285)">
    <path id="Subtraction_77" data-name="Subtraction 77" d="M22816.629,3919.857h-12.266a2.776,2.776,0,0,1-2.773-2.773v-20.333a2.776,2.776,0,0,1,2.773-2.773h4.617a3.7,3.7,0,0,1,7.4,0h4.617a2.776,2.776,0,0,1,2.773,2.773v15.028a6.013,6.013,0,0,0-4.74.681h-7.732a.464.464,0,0,0-.463.464v.922a.458.458,0,0,0,.463.464h5.842a6.009,6.009,0,0,0-.51,5.544Zm-9.492-7.854a1.386,1.386,0,1,0,1.385,1.386A1.388,1.388,0,0,0,22807.137,3912Zm0-5.546a1.386,1.386,0,1,0,1.385,1.386A1.388,1.388,0,0,0,22807.137,3906.457Zm4.158.464a.461.461,0,0,0-.463.458v.928a.461.461,0,0,0,.463.458h8.313a.462.462,0,0,0,.465-.458v-.928a.462.462,0,0,0-.465-.458Zm-4.158-6.01a1.386,1.386,0,1,0,1.385,1.386A1.388,1.388,0,0,0,22807.137,3900.911Zm4.158.464a.461.461,0,0,0-.463.458v.928a.461.461,0,0,0,.463.458h8.313a.463.463,0,0,0,.465-.458v-.928a.462.462,0,0,0-.465-.458Zm1.387-8.783a1.388,1.388,0,0,0-1.387,1.386,1.384,1.384,0,1,0,1.387-1.386Z" transform="translate(-22622.588 -3639.285)" fill="#2680eb"/>
    <path id="Intersection_4" data-name="Intersection 4" d="M0,6.468A2.772,2.772,0,0,1,2.777,3.7H7.394a3.7,3.7,0,0,1,3.7-3.7,3.654,3.654,0,0,1,.7.067,15.825,15.825,0,0,1,1.22,6.115,15.857,15.857,0,0,1-.771,4.905H9.71a.467.467,0,0,0-.466.464v.928a.465.465,0,0,0,.466.456h1.8A15.927,15.927,0,0,1,0,21.819ZM4.162,17.563A1.385,1.385,0,1,0,5.547,16.17,1.382,1.382,0,0,0,4.162,17.563Zm0-5.548A1.385,1.385,0,1,0,5.547,10.63,1.382,1.382,0,0,0,4.162,12.015ZM9.71,3.7a1.385,1.385,0,1,0,1.385-1.385A1.383,1.383,0,0,0,9.71,3.7Z" transform="translate(178.998 251)" fill="#6bb1fe" stroke="rgba(0,0,0,0)" stroke-miterlimit="10" stroke-width="1" opacity="0.5"/>
  </g>
  <g id="Group_5213" data-name="Group 5213" transform="translate(-1122 -905)">
    <path id="Exclusion_1" data-name="Exclusion 1" d="M23764,4565a5,5,0,1,1,3.535-1.464A4.957,4.957,0,0,1,23764,4565Zm-2.109-5.619a.26.26,0,0,0-.176.073l-.355.356a.252.252,0,0,0,0,.355l1.635,1.638a.262.262,0,0,0,.182.074.239.239,0,0,0,.176-.074l2.9-2.9a.233.233,0,0,0,.074-.176.242.242,0,0,0-.074-.18l-.355-.356a.252.252,0,0,0-.355,0l-2.363,2.362-1.105-1.1A.251.251,0,0,0,23761.891,4559.38Z" transform="translate(-22607 -3617)" fill="#2680eb"/>
  </g>
</svg>
