<svg xmlns="http://www.w3.org/2000/svg" width="17.025" height="15" viewBox="0 0 17.025 15">
  <path id="icon-unpin" d="M7140.078,11008.868l-.7-1.4a.215.215,0,0,1-.025-.106v-3.046h-3.984a.7.7,0,0,1-.7-.7,3.449,3.449,0,0,1,1.527-2.743l5.308,3.447h-.274v3.046a.214.214,0,0,1-.024.106l-.7,1.4a.228.228,0,0,1-.21.132A.232.232,0,0,1,7140.078,11008.868Zm-8.077-11.7,1.088-1.677,15.938,10.348-1.09,1.678Zm13.787,5.593h0Zm-8.306-5.4.057-.557h-.915l-1.023-.664v-1.446a.7.7,0,0,1,.7-.7h7.968a.7.7,0,0,1,.7.7v1.408a.7.7,0,0,1-.7.7h-1.236l.358,3.467a4.239,4.239,0,0,1,2.4,2.485Z" transform="translate(-7132 -10994)" fill="#80849c"/>
</svg>
