<svg xmlns="http://www.w3.org/2000/svg" xmlns:xlink="http://www.w3.org/1999/xlink" width="50" height="50" viewBox="0 0 50 50">
  <defs>
    <clipPath id="clip-path">
      <path id="Path_265" data-name="Path 265" d="M-344.627,31.833-352.44,36.8V32.97a1.349,1.349,0,0,0-2.071-1.137l-7.813,4.971V25.781a1.348,1.348,0,0,0-1.348-1.348h-6.29a1.348,1.348,0,0,0-1.348,1.348V48.243a1.348,1.348,0,0,0,1.348,1.348H-343.9a1.348,1.348,0,0,0,1.348-1.348V32.97A1.349,1.349,0,0,0-344.627,31.833Zm-17.058,12.293a.562.562,0,0,1-.562.562h-2.324a.562.562,0,0,1-.562-.562V41.8a.562.562,0,0,1,.562-.562h2.324a.562.562,0,0,1,.562.562Zm7.037,0a.562.562,0,0,1-.562.562h-2.324a.562.562,0,0,1-.562-.562V41.8a.562.562,0,0,1,.562-.562h2.324a.562.562,0,0,1,.562.562Zm7.037,0a.562.562,0,0,1-.562.562H-350.5a.562.562,0,0,1-.562-.562V41.8a.562.562,0,0,1,.562-.562h2.324a.562.562,0,0,1,.562.562Z" transform="translate(371.31 -24.433)" fill="#2680eb"/>
    </clipPath>
  </defs>
  <g id="icon-role-industri" transform="translate(-235 -276)">
    <circle id="Ellipse_1" data-name="Ellipse 1" cx="25" cy="25" r="25" transform="translate(235 276)" fill="#d9eeff"/>
    <path id="Path_254" data-name="Path 254" d="M-344.627,31.833-352.44,36.8V32.97a1.349,1.349,0,0,0-2.071-1.137l-7.813,4.971V25.781a1.348,1.348,0,0,0-1.348-1.348h-6.29a1.348,1.348,0,0,0-1.348,1.348V48.243a1.348,1.348,0,0,0,1.348,1.348H-343.9a1.348,1.348,0,0,0,1.348-1.348V32.97A1.349,1.349,0,0,0-344.627,31.833Zm-17.058,12.293a.562.562,0,0,1-.562.562h-2.324a.562.562,0,0,1-.562-.562V41.8a.562.562,0,0,1,.562-.562h2.324a.562.562,0,0,1,.562.562Zm7.037,0a.562.562,0,0,1-.562.562h-2.324a.562.562,0,0,1-.562-.562V41.8a.562.562,0,0,1,.562-.562h2.324a.562.562,0,0,1,.562.562Zm7.037,0a.562.562,0,0,1-.562.562H-350.5a.562.562,0,0,1-.562-.562V41.8a.562.562,0,0,1,.562-.562h2.324a.562.562,0,0,1,.562.562Z" transform="translate(616.467 263.953)" fill="#2680eb"/>
    <g id="Mask_Group_7" data-name="Mask Group 7" transform="translate(245.157 288.386)" clip-path="url(#clip-path)">
      <ellipse id="Ellipse_89" data-name="Ellipse 89" cx="24.5" cy="24" rx="24.5" ry="24" transform="translate(-30.156 -21.387)" fill="#6bb1fe" opacity="0.5"/>
    </g>
  </g>
</svg>
