<svg xmlns="http://www.w3.org/2000/svg" xmlns:xlink="http://www.w3.org/1999/xlink" width="60" height="60" viewBox="0 0 60 60">
  <defs>
    <clipPath id="clip-path">
      <path id="id-card-solid" d="M30.25,32H2.75A2.751,2.751,0,0,0,0,34.75v.917H33V34.75A2.751,2.751,0,0,0,30.25,32ZM0,54.917a2.751,2.751,0,0,0,2.75,2.75h27.5A2.751,2.751,0,0,0,33,54.917V37.5H0ZM20.167,41.625a.46.46,0,0,1,.458-.458h8.25a.46.46,0,0,1,.458.458v.917a.46.46,0,0,1-.458.458h-8.25a.46.46,0,0,1-.458-.458Zm0,3.667a.46.46,0,0,1,.458-.458h8.25a.46.46,0,0,1,.458.458v.917a.46.46,0,0,1-.458.458h-8.25a.46.46,0,0,1-.458-.458Zm0,3.667a.46.46,0,0,1,.458-.458h8.25a.46.46,0,0,1,.458.458v.917a.46.46,0,0,1-.458.458h-8.25a.46.46,0,0,1-.458-.458ZM10.083,41.167a3.667,3.667,0,1,1-3.667,3.667A3.67,3.67,0,0,1,10.083,41.167Zm-6.239,11.7a3.672,3.672,0,0,1,3.489-2.532H7.8a5.9,5.9,0,0,0,4.56,0h.47a3.672,3.672,0,0,1,3.489,2.532A.9.9,0,0,1,15.429,54H4.738A.9.9,0,0,1,3.844,52.866Z" transform="translate(40 1784)" fill="#2680eb"/>
    </clipPath>
  </defs>
  <g id="icon-nama-kontak" transform="translate(-26 -1799)">
    <circle id="Ellipse_380" data-name="Ellipse 380" cx="30" cy="30" r="30" transform="translate(26 1799)" fill="#d9eeff" opacity="0.4"/>
    <path id="id-card-solid-2" data-name="id-card-solid" d="M30.25,32H2.75A2.751,2.751,0,0,0,0,34.75v.917H33V34.75A2.751,2.751,0,0,0,30.25,32ZM0,54.917a2.751,2.751,0,0,0,2.75,2.75h27.5A2.751,2.751,0,0,0,33,54.917V37.5H0ZM20.167,41.625a.46.46,0,0,1,.458-.458h8.25a.46.46,0,0,1,.458.458v.917a.46.46,0,0,1-.458.458h-8.25a.46.46,0,0,1-.458-.458Zm0,3.667a.46.46,0,0,1,.458-.458h8.25a.46.46,0,0,1,.458.458v.917a.46.46,0,0,1-.458.458h-8.25a.46.46,0,0,1-.458-.458Zm0,3.667a.46.46,0,0,1,.458-.458h8.25a.46.46,0,0,1,.458.458v.917a.46.46,0,0,1-.458.458h-8.25a.46.46,0,0,1-.458-.458ZM10.083,41.167a3.667,3.667,0,1,1-3.667,3.667A3.67,3.67,0,0,1,10.083,41.167Zm-6.239,11.7a3.672,3.672,0,0,1,3.489-2.532H7.8a5.9,5.9,0,0,0,4.56,0h.47a3.672,3.672,0,0,1,3.489,2.532A.9.9,0,0,1,15.429,54H4.738A.9.9,0,0,1,3.844,52.866Z" transform="translate(40 1784)" fill="#2680eb"/>
    <g id="Mask_Group_1474" data-name="Mask Group 1474" clip-path="url(#clip-path)">
      <circle id="Ellipse_526" data-name="Ellipse 526" cx="21.302" cy="21.302" r="21.302" transform="translate(21.698 1794.698)" fill="#6bb1fe" opacity="0.5"/>
    </g>
  </g>
</svg>
