<svg xmlns="http://www.w3.org/2000/svg" width="60" height="60" viewBox="0 0 60 60">
  <g id="icon-keselarasan" transform="translate(-683 -523)">
    <circle id="Ellipse_673" data-name="Ellipse 673" cx="30" cy="30" r="30" transform="translate(683 523)" fill="#d9eeff" opacity="0.4"/>
    <path id="Subtraction_81" data-name="Subtraction 81" d="M10,20A10,10,0,0,1,2.93,2.928a10,10,0,0,1,14.143,0c.208.208.409.427.6.651L14.648,5.323a6.572,6.572,0,1,0,1.629,2.648l3-1.73A10,10,0,0,1,10,20Z" transform="translate(703 543)" fill="#2680eb"/>
    <path id="Subtraction_80" data-name="Subtraction 80" d="M16,32A16,16,0,0,1,9.771,1.258,15.987,15.987,0,0,1,27.313,4.687a16.155,16.155,0,0,1,1.611,1.877l-3.12,1.8a12.376,12.376,0,1,0,1.581,2.643l3.108-1.795c.091.195.174.382.249.558A16,16,0,0,1,16,32Z" transform="translate(697 537)" fill="#2680eb"/>
    <g id="Group_4298" data-name="Group 4298" transform="translate(711.303 551.01) rotate(-30)">
      <path id="Union_85" data-name="Union 85" d="M18.22,4.808,17.54,3.146H.771a.772.772,0,0,1,0-1.543H17.564L18.22,0h6.708l-.983,2.4h0l.982,2.4Z" fill="#2680eb"/>
    </g>
    <path id="Subtraction_82" data-name="Subtraction 82" d="M4,8A4,4,0,1,1,6.2.658L3.176,2.4A1.615,1.615,0,1,0,4.791,5.2L7.953,3.376A4,4,0,0,1,4,8Z" transform="translate(709 549)" fill="#2680eb"/>
    <path id="Intersection_17" data-name="Intersection 17" d="M21287.838,19842.6c-.1-.205-.189-.412-.279-.621a16.009,16.009,0,0,1,20.975-20.963q.545.231,1.068.5a21.362,21.362,0,0,1-.395,3.9,12.429,12.429,0,0,0-17.453,16.91,21.375,21.375,0,0,1-3.451.279C21288.146,19842.6,21287.992,19842.6,21287.838,19842.6Zm4.463-6.846a10,10,0,0,1,16.248-7.812,20.941,20.941,0,0,1-1.2,2.906l-.395.229a6.6,6.6,0,1,0-9.289,9.365,21.242,21.242,0,0,1-3.367,1.307A9.92,9.92,0,0,1,21292.3,19835.752Zm6,0a4,4,0,0,1,6.2-3.34l-3.025,1.746a1.613,1.613,0,0,0,.809,3.012,1.738,1.738,0,0,0,.246-.018,21.577,21.577,0,0,1-2.473,1.914A4,4,0,0,1,21298.3,19835.752Zm3.494.064a.765.765,0,0,1,.279-1.049l4.58-2.645a21.575,21.575,0,0,1-2.174,3.037l-1.631.939a.786.786,0,0,1-.385.107A.769.769,0,0,1,21301.795,19835.816Z" transform="translate(-20589.299 -19282.754)" fill="#6bb1fe" stroke="rgba(0,0,0,0)" stroke-miterlimit="10" stroke-width="1" opacity="0.5"/>
  </g>
</svg>
