<svg id="Pratinjau_Icon" data-name="Pratinjau Icon" xmlns="http://www.w3.org/2000/svg" width="48" height="48" viewBox="0 0 48 48">
  <circle id="Ellipse_37" data-name="Ellipse 37" cx="24" cy="24" r="24" fill="#fff" opacity="0.3"/>
  <path id="Subtraction_31" data-name="Subtraction 31" d="M15.341,25H1.022A.956.956,0,0,1,.3,24.656a1.256,1.256,0,0,1-.3-.83V1.172A1.255,1.255,0,0,1,.3.343.956.956,0,0,1,1.022,0H9.546V6.64a1.106,1.106,0,0,0,1.022,1.172h5.8v10.43l-3.6,2.971-.475,2.21a.477.477,0,0,0,.093.4.455.455,0,0,0,.359.175l2.223-.011,1.4-1.157v1a1.256,1.256,0,0,1-.3.83A.956.956,0,0,1,15.341,25ZM3.306,18.569a.714.714,0,0,0,0,1.428H9.582a.714.714,0,1,0,0-1.428Zm0-2.858a.714.714,0,0,0,0,1.428h9.779a.714.714,0,1,0,0-1.428Zm0-2.858a.714.714,0,0,0,0,1.428h9.779a.714.714,0,1,0,0-1.428Zm0-2.856a.714.714,0,0,0,0,1.428h9.779a.714.714,0,1,0,0-1.428Zm10.12,13.335h0a.287.287,0,0,1-.224-.108.3.3,0,0,1-.059-.251l.3-1.381,3.684-3.041,1.374,1.73L14.81,23.326Zm5.37-3.3h0l-1.374-1.729.75-.619a.571.571,0,0,1,.815.087l.645.813a.6.6,0,0,1-.086.831l-.749.618ZM16.364,6.249H10.91V0h.259a.955.955,0,0,1,.724.341l4.174,4.784a1.261,1.261,0,0,1,.3.826v.3Z" transform="translate(16.122 11.5)" fill="#fff"/>
</svg>
