<svg xmlns="http://www.w3.org/2000/svg" width="17.5" height="20" viewBox="0 0 17.5 20">
  <path id="Path_222" data-name="Path 222" d="M0,18.125A1.875,1.875,0,0,0,1.875,20h13.75A1.875,1.875,0,0,0,17.5,18.125V7.5H0Zm2.5-7.5A.627.627,0,0,1,3.125,10h3.75a.627.627,0,0,1,.625.625v3.75A.627.627,0,0,1,6.875,15H3.125a.627.627,0,0,1-.625-.625ZM15.625,2.5H13.75V.625A.627.627,0,0,0,13.125,0h-1.25a.627.627,0,0,0-.625.625V2.5h-5V.625A.627.627,0,0,0,5.625,0H4.375A.627.627,0,0,0,3.75.625V2.5H1.875A1.875,1.875,0,0,0,0,4.375V6.25H17.5V4.375A1.875,1.875,0,0,0,15.625,2.5Z" fill="#2680eb"/>
</svg>
