<svg id="icon-absen-hadir" xmlns="http://www.w3.org/2000/svg" width="50" height="50" viewBox="0 0 50 50">
  <path id="Path_230" data-name="Path 230" d="M25,0A25,25,0,1,1,0,25,25,25,0,0,1,25,0Z" fill="#d9eeff"/>
  <g id="Group_512" data-name="Group 512" transform="translate(-805.583 11.971)">
    <circle id="Ellipse_80" data-name="Ellipse 80" cx="6.577" cy="6.577" r="6.577" transform="translate(818.644 -0.036)" fill="#2680eb"/>
    <path id="Path_231" data-name="Path 231" d="M830.389,292.1a8.983,8.983,0,0,1,.932-3.969,6.824,6.824,0,0,0-1.26-.128h-.855a8.916,8.916,0,0,1-7.467,0h-.855A6.885,6.885,0,0,0,814,294.883v2.131a2.459,2.459,0,0,0,2.458,2.458h17.777A9.014,9.014,0,0,1,830.389,292.1Z" transform="translate(0 -273.244)" fill="#2680eb"/>
    <path id="Path_232" data-name="Path 232" d="M1174.875,224a7.375,7.375,0,1,0,7.375,7.375A7.371,7.371,0,0,0,1174.875,224Zm4.133,5.529-4.9,4.9a.426.426,0,0,1-.6,0l-2.768-2.768a.425.425,0,0,1,0-.6l.6-.6a.426.426,0,0,1,.6,0l1.865,1.865,3.994-3.994a.426.426,0,0,1,.6,0l.6.6A.426.426,0,0,1,1179.008,229.529Z" transform="translate(-335.395 -212.522)" fill="#2680eb"/>
  </g>
</svg>
