<svg xmlns="http://www.w3.org/2000/svg" xmlns:xlink="http://www.w3.org/1999/xlink" width="68" height="68" viewBox="0 0 68 68">
  <defs>
    <clipPath id="clip-path">
      <path id="Union_14" data-name="Union 14" d="M-10690.7,10820.5l4.689-5.36a3.323,3.323,0,0,0,.791-2.434l-2.768-22.219h13.279a3.273,3.273,0,0,1,3.21,3.277v23.525a3.213,3.213,0,0,1-3.21,3.21Zm14.254-9.86a1.071,1.071,0,0,0,1.5-.166,1.07,1.07,0,0,0-.166-1.5c-.836-.659-1.678-1.249-2.463-1.969a13.514,13.514,0,0,0,2.577-4.684h.285a1.069,1.069,0,0,0,1.07-1.067,1.069,1.069,0,0,0-1.07-1.07h-3.28v-1.069a1.068,1.068,0,0,0-1.067-1.07,1.071,1.071,0,0,0-1.07,1.07v1.069h-3.207a1.069,1.069,0,0,0-1.069,1.07,1.068,1.068,0,0,0,1.069,1.067h.285a13.49,13.49,0,0,0,2.5,4.684c-.785.72-1.553,1.31-2.39,1.969a1.07,1.07,0,0,0-.166,1.5,1.071,1.071,0,0,0,1.5.166c.907-.717,1.687-1.314,2.539-2.1C-10678.2,10809.326-10677.354,10809.924-10676.447,10810.641Zm-18.876,7.05-.182-1.467h5.621c-2.789,3.068-1.562,1.719-3.59,3.951A3.237,3.237,0,0,1-10695.323,10817.69Zm-9.469-3.606a3.211,3.211,0,0,1-3.207-3.207v-23.669a3.21,3.21,0,0,1,3.207-3.207h11.017a3.213,3.213,0,0,1,3.183,2.811c.014.113,3.251,26.11,3.248,26.227-.011.465-.271.69-.584,1.046Zm4.3-21.6-2.141,10.694a1.07,1.07,0,0,0,.84,1.258,1.064,1.064,0,0,0,1.26-.837l.682-3.419h3.025l.682,3.419a1.069,1.069,0,0,0,1.26.837,1.069,1.069,0,0,0,.839-1.258l-2.14-10.694a1.068,1.068,0,0,0-1.048-.857h-2.211A1.067,1.067,0,0,0-10700.493,10792.486Z" transform="translate(10750 -8297.002)" fill="#2680eb" stroke="rgba(0,0,0,0)" stroke-miterlimit="10" stroke-width="1"/>
    </clipPath>
  </defs>
  <g id="icon-profil-bahasa" transform="translate(-26 -2471)">
    <circle id="Ellipse_83" data-name="Ellipse 83" cx="34" cy="34" r="34" transform="translate(26 2471)" fill="#d9eeff" opacity="0.7"/>
    <path id="Path_252" data-name="Path 252" d="M442.16,201.513l-24.883-7.792a7,7,0,0,0-4.174,0l-24.884,7.792a2.151,2.151,0,0,0,0,4.145l4.338,1.358a7.246,7.246,0,0,0-1.6,4.264,2.833,2.833,0,0,0-.227,4.82l-2.277,10.445a1.448,1.448,0,0,0,1.393,1.77h5.005a1.448,1.448,0,0,0,1.394-1.77L393.971,216.1a2.826,2.826,0,0,0-.16-4.775,4.307,4.307,0,0,1,1.845-3.338l17.446,5.463a7.006,7.006,0,0,0,4.174,0l24.884-7.792a2.152,2.152,0,0,0,0-4.146Zm-24.046,14.719a9.806,9.806,0,0,1-5.851,0l-12.937-4.05L398.062,222.5c0,3.214,7.668,5.819,17.127,5.819s17.128-2.6,17.128-5.819l-1.265-10.316Z" transform="translate(-355.267 2293.965)" fill="none"/>
    <g id="Group_1276" data-name="Group 1276" transform="translate(50.325 2496.517)">
      <g id="Group_1275" data-name="Group 1275">
        <path id="Path_450" data-name="Path 450" d="M121.606,137h-.458l-.855,4.277h2.168Z" transform="translate(-120.293 -137)" fill="#2680eb"/>
      </g>
    </g>
    <g id="Group_1278" data-name="Group 1278" transform="translate(68.938 2505.071)">
      <g id="Group_1277" data-name="Group 1277">
        <path id="Path_451" data-name="Path 451" d="M381.374,257a11.175,11.175,0,0,0,1.756,3.1,11.289,11.289,0,0,0,1.827-3.1Z" transform="translate(-381.374 -257)" fill="#2680eb"/>
      </g>
    </g>
    <g id="Group_1279" data-name="Group 1279" transform="translate(-0.001 0.001)">
      <path id="Union_13" data-name="Union 13" d="M-10690.7,10820.5l4.689-5.36a3.323,3.323,0,0,0,.791-2.434l-2.768-22.219h13.279a3.273,3.273,0,0,1,3.21,3.277v23.525a3.213,3.213,0,0,1-3.21,3.21Zm14.254-9.86a1.071,1.071,0,0,0,1.5-.166,1.07,1.07,0,0,0-.166-1.5c-.836-.659-1.678-1.249-2.463-1.969a13.514,13.514,0,0,0,2.577-4.684h.285a1.069,1.069,0,0,0,1.07-1.067,1.069,1.069,0,0,0-1.07-1.07h-3.28v-1.069a1.068,1.068,0,0,0-1.067-1.07,1.071,1.071,0,0,0-1.07,1.07v1.069h-3.207a1.069,1.069,0,0,0-1.069,1.07,1.068,1.068,0,0,0,1.069,1.067h.285a13.49,13.49,0,0,0,2.5,4.684c-.785.72-1.553,1.31-2.39,1.969a1.07,1.07,0,0,0-.166,1.5,1.071,1.071,0,0,0,1.5.166c.907-.717,1.687-1.314,2.539-2.1C-10678.2,10809.326-10677.354,10809.924-10676.447,10810.641Zm-18.876,7.05-.182-1.467h5.621c-2.789,3.068-1.562,1.719-3.59,3.951A3.237,3.237,0,0,1-10695.323,10817.69Zm-9.469-3.606a3.211,3.211,0,0,1-3.207-3.207v-23.669a3.21,3.21,0,0,1,3.207-3.207h11.017a3.213,3.213,0,0,1,3.183,2.811c.014.113,3.251,26.11,3.248,26.227-.011.465-.271.69-.584,1.046Zm4.3-21.6-2.141,10.694a1.07,1.07,0,0,0,.84,1.258,1.064,1.064,0,0,0,1.26-.837l.682-3.419h3.025l.682,3.419a1.069,1.069,0,0,0,1.26.837,1.069,1.069,0,0,0,.839-1.258l-2.14-10.694a1.068,1.068,0,0,0-1.048-.857h-2.211A1.067,1.067,0,0,0-10700.493,10792.486Z" transform="translate(10750 -8297.002)" fill="#2680eb" stroke="rgba(0,0,0,0)" stroke-miterlimit="10" stroke-width="1"/>
      <g id="Mask_Group_1254" data-name="Mask Group 1254" clip-path="url(#clip-path)">
        <ellipse id="Ellipse_124" data-name="Ellipse 124" cx="22.497" cy="22.929" rx="22.497" ry="22.929" transform="translate(17.525 2471)" fill="#6bb1fe" opacity="0.5"/>
      </g>
    </g>
  </g>
</svg>
