<svg id="icon-laporan-keuangan-jurnal-umum" xmlns="http://www.w3.org/2000/svg" width="86" height="86" viewBox="0 0 86 86">
  <path id="Path_38567" data-name="Path 38567" d="M43,0A43,43,0,1,1,0,43,43,43,0,0,1,43,0Z" fill="#2680eb"/>
  <path id="coins-solid" d="M0,27.552v2.9c0,2.4,5.846,4.351,13.052,4.351S26.1,32.855,26.1,30.455v-2.9c-2.808,1.978-7.94,2.9-13.052,2.9S2.808,29.53,0,27.552ZM21.754,8.7c7.206,0,13.052-1.951,13.052-4.351S28.959,0,21.754,0,8.7,1.951,8.7,4.351,14.548,8.7,21.754,8.7ZM0,20.421v3.508c0,2.4,5.846,4.351,13.052,4.351S26.1,26.329,26.1,23.929V20.421c-2.808,2.311-7.947,3.508-13.052,3.508S2.808,22.732,0,20.421Zm28.28.748c3.9-.755,6.526-2.155,6.526-3.766V14.5a16.694,16.694,0,0,1-6.526,2.345ZM13.052,10.877C5.846,10.877,0,13.31,0,16.315s5.846,5.438,13.052,5.438S26.1,19.32,26.1,16.315,20.258,10.877,13.052,10.877ZM27.96,14.7c4.079-.734,6.846-2.175,6.846-3.827v-2.9c-2.413,1.706-6.56,2.624-10.924,2.842A7.613,7.613,0,0,1,27.96,14.7Z" transform="translate(25.597 25.597)" fill="#f4f4f7"/>
</svg>
