<svg xmlns="http://www.w3.org/2000/svg" width="15" height="15" viewBox="0 0 15 15">
  <g id="icon-warning-primary" transform="translate(-14.775 -3.275)">
    <circle id="Ellipse_79" data-name="Ellipse 79" cx="7.5" cy="7.5" r="7.5" transform="translate(14.775 3.275)" fill="#2680eb"/>
    <path id="Path_214" data-name="Path 214" d="M18.7,7.286a1.349,1.349,0,1,1-1.349-1.349A1.351,1.351,0,0,1,18.7,7.286ZM16.156.425l.229,4.588a.4.4,0,0,0,.4.385h1.119a.4.4,0,0,0,.4-.385L18.542.425a.4.4,0,0,0-.4-.425H16.56A.4.4,0,0,0,16.156.425Z" transform="translate(5.076 6.443)" fill="#fff"/>
  </g>
</svg>
