<svg xmlns="http://www.w3.org/2000/svg" xmlns:xlink="http://www.w3.org/1999/xlink" width="30" height="30" viewBox="0 0 30 30">
  <defs>
    <clipPath id="clip-path">
      <path id="Path_37334" data-name="Path 37334" d="M14.027,11.272V.751A.75.75,0,0,0,13.276,0H3.006A3.007,3.007,0,0,0,0,3.006V13.025a3.007,3.007,0,0,0,3.006,3.006h10.27a.75.75,0,0,0,.751-.751v-.5a.757.757,0,0,0-.279-.586,6.982,6.982,0,0,1,0-2.339.746.746,0,0,0,.279-.582ZM4.008,4.2A.188.188,0,0,1,4.2,4.008h6.638a.188.188,0,0,1,.188.188v.626a.188.188,0,0,1-.188.188H4.2a.188.188,0,0,1-.188-.188Zm0,2A.188.188,0,0,1,4.2,6.012h6.638a.188.188,0,0,1,.188.188v.626a.188.188,0,0,1-.188.188H4.2a.188.188,0,0,1-.188-.188Zm7.934,7.828H3.006a1,1,0,0,1,0-2h8.936A11.272,11.272,0,0,0,11.942,14.027Z" transform="translate(0 0)" fill="#2680eb"/>
    </clipPath>
  </defs>
  <g id="icon-kegiatan-materi" transform="translate(-792.407 -462.407)">
    <circle id="Ellipse_84" data-name="Ellipse 84" cx="15" cy="15" r="15" transform="translate(792.407 462.407)" fill="#d9eeff" opacity="0.5"/>
    <path id="Path_212" data-name="Path 212" d="M14.027,11.272V.751A.75.75,0,0,0,13.276,0H3.006A3.007,3.007,0,0,0,0,3.006V13.025a3.007,3.007,0,0,0,3.006,3.006h10.27a.75.75,0,0,0,.751-.751v-.5a.757.757,0,0,0-.279-.586,6.982,6.982,0,0,1,0-2.339.746.746,0,0,0,.279-.582ZM4.008,4.2A.188.188,0,0,1,4.2,4.008h6.638a.188.188,0,0,1,.188.188v.626a.188.188,0,0,1-.188.188H4.2a.188.188,0,0,1-.188-.188Zm0,2A.188.188,0,0,1,4.2,6.012h6.638a.188.188,0,0,1,.188.188v.626a.188.188,0,0,1-.188.188H4.2a.188.188,0,0,1-.188-.188Zm7.934,7.828H3.006a1,1,0,0,1,0-2h8.936A11.272,11.272,0,0,0,11.942,14.027Z" transform="translate(800.086 469.391)" fill="#2680eb"/>
    <g id="Mask_Group_1523" data-name="Mask Group 1523" transform="translate(800.086 469.391)" clip-path="url(#clip-path)">
      <ellipse id="Ellipse_628" data-name="Ellipse 628" cx="7.67" cy="7.669" rx="7.67" ry="7.669" transform="translate(-7.67 -4.008)" fill="#6bb1fe" opacity="0.5"/>
    </g>
  </g>
</svg>
