<svg xmlns="http://www.w3.org/2000/svg" xmlns:xlink="http://www.w3.org/1999/xlink" width="30" height="30" viewBox="0 0 30 30">
  <defs>
    <clipPath id="clip-path">
      <path id="tasks-solid" d="M4.807,32.092a.413.413,0,0,0-.585,0l-2.192,2.18-.781-.762a.413.413,0,0,0-.585,0l-.54.541a.413.413,0,0,0,0,.585L1.76,36.268a.44.44,0,0,0,.606,0l.537-.538,2.486-2.485a.416.416,0,0,0,0-.585Zm0,5.48a.413.413,0,0,0-.585,0L2.029,39.766l-.781-.761a.413.413,0,0,0-.585,0l-.54.54a.413.413,0,0,0,0,.585l1.634,1.635a.44.44,0,0,0,.606,0l.54-.54,2.486-2.486a.413.413,0,0,0,0-.582ZM2.2,43.539a1.653,1.653,0,1,0,0,3.3,1.652,1.652,0,1,0,0-3.3Zm14.872.551H7.161a.551.551,0,0,0-.551.551v1.1a.551.551,0,0,0,.551.551h9.915a.551.551,0,0,0,.551-.551v-1.1A.551.551,0,0,0,17.076,44.09Zm0-11.016H7.161a.551.551,0,0,0-.551.551v1.1a.551.551,0,0,0,.551.551h9.915a.551.551,0,0,0,.551-.551v-1.1A.551.551,0,0,0,17.076,33.073Zm0,5.508H7.161a.551.551,0,0,0-.551.551v1.1a.551.551,0,0,0,.551.551h9.915a.551.551,0,0,0,.551-.551v-1.1A.551.551,0,0,0,17.076,38.581Z" transform="translate(106.084 157.594)" fill="#2680eb"/>
    </clipPath>
  </defs>
  <g id="icon-alur-ppdb" transform="translate(-90 -182)">
    <circle id="Ellipse_675" data-name="Ellipse 675" cx="15" cy="15" r="15" transform="translate(90 182)" fill="#d9eeff" opacity="0.4"/>
    <g id="Group_3908" data-name="Group 3908" transform="translate(0.102)">
      <path id="tasks-solid-2" data-name="tasks-solid" d="M4.807,32.092a.413.413,0,0,0-.585,0l-2.192,2.18-.781-.762a.413.413,0,0,0-.585,0l-.54.541a.413.413,0,0,0,0,.585L1.76,36.268a.44.44,0,0,0,.606,0l.537-.538,2.486-2.485a.416.416,0,0,0,0-.585Zm0,5.48a.413.413,0,0,0-.585,0L2.029,39.766l-.781-.761a.413.413,0,0,0-.585,0l-.54.54a.413.413,0,0,0,0,.585l1.634,1.635a.44.44,0,0,0,.606,0l.54-.54,2.486-2.486a.413.413,0,0,0,0-.582ZM2.2,43.539a1.653,1.653,0,1,0,0,3.3,1.652,1.652,0,1,0,0-3.3Zm14.872.551H7.161a.551.551,0,0,0-.551.551v1.1a.551.551,0,0,0,.551.551h9.915a.551.551,0,0,0,.551-.551v-1.1A.551.551,0,0,0,17.076,44.09Zm0-11.016H7.161a.551.551,0,0,0-.551.551v1.1a.551.551,0,0,0,.551.551h9.915a.551.551,0,0,0,.551-.551v-1.1A.551.551,0,0,0,17.076,33.073Zm0,5.508H7.161a.551.551,0,0,0-.551.551v1.1a.551.551,0,0,0,.551.551h9.915a.551.551,0,0,0,.551-.551v-1.1A.551.551,0,0,0,17.076,38.581Z" transform="translate(96.084 157.594)" fill="#2680eb"/>
      <g id="Mask_Group_1541" data-name="Mask Group 1541" transform="translate(-10)" clip-path="url(#clip-path)">
        <ellipse id="Ellipse_677" data-name="Ellipse 677" cx="15.178" cy="15.177" rx="15.178" ry="15.177" transform="translate(89.021 170.912)" fill="#87beff" opacity="0.5"/>
      </g>
    </g>
  </g>
</svg>
