<svg id="icon-surat-keluar" xmlns="http://www.w3.org/2000/svg" xmlns:xlink="http://www.w3.org/1999/xlink" width="30" height="30" viewBox="0 0 30 30">
  <defs>
    <clipPath id="clip-path">
      <path id="Union_71" data-name="Union 71" d="M5.257,13.554A1.7,1.7,0,0,1,3.562,11.86v-.541A4.542,4.542,0,0,0,8.04,7.541l1.3.948c.745.544,2,1.687,3.254,1.68,1.26.011,2.541-1.158,3.258-1.68,3.6-2.616,4.645-3.4,5.436-4.013a.213.213,0,0,1,.342.166V11.86a1.7,1.7,0,0,1-1.694,1.694ZM0,6.777A3.562,3.562,0,1,1,3.562,10.34,3.562,3.562,0,0,1,0,6.777ZM3.17,4.871,1.421,6.619a.223.223,0,0,0,0,.314L3.17,8.683a.229.229,0,0,0,.392-.162V7.512H5.493a.276.276,0,0,0,.276-.276V6.317a.275.275,0,0,0-.276-.276H3.562V5.033a.229.229,0,0,0-.231-.23A.225.225,0,0,0,3.17,4.871ZM12.6,9.036c-.819.014-2-1.031-2.591-1.461C9.254,7.028,8.613,6.562,8.062,6.16a4.542,4.542,0,0,0-4.5-3.924V1.694A1.7,1.7,0,0,1,5.257,0H19.94a1.7,1.7,0,0,1,1.694,1.694v.671a.845.845,0,0,1-.325.667c-1.08.847-1.437,1.144-6.121,4.543C14.6,8,13.433,9.036,12.615,9.036Z" fill="#2680eb" stroke="rgba(0,0,0,0)" stroke-miterlimit="10" stroke-width="1"/>
    </clipPath>
  </defs>
  <circle id="Ellipse_302" data-name="Ellipse 302" cx="15" cy="15" r="15" fill="#d9eeff" opacity="0.4"/>
  <g id="Group_2779" data-name="Group 2779" transform="translate(4.183 8.222)">
    <path id="Union_68" data-name="Union 68" d="M5.257,13.554A1.7,1.7,0,0,1,3.562,11.86v-.541A4.542,4.542,0,0,0,8.04,7.541l1.3.948c.745.544,2,1.687,3.254,1.68,1.26.011,2.541-1.158,3.258-1.68,3.6-2.616,4.645-3.4,5.436-4.013a.213.213,0,0,1,.342.166V11.86a1.7,1.7,0,0,1-1.694,1.694ZM0,6.777A3.562,3.562,0,1,1,3.562,10.34,3.562,3.562,0,0,1,0,6.777ZM3.17,4.871,1.421,6.619a.223.223,0,0,0,0,.314L3.17,8.683a.229.229,0,0,0,.392-.162V7.512H5.493a.276.276,0,0,0,.276-.276V6.317a.275.275,0,0,0-.276-.276H3.562V5.033a.229.229,0,0,0-.231-.23A.225.225,0,0,0,3.17,4.871ZM12.6,9.036c-.819.014-2-1.031-2.591-1.461C9.254,7.028,8.613,6.562,8.062,6.16a4.542,4.542,0,0,0-4.5-3.924V1.694A1.7,1.7,0,0,1,5.257,0H19.94a1.7,1.7,0,0,1,1.694,1.694v.671a.845.845,0,0,1-.325.667c-1.08.847-1.437,1.144-6.121,4.543C14.6,8,13.433,9.036,12.615,9.036Z" fill="#2680eb" stroke="rgba(0,0,0,0)" stroke-miterlimit="10" stroke-width="1"/>
    <g id="Mask_Group_1430" data-name="Mask Group 1430" transform="translate(0 0.001)" clip-path="url(#clip-path)">
      <ellipse id="Ellipse_465" data-name="Ellipse 465" cx="7.895" cy="7.895" rx="7.895" ry="7.895" transform="translate(-2.287 -3.951)" fill="#6bb1fe" opacity="0.5"/>
    </g>
  </g>
</svg>
