<svg xmlns="http://www.w3.org/2000/svg" xmlns:xlink="http://www.w3.org/1999/xlink" width="50" height="50" viewBox="0 0 50 50">
  <defs>
    <clipPath id="clip-path">
      <path id="map-marker-alt-solid" d="M9.185,26.749C1.438,15.518,0,14.365,0,10.237a10.237,10.237,0,1,1,20.475,0c0,4.128-1.438,5.28-9.185,16.511a1.28,1.28,0,0,1-2.1,0ZM10.237,14.5a4.266,4.266,0,1,0-4.266-4.266A4.266,4.266,0,0,0,10.237,14.5Z" transform="translate(0)" fill="#2680eb"/>
    </clipPath>
  </defs>
  <g id="icon-gps" transform="translate(0.465 0.077)">
    <circle id="Ellipse_390" data-name="Ellipse 390" cx="25" cy="25" r="25" transform="translate(-0.465 -0.077)" fill="#d9eeff" opacity="0.4"/>
    <path id="map-marker-alt-solid-2" data-name="map-marker-alt-solid" d="M9.185,26.749C1.438,15.518,0,14.365,0,10.237a10.237,10.237,0,1,1,20.475,0c0,4.128-1.438,5.28-9.185,16.511a1.28,1.28,0,0,1-2.1,0ZM10.237,14.5a4.266,4.266,0,1,0-4.266-4.266A4.266,4.266,0,0,0,10.237,14.5Z" transform="translate(14.707 10.641)" fill="#2680eb"/>
    <g id="Mask_Group_1467" data-name="Mask Group 1467" transform="translate(14.707 10.641)" clip-path="url(#clip-path)">
      <circle id="Ellipse_519" data-name="Ellipse 519" cx="17.446" cy="17.446" r="17.446" transform="translate(-17.446 -14.17)" fill="#6bb1fe" opacity="0.5"/>
    </g>
  </g>
</svg>
