<svg xmlns="http://www.w3.org/2000/svg" xmlns:xlink="http://www.w3.org/1999/xlink" width="24" height="24" viewBox="0 0 24 24">
  <defs>
    <clipPath id="clip-path">
      <path id="Path_37252" data-name="Path 37252" d="M11.929,9.586V.639A.638.638,0,0,0,11.29,0H2.556A2.557,2.557,0,0,0,0,2.556v8.521a2.557,2.557,0,0,0,2.556,2.556H11.29a.638.638,0,0,0,.639-.639v-.426a.644.644,0,0,0-.237-.5,5.938,5.938,0,0,1,0-1.989.635.635,0,0,0,.237-.5ZM3.408,3.568a.16.16,0,0,1,.16-.16H9.213a.16.16,0,0,1,.16.16V4.1a.16.16,0,0,1-.16.16H3.568a.16.16,0,0,1-.16-.16Zm0,1.7a.16.16,0,0,1,.16-.16H9.213a.16.16,0,0,1,.16.16V5.8a.16.16,0,0,1-.16.16H3.568a.16.16,0,0,1-.16-.16Zm6.748,6.657h-7.6a.852.852,0,0,1,0-1.7h7.6A9.586,9.586,0,0,0,10.156,11.929Z" transform="translate(0 0)" fill="#2680eb"/>
    </clipPath>
  </defs>
  <g id="Group_5183" data-name="Group 5183" transform="translate(-889.773 -729.773)">
    <circle id="Ellipse_768" data-name="Ellipse 768" cx="12" cy="12" r="12" transform="translate(889.773 729.773)" fill="#eef5ff"/>
    <g id="Group_5075" data-name="Group 5075" transform="translate(895.494 734.709)">
      <path id="Path_212" data-name="Path 212" d="M11.929,9.586V.639A.638.638,0,0,0,11.29,0H2.556A2.557,2.557,0,0,0,0,2.556v8.521a2.557,2.557,0,0,0,2.556,2.556H11.29a.638.638,0,0,0,.639-.639v-.426a.644.644,0,0,0-.237-.5,5.938,5.938,0,0,1,0-1.989.635.635,0,0,0,.237-.5ZM3.408,3.568a.16.16,0,0,1,.16-.16H9.213a.16.16,0,0,1,.16.16V4.1a.16.16,0,0,1-.16.16H3.568a.16.16,0,0,1-.16-.16Zm0,1.7a.16.16,0,0,1,.16-.16H9.213a.16.16,0,0,1,.16.16V5.8a.16.16,0,0,1-.16.16H3.568a.16.16,0,0,1-.16-.16Zm6.748,6.657h-7.6a.852.852,0,0,1,0-1.7h7.6A9.586,9.586,0,0,0,10.156,11.929Z" transform="translate(0 0)" fill="#2680eb"/>
      <g id="Mask_Group_1525" data-name="Mask Group 1525" transform="translate(0 0)" clip-path="url(#clip-path)">
        <ellipse id="Ellipse_703" data-name="Ellipse 703" cx="7.433" cy="7.433" rx="7.433" ry="7.433" transform="translate(-7.398 -7.434)" fill="#6bb1fe" opacity="0.5"/>
      </g>
    </g>
  </g>
</svg>
