<svg id="icon-realisasi-keuangan" xmlns="http://www.w3.org/2000/svg" xmlns:xlink="http://www.w3.org/1999/xlink" width="86" height="86" viewBox="0 0 86 86">
  <defs>
    <clipPath id="clip-path">
      <path id="Path_256" data-name="Path 256" d="M1035.231,196.65h-6.815v8.177l-2.726-1.815-2.726,1.815V196.65h-6.815a1.367,1.367,0,0,0-1.363,1.363v16.355a1.367,1.367,0,0,0,1.363,1.363h19.081a1.367,1.367,0,0,0,1.363-1.363V198.012A1.367,1.367,0,0,0,1035.231,196.65Zm-31.6-3.118h19.081a1.315,1.315,0,0,0,1.363-1.252V177.254a1.315,1.315,0,0,0-1.363-1.252H1015.9v7.513l-2.726-1.667-2.726,1.667V176h-6.815a1.315,1.315,0,0,0-1.363,1.252v15.025A1.315,1.315,0,0,0,1003.631,193.531Zm6.562,3.118h-6.815v8.177l-2.726-1.815-2.726,1.815V196.65h-6.815a1.367,1.367,0,0,0-1.363,1.363v16.355a1.367,1.367,0,0,0,1.363,1.363h19.081a1.367,1.367,0,0,0,1.363-1.363V198.012A1.367,1.367,0,0,0,1010.193,196.65Z" transform="translate(-989.749 -176.002)" fill="#f4f4f7"/>
    </clipPath>
  </defs>
  <path id="Path_38567" data-name="Path 38567" d="M43,0A43,43,0,1,1,0,43,43,43,0,0,1,43,0Z" fill="#2680eb"/>
  <g id="icon-sarpras" transform="translate(-78.585 -87.389)">
    <g id="Group_607" data-name="Group 607" transform="translate(98.163 110.525)">
      <path id="Path_255" data-name="Path 255" d="M1035.231,196.65h-6.815v8.177l-2.726-1.815-2.726,1.815V196.65h-6.815a1.367,1.367,0,0,0-1.363,1.363v16.355a1.367,1.367,0,0,0,1.363,1.363h19.081a1.367,1.367,0,0,0,1.363-1.363V198.012A1.367,1.367,0,0,0,1035.231,196.65Zm-31.6-3.118h19.081a1.315,1.315,0,0,0,1.363-1.252V177.254a1.315,1.315,0,0,0-1.363-1.252H1015.9v7.513l-2.726-1.667-2.726,1.667V176h-6.815a1.315,1.315,0,0,0-1.363,1.252v15.025A1.315,1.315,0,0,0,1003.631,193.531Zm6.562,3.118h-6.815v8.177l-2.726-1.815-2.726,1.815V196.65h-6.815a1.367,1.367,0,0,0-1.363,1.363v16.355a1.367,1.367,0,0,0,1.363,1.363h19.081a1.367,1.367,0,0,0,1.363-1.363V198.012A1.367,1.367,0,0,0,1010.193,196.65Z" transform="translate(-989.749 -176.002)" fill="#f4f4f7"/>
      <g id="Group_606" data-name="Group 606" transform="translate(0 0)">
        <g id="Group_605" data-name="Group 605" clip-path="url(#clip-path)">
          <circle id="Ellipse_88" data-name="Ellipse 88" cx="24.447" cy="24.447" r="24.447" transform="translate(-21.536 -18.457)" fill="#f4f4f7" opacity="0.5"/>
        </g>
      </g>
    </g>
  </g>
</svg>
