<svg xmlns="http://www.w3.org/2000/svg" xmlns:xlink="http://www.w3.org/1999/xlink" width="68" height="68" viewBox="0 0 68 68">
  <defs>
    <clipPath id="clip-path">
      <path id="Path_481" data-name="Path 481" d="M1424.477,284.48c-1.385,2.77-13.63-6.789-23-6.789s-21.619,9.558-23,6.789a5.2,5.2,0,0,1-.279-2.689,35.982,35.982,0,0,1,2.366-8.333s11.521-6.627,20.918-6.627,20.918,6.627,20.918,6.627a36.009,36.009,0,0,1,2.365,8.333A5.2,5.2,0,0,1,1424.477,284.48Z" transform="translate(-1378.141 -266.83)" fill="#3c7ceb"/>
    </clipPath>
  </defs>
  <g id="icon-sd" transform="translate(-138 -648)">
    <circle id="Ellipse_132" data-name="Ellipse 132" cx="34" cy="34" r="34" transform="translate(138 648)" fill="#f9d5d4" opacity="0.65"/>
    <g id="Group_1490" data-name="Group 1490">
      <g id="Group_1318" data-name="Group 1318" transform="translate(148.669 661.61)">
        <g id="Group_1312" data-name="Group 1312" transform="translate(0)">
          <path id="Path_462" data-name="Path 462" d="M1476.743,62.486s.858-10.281-.268-13.823a18.95,18.95,0,0,0-7.62-10.339h0a28.241,28.241,0,0,0-18.476,0h0a19.424,19.424,0,0,0-7.774,10.836c-1.047,3.468-.114,13.326-.114,13.326,4.264-2.1,11.118-4.922,17.123-4.923S1472.478,60.388,1476.743,62.486Z" transform="translate(-1436.284 -36.77)" fill="#ededf4"/>
          <path id="Path_463" data-name="Path 463" d="M1403.751,74.967q0,.883.029,1.8l-.005.008-1.751,1.7-2.063.248s-.13-.648-.254-1.745h0c-.573-5.073-1.034-19.747,11.933-24.409C1411.543,52.644,1403.756,58.742,1403.751,74.967Z" transform="translate(-1397.537 -51.13)" fill="#d43f37"/>
          <path id="Path_464" data-name="Path 464" d="M1747.462,76.979c-.124,1.1-.253,1.745-.253,1.745l-2.064-.248-1.751-1.7-.005-.008q.031-.923.03-1.8c-.006-16.225-7.792-22.323-7.888-22.4C1748.5,57.232,1748.036,71.906,1747.462,76.979Z" transform="translate(-1702.959 -51.13)" fill="#d43f37"/>
          <path id="Path_465" data-name="Path 465" d="M1424.477,284.48c-1.385,2.77-13.63-6.789-23-6.789s-21.619,9.558-23,6.789a5.2,5.2,0,0,1-.279-2.689,35.982,35.982,0,0,1,2.366-8.333s11.521-6.627,20.918-6.627,20.918,6.627,20.918,6.627a36.009,36.009,0,0,1,2.365,8.333A5.2,5.2,0,0,1,1424.477,284.48Z" transform="translate(-1378.141 -245.863)" fill="#fc544b"/>
          <g id="Group_1311" data-name="Group 1311" transform="translate(16.794 5.551)">
            <path id="Path_466" data-name="Path 466" d="M1597.38,212.112a2.406,2.406,0,0,0,1.228.447l-.092-.6a3.152,3.152,0,0,1-1.088-.406,2.277,2.277,0,0,0-2.681.093l-.063.037-.063-.037a2.277,2.277,0,0,0-2.681-.093,3.151,3.151,0,0,1-1.088.406l-.092.6a2.409,2.409,0,0,0,1.228-.447,39.205,39.205,0,0,0,5.391,0Z" transform="translate(-1588.177 -200.824)" fill="#fff"/>
            <path id="Path_467" data-name="Path 467" d="M1597.963,220.2a2.548,2.548,0,0,1-1.391-.481,1.866,1.866,0,0,0-2.5.132l-.072.053-.072-.053a1.866,1.866,0,0,0-2.5-.132,2.548,2.548,0,0,1-1.391.481l-.03.2a2.246,2.246,0,0,0,1.284-.476,30.9,30.9,0,0,0,5.415,0,2.246,2.246,0,0,0,1.285.476l-.031-.2Z" transform="translate(-1587.494 -208.221)" fill="#f4f4f7"/>
            <path id="Path_468" data-name="Path 468" d="M1629.423,198.333c.06-.072.124-.144.19-.214s.161-.162.25-.239a1.872,1.872,0,0,1-.135-.245,2.479,2.479,0,0,1-.125-.339.47.47,0,0,1-.074-.055l-.008-.008-.1.132-.1-.132-.008.008a.474.474,0,0,1-.074.055,2.48,2.48,0,0,1-.125.339,1.856,1.856,0,0,1-.135.245c.089.077.172.157.25.239s.13.142.19.214Z" transform="translate(-1622.915 -188.16)" fill="#ffc107"/>
            <path id="Path_469" data-name="Path 469" d="M1631.451,212.163c-.062.016-.127.031-.195.046l-.068.086-.068-.086q-.1-.021-.195-.046.127.064.263.142.136-.078.263-.142Z" transform="translate(-1624.68 -201.73)" fill="#ffc107"/>
            <path id="Path_470" data-name="Path 470" d="M1655.693,148.416c-.073-.043-.145-.085-.217-.125l-.041-.008a.672.672,0,0,0-.412.1.6.6,0,0,0-.288.358.557.557,0,0,0-.013.066h0v0h0a1.477,1.477,0,0,0,.22.627,2.578,2.578,0,0,1,.354,1.147v.01h0a2.151,2.151,0,0,1-.548,1.413,1.758,1.758,0,0,1-.971.535,1.123,1.123,0,0,0,.318.2.732.732,0,0,0,.532,0l.077-.028.056.061a.8.8,0,0,0,.214.163,1.278,1.278,0,0,0,.8.1,1.572,1.572,0,0,0,.78-.365,2.591,2.591,0,0,1-.826.045l.023-.245a1.736,1.736,0,0,0,1.677-.645,1.521,1.521,0,0,0,.161-.3h0q.015-.038.028-.077a2.212,2.212,0,0,1-.688.189,4.25,4.25,0,0,1-.936,0l.024-.245a4.01,4.01,0,0,0,.882,0,1.617,1.617,0,0,0,.882-.342,1,1,0,0,0,.334-.674c0-.018,0-.036,0-.054a1.971,1.971,0,0,1-1.084.423,4.466,4.466,0,0,1-.649.028l0-.246a4.229,4.229,0,0,0,.615-.027,1.708,1.708,0,0,0,.97-.38,1.017,1.017,0,0,0,.316-.7,1.851,1.851,0,0,1-1.567.489l.021-.246A1.5,1.5,0,0,0,1658.3,149a1.266,1.266,0,0,0,.108-.24,1.281,1.281,0,0,0,.054-.246h0a1.573,1.573,0,0,0-.423-1.072l-.04-.058a1.485,1.485,0,0,1-.158,1.039.948.948,0,0,1-.166.2.968.968,0,0,1-.183.129h0c-.635.346-1.233,0-1.794-.334Z" transform="translate(-1645.45 -142.856)" fill="#ffc107"/>
            <path id="Path_471" data-name="Path 471" d="M1642.281,155.018a2.95,2.95,0,0,0,.566,1.615,2.47,2.47,0,0,0,.172.2,1.766,1.766,0,0,0-.129-1.036,2.35,2.35,0,0,0-.608-.782Z" transform="translate(-1635.002 -149.793)" fill="#ffc107"/>
            <path id="Path_472" data-name="Path 472" d="M1632.286,193.318l-.026-.015a1.216,1.216,0,0,1-.116-.077l-.055.038.094.043a.36.36,0,0,1,.063.037.365.365,0,0,1,.04-.025Z" transform="translate(-1625.739 -184.519)" fill="#ffc107"/>
            <path id="Path_473" data-name="Path 473" d="M1625.025,162.262a3.866,3.866,0,0,1-.6-1.523,2.618,2.618,0,0,0,.12,1.2,1.669,1.669,0,0,1,.074,1.021l-.235-.056a2.483,2.483,0,0,0-.258-1.116l-.046-.112a1.56,1.56,0,0,1-.064.395h0a1.27,1.27,0,0,1-.255.384.6.6,0,0,0-.2.368.983.983,0,0,0,.257.658.818.818,0,0,0,.1.092.731.731,0,0,0,.082.055,1.19,1.19,0,0,0,.154-.07.806.806,0,0,0,.156-.11l.082-.076.083.074a.954.954,0,0,0,.157.115.983.983,0,0,0,.124.061,1.487,1.487,0,0,0,.418-.609,1.311,1.311,0,0,0,.044-.151,1.08,1.08,0,0,0,.023-.149v0a1.607,1.607,0,0,0-.221-.452Z" transform="translate(-1617.993 -154.992)" fill="#fc544b"/>
            <path id="Path_474" data-name="Path 474" d="M1565.4,148.291c-.072.04-.144.083-.217.125-.56.329-1.159.68-1.794.334h0a.971.971,0,0,1-.183-.129.948.948,0,0,1-.166-.2,1.485,1.485,0,0,1-.158-1.039l-.04.058a1.572,1.572,0,0,0-.423,1.072h0a1.271,1.271,0,0,0,.162.486,1.5,1.5,0,0,0,1.547.651l.021.246a1.851,1.851,0,0,1-1.567-.489,1.016,1.016,0,0,0,.316.7,1.707,1.707,0,0,0,.97.38,4.229,4.229,0,0,0,.615.027l0,.246a4.462,4.462,0,0,1-.649-.028,1.971,1.971,0,0,1-1.084-.423c0,.018,0,.036,0,.054a1,1,0,0,0,.333.674,1.618,1.618,0,0,0,.883.342,4.01,4.01,0,0,0,.882,0l.024.245a4.249,4.249,0,0,1-.936,0,2.214,2.214,0,0,1-.688-.189c.009.026.018.051.028.077h0a1.528,1.528,0,0,0,.161.3,1.736,1.736,0,0,0,1.677.645l.023.245a2.589,2.589,0,0,1-.825-.045,1.57,1.57,0,0,0,.78.365,1.278,1.278,0,0,0,.8-.1.793.793,0,0,0,.214-.163l.056-.061.077.028a.732.732,0,0,0,.532,0,1.118,1.118,0,0,0,.318-.2,1.757,1.757,0,0,1-.97-.535,2.15,2.15,0,0,1-.548-1.413h0v-.01h0v-.007h0a2.59,2.59,0,0,1,.354-1.139,1.458,1.458,0,0,0,.219-.629.557.557,0,0,0-.013-.066.6.6,0,0,0-.288-.358.673.673,0,0,0-.412-.1l-.041.008Z" transform="translate(-1562.413 -142.856)" fill="#ffc107"/>
            <path id="Path_475" data-name="Path 475" d="M1617.164,156.633a2.949,2.949,0,0,0,.566-1.615,2.353,2.353,0,0,0-.608.782,1.766,1.766,0,0,0-.129,1.036,2.4,2.4,0,0,0,.172-.2Z" transform="translate(-1611.994 -149.793)" fill="#ffc107"/>
            <path id="Path_476" data-name="Path 476" d="M1627.26,129.669h0l.551.6.551-.6a.236.236,0,0,0,.039-.225.264.264,0,0,0-.018-.046h0a.255.255,0,0,0-.025-.04h0l-.546-.68-.546.68a.269.269,0,0,0-.047.236.2.2,0,0,0,.016.041.165.165,0,0,0,.023.034Z" transform="translate(-1621.304 -125.853)" fill="#ffc107"/>
            <path id="Path_477" data-name="Path 477" d="M1602.845,144.343l-.432-.468,0,.75c0,.085,0,.166-.006.244a3.2,3.2,0,0,1-.618,1.785,1.427,1.427,0,0,1-.827.612h-.025a.223.223,0,0,1-.1-.04.412.412,0,0,1-.072-.064.837.837,0,0,1-.2-.559v0h0a2.21,2.21,0,0,1,.1-.467,1.04,1.04,0,0,0-.086-1.048.624.624,0,0,0-.744-.182,1,1,0,0,1,.155.073.846.846,0,0,1,.4.508.773.773,0,0,1,.019.1,1.537,1.537,0,0,1-.243.77,2.419,2.419,0,0,0-.329,1.027v.016a1.906,1.906,0,0,0,.482,1.252,1.549,1.549,0,0,0,1.2.49h.008l.062,0,.038.048a1.745,1.745,0,0,0,.516.452,2.191,2.191,0,0,0,.442.187l-.025-.026a3.076,3.076,0,0,0-.315-.29l-.095-.075.073-.1a1.54,1.54,0,0,0,.175-.295,2.277,2.277,0,0,0,.125-.353l.016-.058.056-.023a.2.2,0,0,0,.06-.039.357.357,0,0,0,.056-.067l.057-.086c-.021.013-.042.026-.064.038a1.467,1.467,0,0,1-.244.1l-.093-.006-.021-.011a.966.966,0,0,1-.148-.095,1.086,1.086,0,0,1-.13-.12,1.234,1.234,0,0,1-.321-.826.781.781,0,0,1,.258-.528,1.083,1.083,0,0,0,.211-.31h0a1.471,1.471,0,0,0,.049-.333,1.475,1.475,0,0,1,.1-.508l.214.022a1.3,1.3,0,0,1,.368-1.07l.2.123,0,.007h0a2.631,2.631,0,0,0,.518,1.913,1.375,1.375,0,0,1,.254.593v0a1.271,1.271,0,0,1-.029.184,1.47,1.47,0,0,1-.053.18,1.726,1.726,0,0,1-.551.764l-.052.039-.037-.012h0a.2.2,0,0,0,.06.039l.056.023.016.058a2.252,2.252,0,0,0,.125.353,1.527,1.527,0,0,0,.175.295l.073.1-.095.075a3.076,3.076,0,0,0-.315.29l-.025.026a2.2,2.2,0,0,0,.442-.187,1.745,1.745,0,0,0,.516-.452l.038-.048.062,0h.008a1.548,1.548,0,0,0,1.2-.49,1.9,1.9,0,0,0,.482-1.252v-.009a2.4,2.4,0,0,0-.329-1.033,1.563,1.563,0,0,1-.244-.765h0v0h0a.874.874,0,0,1,.019-.1.847.847,0,0,1,.4-.508.989.989,0,0,1,.155-.073.624.624,0,0,0-.744.182,1.041,1.041,0,0,0-.086,1.048,2.209,2.209,0,0,1,.1.467h0v0a.839.839,0,0,1-.2.559.421.421,0,0,1-.072.064.224.224,0,0,1-.1.04h-.025a1.428,1.428,0,0,1-.827-.612,3.2,3.2,0,0,1-.618-1.785q-.006-.116-.006-.244l0-.75-.432.468-.091.1-.091-.1Z" transform="translate(-1596.428 -139.665)" fill="#f9ac50"/>
            <path id="Path_478" data-name="Path 478" d="M1604.58,99.838h0l.628,3.437a3.036,3.036,0,0,1,.664-.693l-.006-.965a.353.353,0,0,1-.022-.037.456.456,0,0,1-.037-.09.523.523,0,0,1,.092-.458l.642-.8.1-.119.1.119.642.8h0l0,0a.486.486,0,0,1,.052.08h0a.521.521,0,0,1,.035.087.493.493,0,0,1-.056.413l-.006.965a3.032,3.032,0,0,1,.665.693l.628-3.437h0a2.1,2.1,0,0,1,.252-.73.709.709,0,0,1,.242-.243.483.483,0,0,1,.175-.059,1.359,1.359,0,0,0-.283-.221.42.42,0,0,0-.274-.065.343.343,0,0,0-.213.159,1.581,1.581,0,0,0-.21.6l-.347,1.868-.243-.041.414-2.6c.024-.149-.113-.22-.277-.3a1.989,1.989,0,0,1-.289-.172l-.289,2.571-.245-.014.023-2.359c0-.125-.077-.175-.171-.235a.321.321,0,0,0-.641,0c-.093.06-.172.11-.171.235l.023,2.359-.245.014-.289-2.571a1.976,1.976,0,0,1-.289.172c-.163.085-.3.156-.277.3l.414,2.6-.242.041-.347-1.868a1.578,1.578,0,0,0-.21-.6.342.342,0,0,0-.213-.159.42.42,0,0,0-.275.065,1.349,1.349,0,0,0-.282.221.481.481,0,0,1,.174.059.709.709,0,0,1,.242.243,2.093,2.093,0,0,1,.252.73Z" transform="translate(-1600.13 -97.682)" fill="#ffc107"/>
          </g>
        </g>
      </g>
      <g id="Mask_Group_1258" data-name="Mask Group 1258" transform="translate(148.669 682.577)" clip-path="url(#clip-path)">
        <circle id="Ellipse_133" data-name="Ellipse 133" cx="18" cy="18" r="18" transform="translate(-12.669 -17.577)" fill="#f9d5d4" opacity="0.25"/>
      </g>
    </g>
  </g>
</svg>
