<svg xmlns="http://www.w3.org/2000/svg" xmlns:xlink="http://www.w3.org/1999/xlink" width="50" height="50" viewBox="0 0 50 50">
  <defs>
    <clipPath id="clip-path">
      <path id="Union_4" data-name="Union 4" d="M17.333,32V28.32a10.2,10.2,0,0,0,6.933-2.756V31.1a.886.886,0,0,1-.867.9ZM10.4,32V27.817a3.678,3.678,0,0,0,.074-6.195.865.865,0,0,1,.793-.544h3.466a.865.865,0,0,1,.793.544,3.677,3.677,0,0,0,.074,6.195V32ZM2.6,32a.885.885,0,0,1-.867-.9V25.531A10.088,10.088,0,0,0,8.667,28.32V32Zm13-7.3a1.778,1.778,0,0,1,1.734-1.81,5.335,5.335,0,0,0,5.2-5.431.868.868,0,1,0-1.734,0,3.557,3.557,0,0,1-3.466,3.621c-.053,0-.1.018-.156.018a2.6,2.6,0,0,0-2.444-1.828H13a3.624,3.624,0,0,0,0-7.242,3.624,3.624,0,0,0,0,7.242H11.267A2.6,2.6,0,0,0,8.823,21.1c-.052,0-.1-.018-.156-.018A3.557,3.557,0,0,1,5.2,17.457a.867.867,0,1,0-1.733,0,5.334,5.334,0,0,0,5.2,5.431,1.812,1.812,0,0,1,0,3.621,8.55,8.55,0,0,1-6.783-3.418A9.509,9.509,0,0,1,0,17.457a7.1,7.1,0,0,1,6.933-7.242h4.334A2.621,2.621,0,0,1,13,10.9a2.624,2.624,0,0,1,1.734-.688h4.334A7.091,7.091,0,0,1,26,17.457a9.545,9.545,0,0,1-2.273,6.128,8.535,8.535,0,0,1-6.394,2.925A1.779,1.779,0,0,1,15.6,24.7Zm-4.333-9.052A1.735,1.735,0,1,1,13,17.457,1.772,1.772,0,0,1,11.267,15.646Zm2.6-11.06A4.492,4.492,0,0,1,18.2,0a4.492,4.492,0,0,1,4.333,4.586A4.437,4.437,0,0,1,18.2,9.112,4.438,4.438,0,0,1,13.866,4.586Zm-10.4,0A4.491,4.491,0,0,1,7.8,0a4.491,4.491,0,0,1,4.333,4.586A4.437,4.437,0,0,1,7.8,9.112,4.437,4.437,0,0,1,3.467,4.586Z" transform="translate(-0.148 0.273)" fill="#2680eb"/>
    </clipPath>
  </defs>
  <g id="icon-role-orang-tua" transform="translate(-235 -276)">
    <circle id="Ellipse_1" data-name="Ellipse 1" cx="25" cy="25" r="25" transform="translate(235 276)" fill="#d9eeff"/>
    <path id="Union_1" data-name="Union 1" d="M17.333,32V28.32a10.2,10.2,0,0,0,6.933-2.756V31.1a.886.886,0,0,1-.867.9ZM10.4,32V27.817a3.678,3.678,0,0,0,.074-6.195.865.865,0,0,1,.793-.544h3.466a.865.865,0,0,1,.793.544,3.677,3.677,0,0,0,.074,6.195V32ZM2.6,32a.885.885,0,0,1-.867-.9V25.531A10.088,10.088,0,0,0,8.667,28.32V32Zm13-7.3a1.778,1.778,0,0,1,1.734-1.81,5.335,5.335,0,0,0,5.2-5.431.868.868,0,1,0-1.734,0,3.557,3.557,0,0,1-3.466,3.621c-.053,0-.1.018-.156.018a2.6,2.6,0,0,0-2.444-1.828H13a3.624,3.624,0,0,0,0-7.242,3.624,3.624,0,0,0,0,7.242H11.267A2.6,2.6,0,0,0,8.823,21.1c-.052,0-.1-.018-.156-.018A3.557,3.557,0,0,1,5.2,17.457a.867.867,0,1,0-1.733,0,5.334,5.334,0,0,0,5.2,5.431,1.812,1.812,0,0,1,0,3.621,8.55,8.55,0,0,1-6.783-3.418A9.509,9.509,0,0,1,0,17.457a7.1,7.1,0,0,1,6.933-7.242h4.334A2.621,2.621,0,0,1,13,10.9a2.624,2.624,0,0,1,1.734-.688h4.334A7.091,7.091,0,0,1,26,17.457a9.545,9.545,0,0,1-2.273,6.128,8.535,8.535,0,0,1-6.394,2.925A1.779,1.779,0,0,1,15.6,24.7Zm-4.333-9.052A1.735,1.735,0,1,1,13,17.457,1.772,1.772,0,0,1,11.267,15.646Zm2.6-11.06A4.492,4.492,0,0,1,18.2,0a4.492,4.492,0,0,1,4.333,4.586A4.437,4.437,0,0,1,18.2,9.112,4.438,4.438,0,0,1,13.866,4.586Zm-10.4,0A4.491,4.491,0,0,1,7.8,0a4.491,4.491,0,0,1,4.333,4.586A4.437,4.437,0,0,1,7.8,9.112,4.437,4.437,0,0,1,3.467,4.586Z" transform="translate(247 285)" fill="#2680eb"/>
    <g id="Mask_Group_6" data-name="Mask Group 6" transform="translate(247.148 284.726)" clip-path="url(#clip-path)">
      <ellipse id="Ellipse_87" data-name="Ellipse 87" cx="32" cy="31.5" rx="32" ry="31.5" transform="translate(-47.148 -26.727)" fill="#6bb1fe" opacity="0.5"/>
    </g>
  </g>
</svg>
