<svg xmlns="http://www.w3.org/2000/svg" width="42" height="42" viewBox="0 0 42 42">
  <g id="icon-ujian-warning" transform="translate(-1012 -199.5)">
    <circle id="Ellipse_56" data-name="Ellipse 56" cx="21" cy="21" r="21" transform="translate(1012 199.5)" fill="#fc544b"/>
    <path id="Union_46" data-name="Union 46" d="M5394.152,23750.455a2.154,2.154,0,0,1-2.152-2.15v-11.66a.534.534,0,0,1,.536-.535h19.015a.537.537,0,0,1,.536.535v11.66a2.154,2.154,0,0,1-2.152,2.15Zm-1.616-15.783a.534.534,0,0,1-.536-.535v-1.615a2.154,2.154,0,0,1,2.152-2.152h2.151v-2.33a.535.535,0,0,1,.537-.537h1.794a.534.534,0,0,1,.537.537v2.33h5.74v-2.33a.539.539,0,0,1,.542-.537h1.788a.54.54,0,0,1,.542.537v2.33h2.151a2.154,2.154,0,0,1,2.152,2.152v1.615a.537.537,0,0,1-.536.535Z" transform="translate(-4369.001 -23518.004)" fill="#fff" stroke="rgba(0,0,0,0)" stroke-miterlimit="10" stroke-width="1"/>
    <path id="Path_37240" data-name="Path 37240" d="M18.7,7.286a1.349,1.349,0,1,1-1.349-1.349A1.351,1.351,0,0,1,18.7,7.286ZM16.156.425l.229,4.588a.4.4,0,0,0,.4.385h1.119a.4.4,0,0,0,.4-.385L18.542.425a.4.4,0,0,0-.4-.425H16.56A.4.4,0,0,0,16.156.425Z" transform="translate(1016 220.5)" fill="#fc544b"/>
  </g>
</svg>
