<svg xmlns="http://www.w3.org/2000/svg" xmlns:xlink="http://www.w3.org/1999/xlink" width="21" height="24" viewBox="0 0 21 24">
  <defs>
    <clipPath id="clip-path">
      <path id="Path_37243" data-name="Path 37243" d="M21,16.875V1.125A1.122,1.122,0,0,0,19.875,0H4.5A4.5,4.5,0,0,0,0,4.5v15A4.5,4.5,0,0,0,4.5,24H19.875A1.122,1.122,0,0,0,21,22.875v-.75a1.134,1.134,0,0,0-.417-.877,10.453,10.453,0,0,1,0-3.5A1.117,1.117,0,0,0,21,16.875ZM6,6.281A.282.282,0,0,1,6.281,6h9.938a.282.282,0,0,1,.281.281v.938a.282.282,0,0,1-.281.281H6.281A.282.282,0,0,1,6,7.219Zm0,3A.282.282,0,0,1,6.281,9h9.938a.282.282,0,0,1,.281.281v.938a.282.282,0,0,1-.281.281H6.281A.282.282,0,0,1,6,10.219ZM17.878,21H4.5a1.5,1.5,0,0,1,0-3H17.878A16.875,16.875,0,0,0,17.878,21Z" transform="translate(214 762.107)" fill="#2680eb"/>
    </clipPath>
  </defs>
  <g id="icon-materi-bottomnav-active" transform="translate(-5536 -18559)">
    <path id="Path_37242" data-name="Path 37242" d="M21,16.875V1.125A1.122,1.122,0,0,0,19.875,0H4.5A4.5,4.5,0,0,0,0,4.5v15A4.5,4.5,0,0,0,4.5,24H19.875A1.122,1.122,0,0,0,21,22.875v-.75a1.134,1.134,0,0,0-.417-.877,10.453,10.453,0,0,1,0-3.5A1.117,1.117,0,0,0,21,16.875ZM6,6.281A.282.282,0,0,1,6.281,6h9.938a.282.282,0,0,1,.281.281v.938a.282.282,0,0,1-.281.281H6.281A.282.282,0,0,1,6,7.219Zm0,3A.282.282,0,0,1,6.281,9h9.938a.282.282,0,0,1,.281.281v.938a.282.282,0,0,1-.281.281H6.281A.282.282,0,0,1,6,10.219ZM17.878,21H4.5a1.5,1.5,0,0,1,0-3H17.878A16.875,16.875,0,0,0,17.878,21Z" transform="translate(5536 18559)" fill="#2680eb"/>
    <g id="Mask_Group_1500" data-name="Mask Group 1500" transform="translate(5322 17796.893)" clip-path="url(#clip-path)">
      <circle id="Ellipse_548" data-name="Ellipse 548" cx="25.554" cy="25.554" r="25.554" transform="translate(176.119 738.447)" fill="#6bb1fe" opacity="0.5"/>
    </g>
  </g>
</svg>
