<svg xmlns="http://www.w3.org/2000/svg" xmlns:xlink="http://www.w3.org/1999/xlink" width="80" height="80" viewBox="0 0 80 80">
  <defs>
    <clipPath id="clip-path">
      <path id="Path_260" data-name="Path 260" d="M1559.865,190.541V179.982a2.233,2.233,0,0,0-2.211-2.211,2.206,2.206,0,0,0-1.38.485l-5.873,4.7a16.765,16.765,0,0,1-10.429,3.657h-13.262a4.42,4.42,0,0,0-4.421,4.421v6.631a4.42,4.42,0,0,0,4.421,4.421h2.328a16.835,16.835,0,0,0-.151,2.21,17.5,17.5,0,0,0,1.766,7.663,2.167,2.167,0,0,0,1.962,1.178h5.131a2.2,2.2,0,0,0,1.789-3.492,8.8,8.8,0,0,1-1.806-5.349,8.359,8.359,0,0,1,.3-2.21h1.94a16.763,16.763,0,0,1,10.428,3.657l5.873,4.7a2.209,2.209,0,0,0,3.59-1.725V198.156a4.384,4.384,0,0,0,0-7.615Z" transform="translate(-1522.29 -177.771)" fill="none"/>
    </clipPath>
  </defs>
  <g id="icon-publikasi" transform="translate(-368 -462)">
    <circle id="Ellipse_83" data-name="Ellipse 83" cx="40" cy="40" r="40" transform="translate(368 462)" fill="#d9eeff" opacity="0.7"/>
    <g id="Group_613" data-name="Group 613" transform="translate(388.107 484.316)">
      <path id="Path_259" data-name="Path 259" d="M1559.865,190.541V179.982a2.233,2.233,0,0,0-2.211-2.211,2.206,2.206,0,0,0-1.38.485l-5.873,4.7a16.765,16.765,0,0,1-10.429,3.657h-13.262a4.42,4.42,0,0,0-4.421,4.421v6.631a4.42,4.42,0,0,0,4.421,4.421h2.328a16.835,16.835,0,0,0-.151,2.21,17.5,17.5,0,0,0,1.766,7.663,2.167,2.167,0,0,0,1.962,1.178h5.131a2.2,2.2,0,0,0,1.789-3.492,8.8,8.8,0,0,1-1.806-5.349,8.359,8.359,0,0,1,.3-2.21h1.94a16.763,16.763,0,0,1,10.428,3.657l5.873,4.7a2.209,2.209,0,0,0,3.59-1.725V198.156a4.384,4.384,0,0,0,0-7.615Z" transform="translate(-1522.29 -177.771)" fill="#2680eb"/>
      <g id="Group_612" data-name="Group 612" transform="translate(0 0)">
        <g id="Group_611" data-name="Group 611" clip-path="url(#clip-path)">
          <circle id="Ellipse_90" data-name="Ellipse 90" cx="16.716" cy="16.716" r="16.716" transform="translate(-10.039 -4.762)" fill="#6bb1fe" opacity="0.5"/>
        </g>
      </g>
    </g>
  </g>
</svg>
