<svg xmlns="http://www.w3.org/2000/svg" width="15.75" height="18" viewBox="0 0 15.75 18">
  <path id="icon-bank-soal" d="M544.064,12.656V.844A.842.842,0,0,0,543.22,0H531.689a3.376,3.376,0,0,0-3.375,3.375v11.25A3.376,3.376,0,0,0,531.689,18H543.22a.842.842,0,0,0,.844-.844v-.563a.85.85,0,0,0-.313-.657,7.838,7.838,0,0,1,0-2.626A.838.838,0,0,0,544.064,12.656Zm-10.8-8.962a3.3,3.3,0,0,1,2.931-1.55,2.926,2.926,0,0,1,2.988,2.616c0,1.975-2.133,2.005-2.133,2.735v.1a.409.409,0,0,1-.409.409h-1.234A.409.409,0,0,1,535,7.594V7.427c0-1.053.8-1.474,1.4-1.812.517-.29.834-.487.834-.871,0-.508-.648-.845-1.172-.845a1.652,1.652,0,0,0-1.409.842.409.409,0,0,1-.566.071l-.735-.557A.409.409,0,0,1,533.266,3.695Zm3.94,5.989a1.18,1.18,0,1,1-1.18-1.18A1.181,1.181,0,0,1,537.206,9.684Zm4.517,6.066H531.689a1.125,1.125,0,0,1,0-2.25h10.034A12.661,12.661,0,0,0,541.723,15.75Z" transform="translate(-528.314 0)" fill="#2680eb"/>
</svg>
