<svg xmlns="http://www.w3.org/2000/svg" width="35" height="35" viewBox="0 0 35 35">
  <g id="Group_4758" data-name="Group 4758" transform="translate(-431 -398)">
    <circle id="Ellipse_61" data-name="Ellipse 61" cx="17.5" cy="17.5" r="17.5" transform="translate(431 398)" fill="#fff" opacity="0.4"/>
    <path id="Path_252" data-name="Path 252" d="M3.15,2.1h14.7V13.65h2.1V1.312A1.314,1.314,0,0,0,18.638,0H2.363A1.314,1.314,0,0,0,1.05,1.312V13.65h2.1ZM20.475,14.7H15.75V12.6H9.45v2.1H.525A.525.525,0,0,0,0,15.225v1.05a.525.525,0,0,0,.525.525h19.95A.525.525,0,0,0,21,16.275v-1.05A.525.525,0,0,0,20.475,14.7Z" transform="translate(438 407.9)" fill="#51d868"/>
  </g>
</svg>
