<svg xmlns="http://www.w3.org/2000/svg" xmlns:xlink="http://www.w3.org/1999/xlink" width="50" height="50" viewBox="0 0 50 50">
  <defs>
    <clipPath id="clip-path">
      <path id="Path_37338" data-name="Path 37338" d="M16.491,64H2.345A2.345,2.345,0,0,0,0,66.345V80.491a2.345,2.345,0,0,0,2.345,2.345H16.491a2.345,2.345,0,0,0,2.345-2.345V66.345A2.345,2.345,0,0,0,16.491,64Zm9.29,1.849-5.376,3.708v7.721l5.376,3.7a1.573,1.573,0,0,0,2.472-1.266v-12.6A1.574,1.574,0,0,0,25.782,65.849Z" transform="translate(0 -64)" fill="#2680eb"/>
    </clipPath>
  </defs>
  <g id="icon-nav-kegiatan-tatap-maya" transform="translate(-948 -316)">
    <circle id="Ellipse_629" data-name="Ellipse 629" cx="25" cy="25" r="25" transform="translate(948 316)" fill="#fff" opacity="0.5"/>
    <path id="Path_37337" data-name="Path 37337" d="M16.491,64H2.345A2.345,2.345,0,0,0,0,66.345V80.491a2.345,2.345,0,0,0,2.345,2.345H16.491a2.345,2.345,0,0,0,2.345-2.345V66.345A2.345,2.345,0,0,0,16.491,64Zm9.29,1.849-5.376,3.708v7.721l5.376,3.7a1.573,1.573,0,0,0,2.472-1.266v-12.6A1.574,1.574,0,0,0,25.782,65.849Z" transform="translate(959 268)" fill="#2680eb"/>
    <g id="Mask_Group_1524" data-name="Mask Group 1524" transform="translate(959 332)" clip-path="url(#clip-path)">
      <ellipse id="Ellipse_630" data-name="Ellipse 630" cx="18.775" cy="18.775" rx="18.775" ry="18.775" transform="translate(-21.626 -18.775)" fill="#6bb1fe" opacity="0.5"/>
    </g>
  </g>
</svg>
