<svg id="icon-analisis-soal-ujian" xmlns="http://www.w3.org/2000/svg" width="86" height="86" viewBox="0 0 86 86">
  <path id="Path_38567" data-name="Path 38567" d="M43,0A43,43,0,1,1,0,43,43,43,0,0,1,43,0Z" fill="#2680eb"/>
  <path id="Subtraction_193" data-name="Subtraction 193" d="M30.023,47.2H4.29A4.364,4.364,0,0,1,0,42.771V10.323A4.364,4.364,0,0,1,4.29,5.9h7.148A5.818,5.818,0,0,1,17.155,0a5.818,5.818,0,0,1,5.72,5.9h7.148a4.363,4.363,0,0,1,4.288,4.425V42.771A4.363,4.363,0,0,1,30.023,47.2Zm-9.882-14.2v.619a.916.916,0,0,0,.258.643l3.662,3.777a.865.865,0,0,0,.624.267.855.855,0,0,0,.621-.267l1.04-1.071a.937.937,0,0,0,0-1.288l-3.662-3.777a.856.856,0,0,0-.624-.267h-.6a7.951,7.951,0,0,0,1.615-4.849,7.77,7.77,0,0,0-7.636-7.88,7.883,7.883,0,0,0,0,15.759A7.411,7.411,0,0,0,20.136,33ZM17.155,3.686A2.181,2.181,0,0,0,15.013,5.9a2.145,2.145,0,1,0,4.288,0A2.182,2.182,0,0,0,17.155,3.686ZM15.441,31.627a4.851,4.851,0,0,1,0-9.7,4.851,4.851,0,0,1,0,9.7Z" transform="translate(25.844 19.402)" fill="#fff" stroke="rgba(0,0,0,0)" stroke-miterlimit="10" stroke-width="1"/>
</svg>
