<svg xmlns="http://www.w3.org/2000/svg" width="45" height="45" viewBox="0 0 45 45">
  <g id="icon-file-xls" transform="translate(-16 -11.5)">
    <path id="Path_485" data-name="Path 485" d="M22.5,0A22.5,22.5,0,1,1,0,22.5,22.5,22.5,0,0,1,22.5,0Z" transform="translate(16 11.5)" fill="#2680eb" opacity="0.3"/>
    <g id="xls" transform="translate(-6 19.468)">
      <path id="Path_2540" data-name="Path 2540" d="M97.754,0A1.759,1.759,0,0,0,96,1.754V26.311a1.759,1.759,0,0,0,1.754,1.754h17.541a1.759,1.759,0,0,0,1.754-1.754V7.016L110.032,0Z" transform="translate(-60.492)" fill="#e2e5e7"/>
      <path id="Path_2541" data-name="Path 2541" d="M353.754,7.016h5.262L352,0V5.262A1.759,1.759,0,0,0,353.754,7.016Z" transform="translate(-302.459)" fill="#b0b7bd"/>
      <path id="Path_2542" data-name="Path 2542" d="M389.262,133.262,384,128h5.262Z" transform="translate(-332.705 -120.984)" fill="#cad1d8"/>
      <path id="Path_2543" data-name="Path 2543" d="M53.049,249.647a.88.88,0,0,1-.877.877H32.877a.88.88,0,0,1-.877-.877v-8.77a.88.88,0,0,1,.877-.877H52.172a.88.88,0,0,1,.877.877Z" transform="translate(0 -226.845)" fill="#84bd5a"/>
      <g id="Group_1914" data-name="Group 1914" transform="translate(36.014 15.973)">
        <path id="Path_2544" data-name="Path 2544" d="M107.37,296.751l1.22-1.529c.365-.477,1.073.132.674.589-.42.5-.862,1.038-1.283,1.592l1.43,1.781a.46.46,0,1,1-.764.511l-1.291-1.655-1.269,1.691c-.358.511-1.151-.063-.751-.54l1.409-1.788c-.442-.554-.87-1.094-1.3-1.592a.454.454,0,1,1,.7-.574Z" transform="translate(-105.226 -294.844)" fill="#fff"/>
        <path id="Path_2545" data-name="Path 2545" d="M197.36,295.772a.437.437,0,0,1,.442-.428.428.428,0,0,1,.414.428v3.513h1.908a.463.463,0,1,1,0,.918H197.8a.424.424,0,0,1-.442-.427v-4Z" transform="translate(-192.31 -295.128)" fill="#fff"/>
        <path id="Path_2546" data-name="Path 2546" d="M270.628,292.682c.161-1.361,2.215-1.606,3.184-.862a.411.411,0,1,1-.449.687c-.519-.329-1.7-.483-1.844.245-.189,1.151,2.861.492,2.812,2.357-.049,1.781-2.629,1.822-3.6,1.024a.518.518,0,0,1-.1-.688.414.414,0,0,1,.624-.048c.574.392,2.055.687,2.159-.31C273.327,294.051,270.41,294.674,270.628,292.682Z" transform="translate(-261.485 -291.407)" fill="#fff"/>
      </g>
      <path id="Path_2547" data-name="Path 2547" d="M112.664,416.877H96v.877h16.664a.88.88,0,0,0,.877-.877V416A.88.88,0,0,1,112.664,416.877Z" transform="translate(-60.492 -393.197)" fill="#cad1d8"/>
    </g>
  </g>
</svg>
