<svg xmlns="http://www.w3.org/2000/svg" xmlns:xlink="http://www.w3.org/1999/xlink" width="60" height="60" viewBox="0 0 60 60">
  <defs>
    <clipPath id="clip-path">
      <path id="globe-solid" d="M20.353,17.194C19.476,11.792,17.407,8,15,8s-4.476,3.792-5.353,9.194ZM9.194,23a37.91,37.91,0,0,0,.2,3.871H20.6A37.911,37.911,0,0,0,20.8,23a37.911,37.911,0,0,0-.2-3.871H9.393A37.911,37.911,0,0,0,9.194,23Zm19.639-5.806a15.032,15.032,0,0,0-9.556-8.565A20.414,20.414,0,0,1,22.3,17.194ZM10.718,8.629a15.022,15.022,0,0,0-9.55,8.565H7.7A20.331,20.331,0,0,1,10.718,8.629Zm18.762,10.5H22.542c.127,1.27.2,2.571.2,3.871s-.073,2.6-.2,3.871h6.931A14.871,14.871,0,0,0,29.994,23a15.131,15.131,0,0,0-.514-3.871ZM7.258,23c0-1.3.073-2.6.2-3.871H.52a14.664,14.664,0,0,0,0,7.742H7.452C7.331,25.6,7.258,24.3,7.258,23Zm2.389,5.806C10.524,34.208,12.593,38,15,38s4.476-3.792,5.353-9.194Zm9.635,8.565a15.046,15.046,0,0,0,9.556-8.565H22.306A20.414,20.414,0,0,1,19.282,37.371ZM1.167,28.806a15.032,15.032,0,0,0,9.556,8.565A20.414,20.414,0,0,1,7.7,28.806H1.167Z" transform="translate(184 704)" fill="#2680eb"/>
    </clipPath>
  </defs>
  <g id="icon-website" transform="translate(-169 -697)">
    <circle id="Ellipse_388" data-name="Ellipse 388" cx="30" cy="30" r="30" transform="translate(169 697)" fill="#d9eeff" opacity="0.4"/>
    <g id="Group_4114" data-name="Group 4114">
      <path id="globe-solid-2" data-name="globe-solid" d="M20.353,17.194C19.476,11.792,17.407,8,15,8s-4.476,3.792-5.353,9.194ZM9.194,23a37.91,37.91,0,0,0,.2,3.871H20.6A37.911,37.911,0,0,0,20.8,23a37.911,37.911,0,0,0-.2-3.871H9.393A37.911,37.911,0,0,0,9.194,23Zm19.639-5.806a15.032,15.032,0,0,0-9.556-8.565A20.414,20.414,0,0,1,22.3,17.194ZM10.718,8.629a15.022,15.022,0,0,0-9.55,8.565H7.7A20.331,20.331,0,0,1,10.718,8.629Zm18.762,10.5H22.542c.127,1.27.2,2.571.2,3.871s-.073,2.6-.2,3.871h6.931A14.871,14.871,0,0,0,29.994,23a15.131,15.131,0,0,0-.514-3.871ZM7.258,23c0-1.3.073-2.6.2-3.871H.52a14.664,14.664,0,0,0,0,7.742H7.452C7.331,25.6,7.258,24.3,7.258,23Zm2.389,5.806C10.524,34.208,12.593,38,15,38s4.476-3.792,5.353-9.194Zm9.635,8.565a15.046,15.046,0,0,0,9.556-8.565H22.306A20.414,20.414,0,0,1,19.282,37.371ZM1.167,28.806a15.032,15.032,0,0,0,9.556,8.565A20.414,20.414,0,0,1,7.7,28.806H1.167Z" transform="translate(184 704)" fill="#2680eb"/>
      <g id="Mask_Group_1464" data-name="Mask Group 1464" clip-path="url(#clip-path)">
        <circle id="Ellipse_516" data-name="Ellipse 516" cx="21.302" cy="21.302" r="21.302" transform="translate(162.698 696)" fill="#6bb1fe" opacity="0.5"/>
      </g>
    </g>
  </g>
</svg>
