<svg xmlns="http://www.w3.org/2000/svg" xmlns:xlink="http://www.w3.org/1999/xlink" width="30" height="30" viewBox="0 0 30 30">
  <defs>
    <clipPath id="clip-path">
      <path id="address-book-solid" d="M14.057,5.158a.388.388,0,0,0,.387-.387V3.482a.388.388,0,0,0-.387-.387h-.645V1.548A1.548,1.548,0,0,0,11.864,0H1.548A1.548,1.548,0,0,0,0,1.548V14.959a1.548,1.548,0,0,0,1.548,1.548H11.864a1.548,1.548,0,0,0,1.548-1.548V13.412h.645a.388.388,0,0,0,.387-.387v-1.29a.388.388,0,0,0-.387-.387h-.645V9.285h.645a.388.388,0,0,0,.387-.387V7.609a.388.388,0,0,0-.387-.387h-.645V5.158ZM6.706,4.127A2.063,2.063,0,1,1,4.643,6.19,2.065,2.065,0,0,1,6.706,4.127Zm3.611,7.634a.676.676,0,0,1-.722.619H3.817a.676.676,0,0,1-.722-.619v-.619A2.03,2.03,0,0,1,5.262,9.285h.161a3.321,3.321,0,0,0,2.566,0H8.15a2.03,2.03,0,0,1,2.167,1.857Z" fill="#2680eb"/>
    </clipPath>
  </defs>
  <g id="icon-pengaturan-kontak" transform="translate(-90 -139)">
    <circle id="Ellipse_673" data-name="Ellipse 673" cx="15" cy="15" r="15" transform="translate(90 139)" fill="#d9eeff" opacity="0.4"/>
    <g id="Group_5324" data-name="Group 5324" transform="translate(-0.716 -0.818)">
      <path id="address-book-solid-2" data-name="address-book-solid" d="M14.057,5.158a.388.388,0,0,0,.387-.387V3.482a.388.388,0,0,0-.387-.387h-.645V1.548A1.548,1.548,0,0,0,11.864,0H1.548A1.548,1.548,0,0,0,0,1.548V14.959a1.548,1.548,0,0,0,1.548,1.548H11.864a1.548,1.548,0,0,0,1.548-1.548V13.412h.645a.388.388,0,0,0,.387-.387v-1.29a.388.388,0,0,0-.387-.387h-.645V9.285h.645a.388.388,0,0,0,.387-.387V7.609a.388.388,0,0,0-.387-.387h-.645V5.158ZM6.706,4.127A2.063,2.063,0,1,1,4.643,6.19,2.065,2.065,0,0,1,6.706,4.127Zm3.611,7.634a.676.676,0,0,1-.722.619H3.817a.676.676,0,0,1-.722-.619v-.619A2.03,2.03,0,0,1,5.262,9.285h.161a3.321,3.321,0,0,0,2.566,0H8.15a2.03,2.03,0,0,1,2.167,1.857Z" transform="translate(98.494 146.566)" fill="#2680eb"/>
      <g id="Mask_Group_1593" data-name="Mask Group 1593" transform="translate(98.494 146.566)" clip-path="url(#clip-path)">
        <ellipse id="Ellipse_754" data-name="Ellipse 754" cx="16.848" cy="16.848" rx="16.848" ry="16.848" transform="translate(-19.396 -20.708)" fill="#87beff" opacity="0.5"/>
      </g>
    </g>
  </g>
</svg>
