<svg xmlns="http://www.w3.org/2000/svg" xmlns:xlink="http://www.w3.org/1999/xlink" width="60" height="60" viewBox="0 0 60 60">
  <defs>
    <clipPath id="clip-path">
      <path id="hand-holding-solid" d="M32.893,320.471a1.926,1.926,0,0,0-2.479,0l-5.376,4.3a3.7,3.7,0,0,1-2.327.815H15.827a.931.931,0,0,1,0-1.862h4.556a1.937,1.937,0,0,0,1.938-1.548A1.864,1.864,0,0,0,20.482,320h-9.31a6.848,6.848,0,0,0-4.312,1.53l-2.706,2.194H.931a.934.934,0,0,0-.931.931v5.586a.934.934,0,0,0,.931.931H21.692a3.729,3.729,0,0,0,2.327-.815l8.8-7.041A1.861,1.861,0,0,0,32.893,320.471Z" transform="translate(183.24 297.414)" fill="#2680eb"/>
    </clipPath>
  </defs>
  <g id="icon-layanan" transform="translate(-170 -593)">
    <g id="Group_3274" data-name="Group 3274">
      <circle id="Ellipse_387" data-name="Ellipse 387" cx="30" cy="30" r="30" transform="translate(170 593)" fill="#d9eeff" opacity="0.4"/>
      <path id="Union_136" data-name="Union 136" d="M21270.93,19284.373a.936.936,0,0,1-.932-.936v-5.582a.931.931,0,0,1,.932-.93h3.223l2.707-2.193a6.829,6.829,0,0,1,4.314-1.533h9.309a1.862,1.862,0,0,1,1.838,2.176,1.934,1.934,0,0,1-1.936,1.551h-4.561a.93.93,0,0,0,0,1.859h6.887a3.7,3.7,0,0,0,2.326-.812l5.379-4.3a1.92,1.92,0,0,1,2.475,0,1.855,1.855,0,0,1-.074,2.844l-8.795,7.041a3.743,3.743,0,0,1-2.332.818Zm24.357-10.453.027-.139a3.455,3.455,0,0,0-.027-2.17c-.357-1.027-1.914-1.08-2.219-1.08H21280.9a.787.787,0,0,1-.145-.455v-14.281a.8.8,0,0,1,.8-.791h3.721a.783.783,0,0,1,.791.791v6.518l4.625-2.936a.794.794,0,0,1,1.225.674v2.262l4.619-2.936a.794.794,0,0,1,1.225.674v11.9l-2.471,1.967v.006Zm-2.561-8.65v1.375a.333.333,0,0,0,.332.33h1.379a.333.333,0,0,0,.332-.33v-1.375a.334.334,0,0,0-.332-.332h-1.379A.334.334,0,0,0,21292.727,19265.27Zm-4.154,0v1.375a.329.329,0,0,0,.332.33h1.375a.328.328,0,0,0,.33-.33v-1.375a.333.333,0,0,0-.33-.332h-1.375A.334.334,0,0,0,21288.572,19265.27Zm-4.164,0v1.375a.33.33,0,0,0,.336.33h1.369a.329.329,0,0,0,.332-.33v-1.375a.334.334,0,0,0-.332-.332h-1.369A.334.334,0,0,0,21284.408,19265.27Z" transform="translate(-21086.758 -18644.578)" fill="#2680eb"/>
      <path id="Intersection_16" data-name="Intersection 16" d="M21290.236,19288.531a.933.933,0,0,1,.932-.932h3.221l2.709-2.193a6.836,6.836,0,0,1,4.313-1.531h4.391a19,19,0,0,1-15.564,10.086Zm10.9-7.326a.782.782,0,0,1-.145-.455v-14.277a.8.8,0,0,1,.8-.793h3.719l.049,0q.4.712.744,1.463v5.846l1.469-.934a19.272,19.272,0,0,1,.227,2.945,18.954,18.954,0,0,1-1.037,6.2Zm3.506-5.26v1.375a.332.332,0,0,0,.338.332h1.369a.331.331,0,0,0,.332-.332v-1.375a.333.333,0,0,0-.332-.332h-1.369A.334.334,0,0,0,21304.643,19275.945Z" transform="translate(-21106.994 -18655.254)" fill="#6bb1fe" stroke="rgba(0,0,0,0)" stroke-miterlimit="10" stroke-width="1" opacity="0.5"/>
    </g>
  </g>
</svg>
