<svg xmlns="http://www.w3.org/2000/svg" width="40" height="40" viewBox="0 0 40 40">
  <g id="Group_5218" data-name="Group 5218" transform="translate(-16.002 -16)">
    <path id="Path_485" data-name="Path 485" d="M20,0A20,20,0,1,1,0,20,20,20,0,0,1,20,0Z" transform="translate(16.002 16)" fill="#2680eb" opacity="0.3"/>
    <g id="link" transform="translate(25.002 25)">
      <path id="Path_535" data-name="Path 535" d="M191.937,1.45a4.951,4.951,0,0,1,0,7l-4.08,4.081a4.953,4.953,0,0,1-8.182-1.883l.087-.087c-.087.087,1.53-1.562,1.53-1.562l1.532,1.562a2.168,2.168,0,0,0,3.063,0l4.081-4.081a2.166,2.166,0,0,0-3.063-3.063l-3.994,3.994-1.618.658-1.618-.658a4.933,4.933,0,0,1,1.179-1.883l4.081-4.08A4.951,4.951,0,0,1,191.937,1.45Z" transform="translate(-172.26 0)" fill="#eef5ff"/>
      <path id="Path_536" data-name="Path 536" d="M10.651,173.385a4.966,4.966,0,0,1,3.063,3.063l-.087.087a2.168,2.168,0,0,1-3.063,0,2.169,2.169,0,0,0-3.063,0L3.42,180.615a2.166,2.166,0,0,0,3.063,3.063l3.994-3.994a4.974,4.974,0,0,0,3.236,0,4.931,4.931,0,0,1-1.18,1.883l-4.08,4.081a4.952,4.952,0,1,1-7-7l4.081-4.08a4.948,4.948,0,0,1,5.12-1.18Z" transform="translate(0.001 -165.971)" fill="#4890fe"/>
    </g>
  </g>
</svg>
