<svg id="icon-ujian-penerimaan-ppdb" xmlns="http://www.w3.org/2000/svg" xmlns:xlink="http://www.w3.org/1999/xlink" width="30" height="30" viewBox="0 0 30 30">
  <defs>
    <clipPath id="clip-path">
      <path id="Subtraction_57" data-name="Subtraction 57" d="M11.423,18.612H.761a.709.709,0,0,1-.539-.255A.935.935,0,0,1,0,17.74V.872A.938.938,0,0,1,.222.255.712.712,0,0,1,.761,0H7.107V4.944a.824.824,0,0,0,.762.872h4.315v7.767L9.5,15.8l-.354,1.644a.358.358,0,0,0,.068.3.341.341,0,0,0,.268.131l1.655-.009L12.184,17v.743a.931.931,0,0,1-.223.617A.709.709,0,0,1,11.423,18.612ZM2.462,13.826a.531.531,0,1,0,0,1.063H7.134a.531.531,0,1,0,0-1.063Zm0-2.128a.531.531,0,1,0,0,1.063H9.743a.531.531,0,1,0,0-1.063Zm0-2.128a.531.531,0,1,0,0,1.063H9.743a.531.531,0,1,0,0-1.063Zm0-2.127a.532.532,0,0,0,0,1.064H9.743a.532.532,0,1,0,0-1.064ZM10,17.374h0a.213.213,0,0,1-.166-.079.224.224,0,0,1-.045-.188l.221-1.028,2.742-2.264L13.771,15.1l-2.744,2.266Zm4-2.455h0L12.971,13.63l.558-.461a.426.426,0,0,1,.607.065l.481.6a.446.446,0,0,1-.064.619l-.557.46ZM12.184,4.652H8.123V0h.193a.711.711,0,0,1,.539.254l3.108,3.562a.943.943,0,0,1,.221.616v.22Z" transform="translate(0 0)" fill="#2680eb"/>
    </clipPath>
  </defs>
  <circle id="Ellipse_629" data-name="Ellipse 629" cx="15" cy="15" r="15" fill="#d9eeff" opacity="0.4"/>
  <g id="Group_4288" data-name="Group 4288" transform="translate(-460.479 -453.306)">
    <path id="Subtraction_31" data-name="Subtraction 31" d="M11.423,18.612H.761a.709.709,0,0,1-.539-.255A.935.935,0,0,1,0,17.74V.872A.938.938,0,0,1,.222.255.712.712,0,0,1,.761,0H7.107V4.944a.824.824,0,0,0,.762.872h4.315v7.767L9.5,15.8l-.354,1.644a.358.358,0,0,0,.068.3.341.341,0,0,0,.268.131l1.655-.009L12.184,17v.743a.931.931,0,0,1-.223.617A.709.709,0,0,1,11.423,18.612ZM2.462,13.826a.531.531,0,1,0,0,1.063H7.134a.531.531,0,1,0,0-1.063Zm0-2.128a.531.531,0,1,0,0,1.063H9.743a.531.531,0,1,0,0-1.063Zm0-2.128a.531.531,0,1,0,0,1.063H9.743a.531.531,0,1,0,0-1.063Zm0-2.127a.532.532,0,0,0,0,1.064H9.743a.532.532,0,1,0,0-1.064ZM10,17.374h0a.213.213,0,0,1-.166-.079.224.224,0,0,1-.045-.188l.221-1.028,2.742-2.264L13.771,15.1l-2.744,2.266Zm4-2.455h0L12.971,13.63l.558-.461a.426.426,0,0,1,.607.065l.481.6a.446.446,0,0,1-.064.619l-.557.46ZM12.184,4.652H8.123V0h.193a.711.711,0,0,1,.539.254l3.108,3.562a.943.943,0,0,1,.221.616v.22Z" transform="translate(469.122 459)" fill="#2680eb"/>
    <g id="Mask_Group_1526" data-name="Mask Group 1526" transform="translate(469.122 459)" clip-path="url(#clip-path)">
      <circle id="Ellipse_647" data-name="Ellipse 647" cx="8.549" cy="8.549" r="8.549" transform="translate(-11.259 -5.956)" fill="#6bb1fe" stroke="rgba(0,0,0,0)" stroke-miterlimit="10" stroke-width="1" opacity="0.5"/>
    </g>
  </g>
</svg>
