<svg id="icon-rencana-keuangan" xmlns="http://www.w3.org/2000/svg" width="86" height="86" viewBox="0 0 86 86">
  <path id="Path_38567" data-name="Path 38567" d="M43,0A43,43,0,1,1,0,43,43,43,0,0,1,43,0Z" fill="#2680eb"/>
  <path id="clipboard-list-solid" d="M32.156,6.125H24.5a6.125,6.125,0,0,0-12.25,0H4.594A4.6,4.6,0,0,0,0,10.719V44.406A4.6,4.6,0,0,0,4.594,49H32.156a4.6,4.6,0,0,0,4.594-4.594V10.719A4.6,4.6,0,0,0,32.156,6.125ZM9.188,40.578a2.3,2.3,0,1,1,2.3-2.3A2.291,2.291,0,0,1,9.188,40.578Zm0-9.187a2.3,2.3,0,1,1,2.3-2.3A2.291,2.291,0,0,1,9.188,31.391Zm0-9.187a2.3,2.3,0,1,1,2.3-2.3A2.291,2.291,0,0,1,9.188,22.2ZM18.375,3.828a2.3,2.3,0,1,1-2.3,2.3A2.291,2.291,0,0,1,18.375,3.828Zm12.25,35.219a.768.768,0,0,1-.766.766H16.078a.768.768,0,0,1-.766-.766V37.516a.768.768,0,0,1,.766-.766H29.859a.768.768,0,0,1,.766.766Zm0-9.187a.768.768,0,0,1-.766.766H16.078a.768.768,0,0,1-.766-.766V28.328a.768.768,0,0,1,.766-.766H29.859a.768.768,0,0,1,.766.766Zm0-9.187a.768.768,0,0,1-.766.766H16.078a.768.768,0,0,1-.766-.766V19.141a.768.768,0,0,1,.766-.766H29.859a.768.768,0,0,1,.766.766Z" transform="translate(24.625 18.5)" fill="#f4f4f7"/>
</svg>
