<svg xmlns="http://www.w3.org/2000/svg" xmlns:xlink="http://www.w3.org/1999/xlink" width="24" height="24" viewBox="0 0 24 24">
  <defs>
    <clipPath id="clip-path">
      <path id="user-solid" d="M5.247,6a3,3,0,1,0-3-3A3,3,0,0,0,5.247,6Zm2.1.75H6.955a4.078,4.078,0,0,1-3.416,0H3.148A3.149,3.149,0,0,0,0,9.9v.975a1.125,1.125,0,0,0,1.124,1.124H9.37a1.125,1.125,0,0,0,1.124-1.124V9.9A3.149,3.149,0,0,0,7.346,6.747Z" fill="#2680eb"/>
    </clipPath>
  </defs>
  <g id="icon-pendaftar-jalur-pendaftaran" transform="translate(-169.994 -592.994)">
    <g id="Group_3274" data-name="Group 3274" transform="translate(170 593)">
      <circle id="Ellipse_387" data-name="Ellipse 387" cx="12" cy="12" r="12" transform="translate(-0.006 -0.006)" fill="#eef5ff"/>
      <path id="user-solid-2" data-name="user-solid" d="M5.247,6a3,3,0,1,0-3-3A3,3,0,0,0,5.247,6Zm2.1.75H6.955a4.078,4.078,0,0,1-3.416,0H3.148A3.149,3.149,0,0,0,0,9.9v.975a1.125,1.125,0,0,0,1.124,1.124H9.37a1.125,1.125,0,0,0,1.124-1.124V9.9A3.149,3.149,0,0,0,7.346,6.747Z" transform="translate(6.797 5.997)" fill="#2680eb"/>
    </g>
    <g id="Mask_Group_1461" data-name="Mask Group 1461" transform="translate(176.797 598.997)" clip-path="url(#clip-path)">
      <path id="Path_37171" data-name="Path 37171" d="M7.557,0c4.173,0,8.219,3.643,8.219,7.817.943,1.83-.838,1.6-1.237,2.635A7.558,7.558,0,1,1,7.557,0Z" transform="translate(-6.797 -5.21)" fill="#6bb1fe" opacity="0.5"/>
    </g>
  </g>
</svg>
