<svg xmlns="http://www.w3.org/2000/svg" xmlns:xlink="http://www.w3.org/1999/xlink" width="68" height="68" viewBox="0 0 68 68">
  <defs>
    <clipPath id="clip-path">
      <path id="Path_482" data-name="Path 482" d="M1424.993,284.677c-1.4,2.8-13.782-6.864-23.261-6.864s-21.86,9.665-23.261,6.864a5.255,5.255,0,0,1-.282-2.719,36.4,36.4,0,0,1,2.392-8.426s11.649-6.7,21.151-6.7,21.152,6.7,21.152,6.7a36.408,36.408,0,0,1,2.391,8.426A5.253,5.253,0,0,1,1424.993,284.677Z" transform="translate(-1378.141 -266.83)" fill="#3c7ceb"/>
    </clipPath>
  </defs>
  <g id="icon-sma-smk" transform="translate(-138.413 -864.413)">
    <circle id="Ellipse_134" data-name="Ellipse 134" cx="34" cy="34" r="34" transform="translate(138.413 864.413)" fill="#ededf4" opacity="0.65"/>
    <g id="Group_1492" data-name="Group 1492">
      <g id="Group_1319" data-name="Group 1319" transform="translate(148.822 877.796)">
        <g id="Group_1312" data-name="Group 1312" transform="translate(0)">
          <path id="Path_462" data-name="Path 462" d="M1477.129,62.772s.867-10.4-.271-13.978a19.163,19.163,0,0,0-7.705-10.454h0a28.556,28.556,0,0,0-18.682,0h0a19.641,19.641,0,0,0-7.861,10.957c-1.058,3.507-.115,13.475-.115,13.475,4.312-2.121,11.242-4.977,17.314-4.978S1472.817,60.651,1477.129,62.772Z" transform="translate(-1436.219 -36.77)" fill="#ededf4"/>
          <path id="Path_463" data-name="Path 463" d="M1403.8,75.216q0,.893.03,1.825l-.006.008-1.77,1.716-2.086.251s-.131-.655-.256-1.765h0c-.58-5.129-1.046-19.968,12.066-24.681C1411.678,52.645,1403.8,58.811,1403.8,75.216Z" transform="translate(-1397.516 -51.114)" fill="#747998"/>
          <path id="Path_464" data-name="Path 464" d="M1747.595,77.251c-.125,1.11-.256,1.765-.256,1.765l-2.088-.251-1.77-1.716-.005-.008q.032-.933.03-1.825c-.006-16.406-7.879-22.572-7.976-22.646C1748.641,57.284,1748.175,72.122,1747.595,77.251Z" transform="translate(-1702.596 -51.114)" fill="#747998"/>
          <path id="Path_465" data-name="Path 465" d="M1424.993,284.677c-1.4,2.8-13.782-6.864-23.261-6.864s-21.86,9.665-23.261,6.864a5.255,5.255,0,0,1-.282-2.719,36.4,36.4,0,0,1,2.392-8.426s11.649-6.7,21.151-6.7,21.152,6.7,21.152,6.7a36.408,36.408,0,0,1,2.391,8.426A5.253,5.253,0,0,1,1424.993,284.677Z" transform="translate(-1378.141 -245.629)" fill="#8a90b2"/>
          <g id="Group_1311" data-name="Group 1311" transform="translate(16.981 5.613)">
            <path id="Path_466" data-name="Path 466" d="M1597.454,212.123a2.433,2.433,0,0,0,1.241.452l-.093-.6a3.188,3.188,0,0,1-1.1-.41,2.3,2.3,0,0,0-2.711.094l-.063.038-.063-.038a2.3,2.3,0,0,0-2.711-.094,3.186,3.186,0,0,1-1.1.41l-.093.6a2.436,2.436,0,0,0,1.242-.452,39.642,39.642,0,0,0,5.452,0Z" transform="translate(-1588.149 -200.709)" fill="#fff"/>
            <path id="Path_467" data-name="Path 467" d="M1598.052,220.212a2.576,2.576,0,0,1-1.407-.487,1.887,1.887,0,0,0-2.526.133l-.073.053-.073-.053a1.887,1.887,0,0,0-2.526-.133,2.577,2.577,0,0,1-1.407.487l-.031.2a2.271,2.271,0,0,0,1.3-.481,31.248,31.248,0,0,0,5.475,0,2.272,2.272,0,0,0,1.3.481l-.031-.2Z" transform="translate(-1587.466 -208.097)" fill="#f4f4f7"/>
            <path id="Path_468" data-name="Path 468" d="M1629.427,198.345c.061-.073.125-.145.192-.216a3.486,3.486,0,0,1,.253-.242,1.892,1.892,0,0,1-.136-.248,2.529,2.529,0,0,1-.126-.342.489.489,0,0,1-.075-.056l-.008-.008-.1.134-.1-.133-.008.008a.487.487,0,0,1-.075.056,2.5,2.5,0,0,1-.127.342,1.834,1.834,0,0,1-.136.248,3.482,3.482,0,0,1,.253.242q.1.106.192.216Z" transform="translate(-1622.848 -188.059)" fill="#ffc107"/>
            <path id="Path_469" data-name="Path 469" d="M1631.457,212.163c-.063.017-.128.032-.2.046l-.069.087-.069-.087c-.068-.014-.134-.03-.2-.046q.129.065.266.144.137-.079.266-.144Z" transform="translate(-1624.611 -201.613)" fill="#ffc107"/>
            <path id="Path_470" data-name="Path 470" d="M1655.714,148.428c-.074-.043-.147-.086-.219-.127l-.042-.008a.679.679,0,0,0-.417.1.609.609,0,0,0-.291.362.569.569,0,0,0-.013.067h0v0h0a1.5,1.5,0,0,0,.222.634,2.606,2.606,0,0,1,.358,1.16v.01h0a2.175,2.175,0,0,1-.554,1.429,1.777,1.777,0,0,1-.981.541,1.136,1.136,0,0,0,.321.2.74.74,0,0,0,.538,0l.078-.029.056.061a.8.8,0,0,0,.216.165,1.292,1.292,0,0,0,.813.1,1.589,1.589,0,0,0,.788-.369,2.62,2.62,0,0,1-.835.046l.023-.248a1.756,1.756,0,0,0,1.7-.652,1.53,1.53,0,0,0,.163-.3h0c.01-.025.02-.051.029-.077a2.238,2.238,0,0,1-.7.191,4.3,4.3,0,0,1-.947,0l.025-.248a4.055,4.055,0,0,0,.892,0,1.634,1.634,0,0,0,.892-.346,1.006,1.006,0,0,0,.337-.682c0-.018,0-.036,0-.054a1.993,1.993,0,0,1-1.1.428,4.518,4.518,0,0,1-.657.028l0-.249a4.277,4.277,0,0,0,.622-.027,1.727,1.727,0,0,0,.981-.384,1.028,1.028,0,0,0,.32-.713,1.871,1.871,0,0,1-1.585.494l.021-.248a1.52,1.52,0,0,0,1.564-.658,1.28,1.28,0,0,0,.164-.491h0a1.59,1.59,0,0,0-.428-1.084l-.041-.059a1.5,1.5,0,0,1-.159,1.05.961.961,0,0,1-.168.2.98.98,0,0,1-.185.13h0c-.642.35-1.247,0-1.814-.337Z" transform="translate(-1645.357 -142.806)" fill="#ffc107"/>
            <path id="Path_471" data-name="Path 471" d="M1642.281,155.018a2.983,2.983,0,0,0,.572,1.633,2.47,2.47,0,0,0,.174.2,1.787,1.787,0,0,0-.131-1.047,2.377,2.377,0,0,0-.615-.79Z" transform="translate(-1634.921 -149.734)" fill="#ffc107"/>
            <path id="Path_472" data-name="Path 472" d="M1632.288,193.319l-.026-.015a1.2,1.2,0,0,1-.117-.078l-.056.038.1.043a.366.366,0,0,1,.064.037.37.37,0,0,1,.04-.026Z" transform="translate(-1625.668 -184.421)" fill="#ffc107"/>
            <path id="Path_473" data-name="Path 473" d="M1625.041,162.279a3.91,3.91,0,0,1-.6-1.54,2.645,2.645,0,0,0,.121,1.217,1.687,1.687,0,0,1,.075,1.032l-.238-.057a2.51,2.51,0,0,0-.261-1.129l-.046-.113a1.581,1.581,0,0,1-.064.4h0a1.286,1.286,0,0,1-.258.388.6.6,0,0,0-.2.372,1,1,0,0,0,.26.665.847.847,0,0,0,.1.093.745.745,0,0,0,.083.056,1.208,1.208,0,0,0,.156-.071.813.813,0,0,0,.158-.111l.083-.076.084.075a.964.964,0,0,0,.159.116.988.988,0,0,0,.126.062,1.5,1.5,0,0,0,.422-.616,1.365,1.365,0,0,0,.045-.152,1.1,1.1,0,0,0,.023-.151v0a1.628,1.628,0,0,0-.224-.457Z" transform="translate(-1617.93 -154.928)" fill="#fc544b"/>
            <path id="Path_474" data-name="Path 474" d="M1565.434,148.3c-.073.041-.146.083-.219.127-.567.332-1.172.688-1.814.337h0a.984.984,0,0,1-.185-.13.961.961,0,0,1-.168-.2,1.5,1.5,0,0,1-.159-1.05l-.041.059a1.59,1.59,0,0,0-.428,1.084h0a1.282,1.282,0,0,0,.164.491,1.52,1.52,0,0,0,1.564.658l.021.248a1.871,1.871,0,0,1-1.585-.494,1.026,1.026,0,0,0,.32.713,1.726,1.726,0,0,0,.981.384,4.275,4.275,0,0,0,.622.027l0,.249a4.514,4.514,0,0,1-.656-.028,1.993,1.993,0,0,1-1.1-.428c0,.018,0,.036,0,.054a1.006,1.006,0,0,0,.337.682,1.636,1.636,0,0,0,.892.346,4.056,4.056,0,0,0,.892,0l.024.248a4.3,4.3,0,0,1-.946,0,2.239,2.239,0,0,1-.7-.191q.014.039.028.077h0a1.543,1.543,0,0,0,.163.3,1.756,1.756,0,0,0,1.7.652l.023.248a2.617,2.617,0,0,1-.834-.046,1.587,1.587,0,0,0,.788.369,1.291,1.291,0,0,0,.813-.1.8.8,0,0,0,.216-.165l.056-.061.078.029a.74.74,0,0,0,.538,0,1.133,1.133,0,0,0,.321-.2,1.777,1.777,0,0,1-.981-.541,2.174,2.174,0,0,1-.554-1.429h0v-.01h0v-.007h0a2.619,2.619,0,0,1,.358-1.152,1.472,1.472,0,0,0,.222-.636.545.545,0,0,0-.013-.067.609.609,0,0,0-.291-.362.68.68,0,0,0-.417-.1l-.042.008Z" transform="translate(-1562.413 -142.806)" fill="#ffc107"/>
            <path id="Path_475" data-name="Path 475" d="M1617.166,156.651a2.982,2.982,0,0,0,.572-1.633,2.381,2.381,0,0,0-.615.79,1.786,1.786,0,0,0-.131,1.047,2.424,2.424,0,0,0,.174-.2Z" transform="translate(-1611.939 -149.734)" fill="#ffc107"/>
            <path id="Path_476" data-name="Path 476" d="M1627.26,129.68h0l.558.6.557-.6a.239.239,0,0,0,.039-.228.269.269,0,0,0-.018-.046h0a.27.27,0,0,0-.025-.04h0l-.552-.687-.552.687a.273.273,0,0,0-.047.239.209.209,0,0,0,.016.041.173.173,0,0,0,.024.034Z" transform="translate(-1621.238 -125.822)" fill="#ffc107"/>
            <path id="Path_477" data-name="Path 477" d="M1602.878,144.349l-.437-.474,0,.758c0,.086,0,.168-.006.247a3.239,3.239,0,0,1-.625,1.8,1.443,1.443,0,0,1-.836.619h-.025a.225.225,0,0,1-.1-.04.417.417,0,0,1-.073-.064.846.846,0,0,1-.2-.565v0h0a2.23,2.23,0,0,1,.1-.473,1.052,1.052,0,0,0-.087-1.06.631.631,0,0,0-.753-.184,1.01,1.01,0,0,1,.157.074.856.856,0,0,1,.406.514.789.789,0,0,1,.019.1,1.552,1.552,0,0,1-.245.779,2.444,2.444,0,0,0-.333,1.038v.016a1.927,1.927,0,0,0,.488,1.266,1.566,1.566,0,0,0,1.213.495h.008l.062,0,.039.049a1.766,1.766,0,0,0,.522.458,2.218,2.218,0,0,0,.447.189l-.025-.026a3.109,3.109,0,0,0-.318-.293l-.1-.076.074-.1a1.561,1.561,0,0,0,.177-.3,2.306,2.306,0,0,0,.127-.357l.016-.059.057-.024a.2.2,0,0,0,.061-.039.363.363,0,0,0,.057-.067l.058-.087-.065.038a1.487,1.487,0,0,1-.247.106l-.094-.006-.021-.011a.98.98,0,0,1-.15-.1,1.112,1.112,0,0,1-.131-.121,1.248,1.248,0,0,1-.325-.835.789.789,0,0,1,.26-.534,1.1,1.1,0,0,0,.213-.314h0a1.484,1.484,0,0,0,.049-.337,1.493,1.493,0,0,1,.1-.514l.216.022a1.309,1.309,0,0,1,.373-1.082l.206.125,0,.007h0a2.661,2.661,0,0,0,.524,1.934,1.39,1.39,0,0,1,.257.6v0a1.3,1.3,0,0,1-.029.186,1.481,1.481,0,0,1-.053.182,1.745,1.745,0,0,1-.557.772l-.052.04-.037-.013h0a.21.21,0,0,0,.061.039l.057.024.016.059a2.281,2.281,0,0,0,.127.357,1.543,1.543,0,0,0,.177.3l.074.1-.1.076a3.122,3.122,0,0,0-.318.293l-.025.026a2.228,2.228,0,0,0,.447-.189,1.764,1.764,0,0,0,.522-.458l.038-.049.062,0h.008a1.565,1.565,0,0,0,1.213-.495,1.925,1.925,0,0,0,.488-1.266v-.01a2.434,2.434,0,0,0-.333-1.045,1.581,1.581,0,0,1-.246-.773h0v0h0a.891.891,0,0,1,.019-.1.857.857,0,0,1,.406-.514,1,1,0,0,1,.157-.074.631.631,0,0,0-.753.184,1.052,1.052,0,0,0-.087,1.06,2.237,2.237,0,0,1,.1.473h0v0a.848.848,0,0,1-.2.565.426.426,0,0,1-.073.064.226.226,0,0,1-.1.04h-.025a1.443,1.443,0,0,1-.836-.619,3.239,3.239,0,0,1-.625-1.8q-.006-.118-.006-.247l0-.758-.437.474-.092.1-.092-.1Z" transform="translate(-1596.39 -139.618)" fill="#f9ac50"/>
            <path id="Path_478" data-name="Path 478" d="M1604.588,99.862h0l.635,3.475a3.068,3.068,0,0,1,.672-.7l-.006-.976a.358.358,0,0,1-.023-.037.458.458,0,0,1-.037-.091.529.529,0,0,1,.093-.463l.649-.808.1-.121.1.121.649.808h0l0,0a.5.5,0,0,1,.052.081h0a.522.522,0,0,1,.035.088.5.5,0,0,1-.056.418l-.006.976a3.067,3.067,0,0,1,.672.7l.635-3.475h0a2.117,2.117,0,0,1,.255-.738.716.716,0,0,1,.244-.246.489.489,0,0,1,.177-.06,1.376,1.376,0,0,0-.286-.224.424.424,0,0,0-.277-.066.346.346,0,0,0-.215.161,1.6,1.6,0,0,0-.213.6l-.351,1.889-.245-.042.419-2.633c.024-.15-.115-.222-.28-.308a2.012,2.012,0,0,1-.292-.174l-.293,2.6-.248-.015.023-2.386c0-.126-.078-.177-.173-.237a.325.325,0,0,0-.648,0c-.094.06-.174.111-.172.237l.023,2.386-.248.015-.293-2.6a1.992,1.992,0,0,1-.292.174c-.165.086-.3.158-.28.308l.419,2.633-.245.042-.351-1.889a1.6,1.6,0,0,0-.213-.6.346.346,0,0,0-.215-.161.425.425,0,0,0-.278.066,1.371,1.371,0,0,0-.285.224.485.485,0,0,1,.176.06.716.716,0,0,1,.244.246,2.115,2.115,0,0,1,.255.738Z" transform="translate(-1600.088 -97.682)" fill="#ffc107"/>
          </g>
        </g>
      </g>
      <g id="Mask_Group_1259" data-name="Mask Group 1259" transform="translate(148.822 898.996)" clip-path="url(#clip-path)">
        <ellipse id="Ellipse_135" data-name="Ellipse 135" cx="18.5" cy="18" rx="18.5" ry="18" transform="translate(-13.409 -17.584)" fill="#f4f4f7" opacity="0.15"/>
      </g>
    </g>
  </g>
</svg>
