<svg xmlns="http://www.w3.org/2000/svg" width="60" height="60" viewBox="0 0 60 60">
  <g id="icon-ruang-lingkup-kerjasama" transform="translate(-170 -593)">
    <g id="Group_3274" data-name="Group 3274">
      <circle id="Ellipse_387" data-name="Ellipse 387" cx="30" cy="30" r="30" transform="translate(170 593)" fill="#d9eeff" opacity="0.4"/>
      <path id="handshake-solid" d="M25.946,64H20.819a1.909,1.909,0,0,0-1.289.5l-5.867,5.372c-.006.006-.012.018-.018.024a2.374,2.374,0,0,0-.125,3.343,2.489,2.489,0,0,0,3.348.161c.006-.006.018-.006.024-.012l4.769-4.369a.955.955,0,1,1,1.289,1.409l-1.558,1.427,8.691,7.055a4.3,4.3,0,0,1,.472.46V67.82L27.3,64.561A1.9,1.9,0,0,0,25.946,64Zm6.524,3.832V81.2a1.908,1.908,0,0,0,1.91,1.91H38.2V67.832ZM35.335,81.2a.955.955,0,1,1,.955-.955A.958.958,0,0,1,35.335,81.2ZM0,83.1H3.82a1.908,1.908,0,0,0,1.91-1.91V67.832H0Zm2.865-3.814a.955.955,0,1,1-.955.955A.958.958,0,0,1,2.865,79.286ZM28.883,80.4l-8.911-7.234L18.181,74.8a4.3,4.3,0,0,1-5.808-6.333L17.256,64h-5a1.907,1.907,0,0,0-1.349.561L7.64,67.82V81.184H8.732l5.4,4.888a3.819,3.819,0,0,0,5.372-.555l.012-.012,1.068.925a2.218,2.218,0,0,0,3.122-.322l1.874-2.3.322.263a1.907,1.907,0,0,0,2.686-.281l.567-.7a1.913,1.913,0,0,0-.275-2.692Z" transform="translate(180.9 547.535)" fill="#2680eb"/>
      <path id="Intersection_1" data-name="Intersection 1" d="M5613.211,17188.1v-15.266h5.73v13.354a1.91,1.91,0,0,1-1.907,1.912Zm1.911-2.861a.956.956,0,1,0,.954-.953A.961.961,0,0,0,5615.123,17185.234Zm6.822.945h-1.092v-13.363l3.267-3.262a1.923,1.923,0,0,1,1.346-.561h5l-4.884,4.475a4.294,4.294,0,0,0,4.021,7.311,19.111,19.111,0,0,1-6.465,6.484Zm4.785-7.943a2.376,2.376,0,0,1,.129-3.344s.008-.018.017-.021l5.406-4.949q.03.536.03,1.078a18.956,18.956,0,0,1-1.09,6.357l-1.119,1.025c0,.008-.017.008-.021.014a2.322,2.322,0,0,1-1.561.572A2.466,2.466,0,0,1,5626.729,17178.236Z" transform="translate(-5432.313 -16557.461)" fill="#6bb1fe" stroke="rgba(0,0,0,0)" stroke-miterlimit="10" stroke-width="1" opacity="0.5"/>
    </g>
  </g>
</svg>
