<svg xmlns="http://www.w3.org/2000/svg" xmlns:xlink="http://www.w3.org/1999/xlink" width="80" height="80" viewBox="0 0 80 80">
  <defs>
    <clipPath id="clip-path">
      <path id="Path_256" data-name="Path 256" d="M1033.109,195.686h-6.5v7.8l-2.6-1.73-2.6,1.73v-7.8h-6.5a1.3,1.3,0,0,0-1.3,1.3v15.592a1.3,1.3,0,0,0,1.3,1.3h18.191a1.3,1.3,0,0,0,1.3-1.3V196.985A1.3,1.3,0,0,0,1033.109,195.686Zm-30.126-2.973h18.191a1.254,1.254,0,0,0,1.3-1.194V177.2a1.254,1.254,0,0,0-1.3-1.194h-6.5v7.162l-2.6-1.589-2.6,1.589V176h-6.5a1.253,1.253,0,0,0-1.3,1.194V191.52A1.253,1.253,0,0,0,1002.983,192.713Zm6.256,2.973h-6.5v7.8l-2.6-1.73-2.6,1.73v-7.8h-6.5a1.3,1.3,0,0,0-1.3,1.3v15.592a1.3,1.3,0,0,0,1.3,1.3h18.191a1.3,1.3,0,0,0,1.3-1.3V196.985A1.3,1.3,0,0,0,1009.239,195.686Z" transform="translate(-989.749 -176.002)" fill="none"/>
    </clipPath>
  </defs>
  <g id="icon-sarpras" transform="translate(-368.441 -462.441)">
    <circle id="Ellipse_83" data-name="Ellipse 83" cx="40" cy="40" r="40" transform="translate(368.441 462.441)" fill="#d9eeff" opacity="0.7"/>
    <g id="Group_607" data-name="Group 607" transform="translate(386.112 481.503)">
      <path id="Path_255" data-name="Path 255" d="M1033.109,195.686h-6.5v7.8l-2.6-1.73-2.6,1.73v-7.8h-6.5a1.3,1.3,0,0,0-1.3,1.3v15.592a1.3,1.3,0,0,0,1.3,1.3h18.191a1.3,1.3,0,0,0,1.3-1.3V196.985A1.3,1.3,0,0,0,1033.109,195.686Zm-30.126-2.973h18.191a1.254,1.254,0,0,0,1.3-1.194V177.2a1.254,1.254,0,0,0-1.3-1.194h-6.5v7.162l-2.6-1.589-2.6,1.589V176h-6.5a1.253,1.253,0,0,0-1.3,1.194V191.52A1.253,1.253,0,0,0,1002.983,192.713Zm6.256,2.973h-6.5v7.8l-2.6-1.73-2.6,1.73v-7.8h-6.5a1.3,1.3,0,0,0-1.3,1.3v15.592a1.3,1.3,0,0,0,1.3,1.3h18.191a1.3,1.3,0,0,0,1.3-1.3V196.985A1.3,1.3,0,0,0,1009.239,195.686Z" transform="translate(-989.749 -176.002)" fill="#2680eb"/>
      <g id="Group_606" data-name="Group 606" transform="translate(0 0)">
        <g id="Group_605" data-name="Group 605" clip-path="url(#clip-path)">
          <circle id="Ellipse_88" data-name="Ellipse 88" cx="23.306" cy="23.306" r="23.306" transform="translate(-20.531 -17.596)" fill="#6bb1fe" opacity="0.5"/>
        </g>
      </g>
    </g>
  </g>
</svg>
