<svg xmlns="http://www.w3.org/2000/svg" width="45" height="45" viewBox="0 0 45 45">
  <g id="icon-upload-link" transform="translate(-16 -11.5)">
    <path id="Path_485" data-name="Path 485" d="M22.5,0A22.5,22.5,0,1,1,0,22.5,22.5,22.5,0,0,1,22.5,0Z" transform="translate(16 11.5)" fill="#2680eb" opacity="0.3"/>
    <g id="link" transform="translate(26.333 21.833)">
      <path id="Path_535" data-name="Path 535" d="M193.8,1.671a5.7,5.7,0,0,1,0,8.065l-4.7,4.7a5.705,5.705,0,0,1-9.424-2.169l.1-.1c-.1.1,1.763-1.8,1.763-1.8l1.765,1.8a2.5,2.5,0,0,0,3.528,0l4.7-4.7A2.494,2.494,0,0,0,188,3.939l-4.6,4.6-1.864.758-1.864-.758a5.682,5.682,0,0,1,1.358-2.169l4.7-4.7A5.7,5.7,0,0,1,193.8,1.671Z" transform="translate(-171.136 0)" fill="#eef5ff"/>
      <path id="Path_536" data-name="Path 536" d="M12.267,173.426a5.72,5.72,0,0,1,3.527,3.527l-.1.1a2.5,2.5,0,0,1-3.528,0,2.5,2.5,0,0,0-3.528,0l-4.7,4.7a2.494,2.494,0,1,0,3.528,3.528l4.6-4.6a5.729,5.729,0,0,0,3.728,0,5.679,5.679,0,0,1-1.359,2.169l-4.7,4.7a5.7,5.7,0,1,1-8.066-8.066l4.7-4.7a5.7,5.7,0,0,1,5.9-1.359Z" transform="translate(0 -164.887)" fill="#4890fe"/>
    </g>
  </g>
</svg>
