<svg xmlns="http://www.w3.org/2000/svg" xmlns:xlink="http://www.w3.org/1999/xlink" width="114" height="114" viewBox="0 0 114 114">
  <defs>
    <filter id="Ellipse_3" x="0" y="0" width="114" height="114" filterUnits="userSpaceOnUse">
      <feOffset input="SourceAlpha"/>
      <feGaussianBlur stdDeviation="5" result="blur"/>
      <feFlood flood-color="#2680eb" flood-opacity="0.8"/>
      <feComposite operator="in" in2="blur"/>
      <feComposite in="SourceGraphic"/>
    </filter>
  </defs>
  <g id="Icon_Virtual_Tour" data-name="Icon Virtual Tour" transform="translate(13.88 14.176)">
    <g transform="matrix(1, 0, 0, 1, -13.88, -14.18)" filter="url(#Ellipse_3)">
      <circle id="Ellipse_3-2" data-name="Ellipse 3" cx="42" cy="42" r="42" transform="translate(15 15)" fill="#fff"/>
    </g>
    <g id="Group_2" data-name="Group 2" transform="translate(21.565 23.61)">
      <g id="Icon_feather-map" data-name="Icon feather-map" transform="translate(0 8.598)">
        <path id="Path_3" data-name="Path 3" d="M1.5,8.973V32.867l13.739-5.973,15.7,5.973L44.68,26.894V3L30.941,8.973,15.239,3Z" transform="translate(-1.5 -3)" fill="none" stroke="#2680eb" stroke-linecap="round" stroke-linejoin="round" stroke-width="2"/>
        <path id="Path_4" data-name="Path 4" d="M12,3V26.894" transform="translate(1.739 -3)" fill="none" stroke="#2680eb" stroke-linecap="round" stroke-linejoin="round" stroke-width="2"/>
        <path id="Path_5" data-name="Path 5" d="M24,9V32.894" transform="translate(5.441 -3.027)" fill="none" stroke="#2680eb" stroke-linecap="round" stroke-linejoin="round" stroke-width="2"/>
      </g>
      <g id="Icon_feather-map-pin" data-name="Icon feather-map-pin" transform="translate(12.043)">
        <path id="Path_1" data-name="Path 1" d="M23.637,11.069c0,7.442-9.569,13.821-9.569,13.821S4.5,18.511,4.5,11.069a9.569,9.569,0,1,1,19.137,0Z" transform="translate(-4.5 -1.5)" fill="#fff" stroke="#2680eb" stroke-linecap="round" stroke-linejoin="round" stroke-width="2"/>
        <path id="Path_2" data-name="Path 2" d="M19.879,13.69a3.19,3.19,0,1,1-3.19-3.19,3.19,3.19,0,0,1,3.19,3.19Z" transform="translate(-7.121 -4.121)" fill="#fff" stroke="#2680eb" stroke-linecap="round" stroke-linejoin="round" stroke-width="2"/>
      </g>
    </g>
    <g id="Ellipse_7" data-name="Ellipse 7" transform="translate(6.12 5.824)" fill="none" stroke="#2680eb" stroke-width="2">
      <circle cx="37" cy="37" r="37" stroke="none"/>
      <circle cx="37" cy="37" r="36" fill="none"/>
    </g>
  </g>
</svg>
