<svg xmlns="http://www.w3.org/2000/svg" width="48" height="48" viewBox="0 0 48 48">
  <g id="icon-complete" transform="translate(-932 -739)">
    <circle id="Ellipse_56" data-name="Ellipse 56" cx="24" cy="24" r="24" transform="translate(932 739)" fill="#2680eb"/>
    <path id="Path_157" data-name="Path 157" d="M19.492,3.713H14.851a3.713,3.713,0,1,0-7.425,0H2.785A2.785,2.785,0,0,0,0,6.5v20.42A2.785,2.785,0,0,0,2.785,29.7H19.492a2.785,2.785,0,0,0,2.785-2.785V6.5A2.785,2.785,0,0,0,19.492,3.713ZM11.138,2.32A1.392,1.392,0,1,1,9.746,3.713,1.389,1.389,0,0,1,11.138,2.32Zm7.031,13.447-8.3,8.226a.7.7,0,0,1-.986-.006L4.1,19.155a.7.7,0,0,1,.006-.986l1.648-1.636a.7.7,0,0,1,.986.006L9.4,19.231l6.149-6.1a.7.7,0,0,1,.986.006l1.636,1.648A.7.7,0,0,1,18.169,15.767Z" transform="translate(945 747)" fill="#fff"/>
  </g>
</svg>
