<svg xmlns="http://www.w3.org/2000/svg" width="69" height="69" viewBox="0 0 69 69">
  <g id="Group_1938" data-name="Group 1938" transform="translate(-164 -139.821)">
    <circle id="Ellipse_307" data-name="Ellipse 307" cx="34.5" cy="34.5" r="34.5" transform="translate(164 139.821)" fill="#2680eb"/>
    <path id="Path_255" data-name="Path 255" d="M37.758,11.769H29.422V1.471A1.471,1.471,0,0,0,27.951,0H19.124a1.471,1.471,0,0,0-1.471,1.471V5.885H13.73V.981A.98.98,0,0,0,12.75,0h-.981a.98.98,0,0,0-.981.981v4.9H6.865V.981A.98.98,0,0,0,5.884,0H4.9a.98.98,0,0,0-.981.981v4.9H1.471A1.471,1.471,0,0,0,0,7.356V29.423a1.962,1.962,0,0,0,1.961,1.962H37.268a1.962,1.962,0,0,0,1.961-1.962V13.24A1.471,1.471,0,0,0,37.758,11.769ZM7.846,24.764a.735.735,0,0,1-.736.736H4.658a.735.735,0,0,1-.736-.736V22.312a.735.735,0,0,1,.736-.736H7.11a.735.735,0,0,1,.736.736Zm0-5.885a.735.735,0,0,1-.736.736H4.658a.735.735,0,0,1-.736-.736V16.428a.735.735,0,0,1,.736-.736H7.11a.735.735,0,0,1,.736.736Zm0-5.885a.735.735,0,0,1-.736.736H4.658a.735.735,0,0,1-.736-.736V10.543a.735.735,0,0,1,.736-.736H7.11a.735.735,0,0,1,.736.736Zm7.846,11.769a.735.735,0,0,1-.736.736H12.5a.735.735,0,0,1-.736-.736V22.312a.735.735,0,0,1,.736-.736h2.452a.735.735,0,0,1,.736.736Zm0-5.885a.735.735,0,0,1-.736.736H12.5a.735.735,0,0,1-.736-.736V16.428a.735.735,0,0,1,.736-.736h2.452a.735.735,0,0,1,.736.736Zm0-5.885a.735.735,0,0,1-.736.736H12.5a.735.735,0,0,1-.736-.736V10.543a.735.735,0,0,1,.736-.736h2.452a.735.735,0,0,1,.736.736ZM25.5,18.879a.735.735,0,0,1-.736.736H22.312a.735.735,0,0,1-.736-.736V16.428a.735.735,0,0,1,.736-.736h2.452a.735.735,0,0,1,.736.736Zm0-5.885a.735.735,0,0,1-.736.736H22.312a.735.735,0,0,1-.736-.736V10.543a.735.735,0,0,1,.736-.736h2.452a.735.735,0,0,1,.736.736Zm0-5.885a.735.735,0,0,1-.736.736H22.312a.735.735,0,0,1-.736-.736V4.659a.735.735,0,0,1,.736-.736h2.452a.735.735,0,0,1,.736.736Zm9.807,17.654a.735.735,0,0,1-.736.736H32.119a.735.735,0,0,1-.736-.736V22.312a.735.735,0,0,1,.736-.736h2.452a.735.735,0,0,1,.736.736Zm0-5.885a.735.735,0,0,1-.736.736H32.119a.735.735,0,0,1-.736-.736V16.428a.735.735,0,0,1,.736-.736h2.452a.735.735,0,0,1,.736.736Z" transform="translate(179 158.821)" fill="#fff"/>
  </g>
</svg>
