<svg xmlns="http://www.w3.org/2000/svg" width="24" height="24" viewBox="0 0 24 24">
  <g id="icon-broadcast-terjadwal" transform="translate(0.001 0.334)">
    <path id="Check" d="M12,0A12,12,0,1,1,0,12,12,12,0,0,1,12,0Z" transform="translate(-0.001 -0.334)" fill="#fce8d2"/>
    <path id="Path_314" data-name="Path 314" d="M.291,4.66h10.29a.292.292,0,0,1,.291.291v6.31a1.165,1.165,0,0,1-1.165,1.165H1.165A1.165,1.165,0,0,1,0,11.261V4.951A.292.292,0,0,1,.291,4.66ZM10.873,3.592V2.718A1.165,1.165,0,0,0,9.708,1.553H8.543V.291A.292.292,0,0,0,8.251,0H7.281A.292.292,0,0,0,6.99.291V1.553H3.883V.291A.292.292,0,0,0,3.592,0H2.621A.292.292,0,0,0,2.33.291V1.553H1.165A1.165,1.165,0,0,0,0,2.718v.874a.292.292,0,0,0,.291.291h10.29A.292.292,0,0,0,10.873,3.592Z" transform="translate(6.563 5.453)" fill="#f9ac50"/>
  </g>
</svg>
