<svg xmlns="http://www.w3.org/2000/svg" width="50" height="50" viewBox="0 0 50 50">
  <g id="icon-role-orang-tua:hover" transform="translate(-235 -276)">
    <circle id="Ellipse_1" data-name="Ellipse 1" cx="25" cy="25" r="25" transform="translate(235 276)" fill="#2680eb"/>
    <path id="Union_1" data-name="Union 1" d="M-41.333-278v-3.105a8.646,8.646,0,0,0,5.867-2.325v4.667A.748.748,0,0,1-36.2-278Zm-5.867,0v-3.529a3.066,3.066,0,0,0,1.466-2.631,3.071,3.071,0,0,0-1.4-2.6.732.732,0,0,1,.671-.459h2.933a.732.732,0,0,1,.671.459,3.071,3.071,0,0,0-1.4,2.6A3.067,3.067,0,0,0-42.8-281.53V-278Zm-6.6,0a.748.748,0,0,1-.733-.763v-4.695a8.549,8.549,0,0,0,5.867,2.353V-278Zm11-6.16a1.5,1.5,0,0,1,1.467-1.528,4.507,4.507,0,0,0,4.4-4.583.742.742,0,0,0-.733-.763.742.742,0,0,0-.733.763,3,3,0,0,1-2.933,3.055c-.045,0-.088.015-.132.015a2.2,2.2,0,0,0-2.068-1.543H-45a3.005,3.005,0,0,0,2.934-3.055A3.005,3.005,0,0,0-45-294.854a3,3,0,0,0-2.933,3.055A3,3,0,0,0-45-288.743h-1.466a2.2,2.2,0,0,0-2.068,1.543c-.044,0-.088-.015-.132-.015a3.005,3.005,0,0,1-2.934-3.055.742.742,0,0,0-.733-.763.741.741,0,0,0-.733.763,4.507,4.507,0,0,0,4.4,4.583,1.5,1.5,0,0,1,1.467,1.528,1.5,1.5,0,0,1-1.467,1.528,7.241,7.241,0,0,1-5.74-2.884A8.008,8.008,0,0,1-56-290.271a6,6,0,0,1,5.867-6.11h3.667A2.221,2.221,0,0,1-45-295.8a2.223,2.223,0,0,1,1.467-.581h3.667A5.991,5.991,0,0,1-34-290.271a8.039,8.039,0,0,1-1.923,5.17,7.23,7.23,0,0,1-5.41,2.468A1.5,1.5,0,0,1-42.8-284.161Zm-3.666-7.638A1.5,1.5,0,0,1-45-293.326a1.5,1.5,0,0,1,1.467,1.528A1.5,1.5,0,0,1-45-290.271,1.5,1.5,0,0,1-46.466-291.8Zm2.2-9.332A3.8,3.8,0,0,1-40.6-305a3.794,3.794,0,0,1,3.666,3.87,3.749,3.749,0,0,1-3.666,3.818A3.749,3.749,0,0,1-44.267-301.131Zm-8.8,0A3.794,3.794,0,0,1-49.4-305a3.794,3.794,0,0,1,3.666,3.87,3.749,3.749,0,0,1-3.666,3.818A3.749,3.749,0,0,1-53.066-301.131Z" transform="translate(305 592)" fill="#fff"/>
  </g>
</svg>
