<svg id="Pratinjau_Icon" data-name="Pratinjau Icon" xmlns="http://www.w3.org/2000/svg" width="48" height="48" viewBox="0 0 48 48">
  <circle id="Ellipse_37" data-name="Ellipse 37" cx="24" cy="24" r="24" fill="#f9d5d4" opacity="0.3"/>
  <path id="Subtraction_71" data-name="Subtraction 71" d="M-5413.657,1411.5h-14.32a1.106,1.106,0,0,1-1.023-1.172v-22.656a1.106,1.106,0,0,1,1.023-1.172h8.524v6.641a1.106,1.106,0,0,0,1.021,1.172h5.8v9.482l-.207-.207a.689.689,0,0,0-.493-.206.7.7,0,0,0-.5.206l-1.131,1.131a.7.7,0,0,0-.2.5.694.694,0,0,0,.2.495l1.206,1.206-1.206,1.206a.7.7,0,0,0-.2.5.694.694,0,0,0,.2.495l1.131,1.131a.7.7,0,0,0,.495.206.7.7,0,0,0,.495-.206l.207-.207v.293A1.106,1.106,0,0,1-5413.657,1411.5Zm-12.035-6.431a.715.715,0,0,0-.714.715.715.715,0,0,0,.714.714h6.276a.715.715,0,0,0,.715-.714.716.716,0,0,0-.715-.715Zm0-2.857a.715.715,0,0,0-.714.714.715.715,0,0,0,.714.715h9.779a.715.715,0,0,0,.714-.715.715.715,0,0,0-.714-.714Zm0-2.857a.715.715,0,0,0-.714.714.715.715,0,0,0,.714.714h9.779a.715.715,0,0,0,.714-.714.715.715,0,0,0-.714-.714Zm0-2.856a.715.715,0,0,0-.714.714.715.715,0,0,0,.714.715h9.779a.715.715,0,0,0,.714-.715.715.715,0,0,0-.714-.714Zm13.057-3.748h-5.456v-6.25h.26a.96.96,0,0,1,.726.342l3.694,4.237.477.548a1.246,1.246,0,0,1,.3.824v.3Z" transform="translate(5445.121 -1375)" fill="#f26966"/>
  <path id="times-solid" d="M3.333,82.417l1.374-1.374a.432.432,0,0,0,0-.611L4.4,80.126a.432.432,0,0,0-.611,0L2.417,81.5,1.043,80.126a.432.432,0,0,0-.611,0l-.305.305a.432.432,0,0,0,0,.611L1.5,82.417.126,83.791a.432.432,0,0,0,0,.611l.305.305a.432.432,0,0,0,.611,0l1.374-1.374,1.374,1.374a.432.432,0,0,0,.611,0l.305-.305a.432.432,0,0,0,0-.611Z" transform="translate(31.081 -50.418)" fill="#f26966"/>
</svg>
