<svg id="icon-rekap-pembayaran" xmlns="http://www.w3.org/2000/svg" width="50" height="50" viewBox="0 0 50 50">
  <circle id="Ellipse_56" data-name="Ellipse 56" cx="25" cy="25" r="25" fill="#fff" opacity="0.3"/>
  <path id="Path_206" data-name="Path 206" d="M24.708,40.944a4.417,4.417,0,0,0-4.118-6,4.39,4.39,0,0,0-2.45.745A7.354,7.354,0,0,0,4.412,39.354c0,.124,0,.248.009.372a6.62,6.62,0,0,0,2.2,12.864H23.532a5.883,5.883,0,0,0,1.177-11.646ZM18.6,45.021l-4.844,4.844a.738.738,0,0,1-1.039,0L7.873,45.021a.735.735,0,0,1,.519-1.255H11.4V38.618a.738.738,0,0,1,.735-.735H14.34a.738.738,0,0,1,.735.735v5.148h3.006A.735.735,0,0,1,18.6,45.021Z" transform="translate(9.999 -17.795)" fill="#fff"/>
</svg>
