<svg xmlns="http://www.w3.org/2000/svg" xmlns:xlink="http://www.w3.org/1999/xlink" width="30" height="30" viewBox="0 0 30 30">
  <defs>
    <clipPath id="clip-path">
      <path id="file-alt-solid" d="M7.454,5.091V0H.8A.851.851,0,0,0,0,.9v17.37a.851.851,0,0,0,.8.9H11.979a.851.851,0,0,0,.8-.9V5.99H8.252A.855.855,0,0,1,7.454,5.091Zm2.13,8.835a.428.428,0,0,1-.4.449H3.594a.428.428,0,0,1-.4-.449v-.3a.428.428,0,0,1,.4-.449h5.59a.428.428,0,0,1,.4.449Zm0-2.4a.428.428,0,0,1-.4.449H3.594a.428.428,0,0,1-.4-.449v-.3a.428.428,0,0,1,.4-.449h5.59a.428.428,0,0,1,.4.449Zm0-2.7v.3a.428.428,0,0,1-.4.449H3.594a.428.428,0,0,1-.4-.449v-.3a.428.428,0,0,1,.4-.449h5.59A.428.428,0,0,1,9.583,8.835Zm3.194-4.271v.228H8.519V0h.2a.756.756,0,0,1,.566.262l3.258,3.669A.955.955,0,0,1,12.778,4.563Z" transform="translate(206 162.333)" fill="#2680eb"/>
    </clipPath>
  </defs>
  <g id="icon-rpp-saya" transform="translate(-34.615 -477.615)">
    <circle id="Ellipse_114" data-name="Ellipse 114" cx="15" cy="15" r="15" transform="translate(34.615 477.615)" fill="#d9eeff" opacity="0.7"/>
    <g id="Group_1493" data-name="Group 1493" transform="translate(-146.774 320.698)">
      <path id="file-alt-solid-2" data-name="file-alt-solid" d="M7.454,5.091V0H.8A.851.851,0,0,0,0,.9v17.37a.851.851,0,0,0,.8.9H11.979a.851.851,0,0,0,.8-.9V5.99H8.252A.855.855,0,0,1,7.454,5.091Zm2.13,8.835a.428.428,0,0,1-.4.449H3.594a.428.428,0,0,1-.4-.449v-.3a.428.428,0,0,1,.4-.449h5.59a.428.428,0,0,1,.4.449Zm0-2.4a.428.428,0,0,1-.4.449H3.594a.428.428,0,0,1-.4-.449v-.3a.428.428,0,0,1,.4-.449h5.59a.428.428,0,0,1,.4.449Zm0-2.7v.3a.428.428,0,0,1-.4.449H3.594a.428.428,0,0,1-.4-.449v-.3a.428.428,0,0,1,.4-.449h5.59A.428.428,0,0,1,9.583,8.835Zm3.194-4.271v.228H8.519V0h.2a.756.756,0,0,1,.566.262l3.258,3.669A.955.955,0,0,1,12.778,4.563Z" transform="translate(190 162.333)" fill="#2680eb"/>
      <g id="Mask_Group_1286" data-name="Mask Group 1286" transform="translate(-16)" clip-path="url(#clip-path)">
        <ellipse id="Ellipse_272" data-name="Ellipse 272" cx="16.925" cy="16.925" rx="16.925" ry="16.925" transform="translate(188.26 138.067)" fill="#6bb1fe" opacity="0.5"/>
      </g>
    </g>
  </g>
</svg>
