<svg xmlns="http://www.w3.org/2000/svg" xmlns:xlink="http://www.w3.org/1999/xlink" width="24" height="24" viewBox="0 0 24 24">
  <defs>
    <clipPath id="clip-path">
      <path id="Path_2441" data-name="Path 2441" d="M529.2-11.268v-4.324h-6.123a.747.747,0,0,0-.735.763V-.078a.747.747,0,0,0,.735.763h10.286a.747.747,0,0,0,.735-.763V-10.506h-4.163A.751.751,0,0,1,529.2-11.268Z" transform="translate(-522.342 15.592)" fill="#2680eb" stroke="rgba(0,0,0,0)" stroke-miterlimit="10" stroke-width="1"/>
    </clipPath>
  </defs>
  <g id="icon-rapor-buku-induk" transform="translate(-46.333 -131.071)">
    <path id="Path_2437" data-name="Path 2437" d="M12,0A12,12,0,1,1,0,12,12,12,0,0,1,12,0Z" transform="translate(46.333 131.071)" fill="#eef5ff"/>
    <g id="Group_1711" data-name="Group 1711" transform="translate(52.455 134.933)">
      <path id="Path_2438" data-name="Path 2438" d="M782.046-12.254l-3-3.115a.72.72,0,0,0-.52-.223h-.187v4.069h3.919v-.194A.776.776,0,0,0,782.046-12.254Z" transform="translate(-770.506 15.592)" fill="#2680eb" stroke="rgba(0,0,0,0)" stroke-miterlimit="10" stroke-width="1"/>
      <path id="Path_2440" data-name="Path 2440" d="M529.2-11.268v-4.324h-6.123a.747.747,0,0,0-.735.763V-.078a.747.747,0,0,0,.735.763h10.286a.747.747,0,0,0,.735-.763V-10.506h-4.163A.751.751,0,0,1,529.2-11.268Z" transform="translate(-522.342 15.592)" fill="#2680eb" stroke="rgba(0,0,0,0)" stroke-miterlimit="10" stroke-width="1"/>
      <g id="Mask_Group_1292" data-name="Mask Group 1292" transform="translate(0 0)" clip-path="url(#clip-path)">
        <ellipse id="Ellipse_280" data-name="Ellipse 280" cx="7.32" cy="7.32" rx="7.32" ry="7.32" transform="translate(-6.746 -8.268)" fill="#6bb1fe" opacity="0.5"/>
      </g>
      <text id="_70" data-name="70" transform="translate(1.706 4.528)" fill="#fff" stroke="rgba(0,0,0,0)" stroke-miterlimit="10" stroke-width="1" font-size="3" font-family="Nunito-Black, Nunito" font-weight="800"><tspan x="0" y="0">70</tspan></text>
      <line id="Line_18" data-name="Line 18" x2="7.747" transform="translate(1.832 7.261)" fill="none" stroke="#f4f4f7" stroke-linecap="round" stroke-width="1"/>
      <line id="Line_19" data-name="Line 19" x2="7.747" transform="translate(1.832 9.543)" fill="none" stroke="#f4f4f7" stroke-linecap="round" stroke-width="1"/>
      <line id="Line_20" data-name="Line 20" x2="7.747" transform="translate(1.832 12.032)" fill="none" stroke="#f4f4f7" stroke-linecap="round" stroke-width="1"/>
      <line id="Line_21" data-name="Line 21" x2="3.719" transform="translate(1.832 14.314)" fill="none" stroke="#f4f4f7" stroke-linecap="round" stroke-width="1"/>
    </g>
  </g>
</svg>
