<svg xmlns="http://www.w3.org/2000/svg" xmlns:xlink="http://www.w3.org/1999/xlink" width="398" height="134" viewBox="0 0 398 134">
  <defs>
    <filter id="Rectangle_1963" x="-37.5" y="-27.5" width="473" height="209" filterUnits="userSpaceOnUse">
      <feOffset dy="10" input="SourceAlpha"/>
      <feGaussianBlur stdDeviation="12.5" result="blur"/>
      <feFlood flood-color="#3a4166" flood-opacity="0.031"/>
      <feComposite operator="in" in2="blur"/>
      <feComposite in="SourceGraphic"/>
    </filter>
    <clipPath id="clip-path">
      <g transform="matrix(1, 0, 0, 1, 0, 0)" filter="url(#Rectangle_1963)">
        <rect id="Rectangle_1963-2" data-name="Rectangle 1963" width="398" height="134" rx="10" transform="translate(829 465)" fill="#fff" opacity="0"/>
      </g>
    </clipPath>
    <clipPath id="clip-path-2">
      <path id="Subtraction_175" data-name="Subtraction 175" d="M57.924,69.946H13.115A13.13,13.13,0,0,1,0,56.831V13.115A13.13,13.13,0,0,1,13.115,0H57.924A3.282,3.282,0,0,1,61.2,3.279L61.258,43.6C61.242,43.86,59.72,69.946,57.924,69.946ZM18.665,22.874a2,2,0,0,0-2,2V27.14a2,2,0,0,0,2,2h27.6a2,2,0,0,0,2-2V24.873a2,2,0,0,0-2-2ZM18.989,12.1a2,2,0,0,0-2,2v2.266a2,2,0,0,0,2,2H46.944a2,2,0,0,0,2-2V14.1a2,2,0,0,0-2-2Z" transform="translate(0 0)" fill="#c6e1ff"/>
    </clipPath>
  </defs>
  <g id="Mask_Group_1694" data-name="Mask Group 1694" transform="translate(-829 -465)" opacity="0.35" clip-path="url(#clip-path)">
    <g id="Group_5671" data-name="Group 5671">
      <path id="Path_37485" data-name="Path 37485" d="M81.833,0C93.177,0,86.121,19.768,96.2,23.07c33.517,8.053,31.533-12.575,37.6-8.745,18.118,11.431,29.866,29.053,29.866,48.791,0,34.858-36.638,63.116-81.833,63.116S0,97.974,0,63.116,36.638,0,81.833,0Z" transform="translate(1080.333 561.268)" fill="#ecf4ff"/>
      <g id="Group_5339" data-name="Group 5339" transform="translate(1122.705 559.146) rotate(-14)">
        <path id="Path_37486" data-name="Path 37486" d="M12.043,10.853,2.3.724A2.342,2.342,0,0,0,.607,0H0V13.23H12.74V12.6A2.522,2.522,0,0,0,12.043,10.853Z" transform="translate(25.477 0)" fill="#6bb1fe" opacity="0.75"/>
        <path id="Path_37487" data-name="Path 37487" d="M22.294,14.057V0H2.389A2.43,2.43,0,0,0,0,2.481V50.438a2.43,2.43,0,0,0,2.389,2.481H35.83a2.43,2.43,0,0,0,2.389-2.481v-33.9H24.683A2.443,2.443,0,0,1,22.294,14.057Z" transform="translate(0 0)" fill="#6bb1fe" opacity="0.75"/>
        <line id="Line_424" data-name="Line 424" x2="25.187" transform="translate(5.957 23.607)" fill="none" stroke="#f4f4f7" stroke-linecap="round" stroke-width="1"/>
        <line id="Line_425" data-name="Line 425" x2="25.187" transform="translate(5.957 31.026)" fill="none" stroke="#f4f4f7" stroke-linecap="round" stroke-width="1"/>
        <line id="Line_426" data-name="Line 426" x2="25.187" transform="translate(5.957 39.12)" fill="none" stroke="#f4f4f7" stroke-linecap="round" stroke-width="1"/>
        <line id="Line_427" data-name="Line 427" x2="12.09" transform="translate(5.957 46.539)" fill="none" stroke="#f4f4f7" stroke-linecap="round" stroke-width="1"/>
      </g>
      <g id="Group_5342" data-name="Group 5342" transform="translate(1168.537 539.195) rotate(8)">
        <g id="Group_5341" data-name="Group 5341" transform="translate(0 0)">
          <g id="Group_5340" data-name="Group 5340" transform="translate(0 0)">
            <path id="Subtraction_174" data-name="Subtraction 174" d="M57.924,69.946H13.115A13.13,13.13,0,0,1,0,56.831V13.115A13.13,13.13,0,0,1,13.115,0H57.924A3.282,3.282,0,0,1,61.2,3.279L61.258,43.6c-6.092,2.032-9.723,4.935-10.793,8.628-1.743,6.018,3.663,12.636,6.261,15.817.83,1.016,1.378,1.687,1.3,1.86C58.008,69.932,57.976,69.946,57.924,69.946ZM18.665,22.874a2,2,0,0,0-2,2V27.14a2,2,0,0,0,2,2h27.6a2,2,0,0,0,2-2V24.873a2,2,0,0,0-2-2ZM18.989,12.1a2,2,0,0,0-2,2v2.266a2,2,0,0,0,2,2H46.944a2,2,0,0,0,2-2V14.1a2,2,0,0,0-2-2Z" fill="#c6e1ff"/>
          </g>
          <line id="Line_428" data-name="Line 428" x2="20.731" transform="translate(0.165 81.222)" fill="none" stroke="#f4f4f7" stroke-linecap="round" stroke-width="1"/>
        </g>
        <g id="Mask_Group_1693" data-name="Mask Group 1693" transform="translate(0 0)" clip-path="url(#clip-path-2)">
          <ellipse id="Ellipse_846" data-name="Ellipse 846" cx="52.575" cy="49.743" rx="52.575" ry="49.743" transform="translate(0.566 32.545)" fill="#80b5f6"/>
        </g>
      </g>
      <circle id="Ellipse_847" data-name="Ellipse 847" cx="19.785" cy="19.785" r="19.785" transform="translate(1193.215 566.924)" fill="#ecf4ff"/>
      <circle id="Ellipse_848" data-name="Ellipse 848" cx="17" cy="17" r="17" transform="translate(1196 569.709)" fill="#90c4fe"/>
      <text id="_1" data-name="1" transform="translate(1207.736 591.674)" fill="#ecf4ff" font-size="18" font-family="NunitoSans-Black, Nunito Sans" font-weight="800"><tspan x="0" y="0">1</tspan></text>
    </g>
  </g>
</svg>
