<svg xmlns="http://www.w3.org/2000/svg" xmlns:xlink="http://www.w3.org/1999/xlink" width="24" height="24" viewBox="0 0 24 24">
  <defs>
    <clipPath id="clip-path">
      <path id="Union_5" data-name="Union 5" d="M.959,13.2A.958.958,0,0,1,0,12.239V10.458A.958.958,0,0,1,.959,9.5H15.222a.35.35,0,0,1,.327.474,3.924,3.924,0,0,0,0,2.75.35.35,0,0,1-.327.474Zm.715-4.749a.351.351,0,0,1-.328-.475,3.921,3.921,0,0,0,0-2.749.351.351,0,0,1,.328-.475h9.284V6.884a.528.528,0,0,0,.749.488l.965-.451.965.451a.527.527,0,0,0,.606-.116.538.538,0,0,0,.143-.373V4.749h1.552a.958.958,0,0,1,.959.959V7.49a.959.959,0,0,1-.959.959Zm11.22-2.583a.525.525,0,0,0-.445,0l-.439.2V4.749h1.323V6.07ZM.959,3.7A.958.958,0,0,1,0,2.739V.959A.958.958,0,0,1,.959,0H15.222a.35.35,0,0,1,.327.474,3.924,3.924,0,0,0,0,2.75.35.35,0,0,1-.327.474Z" transform="translate(0 0)" fill="#2680eb" stroke="rgba(0,0,0,0)" stroke-miterlimit="10" stroke-width="1"/>
    </clipPath>
  </defs>
  <g id="icon-buku-sekolah" transform="translate(-180.413 -187.413)">
    <circle id="Ellipse_98" data-name="Ellipse 98" cx="12" cy="12" r="12" transform="translate(180.413 187.413)" fill="#d9eeff" opacity="0.7"/>
    <g id="Group_607" data-name="Group 607" transform="translate(183.98 193.107)">
      <path id="Path_283" data-name="Path 283" d="M1077.953-278.229h14.263a.35.35,0,0,0,.328-.474,3.929,3.929,0,0,1,0-2.75.35.35,0,0,0-.328-.474h-14.263a.959.959,0,0,0-.959.958v1.781A.959.959,0,0,0,1077.953-278.229Z" transform="translate(-1076.994 281.927)" fill="#2680eb"/>
      <path id="Path_284" data-name="Path 284" d="M1129.358-146.427h-1.552v2.134a.539.539,0,0,1-.144.373.526.526,0,0,1-.6.116l-.965-.45-.965.45a.527.527,0,0,1-.748-.488v-2.135h-9.285a.35.35,0,0,0-.328.474,3.927,3.927,0,0,1,0,2.75.35.35,0,0,0,.328.474h14.264a.958.958,0,0,0,.958-.958v-1.781A.958.958,0,0,0,1129.358-146.427Z" transform="translate(-1113.42 151.177)" fill="#2680eb"/>
      <path id="Path_285" data-name="Path 285" d="M1420.061-145.312h0a.525.525,0,0,1,.444,0l.439.205v-1.32h-1.323v1.32Z" transform="translate(-1407.612 151.177)" fill="#2680eb"/>
      <path id="Path_286" data-name="Path 286" d="M1092.216-10.927h-14.263a.959.959,0,0,0-.959.958v1.781a.959.959,0,0,0,.959.958h14.263a.35.35,0,0,0,.328-.474,3.929,3.929,0,0,1,0-2.75A.35.35,0,0,0,1092.216-10.927Z" transform="translate(-1076.994 20.426)" fill="#2680eb"/>
    </g>
    <g id="Mask_Group_11" data-name="Mask Group 11" transform="translate(183.98 193.108)" clip-path="url(#clip-path)">
      <ellipse id="Ellipse_99" data-name="Ellipse 99" cx="12" cy="11.5" rx="12" ry="11.5" transform="translate(-13.566 -10.694)" fill="#6bb1fe" opacity="0.5"/>
    </g>
  </g>
</svg>
