<svg id="icon-alumni-kuliah" xmlns="http://www.w3.org/2000/svg" xmlns:xlink="http://www.w3.org/1999/xlink" width="24.5" height="14.983" viewBox="0 0 24.5 14.983">
  <defs>
    <clipPath id="clip-path">
      <path id="Path_252" data-name="Path 252" d="M410.468,196.883l-10.678-3.344a3,3,0,0,0-1.791,0l-10.679,3.344a.923.923,0,0,0,0,1.779l1.862.583a3.109,3.109,0,0,0-.685,1.83,1.216,1.216,0,0,0-.1,2.069l-.977,4.482a.621.621,0,0,0,.6.76h2.148a.621.621,0,0,0,.6-.76l-.977-4.482a1.213,1.213,0,0,0-.069-2.049,1.848,1.848,0,0,1,.792-1.433L398,202.006a3.007,3.007,0,0,0,1.791,0l10.679-3.344a.923.923,0,0,0,0-1.779ZM400.149,203.2a4.208,4.208,0,0,1-2.511,0l-5.552-1.738-.543,4.427c0,1.379,3.291,2.5,7.35,2.5s7.35-1.118,7.35-2.5l-.543-4.427Z" transform="translate(-386.644 -193.403)" fill="none"/>
    </clipPath>
  </defs>
  <path id="Path_251" data-name="Path 251" d="M410.468,196.883l-10.678-3.344a3,3,0,0,0-1.791,0l-10.679,3.344a.923.923,0,0,0,0,1.779l1.862.583a3.109,3.109,0,0,0-.685,1.83,1.216,1.216,0,0,0-.1,2.069l-.977,4.482a.621.621,0,0,0,.6.76h2.148a.621.621,0,0,0,.6-.76l-.977-4.482a1.213,1.213,0,0,0-.069-2.049,1.848,1.848,0,0,1,.792-1.433L398,202.006a3.007,3.007,0,0,0,1.791,0l10.679-3.344a.923.923,0,0,0,0-1.779ZM400.149,203.2a4.208,4.208,0,0,1-2.511,0l-5.552-1.738-.543,4.427c0,1.379,3.291,2.5,7.35,2.5s7.35-1.118,7.35-2.5l-.543-4.427Z" transform="translate(-386.644 -193.403)" fill="#2680eb"/>
  <g id="Group_600" data-name="Group 600" transform="translate(0 0)">
    <g id="Group_599" data-name="Group 599" clip-path="url(#clip-path)">
      <ellipse id="Ellipse_86" data-name="Ellipse 86" cx="8.001" cy="8.155" rx="8.001" ry="8.155" transform="translate(-3.821 -5.469)" fill="#6bb1fe" opacity="0.5"/>
    </g>
  </g>
</svg>
