<svg width="30" height="31" viewBox="0 0 30 31" fill="none" xmlns="http://www.w3.org/2000/svg">
<g clip-path="url(#clip0_2016_21)">
<path opacity="0.7" d="M15 30.5C23.2843 30.5 30 23.7843 30 15.5C30 7.21573 23.2843 0.5 15 0.5C6.71573 0.5 0 7.21573 0 15.5C0 23.7843 6.71573 30.5 15 30.5Z" fill="#D9EEFF"/>
<path d="M22.8866 15.0297H20.4491V17.9547L19.4741 17.306L18.4991 17.9547V15.0297H16.0616C15.9323 15.0297 15.8083 15.0811 15.7169 15.1725C15.6255 15.2639 15.5741 15.3879 15.5741 15.5172V21.3642C15.5741 21.4935 15.6255 21.6175 15.7169 21.709C15.8083 21.8004 15.9323 21.8517 16.0616 21.8517H22.8832C23.0125 21.8517 23.1366 21.8004 23.228 21.709C23.3194 21.6175 23.3708 21.4935 23.3708 21.3642V15.5169C23.3707 15.3882 23.3197 15.2648 23.229 15.1736C23.1383 15.0823 23.0153 15.0306 22.8866 15.0297ZM11.5894 13.9149H18.411C18.5349 13.9195 18.6556 13.8751 18.7469 13.7913C18.8382 13.7074 18.8927 13.5909 18.8985 13.4671V8.09749C18.8927 7.97367 18.8382 7.85717 18.7469 7.77332C18.6556 7.68947 18.5349 7.64505 18.411 7.64974H15.9735V10.3355L14.9985 9.73961L14.0235 10.3355V7.64749H11.586C11.4621 7.64271 11.3413 7.68709 11.25 7.77096C11.1587 7.85483 11.1042 7.97139 11.0985 8.09524V13.4675C11.1043 13.5919 11.1593 13.7089 11.2514 13.7928C11.3434 13.8767 11.465 13.9206 11.5894 13.9149ZM13.9354 15.0297H11.4979V17.9547L10.5229 17.306L9.54787 17.9547V15.0297H7.11037C7.04636 15.0297 6.98296 15.0424 6.92381 15.0669C6.86467 15.0913 6.81092 15.1273 6.76566 15.1725C6.72039 15.2178 6.68448 15.2715 6.65998 15.3307C6.63548 15.3898 6.62288 15.4532 6.62288 15.5172V21.3642C6.62288 21.4935 6.67423 21.6175 6.76566 21.709C6.85708 21.8004 6.98108 21.8517 7.11037 21.8517H13.932C14.0613 21.8517 14.1853 21.8004 14.2767 21.709C14.3681 21.6175 14.4195 21.4935 14.4195 21.3642V15.5169C14.4194 15.3882 14.3685 15.2648 14.2778 15.1736C14.1871 15.0823 14.064 15.0306 13.9354 15.0297Z" fill="#2680EB"/>
<mask id="mask0_2016_21" style="mask-type:luminance" maskUnits="userSpaceOnUse" x="6" y="7" width="18" height="15">
<path d="M22.8866 15.0297H20.4491V17.9547L19.4741 17.306L18.4991 17.9547V15.0297H16.0616C15.9323 15.0297 15.8083 15.0811 15.7169 15.1725C15.6255 15.2639 15.5741 15.3879 15.5741 15.5172V21.3642C15.5741 21.4935 15.6255 21.6175 15.7169 21.709C15.8083 21.8004 15.9323 21.8517 16.0616 21.8517H22.8832C23.0125 21.8517 23.1366 21.8004 23.228 21.709C23.3194 21.6175 23.3708 21.4935 23.3708 21.3642V15.5169C23.3707 15.3882 23.3197 15.2648 23.229 15.1736C23.1383 15.0823 23.0153 15.0306 22.8866 15.0297ZM11.5894 13.9149H18.411C18.5349 13.9195 18.6556 13.8751 18.7469 13.7913C18.8382 13.7074 18.8927 13.5909 18.8985 13.4671V8.09749C18.8927 7.97367 18.8382 7.85717 18.7469 7.77332C18.6556 7.68947 18.5349 7.64505 18.411 7.64974H15.9735V10.3355L14.9985 9.73961L14.0235 10.3355V7.64749H11.586C11.4621 7.64271 11.3413 7.68709 11.25 7.77096C11.1587 7.85483 11.1042 7.97139 11.0985 8.09524V13.4675C11.1043 13.5919 11.1593 13.7089 11.2514 13.7928C11.3434 13.8767 11.465 13.9206 11.5894 13.9149ZM13.9354 15.0297H11.4979V17.9547L10.5229 17.306L9.54787 17.9547V15.0297H7.11037C7.04636 15.0297 6.98296 15.0424 6.92381 15.0669C6.86467 15.0913 6.81092 15.1273 6.76566 15.1725C6.72039 15.2178 6.68448 15.2715 6.65998 15.3307C6.63548 15.3898 6.62288 15.4532 6.62288 15.5172V21.3642C6.62288 21.4935 6.67423 21.6175 6.76566 21.709C6.85708 21.8004 6.98108 21.8517 7.11037 21.8517H13.932C14.0613 21.8517 14.1853 21.8004 14.2767 21.709C14.3681 21.6175 14.4195 21.4935 14.4195 21.3642V15.5169C14.4194 15.3882 14.3685 15.2648 14.2778 15.1736C14.1871 15.0823 14.064 15.0306 13.9354 15.0297Z" fill="white"/>
</mask>
<g mask="url(#mask0_2016_21)">
<path opacity="0.5" d="M7.66725 18.5292C12.4941 18.5292 16.407 14.6163 16.407 9.78949C16.407 4.96266 12.4941 1.04974 7.66725 1.04974C2.84042 1.04974 -1.0725 4.96266 -1.0725 9.78949C-1.0725 14.6163 2.84042 18.5292 7.66725 18.5292Z" fill="#6BB1FE"/>
</g>
</g>
<defs>
<clipPath id="clip0_2016_21">
<rect width="30" height="30" fill="white" transform="translate(0 0.5)"/>
</clipPath>
</defs>
</svg>
