<svg id="icon-keterangan-ppdb" xmlns="http://www.w3.org/2000/svg" xmlns:xlink="http://www.w3.org/1999/xlink" width="30" height="30" viewBox="0 0 30 30">
  <defs>
    <clipPath id="clip-path">
      <path id="Subtraction_57" data-name="Subtraction 57" d="M11.423,18.612H.761a.709.709,0,0,1-.539-.255A.935.935,0,0,1,0,17.74V.872A.933.933,0,0,1,.222.256.71.71,0,0,1,.761,0H7.108V4.944a.824.824,0,0,0,.761.873h4.315v7.766L9.5,15.8l-.354,1.644a.358.358,0,0,0,.068.3.341.341,0,0,0,.268.131l1.655-.009L12.184,17v.743a.931.931,0,0,1-.223.617A.709.709,0,0,1,11.423,18.612ZM2.462,13.826a.531.531,0,1,0,0,1.063H7.134a.531.531,0,1,0,0-1.063Zm0-2.128a.531.531,0,1,0,0,1.063H9.743a.531.531,0,1,0,0-1.063Zm0-2.128a.531.531,0,1,0,0,1.063H9.743a.531.531,0,1,0,0-1.063Zm0-2.127a.532.532,0,1,0,0,1.064H9.743a.532.532,0,1,0,0-1.064Zm9.723-2.791H8.123V0h.193a.714.714,0,0,1,.539.254l3.108,3.562a.943.943,0,0,1,.221.616v.22Z" transform="translate(0 0)" fill="#2680eb"/>
    </clipPath>
  </defs>
  <circle id="Ellipse_84" data-name="Ellipse 84" cx="15" cy="15" r="15" fill="#d9eeff" opacity="0.5"/>
  <g id="Group_4640" data-name="Group 4640" transform="translate(-459.478 -453.307)">
    <path id="Subtraction_31" data-name="Subtraction 31" d="M11.423,18.613H.761A.824.824,0,0,1,0,17.74V.872A.823.823,0,0,1,.761,0H7.107V4.944a.824.824,0,0,0,.762.873h4.315V17.74A.824.824,0,0,1,11.423,18.613ZM2.462,13.826a.531.531,0,1,0,0,1.063H7.134a.531.531,0,1,0,0-1.063Zm0-2.128a.531.531,0,1,0,0,1.063H9.743a.531.531,0,1,0,0-1.063Zm0-2.128a.531.531,0,1,0,0,1.063H9.743a.531.531,0,1,0,0-1.063Zm0-2.127a.532.532,0,1,0,0,1.064H9.743a.532.532,0,1,0,0-1.064Zm9.723-2.791H8.123V0h.194a.712.712,0,0,1,.539.255l2.751,3.155.355.408a.948.948,0,0,1,.221.615v.22Z" transform="translate(469.122 459)" fill="#2680eb"/>
    <g id="Mask_Group_1526" data-name="Mask Group 1526" transform="translate(469.122 459)" clip-path="url(#clip-path)">
      <circle id="Ellipse_647" data-name="Ellipse 647" cx="8.549" cy="8.549" r="8.549" transform="translate(-11.259 -5.956)" fill="#6bb1fe" stroke="rgba(0,0,0,0)" stroke-miterlimit="10" stroke-width="1" opacity="0.5"/>
    </g>
  </g>
</svg>
