<svg xmlns="http://www.w3.org/2000/svg" xmlns:xlink="http://www.w3.org/1999/xlink" width="50" height="50" viewBox="0 0 50 50">
  <defs>
    <clipPath id="clip-path">
      <path id="Path_98" data-name="Path 98" d="M39.926,28.619V14.25a1.358,1.358,0,0,0-1.358-1.358H32.12V8.983a1.019,1.019,0,0,0-.522-.889l-5.235-2.92c-.029-.016-.059-.03-.089-.043V3.464h2.819a.407.407,0,0,0,.407-.407V1a.407.407,0,0,0-.407-.407H26.274V.407a.407.407,0,1,0-.815,0V5.13c-.03.013-.06.027-.089.043l-5.235,2.92a1.018,1.018,0,0,0-.523.889v3.909H13.164a1.358,1.358,0,0,0-1.358,1.358V28.619a1.663,1.663,0,0,0,.685,3.179H39.241a1.663,1.663,0,0,0,.685-3.179ZM34.677,17.625a.791.791,0,0,1,.791-.791h1.479a.791.791,0,0,1,.791.791V19.1a.791.791,0,0,1-.791.791H35.469a.791.791,0,0,1-.791-.791V17.625Zm0,4.752a.791.791,0,0,1,.791-.791h1.479a.791.791,0,0,1,.791.791v1.479a.791.791,0,0,1-.791.791H35.469a.791.791,0,0,1-.791-.791V22.378Zm-4.752-4.752a.791.791,0,0,1,.791-.791h1.479a.791.791,0,0,1,.791.791V19.1a.791.791,0,0,1-.791.791H30.716a.791.791,0,0,1-.791-.791Zm0,4.752a.791.791,0,0,1,.791-.791h1.479a.791.791,0,0,1,.791.791v1.479a.791.791,0,0,1-.791.791H30.716a.791.791,0,0,1-.791-.791ZM25.866,8.986a2.24,2.24,0,1,1-2.24,2.24A2.24,2.24,0,0,1,25.866,8.986ZM23.622,21.848a.791.791,0,0,1,.791-.791h2.9a.791.791,0,0,1,.791.791v6.232a.786.786,0,0,1-.1.392H23.727a.786.786,0,0,1-.1-.392V21.848Zm-4.876-4.223a.791.791,0,0,1,.791-.791h1.479a.791.791,0,0,1,.791.791V19.1a.791.791,0,0,1-.791.791H19.537a.791.791,0,0,1-.791-.791Zm0,4.752a.791.791,0,0,1,.791-.791h1.479a.791.791,0,0,1,.791.791v1.479a.791.791,0,0,1-.791.791H19.537a.791.791,0,0,1-.791-.791Zm-4.753-4.752a.791.791,0,0,1,.791-.791h1.479a.791.791,0,0,1,.791.791V19.1a.791.791,0,0,1-.791.791H14.785a.791.791,0,0,1-.791-.791V17.625Zm0,4.752a.791.791,0,0,1,.791-.791h1.479a.791.791,0,0,1,.791.791v1.479a.791.791,0,0,1-.791.791H14.785a.791.791,0,0,1-.791-.791V22.378Z" transform="translate(-10.828 0)" fill="#2680eb"/>
    </clipPath>
  </defs>
  <g id="icon-role-manajemen-sekolah" transform="translate(-235 -276)">
    <circle id="Ellipse_1" data-name="Ellipse 1" cx="25" cy="25" r="25" transform="translate(235 276)" fill="#d9eeff" opacity="0.7"/>
    <g id="Group_1" data-name="Group 1" transform="translate(244.486 283.342)">
      <g id="Group_192" data-name="Group 192" transform="translate(0)">
        <path id="Path_98-2" data-name="Path 98" d="M39.926,28.619V14.25a1.358,1.358,0,0,0-1.358-1.358H32.12V8.983a1.019,1.019,0,0,0-.522-.889l-5.235-2.92c-.029-.016-.059-.03-.089-.043V3.464h2.819a.407.407,0,0,0,.407-.407V1a.407.407,0,0,0-.407-.407H26.274V.407a.407.407,0,1,0-.815,0V5.13c-.03.013-.06.027-.089.043l-5.235,2.92a1.018,1.018,0,0,0-.523.889v3.909H13.164a1.358,1.358,0,0,0-1.358,1.358V28.619a1.663,1.663,0,0,0,.685,3.179H39.241a1.663,1.663,0,0,0,.685-3.179ZM34.677,17.625a.791.791,0,0,1,.791-.791h1.479a.791.791,0,0,1,.791.791V19.1a.791.791,0,0,1-.791.791H35.469a.791.791,0,0,1-.791-.791V17.625Zm0,4.752a.791.791,0,0,1,.791-.791h1.479a.791.791,0,0,1,.791.791v1.479a.791.791,0,0,1-.791.791H35.469a.791.791,0,0,1-.791-.791V22.378Zm-4.752-4.752a.791.791,0,0,1,.791-.791h1.479a.791.791,0,0,1,.791.791V19.1a.791.791,0,0,1-.791.791H30.716a.791.791,0,0,1-.791-.791Zm0,4.752a.791.791,0,0,1,.791-.791h1.479a.791.791,0,0,1,.791.791v1.479a.791.791,0,0,1-.791.791H30.716a.791.791,0,0,1-.791-.791ZM25.866,8.986a2.24,2.24,0,1,1-2.24,2.24A2.24,2.24,0,0,1,25.866,8.986ZM23.622,21.848a.791.791,0,0,1,.791-.791h2.9a.791.791,0,0,1,.791.791v6.232a.786.786,0,0,1-.1.392H23.727a.786.786,0,0,1-.1-.392V21.848Zm-4.876-4.223a.791.791,0,0,1,.791-.791h1.479a.791.791,0,0,1,.791.791V19.1a.791.791,0,0,1-.791.791H19.537a.791.791,0,0,1-.791-.791Zm0,4.752a.791.791,0,0,1,.791-.791h1.479a.791.791,0,0,1,.791.791v1.479a.791.791,0,0,1-.791.791H19.537a.791.791,0,0,1-.791-.791Zm-4.753-4.752a.791.791,0,0,1,.791-.791h1.479a.791.791,0,0,1,.791.791V19.1a.791.791,0,0,1-.791.791H14.785a.791.791,0,0,1-.791-.791V17.625Zm0,4.752a.791.791,0,0,1,.791-.791h1.479a.791.791,0,0,1,.791.791v1.479a.791.791,0,0,1-.791.791H14.785a.791.791,0,0,1-.791-.791V22.378Z" transform="translate(-10.828)" fill="#2680eb"/>
      </g>
    </g>
    <g id="Mask_Group_4" data-name="Mask Group 4" transform="translate(244.486 283.342)" clip-path="url(#clip-path)">
      <circle id="Ellipse_85" data-name="Ellipse 85" cx="23" cy="23" r="23" transform="translate(-30.486 -14.343)" fill="#6bb1fe" opacity="0.5"/>
    </g>
  </g>
</svg>
