<svg xmlns="http://www.w3.org/2000/svg" xmlns:xlink="http://www.w3.org/1999/xlink" width="60" height="60" viewBox="0 0 60 60">
  <defs>
    <clipPath id="clip-path">
      <path id="Path_2441" data-name="Path 2441" d="M535.923-7.03v-8.562H523.8a1.48,1.48,0,0,0-1.455,1.511V15.132a1.48,1.48,0,0,0,1.455,1.511h20.372a1.48,1.48,0,0,0,1.455-1.511V-5.518h-8.246A1.488,1.488,0,0,1,535.923-7.03Z" transform="translate(-522.342 15.592)" fill="#2680eb" stroke="rgba(0,0,0,0)" stroke-miterlimit="10" stroke-width="1"/>
    </clipPath>
  </defs>
  <g id="icon-mou-mulai" transform="translate(-169 -548)">
    <circle id="Ellipse_386" data-name="Ellipse 386" cx="30" cy="30" r="30" transform="translate(169 548)" fill="#d9eeff" opacity="0.4"/>
    <g id="Group_4603" data-name="Group 4603" transform="translate(-97.869 65.99)">
      <path id="Path_2438" data-name="Path 2438" d="M785.678-8.981l-5.936-6.17a1.427,1.427,0,0,0-1.031-.441h-.37v8.059H786.1v-.384A1.536,1.536,0,0,0,785.678-8.981Z" transform="translate(-477.905 511.092)" fill="#2680eb" stroke="rgba(0,0,0,0)" stroke-miterlimit="10" stroke-width="1"/>
      <path id="Subtraction_68" data-name="Subtraction 68" d="M17.041,32.235H1.455A1.486,1.486,0,0,1,0,30.724V1.511A1.486,1.486,0,0,1,1.455,0H13.581V8.563a1.486,1.486,0,0,0,1.455,1.511h8.246V26.238a5.085,5.085,0,0,0-6.241,6ZM4.447,26.852a1.054,1.054,0,1,0,0,2.109H12.57a1.054,1.054,0,1,0,0-2.109Zm0-4.472a1.055,1.055,0,0,0,0,2.11H18.261a1.055,1.055,0,0,0,0-2.11Zm0-4.471a1.055,1.055,0,0,0,0,2.11H18.261a1.055,1.055,0,1,0,0-2.11Zm0-4.471a1.054,1.054,0,1,0,0,2.109H18.261a1.054,1.054,0,1,0,0-2.109Z" transform="translate(284.916 495.5)" fill="#2680eb" stroke="rgba(0,0,0,0)" stroke-miterlimit="10" stroke-width="1"/>
      <g id="Mask_Group_1292" data-name="Mask Group 1292" transform="translate(284.916 495.5)" clip-path="url(#clip-path)">
        <ellipse id="Ellipse_280" data-name="Ellipse 280" cx="14.498" cy="14.497" rx="14.498" ry="14.497" transform="translate(-13.36 -16.375)" fill="#6bb1fe" opacity="0.5"/>
      </g>
      <path id="Subtraction_69" data-name="Subtraction 69" d="M3.862,7.724A3.862,3.862,0,1,1,7.725,3.862,3.866,3.866,0,0,1,3.862,7.724Zm-1.7-4.265a.233.233,0,0,0-.157.06l-.318.288a.193.193,0,0,0,0,.29L3.147,5.419a.238.238,0,0,0,.16.061.232.232,0,0,0,.159-.061L6.043,3.077a.2.2,0,0,0,.066-.146.191.191,0,0,0-.066-.142L5.726,2.5a.233.233,0,0,0-.157-.058A.236.236,0,0,0,5.41,2.5l-2.1,1.914-.982-.894A.238.238,0,0,0,2.167,3.459Z" transform="translate(303.096 522.795)" fill="#2680eb"/>
    </g>
  </g>
</svg>
