<svg xmlns="http://www.w3.org/2000/svg" width="11.25" height="15" viewBox="0 0 11.25 15">
  <g id="icon-pratinjau-soal" transform="translate(793.618 -34.513)">
    <path id="Path_200" data-name="Path 200" d="M-534.082,37.582l-2.861-2.864a.7.7,0,0,0-.5-.2h-.178v3.741h3.741v-.178A.7.7,0,0,0-534.082,37.582Z" transform="translate(-248.491)" fill="#80849c"/>
    <circle id="Ellipse_78" data-name="Ellipse 78" cx="1.85" cy="1.85" r="1.85" transform="translate(-790.539 41.783)" fill="#80849c"/>
    <path id="Path_201" data-name="Path 201" d="M-787.055,38.5V34.513h-5.859a.7.7,0,0,0-.7.7V48.81a.7.7,0,0,0,.7.7h9.844a.7.7,0,0,0,.7-.7V39.2h-3.984A.705.705,0,0,1-787.055,38.5Zm.979,6.989a.347.347,0,0,1,.246.1l1.445,1.444a.349.349,0,0,1,0,.493l-.41.41a.346.346,0,0,1-.491,0l-1.444-1.444a.347.347,0,0,1-.1-.246v-.236a3,3,0,0,1-1.854.637,3.013,3.013,0,0,1-3.013-3.013,3.013,3.013,0,0,1,3.013-3.013,3.013,3.013,0,0,1,3.013,3.013,3,3,0,0,1-.638,1.854Z" transform="translate(0)" fill="#80849c"/>
  </g>
</svg>
