<svg xmlns="http://www.w3.org/2000/svg" xmlns:xlink="http://www.w3.org/1999/xlink" width="50" height="50" viewBox="0 0 50 50">
  <defs>
    <clipPath id="clip-path">
      <path id="Path_266" data-name="Path 266" d="M17.588,17.63l-5.253,5.253L7.081,17.63A7.384,7.384,0,0,0,0,25v.529a2.644,2.644,0,0,0,2.643,2.643H22.026a2.644,2.644,0,0,0,2.643-2.643V25a7.384,7.384,0,0,0-7.081-7.368ZM.749,4.371l.352.083V7.669a1.272,1.272,0,0,0-.05,2.2L.193,13.3c-.094.38.116.771.418.771h2.3c.3,0,.512-.391.418-.771L2.472,9.871a1.272,1.272,0,0,0-.05-2.2v-2.9l3.634.876A7.035,7.035,0,1,0,19.383,8.787a6.923,6.923,0,0,0-.771-3.139l5.3-1.277a.876.876,0,0,0,0-1.735L13.43.1a4.73,4.73,0,0,0-2.186,0L.749,2.63A.88.88,0,0,0,.749,4.371Z" transform="translate(0 0.025)" fill="#2680eb"/>
    </clipPath>
  </defs>
  <g id="icon-role-alumni" transform="translate(-235 -276)">
    <circle id="Ellipse_1" data-name="Ellipse 1" cx="25" cy="25" r="25" transform="translate(235 276)" fill="#d9eeff"/>
    <path id="Path_253" data-name="Path 253" d="M17.588,17.63l-5.253,5.253L7.081,17.63A7.384,7.384,0,0,0,0,25v.529a2.644,2.644,0,0,0,2.643,2.643H22.026a2.644,2.644,0,0,0,2.643-2.643V25a7.384,7.384,0,0,0-7.081-7.368ZM.749,4.371l.352.083V7.669a1.272,1.272,0,0,0-.05,2.2L.193,13.3c-.094.38.116.771.418.771h2.3c.3,0,.512-.391.418-.771L2.472,9.871a1.272,1.272,0,0,0-.05-2.2v-2.9l3.634.876A7.035,7.035,0,1,0,19.383,8.787a6.923,6.923,0,0,0-.771-3.139l5.3-1.277a.876.876,0,0,0,0-1.735L13.43.1a4.73,4.73,0,0,0-2.186,0L.749,2.63A.88.88,0,0,0,.749,4.371Z" transform="translate(247.603 287.428)" fill="#2680eb"/>
    <g id="Mask_Group_8" data-name="Mask Group 8" transform="translate(247.603 287.403)" clip-path="url(#clip-path)">
      <path id="Path_267" data-name="Path 267" d="M23.683,0A23.683,23.683,0,1,1,0,23.683,23.683,23.683,0,0,1,23.683,0Z" transform="translate(-33.833 -16.917)" fill="#6bb1fe" opacity="0.5"/>
    </g>
  </g>
</svg>
