<svg xmlns="http://www.w3.org/2000/svg" width="30" height="30" viewBox="0 0 30 30">
  <g id="icon-nav-daftar-ujian" transform="translate(-183.35 -190.35)">
    <circle id="Ellipse_29" data-name="Ellipse 29" cx="15" cy="15" r="15" transform="translate(183.35 190.35)" fill="#d9eeff" opacity="0.4"/>
    <path id="Path_221" data-name="Path 221" d="M1.464,0A1.465,1.465,0,0,0,0,1.464V3.416A.488.488,0,0,0,.488,3.9h2.44V1.464A1.465,1.465,0,0,0,1.464,0ZM7.808,12.583V10.736h8.784V2.928A2.931,2.931,0,0,0,13.664,0H3.4a2.417,2.417,0,0,1,.5,1.464V12.688a1.953,1.953,0,0,0,2.28,1.925A2.024,2.024,0,0,0,7.808,12.583Zm.976-.871v.976a2.931,2.931,0,0,1-2.928,2.928H16.1A3.416,3.416,0,0,0,19.519,12.2a.488.488,0,0,0-.488-.488Z" transform="translate(188.591 197.542)" fill="#2680eb"/>
    <path id="Intersection_4" data-name="Intersection 4" d="M24430.5,16377.791a2.446,2.446,0,0,0-.5-1.466h9.307a9.978,9.978,0,0,1-8.8,9.907Zm-3.416,2.436a.487.487,0,0,1-.492-.484v-1.951a1.464,1.464,0,1,1,2.928,0v2.436Z" transform="translate(-24238 -16178.783)" fill="#6bb1fe" stroke="rgba(0,0,0,0)" stroke-miterlimit="10" stroke-width="1" opacity="0.5"/>
  </g>
</svg>
