<svg xmlns="http://www.w3.org/2000/svg" xmlns:xlink="http://www.w3.org/1999/xlink" width="80" height="80" viewBox="0 0 80 80">
  <defs>
    <clipPath id="clip-path">
      <path id="Path_250" data-name="Path 250" d="M201.76,195.161a1.353,1.353,0,0,0,1.35-1.349v-4.5a1.353,1.353,0,0,0-1.35-1.349h-2.249v-5.4a5.4,5.4,0,0,0-5.4-5.4H158.133a5.4,5.4,0,0,0-5.4,5.4v46.776a5.4,5.4,0,0,0,5.4,5.4h35.981a5.4,5.4,0,0,0,5.4-5.4v-5.4h2.249a1.353,1.353,0,0,0,1.35-1.349v-4.5a1.353,1.353,0,0,0-1.35-1.349h-2.249v-7.2h2.249a1.354,1.354,0,0,0,1.35-1.35v-4.5a1.353,1.353,0,0,0-1.35-1.349h-2.249v-7.2Zm-25.636-3.6a7.2,7.2,0,1,1-7.2,7.2A7.2,7.2,0,0,1,176.124,191.563Zm12.593,26.626a2.358,2.358,0,0,1-2.519,2.159H166.049a2.358,2.358,0,0,1-2.519-2.159V216.03c0-3.576,3.384-6.477,7.556-6.477h.562a11.581,11.581,0,0,0,8.95,0h.562c4.171,0,7.556,2.9,7.556,6.477Z" transform="translate(-152.736 -177.17)" fill="none"/>
    </clipPath>
    <clipPath id="clip-path-2">
      <path id="Union_4" data-name="Union 4" d="M1.942,43.021A1.976,1.976,0,0,1,0,41V2.017A1.976,1.976,0,0,1,1.942,0H18.125V11.427a1.986,1.986,0,0,0,1.942,2.017h11V41a1.976,1.976,0,0,1-1.942,2.017ZM17.864,31.48l1.02,2.378a1.889,1.889,0,0,0,.68.847,1.7,1.7,0,0,0,.952.283,1.991,1.991,0,0,0,1.371-.541,1.71,1.71,0,0,0,.6-1.318,2.093,2.093,0,0,0-.2-.871L16.3,19.5a2.141,2.141,0,0,0-.884-.977,2.552,2.552,0,0,0-2.55,0,2.156,2.156,0,0,0-.873.977L6.009,32.256a2.093,2.093,0,0,0-.2.871,1.682,1.682,0,0,0,.623,1.318,2.072,2.072,0,0,0,1.394.541,1.755,1.755,0,0,0,.963-.283,1.863,1.863,0,0,0,.691-.847L10.52,31.48Zm2.164-10.9V21.4a.4.4,0,0,0,.394.409H22v1.635a.4.4,0,0,0,.393.409h.787a.4.4,0,0,0,.394-.409V21.8h1.574a.4.4,0,0,0,.394-.409v-.817a.4.4,0,0,0-.394-.409H23.57V18.535a.4.4,0,0,0-.394-.409h-.787a.4.4,0,0,0-.393.409V20.17H20.422A.4.4,0,0,0,20.028,20.578Zm-8.1,7.653,2.267-5.249,2.267,5.249Zm8.788-17.476V0h.494a1.9,1.9,0,0,1,1.376.588L30.5,8.823a2.05,2.05,0,0,1,.566,1.42v.513Z" transform="translate(0 0)" fill="#2680eb" stroke="rgba(0,0,0,0)" stroke-miterlimit="10" stroke-width="1"/>
    </clipPath>
  </defs>
  <g id="icon-admin-ujian" transform="translate(-34 -469)">
    <circle id="Ellipse_84" data-name="Ellipse 84" cx="40" cy="40" r="40" transform="translate(34 469)" fill="#d9eeff" opacity="0.7"/>
    <g id="Group_880" data-name="Group 880" transform="translate(7.064 8.609)">
      <path id="Union_3" data-name="Union 3" d="M1.942,43.021A1.976,1.976,0,0,1,0,41V2.017A1.976,1.976,0,0,1,1.942,0H18.125V11.427a1.986,1.986,0,0,0,1.942,2.017h11V41a1.976,1.976,0,0,1-1.942,2.017ZM17.864,31.48l1.02,2.378a1.889,1.889,0,0,0,.68.847,1.7,1.7,0,0,0,.952.283,1.991,1.991,0,0,0,1.371-.541,1.71,1.71,0,0,0,.6-1.318,2.093,2.093,0,0,0-.2-.871L16.3,19.5a2.141,2.141,0,0,0-.884-.977,2.552,2.552,0,0,0-2.55,0,2.156,2.156,0,0,0-.873.977L6.009,32.256a2.093,2.093,0,0,0-.2.871,1.682,1.682,0,0,0,.623,1.318,2.072,2.072,0,0,0,1.394.541,1.755,1.755,0,0,0,.963-.283,1.863,1.863,0,0,0,.691-.847L10.52,31.48Zm2.164-10.9V21.4a.4.4,0,0,0,.394.409H22v1.635a.4.4,0,0,0,.393.409h.787a.4.4,0,0,0,.394-.409V21.8h1.574a.4.4,0,0,0,.394-.409v-.817a.4.4,0,0,0-.394-.409H23.57V18.535a.4.4,0,0,0-.394-.409h-.787a.4.4,0,0,0-.393.409V20.17H20.422A.4.4,0,0,0,20.028,20.578Zm-8.1,7.653,2.267-5.249,2.267,5.249Zm8.788-17.476V0h.494a1.9,1.9,0,0,1,1.376.588L30.5,8.823a2.05,2.05,0,0,1,.566,1.42v.513Z" transform="translate(51.713 478.881)" fill="#2680eb" stroke="rgba(0,0,0,0)" stroke-miterlimit="10" stroke-width="1"/>
      <g id="Mask_Group_7" data-name="Mask Group 7" transform="translate(51.713 478.881)" clip-path="url(#clip-path-2)">
        <circle id="Ellipse_113" data-name="Ellipse 113" cx="19.348" cy="19.348" r="19.348" transform="translate(-18.89 -19.112)" fill="#6bb1fe" opacity="0.5"/>
      </g>
    </g>
  </g>
</svg>
