<svg xmlns="http://www.w3.org/2000/svg" xmlns:xlink="http://www.w3.org/1999/xlink" width="50" height="50" viewBox="0 0 50 50">
  <defs>
    <clipPath id="clip-path">
      <path id="Path_256" data-name="Path 256" d="M13.61,15.555A7.777,7.777,0,1,0,5.833,7.777,7.777,7.777,0,0,0,13.61,15.555Zm5.821,1.981-2.9,11.63L14.583,20.9l1.944-3.4H10.694l1.944,3.4-1.944,8.263-2.9-11.63A8.152,8.152,0,0,0,0,25.665v2.528a2.917,2.917,0,0,0,2.917,2.917H24.3a2.917,2.917,0,0,0,2.917-2.917V25.665a8.152,8.152,0,0,0-7.789-8.13Z" transform="translate(0 0)" fill="#2680eb"/>
    </clipPath>
  </defs>
  <g id="icon-role-kepala-sekolah" transform="translate(-235 -276)">
    <circle id="Ellipse_1" data-name="Ellipse 1" cx="25" cy="25" r="25" transform="translate(235 276)" fill="#d9eeff" opacity="0.7"/>
    <path id="Path_249" data-name="Path 249" d="M13.61,15.555A7.777,7.777,0,1,0,5.833,7.777,7.777,7.777,0,0,0,13.61,15.555Zm5.821,1.981-2.9,11.63L14.583,20.9l1.944-3.4H10.694l1.944,3.4-1.944,8.263-2.9-11.63A8.152,8.152,0,0,0,0,25.665v2.528a2.917,2.917,0,0,0,2.917,2.917H24.3a2.917,2.917,0,0,0,2.917-2.917V25.665a8.152,8.152,0,0,0-7.789-8.13Z" transform="translate(246.327 284.945)" fill="#2680eb"/>
    <g id="Mask_Group_2" data-name="Mask Group 2" transform="translate(246.327 284.945)" clip-path="url(#clip-path)">
      <circle id="Ellipse_83" data-name="Ellipse 83" cx="21" cy="21" r="21" transform="translate(-27.328 -11.945)" fill="#6bb1fe" opacity="0.5"/>
    </g>
  </g>
</svg>
