<svg xmlns="http://www.w3.org/2000/svg" width="32" height="32" viewBox="0 0 32 32">
  <g id="icon-sort" transform="translate(-1171 -561)">
    <rect id="Rectangle_86" data-name="Rectangle 86" width="32" height="32" rx="5" transform="translate(1171 561)" fill="#2680eb"/>
    <path id="Path_297" data-name="Path 297" d="M18.046,67.626h11a1.11,1.11,0,0,1,.786,1.894l-5.5,5.5a1.1,1.1,0,0,1-1.566,0l-5.5-5.5A1.11,1.11,0,0,1,18.046,67.626Zm11.783-4.852-5.5-5.5a1.1,1.1,0,0,0-1.566,0l-5.5,5.5a1.11,1.11,0,0,0,.786,1.894h11A1.11,1.11,0,0,0,29.829,62.774Z" transform="translate(1163.521 510.903)" fill="#fff"/>
  </g>
</svg>
