<svg xmlns="http://www.w3.org/2000/svg" xmlns:xlink="http://www.w3.org/1999/xlink" width="22.14" height="24" viewBox="0 0 22.14 24">
  <defs>
    <clipPath id="clip-path">
      <path id="Subtraction_55" data-name="Subtraction 55" d="M17.189,24H1.146a1.145,1.145,0,0,1-.811-.328,1.106,1.106,0,0,1-.335-.8V1.125a1.105,1.105,0,0,1,.335-.8A1.146,1.146,0,0,1,1.146,0H10.7V6.376A1.136,1.136,0,0,0,11.842,7.5h6.493V17.515L14.3,20.367l-.533,2.121a.413.413,0,0,0,.1.382.547.547,0,0,0,.4.168l2.491-.011,1.571-1.111v.958a1.106,1.106,0,0,1-.335.8A1.148,1.148,0,0,1,17.189,24Zm-13.6-6.172a.685.685,0,1,0,0,1.371h7.262a.685.685,0,1,0,0-1.371Zm0-2.744a.686.686,0,0,0,0,1.372H14.775a.686.686,0,1,0,0-1.372Zm0-2.743a.686.686,0,0,0,0,1.372H14.775a.686.686,0,1,0,0-1.372Zm0-2.741a.686.686,0,0,0,0,1.372H14.775a.686.686,0,1,0,0-1.372ZM15.043,22.4h0a.34.34,0,0,1-.268-.124.252.252,0,0,1-.049-.22l.332-1.326,4.127-2.92,1.54,1.661L16.594,22.4Zm6.016-3.166h0L19.52,17.575l.84-.594a.709.709,0,0,1,.408-.126.688.688,0,0,1,.505.21l.723.78a.516.516,0,0,1,.142.408.546.546,0,0,1-.238.39l-.84.594ZM18.335,6H12.224V0h.291a1.148,1.148,0,0,1,.811.328L18,4.921a1.11,1.11,0,0,1,.333.793V6Z" transform="translate(0 0)" fill="#80849c"/>
    </clipPath>
  </defs>
  <g id="icon-ujian-bottomnav" transform="translate(-5675.14 -18559.004)">
    <path id="Subtraction_53" data-name="Subtraction 53" d="M17.189,24H1.146a1.145,1.145,0,0,1-.811-.328,1.106,1.106,0,0,1-.335-.8V1.125a1.105,1.105,0,0,1,.335-.8A1.146,1.146,0,0,1,1.146,0H10.7V6.376A1.136,1.136,0,0,0,11.842,7.5h6.493V17.515L14.3,20.367l-.533,2.121a.413.413,0,0,0,.1.382.547.547,0,0,0,.4.168l2.491-.011,1.571-1.111v.958a1.106,1.106,0,0,1-.335.8A1.148,1.148,0,0,1,17.189,24Zm-13.6-6.172a.685.685,0,1,0,0,1.371h7.262a.685.685,0,1,0,0-1.371Zm0-2.744a.686.686,0,0,0,0,1.372H14.775a.686.686,0,1,0,0-1.372Zm0-2.743a.686.686,0,0,0,0,1.372H14.775a.686.686,0,1,0,0-1.372Zm0-2.741a.686.686,0,0,0,0,1.372H14.775a.686.686,0,1,0,0-1.372ZM15.043,22.4h0a.34.34,0,0,1-.268-.124.252.252,0,0,1-.049-.22l.332-1.326,4.127-2.92,1.54,1.661L16.594,22.4Zm6.016-3.166h0L19.52,17.575l.84-.594a.709.709,0,0,1,.408-.126.688.688,0,0,1,.505.21l.723.78a.516.516,0,0,1,.142.408.546.546,0,0,1-.238.39l-.84.594ZM18.335,6H12.224V0h.291a1.148,1.148,0,0,1,.811.328L18,4.921a1.11,1.11,0,0,1,.333.793V6Z" transform="translate(5675.14 18559.004)" fill="#80849c" opacity="0.6"/>
    <g id="Mask_Group_1507" data-name="Mask Group 1507" transform="translate(5675.14 18559.004)" opacity="0.6" clip-path="url(#clip-path)">
      <ellipse id="Ellipse_554" data-name="Ellipse 554" cx="30.066" cy="25.554" rx="30.066" ry="25.554" transform="translate(-47.777 -17.662)" fill="#80849c" opacity="0.5"/>
    </g>
  </g>
</svg>
