<svg xmlns="http://www.w3.org/2000/svg" xmlns:xlink="http://www.w3.org/1999/xlink" width="20" height="20" viewBox="0 0 20 20">
  <defs>
    <clipPath id="clip-path">
      <path id="Path_282" data-name="Path 282" d="M6.5,32C2.908,32,0,34.362,0,37.278a4.684,4.684,0,0,0,1.446,3.316,6.455,6.455,0,0,1-1.39,2.431.2.2,0,0,0-.038.221.2.2,0,0,0,.185.122,5.8,5.8,0,0,0,3.568-1.3,7.738,7.738,0,0,0,2.725.492c3.588,0,6.5-2.362,6.5-5.278S10.084,32,6.5,32ZM3.248,38.09a.812.812,0,1,1,.812-.812A.811.811,0,0,1,3.248,38.09Zm3.248,0a.812.812,0,1,1,.812-.812A.811.811,0,0,1,6.5,38.09Zm3.248,0a.812.812,0,1,1,.812-.812A.811.811,0,0,1,9.744,38.09Z" transform="translate(0 -32)" fill="#2680eb"/>
    </clipPath>
  </defs>
  <g id="icon-komen-primary" transform="translate(23483.734 -17246.266)">
    <circle id="Ellipse_92" data-name="Ellipse 92" cx="10" cy="10" r="10" transform="translate(-23483.734 17246.266)" fill="#d9eeff" opacity="0.7"/>
    <g id="Group_594" data-name="Group 594" transform="translate(-23480.271 17250.645)">
      <path id="Path_281" data-name="Path 281" d="M6.5,32C2.908,32,0,34.362,0,37.278a4.684,4.684,0,0,0,1.446,3.316,6.455,6.455,0,0,1-1.39,2.431.2.2,0,0,0-.038.221.2.2,0,0,0,.185.122,5.8,5.8,0,0,0,3.568-1.3,7.738,7.738,0,0,0,2.725.492c3.588,0,6.5-2.362,6.5-5.278S10.084,32,6.5,32ZM3.248,38.09a.812.812,0,1,1,.812-.812A.811.811,0,0,1,3.248,38.09Zm3.248,0a.812.812,0,1,1,.812-.812A.811.811,0,0,1,6.5,38.09Zm3.248,0a.812.812,0,1,1,.812-.812A.811.811,0,0,1,9.744,38.09Z" transform="translate(0 -32)" fill="#2680eb"/>
      <g id="Mask_Group_5" data-name="Mask Group 5" transform="translate(0 0)" clip-path="url(#clip-path)">
        <circle id="Ellipse_97" data-name="Ellipse 97" cx="8.532" cy="8.532" r="8.532" transform="translate(-10.568 -5.753)" fill="#6bb1fe" opacity="0.5"/>
      </g>
    </g>
  </g>
</svg>
