<svg xmlns="http://www.w3.org/2000/svg" xmlns:xlink="http://www.w3.org/1999/xlink" width="24" height="24" viewBox="0 0 24 24">
  <defs>
    <clipPath id="clip-path">
      <path id="calendar-alt-solid" d="M0,12.246a1.267,1.267,0,0,0,1.267,1.267h9.29a1.267,1.267,0,0,0,1.267-1.267V5.067H0ZM8.446,7.073a.318.318,0,0,1,.317-.317H9.818a.318.318,0,0,1,.317.317V8.129a.318.318,0,0,1-.317.317H8.762a.318.318,0,0,1-.317-.317Zm0,3.378a.318.318,0,0,1,.317-.317H9.818a.318.318,0,0,1,.317.317v1.056a.318.318,0,0,1-.317.317H8.762a.318.318,0,0,1-.317-.317ZM5.067,7.073a.318.318,0,0,1,.317-.317H6.44a.318.318,0,0,1,.317.317V8.129a.318.318,0,0,1-.317.317H5.384a.318.318,0,0,1-.317-.317Zm0,3.378a.318.318,0,0,1,.317-.317H6.44a.318.318,0,0,1,.317.317v1.056a.318.318,0,0,1-.317.317H5.384a.318.318,0,0,1-.317-.317ZM1.689,7.073a.318.318,0,0,1,.317-.317H3.062a.318.318,0,0,1,.317.317V8.129a.318.318,0,0,1-.317.317H2.006a.318.318,0,0,1-.317-.317Zm0,3.378a.318.318,0,0,1,.317-.317H3.062a.318.318,0,0,1,.317.317v1.056a.318.318,0,0,1-.317.317H2.006a.318.318,0,0,1-.317-.317Zm8.868-8.762H9.29V.422A.424.424,0,0,0,8.868,0H8.023A.424.424,0,0,0,7.6.422V1.689H4.223V.422A.424.424,0,0,0,3.8,0H2.956a.424.424,0,0,0-.422.422V1.689H1.267A1.267,1.267,0,0,0,0,2.956V4.223H11.824V2.956A1.267,1.267,0,0,0,10.557,1.689Z" fill="#2680eb"/>
    </clipPath>
  </defs>
  <g id="Group_2243" data-name="Group 2243" transform="translate(-25.824 -1968.824)">
    <circle id="Ellipse_392" data-name="Ellipse 392" cx="12" cy="12" r="12" transform="translate(25.824 1968.824)" fill="#eef5ff"/>
    <path id="calendar-alt-solid-2" data-name="calendar-alt-solid" d="M0,12.246a1.267,1.267,0,0,0,1.267,1.267h9.29a1.267,1.267,0,0,0,1.267-1.267V5.067H0ZM8.446,7.073a.318.318,0,0,1,.317-.317H9.818a.318.318,0,0,1,.317.317V8.129a.318.318,0,0,1-.317.317H8.762a.318.318,0,0,1-.317-.317Zm0,3.378a.318.318,0,0,1,.317-.317H9.818a.318.318,0,0,1,.317.317v1.056a.318.318,0,0,1-.317.317H8.762a.318.318,0,0,1-.317-.317ZM5.067,7.073a.318.318,0,0,1,.317-.317H6.44a.318.318,0,0,1,.317.317V8.129a.318.318,0,0,1-.317.317H5.384a.318.318,0,0,1-.317-.317Zm0,3.378a.318.318,0,0,1,.317-.317H6.44a.318.318,0,0,1,.317.317v1.056a.318.318,0,0,1-.317.317H5.384a.318.318,0,0,1-.317-.317ZM1.689,7.073a.318.318,0,0,1,.317-.317H3.062a.318.318,0,0,1,.317.317V8.129a.318.318,0,0,1-.317.317H2.006a.318.318,0,0,1-.317-.317Zm0,3.378a.318.318,0,0,1,.317-.317H3.062a.318.318,0,0,1,.317.317v1.056a.318.318,0,0,1-.317.317H2.006a.318.318,0,0,1-.317-.317Zm8.868-8.762H9.29V.422A.424.424,0,0,0,8.868,0H8.023A.424.424,0,0,0,7.6.422V1.689H4.223V.422A.424.424,0,0,0,3.8,0H2.956a.424.424,0,0,0-.422.422V1.689H1.267A1.267,1.267,0,0,0,0,2.956V4.223H11.824V2.956A1.267,1.267,0,0,0,10.557,1.689Z" transform="translate(31.912 1974.124)" fill="#2680eb"/>
    <g id="Mask_Group_1475" data-name="Mask Group 1475" transform="translate(31.912 1974.124)" clip-path="url(#clip-path)">
      <circle id="Ellipse_527" data-name="Ellipse 527" cx="8.396" cy="8.396" r="8.396" transform="translate(-7.213 -6.819)" fill="#6bb1fe" opacity="0.5"/>
    </g>
  </g>
</svg>
