<svg xmlns="http://www.w3.org/2000/svg" xmlns:xlink="http://www.w3.org/1999/xlink" width="30.976" height="41.302" viewBox="0 0 30.976 41.302">
  <defs>
    <style>
      .cls-1 {
        fill: #2680eb;
      }

      .cls-2 {
        fill: #8cbcf6;
      }

      .cls-3 {
        clip-path: url(#clip-path);
      }

      .cls-4 {
        fill: #acd0fb;
      }
    </style>
    <clipPath id="clip-path">
      <path id="award-solid" class="cls-1" d="M7.832,29.244c-.7-.7-.336-.5-2.026-.956a5.82,5.82,0,0,1-2.051-1.074L.095,36.187A1.291,1.291,0,0,0,1.34,37.964L5.59,37.8,8.513,40.89a1.29,1.29,0,0,0,2.132-.4l4.2-10.295a5.789,5.789,0,0,1-7.011-.951Zm23.044,6.943-3.66-8.973a5.807,5.807,0,0,1-2.051,1.074c-1.7.455-1.327.257-2.026.956a5.79,5.79,0,0,1-7.012.951l4.2,10.295a1.29,1.29,0,0,0,2.132.4L25.382,37.8l4.25.162A1.291,1.291,0,0,0,30.877,36.187Zm-9.664-8.768c1.233-1.254,1.374-1.146,3.129-1.625a3.278,3.278,0,0,0,2.3-2.338c.6-2.291.447-2.014,2.093-3.69a3.346,3.346,0,0,0,.841-3.193c-.6-2.289-.6-1.97,0-4.262a3.346,3.346,0,0,0-.841-3.193c-1.646-1.676-1.49-1.4-2.093-3.69a3.278,3.278,0,0,0-2.3-2.338c-2.249-.614-1.978-.453-3.626-2.13A3.21,3.21,0,0,0,17.579.1c-2.248.613-1.934.614-4.186,0a3.208,3.208,0,0,0-3.137.856C8.609,2.637,8.88,2.477,6.63,3.091a3.278,3.278,0,0,0-2.3,2.338c-.6,2.29-.447,2.014-2.093,3.69A3.344,3.344,0,0,0,1.4,12.312c.6,2.288.6,1.968,0,4.261a3.348,3.348,0,0,0,.841,3.194c1.646,1.676,1.49,1.4,2.093,3.69a3.278,3.278,0,0,0,2.3,2.338c1.805.492,1.94.415,3.128,1.625a3.206,3.206,0,0,0,4.012.469,3.2,3.2,0,0,1,3.431,0A3.2,3.2,0,0,0,21.213,27.419ZM7.876,14.187a7.611,7.611,0,1,1,7.61,7.746A7.679,7.679,0,0,1,7.876,14.187Z" transform="translate(0.002 0.008)"/>
    </clipPath>
  </defs>
  <g id="Group_2572" data-name="Group 2572" transform="translate(-889.771 -409)">
    <path id="award-solid-2" data-name="award-solid" class="cls-2" d="M7.832,29.244c-.7-.7-.336-.5-2.026-.956a5.82,5.82,0,0,1-2.051-1.074L.095,36.187A1.291,1.291,0,0,0,1.34,37.964L5.59,37.8,8.513,40.89a1.29,1.29,0,0,0,2.132-.4l4.2-10.295a5.789,5.789,0,0,1-7.011-.951Zm23.044,6.943-3.66-8.973a5.807,5.807,0,0,1-2.051,1.074c-1.7.455-1.327.257-2.026.956a5.79,5.79,0,0,1-7.012.951l4.2,10.295a1.29,1.29,0,0,0,2.132.4L25.382,37.8l4.25.162A1.291,1.291,0,0,0,30.877,36.187Zm-9.664-8.768c1.233-1.254,1.374-1.146,3.129-1.625a3.278,3.278,0,0,0,2.3-2.338c.6-2.291.447-2.014,2.093-3.69a3.346,3.346,0,0,0,.841-3.193c-.6-2.289-.6-1.97,0-4.262a3.346,3.346,0,0,0-.841-3.193c-1.646-1.676-1.49-1.4-2.093-3.69a3.278,3.278,0,0,0-2.3-2.338c-2.249-.614-1.978-.453-3.626-2.13A3.21,3.21,0,0,0,17.579.1c-2.248.613-1.934.614-4.186,0a3.208,3.208,0,0,0-3.137.856C8.609,2.637,8.88,2.477,6.63,3.091a3.278,3.278,0,0,0-2.3,2.338c-.6,2.29-.447,2.014-2.093,3.69A3.344,3.344,0,0,0,1.4,12.312c.6,2.288.6,1.968,0,4.261a3.348,3.348,0,0,0,.841,3.194c1.646,1.676,1.49,1.4,2.093,3.69a3.278,3.278,0,0,0,2.3,2.338c1.805.492,1.94.415,3.128,1.625a3.206,3.206,0,0,0,4.012.469,3.2,3.2,0,0,1,3.431,0A3.2,3.2,0,0,0,21.213,27.419ZM7.876,14.187a7.611,7.611,0,1,1,7.61,7.746A7.679,7.679,0,0,1,7.876,14.187Z" transform="translate(889.773 409.008)"/>
    <g id="Mask_Group_1392" data-name="Mask Group 1392" class="cls-3" transform="translate(889.771 409)">
      <ellipse id="Ellipse_436" data-name="Ellipse 436" class="cls-4" cx="35.047" cy="35.047" rx="35.047" ry="35.047" transform="translate(-54.606 -26.212)"/>
    </g>
  </g>
</svg>
