<svg id="icon-laporan-keuangan-neraca" xmlns="http://www.w3.org/2000/svg" width="86" height="86" viewBox="0 0 86 86">
  <path id="Path_38567" data-name="Path 38567" d="M43,0A43,43,0,1,1,0,43,43,43,0,0,1,43,0Z" fill="#2680eb"/>
  <path id="balance-scale-solid" d="M18.562,24.875h0c0-1.2.1-.646-6.15-13.427a3.452,3.452,0,0,0-6.226.008C-.149,24.362,0,23.739,0,24.9H0c0,3.27,4.148,5.916,9.274,5.909S18.558,28.145,18.562,24.875ZM9.3,13.044,14.5,23.7l-10.441.013ZM46.4,24.84c0-1.2.1-.646-6.15-13.427a3.452,3.452,0,0,0-6.226.008C27.694,24.327,27.845,23.7,27.844,24.863h0c0,3.27,4.148,5.916,9.274,5.909S46.4,28.11,46.4,24.84ZM31.9,23.674l5.233-10.665L42.345,23.66Zm6.369,9.466-12.761.016.026-21.816A5.921,5.921,0,0,0,28.908,7.1l9.4-.012A1.176,1.176,0,0,0,39.467,5.9l0-2.368a1.169,1.169,0,0,0-1.159-1.183l-10.467.013a5.679,5.679,0,0,0-9.229.012L8.148,2.388A1.176,1.176,0,0,0,6.987,3.573l0,2.368A1.169,1.169,0,0,0,8.142,7.125l9.4-.012A5.881,5.881,0,0,0,20.9,11.346l-.027,21.816-12.761.016a1.176,1.176,0,0,0-1.162,1.186l0,2.368A1.169,1.169,0,0,0,8.1,37.915l30.163-.038a1.176,1.176,0,0,0,1.162-1.186l0-2.368A1.169,1.169,0,0,0,38.273,33.14Z" transform="translate(19.43 22.763)" fill="#f4f4f7"/>
</svg>
