<svg id="icon-header-buku-kerja-guru" xmlns="http://www.w3.org/2000/svg" xmlns:xlink="http://www.w3.org/1999/xlink" width="86" height="86" viewBox="0 0 86 86">
  <defs>
    <clipPath id="clip-path">
      <path id="Path_37252" data-name="Path 37252" d="M36.047,28.966V1.931A1.926,1.926,0,0,0,34.116,0H7.724A7.726,7.726,0,0,0,0,7.724V33.472A7.726,7.726,0,0,0,7.724,41.2H34.116a1.926,1.926,0,0,0,1.931-1.931V37.978a1.946,1.946,0,0,0-.716-1.5,17.943,17.943,0,0,1,0-6.01,1.918,1.918,0,0,0,.716-1.5ZM10.3,10.782a.484.484,0,0,1,.483-.483H27.84a.484.484,0,0,1,.483.483v1.609a.484.484,0,0,1-.483.483H10.782a.484.484,0,0,1-.483-.483Zm0,5.15a.484.484,0,0,1,.483-.483H27.84a.484.484,0,0,1,.483.483v1.609a.484.484,0,0,1-.483.483H10.782a.484.484,0,0,1-.483-.483ZM30.688,36.047H7.724a2.575,2.575,0,1,1,0-5.15H30.688A28.966,28.966,0,0,0,30.688,36.047Z" transform="translate(0 0)" fill="#fff"/>
    </clipPath>
  </defs>
  <path id="Path_38567" data-name="Path 38567" d="M43,0A43,43,0,1,1,0,43,43,43,0,0,1,43,0Z" fill="#2680eb"/>
  <g id="Group_5075" data-name="Group 5075" transform="translate(-17.023 -328.599)">
    <path id="Path_212" data-name="Path 212" d="M36.047,28.966V1.931A1.926,1.926,0,0,0,34.116,0H7.724A7.726,7.726,0,0,0,0,7.724V33.472A7.726,7.726,0,0,0,7.724,41.2H34.116a1.926,1.926,0,0,0,1.931-1.931V37.978a1.946,1.946,0,0,0-.716-1.5,17.943,17.943,0,0,1,0-6.01,1.918,1.918,0,0,0,.716-1.5ZM10.3,10.782a.484.484,0,0,1,.483-.483H27.84a.484.484,0,0,1,.483.483v1.609a.484.484,0,0,1-.483.483H10.782a.484.484,0,0,1-.483-.483Zm0,5.15a.484.484,0,0,1,.483-.483H27.84a.484.484,0,0,1,.483.483v1.609a.484.484,0,0,1-.483.483H10.782a.484.484,0,0,1-.483-.483ZM30.688,36.047H7.724a2.575,2.575,0,1,1,0-5.15H30.688A28.966,28.966,0,0,0,30.688,36.047Z" transform="translate(42 351)" fill="#fff"/>
    <g id="Mask_Group_1525" data-name="Mask Group 1525" transform="translate(42 351)" clip-path="url(#clip-path)">
      <ellipse id="Ellipse_703" data-name="Ellipse 703" cx="22.461" cy="22.461" rx="22.461" ry="22.461" transform="translate(-22.354 -22.462)" fill="#fff" opacity="0.5"/>
    </g>
  </g>
</svg>
