<svg xmlns="http://www.w3.org/2000/svg" width="40.541" height="40.541" viewBox="0 0 40.541 40.541">
  <g id="icon-tambah-prestasi" transform="translate(-986.589 -306)">
    <path id="Path_2437" data-name="Path 2437" d="M20.271,0A20.271,20.271,0,1,1,0,20.271,20.271,20.271,0,0,1,20.271,0Z" transform="translate(986.589 306)" fill="#fff" opacity="0.3"/>
    <path id="award-solid" d="M5,18.656c-.447-.447-.214-.321-1.293-.61a3.713,3.713,0,0,1-1.309-.686L.06,23.086A.824.824,0,0,0,.854,24.22l2.712-.1,1.865,1.97a.823.823,0,0,0,1.36-.255L9.47,19.263A3.693,3.693,0,0,1,5,18.656Zm14.7,4.43-2.335-5.725a3.705,3.705,0,0,1-1.309.686c-1.084.29-.847.164-1.293.61a3.694,3.694,0,0,1-4.474.607l2.679,6.568a.823.823,0,0,0,1.36.255l1.866-1.97,2.712.1A.824.824,0,0,0,19.7,23.086Zm-6.166-5.595c.786-.8.876-.731,2-1.037A2.092,2.092,0,0,0,17,14.963a3.308,3.308,0,0,1,1.336-2.355,2.135,2.135,0,0,0,.536-2.037,3.347,3.347,0,0,1,0-2.719,2.135,2.135,0,0,0-.536-2.037A3.309,3.309,0,0,1,17,3.461,2.092,2.092,0,0,0,15.53,1.969,3.226,3.226,0,0,1,13.217.61a2.048,2.048,0,0,0-2-.546,3.185,3.185,0,0,1-2.671,0,2.047,2.047,0,0,0-2,.546A3.224,3.224,0,0,1,4.23,1.969,2.092,2.092,0,0,0,2.764,3.461,3.307,3.307,0,0,1,1.429,5.815,2.134,2.134,0,0,0,.893,7.852a3.346,3.346,0,0,1,0,2.719,2.136,2.136,0,0,0,.536,2.038,3.308,3.308,0,0,1,1.336,2.355A2.092,2.092,0,0,0,4.23,16.455c1.152.314,1.238.265,2,1.037a2.045,2.045,0,0,0,2.56.3,2.042,2.042,0,0,1,2.189,0A2.045,2.045,0,0,0,13.534,17.491ZM5.024,9.049A4.856,4.856,0,1,1,9.88,13.99,4.9,4.9,0,0,1,5.024,9.049Z" transform="translate(996.98 313.008)" fill="#fff"/>
  </g>
</svg>
