<svg xmlns="http://www.w3.org/2000/svg" xmlns:xlink="http://www.w3.org/1999/xlink" width="80" height="80" viewBox="0 0 80 80">
  <defs>
    <clipPath id="clip-path">
      <path id="Path_252" data-name="Path 252" d="M436.77,200.587l-22.468-6.9a6.433,6.433,0,0,0-3.769,0l-22.468,6.9a1.9,1.9,0,0,0,0,3.672l3.917,1.2a6.348,6.348,0,0,0-1.44,3.778,2.485,2.485,0,0,0-.205,4.27l-2.056,9.253a1.289,1.289,0,0,0,1.257,1.568h4.519a1.289,1.289,0,0,0,1.258-1.568l-2.056-9.253a2.479,2.479,0,0,0-.145-4.23,3.8,3.8,0,0,1,1.666-2.957l15.752,4.84a6.442,6.442,0,0,0,3.769,0l22.468-6.9a1.9,1.9,0,0,0,0-3.673Zm-21.711,13.039a9.016,9.016,0,0,1-5.283,0L398.1,210.039l-1.142,9.138c0,2.847,6.923,5.155,15.465,5.155s15.465-2.308,15.465-5.155l-1.142-9.139Z" transform="translate(-386.644 -193.403)" fill="none"/>
    </clipPath>
  </defs>
  <g id="icon-kurikulum" transform="translate(-368.383 -462.383)">
    <circle id="Ellipse_83" data-name="Ellipse 83" cx="40" cy="40" r="40" transform="translate(368.383 462.383)" fill="#d9eeff" opacity="0.7"/>
    <g id="Group_601" data-name="Group 601" transform="translate(382.609 486.917)">
      <path id="Path_251" data-name="Path 251" d="M436.77,200.587l-22.468-6.9a6.433,6.433,0,0,0-3.769,0l-22.468,6.9a1.9,1.9,0,0,0,0,3.672l3.917,1.2a6.348,6.348,0,0,0-1.44,3.778,2.485,2.485,0,0,0-.205,4.27l-2.056,9.253a1.289,1.289,0,0,0,1.257,1.568h4.519a1.289,1.289,0,0,0,1.258-1.568l-2.056-9.253a2.479,2.479,0,0,0-.145-4.23,3.8,3.8,0,0,1,1.666-2.957l15.752,4.84a6.442,6.442,0,0,0,3.769,0l22.468-6.9a1.9,1.9,0,0,0,0-3.673Zm-21.711,13.039a9.016,9.016,0,0,1-5.283,0L398.1,210.039l-1.142,9.138c0,2.847,6.923,5.155,15.465,5.155s15.465-2.308,15.465-5.155l-1.142-9.139Z" transform="translate(-386.644 -193.403)" fill="#2680eb"/>
      <g id="Group_600" data-name="Group 600" transform="translate(0 0)">
        <g id="Group_599" data-name="Group 599" clip-path="url(#clip-path)">
          <circle id="Ellipse_86" data-name="Ellipse 86" cx="16.835" cy="16.835" r="16.835" transform="translate(-8.039 -11.289)" fill="#6bb1fe" opacity="0.5"/>
        </g>
      </g>
    </g>
  </g>
</svg>
