<svg xmlns="http://www.w3.org/2000/svg" width="43.134" height="40.541" viewBox="0 0 43.134 40.541">
  <defs>
    <style>
      .cls-1, .cls-2, .cls-3 {
        fill: #fff;
      }

      .cls-1 {
        opacity: 0.3;
      }

      .cls-3 {
        stroke: #fd8881;
        stroke-width: 2px;
      }
    </style>
  </defs>
  <g id="Group_2580" data-name="Group 2580" transform="translate(-726.59 -281)">
    <path id="Path_2437" data-name="Path 2437" class="cls-1" d="M20.271,0A20.365,20.365,0,0,1,40.017,15.671a19.668,19.668,0,0,1,.524,4.6A20.271,20.271,0,1,1,20.271,0Z" transform="translate(726.59 281)"/>
    <g id="Group_2320" data-name="Group 2320" transform="translate(673.397 256.385)">
      <path id="user-solid" class="cls-2" d="M9.414,10.758A5.379,5.379,0,1,0,4.034,5.379,5.379,5.379,0,0,0,9.414,10.758ZM13.179,12.1h-.7a7.315,7.315,0,0,1-6.127,0h-.7A5.65,5.65,0,0,0,0,17.751V19.5a2.018,2.018,0,0,0,2.017,2.017H16.81A2.018,2.018,0,0,0,18.827,19.5V17.751A5.65,5.65,0,0,0,13.179,12.1Z" transform="translate(64.151 33.449)"/>
    </g>
    <g id="Group_2336" data-name="Group 2336" transform="translate(6.375 -1.125)">
      <path id="gavel-solid" class="cls-3" d="M13.069,5.159l-.586-.586a.621.621,0,0,0-.878,0l-.146.146L8.53,1.792l.146-.146a.621.621,0,0,0,0-.878L8.091.181a.621.621,0,0,0-.878,0L3.992,3.4a.621.621,0,0,0,0,.878l.586.586a.621.621,0,0,0,.878,0L5.6,4.72,6.627,5.744l-2.1,2.1L4.384,7.7a.828.828,0,0,0-1.171,0l-2.97,2.97a.828.828,0,0,0,0,1.171l1.171,1.171a.828.828,0,0,0,1.171,0l2.97-2.97a.828.828,0,0,0,0-1.171L5.408,8.72l2.1-2.1L8.53,7.648l-.146.146a.621.621,0,0,0,0,.878l.586.586a.621.621,0,0,0,.878,0l3.221-3.221a.621.621,0,0,0,0-.878Z" transform="translate(749 296.501)"/>
      <path id="gavel-solid-2" data-name="gavel-solid" class="cls-2" d="M13.069,5.159l-.586-.586a.621.621,0,0,0-.878,0l-.146.146L8.53,1.792l.146-.146a.621.621,0,0,0,0-.878L8.091.181a.621.621,0,0,0-.878,0L3.992,3.4a.621.621,0,0,0,0,.878l.586.586a.621.621,0,0,0,.878,0L5.6,4.72,6.627,5.744l-2.1,2.1L4.384,7.7a.828.828,0,0,0-1.171,0l-2.97,2.97a.828.828,0,0,0,0,1.171l1.171,1.171a.828.828,0,0,0,1.171,0l2.97-2.97a.828.828,0,0,0,0-1.171L5.408,8.72l2.1-2.1L8.53,7.648l-.146.146a.621.621,0,0,0,0,.878l.586.586a.621.621,0,0,0,.878,0l3.221-3.221a.621.621,0,0,0,0-.878Z" transform="translate(749 296.501)"/>
    </g>
  </g>
</svg>
