<svg id="icon-laporan-keuangan-laba-rugi" xmlns="http://www.w3.org/2000/svg" width="86" height="86" viewBox="0 0 86 86">
  <path id="Path_38567" data-name="Path 38567" d="M43,0A43,43,0,1,1,0,43,43,43,0,0,1,43,0Z" fill="#2680eb"/>
  <path id="chart-line-solid" d="M45.667,29.462H5.892V1.473A1.473,1.473,0,0,0,4.419,0H1.473A1.473,1.473,0,0,0,0,1.473V32.408a2.947,2.947,0,0,0,2.946,2.946h42.72a1.473,1.473,0,0,0,1.473-1.473V30.935A1.473,1.473,0,0,0,45.667,29.462ZM42.72,2.946H31.851a2.21,2.21,0,0,0-1.562,3.772L33.271,9.7l-6.755,6.756L19.761,9.7a2.945,2.945,0,0,0-4.166,0L9.27,16.027a1.473,1.473,0,0,0,0,2.084l2.083,2.083a1.473,1.473,0,0,0,2.084,0l4.241-4.242,6.755,6.755a2.945,2.945,0,0,0,4.166,0l8.839-8.839,2.983,2.983a2.21,2.21,0,0,0,3.772-1.562V4.419A1.471,1.471,0,0,0,42.72,2.946Z" transform="translate(19.43 25.323)" fill="#f4f4f7" stroke="rgba(0,0,0,0)" stroke-miterlimit="10" stroke-width="1"/>
</svg>
