<svg xmlns="http://www.w3.org/2000/svg" xmlns:xlink="http://www.w3.org/1999/xlink" width="30" height="30" viewBox="0 0 30 30">
  <defs>
    <clipPath id="clip-path">
      <path id="Union_5" data-name="Union 5" d="M5.555,19.457a1.162,1.162,0,0,1-.968-.519l-.62-.933a1.159,1.159,0,0,1-.195-.642l0-1.392H9.577l0,1.392a1.143,1.143,0,0,1-.194.642l-.619.933a1.162,1.162,0,0,1-.968.519ZM3.766,14.812c0-.011,0-.019,0-.029a8.545,8.545,0,0,0-.838-1.822.315.315,0,0,0,.18-.008,2.692,2.692,0,0,0,.755-.438.29.29,0,0,0,.066-.37l-.192-.337a2.05,2.05,0,0,0,.374-.645H4.5a.294.294,0,0,0,.287-.246,2.678,2.678,0,0,0,0-.873A.294.294,0,0,0,4.5,9.8H4.107a2.071,2.071,0,0,0-.374-.645l.192-.335a.292.292,0,0,0-.066-.37A2.62,2.62,0,0,0,3.1,8.008a.291.291,0,0,0-.356.126l-.195.337a2.145,2.145,0,0,0-.746,0l-.192-.337a.291.291,0,0,0-.356-.126A2.651,2.651,0,0,0,.5,8.446a.291.291,0,0,0-.083.112,6.264,6.264,0,0,1-.132-1.3A6.358,6.358,0,0,1,6.654.877,6.007,6.007,0,0,1,7.432.92l.192.335A3.534,3.534,0,0,0,6.977,2.37h-.67a.506.506,0,0,0-.5.422,4.627,4.627,0,0,0,0,1.51.5.5,0,0,0,.5.418h.67a3.527,3.527,0,0,0,.647,1.115l-.333.581a.507.507,0,0,0,.114.639,4.546,4.546,0,0,0,1.305.757.5.5,0,0,0,.615-.22l.333-.583a3.549,3.549,0,0,0,1.29,0l.333.583a.5.5,0,0,0,.615.22,4.666,4.666,0,0,0,1.165-.645c0,.031,0,.064,0,.095a6.353,6.353,0,0,1-1.583,4.2,10.444,10.444,0,0,0-1.894,3.318.156.156,0,0,1,0,.029ZM2.651,12.418l-.16-.279-.088.014a1.686,1.686,0,0,1-.529-.014l-.159.279a.243.243,0,0,1-.3.106,2.129,2.129,0,0,1-.624-.362.239.239,0,0,1-.054-.306L.9,11.577a1.679,1.679,0,0,1-.31-.534H.266a.239.239,0,0,1-.235-.2,2.148,2.148,0,0,1,0-.722.241.241,0,0,1,.235-.205H.589a1.632,1.632,0,0,1,.145-.3A1.464,1.464,0,0,1,.9,9.382L.74,9.1a.236.236,0,0,1,.054-.3,2.174,2.174,0,0,1,.624-.364.243.243,0,0,1,.3.106l.159.279a1.726,1.726,0,0,1,.618,0l.16-.279a.239.239,0,0,1,.294-.106,2.152,2.152,0,0,1,.625.364.239.239,0,0,1,.056.3l-.159.279a1.7,1.7,0,0,1,.308.534H4.1a.243.243,0,0,1,.238.2,2.251,2.251,0,0,1,0,.724.245.245,0,0,1-.238.2H3.774a1.672,1.672,0,0,1-.308.534l.159.279a.24.24,0,0,1-.056.306,2.157,2.157,0,0,1-.625.362.251.251,0,0,1-.086.015A.235.235,0,0,1,2.651,12.418Zm-.982-1.425A.727.727,0,0,0,2.7,9.965a.838.838,0,0,0-.515-.19A.723.723,0,0,0,1.669,10.994ZM11.126,6.9l-.275-.479a2.986,2.986,0,0,1-1.067,0L9.509,6.9A.418.418,0,0,1,9,7.084,3.733,3.733,0,0,1,7.92,6.46a.421.421,0,0,1-.093-.529L8.1,5.45a2.939,2.939,0,0,1-.535-.923H7.012a.416.416,0,0,1-.41-.345,3.8,3.8,0,0,1,0-1.249.42.42,0,0,1,.41-.35h.554A2.936,2.936,0,0,1,8.1,1.66l-.275-.48A.427.427,0,0,1,7.771.97.408.408,0,0,1,7.92.653,3.792,3.792,0,0,1,9,.026a.418.418,0,0,1,.509.182L9.784.69a2.9,2.9,0,0,1,1.067,0l.275-.482a.418.418,0,0,1,.509-.182,3.723,3.723,0,0,1,1.08.627.415.415,0,0,1,.093.527l-.275.48a2.95,2.95,0,0,1,.536.922h.554a.414.414,0,0,1,.41.348,3.72,3.72,0,0,1,0,1.247.415.415,0,0,1-.41.349h-.554a2.914,2.914,0,0,1-.31.623,2.758,2.758,0,0,1-.226.3l.275.48a.416.416,0,0,1-.093.529,3.775,3.775,0,0,1-1.08.624.424.424,0,0,1-.147.026A.413.413,0,0,1,11.126,6.9Zm-1.2-4.5-.006,0a.224.224,0,0,0-.037.015.4.4,0,0,0-.044.016l-.044.021s0,0,0,0l-.008,0s0,0-.008,0L9.719,2.5s0,0-.006,0L9.7,2.508l-.021.013a.372.372,0,0,0-.039.024.141.141,0,0,1-.025.017c-.012.01-.025.019-.039.029a.3.3,0,0,1-.029.023l-.031.029a1.28,1.28,0,0,0-.118.118c-.006.006-.01.012-.014.017L9.364,2.8c-.01.012-.019.024-.029.037l-.022.033a1.083,1.083,0,0,0-.064.108A.248.248,0,0,1,9.235,3a.058.058,0,0,0-.008.017.592.592,0,0,0-.025.056c-.006.012-.01.024-.016.037a.231.231,0,0,1-.01.027c0,.012-.008.027-.013.039a1.065,1.065,0,0,0-.035.135c0,.012-.006.027-.008.041s0,.027-.006.044,0,.013,0,.019a.334.334,0,0,1,0,.044c0,.008,0,.019,0,.029v.019a.63.63,0,0,0,0,.085.139.139,0,0,0,0,.027v.021c0,.006,0,.014,0,.025a.015.015,0,0,0,0,.008v.013c0,.039.011.078.019.118l.006.025c0,.027.013.053.019.08,0,0,0,0,0,.006a1.594,1.594,0,0,0,.276.526,1.525,1.525,0,0,0,.637.3.093.093,0,0,0,.022,0,.388.388,0,0,1,.042.008.038.038,0,0,1,.017,0l.054.006a.545.545,0,0,1,.056,0h.058a.627.627,0,0,0,.093,0,.546.546,0,0,0,.058,0l.039-.006a.113.113,0,0,0,.025,0l.035-.006.024-.006.037-.008.021-.006.035-.01.021-.006.029-.01a1.24,1.24,0,0,0,.579-1.874,1.353,1.353,0,0,0-.108-.155,1.515,1.515,0,0,0-.18-.124,1.436,1.436,0,0,0-.494-.186c-.01,0-.021,0-.031,0a.229.229,0,0,0-.051-.006.511.511,0,0,0-.054-.006h-.021a.05.05,0,0,0-.019,0H10.27l-.023,0a.324.324,0,0,0-.043,0,.1.1,0,0,0-.025,0c-.023,0-.046.006-.069.011a.09.09,0,0,0-.033.006l-.035.006-.058.014,0,0h0l0,0-.025.006a.148.148,0,0,1-.027.008v0h0S9.923,2.4,9.923,2.4Z" transform="translate(0 0)" fill="#2680eb" stroke="rgba(0,0,0,0)" stroke-miterlimit="10" stroke-width="1"/>
    </clipPath>
  </defs>
  <g id="icon-proyek-saya" transform="translate(-34.615 -477.615)">
    <circle id="Ellipse_114" data-name="Ellipse 114" cx="15" cy="15" r="15" transform="translate(34.615 477.615)" fill="#d9eeff" opacity="0.7"/>
    <g id="Group_884" data-name="Group 884" transform="translate(42.742 482.758)">
      <path id="Path_323" data-name="Path 323" d="M688.98,417.392a1.163,1.163,0,0,0,.195.642l.62.932a1.161,1.161,0,0,0,.967.518H693a1.161,1.161,0,0,0,.967-.518l.62-.932a1.161,1.161,0,0,0,.195-.642V416h-5.806Z" transform="translate(-685.207 -400.027)" fill="#2680eb"/>
      <path id="Path_324" data-name="Path 324" d="M604.579,6.936a.5.5,0,0,1-.614-.22l-.334-.582a3.612,3.612,0,0,1-1.289,0l-.334.582a.5.5,0,0,1-.614.22,4.492,4.492,0,0,1-1.305-.757.505.505,0,0,1-.114-.638l.334-.582a3.514,3.514,0,0,1-.647-1.114h-.671a.5.5,0,0,1-.5-.419,4.586,4.586,0,0,1,0-1.509.506.506,0,0,1,.5-.423h.671a3.514,3.514,0,0,1,.647-1.114l-.192-.335a6.392,6.392,0,0,0-7.014,7.64.278.278,0,0,1,.084-.113,2.642,2.642,0,0,1,.756-.438.291.291,0,0,1,.356.127l.193.337a2.1,2.1,0,0,1,.747,0l.193-.337a.292.292,0,0,1,.356-.127,2.608,2.608,0,0,1,.756.438.293.293,0,0,1,.066.37l-.193.337a2.035,2.035,0,0,1,.375.646h.389a.291.291,0,0,1,.288.243,2.663,2.663,0,0,1,0,.874.293.293,0,0,1-.288.245h-.389a2.031,2.031,0,0,1-.375.646l.193.337a.29.29,0,0,1-.066.37,2.641,2.641,0,0,1-.756.438.3.3,0,0,1-.18.008,8.482,8.482,0,0,1,.838,1.824c0,.009,0,.019,0,.028h5.816l0-.028a10.431,10.431,0,0,1,1.895-3.319,6.352,6.352,0,0,0,1.581-4.2c0-.032,0-.065,0-.1A4.56,4.56,0,0,1,604.579,6.936Z" transform="translate(-592.683 0.876)" fill="#2680eb"/>
      <path id="Path_325" data-name="Path 325" d="M588.646,211.619a.24.24,0,0,0,.055-.306l-.16-.278a1.679,1.679,0,0,0,.31-.534h.322a.242.242,0,0,0,.238-.2,2.189,2.189,0,0,0,0-.723.24.24,0,0,0-.238-.2h-.322a1.681,1.681,0,0,0-.31-.534l.16-.279a.242.242,0,0,0-.055-.306,2.153,2.153,0,0,0-.626-.363.241.241,0,0,0-.294.105l-.16.279a1.732,1.732,0,0,0-.618,0l-.16-.279a.241.241,0,0,0-.294-.105,2.175,2.175,0,0,0-.626.363.24.24,0,0,0-.054.306l.16.279a1.694,1.694,0,0,0-.31.534h-.322a.243.243,0,0,0-.238.2,2.2,2.2,0,0,0,0,.723.241.241,0,0,0,.238.2h.322a1.677,1.677,0,0,0,.31.534l-.16.278a.242.242,0,0,0,.054.306,2.15,2.15,0,0,0,.626.362.241.241,0,0,0,.294-.105l.16-.278a1.739,1.739,0,0,0,.529.014l.089-.014.16.278a.24.24,0,0,0,.294.105A2.175,2.175,0,0,0,588.646,211.619Zm-1.9-1.168a.728.728,0,0,1,1.029-1.029A.728.728,0,0,1,586.744,210.451Z" transform="translate(-585.075 -199.457)" fill="#2680eb"/>
      <path id="Path_326" data-name="Path 326" d="M773.037-21.2a.415.415,0,0,0-.411-.347h-.555a2.9,2.9,0,0,0-.535-.922l.276-.481a.418.418,0,0,0-.094-.528,3.717,3.717,0,0,0-1.08-.626.417.417,0,0,0-.508.182l-.276.481a2.974,2.974,0,0,0-1.066,0l-.276-.481A.416.416,0,0,0,768-24.1a3.757,3.757,0,0,0-1.08.626.408.408,0,0,0-.151.318.423.423,0,0,0,.056.21l.276.481a2.913,2.913,0,0,0-.535.922h-.555a.419.419,0,0,0-.41.35,3.8,3.8,0,0,0,0,1.248.416.416,0,0,0,.41.347h.555a2.913,2.913,0,0,0,.535.922l-.276.481a.418.418,0,0,0,.094.528,3.716,3.716,0,0,0,1.08.626.416.416,0,0,0,.508-.182l.276-.481a2.991,2.991,0,0,0,1.066,0l.276.481a.417.417,0,0,0,.508.182,3.767,3.767,0,0,0,1.08-.626.415.415,0,0,0,.094-.528l-.276-.481a2.831,2.831,0,0,0,.226-.3,2.914,2.914,0,0,0,.309-.622h.555a.418.418,0,0,0,.411-.35A3.783,3.783,0,0,0,773.037-21.2Zm-3.3,1.767-.028.01-.02.007-.036.011-.021.006-.037.009-.025.005-.034.007-.025,0-.039.005-.058.006c-.031,0-.062,0-.094,0h-.058l-.057,0-.053-.006-.017,0-.041-.007-.022,0a1.548,1.548,0,0,1-.638-.3,1.607,1.607,0,0,1-.274-.526.072.072,0,0,1,0-.008c-.008-.026-.014-.053-.02-.079l-.005-.025a1.178,1.178,0,0,1-.019-.119v-.012a.087.087,0,0,1,0-.009c0-.008,0-.016,0-.024s0-.014,0-.021,0-.018,0-.027c0-.028,0-.056,0-.084,0-.005,0-.01,0-.016s0,0,0,0a0,0,0,0,1,0,0,.259.259,0,0,1,0-.029c0-.014,0-.028,0-.042s0-.013,0-.02,0-.029.006-.043.005-.028.008-.042a1.18,1.18,0,0,1,.035-.133c0-.013.009-.026.013-.039l.01-.028c0-.013.01-.025.015-.037s.017-.038.026-.056l.007-.015.013-.024a1.173,1.173,0,0,1,.065-.107l.023-.033c.009-.013.018-.025.028-.037l.021-.026.014-.017a1.177,1.177,0,0,1,.118-.119l.032-.028.029-.023.039-.029.024-.016.04-.026.02-.012.013-.008.007,0,.051-.028.008,0,.008,0,.005,0,.044-.021.044-.018.036-.013.008,0h0l.026-.009.025-.008h.008l.058-.015.033-.007.033-.006.068-.01.025,0,.044,0h.148l.054,0,.053.007.03,0a1.449,1.449,0,0,1,.493.186,1.8,1.8,0,0,1,.182.123,1.79,1.79,0,0,1,.108.157A1.239,1.239,0,0,1,769.738-19.43Z" transform="translate(-759.003 24.127)" fill="#2680eb"/>
    </g>
    <g id="Mask_Group_8" data-name="Mask Group 8" transform="translate(42.743 482.758)" clip-path="url(#clip-path)">
      <ellipse id="Ellipse_115" data-name="Ellipse 115" cx="6.925" cy="6.925" rx="6.925" ry="6.925" transform="translate(-3.868 -2.953)" fill="#6bb1fe" opacity="0.5"/>
    </g>
  </g>
</svg>
