<svg xmlns="http://www.w3.org/2000/svg" width="30" height="30" viewBox="0 0 30 30">
  <g id="icon-nav-jadwal-ujian" transform="translate(-182.652 -189.652)">
    <circle id="Ellipse_29" data-name="Ellipse 29" cx="15" cy="15" r="15" transform="translate(182.652 189.652)" fill="#d9eeff" opacity="0.4"/>
    <path id="Path_220" data-name="Path 220" d="M.418,6.682H15.174a.419.419,0,0,1,.418.418v9.049a1.671,1.671,0,0,1-1.671,1.671H1.671A1.671,1.671,0,0,1,0,16.149V7.1A.419.419,0,0,1,.418,6.682ZM15.592,5.151V3.9a1.671,1.671,0,0,0-1.671-1.671H12.251V.418A.419.419,0,0,0,11.833,0H10.441a.419.419,0,0,0-.418.418v1.81H5.569V.418A.419.419,0,0,0,5.151,0H3.759a.419.419,0,0,0-.418.418v1.81H1.671A1.671,1.671,0,0,0,0,3.9V5.151a.419.419,0,0,0,.418.418H15.174A.419.419,0,0,0,15.592,5.151Z" transform="translate(189.856 195.742)" fill="#2680eb"/>
    <path id="Intersection_5" data-name="Intersection 5" d="M24429.33,16440.205a.418.418,0,0,1,.416-.418h8.348a9.977,9.977,0,0,1-8.764,6.791Zm.416-1.535a.413.413,0,0,1-.416-.416V16437a1.666,1.666,0,0,1,1.668-1.668h1.668v-1.811a.418.418,0,0,1,.418-.416h1.393a.413.413,0,0,1,.416.416v1.811h3.629a10.108,10.108,0,0,1,.084,1.295,9.9,9.9,0,0,1-.211,2.041Z" transform="translate(-24239.469 -16237.363)" fill="#6bb1fe" stroke="rgba(0,0,0,0)" stroke-miterlimit="10" stroke-width="1" opacity="0.5"/>
  </g>
</svg>
