<svg xmlns="http://www.w3.org/2000/svg" width="86" height="86" viewBox="0 0 86 86">
  <g id="icon-prestasi" transform="translate(-163 -170)">
    <circle id="Ellipse_53" data-name="Ellipse 53" cx="43" cy="43" r="43" transform="translate(163 170)" fill="#2680eb"/>
    <path id="award-solid" d="M8.914,33.283c-.8-.8-.382-.573-2.306-1.088a6.624,6.624,0,0,1-2.335-1.223L.108,41.185a1.469,1.469,0,0,0,1.417,2.022l4.837-.185,3.327,3.514a1.469,1.469,0,0,0,2.426-.455l4.778-11.716a6.588,6.588,0,0,1-7.98-1.082Zm26.226,7.9L30.975,30.973A6.609,6.609,0,0,1,28.641,32.2c-1.934.518-1.51.292-2.306,1.088a6.589,6.589,0,0,1-7.98,1.082l4.778,11.716a1.469,1.469,0,0,0,2.426.455l3.328-3.514,4.837.185A1.469,1.469,0,0,0,35.14,41.185Zm-11-9.979c1.4-1.428,1.563-1.3,3.561-1.849a3.731,3.731,0,0,0,2.614-2.66c.687-2.607.509-2.292,2.382-4.2a3.808,3.808,0,0,0,.957-3.634c-.686-2.605-.687-2.242,0-4.85a3.808,3.808,0,0,0-.957-3.634c-1.874-1.908-1.7-1.594-2.382-4.2A3.731,3.731,0,0,0,27.7,3.519c-2.559-.7-2.251-.516-4.127-2.425A3.653,3.653,0,0,0,20.007.12c-2.559.7-2.2.7-4.765,0a3.651,3.651,0,0,0-3.57.974C9.8,3,10.107,2.82,7.546,3.519a3.731,3.731,0,0,0-2.614,2.66c-.686,2.606-.509,2.292-2.382,4.2a3.806,3.806,0,0,0-.957,3.634c.686,2.6.687,2.24,0,4.849A3.811,3.811,0,0,0,2.55,22.5c1.874,1.908,1.7,1.593,2.382,4.2a3.731,3.731,0,0,0,2.614,2.66c2.055.56,2.208.472,3.56,1.849a3.648,3.648,0,0,0,4.566.534,3.642,3.642,0,0,1,3.9,0A3.647,3.647,0,0,0,24.142,31.206ZM8.964,16.146a8.662,8.662,0,1,1,8.661,8.815A8.739,8.739,0,0,1,8.964,16.146Z" transform="translate(188.002 189.008)" fill="#f4f4f7"/>
  </g>
</svg>
