<svg id="icon-surat-masuk" xmlns="http://www.w3.org/2000/svg" xmlns:xlink="http://www.w3.org/1999/xlink" width="30" height="30" viewBox="0 0 30 30">
  <defs>
    <clipPath id="clip-path">
      <path id="Union_70" data-name="Union 70" d="M5.256,13.553a1.7,1.7,0,0,1-1.694-1.694v-.542A4.542,4.542,0,0,0,8.039,7.54l1.3.948c.745.544,2,1.687,3.254,1.68,1.26.011,2.541-1.158,3.258-1.68,3.6-2.615,4.645-3.4,5.435-4.013a.212.212,0,0,1,.342.166v7.218a1.7,1.7,0,0,1-1.694,1.694ZM0,6.777a3.562,3.562,0,1,1,3.562,3.562A3.562,3.562,0,0,1,0,6.777Zm1.356-.46v.919a.275.275,0,0,0,.276.276H3.563V8.52a.229.229,0,0,0,.392.162L5.7,6.932a.223.223,0,0,0,0-.314L3.954,4.871a.229.229,0,0,0-.392.162V6.04H1.632A.275.275,0,0,0,1.356,6.316ZM12.6,9.036c-.819.014-2-1.031-2.591-1.461C9.253,7.028,8.612,6.561,8.061,6.16a4.542,4.542,0,0,0-4.5-3.924V1.694A1.7,1.7,0,0,1,5.256,0H19.939a1.7,1.7,0,0,1,1.694,1.694v.671a.845.845,0,0,1-.325.667c-1.08.847-1.437,1.144-6.12,4.542C14.6,8,13.432,9.036,12.614,9.036Z" transform="translate(0 0)" fill="#2680eb" stroke="rgba(0,0,0,0)" stroke-miterlimit="10" stroke-width="1"/>
    </clipPath>
  </defs>
  <circle id="Ellipse_302" data-name="Ellipse 302" cx="15" cy="15" r="15" fill="#d9eeff" opacity="0.4"/>
  <g id="Group_2777" data-name="Group 2777" transform="translate(4.184 8.223)">
    <path id="Union_69" data-name="Union 69" d="M5.256,13.553a1.7,1.7,0,0,1-1.694-1.694v-.542A4.542,4.542,0,0,0,8.039,7.54l1.3.948c.745.544,2,1.687,3.254,1.68,1.26.011,2.541-1.158,3.258-1.68,3.6-2.615,4.645-3.4,5.435-4.013a.212.212,0,0,1,.342.166v7.218a1.7,1.7,0,0,1-1.694,1.694ZM0,6.777a3.562,3.562,0,1,1,3.562,3.562A3.562,3.562,0,0,1,0,6.777Zm1.356-.46v.919a.275.275,0,0,0,.276.276H3.563V8.52a.229.229,0,0,0,.392.162L5.7,6.932a.223.223,0,0,0,0-.314L3.954,4.871a.229.229,0,0,0-.392.162V6.04H1.632A.275.275,0,0,0,1.356,6.316ZM12.6,9.036c-.819.014-2-1.031-2.591-1.461C9.253,7.028,8.612,6.561,8.061,6.16a4.542,4.542,0,0,0-4.5-3.924V1.694A1.7,1.7,0,0,1,5.256,0H19.939a1.7,1.7,0,0,1,1.694,1.694v.671a.845.845,0,0,1-.325.667c-1.08.847-1.437,1.144-6.12,4.542C14.6,8,13.432,9.036,12.614,9.036Z" fill="#2680eb" stroke="rgba(0,0,0,0)" stroke-miterlimit="10" stroke-width="1"/>
    <g id="Mask_Group_1429" data-name="Mask Group 1429" clip-path="url(#clip-path)">
      <ellipse id="Ellipse_464" data-name="Ellipse 464" cx="7.895" cy="7.895" rx="7.895" ry="7.895" transform="translate(-2.287 -3.95)" fill="#6bb1fe" opacity="0.5"/>
    </g>
  </g>
</svg>
