<svg xmlns="http://www.w3.org/2000/svg" width="24" height="24" viewBox="0 0 24 24">
  <g id="icon-menunggu-seleksi-ujian" transform="translate(-792 -918)">
    <g id="Rectangle_1476" data-name="Rectangle 1476" transform="translate(792 918)" fill="#fff" stroke="#707070" stroke-width="1" opacity="0">
      <rect width="24" height="24" stroke="none"/>
      <rect x="0.5" y="0.5" width="23" height="23" fill="none"/>
    </g>
    <path id="Subtraction_31" data-name="Subtraction 31" d="M11.047,18H.736a.687.687,0,0,1-.521-.247.9.9,0,0,1-.215-.6V.843a.906.906,0,0,1,.215-.6A.689.689,0,0,1,.736,0H6.874V4.782a.8.8,0,0,0,.736.843h4.173v7.51l-2.595,2.14-.343,1.59a.35.35,0,0,0,.068.287.327.327,0,0,0,.258.126l1.6-.008,1.011-.833v.719a.9.9,0,0,1-.216.6A.687.687,0,0,1,11.047,18ZM2.381,13.37a.514.514,0,0,0,0,1.029H6.9a.514.514,0,0,0,0-1.029Zm0-2.057a.514.514,0,0,0,0,1.029H9.422a.514.514,0,0,0,0-1.029Zm0-2.057a.514.514,0,0,0,0,1.029H9.422a.514.514,0,0,0,0-1.029Zm0-2.056a.514.514,0,0,0,0,1.029H9.422a.514.514,0,0,0,0-1.029Zm7.286,9.6h0a.205.205,0,0,1-.16-.077.215.215,0,0,1-.042-.181l.213-.994,2.652-2.191.99,1.247L10.665,16.8Zm3.867-2.374h0l-.989-1.246.54-.446a.412.412,0,0,1,.587.063l.464.585a.431.431,0,0,1-.061.6l-.539.446ZM11.784,4.5H7.856V0h.186a.686.686,0,0,1,.521.246l3.006,3.445a.91.91,0,0,1,.214.595V4.5Z" transform="translate(798 921)" fill="#f9ac50"/>
  </g>
</svg>
