<svg xmlns="http://www.w3.org/2000/svg" xmlns:xlink="http://www.w3.org/1999/xlink" width="60" height="60" viewBox="0 0 60 60">
  <defs>
    <clipPath id="clip-path">
      <path id="calendar-alt-solid" d="M0,31.071a3.215,3.215,0,0,0,3.214,3.214H26.786A3.215,3.215,0,0,0,30,31.071V12.857H0ZM21.429,17.946a.806.806,0,0,1,.8-.8h2.679a.806.806,0,0,1,.8.8v2.679a.806.806,0,0,1-.8.8H22.232a.806.806,0,0,1-.8-.8Zm0,8.571a.806.806,0,0,1,.8-.8h2.679a.806.806,0,0,1,.8.8V29.2a.806.806,0,0,1-.8.8H22.232a.806.806,0,0,1-.8-.8Zm-8.571-8.571a.806.806,0,0,1,.8-.8h2.679a.806.806,0,0,1,.8.8v2.679a.806.806,0,0,1-.8.8H13.661a.806.806,0,0,1-.8-.8Zm0,8.571a.806.806,0,0,1,.8-.8h2.679a.806.806,0,0,1,.8.8V29.2a.806.806,0,0,1-.8.8H13.661a.806.806,0,0,1-.8-.8ZM4.286,17.946a.806.806,0,0,1,.8-.8H7.768a.806.806,0,0,1,.8.8v2.679a.806.806,0,0,1-.8.8H5.089a.806.806,0,0,1-.8-.8Zm0,8.571a.806.806,0,0,1,.8-.8H7.768a.806.806,0,0,1,.8.8V29.2a.806.806,0,0,1-.8.8H5.089a.806.806,0,0,1-.8-.8Zm22.5-22.232H23.571V1.071A1.075,1.075,0,0,0,22.5,0H20.357a1.075,1.075,0,0,0-1.071,1.071V4.286H10.714V1.071A1.075,1.075,0,0,0,9.643,0H7.5A1.075,1.075,0,0,0,6.429,1.071V4.286H3.214A3.215,3.215,0,0,0,0,7.5v3.214H30V7.5A3.215,3.215,0,0,0,26.786,4.286Z" transform="translate(41 1982)" fill="#2680eb"/>
    </clipPath>
  </defs>
  <g id="icon-tanggal-registrasi" transform="translate(-26 -1969)">
    <circle id="Ellipse_392" data-name="Ellipse 392" cx="30" cy="30" r="30" transform="translate(26 1969)" fill="#d9eeff" opacity="0.4"/>
    <path id="calendar-alt-solid-2" data-name="calendar-alt-solid" d="M0,31.071a3.215,3.215,0,0,0,3.214,3.214H26.786A3.215,3.215,0,0,0,30,31.071V12.857H0ZM21.429,17.946a.806.806,0,0,1,.8-.8h2.679a.806.806,0,0,1,.8.8v2.679a.806.806,0,0,1-.8.8H22.232a.806.806,0,0,1-.8-.8Zm0,8.571a.806.806,0,0,1,.8-.8h2.679a.806.806,0,0,1,.8.8V29.2a.806.806,0,0,1-.8.8H22.232a.806.806,0,0,1-.8-.8Zm-8.571-8.571a.806.806,0,0,1,.8-.8h2.679a.806.806,0,0,1,.8.8v2.679a.806.806,0,0,1-.8.8H13.661a.806.806,0,0,1-.8-.8Zm0,8.571a.806.806,0,0,1,.8-.8h2.679a.806.806,0,0,1,.8.8V29.2a.806.806,0,0,1-.8.8H13.661a.806.806,0,0,1-.8-.8ZM4.286,17.946a.806.806,0,0,1,.8-.8H7.768a.806.806,0,0,1,.8.8v2.679a.806.806,0,0,1-.8.8H5.089a.806.806,0,0,1-.8-.8Zm0,8.571a.806.806,0,0,1,.8-.8H7.768a.806.806,0,0,1,.8.8V29.2a.806.806,0,0,1-.8.8H5.089a.806.806,0,0,1-.8-.8Zm22.5-22.232H23.571V1.071A1.075,1.075,0,0,0,22.5,0H20.357a1.075,1.075,0,0,0-1.071,1.071V4.286H10.714V1.071A1.075,1.075,0,0,0,9.643,0H7.5A1.075,1.075,0,0,0,6.429,1.071V4.286H3.214A3.215,3.215,0,0,0,0,7.5v3.214H30V7.5A3.215,3.215,0,0,0,26.786,4.286Z" transform="translate(41 1982)" fill="#2680eb"/>
    <g id="Mask_Group_1475" data-name="Mask Group 1475" clip-path="url(#clip-path)">
      <circle id="Ellipse_527" data-name="Ellipse 527" cx="21.302" cy="21.302" r="21.302" transform="translate(22.698 1964.698)" fill="#6bb1fe" opacity="0.5"/>
    </g>
  </g>
</svg>
