<svg xmlns="http://www.w3.org/2000/svg" xmlns:xlink="http://www.w3.org/1999/xlink" width="51" height="51" viewBox="0 0 51 51">
  <defs>
    <clipPath id="clip-path">
      <path id="Union_42" data-name="Union 42" d="M2.322,24.5A2.321,2.321,0,0,1,0,22.177V20.166a6.5,6.5,0,0,1,6.5-6.5h.807a8.426,8.426,0,0,0,7.049,0h.811a6.4,6.4,0,0,1,1.494.177l-3.093,3.09a1.3,1.3,0,0,0-.38.922V19.73a1.3,1.3,0,0,0,1.3,1.3h2.694a1.3,1.3,0,0,0,1.306-1.3v-.238h.235a1.3,1.3,0,0,0,1.3-1.3v-.239h.17a1.29,1.29,0,0,0,.926-.391,6.456,6.456,0,0,1,.542,2.6v2.011A2.319,2.319,0,0,1,19.341,24.5Zm12.186-4.191a.575.575,0,0,1-.575-.576V17.854a.569.569,0,0,1,.17-.41l3.889-3.891a4.254,4.254,0,1,1,3.233,2.831l-.578.651a.575.575,0,0,1-.431.191h-.9v.967a.574.574,0,0,1-.575.575h-.962v.961a.578.578,0,0,1-.578.576Zm7.506-9.234a1.154,1.154,0,1,0,1.153-1.153A1.154,1.154,0,0,0,22.014,11.072ZM4.7,6.073a6.071,6.071,0,1,1,6.069,6.073A6.071,6.071,0,0,1,4.7,6.073Z" fill="#2680eb" stroke="rgba(0,0,0,0)" stroke-miterlimit="10" stroke-width="1"/>
    </clipPath>
  </defs>
  <g id="icon-user-access" transform="translate(-239 -1578)">
    <circle id="Ellipse_386" data-name="Ellipse 386" cx="25.5" cy="25.5" r="25.5" transform="translate(239 1578)" fill="#d9eeff" opacity="0.4"/>
    <g id="Group_2053" data-name="Group 2053" transform="translate(251.142 1590.952)">
      <g id="Group_2052" data-name="Group 2052" transform="translate(0.001 0.001)">
        <path id="Path_2607" data-name="Path 2607" d="M1146.421,502.84a4.236,4.236,0,0,0-4.021,5.56l-3.892,3.892a.577.577,0,0,0-.169.408v1.877a.577.577,0,0,0,.577.577h2.694a.577.577,0,0,0,.577-.577v-.962h.962a.577.577,0,0,0,.577-.577v-.962h.9a.576.576,0,0,0,.431-.194l.578-.65a4.233,4.233,0,1,0,.79-8.392Zm1.154,4.233a1.155,1.155,0,1,1,1.155-1.155A1.154,1.154,0,0,1,1147.575,507.073Z" transform="translate(-1124.409 -494.847)" fill="#2680eb"/>
        <circle id="Ellipse_388" data-name="Ellipse 388" cx="6.071" cy="6.071" r="6.071" transform="translate(4.699 0)" fill="#2680eb"/>
        <path id="Path_2608" data-name="Path 2608" d="M871.34,624.079a6.473,6.473,0,0,1,.541,2.6v2.011a2.321,2.321,0,0,1-2.321,2.321H852.541a2.321,2.321,0,0,1-2.321-2.321v-2.011a6.5,6.5,0,0,1,6.5-6.5h.807a8.416,8.416,0,0,0,7.049,0h.807a6.51,6.51,0,0,1,1.495.173l-3.092,3.092a1.3,1.3,0,0,0-.381.921v1.877a1.3,1.3,0,0,0,1.3,1.3H867.4a1.3,1.3,0,0,0,1.3-1.3v-.237h.236a1.3,1.3,0,0,0,1.3-1.3v-.237h.17A1.3,1.3,0,0,0,871.34,624.079Z" transform="translate(-850.22 -606.514)" fill="#2680eb"/>
      </g>
      <g id="Mask_Group_1319" data-name="Mask Group 1319" clip-path="url(#clip-path)">
        <circle id="Ellipse_387" data-name="Ellipse 387" cx="16.829" cy="16.829" r="16.829" transform="translate(-21.461 -10.78)" fill="#6bb1fe" opacity="0.5"/>
      </g>
    </g>
  </g>
</svg>
