<svg xmlns="http://www.w3.org/2000/svg" xmlns:xlink="http://www.w3.org/1999/xlink" width="68" height="68" viewBox="0 0 68 68">
  <defs>
    <clipPath id="clip-path">
      <path id="Path_435" data-name="Path 435" d="M860.9.7a13.465,13.465,0,0,1-5.409,1.473c-2.478,0-4.525-1.609-7.641-1.609a8.989,8.989,0,0,0-3.147.556,2.589,2.589,0,0,0,.166-1.09,2.6,2.6,0,0,0-2.477-2.424A2.59,2.59,0,0,0,840.8,2.318V17.341h0v7.575h-4.352a1.528,1.528,0,0,0-1.528,1.528v1.981h-1.275a1.528,1.528,0,0,0-1.528,1.528v3.124h20.34V29.952a1.528,1.528,0,0,0-1.528-1.528h-1.275V26.444a1.528,1.528,0,0,0-1.528-1.528h-4.352V17.341h-.009V15.807a12.922,12.922,0,0,1,5.292-1.023c2.478,0,4.525,1.609,7.641,1.609a9.682,9.682,0,0,0,5.666-1.89,1.478,1.478,0,0,0,.64-1.219V2.041A1.48,1.48,0,0,0,860.9.7Z" transform="translate(-832.115 2.397)" fill="#2680eb"/>
    </clipPath>
  </defs>
  <g id="icon-profil-pengalaman" transform="translate(-30 -1692)">
    <circle id="Ellipse_120" data-name="Ellipse 120" cx="34" cy="34" r="34" transform="translate(30 1692)" fill="#d9eeff" opacity="0.7"/>
    <path id="Path_430" data-name="Path 430" d="M442.16,201.513l-24.883-7.792a7,7,0,0,0-4.174,0l-24.884,7.792a2.151,2.151,0,0,0,0,4.145l4.338,1.358a7.246,7.246,0,0,0-1.6,4.264,2.833,2.833,0,0,0-.227,4.82l-2.277,10.445a1.448,1.448,0,0,0,1.393,1.77h5.005a1.448,1.448,0,0,0,1.394-1.77L393.971,216.1a2.826,2.826,0,0,0-.16-4.775,4.307,4.307,0,0,1,1.845-3.338l17.446,5.463a7.006,7.006,0,0,0,4.174,0l24.884-7.792a2.152,2.152,0,0,0,0-4.146Zm-24.046,14.719a9.806,9.806,0,0,1-5.851,0l-12.937-4.05L398.062,222.5c0,3.214,7.668,5.819,17.127,5.819s17.128-2.6,17.128-5.819l-1.265-10.316Z" transform="translate(-351.267 1514.965)" fill="none"/>
    <path id="Path_434" data-name="Path 434" d="M860.9.7a13.465,13.465,0,0,1-5.409,1.473c-2.478,0-4.525-1.609-7.641-1.609a8.989,8.989,0,0,0-3.147.556,2.589,2.589,0,0,0,.166-1.09,2.6,2.6,0,0,0-2.477-2.424A2.59,2.59,0,0,0,840.8,2.318V17.341h0v7.575h-4.352a1.528,1.528,0,0,0-1.528,1.528v1.981h-1.275a1.528,1.528,0,0,0-1.528,1.528v3.124h20.34V29.952a1.528,1.528,0,0,0-1.528-1.528h-1.275V26.444a1.528,1.528,0,0,0-1.528-1.528h-4.352V17.341h-.009V15.807a12.922,12.922,0,0,1,5.292-1.023c2.478,0,4.525,1.609,7.641,1.609a9.682,9.682,0,0,0,5.666-1.89,1.478,1.478,0,0,0,.64-1.219V2.041A1.48,1.48,0,0,0,860.9.7Z" transform="translate(-783.689 1710.764)" fill="#2680eb"/>
    <g id="Mask_Group_23" data-name="Mask Group 23" transform="translate(48.426 1708.367)" clip-path="url(#clip-path)">
      <ellipse id="Ellipse_121" data-name="Ellipse 121" cx="15.26" cy="15.554" rx="15.26" ry="15.554" transform="translate(-10.878 -4.095)" fill="#6bb1fe" opacity="0.5"/>
    </g>
  </g>
</svg>
