<svg xmlns="http://www.w3.org/2000/svg" width="30" height="30" viewBox="0 0 30 30">
  <g id="icon-nav-analisis-soal-ujian" transform="translate(-183.35 -190.35)">
    <circle id="Ellipse_29" data-name="Ellipse 29" cx="15" cy="15" r="15" transform="translate(183.35 190.35)" fill="#d9eeff" opacity="0.3"/>
    <path id="Subtraction_193" data-name="Subtraction 193" d="M11.224,17.644H1.6A1.631,1.631,0,0,1,0,15.989V3.859A1.631,1.631,0,0,1,1.6,2.205H4.276A2.175,2.175,0,0,1,6.413,0a2.175,2.175,0,0,1,2.138,2.2h2.672a1.631,1.631,0,0,1,1.6,1.654v12.13A1.631,1.631,0,0,1,11.224,17.644Zm-3.694-5.31v.231a.342.342,0,0,0,.1.24l1.369,1.412a.323.323,0,0,0,.233.1.32.32,0,0,0,.232-.1l.389-.4a.35.35,0,0,0,0-.481L8.481,11.923a.32.32,0,0,0-.233-.1H8.024a2.972,2.972,0,0,0,.6-1.813A2.9,2.9,0,0,0,5.773,7.065a2.947,2.947,0,0,0,0,5.891,2.771,2.771,0,0,0,1.755-.621ZM6.413,1.378a.815.815,0,0,0-.8.827.8.8,0,1,0,1.6,0A.816.816,0,0,0,6.413,1.378ZM5.773,11.823a1.813,1.813,0,0,1,0-3.625,1.813,1.813,0,0,1,0,3.625Z" transform="translate(191.938 195.529)" fill="#2680eb" stroke="rgba(0,0,0,0)" stroke-miterlimit="10" stroke-width="1"/>
    <path id="Intersection_6" data-name="Intersection 6" d="M24429.938,16316.168a1.63,1.63,0,0,1,1.6-1.65h2.674a2.139,2.139,0,1,1,4.275,0h.814a9.921,9.921,0,0,1-1.793,5.518,2.8,2.8,0,0,0-1.8-.659,2.9,2.9,0,0,0-2.859,2.945,3.025,3.025,0,0,0,.264,1.235,9.9,9.9,0,0,1-3.178.727Zm5.613-1.65a.8.8,0,1,0,.8-.828A.814.814,0,0,0,24435.551,16314.518Zm-1.6,7.8a1.782,1.782,0,0,1,1.756-1.81,1.718,1.718,0,0,1,1.105.4,10.022,10.022,0,0,1-2.7,2.162A1.845,1.845,0,0,1,24433.955,16322.321Z" transform="translate(-24238 -16116.782)" fill="#6bb1fe" stroke="rgba(0,0,0,0)" stroke-miterlimit="10" stroke-width="1" opacity="0.5"/>
  </g>
</svg>
