<svg xmlns="http://www.w3.org/2000/svg" width="30" height="30" viewBox="0 0 30 30">
  <g id="icon-subnav-analisis" transform="translate(-183.35 -190.35)">
    <circle id="Ellipse_29" data-name="Ellipse 29" cx="15" cy="15" r="15" transform="translate(183.35 190.35)" fill="#d9eeff"/>
    <path id="Path_225" data-name="Path 225" d="M11.747,73.036H13.1a.486.486,0,0,0,.452-.452V67.84a.486.486,0,0,0-.452-.452H11.747a.486.486,0,0,0-.452.452v4.744A.486.486,0,0,0,11.747,73.036Zm3.389,0h1.355a.486.486,0,0,0,.452-.452V64.452A.486.486,0,0,0,16.492,64H15.136a.486.486,0,0,0-.452.452v8.133A.486.486,0,0,0,15.136,73.036Zm-10.166,0H6.326a.486.486,0,0,0,.452-.452V70.1a.486.486,0,0,0-.452-.452H4.97a.486.486,0,0,0-.452.452v2.485A.486.486,0,0,0,4.97,73.036Zm3.389,0H9.714a.486.486,0,0,0,.452-.452v-7a.486.486,0,0,0-.452-.452H8.359a.486.486,0,0,0-.452.452v7A.486.486,0,0,0,8.359,73.036ZM17.508,75.3H2.259V64.565A.565.565,0,0,0,1.694,64H.565A.565.565,0,0,0,0,64.565v11.86a1.13,1.13,0,0,0,1.13,1.13H17.508a.565.565,0,0,0,.565-.565V75.86A.565.565,0,0,0,17.508,75.3Z" transform="translate(189.35 134.35)" fill="#2680eb"/>
  </g>
</svg>
