<svg xmlns="http://www.w3.org/2000/svg" xmlns:xlink="http://www.w3.org/1999/xlink" width="30" height="30" viewBox="0 0 30 30">
  <defs>
    <clipPath id="clip-path">
      <path id="Path_250" data-name="Path 250" d="M167.229,182.489a.4.4,0,0,0,.4-.4v-1.33a.4.4,0,0,0-.4-.4h-.665v-1.6a1.6,1.6,0,0,0-1.6-1.6H154.332a1.6,1.6,0,0,0-1.6,1.6v13.829a1.6,1.6,0,0,0,1.6,1.6h10.637a1.6,1.6,0,0,0,1.6-1.6V191h.665a.4.4,0,0,0,.4-.4v-1.33a.4.4,0,0,0-.4-.4h-.665v-2.127h.665a.4.4,0,0,0,.4-.4v-1.33a.4.4,0,0,0-.4-.4h-.665v-2.128Zm-7.579-1.064a2.127,2.127,0,1,1-2.127,2.127A2.129,2.129,0,0,1,159.65,181.425Zm3.723,7.872a.7.7,0,0,1-.745.638h-5.957a.7.7,0,0,1-.745-.638v-.638a2.093,2.093,0,0,1,2.234-1.915h.166a3.423,3.423,0,0,0,2.646,0h.166a2.093,2.093,0,0,1,2.234,1.915Z" transform="translate(-152.736 -177.17)" fill="none"/>
    </clipPath>
    <clipPath id="clip-path-2">
      <path id="Path_37333" data-name="Path 37333" d="M11.849,2.257H9.028a2.257,2.257,0,0,0-4.514,0H1.693A1.693,1.693,0,0,0,0,3.95V16.362a1.693,1.693,0,0,0,1.693,1.693H11.849a1.693,1.693,0,0,0,1.693-1.693V3.95A1.693,1.693,0,0,0,11.849,2.257ZM3.385,14.952a.846.846,0,1,1,.846-.846A.844.844,0,0,1,3.385,14.952Zm0-3.385a.846.846,0,1,1,.846-.846A.844.844,0,0,1,3.385,11.566Zm0-3.385a.846.846,0,1,1,.846-.846A.844.844,0,0,1,3.385,8.181ZM6.771,1.411a.846.846,0,1,1-.846.846A.844.844,0,0,1,6.771,1.411Zm4.514,12.977A.283.283,0,0,1,11,14.67H5.924a.283.283,0,0,1-.282-.282v-.564a.283.283,0,0,1,.282-.282H11a.283.283,0,0,1,.282.282Zm0-3.385a.283.283,0,0,1-.282.282H5.924A.283.283,0,0,1,5.642,11v-.564a.283.283,0,0,1,.282-.282H11a.283.283,0,0,1,.282.282Zm0-3.385A.283.283,0,0,1,11,7.9H5.924a.283.283,0,0,1-.282-.282V7.053a.283.283,0,0,1,.282-.282H11a.283.283,0,0,1,.282.282Z" transform="translate(0)" fill="#2680eb"/>
    </clipPath>
  </defs>
  <g id="icon-kegiatan-tugas" transform="translate(-34 -468.5)">
    <circle id="Ellipse_84" data-name="Ellipse 84" cx="15" cy="15" r="15" transform="translate(34 468.5)" fill="#d9eeff" opacity="0.7"/>
    <g id="Group_4436" data-name="Group 4436" transform="translate(0.009 0.011)">
      <g id="Group_3732" data-name="Group 3732" transform="translate(41.886 474.461)">
        <path id="Path_37332" data-name="Path 37332" d="M11.849,2.257H9.028a2.257,2.257,0,0,0-4.514,0H1.693A1.693,1.693,0,0,0,0,3.95V16.362a1.693,1.693,0,0,0,1.693,1.693H11.849a1.693,1.693,0,0,0,1.693-1.693V3.95A1.693,1.693,0,0,0,11.849,2.257ZM3.385,14.952a.846.846,0,1,1,.846-.846A.844.844,0,0,1,3.385,14.952Zm0-3.385a.846.846,0,1,1,.846-.846A.844.844,0,0,1,3.385,11.566Zm0-3.385a.846.846,0,1,1,.846-.846A.844.844,0,0,1,3.385,8.181ZM6.771,1.411a.846.846,0,1,1-.846.846A.844.844,0,0,1,6.771,1.411Zm4.514,12.977A.283.283,0,0,1,11,14.67H5.924a.283.283,0,0,1-.282-.282v-.564a.283.283,0,0,1,.282-.282H11a.283.283,0,0,1,.282.282Zm0-3.385a.283.283,0,0,1-.282.282H5.924A.283.283,0,0,1,5.642,11v-.564a.283.283,0,0,1,.282-.282H11a.283.283,0,0,1,.282.282Zm0-3.385A.283.283,0,0,1,11,7.9H5.924a.283.283,0,0,1-.282-.282V7.053a.283.283,0,0,1,.282-.282H11a.283.283,0,0,1,.282.282Z" transform="translate(0 0)" fill="#2680eb"/>
        <g id="Mask_Group_1522" data-name="Mask Group 1522" transform="translate(0 0)" clip-path="url(#clip-path-2)">
          <ellipse id="Ellipse_627" data-name="Ellipse 627" cx="7.973" cy="7.973" rx="7.973" ry="7.973" transform="translate(-6.585 -6.919)" fill="#6bb1fe" opacity="0.5"/>
        </g>
      </g>
    </g>
  </g>
</svg>
