<svg id="icon-analisis-keuangan" xmlns="http://www.w3.org/2000/svg" width="86" height="86" viewBox="0 0 86 86">
  <path id="Path_38567" data-name="Path 38567" d="M43,0A43,43,0,1,1,0,43,43,43,0,0,1,43,0Z" fill="#2680eb"/>
  <path id="Subtraction_77" data-name="Subtraction 77" d="M26.725,48.9H4.584A4.589,4.589,0,0,1,0,44.313V10.7A4.589,4.589,0,0,1,4.584,6.115h7.64a6.112,6.112,0,0,1,12.224,0h7.64A4.589,4.589,0,0,1,36.671,10.7V37.076a7.943,7.943,0,0,0-6.544-.325.752.752,0,0,0-.332-.076H16.043a.765.765,0,0,0-.764.763v1.528a.765.765,0,0,0,.764.764h10.4a7.925,7.925,0,0,0,.278,9.167ZM9.167,35.91A2.292,2.292,0,1,0,11.46,38.2,2.294,2.294,0,0,0,9.167,35.91Zm0-9.168a2.292,2.292,0,1,0,2.292,2.292A2.294,2.294,0,0,0,9.167,26.742Zm6.876.764a.765.765,0,0,0-.764.764V29.8a.765.765,0,0,0,.764.764H29.8a.765.765,0,0,0,.764-.764V28.27a.765.765,0,0,0-.764-.764ZM9.167,17.574a2.292,2.292,0,1,0,2.292,2.291A2.294,2.294,0,0,0,9.167,17.574Zm6.876.764a.765.765,0,0,0-.764.764V20.63a.765.765,0,0,0,.764.764H29.8a.765.765,0,0,0,.764-.764V19.1a.765.765,0,0,0-.764-.764ZM18.336,3.822a2.292,2.292,0,1,0,2.292,2.292A2.295,2.295,0,0,0,18.336,3.822Z" transform="translate(24.843 16.308)" fill="#f4f4f7"/>
  <path id="search-solid" d="M14.612,12.81,11.727,9.925a.694.694,0,0,0-.492-.2h-.472a6.016,6.016,0,1,0-1.042,1.042v.472a.694.694,0,0,0,.2.492l2.885,2.885a.692.692,0,0,0,.981,0l.819-.819A.7.7,0,0,0,14.612,12.81ZM6.018,9.722a3.7,3.7,0,1,1,3.7-3.7A3.7,3.7,0,0,1,6.018,9.722Z" transform="translate(51.8 54.3)" fill="#f4f4f7"/>
</svg>
