<svg id="icon-laporan-keuangan-arus-kas" xmlns="http://www.w3.org/2000/svg" width="86" height="86" viewBox="0 0 86 86">
  <path id="Path_38567" data-name="Path 38567" d="M43,0A43,43,0,1,1,0,43,43,43,0,0,1,43,0Z" fill="#2680eb"/>
  <path id="exchange-alt-solid" d="M0,65.876V64.462a2.121,2.121,0,0,1,2.121-2.121H33.937V58.1a2.123,2.123,0,0,1,3.621-1.5l7.07,7.07a2.121,2.121,0,0,1,0,3l-7.07,7.07a2.123,2.123,0,0,1-3.621-1.5V68H2.121A2.121,2.121,0,0,1,0,65.876ZM43.128,79.31H11.312V75.068a2.123,2.123,0,0,0-3.621-1.5l-7.07,7.07a2.121,2.121,0,0,0,0,3l7.07,7.07a2.122,2.122,0,0,0,3.621-1.5V84.966H43.128a2.121,2.121,0,0,0,2.121-2.121V81.431A2.121,2.121,0,0,0,43.128,79.31Z" transform="translate(20.376 -30.653)" fill="#f4f4f7"/>
</svg>
