<svg xmlns="http://www.w3.org/2000/svg" width="76" height="59.111" viewBox="0 0 76 59.111">
  <path id="icon-kartu-rekening" d="M69.653,32H6.347A6.338,6.338,0,0,0,0,38.333V84.778a6.338,6.338,0,0,0,6.347,6.333H69.653A6.338,6.338,0,0,0,76,84.778V38.333A6.338,6.338,0,0,0,69.653,32ZM7.138,38.333H68.862a.794.794,0,0,1,.792.792v5.542H6.347V39.125A.794.794,0,0,1,7.138,38.333ZM68.862,84.778H7.138a.794.794,0,0,1-.792-.792V61.556H69.653V83.986A.794.794,0,0,1,68.862,84.778ZM25.333,71.583v5.278a1.588,1.588,0,0,1-1.583,1.583h-9.5a1.588,1.588,0,0,1-1.583-1.583V71.583A1.588,1.588,0,0,1,14.25,70h9.5A1.588,1.588,0,0,1,25.333,71.583Zm25.333,0v5.278a1.588,1.588,0,0,1-1.583,1.583H31.139a1.588,1.588,0,0,1-1.583-1.583V71.583A1.588,1.588,0,0,1,31.139,70H49.083A1.588,1.588,0,0,1,50.667,71.583Z" transform="translate(0 -32)" fill="#2680eb"/>
</svg>
