<svg xmlns="http://www.w3.org/2000/svg" xmlns:xlink="http://www.w3.org/1999/xlink" width="16" height="16" viewBox="0 0 16 16">
  <defs>
    <clipPath id="clip-path">
      <path id="Path_324" data-name="Path 324" d="M5.495,8a5.495,5.495,0,1,0,5.495,5.495A5.495,5.495,0,0,0,5.495,8Zm1.823,7.923-.251.25a.529.529,0,0,0-.137.237c-.033.125-.06.252-.106.374L6.44,17.822a4.428,4.428,0,0,1-.945.1v-.607a1.659,1.659,0,0,0-.5-1.136.709.709,0,0,1-.208-.5v-.709a.707.707,0,0,0-.365-.62c-.318-.176-.771-.422-1.081-.579a3.194,3.194,0,0,1-.7-.482l-.018-.016a2.544,2.544,0,0,1-.4-.46c-.208-.305-.546-.807-.766-1.133A4.455,4.455,0,0,1,3.741,9.427l.532.266a.355.355,0,0,0,.513-.317v-.25a4.428,4.428,0,0,1,.54-.054l.627.627a.355.355,0,0,1,0,.5l-.1.1-.229.229a.177.177,0,0,0,0,.251l.1.1a.177.177,0,0,1,0,.251l-.177.177a.177.177,0,0,1-.125.052h-.2a.177.177,0,0,0-.124.05l-.22.214a.177.177,0,0,0-.035.206l.345.691a.177.177,0,0,1-.158.257H4.906a.177.177,0,0,1-.116-.043l-.206-.179a.355.355,0,0,0-.345-.069l-.691.23a.265.265,0,0,0-.035.488l.245.123a1.5,1.5,0,0,0,.672.159c.233,0,.5.6.709.709H6.619a.709.709,0,0,1,.5.208l.3.3a.676.676,0,0,1,.2.478A1.031,1.031,0,0,1,7.318,15.923ZM9.239,13.9a.532.532,0,0,1-.314-.221l-.4-.6a.531.531,0,0,1,0-.59l.434-.651a.531.531,0,0,1,.2-.181l.288-.144a4.293,4.293,0,0,1,.432,2.545Z" transform="translate(0 -8)" fill="#2680eb"/>
    </clipPath>
  </defs>
  <g id="icon-proyek-publik" transform="translate(-242.749 -391.749)">
    <circle id="Ellipse_84" data-name="Ellipse 84" cx="8" cy="8" r="8" transform="translate(242.749 391.749)" fill="#d9eeff" opacity="0.7"/>
    <g id="Group_884" data-name="Group 884" transform="translate(245.255 394.255)">
      <path id="Path_323" data-name="Path 323" d="M5.495,8a5.495,5.495,0,1,0,5.495,5.495A5.495,5.495,0,0,0,5.495,8Zm1.823,7.923-.251.25a.529.529,0,0,0-.137.237c-.033.125-.06.252-.106.374L6.44,17.822a4.428,4.428,0,0,1-.945.1v-.607a1.659,1.659,0,0,0-.5-1.136.709.709,0,0,1-.208-.5v-.709a.707.707,0,0,0-.365-.62c-.318-.176-.771-.422-1.081-.579a3.194,3.194,0,0,1-.7-.482l-.018-.016a2.544,2.544,0,0,1-.4-.46c-.208-.305-.546-.807-.766-1.133A4.455,4.455,0,0,1,3.741,9.427l.532.266a.355.355,0,0,0,.513-.317v-.25a4.428,4.428,0,0,1,.54-.054l.627.627a.355.355,0,0,1,0,.5l-.1.1-.229.229a.177.177,0,0,0,0,.251l.1.1a.177.177,0,0,1,0,.251l-.177.177a.177.177,0,0,1-.125.052h-.2a.177.177,0,0,0-.124.05l-.22.214a.177.177,0,0,0-.035.206l.345.691a.177.177,0,0,1-.158.257H4.906a.177.177,0,0,1-.116-.043l-.206-.179a.355.355,0,0,0-.345-.069l-.691.23a.265.265,0,0,0-.035.488l.245.123a1.5,1.5,0,0,0,.672.159c.233,0,.5.6.709.709H6.619a.709.709,0,0,1,.5.208l.3.3a.676.676,0,0,1,.2.478A1.031,1.031,0,0,1,7.318,15.923ZM9.239,13.9a.532.532,0,0,1-.314-.221l-.4-.6a.531.531,0,0,1,0-.59l.434-.651a.531.531,0,0,1,.2-.181l.288-.144a4.293,4.293,0,0,1,.432,2.545Z" transform="translate(0 -8)" fill="#2680eb"/>
      <g id="Mask_Group_8" data-name="Mask Group 8" transform="translate(0)" clip-path="url(#clip-path)">
        <circle id="Ellipse_85" data-name="Ellipse 85" cx="5.23" cy="5.23" r="5.23" transform="translate(-4.112 -2.978)" fill="#6bb1fe" opacity="0.5"/>
      </g>
    </g>
  </g>
</svg>
