<svg id="icon-realisasi-keuangan" xmlns="http://www.w3.org/2000/svg" width="86" height="86" viewBox="0 0 86 86">
  <path id="Path_38567" data-name="Path 38567" d="M43,0A43,43,0,1,1,0,43,43,43,0,0,1,43,0Z" fill="#2680eb"/>
  <g id="Group_5378" data-name="Group 5378" transform="translate(-16.375 -1)">
    <path id="Subtraction_77" data-name="Subtraction 77" d="M24.868,48.9H4.586A4.59,4.59,0,0,1,0,44.315V10.7A4.59,4.59,0,0,1,4.586,6.11h7.633a6.115,6.115,0,0,1,12.23,0h7.637A4.593,4.593,0,0,1,36.671,10.7V35.544a9.942,9.942,0,0,0-7.84,1.126H16.049a.768.768,0,0,0-.768.767v1.525a.759.759,0,0,0,.768.767h9.657a9.923,9.923,0,0,0-.842,9.167ZM9.172,35.912A2.292,2.292,0,1,0,11.463,38.2,2.3,2.3,0,0,0,9.172,35.912Zm0-9.17a2.292,2.292,0,1,0,2.291,2.292A2.3,2.3,0,0,0,9.172,26.742Zm6.877.768a.764.764,0,0,0-.768.758V29.8a.764.764,0,0,0,.768.758H29.79a.767.767,0,0,0,.771-.758V28.268a.767.767,0,0,0-.771-.758ZM9.172,17.572a2.293,2.293,0,1,0,2.291,2.292A2.3,2.3,0,0,0,9.172,17.572Zm6.877.768a.764.764,0,0,0-.768.758v1.534a.764.764,0,0,0,.768.758H29.79a.767.767,0,0,0,.771-.758V19.1a.767.767,0,0,0-.771-.758ZM18.34,3.817A2.293,2.293,0,0,0,16.049,6.11,2.287,2.287,0,1,0,18.34,3.817Z" transform="translate(40.219 18.5)" fill="#f4f4f7"/>
    <path id="Exclusion_1" data-name="Exclusion 1" d="M8.267,16.536A8.265,8.265,0,0,1,0,8.27,8.266,8.266,0,0,1,8.267,0a8.266,8.266,0,0,1,8.267,8.27,8.265,8.265,0,0,1-8.267,8.266ZM4.778,7.244a.434.434,0,0,0-.29.121L3.9,7.955a.418.418,0,0,0,0,.587l2.7,2.709a.441.441,0,0,0,.3.122.394.394,0,0,0,.29-.122L11.987,6.46a.39.39,0,0,0,.121-.291.406.406,0,0,0-.121-.3L11.4,5.282a.417.417,0,0,0-.587,0L6.9,9.188,5.075,7.366A.411.411,0,0,0,4.778,7.244Z" transform="translate(65.998 55.349)" fill="#f4f4f7"/>
  </g>
</svg>
