<svg xmlns="http://www.w3.org/2000/svg" xmlns:xlink="http://www.w3.org/1999/xlink" width="60" height="60" viewBox="0 0 60 60">
  <defs>
    <clipPath id="clip-path">
      <path id="Path_41313" data-name="Path 41313" d="M535.923-7.03v-8.562H523.8a1.48,1.48,0,0,0-1.455,1.511V15.132a1.48,1.48,0,0,0,1.455,1.511h20.372a1.48,1.48,0,0,0,1.455-1.511V-5.518h-8.246A1.488,1.488,0,0,1,535.923-7.03Z" transform="translate(-522.342 15.592)" fill="#2680eb" stroke="rgba(0,0,0,0)" stroke-miterlimit="10" stroke-width="1"/>
    </clipPath>
  </defs>
  <g id="icon-file-mou" transform="translate(-169 -476)">
    <circle id="Ellipse_380" data-name="Ellipse 380" cx="30" cy="30" r="30" transform="translate(169 476)" fill="#d9eeff" opacity="0.4"/>
    <path id="Path_41311" data-name="Path 41311" d="M785.678-8.981l-5.936-6.17a1.427,1.427,0,0,0-1.031-.441h-.37v8.059H786.1v-.384A1.536,1.536,0,0,0,785.678-8.981Z" transform="translate(-575.461 505.475)" fill="#2680eb" stroke="rgba(0,0,0,0)" stroke-miterlimit="10" stroke-width="1"/>
    <path id="Subtraction_86" data-name="Subtraction 86" d="M21.827,32.235H1.455A1.486,1.486,0,0,1,0,30.724V1.511A1.486,1.486,0,0,1,1.455,0H13.581V8.563a1.486,1.486,0,0,0,1.455,1.511h8.246V30.724A1.486,1.486,0,0,1,21.827,32.235ZM4.447,26.852a1.054,1.054,0,1,0,0,2.109H12.57a1.054,1.054,0,1,0,0-2.109Zm0-4.472a1.055,1.055,0,0,0,0,2.11H18.261a1.055,1.055,0,0,0,0-2.11Zm0-4.471a1.055,1.055,0,0,0,0,2.11H18.261a1.055,1.055,0,1,0,0-2.11Zm0-4.471a1.054,1.054,0,1,0,0,2.109H18.261a1.054,1.054,0,1,0,0-2.109Z" transform="translate(187.359 489.883)" fill="#2680eb" stroke="rgba(0,0,0,0)" stroke-miterlimit="10" stroke-width="1"/>
    <g id="Mask_Group_3839" data-name="Mask Group 3839" transform="translate(187.359 489.883)" clip-path="url(#clip-path)">
      <ellipse id="Ellipse_959" data-name="Ellipse 959" cx="14.498" cy="14.497" rx="14.498" ry="14.497" transform="translate(-13.36 -16.375)" fill="#6bb1fe" opacity="0.5"/>
    </g>
  </g>
</svg>
