<svg xmlns="http://www.w3.org/2000/svg" width="24" height="24" viewBox="0 0 24 24">
  <g id="icon-broadcast-terkirim" transform="translate(0 0.334)">
    <path id="Check" d="M12,0A12,12,0,1,1,0,12,12,12,0,0,1,12,0Z" transform="translate(0 -0.334)" fill="#e0fce4"/>
    <path id="Path_160" data-name="Path 160" d="M4.228,74.2.183,70.153a.622.622,0,0,1,0-.88l.88-.88a.622.622,0,0,1,.88,0l2.726,2.726,5.838-5.838a.622.622,0,0,1,.88,0l.88.88a.622.622,0,0,1,0,.88L5.109,74.2a.622.622,0,0,1-.88,0Z" transform="translate(6.141 -57.327)" fill="#51d868"/>
  </g>
</svg>
