<svg width="30" height="31" viewBox="0 0 30 31" fill="none" xmlns="http://www.w3.org/2000/svg">
<path opacity="0.7" d="M15 30.5C23.2843 30.5 30 23.7843 30 15.5C30 7.21573 23.2843 0.5 15 0.5C6.71573 0.5 0 7.21573 0 15.5C0 23.7843 6.71573 30.5 15 30.5Z" fill="#D9EEFF"/>
<path d="M10.891 15.437C11.5894 15.437 12.272 15.2299 12.8527 14.8419C13.4334 14.4539 13.886 13.9025 14.1532 13.2573C14.4205 12.6121 14.4904 11.9021 14.3541 11.2171C14.2179 10.5322 13.8816 9.90303 13.3878 9.40921C12.894 8.91539 12.2648 8.57909 11.5799 8.44285C10.8949 8.30661 10.1849 8.37653 9.53974 8.64378C8.89454 8.91103 8.34307 9.36361 7.95508 9.94428C7.56709 10.525 7.36 11.2076 7.36 11.906C7.35973 12.3698 7.45089 12.829 7.62824 13.2576C7.8056 13.6861 8.06568 14.0754 8.39362 14.4034C8.72155 14.7313 9.11091 14.9914 9.53943 15.1688C9.96795 15.3461 10.4272 15.4373 10.891 15.437ZM13.312 16.446H13.051C12.3795 16.7778 11.6405 16.9504 10.8915 16.9504C10.1425 16.9504 9.40352 16.7778 8.732 16.446H8.47C7.50733 16.4463 6.58413 16.8286 5.90314 17.509C5.22215 18.1894 4.83906 19.1123 4.838 20.075V20.983C4.83826 21.3842 4.99775 21.7689 5.28144 22.0526C5.56512 22.3362 5.94981 22.4957 6.351 22.496H15.431C15.8322 22.4957 16.2169 22.3362 16.5006 22.0526C16.7842 21.7689 16.9437 21.3842 16.944 20.983V20.075C16.9429 19.1125 16.56 18.1898 15.8792 17.5094C15.1984 16.829 14.2755 16.4465 13.313 16.446H13.312ZM19.971 15.437C20.5697 15.437 21.1549 15.2595 21.6527 14.9269C22.1505 14.5942 22.5385 14.1215 22.7676 13.5684C22.9967 13.0153 23.0566 12.4066 22.9398 11.8195C22.823 11.2323 22.5347 10.6929 22.1114 10.2696C21.6881 9.84626 21.1487 9.55796 20.5615 9.44116C19.9744 9.32437 19.3657 9.38431 18.8126 9.61342C18.2595 9.84252 17.7867 10.2305 17.4541 10.7283C17.1215 11.2261 16.944 11.8113 16.944 12.41C16.9443 13.2129 17.2634 13.9828 17.8312 14.5505C18.3991 15.1181 19.1681 15.437 19.971 15.437ZM21.484 16.446H21.364C20.4654 16.7823 19.4756 16.7823 18.577 16.446H18.457C17.839 16.4501 17.2332 16.6178 16.701 16.932C17.5016 17.7832 17.9494 18.9065 17.954 20.075V21.286C17.954 21.355 17.938 21.422 17.935 21.486H23.503C23.9038 21.4857 24.2882 21.3265 24.5719 21.0433C24.8555 20.76 25.0152 20.3758 25.016 19.975C25.016 19.5114 24.9247 19.0523 24.7472 18.624C24.5697 18.1958 24.3096 17.8066 23.9817 17.4789C23.6538 17.1512 23.2645 16.8913 22.8361 16.7141C22.4077 16.5368 21.9476 16.4457 21.484 16.446Z" fill="#2680EB"/>
<mask id="mask0_2017_84" style="mask-type:luminance" maskUnits="userSpaceOnUse" x="4" y="8" width="22" height="15">
<path d="M10.891 15.437C11.5894 15.437 12.272 15.2299 12.8527 14.8419C13.4334 14.4539 13.886 13.9025 14.1532 13.2573C14.4205 12.6121 14.4904 11.9021 14.3541 11.2171C14.2179 10.5322 13.8816 9.90303 13.3878 9.40921C12.894 8.91539 12.2648 8.57909 11.5799 8.44285C10.8949 8.30661 10.1849 8.37653 9.53974 8.64378C8.89454 8.91103 8.34307 9.36361 7.95508 9.94428C7.56709 10.525 7.36 11.2076 7.36 11.906C7.35973 12.3698 7.45089 12.829 7.62824 13.2576C7.8056 13.6861 8.06568 14.0754 8.39362 14.4034C8.72155 14.7313 9.11091 14.9914 9.53943 15.1688C9.96795 15.3461 10.4272 15.4373 10.891 15.437ZM13.312 16.446H13.051C12.3795 16.7778 11.6405 16.9504 10.8915 16.9504C10.1425 16.9504 9.40352 16.7778 8.732 16.446H8.47C7.50733 16.4463 6.58413 16.8286 5.90314 17.509C5.22215 18.1894 4.83906 19.1123 4.838 20.075V20.983C4.83826 21.3842 4.99775 21.7689 5.28144 22.0526C5.56512 22.3362 5.94981 22.4957 6.351 22.496H15.431C15.8322 22.4957 16.2169 22.3362 16.5006 22.0526C16.7842 21.7689 16.9437 21.3842 16.944 20.983V20.075C16.9429 19.1125 16.56 18.1898 15.8792 17.5094C15.1984 16.829 14.2755 16.4465 13.313 16.446H13.312ZM19.971 15.437C20.5697 15.437 21.1549 15.2595 21.6527 14.9269C22.1505 14.5942 22.5385 14.1215 22.7676 13.5684C22.9967 13.0153 23.0566 12.4066 22.9398 11.8195C22.823 11.2323 22.5347 10.6929 22.1114 10.2696C21.6881 9.84626 21.1487 9.55796 20.5615 9.44116C19.9744 9.32437 19.3657 9.38431 18.8126 9.61342C18.2595 9.84252 17.7867 10.2305 17.4541 10.7283C17.1215 11.2261 16.944 11.8113 16.944 12.41C16.9443 13.2129 17.2634 13.9828 17.8312 14.5505C18.3991 15.1181 19.1681 15.437 19.971 15.437ZM21.484 16.446H21.364C20.4654 16.7823 19.4756 16.7823 18.577 16.446H18.457C17.839 16.4501 17.2332 16.6178 16.701 16.932C17.5016 17.7832 17.9494 18.9065 17.954 20.075V21.286C17.954 21.355 17.938 21.422 17.935 21.486H23.503C23.9038 21.4857 24.2882 21.3265 24.5719 21.0433C24.8555 20.76 25.0152 20.3758 25.016 19.975C25.016 19.5114 24.9247 19.0523 24.7472 18.624C24.5697 18.1958 24.3096 17.8066 23.9817 17.4789C23.6538 17.1512 23.2645 16.8913 22.8361 16.7141C22.4077 16.5368 21.9476 16.4457 21.484 16.446Z" fill="white"/>
</mask>
<g mask="url(#mask0_2017_84)">
<path opacity="0.5" d="M5.896 22.5C14.0925 22.5 20.737 15.8554 20.737 7.65899C20.737 -0.537465 14.0925 -7.18201 5.896 -7.18201C-2.30046 -7.18201 -8.945 -0.537465 -8.945 7.65899C-8.945 15.8554 -2.30046 22.5 5.896 22.5Z" fill="#6BB1FE"/>
</g>
</svg>
