<svg xmlns="http://www.w3.org/2000/svg" xmlns:xlink="http://www.w3.org/1999/xlink" width="30" height="30" viewBox="0 0 30 30">
  <defs>
    <clipPath id="clip-path">
      <path id="Path_37334" data-name="Path 37334" d="M15.4,12.373V.825A.823.823,0,0,0,14.572,0H3.3A3.3,3.3,0,0,0,0,3.3v11a3.3,3.3,0,0,0,3.3,3.3H14.572a.823.823,0,0,0,.825-.825v-.55a.831.831,0,0,0-.306-.643,7.664,7.664,0,0,1,0-2.567.819.819,0,0,0,.306-.639ZM4.4,4.605A.207.207,0,0,1,4.605,4.4h7.286a.207.207,0,0,1,.206.206v.687a.207.207,0,0,1-.206.206H4.605A.207.207,0,0,1,4.4,5.293Zm0,2.2A.207.207,0,0,1,4.605,6.6h7.286A.207.207,0,0,1,12.1,6.8v.687a.207.207,0,0,1-.206.206H4.605A.207.207,0,0,1,4.4,7.492ZM13.108,15.4H3.3a1.1,1.1,0,0,1,0-2.2h9.809A12.373,12.373,0,0,0,13.108,15.4Z" transform="translate(0)" fill="#2680eb"/>
    </clipPath>
  </defs>
  <g id="Group_5361" data-name="Group 5361" transform="translate(0.402 0.402)">
    <circle id="Ellipse_84" data-name="Ellipse 84" cx="15" cy="15" r="15" transform="translate(-0.402 -0.402)" fill="#d9eeff" opacity="0.4"/>
    <path id="Path_212" data-name="Path 212" d="M15.4,12.373V.825A.823.823,0,0,0,14.572,0H3.3A3.3,3.3,0,0,0,0,3.3v11a3.3,3.3,0,0,0,3.3,3.3H14.572a.823.823,0,0,0,.825-.825v-.55a.831.831,0,0,0-.306-.643,7.664,7.664,0,0,1,0-2.567.819.819,0,0,0,.306-.639ZM4.4,4.605A.207.207,0,0,1,4.605,4.4h7.286a.207.207,0,0,1,.206.206v.687a.207.207,0,0,1-.206.206H4.605A.207.207,0,0,1,4.4,5.293Zm0,2.2A.207.207,0,0,1,4.605,6.6h7.286A.207.207,0,0,1,12.1,6.8v.687a.207.207,0,0,1-.206.206H4.605A.207.207,0,0,1,4.4,7.492ZM13.108,15.4H3.3a1.1,1.1,0,0,1,0-2.2h9.809A12.373,12.373,0,0,0,13.108,15.4Z" transform="translate(6.61 5.8)" fill="#2680eb"/>
    <g id="Mask_Group_1523" data-name="Mask Group 1523" transform="translate(6.61 5.8)" clip-path="url(#clip-path)">
      <ellipse id="Ellipse_628" data-name="Ellipse 628" cx="8.418" cy="8.418" rx="8.418" ry="8.418" transform="translate(-8.418 -4.399)" fill="#6bb1fe" opacity="0.5"/>
    </g>
  </g>
</svg>
