<svg id="icon-bukti-keterangan" xmlns="http://www.w3.org/2000/svg" width="48" height="48" viewBox="0 0 48 48">
  <circle id="Ellipse_56" data-name="Ellipse 56" cx="24" cy="24" r="24" fill="#fff" opacity="0.3"/>
  <path id="Path_170" data-name="Path 170" d="M12.833,7.792V0H1.375A1.372,1.372,0,0,0,0,1.375V27.958a1.372,1.372,0,0,0,1.375,1.375h19.25A1.372,1.372,0,0,0,22,27.958V9.167H14.208A1.379,1.379,0,0,1,12.833,7.792ZM22,6.984v.349H14.667V0h.349a1.374,1.374,0,0,1,.974.4L21.6,6.016A1.371,1.371,0,0,1,22,6.984Z" transform="translate(13 9.833)" fill="#fff"/>
</svg>
