<svg xmlns="http://www.w3.org/2000/svg" width="17.43" height="24" viewBox="0 0 17.43 24">
  <g id="icon-google-maps" transform="translate(-6 -2.23)">
    <path id="Path_38578" data-name="Path 38578" d="M23.28,7.986l0,0c.073.2.141.407.2.615C23.416,8.4,23.353,8.188,23.28,7.986ZM15.091,2.23,8.929,4.783l3.54,3.541a3.7,3.7,0,0,1,5.254,5.218L22.935,8.33l.342-.342A8.7,8.7,0,0,0,15.091,2.23Z" transform="translate(-0.376 0)" fill="#4285f4"/>
    <path id="Path_38579" data-name="Path 38579" d="M14.715,15.019A3.7,3.7,0,0,1,12.093,8.7L8.553,5.159A8.687,8.687,0,0,0,6,11.321c0,3.839,1.974,6.246,4.3,8.715.156.159.285.336.432.5l6.589-6.589A3.69,3.69,0,0,1,14.715,15.019Z" transform="translate(0 -0.376)" fill="#ffba00"/>
    <path id="Path_38580" data-name="Path 38580" d="M14.715,2.23A8.715,8.715,0,0,0,6,10.945a9.666,9.666,0,0,0,.475,3.011l11.2-11.2a8.677,8.677,0,0,0-2.959-.527Z" transform="translate(0 0)" fill="#0066da"/>
    <path id="Path_38581" data-name="Path 38581" d="M16.2,26.513a19.025,19.025,0,0,1,3.514-6.01c2.5-2.536,4.416-4.869,4.416-8.709A8.679,8.679,0,0,0,23.6,8.834L11.426,21.009a15.725,15.725,0,0,1,3.13,5.469.869.869,0,0,0,1.642.035Z" transform="translate(-0.697 -0.849)" fill="#00ac47"/>
    <path id="Path_38582" data-name="Path 38582" d="M10.3,20.332c.156.159.285.336.432.5h0C10.588,20.668,10.458,20.492,10.3,20.332ZM7.059,7.464A8.659,8.659,0,0,0,6.4,9.026a8.665,8.665,0,0,1,.66-1.562ZM6.4,9.026a8.673,8.673,0,0,0-.347,1.7,8.674,8.674,0,0,1,.347-1.7Z" transform="translate(-0.007 -0.673)" fill="#0066da" opacity="0.5"/>
    <path id="Path_38583" data-name="Path 38583" d="M14.98,28.673a.78.78,0,0,0,.058.056A.747.747,0,0,1,14.98,28.673Zm.516.3.035.006Zm-1.887-3.326c-.032-.058-.059-.12-.092-.178C13.548,25.527,13.576,25.589,13.608,25.648ZM14.824,28.4q-.267-.787-.6-1.531C14.443,27.362,14.646,27.87,14.824,28.4Zm.444.5c-.02-.01-.04-.018-.06-.029C15.228,28.88,15.248,28.888,15.268,28.9Zm3.647-5.145c-.217.3-.408.621-.6.936C18.507,24.373,18.7,24.056,18.915,23.753Z" transform="translate(-0.966 -2.766)" fill="#fff"/>
    <path id="Path_38584" data-name="Path 38584" d="M23.322,19.553Z" transform="translate(-2.226 -2.226)" fill="#fff"/>
    <path id="Path_38585" data-name="Path 38585" d="M17.047,28.335h0q.306-.773.659-1.519C17.469,27.312,17.251,27.82,17.047,28.335Zm1.423-2.977c-.251.432-.479.877-.7,1.328C17.991,26.235,18.22,25.791,18.47,25.358Z" transform="translate(-1.42 -2.972)" fill="#fff"/>
    <path id="Path_38586" data-name="Path 38586" d="M8.553,5.159A8.687,8.687,0,0,0,6,11.321a9.666,9.666,0,0,0,.475,3.011L12.1,8.707Z" transform="translate(0 -0.376)" fill="#ea4435"/>
  </g>
</svg>
