<svg id="Group_5670" data-name="Group 5670" xmlns="http://www.w3.org/2000/svg" xmlns:xlink="http://www.w3.org/1999/xlink" width="24" height="24" viewBox="0 0 24 24">
  <defs>
    <clipPath id="clip-path">
      <path id="Path_257" data-name="Path 257" d="M2.236,1.491H12.673v8.2h1.491V.932A.933.933,0,0,0,13.232,0H1.677A.933.933,0,0,0,.745.932V9.691H2.236Zm12.3,8.945H11.182V8.945H6.709v1.491H.373A.373.373,0,0,0,0,10.809v.745a.373.373,0,0,0,.373.373H14.536a.373.373,0,0,0,.373-.373v-.745A.373.373,0,0,0,14.536,10.436Z" transform="translate(0 0)" fill="#2680eb"/>
    </clipPath>
  </defs>
  <circle id="Ellipse_1" data-name="Ellipse 1" cx="12" cy="12" r="12" fill="#eef5ff"/>
  <path id="Path_252" data-name="Path 252" d="M2.236,1.491H12.673v8.2h1.491V.932A.933.933,0,0,0,13.232,0H1.677A.933.933,0,0,0,.745.932V9.691H2.236Zm12.3,8.945H11.182V8.945H6.709v1.491H.373A.373.373,0,0,0,0,10.809v.745a.373.373,0,0,0,.373.373H14.536a.373.373,0,0,0,.373-.373v-.745A.373.373,0,0,0,14.536,10.436Z" transform="translate(4.376 5.993)" fill="#2680eb"/>
  <g id="Mask_Group_3" data-name="Mask Group 3" transform="translate(4.376 5.993)" clip-path="url(#clip-path)">
    <circle id="Ellipse_84" data-name="Ellipse 84" cx="13" cy="13" r="13" transform="translate(-16.376 -11.993)" fill="#6bb1fe" opacity="0.5"/>
  </g>
</svg>
