<svg xmlns="http://www.w3.org/2000/svg" width="48" height="48" viewBox="0 0 48 48">
  <g id="icon-tugas-warning" transform="translate(-35 6.5)">
    <path id="Path_238" data-name="Path 238" d="M24,0A24,24,0,1,1,0,24,24,24,0,0,1,24,0Z" transform="translate(35 -6.5)" fill="#fc544b"/>
    <path id="Exclusion_1" data-name="Exclusion 1" d="M23108.492,23374.2h-16.707a2.787,2.787,0,0,1-2.787-2.781V23351a2.789,2.789,0,0,1,2.787-2.785h4.641a3.713,3.713,0,1,1,7.426,0h4.641a2.789,2.789,0,0,1,2.785,2.785v20.42A2.787,2.787,0,0,1,23108.492,23374.2Zm-10.035-5.512v0a2.512,2.512,0,1,0-.348-1.277,2.488,2.488,0,0,0,.246,1.086h-.457a.7.7,0,0,0,.486.191c.025,0,.049,0,.072,0Zm.7-14.832a.745.745,0,0,0-.75.791l.422,8.535a.763.763,0,0,0,.758.717h2.082a.75.75,0,0,0,.75-.717l.428-8.535a.749.749,0,0,0-.75-.791Zm.986-7.039a1.393,1.393,0,1,0,1.391,1.4A1.4,1.4,0,0,0,23100.139,23346.816Zm-1.684,21.871-.025-.047c-.025-.047-.051-.092-.074-.143h.51a.659.659,0,0,1-.408.189h0Z" transform="translate(-23041 -23342)" fill="#fff" stroke="rgba(0,0,0,0)" stroke-miterlimit="10" stroke-width="1"/>
  </g>
</svg>
