<svg xmlns="http://www.w3.org/2000/svg" xmlns:xlink="http://www.w3.org/1999/xlink" width="50" height="50" viewBox="0 0 50 50">
  <defs>
    <clipPath id="clip-path">
      <path id="Path_251" data-name="Path 251" d="M22.127,6.035a6.035,6.035,0,1,0-6.035,6.035A6.035,6.035,0,0,0,22.127,6.035Zm-7.443,9.121c-3.73-2.283-9.771-2.911-12.81-3.083A1.739,1.739,0,0,0,0,13.776V27.781a1.729,1.729,0,0,0,1.665,1.7c2.745.144,8.3.671,12.135,2.6a.875.875,0,0,0,1.287-.746V15.876a.836.836,0,0,0-.4-.72Zm15.628-3.083c-3.039.172-9.081.8-12.81,3.083a.852.852,0,0,0-.4.731V31.338a.878.878,0,0,0,1.291.748c3.837-1.931,9.386-2.459,12.13-2.6a1.73,1.73,0,0,0,1.665-1.7V13.776A1.74,1.74,0,0,0,30.312,12.073Z" transform="translate(0 0)" fill="#2680eb"/>
    </clipPath>
  </defs>
  <g id="icon-ubah-password-siswa" transform="translate(-235 -276)">
    <circle id="Ellipse_1" data-name="Ellipse 1" cx="25" cy="25" r="25" transform="translate(235 276)" fill="#d9eeff" opacity="0.4"/>
    <path id="Path_258" data-name="Path 258" d="M22.127,6.035a6.035,6.035,0,1,0-6.035,6.035A6.035,6.035,0,0,0,22.127,6.035Zm-7.443,9.121c-3.73-2.283-9.771-2.911-12.81-3.083A1.739,1.739,0,0,0,0,13.776V27.781a1.729,1.729,0,0,0,1.665,1.7c2.745.144,8.3.671,12.135,2.6a.875.875,0,0,0,1.287-.746V15.876a.836.836,0,0,0-.4-.72Zm15.628-3.083c-3.039.172-9.081.8-12.81,3.083a.852.852,0,0,0-.4.731V31.338a.878.878,0,0,0,1.291.748c3.837-1.931,9.386-2.459,12.13-2.6a1.73,1.73,0,0,0,1.665-1.7V13.776A1.74,1.74,0,0,0,30.312,12.073Z" transform="translate(243.527 284.527)" fill="#2680eb"/>
    <g id="Mask_Group_5" data-name="Mask Group 5" transform="translate(243.527 284.527)" clip-path="url(#clip-path)">
      <ellipse id="Ellipse_86" data-name="Ellipse 86" cx="29.5" cy="29" rx="29.5" ry="29" transform="translate(-42.527 -26.527)" fill="#6bb1fe" opacity="0.5"/>
    </g>
  </g>
</svg>
