<svg id="icon-side-nav-jurusan" xmlns="http://www.w3.org/2000/svg" xmlns:xlink="http://www.w3.org/1999/xlink" width="30" height="30" viewBox="0 0 30 30">
  <defs>
    <clipPath id="clip-path">
      <path id="tools-solid" d="M14.843,11.76l-3.48-3.48a2.207,2.207,0,0,0-2.538-.413L5.657,4.7V2.853L1.853,0l-1.9,1.9L2.8,5.706H4.65L7.818,8.874a2.211,2.211,0,0,0,.413,2.538l3.48,3.48a1.1,1.1,0,0,0,1.566,0l1.566-1.566a1.11,1.11,0,0,0,0-1.566ZM9.809,6.687a3.127,3.127,0,0,1,2.226.921l.577.577a4.207,4.207,0,0,0,1.3-.877A4.274,4.274,0,0,0,15.04,3.245a.356.356,0,0,0-.6-.163L12.231,5.293l-2.018-.336L9.877,2.939,12.089.728a.359.359,0,0,0-.169-.6A4.281,4.281,0,0,0,7.86,1.254,4.211,4.211,0,0,0,6.635,4.333l2.44,2.44a3.238,3.238,0,0,1,.734-.086ZM6.721,9.124,5.036,7.439.507,11.971A1.9,1.9,0,0,0,3.2,14.66L6.87,10.987a3.191,3.191,0,0,1-.149-1.863Zm-4.868,4.9a.713.713,0,1,1,.713-.713A.715.715,0,0,1,1.853,14.027Z" transform="translate(0.05)" fill="#2680eb"/>
    </clipPath>
  </defs>
  <circle id="Ellipse_302" data-name="Ellipse 302" cx="15" cy="15" r="15" fill="#d9eeff" opacity="0.4"/>
  <g id="Group_4316" data-name="Group 4316" transform="translate(7.392 7.782)">
    <path id="tools-solid-2" data-name="tools-solid" d="M14.843,11.76l-3.48-3.48a2.207,2.207,0,0,0-2.538-.413L5.657,4.7V2.853L1.853,0l-1.9,1.9L2.8,5.706H4.65L7.818,8.874a2.211,2.211,0,0,0,.413,2.538l3.48,3.48a1.1,1.1,0,0,0,1.566,0l1.566-1.566a1.11,1.11,0,0,0,0-1.566ZM9.809,6.687a3.127,3.127,0,0,1,2.226.921l.577.577a4.207,4.207,0,0,0,1.3-.877A4.274,4.274,0,0,0,15.04,3.245a.356.356,0,0,0-.6-.163L12.231,5.293l-2.018-.336L9.877,2.939,12.089.728a.359.359,0,0,0-.169-.6A4.281,4.281,0,0,0,7.86,1.254,4.211,4.211,0,0,0,6.635,4.333l2.44,2.44a3.238,3.238,0,0,1,.734-.086ZM6.721,9.124,5.036,7.439.507,11.971A1.9,1.9,0,0,0,3.2,14.66L6.87,10.987a3.191,3.191,0,0,1-.149-1.863Zm-4.868,4.9a.713.713,0,1,1,.713-.713A.715.715,0,0,1,1.853,14.027Z" transform="translate(0.05)" fill="#2680eb"/>
    <g id="Mask_Group_1527" data-name="Mask Group 1527" transform="translate(0)" clip-path="url(#clip-path)">
      <circle id="Ellipse_677" data-name="Ellipse 677" cx="17.142" cy="17.142" r="17.142" transform="translate(-25.081 -14.736)" fill="#6bb1fe" opacity="0.5"/>
    </g>
  </g>
</svg>
