<svg id="icon-kembalikan-tugas" xmlns="http://www.w3.org/2000/svg" width="48" height="48" viewBox="0 0 48 48">
  <circle id="Ellipse_56" data-name="Ellipse 56" cx="24" cy="24" r="24" fill="#2680eb" opacity="0.1"/>
  <path id="Path_166" data-name="Path 166" d="M.319,38.051l6.747-5.826a.921.921,0,0,1,1.521.7V35.99c6.158.071,11.041,1.3,11.041,7.14a7.837,7.837,0,0,1-3.195,5.909.683.683,0,0,1-1.076-.714c1.738-5.559-.824-7.035-6.77-7.121v3.37a.921.921,0,0,1-1.521.7L.319,39.443A.92.92,0,0,1,.319,38.051Z" transform="translate(14.186 -17)" fill="#3a4166"/>
</svg>
