<svg xmlns="http://www.w3.org/2000/svg" width="19" height="19" viewBox="0 0 19 19">
  <g id="icon-warning" transform="translate(-15 -3.5)">
    <path id="Path_214" data-name="Path 214" d="M19.528,9.525a1.764,1.764,0,1,1-1.764-1.764A1.766,1.766,0,0,1,19.528,9.525ZM16.2.556l.3,6a.529.529,0,0,0,.529.5H18.5a.529.529,0,0,0,.529-.5l.3-6A.529.529,0,0,0,18.8,0H16.733A.529.529,0,0,0,16.2.556Z" transform="translate(6.933 8.108)" fill="#fff"/>
    <g id="Ellipse_79" data-name="Ellipse 79" transform="translate(15 3.5)" fill="none" stroke="#fff" stroke-width="1.5">
      <circle cx="9.5" cy="9.5" r="9.5" stroke="none"/>
      <circle cx="9.5" cy="9.5" r="8.75" fill="none"/>
    </g>
  </g>
</svg>
