<svg xmlns="http://www.w3.org/2000/svg" width="69" height="69" viewBox="0 0 69 69">
  <g id="icon-ujian-ppdb" transform="translate(-164 -140.5)">
    <circle id="Ellipse_307" data-name="Ellipse 307" cx="34.5" cy="34.5" r="34.5" transform="translate(164 140.5)" fill="#2680eb"/>
    <path id="Subtraction_59" data-name="Subtraction 59" d="M24.574,40.043H1.638a1.531,1.531,0,0,1-1.16-.548A2.012,2.012,0,0,1,0,38.166V1.877A2.015,2.015,0,0,1,.478.549,1.532,1.532,0,0,1,1.638,0H15.292V10.636a1.772,1.772,0,0,0,1.638,1.877h9.284V29.222l-5.772,4.759-.761,3.538a.767.767,0,0,0,.149.639.73.73,0,0,0,.576.281h.006l3.555-.018,2.247-1.853v1.6a2.005,2.005,0,0,1-.48,1.328A1.53,1.53,0,0,1,24.574,40.043ZM5.152,29.745a1,1,0,0,0-1,1v.288a1,1,0,0,0,1,1H15.494a1,1,0,0,0,1-1v-.288a1,1,0,0,0-1-1Zm0-4.577a1,1,0,0,0-1,1v.288a1,1,0,0,0,1,1H21.1a1,1,0,0,0,1-1v-.288a1,1,0,0,0-1-1Zm0-4.577a1,1,0,0,0-1,1v.288a1,1,0,0,0,1,1H21.1a1,1,0,0,0,1-1V21.59a1,1,0,0,0-1-1Zm0-4.574a1,1,0,0,0-1,1V17.3a1,1,0,0,0,1,1H21.1a1,1,0,0,0,1-1v-.288a1,1,0,0,0-1-1ZM21.505,37.378h0a.458.458,0,0,1-.357-.172.478.478,0,0,1-.1-.4l.475-2.211,5.9-4.873,2.2,2.772-5.9,4.874Zm8.6-5.282h0l-2.2-2.771,1.2-.992a.915.915,0,0,1,1.3.14l1.034,1.3a.96.96,0,0,1-.138,1.33l-1.2.991ZM26.213,10.01H17.476V0h.416a1.531,1.531,0,0,1,1.159.546l6.685,7.664a2.015,2.015,0,0,1,.477,1.323v.475Z" transform="translate(185.674 154.979)" fill="#fff"/>
  </g>
</svg>
