<svg id="icon-data-sekolah" xmlns="http://www.w3.org/2000/svg" width="86" height="86" viewBox="0 0 86 86">
  <path id="Path_38567" data-name="Path 38567" d="M43,0A43,43,0,1,1,0,43,43,43,0,0,1,43,0Z" fill="#2680eb"/>
  <path id="database-solid" d="M36.047,5.885V9.563c0,3.241-8.073,5.885-18.023,5.885S0,12.8,0,9.563V5.885C0,2.644,8.073,0,18.023,0S36.047,2.644,36.047,5.885Zm0,8.276v8.276c0,3.241-8.073,5.885-18.023,5.885S0,25.679,0,22.437V14.161c3.872,2.667,10.96,3.908,18.023,3.908S32.175,16.828,36.047,14.161Zm0,12.874v8.276c0,3.241-8.073,5.885-18.023,5.885S0,38.553,0,35.311V27.035c3.872,2.667,10.96,3.908,18.023,3.908S32.175,29.7,36.047,27.035Z" transform="translate(24.977 22.402)" fill="#fff"/>
</svg>
