<svg xmlns="http://www.w3.org/2000/svg" xmlns:xlink="http://www.w3.org/1999/xlink" width="50" height="50" viewBox="0 0 50 50">
  <defs>
    <clipPath id="clip-path">
      <path id="Path_268" data-name="Path 268" d="M31.222,9.732H24.329V1.216A1.216,1.216,0,0,0,23.112,0h-7.3A1.216,1.216,0,0,0,14.6,1.216V4.866H11.353V.811A.811.811,0,0,0,10.542,0H9.732a.811.811,0,0,0-.811.811V4.866H5.677V.811A.811.811,0,0,0,4.866,0H4.055a.811.811,0,0,0-.811.811V4.866H1.216A1.216,1.216,0,0,0,0,6.082V24.329a1.622,1.622,0,0,0,1.622,1.622H30.816a1.622,1.622,0,0,0,1.622-1.622V10.948A1.216,1.216,0,0,0,31.222,9.732ZM6.488,20.477a.608.608,0,0,1-.608.608H3.852a.608.608,0,0,1-.608-.608V18.45a.608.608,0,0,1,.608-.608H5.879a.608.608,0,0,1,.608.608Zm0-4.866a.608.608,0,0,1-.608.608H3.852a.608.608,0,0,1-.608-.608V13.584a.608.608,0,0,1,.608-.608H5.879a.608.608,0,0,1,.608.608Zm0-4.866a.608.608,0,0,1-.608.608H3.852a.608.608,0,0,1-.608-.608V8.718a.608.608,0,0,1,.608-.608H5.879a.608.608,0,0,1,.608.608Zm6.488,9.732a.608.608,0,0,1-.608.608H10.34a.608.608,0,0,1-.608-.608V18.45a.608.608,0,0,1,.608-.608h2.027a.608.608,0,0,1,.608.608Zm0-4.866a.608.608,0,0,1-.608.608H10.34a.608.608,0,0,1-.608-.608V13.584a.608.608,0,0,1,.608-.608h2.027a.608.608,0,0,1,.608.608Zm0-4.866a.608.608,0,0,1-.608.608H10.34a.608.608,0,0,1-.608-.608V8.718a.608.608,0,0,1,.608-.608h2.027a.608.608,0,0,1,.608.608Zm8.11,4.866a.608.608,0,0,1-.608.608H18.449a.608.608,0,0,1-.608-.608V13.584a.608.608,0,0,1,.608-.608h2.027a.608.608,0,0,1,.608.608Zm0-4.866a.608.608,0,0,1-.608.608H18.449a.608.608,0,0,1-.608-.608V8.718a.608.608,0,0,1,.608-.608h2.027a.608.608,0,0,1,.608.608Zm0-4.866a.608.608,0,0,1-.608.608H18.449a.608.608,0,0,1-.608-.608V3.852a.608.608,0,0,1,.608-.608h2.027a.608.608,0,0,1,.608.608Zm8.11,14.6a.608.608,0,0,1-.608.608H26.559a.608.608,0,0,1-.608-.608V18.45a.608.608,0,0,1,.608-.608h2.027a.608.608,0,0,1,.608.608Zm0-4.866a.608.608,0,0,1-.608.608H26.559a.608.608,0,0,1-.608-.608V13.584a.608.608,0,0,1,.608-.608h2.027a.608.608,0,0,1,.608.608Z" transform="translate(0 0)" fill="#2680eb"/>
    </clipPath>
  </defs>
  <g id="icon-role-kewirausahaan" transform="translate(-235 -276)">
    <circle id="Ellipse_1" data-name="Ellipse 1" cx="25" cy="25" r="25" transform="translate(235 276)" fill="#d9eeff"/>
    <path id="Path_255" data-name="Path 255" d="M31.222,9.732H24.329V1.216A1.216,1.216,0,0,0,23.112,0h-7.3A1.216,1.216,0,0,0,14.6,1.216V4.866H11.353V.811A.811.811,0,0,0,10.542,0H9.732a.811.811,0,0,0-.811.811V4.866H5.677V.811A.811.811,0,0,0,4.866,0H4.055a.811.811,0,0,0-.811.811V4.866H1.216A1.216,1.216,0,0,0,0,6.082V24.329a1.622,1.622,0,0,0,1.622,1.622H30.816a1.622,1.622,0,0,0,1.622-1.622V10.948A1.216,1.216,0,0,0,31.222,9.732ZM6.488,20.477a.608.608,0,0,1-.608.608H3.852a.608.608,0,0,1-.608-.608V18.45a.608.608,0,0,1,.608-.608H5.879a.608.608,0,0,1,.608.608Zm0-4.866a.608.608,0,0,1-.608.608H3.852a.608.608,0,0,1-.608-.608V13.584a.608.608,0,0,1,.608-.608H5.879a.608.608,0,0,1,.608.608Zm0-4.866a.608.608,0,0,1-.608.608H3.852a.608.608,0,0,1-.608-.608V8.718a.608.608,0,0,1,.608-.608H5.879a.608.608,0,0,1,.608.608Zm6.488,9.732a.608.608,0,0,1-.608.608H10.34a.608.608,0,0,1-.608-.608V18.45a.608.608,0,0,1,.608-.608h2.027a.608.608,0,0,1,.608.608Zm0-4.866a.608.608,0,0,1-.608.608H10.34a.608.608,0,0,1-.608-.608V13.584a.608.608,0,0,1,.608-.608h2.027a.608.608,0,0,1,.608.608Zm0-4.866a.608.608,0,0,1-.608.608H10.34a.608.608,0,0,1-.608-.608V8.718a.608.608,0,0,1,.608-.608h2.027a.608.608,0,0,1,.608.608Zm8.11,4.866a.608.608,0,0,1-.608.608H18.449a.608.608,0,0,1-.608-.608V13.584a.608.608,0,0,1,.608-.608h2.027a.608.608,0,0,1,.608.608Zm0-4.866a.608.608,0,0,1-.608.608H18.449a.608.608,0,0,1-.608-.608V8.718a.608.608,0,0,1,.608-.608h2.027a.608.608,0,0,1,.608.608Zm0-4.866a.608.608,0,0,1-.608.608H18.449a.608.608,0,0,1-.608-.608V3.852a.608.608,0,0,1,.608-.608h2.027a.608.608,0,0,1,.608.608Zm8.11,14.6a.608.608,0,0,1-.608.608H26.559a.608.608,0,0,1-.608-.608V18.45a.608.608,0,0,1,.608-.608h2.027a.608.608,0,0,1,.608.608Zm0-4.866a.608.608,0,0,1-.608.608H26.559a.608.608,0,0,1-.608-.608V13.584a.608.608,0,0,1,.608-.608h2.027a.608.608,0,0,1,.608.608Z" transform="translate(243.839 288.271)" fill="#2680eb"/>
    <g id="Mask_Group_9" data-name="Mask Group 9" transform="translate(243.839 288.271)" clip-path="url(#clip-path)">
      <circle id="Ellipse_90" data-name="Ellipse 90" cx="30" cy="30" r="30" transform="translate(-35.838 -34.271)" fill="#6bb1fe" opacity="0.5"/>
    </g>
  </g>
</svg>
