<svg xmlns="http://www.w3.org/2000/svg" xmlns:xlink="http://www.w3.org/1999/xlink" width="80" height="80" viewBox="0 0 80 80">
  <defs>
    <clipPath id="clip-path">
      <path id="Path_250" data-name="Path 250" d="M192.449,191.744a1.1,1.1,0,0,0,1.093-1.093v-3.644a1.1,1.1,0,0,0-1.093-1.093h-1.822v-4.372a4.373,4.373,0,0,0-4.372-4.372H157.108a4.373,4.373,0,0,0-4.372,4.372v37.892a4.373,4.373,0,0,0,4.372,4.372h29.147a4.373,4.373,0,0,0,4.372-4.372v-4.372h1.822a1.1,1.1,0,0,0,1.093-1.093v-3.644a1.1,1.1,0,0,0-1.093-1.093h-1.822V203.4h1.822a1.1,1.1,0,0,0,1.093-1.093v-3.643a1.1,1.1,0,0,0-1.093-1.093h-1.822v-5.83Zm-20.767-2.915a5.829,5.829,0,1,1-5.83,5.829A5.835,5.835,0,0,1,171.682,188.829Zm10.2,21.569a1.91,1.91,0,0,1-2.04,1.749H163.521a1.91,1.91,0,0,1-2.04-1.749v-1.749c0-2.9,2.742-5.247,6.121-5.247h.455a9.381,9.381,0,0,0,7.25,0h.455c3.379,0,6.121,2.35,6.121,5.247Z" transform="translate(-152.736 -177.17)" fill="none"/>
    </clipPath>
  </defs>
  <g id="icon-tata-usaha" transform="translate(-111.591 -144.421)">
    <circle id="Ellipse_84" data-name="Ellipse 84" cx="40" cy="40" r="40" transform="translate(111.591 144.421)" fill="#d9eeff" opacity="0.7"/>
    <g id="Group_598" data-name="Group 598" transform="translate(132.187 161.103)">
      <path id="Path_249" data-name="Path 249" d="M192.449,191.744a1.1,1.1,0,0,0,1.093-1.093v-3.644a1.1,1.1,0,0,0-1.093-1.093h-1.822v-4.372a4.373,4.373,0,0,0-4.372-4.372H157.108a4.373,4.373,0,0,0-4.372,4.372v37.892a4.373,4.373,0,0,0,4.372,4.372h29.147a4.373,4.373,0,0,0,4.372-4.372v-4.372h1.822a1.1,1.1,0,0,0,1.093-1.093v-3.644a1.1,1.1,0,0,0-1.093-1.093h-1.822V203.4h1.822a1.1,1.1,0,0,0,1.093-1.093v-3.643a1.1,1.1,0,0,0-1.093-1.093h-1.822v-5.83Zm-20.767-2.915a5.829,5.829,0,1,1-5.83,5.829A5.835,5.835,0,0,1,171.682,188.829Zm10.2,21.569a1.91,1.91,0,0,1-2.04,1.749H163.521a1.91,1.91,0,0,1-2.04-1.749v-1.749c0-2.9,2.742-5.247,6.121-5.247h.455a9.381,9.381,0,0,0,7.25,0h.455c3.379,0,6.121,2.35,6.121,5.247Z" transform="translate(-152.736 -177.17)" fill="#2680eb"/>
      <g id="Group_597" data-name="Group 597">
        <g id="Group_596" data-name="Group 596" clip-path="url(#clip-path)">
          <circle id="Ellipse_85" data-name="Ellipse 85" cx="21.956" cy="21.956" r="21.956" transform="translate(-22.608 -17.029)" fill="#6bb1fe" opacity="0.5"/>
        </g>
      </g>
    </g>
  </g>
</svg>
