<svg xmlns="http://www.w3.org/2000/svg" xmlns:xlink="http://www.w3.org/1999/xlink" width="68" height="68" viewBox="0 0 68 68">
  <defs>
    <clipPath id="clip-path">
      <path id="Union_12" data-name="Union 12" d="M31.018,30.385l-3.28-1.727a.706.706,0,0,0-.436,0l-3.281,1.727a1.446,1.446,0,0,1-.678.176,1.162,1.162,0,0,1-.681-.214,1.255,1.255,0,0,1-.481-1.156l1.251-6.741q-.148-.179-.284-.372a5.88,5.88,0,1,1,8.746,0c-.092.129-.187.253-.288.374l1.085,5.706.149.912a1.273,1.273,0,0,1-.465,1.279,1.167,1.167,0,0,1-.679.214A1.457,1.457,0,0,1,31.018,30.385ZM24.869,18.143a2.651,2.651,0,1,0,2.651-2.651A2.65,2.65,0,0,0,24.869,18.143Zm8.561,8.974-.845-4.452a6.788,6.788,0,1,0-10.218-.1l-.843,4.555H2.2a2.2,2.2,0,0,1-2.2-2.2V2.2A2.2,2.2,0,0,1,2.2,0h33.11a2.2,2.2,0,0,1,2.2,2.2V24.918a2.2,2.2,0,0,1-2.2,2.2ZM4.621,13.558a1.112,1.112,0,0,0,1.112,1.113H16.42a1.114,1.114,0,1,0,0-2.228H5.733A1.115,1.115,0,0,0,4.621,13.558Zm0-6.035A1.112,1.112,0,0,0,5.733,8.634H30.97a1.113,1.113,0,0,0,0-2.227H5.733A1.114,1.114,0,0,0,4.621,7.522Z" transform="translate(0 0)" fill="#2680eb" stroke="rgba(0,0,0,0)" stroke-miterlimit="10" stroke-width="1"/>
    </clipPath>
  </defs>
  <g id="icon-profil-sertifikat" transform="translate(-30 -1605)">
    <circle id="Ellipse_83" data-name="Ellipse 83" cx="34" cy="34" r="34" transform="translate(30 1605)" fill="#d9eeff" opacity="0.7"/>
    <path id="Path_252" data-name="Path 252" d="M442.16,201.513l-24.883-7.792a7,7,0,0,0-4.174,0l-24.884,7.792a2.151,2.151,0,0,0,0,4.145l4.338,1.358a7.246,7.246,0,0,0-1.6,4.264,2.833,2.833,0,0,0-.227,4.82l-2.277,10.445a1.448,1.448,0,0,0,1.393,1.77h5.005a1.448,1.448,0,0,0,1.394-1.77L393.971,216.1a2.826,2.826,0,0,0-.16-4.775,4.307,4.307,0,0,1,1.845-3.338l17.446,5.463a7.006,7.006,0,0,0,4.174,0l24.884-7.792a2.152,2.152,0,0,0,0-4.146Zm-24.046,14.719a9.806,9.806,0,0,1-5.851,0l-12.937-4.05L398.062,222.5c0,3.214,7.668,5.819,17.127,5.819s17.128-2.6,17.128-5.819l-1.265-10.316Z" transform="translate(-351.267 1427.965)" fill="none"/>
    <g id="Group_1177" data-name="Group 1177" transform="translate(45.248 1625.72)">
      <path id="Path_428" data-name="Path 428" d="M896.664,217.9l-1.085-5.705c.1-.12.2-.245.287-.374a5.882,5.882,0,1,0-8.745,0c.089.128.185.251.284.371h0l-1.25,6.743a1.247,1.247,0,0,0,.481,1.155,1.155,1.155,0,0,0,.68.215,1.454,1.454,0,0,0,.679-.177l3.279-1.727a.7.7,0,0,1,.436,0l3.279,1.727a1.455,1.455,0,0,0,.68.177,1.152,1.152,0,0,0,.679-.215,1.271,1.271,0,0,0,.466-1.277Zm-5.172-7.359a2.652,2.652,0,1,1,2.651-2.652A2.652,2.652,0,0,1,891.492,210.543Z" transform="translate(-863.973 -189.749)" fill="#2680eb"/>
      <path id="Path_429" data-name="Path 429" d="M625.526,34.62H592.417a2.2,2.2,0,0,0-2.2,2.2v22.72a2.2,2.2,0,0,0,2.2,2.2h19.323l.845-4.554a6.789,6.789,0,1,1,10.218.1l.847,4.452h1.877a2.2,2.2,0,0,0,2.2-2.2V36.818A2.2,2.2,0,0,0,625.526,34.62ZM606.64,49.291H595.953a1.113,1.113,0,1,1,0-2.227H606.64a1.113,1.113,0,1,1,0,2.227Zm14.548-6.037H595.953a1.113,1.113,0,0,1,0-2.227h25.236a1.113,1.113,0,0,1,0,2.227Z" transform="translate(-590.22 -34.62)" fill="#2680eb"/>
    </g>
    <g id="Mask_Group_22" data-name="Mask Group 22" transform="translate(45.248 1625.72)" clip-path="url(#clip-path)">
      <ellipse id="Ellipse_86" data-name="Ellipse 86" cx="16.931" cy="17.257" rx="16.931" ry="17.257" transform="translate(-15.111 -13.211)" fill="#6bb1fe" opacity="0.5"/>
    </g>
  </g>
</svg>
