<svg xmlns="http://www.w3.org/2000/svg" xmlns:xlink="http://www.w3.org/1999/xlink" width="30" height="30" viewBox="0 0 30 30">
  <defs>
    <clipPath id="clip-path">
      <path id="Path_38500" data-name="Path 38500" d="M16.444,13.214V.881A.879.879,0,0,0,15.563,0H3.524A3.525,3.525,0,0,0,0,3.524V15.27a3.525,3.525,0,0,0,3.524,3.524h12.04a.879.879,0,0,0,.881-.881v-.587a.888.888,0,0,0-.327-.686,8.186,8.186,0,0,1,0-2.742.875.875,0,0,0,.327-.683ZM4.7,4.919a.221.221,0,0,1,.22-.22H12.7a.221.221,0,0,1,.22.22v.734a.221.221,0,0,1-.22.22H4.919a.221.221,0,0,1-.22-.22Zm0,2.349a.221.221,0,0,1,.22-.22H12.7a.221.221,0,0,1,.22.22V8a.221.221,0,0,1-.22.22H4.919A.221.221,0,0,1,4.7,8ZM14,16.444H3.524a1.175,1.175,0,0,1,0-2.349H14A13.214,13.214,0,0,0,14,16.444Z" transform="translate(176.973 145)" fill="#2680eb"/>
    </clipPath>
  </defs>
  <g id="icon-side-nav-mapel" transform="translate(-171 -139)">
    <circle id="Ellipse_302" data-name="Ellipse 302" cx="15" cy="15" r="15" transform="translate(171 139)" fill="#d9eeff" opacity="0.4"/>
    <path id="Path_38499" data-name="Path 38499" d="M16.444,13.214V.881A.879.879,0,0,0,15.563,0H3.524A3.525,3.525,0,0,0,0,3.524V15.27a3.525,3.525,0,0,0,3.524,3.524h12.04a.879.879,0,0,0,.881-.881v-.587a.888.888,0,0,0-.327-.686,8.186,8.186,0,0,1,0-2.742.875.875,0,0,0,.327-.683ZM4.7,4.919a.221.221,0,0,1,.22-.22H12.7a.221.221,0,0,1,.22.22v.734a.221.221,0,0,1-.22.22H4.919a.221.221,0,0,1-.22-.22Zm0,2.349a.221.221,0,0,1,.22-.22H12.7a.221.221,0,0,1,.22.22V8a.221.221,0,0,1-.22.22H4.919A.221.221,0,0,1,4.7,8ZM14,16.444H3.524a1.175,1.175,0,0,1,0-2.349H14A13.214,13.214,0,0,0,14,16.444Z" transform="translate(178 145)" fill="#2680eb"/>
    <g id="Mask_Group_1550" data-name="Mask Group 1550" transform="translate(1.027)" clip-path="url(#clip-path)">
      <ellipse id="Ellipse_688" data-name="Ellipse 688" cx="10.895" cy="10.895" rx="10.895" ry="10.895" transform="translate(165.896 135.273)" fill="#6bb1fe" opacity="0.5"/>
    </g>
  </g>
</svg>
