<svg xmlns="http://www.w3.org/2000/svg" xmlns:xlink="http://www.w3.org/1999/xlink" width="80" height="80" viewBox="0 0 80 80">
  <defs>
    <clipPath id="clip-path">
      <path id="user-solid" d="M17.7,20.226A10.113,10.113,0,1,1,27.81,10.113,10.112,10.112,0,0,1,17.7,20.226Zm-7.079,2.528h1.319a13.753,13.753,0,0,0,11.519,0h1.319A10.621,10.621,0,0,1,35.395,33.372v3.287A3.793,3.793,0,0,1,31.6,40.451H3.792A3.793,3.793,0,0,1,0,36.659V33.372A10.621,10.621,0,0,1,10.618,22.754Z" transform="translate(0 0)" fill="#2680eb"/>
    </clipPath>
  </defs>
  <g id="icon-ppdb" transform="translate(-948 -674)">
    <circle id="Ellipse_84" data-name="Ellipse 84" cx="40" cy="40" r="40" transform="translate(948 674)" fill="#d9eeff" opacity="0.7"/>
    <path id="user-solid-2" data-name="user-solid" d="M17.7,20.226A10.113,10.113,0,1,1,27.81,10.113,10.112,10.112,0,0,1,17.7,20.226Zm-7.079,2.528h1.319a13.753,13.753,0,0,0,11.519,0h1.319A10.621,10.621,0,0,1,35.4,33.373v3.287A3.793,3.793,0,0,1,31.6,40.452H3.792A3.793,3.793,0,0,1,0,36.659V33.373A10.621,10.621,0,0,1,10.619,22.754Z" transform="translate(968.273 692.165)" fill="#2680eb"/>
    <rect id="Rectangle_2705" data-name="Rectangle 2705" width="13.937" height="18.218" rx="2" transform="translate(996.519 717.615)" fill="#e4f3ff"/>
    <path id="Subtraction_81" data-name="Subtraction 81" d="M9.154,14.915H.61a.572.572,0,0,1-.432-.2A.748.748,0,0,1,0,14.215V.7A.748.748,0,0,1,.178.2.572.572,0,0,1,.61,0H5.7V3.962a.66.66,0,0,0,.61.7H9.764v6.223l-2.15,1.772L7.33,13.975a.287.287,0,0,0,.055.238.274.274,0,0,0,.215.1l1.327-.006.837-.69v.595a.751.751,0,0,1-.178.495A.572.572,0,0,1,9.154,14.915ZM1.973,11.079a.426.426,0,1,0,0,.852H5.718a.426.426,0,0,0,0-.852Zm0-1.7a.426.426,0,1,0,0,.852H7.808a.426.426,0,0,0,0-.852Zm0-1.706a.426.426,0,1,0,0,.852H7.808a.426.426,0,0,0,0-.852Zm0-1.7a.426.426,0,1,0,0,.852H7.808a.426.426,0,0,0,0-.852Zm6.038,7.957h0a.17.17,0,0,1-.133-.064.179.179,0,0,1-.036-.151l.177-.823,2.2-1.814.82,1.032-2.2,1.815Zm3.2-1.967h0L10.4,10.922l.447-.37a.341.341,0,0,1,.486.052l.385.485a.357.357,0,0,1-.051.495l-.447.369ZM9.764,3.728H6.51V0h.155A.569.569,0,0,1,7.1.2l2.49,2.855a.752.752,0,0,1,.177.493v.175Z" transform="translate(997.971 719.269)" fill="#2680eb"/>
    <g id="Mask_Group_3840" data-name="Mask Group 3840" transform="translate(968.273 692.166)" clip-path="url(#clip-path)">
      <ellipse id="Ellipse_954" data-name="Ellipse 954" cx="21.18" cy="21.18" rx="21.18" ry="21.18" transform="translate(-14.115 -9.97)" fill="#6bb1fe" opacity="0.5"/>
    </g>
  </g>
</svg>
