<svg xmlns="http://www.w3.org/2000/svg" xmlns:xlink="http://www.w3.org/1999/xlink" width="60" height="60" viewBox="0 0 60 60">
  <defs>
    <clipPath id="clip-path">
      <path id="Union_1" data-name="Union 1" d="M.959,21.657A1.618,1.618,0,0,1,0,20.158V4.011A1.619,1.619,0,0,1,1.641,2.392a1.739,1.739,0,0,1,.527.083,15.443,15.443,0,0,0,4.715.7C13.152,3.173,19.42,0,25.689,0a15.074,15.074,0,0,1,5.924,1.143h0a1.621,1.621,0,0,1,.959,1.5V18.789a1.62,1.62,0,0,1-1.641,1.619,1.731,1.731,0,0,1-.527-.083,15.453,15.453,0,0,0-4.715-.7c-6.269,0-12.537,3.173-18.806,3.173A15.065,15.065,0,0,1,.959,21.657ZM10.06,11.4a6.227,6.227,0,1,0,6.227-6.226A6.227,6.227,0,0,0,10.06,11.4ZM17.1,14.291a.473.473,0,0,1-.16-.368V10.559a.5.5,0,0,1,.151-.381.562.562,0,0,1,.407-.144.585.585,0,0,1,.394.128.485.485,0,0,1,.17.339.923.923,0,0,1,.394-.352,1.352,1.352,0,0,1,1.294.08,1.379,1.379,0,0,1,.493.586,2.025,2.025,0,0,1,.176.865,1.959,1.959,0,0,1-.176.855,1.288,1.288,0,0,1-1.214.765,1.263,1.263,0,0,1-.554-.121.981.981,0,0,1-.394-.327v1.089a.453.453,0,0,1-.154.359.592.592,0,0,1-.4.135A.608.608,0,0,1,17.1,14.291Zm1.121-3.213a.94.94,0,0,0-.16.589.913.913,0,0,0,.16.58.554.554,0,0,0,.461.2.541.541,0,0,0,.452-.2.9.9,0,0,0,.157-.57.968.968,0,0,0-.16-.6.6.6,0,0,0-.91,0ZM15.55,13.238a.64.64,0,0,1-.231-.211l-.833-1.217a.657.657,0,0,0-.189-.189.437.437,0,0,0-.234-.061h-.417v1.147a.582.582,0,0,1-.154.426.564.564,0,0,1-.423.157.542.542,0,0,1-.583-.583V9.278a.492.492,0,0,1,.545-.545H14.64a1.848,1.848,0,0,1,1.233.356,1.282,1.282,0,0,1,.413,1.028,1.353,1.353,0,0,1-.282.868,1.382,1.382,0,0,1-.795.477.87.87,0,0,1,.368.141,1.315,1.315,0,0,1,.311.327l.4.57a.6.6,0,0,1,.115.327.424.424,0,0,1-.17.343.607.607,0,0,1-.394.138A.614.614,0,0,1,15.55,13.238Zm-1.916-2.563h.82a.988.988,0,0,0,.561-.122.455.455,0,0,0,.17-.4.472.472,0,0,0-.17-.407.968.968,0,0,0-.561-.125h-.82Z" transform="translate(0 0)" fill="#2680eb" stroke="rgba(0,0,0,0)" stroke-miterlimit="10" stroke-width="1"/>
    </clipPath>
  </defs>
  <g id="icon-program-istd" transform="translate(-169 -548)">
    <circle id="Ellipse_386" data-name="Ellipse 386" cx="30" cy="30" r="30" transform="translate(169 548)" fill="#d9eeff" opacity="0.4"/>
    <g id="Group_6893" data-name="Group 6893" transform="translate(2 -675)">
      <g id="Group_6779" data-name="Group 6779" transform="translate(179.352 1242.545)">
        <path id="Subtraction_85" data-name="Subtraction 85" d="M6.887,22.8A15.046,15.046,0,0,1,.961,21.656,1.624,1.624,0,0,1,0,20.158V4.008A1.615,1.615,0,0,1,1.643,2.389a1.885,1.885,0,0,1,.523.08,15.3,15.3,0,0,0,4.721.7,39.229,39.229,0,0,0,9.4-1.582l0,0A39.15,39.15,0,0,1,25.691,0a15.075,15.075,0,0,1,5.922,1.139,1.631,1.631,0,0,1,.963,1.5v11.09a5.366,5.366,0,0,0-5.357,5.357,5.426,5.426,0,0,0,.035.605c-.514-.047-1.039-.068-1.562-.068a39.058,39.058,0,0,0-9.4,1.586A39.077,39.077,0,0,1,6.887,22.8Zm9.4-17.627a6.229,6.229,0,1,0,6.23,6.23A6.235,6.235,0,0,0,16.287,5.17Zm1.24,9.264a.61.61,0,0,1-.43-.146.489.489,0,0,1-.158-.365V10.555a.5.5,0,0,1,.152-.379.577.577,0,0,1,.406-.146.59.59,0,0,1,.395.131.461.461,0,0,1,.17.338.926.926,0,0,1,.395-.348,1.184,1.184,0,0,1,.576-.131,1.244,1.244,0,0,1,.717.209,1.351,1.351,0,0,1,.494.586,1.981,1.981,0,0,1,.174.861,1.945,1.945,0,0,1-.174.859,1.365,1.365,0,0,1-.49.568,1.344,1.344,0,0,1-.721.2,1.309,1.309,0,0,1-.559-.123.987.987,0,0,1-.4-.328v1.088a.457.457,0,0,1-.152.363A.581.581,0,0,1,17.527,14.434Zm1.148-3.562a.55.55,0,0,0-.455.2.972.972,0,0,0-.158.592.939.939,0,0,0,.158.58.553.553,0,0,0,.461.2.517.517,0,0,0,.451-.2.879.879,0,0,0,.158-.57.975.975,0,0,0-.158-.6A.549.549,0,0,0,18.676,10.871ZM15.84,13.307a.556.556,0,0,1-.287-.074.636.636,0,0,1-.232-.207l-.834-1.219a.628.628,0,0,0-.191-.186.376.376,0,0,0-.23-.062h-.418V12.7a.587.587,0,0,1-.152.43.575.575,0,0,1-.422.152.53.53,0,0,1-.582-.582V9.273a.487.487,0,0,1,.543-.545h1.605a1.85,1.85,0,0,1,1.236.361,1.274,1.274,0,0,1,.412,1.025,1.322,1.322,0,0,1-.283.869,1.379,1.379,0,0,1-.795.473.882.882,0,0,1,.371.146,1.231,1.231,0,0,1,.311.322l.4.574a.576.576,0,0,1,.117.328.434.434,0,0,1-.17.344A.619.619,0,0,1,15.84,13.307Zm-2.2-3.684v1.051h.816a.98.98,0,0,0,.564-.125.453.453,0,0,0,.17-.395.462.462,0,0,0-.17-.406.982.982,0,0,0-.564-.123h-.816Z" transform="translate(0 0.002)" fill="#2680eb" stroke="rgba(0,0,0,0)" stroke-miterlimit="10" stroke-width="1"/>
        <g id="Mask_Group_3" data-name="Mask Group 3" transform="translate(0 0)" clip-path="url(#clip-path)">
          <ellipse id="Ellipse_94" data-name="Ellipse 94" cx="15.8" cy="15.22" rx="15.8" ry="15.22" transform="translate(-15.385 -11.751)" fill="#6bb1fe" opacity="0.5"/>
        </g>
      </g>
      <path id="Subtraction_84" data-name="Subtraction 84" d="M4.072,8.145A4.073,4.073,0,1,1,8.147,4.073,4.077,4.077,0,0,1,4.072,8.145Zm-1.788-4.5a.246.246,0,0,0-.166.063l-.335.3a.2.2,0,0,0,0,.306l1.536,1.4a.251.251,0,0,0,.169.065.245.245,0,0,0,.168-.065l2.717-2.47a.205.205,0,0,0,.07-.154.2.2,0,0,0-.07-.15l-.335-.306a.245.245,0,0,0-.166-.061.249.249,0,0,0-.167.061L3.488,4.654,2.452,3.71A.251.251,0,0,0,2.285,3.647Z" transform="translate(207.853 1257.562)" fill="#2680eb"/>
    </g>
  </g>
</svg>
