<svg xmlns="http://www.w3.org/2000/svg" width="54" height="54" viewBox="0 0 54 54">
  <g id="icon-notif-pembayaran-alert" transform="translate(-163 -629.001)">
    <g id="Group_803" data-name="Group 803" transform="translate(163 629.001)">
      <circle id="Ellipse_53" data-name="Ellipse 53" cx="27" cy="27" r="27" transform="translate(0 0)" fill="#2680eb"/>
    </g>
    <path id="Subtraction_9" data-name="Subtraction 9" d="M24.543,24.719H3.4A3.475,3.475,0,0,1,0,21.184V3.529A3.473,3.473,0,0,1,3.4,0H22.989a2.606,2.606,0,0,1,2.553,2.65.867.867,0,0,1-.853.879H4.256a.882.882,0,0,0,0,1.764H24.543a2.681,2.681,0,0,1,2.7,2.65V22.068A2.681,2.681,0,0,1,24.543,24.719ZM13.617,17.279a1.9,1.9,0,1,0,1.827,1.895A1.864,1.864,0,0,0,13.617,17.279ZM12.55,8.945a.537.537,0,0,0-.4.178A.572.572,0,0,0,12,9.539l.31,6.445a.557.557,0,0,0,.545.539h1.518a.559.559,0,0,0,.549-.539l.31-6.445a.572.572,0,0,0-.149-.416.537.537,0,0,0-.4-.178Z" transform="translate(176.58 643.969)" fill="#fff"/>
  </g>
</svg>
