<svg id="icon-jalur-pendaftaran-ppdb" xmlns="http://www.w3.org/2000/svg" width="86" height="86" viewBox="0 0 86 86">
  <circle id="Ellipse_53" data-name="Ellipse 53" cx="43" cy="43" r="43" fill="#2680eb"/>
  <path id="map-signs-solid" d="M42.686,7.126,39.042,3.481a2.692,2.692,0,0,0-1.9-.788h-12.9V1.346A1.346,1.346,0,0,0,22.887,0H20.2a1.346,1.346,0,0,0-1.346,1.346V2.692H4.714A2.02,2.02,0,0,0,2.695,4.712v6.731a2.02,2.02,0,0,0,2.019,2.019H37.138a2.694,2.694,0,0,0,1.9-.788L42.686,9.03A1.346,1.346,0,0,0,42.686,7.126ZM18.849,41.732A1.346,1.346,0,0,0,20.2,43.078h2.692a1.346,1.346,0,0,0,1.346-1.346V32.309H18.849Zm19.52-22.885H24.234V16.154H18.849v2.692H5.945a2.694,2.694,0,0,0-1.9.788L.4,23.28a1.346,1.346,0,0,0,0,1.9l3.644,3.644a2.692,2.692,0,0,0,1.9.788H38.369A2.02,2.02,0,0,0,40.388,27.6V20.866A2.02,2.02,0,0,0,38.369,18.847Z" transform="translate(21.458 23.255)" fill="#fff"/>
</svg>
