<svg xmlns="http://www.w3.org/2000/svg" xmlns:xlink="http://www.w3.org/1999/xlink" width="54" height="54" viewBox="0 0 54 54">
  <defs>
    <clipPath id="clip-path">
      <path id="Path_348" data-name="Path 348" d="M12.261,28.027a3.5,3.5,0,0,0,3.5-3.5h-7A3.5,3.5,0,0,0,12.261,28.027Zm11.791-8.2c-1.058-1.136-3.036-2.846-3.036-8.446a8.645,8.645,0,0,0-7-8.494V1.752a1.751,1.751,0,1,0-3.5,0V2.893a8.645,8.645,0,0,0-7,8.494c0,5.6-1.979,7.31-3.036,8.446A1.71,1.71,0,0,0,0,21.021a1.753,1.753,0,0,0,1.757,1.752h21.01a1.753,1.753,0,0,0,1.757-1.752A1.709,1.709,0,0,0,24.052,19.832Z" transform="translate(0.001 0)" fill="#2680eb"/>
    </clipPath>
  </defs>
  <g id="icon-notif-bell" transform="translate(-163 -221)">
    <g id="Group_876" data-name="Group 876">
      <circle id="Ellipse_53" data-name="Ellipse 53" cx="27" cy="27" r="27" transform="translate(163 221)" fill="#2680eb"/>
      <path id="Path_342" data-name="Path 342" d="M12.261,28.027a3.5,3.5,0,0,0,3.5-3.5h-7A3.5,3.5,0,0,0,12.261,28.027Zm11.791-8.2c-1.058-1.136-3.036-2.846-3.036-8.446a8.645,8.645,0,0,0-7-8.494V1.752a1.751,1.751,0,1,0-3.5,0V2.893a8.645,8.645,0,0,0-7,8.494c0,5.6-1.979,7.31-3.036,8.446A1.71,1.71,0,0,0,0,21.021a1.753,1.753,0,0,0,1.757,1.752h21.01a1.753,1.753,0,0,0,1.757-1.752A1.709,1.709,0,0,0,24.052,19.832Z" transform="translate(177.876 233.75)" fill="#fff"/>
    </g>
  </g>
</svg>
