<svg xmlns="http://www.w3.org/2000/svg" width="54" height="54" viewBox="0 0 54 54">
  <g id="icon-notif-tugas" transform="translate(-163 -355)">
    <circle id="Ellipse_53" data-name="Ellipse 53" cx="27" cy="27" r="27" transform="translate(163 355)" fill="#2680eb"/>
    <path id="Path_158" data-name="Path 158" d="M20.431,3.892H15.567a3.892,3.892,0,1,0-7.783,0H2.919A2.919,2.919,0,0,0,0,6.81v21.4a2.919,2.919,0,0,0,2.919,2.919H20.431a2.919,2.919,0,0,0,2.919-2.919V6.81A2.919,2.919,0,0,0,20.431,3.892ZM5.837,25.782A1.459,1.459,0,1,1,7.3,24.323,1.456,1.456,0,0,1,5.837,25.782Zm0-5.837A1.459,1.459,0,1,1,7.3,18.485,1.456,1.456,0,0,1,5.837,19.945Zm0-5.837A1.459,1.459,0,1,1,7.3,12.648,1.456,1.456,0,0,1,5.837,14.107ZM11.675,2.432a1.459,1.459,0,1,1-1.459,1.459A1.456,1.456,0,0,1,11.675,2.432Zm7.783,22.377a.488.488,0,0,1-.486.486H10.216a.488.488,0,0,1-.486-.486v-.973a.488.488,0,0,1,.486-.486h8.756a.488.488,0,0,1,.486.486Zm0-5.837a.488.488,0,0,1-.486.486H10.216a.488.488,0,0,1-.486-.486V18a.488.488,0,0,1,.486-.486h8.756a.488.488,0,0,1,.486.486Zm0-5.837a.488.488,0,0,1-.486.486H10.216a.488.488,0,0,1-.486-.486v-.973a.488.488,0,0,1,.486-.486h8.756a.488.488,0,0,1,.486.486Z" transform="translate(178.464 365.055)" fill="#fff"/>
  </g>
</svg>
