<svg xmlns="http://www.w3.org/2000/svg" width="72" height="72" viewBox="0 0 72 72">
  <g id="icon-guru" transform="translate(-234 -1707)">
    <g id="Circle">
      <circle id="Ellipse_9" data-name="Ellipse 9" cx="36" cy="36" r="36" transform="translate(234 1707)" fill="#fff"/>
      <g id="Ellipse_8" data-name="Ellipse 8" transform="translate(237 1710)" fill="none" stroke="#2680eb" stroke-width="1">
        <circle cx="33" cy="33" r="33" stroke="none"/>
        <circle cx="33" cy="33" r="32.5" fill="none"/>
      </g>
    </g>
    <path id="Path_51" data-name="Path 51" d="M13,22a1.43,1.43,0,0,0-.441.068A8.245,8.245,0,0,1,10,22.5a8.252,8.252,0,0,1-2.559-.432A1.426,1.426,0,0,0,7,22a7,7,0,0,0-7,7.039A2.992,2.992,0,0,0,3,32H17a2.992,2.992,0,0,0,3-2.961A7,7,0,0,0,13,22Zm-3-2a6,6,0,1,0-6-6A6,6,0,0,0,10,20ZM37,0H13a3.054,3.054,0,0,0-3,3.1V6a7.909,7.909,0,0,1,4,1.112V4H36V22H32V18H24v4H19.233a7.966,7.966,0,0,1,2.481,4H37a3.054,3.054,0,0,0,3-3.1V3.1A3.054,3.054,0,0,0,37,0Z" transform="translate(250.27 1727.014)" fill="none" stroke="#2680eb" stroke-miterlimit="10" stroke-width="1.5"/>
  </g>
</svg>
