<svg xmlns="http://www.w3.org/2000/svg" width="42" height="42" viewBox="0 0 42 42">
  <g id="icon-list-jadwal-ujian" transform="translate(-1012 -199.5)">
    <circle id="Ellipse_56" data-name="Ellipse 56" cx="21" cy="21" r="21" transform="translate(1012 199.5)" fill="#2680eb"/>
    <path id="Path_326" data-name="Path 326" d="M19.548,7.174H.538A.538.538,0,0,1,0,6.636V5.022A2.152,2.152,0,0,1,2.152,2.869H4.3V.538A.538.538,0,0,1,4.842,0H6.636a.538.538,0,0,1,.538.538V2.869h5.739V.538A.538.538,0,0,1,13.451,0h1.793a.538.538,0,0,1,.538.538V2.869h2.152a2.152,2.152,0,0,1,2.152,2.152V6.636A.538.538,0,0,1,19.548,7.174ZM.538,8.608h19.01a.538.538,0,0,1,.538.538V20.8a2.152,2.152,0,0,1-2.152,2.152H2.152A2.152,2.152,0,0,1,0,20.8V9.146A.538.538,0,0,1,.538,8.608Zm14.943,4.3-1.263-1.273a.538.538,0,0,0-.761,0L8.7,16.35,6.642,14.272a.538.538,0,0,0-.761,0L4.608,15.532a.538.538,0,0,0,0,.761l3.7,3.733a.538.538,0,0,0,.761,0l6.409-6.358a.538.538,0,0,0,0-.761Z" transform="translate(1023 209.5)" fill="#fff"/>
  </g>
</svg>
