<svg xmlns="http://www.w3.org/2000/svg" xmlns:xlink="http://www.w3.org/1999/xlink" width="42.21" height="42.302" viewBox="0 0 42.21 42.302">
  <defs>
    <style>
      .cls-1 {
        fill: #8cbcf6;
        stroke: rgba(0,0,0,0);
        stroke-miterlimit: 10;
      }

      .cls-2 {
        clip-path: url(#clip-path);
      }

      .cls-3 {
        fill: #acd0fb;
      }
    </style>
    <clipPath id="clip-path">
      <path id="Union_62" data-name="Union 62" class="cls-1" d="M3.872,41.3A3.876,3.876,0,0,1,0,37.43V34.074A10.845,10.845,0,0,1,10.842,23.232h1.347A14.039,14.039,0,0,0,23.8,23.3a9.6,9.6,0,0,0-.067,1.132,9.454,9.454,0,0,0,12.381,8.982c.014.223.02.446.02.662V37.43A3.876,3.876,0,0,1,32.267,41.3ZM25.318,24.248a7.946,7.946,0,1,1,7.946,7.946A7.946,7.946,0,0,1,25.318,24.248ZM29.1,28.417a5.9,5.9,0,0,0,7.55.662l-8.212-8.212A5.9,5.9,0,0,0,29.1,28.417Zm.788-9L38.1,27.63a5.9,5.9,0,0,0-8.213-8.212ZM10.768,17.627a10.327,10.327,0,1,1,7.3,3.024A10.26,10.26,0,0,1,10.768,17.627Z" transform="translate(608.654 2257)"/>
    </clipPath>
  </defs>
  <g id="Group_2571" data-name="Group 2571" transform="translate(-608.154 -408.5)">
    <path id="Union_60" data-name="Union 60" class="cls-1" d="M3.872,41.3A3.876,3.876,0,0,1,0,37.43V34.074A10.845,10.845,0,0,1,10.842,23.232h1.347A14.039,14.039,0,0,0,23.8,23.3a9.6,9.6,0,0,0-.067,1.132,9.454,9.454,0,0,0,12.381,8.982c.014.223.02.446.02.662V37.43A3.876,3.876,0,0,1,32.267,41.3ZM25.318,24.248a7.946,7.946,0,1,1,7.946,7.946A7.946,7.946,0,0,1,25.318,24.248ZM29.1,28.417a5.9,5.9,0,0,0,7.55.662l-8.212-8.212A5.9,5.9,0,0,0,29.1,28.417Zm.788-9L38.1,27.63a5.9,5.9,0,0,0-8.213-8.212ZM10.768,17.627a10.327,10.327,0,1,1,7.3,3.024A10.26,10.26,0,0,1,10.768,17.627Z" transform="translate(608.654 409)"/>
    <g id="Mask_Group_1389" data-name="Mask Group 1389" class="cls-2" transform="translate(0 -1848)">
      <circle id="Ellipse_430" data-name="Ellipse 430" class="cls-3" cx="24" cy="24" r="24" transform="translate(583 2245)"/>
    </g>
  </g>
</svg>
