<svg xmlns="http://www.w3.org/2000/svg" width="18.004" height="20.576" viewBox="0 0 18.004 20.576">
  <path id="Path_212" data-name="Path 212" d="M18,14.467V.964A.962.962,0,0,0,17.039,0H3.858A3.859,3.859,0,0,0,0,3.858v12.86a3.859,3.859,0,0,0,3.858,3.858H17.039A.962.962,0,0,0,18,19.611v-.643a.972.972,0,0,0-.358-.751,8.962,8.962,0,0,1,0-3A.958.958,0,0,0,18,14.467ZM5.144,5.385a.242.242,0,0,1,.241-.241H13.9a.242.242,0,0,1,.241.241v.8a.242.242,0,0,1-.241.241H5.385a.242.242,0,0,1-.241-.241Zm0,2.572a.242.242,0,0,1,.241-.241H13.9a.242.242,0,0,1,.241.241v.8A.242.242,0,0,1,13.9,9H5.385a.242.242,0,0,1-.241-.241ZM15.327,18H3.858a1.286,1.286,0,0,1,0-2.572H15.327A14.467,14.467,0,0,0,15.327,18Z" fill="#80849c"/>
</svg>
