<svg xmlns="http://www.w3.org/2000/svg" xmlns:xlink="http://www.w3.org/1999/xlink" width="30" height="30" viewBox="0 0 30 30">
  <defs>
    <clipPath id="clip-path">
      <path id="book-solid" d="M15.97,12.833V.856A.853.853,0,0,0,15.115,0H3.422A3.423,3.423,0,0,0,0,3.422V14.829a3.423,3.423,0,0,0,3.422,3.422H15.115a.853.853,0,0,0,.856-.856v-.57a.862.862,0,0,0-.317-.667,7.95,7.95,0,0,1,0-2.663.85.85,0,0,0,.317-.663ZM13.6,15.97H3.422a1.141,1.141,0,0,1,0-2.281H13.6A12.834,12.834,0,0,0,13.6,15.97Z" fill="#2680eb"/>
    </clipPath>
  </defs>
  <g id="icon-buku-induk" transform="translate(-196 -317)">
    <circle id="Ellipse_302" data-name="Ellipse 302" cx="15" cy="15" r="15" transform="translate(196 317)" fill="#d9eeff" opacity="0.4"/>
    <g id="Group_1779" data-name="Group 1779" transform="translate(0 0.922)">
      <path id="book-solid-2" data-name="book-solid" d="M15.97,12.833V.856A.853.853,0,0,0,15.115,0H3.422A3.423,3.423,0,0,0,0,3.422V14.829a3.423,3.423,0,0,0,3.422,3.422H15.115a.853.853,0,0,0,.856-.856v-.57a.862.862,0,0,0-.317-.667,7.95,7.95,0,0,1,0-2.663.85.85,0,0,0,.317-.663ZM13.6,15.97H3.422a1.141,1.141,0,0,1,0-2.281H13.6A12.834,12.834,0,0,0,13.6,15.97Z" transform="translate(202.611 322.412)" fill="#2680eb"/>
      <g id="Mask_Group_1318" data-name="Mask Group 1318" transform="translate(202.611 322.412)" clip-path="url(#clip-path)">
        <circle id="Ellipse_303" data-name="Ellipse 303" cx="11.354" cy="11.354" r="11.354" transform="translate(-12.232 -9.911)" fill="#6bb1fe" opacity="0.5"/>
      </g>
    </g>
    <path id="Union_39" data-name="Union 39" d="M4.242,5.16a.57.57,0,0,1-.21-.252L3.717,4.2H1.449l-.322.707a.56.56,0,0,1-.213.252.558.558,0,0,1-.3.084.651.651,0,0,1-.43-.161.491.491,0,0,1-.193-.391.6.6,0,0,1,.063-.259L1.9.637a.653.653,0,0,1,.27-.29.813.813,0,0,1,.787,0,.639.639,0,0,1,.273.29L5.081,4.432a.6.6,0,0,1,.063.259.5.5,0,0,1-.185.391.623.623,0,0,1-.423.161A.544.544,0,0,1,4.242,5.16ZM1.883,3.235h1.4l-.7-1.561ZM6.23,1.978a.227.227,0,0,1-.068-.167v-.5h-.5a.225.225,0,0,1-.168-.07.233.233,0,0,1-.068-.169A.232.232,0,0,1,5.658.834h.5V.33a.236.236,0,1,1,.472,0v.5h.5a.232.232,0,0,1,.236.237.233.233,0,0,1-.068.169.225.225,0,0,1-.168.07h-.5v.5a.229.229,0,0,1-.066.167.225.225,0,0,1-.17.068A.228.228,0,0,1,6.23,1.978Z" transform="translate(208.316 327.215)" fill="#eaf2fb" stroke="rgba(0,0,0,0)" stroke-miterlimit="10" stroke-width="1"/>
  </g>
</svg>
