<svg xmlns="http://www.w3.org/2000/svg" width="80" height="80" viewBox="0 0 80 80">
  <g id="icon-marketplace" transform="translate(-1018 -680)">
    <circle id="Ellipse_955" data-name="Ellipse 955" cx="40" cy="40" r="40" transform="translate(1018 680)" fill="#d9eeff" opacity="0.7"/>
    <path id="store-solid" d="M44.955,8.846,40.114,1.119A2.388,2.388,0,0,0,38.093,0H7.959A2.388,2.388,0,0,0,5.937,1.119L1.1,8.846c-2.5,3.991-.283,9.54,4.386,10.174a7.751,7.751,0,0,0,1.022.067,7.365,7.365,0,0,0,5.5-2.469,7.371,7.371,0,0,0,11.009,0,7.371,7.371,0,0,0,11.009,0,7.389,7.389,0,0,0,5.5,2.469,7.668,7.668,0,0,0,1.022-.067C45.238,18.394,47.461,12.844,44.955,8.846ZM39.547,21.482a9.464,9.464,0,0,1-2.2-.283v7.444H8.7V21.2a9.881,9.881,0,0,1-2.2.283,10.064,10.064,0,0,1-1.343-.09,9.38,9.38,0,0,1-1.223-.269V35.8A2.384,2.384,0,0,0,6.325,38.19H39.741A2.384,2.384,0,0,0,42.128,35.8V21.124a7.616,7.616,0,0,1-1.223.269,10.374,10.374,0,0,1-1.358.09Z" transform="translate(1034.973 700.905)" fill="#2680eb"/>
    <path id="Intersection_16" data-name="Intersection 16" d="M3.881,21.121a9.27,9.27,0,0,0,1.226.275,10.112,10.112,0,0,0,1.337.088A9.81,9.81,0,0,0,8.648,21.2v5.611a28.236,28.236,0,0,1-4.768.943Zm8.071-4.5A7.378,7.378,0,0,1,6.443,19.09a8.475,8.475,0,0,1-1.021-.064c-4.665-.639-6.881-6.189-4.384-10.18L5.882,1.123A2.39,2.39,0,0,1,7.9,0h21a27.991,27.991,0,0,1-5.736,16.84c-.07-.072-.139-.146-.207-.221a7.366,7.366,0,0,1-11.008,0Z" transform="translate(1035.031 700.903)" fill="#6bb1fe" stroke="rgba(0,0,0,0)" stroke-miterlimit="10" stroke-width="1" opacity="0.5"/>
  </g>
</svg>
