<svg id="icon-tatap-muka" xmlns="http://www.w3.org/2000/svg" width="48" height="48" viewBox="0 0 48 48">
  <circle id="Ellipse_56" data-name="Ellipse 56" cx="24" cy="24" r="24" fill="#fff" opacity="0.3"/>
  <path id="Path_159" data-name="Path 159" d="M15.748,64H2.239A2.239,2.239,0,0,0,0,66.239V79.748a2.239,2.239,0,0,0,2.239,2.239H15.748a2.239,2.239,0,0,0,2.239-2.239V66.239A2.239,2.239,0,0,0,15.748,64Zm8.872,1.766-5.134,3.541V76.68l5.134,3.537a1.5,1.5,0,0,0,2.361-1.209V66.974A1.5,1.5,0,0,0,24.62,65.766Z" transform="translate(11 -49)" fill="#fcfdff"/>
</svg>
