<svg id="icon-disposisi" xmlns="http://www.w3.org/2000/svg" xmlns:xlink="http://www.w3.org/1999/xlink" width="30" height="30" viewBox="0 0 30 30">
  <defs>
    <clipPath id="clip-path">
      <path id="user-friends-solid" d="M6.186,39.218a3.609,3.609,0,1,0-3.609-3.609A3.607,3.607,0,0,0,6.186,39.218Zm2.475,1.031H8.394a4.983,4.983,0,0,1-4.414,0H3.712A3.713,3.713,0,0,0,0,43.961v.928a1.547,1.547,0,0,0,1.547,1.547h9.28a1.547,1.547,0,0,0,1.547-1.547v-.928A3.713,3.713,0,0,0,8.661,40.249Zm6.805-1.031a3.093,3.093,0,1,0-3.093-3.093A3.094,3.094,0,0,0,15.466,39.218Zm1.547,1.031H16.89a4.063,4.063,0,0,1-2.848,0H13.92a3.579,3.579,0,0,0-1.795.5A4.715,4.715,0,0,1,13.4,43.961V45.2c0,.071-.016.139-.019.206h5.69a1.547,1.547,0,0,0,1.547-1.547A3.607,3.607,0,0,0,17.013,40.249Z" transform="translate(0 -32)" fill="#2680eb"/>
    </clipPath>
  </defs>
  <circle id="Ellipse_302" data-name="Ellipse 302" cx="15" cy="15" r="15" fill="#d9eeff" opacity="0.4"/>
  <g id="Group_2783" data-name="Group 2783" transform="translate(4.689 7.782)">
    <path id="user-friends-solid-2" data-name="user-friends-solid" d="M6.186,39.218a3.609,3.609,0,1,0-3.609-3.609A3.607,3.607,0,0,0,6.186,39.218Zm2.475,1.031H8.394a4.983,4.983,0,0,1-4.414,0H3.712A3.713,3.713,0,0,0,0,43.961v.928a1.547,1.547,0,0,0,1.547,1.547h9.28a1.547,1.547,0,0,0,1.547-1.547v-.928A3.713,3.713,0,0,0,8.661,40.249Zm6.805-1.031a3.093,3.093,0,1,0-3.093-3.093A3.094,3.094,0,0,0,15.466,39.218Zm1.547,1.031H16.89a4.063,4.063,0,0,1-2.848,0H13.92a3.579,3.579,0,0,0-1.795.5A4.715,4.715,0,0,1,13.4,43.961V45.2c0,.071-.016.139-.019.206h5.69a1.547,1.547,0,0,0,1.547-1.547A3.607,3.607,0,0,0,17.013,40.249Z" transform="translate(0 -32)" fill="#2680eb"/>
    <g id="Mask_Group_1431" data-name="Mask Group 1431" clip-path="url(#clip-path)">
      <circle id="Ellipse_466" data-name="Ellipse 466" cx="9.111" cy="9.111" r="9.111" transform="translate(-7.912 -4.2)" fill="#6bb1fe" opacity="0.5"/>
    </g>
  </g>
</svg>
