<svg xmlns="http://www.w3.org/2000/svg" xmlns:xlink="http://www.w3.org/1999/xlink" width="60" height="60" viewBox="0 0 60 60">
  <defs>
    <clipPath id="clip-path">
      <path id="Path_37174" data-name="Path 37174" d="M-344.627,31.833-352.44,36.8V32.97a1.349,1.349,0,0,0-2.071-1.137l-7.813,4.971V25.781a1.348,1.348,0,0,0-1.348-1.348h-6.29a1.348,1.348,0,0,0-1.348,1.348V48.243a1.348,1.348,0,0,0,1.348,1.348H-343.9a1.348,1.348,0,0,0,1.348-1.348V32.97A1.349,1.349,0,0,0-344.627,31.833Zm-17.058,12.293a.562.562,0,0,1-.562.562h-2.324a.562.562,0,0,1-.562-.562V41.8a.562.562,0,0,1,.562-.562h2.324a.562.562,0,0,1,.562.562Zm7.037,0a.562.562,0,0,1-.562.562h-2.324a.562.562,0,0,1-.562-.562V41.8a.562.562,0,0,1,.562-.562h2.324a.562.562,0,0,1,.562.562Zm7.037,0a.562.562,0,0,1-.562.562H-350.5a.562.562,0,0,1-.562-.562V41.8a.562.562,0,0,1,.562-.562h2.324a.562.562,0,0,1,.562.562Z" transform="translate(555.933 468.988)" fill="#2680eb"/>
    </clipPath>
  </defs>
  <g id="icon-bidang-perusahaan" transform="translate(-169 -476)">
    <circle id="Ellipse_380" data-name="Ellipse 380" cx="30" cy="30" r="30" transform="translate(169 476)" fill="#d9eeff" opacity="0.4"/>
    <g id="Group_4116" data-name="Group 4116">
      <path id="Path_254" data-name="Path 254" d="M-344.627,31.833-352.44,36.8V32.97a1.349,1.349,0,0,0-2.071-1.137l-7.813,4.971V25.781a1.348,1.348,0,0,0-1.348-1.348h-6.29a1.348,1.348,0,0,0-1.348,1.348V48.243a1.348,1.348,0,0,0,1.348,1.348H-343.9a1.348,1.348,0,0,0,1.348-1.348V32.97A1.349,1.349,0,0,0-344.627,31.833Zm-17.058,12.293a.562.562,0,0,1-.562.562h-2.324a.562.562,0,0,1-.562-.562V41.8a.562.562,0,0,1,.562-.562h2.324a.562.562,0,0,1,.562.562Zm7.037,0a.562.562,0,0,1-.562.562h-2.324a.562.562,0,0,1-.562-.562V41.8a.562.562,0,0,1,.562-.562h2.324a.562.562,0,0,1,.562.562Zm7.037,0a.562.562,0,0,1-.562.562H-350.5a.562.562,0,0,1-.562-.562V41.8a.562.562,0,0,1,.562-.562h2.324a.562.562,0,0,1,.562.562Z" transform="translate(555.933 468.988)" fill="#2680eb"/>
      <g id="Mask_Group_1469" data-name="Mask Group 1469" clip-path="url(#clip-path)">
        <circle id="Ellipse_521" data-name="Ellipse 521" cx="21.302" cy="21.302" r="21.302" transform="translate(162 475.976)" fill="#6bb1fe" opacity="0.5"/>
      </g>
    </g>
  </g>
</svg>
