<svg xmlns="http://www.w3.org/2000/svg" width="64" height="64" viewBox="0 0 64 64">
  <g id="icon-jalur-terdaftar" transform="translate(-279 -1427)">
    <circle id="Ellipse_308" data-name="Ellipse 308" cx="32" cy="32" r="32" transform="translate(279 1427)" fill="#e0fce4"/>
    <path id="map-signs-solid" d="M33.185,5.54,30.352,2.706a2.093,2.093,0,0,0-1.48-.613H18.84V1.047A1.046,1.046,0,0,0,17.794,0H15.7a1.046,1.046,0,0,0-1.047,1.047V2.093H3.665A1.57,1.57,0,0,0,2.1,3.663V8.9a1.57,1.57,0,0,0,1.57,1.57H28.872a2.094,2.094,0,0,0,1.48-.613L33.185,7.02A1.047,1.047,0,0,0,33.185,5.54Zm-18.531,26.9A1.046,1.046,0,0,0,15.7,33.49h2.093a1.046,1.046,0,0,0,1.047-1.047V25.117H14.654ZM29.829,14.652H18.84V12.559H14.654v2.093H4.622a2.094,2.094,0,0,0-1.48.613L.309,18.1a1.047,1.047,0,0,0,0,1.48l2.833,2.833a2.093,2.093,0,0,0,1.48.613H29.829a1.57,1.57,0,0,0,1.57-1.57V16.221A1.57,1.57,0,0,0,29.829,14.652Z" transform="translate(293.996 1442)" fill="#63ed7a"/>
  </g>
</svg>
