<svg xmlns="http://www.w3.org/2000/svg" width="24" height="24" viewBox="0 0 24 24">
  <g id="Group_5183" data-name="Group 5183" transform="translate(-889.635 -729.635)">
    <circle id="Ellipse_768" data-name="Ellipse 768" cx="12" cy="12" r="12" transform="translate(889.635 729.635)" fill="#eef5ff"/>
    <path id="tasks-solid" d="M3.463,32.058a.3.3,0,0,0-.422,0l-1.579,1.57L.9,33.08a.3.3,0,0,0-.422,0l-.389.39a.3.3,0,0,0,0,.422l1.18,1.176a.317.317,0,0,0,.437,0l.387-.387,1.791-1.79a.3.3,0,0,0,0-.422Zm0,3.948a.3.3,0,0,0-.422,0l-1.579,1.58L.9,37.038a.3.3,0,0,0-.422,0l-.389.389a.3.3,0,0,0,0,.422l1.177,1.178a.317.317,0,0,0,.436,0l.389-.389,1.791-1.791a.3.3,0,0,0,0-.419ZM1.588,40.3a1.191,1.191,0,1,0,0,2.381,1.19,1.19,0,1,0,0-2.381Zm10.714.4H5.159a.4.4,0,0,0-.4.4v.794a.4.4,0,0,0,.4.4H12.3a.4.4,0,0,0,.4-.4V41.1A.4.4,0,0,0,12.3,40.7Zm0-7.936H5.159a.4.4,0,0,0-.4.4v.794a.4.4,0,0,0,.4.4H12.3a.4.4,0,0,0,.4-.4v-.794A.4.4,0,0,0,12.3,32.765Zm0,3.968H5.159a.4.4,0,0,0-.4.4v.794a.4.4,0,0,0,.4.4H12.3a.4.4,0,0,0,.4-.4V37.13A.4.4,0,0,0,12.3,36.733Z" transform="translate(895.429 704.451)" fill="#2680eb"/>
    <path id="Intersection_3" data-name="Intersection 3" d="M1.266,7.056.088,5.877a.295.295,0,0,1,0-.42l.389-.39a.3.3,0,0,1,.422,0l.563.548,1.579-1.58a.3.3,0,0,1,.422,0l.42.42a.3.3,0,0,1,0,.419L2.091,6.667,1.7,7.056a.316.316,0,0,1-.436,0ZM5.159,6.35a.4.4,0,0,1-.4-.4V5.159a.4.4,0,0,1,.4-.4H6.837A7.4,7.4,0,0,1,5.332,6.35ZM1.268,3.1.088,1.92a.3.3,0,0,1,0-.422l.389-.39a.3.3,0,0,1,.422,0l.563.548L3.041.087a.3.3,0,0,1,.422,0L3.885.5a.3.3,0,0,1,0,.42L2.092,2.709,1.7,3.1a.316.316,0,0,1-.437,0Zm3.891-.714a.4.4,0,0,1-.4-.4V1.191a.4.4,0,0,1,.4-.4H8.153a7.33,7.33,0,0,1-.224,1.588Z" transform="translate(895.429 736.422)" fill="#6bb1fe" stroke="rgba(0,0,0,0)" stroke-miterlimit="10" stroke-width="1" opacity="0.5"/>
  </g>
</svg>
