<svg id="Group_1779" data-name="Group 1779" xmlns="http://www.w3.org/2000/svg" xmlns:xlink="http://www.w3.org/1999/xlink" width="30" height="30" viewBox="0 0 30 30">
  <defs>
    <clipPath id="clip-path">
      <path id="book-solid" d="M15.97,12.833V.856A.853.853,0,0,0,15.115,0H3.422A3.423,3.423,0,0,0,0,3.422V14.829a3.423,3.423,0,0,0,3.422,3.422H15.115a.853.853,0,0,0,.856-.856v-.57a.862.862,0,0,0-.317-.667,7.95,7.95,0,0,1,0-2.663.85.85,0,0,0,.317-.663ZM13.6,15.97H3.422a1.141,1.141,0,0,1,0-2.281H13.6A12.834,12.834,0,0,0,13.6,15.97Z" fill="#2680eb"/>
    </clipPath>
  </defs>
  <circle id="Ellipse_302" data-name="Ellipse 302" cx="15" cy="15" r="15" fill="#d9eeff" opacity="0.4"/>
  <g id="Group_1779-2" data-name="Group 1779" transform="translate(6.611 6.334)">
    <path id="book-solid-2" data-name="book-solid" d="M15.97,12.833V.856A.853.853,0,0,0,15.115,0H3.422A3.423,3.423,0,0,0,0,3.422V14.829a3.423,3.423,0,0,0,3.422,3.422H15.115a.853.853,0,0,0,.856-.856v-.57a.862.862,0,0,0-.317-.667,7.95,7.95,0,0,1,0-2.663.85.85,0,0,0,.317-.663ZM13.6,15.97H3.422a1.141,1.141,0,0,1,0-2.281H13.6A12.834,12.834,0,0,0,13.6,15.97Z" fill="#2680eb"/>
    <g id="Mask_Group_1318" data-name="Mask Group 1318" clip-path="url(#clip-path)">
      <circle id="Ellipse_303" data-name="Ellipse 303" cx="11.354" cy="11.354" r="11.354" transform="translate(-12.232 -9.911)" fill="#6bb1fe" opacity="0.5"/>
    </g>
  </g>
  <path id="balance-scale-solid" d="M3.458,4.539h0c0-.219.018-.118-1.149-2.452a.649.649,0,0,0-1.16,0C-.028,4.441,0,4.327,0,4.539H0c0,.6.774,1.081,1.729,1.081S3.458,5.136,3.458,4.539ZM1.729,2.378,2.7,4.323H.757ZM8.646,4.539c0-.219.018-.118-1.149-2.452a.649.649,0,0,0-1.16,0C5.16,4.441,5.188,4.327,5.188,4.539h0c0,.6.774,1.081,1.729,1.081s1.729-.484,1.729-1.081Zm-2.7-.216.973-1.945.973,1.945ZM7.133,6.052H4.755V2.07A1.082,1.082,0,0,0,5.382,1.3H7.133a.216.216,0,0,0,.216-.216V.648A.216.216,0,0,0,7.133.432H5.183a1.071,1.071,0,0,0-1.719,0H1.513A.216.216,0,0,0,1.3.648v.432a.216.216,0,0,0,.216.216H3.264a1.082,1.082,0,0,0,.627.773V6.052H1.513a.216.216,0,0,0-.216.216V6.7a.216.216,0,0,0,.216.216h5.62A.216.216,0,0,0,7.349,6.7V6.268A.216.216,0,0,0,7.133,6.052Z" transform="translate(10.677 9.833)" fill="#f4f4f7"/>
</svg>
