<svg xmlns="http://www.w3.org/2000/svg" xmlns:xlink="http://www.w3.org/1999/xlink" width="50" height="50" viewBox="0 0 50 50">
  <defs>
    <clipPath id="clip-path">
      <path id="Path_250" data-name="Path 250" d="M182.154,187.966a.812.812,0,0,0,.81-.81v-2.7a.812.812,0,0,0-.81-.81H180.8v-3.239a3.24,3.24,0,0,0-3.239-3.239H155.975a3.24,3.24,0,0,0-3.239,3.239v28.068a3.24,3.24,0,0,0,3.239,3.239h21.591a3.24,3.24,0,0,0,3.239-3.239v-3.239h1.349a.812.812,0,0,0,.81-.81v-2.7a.812.812,0,0,0-.81-.81H180.8V196.6h1.349a.812.812,0,0,0,.81-.81v-2.7a.812.812,0,0,0-.81-.81H180.8v-4.318Zm-15.383-2.159a4.318,4.318,0,1,1-4.318,4.318A4.322,4.322,0,0,1,166.77,185.807Zm7.557,15.977a1.415,1.415,0,0,1-1.511,1.3H160.725a1.415,1.415,0,0,1-1.511-1.3v-1.3c0-2.146,2.031-3.886,4.534-3.886h.337a6.949,6.949,0,0,0,5.371,0h.337c2.5,0,4.534,1.741,4.534,3.886Z" transform="translate(-152.736 -177.17)" fill="#fff"/>
    </clipPath>
    <clipPath id="clip-path-2">
      <path id="Path_38576" data-name="Path 38576" d="M17.856,10H16.784V6.785a6.785,6.785,0,1,0-13.57,0V10H2.143A2.143,2.143,0,0,0,0,12.142v8.571a2.143,2.143,0,0,0,2.143,2.143H17.856A2.143,2.143,0,0,0,20,20.712V12.142A2.143,2.143,0,0,0,17.856,10Zm-4.642,0H6.785V6.785a3.214,3.214,0,1,1,6.428,0Z" transform="translate(1000.001 212.572)" fill="#fff"/>
    </clipPath>
  </defs>
  <g id="icon-admin-ujian" transform="translate(-34 -468.5)">
    <circle id="Ellipse_84" data-name="Ellipse 84" cx="25" cy="25" r="25" transform="translate(34 468.5)" fill="#fff" opacity="0.1"/>
    <g id="Group_5679" data-name="Group 5679" transform="translate(-951.001 268.928)">
      <path id="Path_246" data-name="Path 246" d="M17.856,10H16.784V6.785a6.785,6.785,0,1,0-13.57,0V10H2.143A2.143,2.143,0,0,0,0,12.142v8.571a2.143,2.143,0,0,0,2.143,2.143H17.856A2.143,2.143,0,0,0,20,20.712V12.142A2.143,2.143,0,0,0,17.856,10Zm-4.642,0H6.785V6.785a3.214,3.214,0,1,1,6.428,0Z" transform="translate(1000.001 212.572)" fill="#fff"/>
      <g id="Mask_Group_3713" data-name="Mask Group 3713" clip-path="url(#clip-path-2)">
        <circle id="Ellipse_871" data-name="Ellipse 871" cx="12.365" cy="12.365" r="12.365" transform="translate(987.636 208.697)" fill="#fff"/>
      </g>
    </g>
  </g>
</svg>
