<svg id="icon-kbm" xmlns="http://www.w3.org/2000/svg" width="86" height="86" viewBox="0 0 86 86">
  <path id="Path_38567" data-name="Path 38567" d="M43,0A43,43,0,1,1,0,43,43,43,0,0,1,43,0Z" fill="#2680eb"/>
  <path id="chalkboard-teacher-solid_3_" data-name="chalkboard-teacher-solid (3)" d="M16.448,27.838a1.809,1.809,0,0,0-.558.086,10.433,10.433,0,0,1-3.238.546,10.442,10.442,0,0,1-3.239-.546,1.8,1.8,0,0,0-.558-.086A8.858,8.858,0,0,0,0,36.745a3.786,3.786,0,0,0,3.8,3.747H21.51a3.786,3.786,0,0,0,3.8-3.747A8.858,8.858,0,0,0,16.448,27.838Zm-3.8-2.531A7.592,7.592,0,1,0,5.06,17.715,7.592,7.592,0,0,0,12.652,25.308ZM46.818,0H16.448a3.865,3.865,0,0,0-3.8,3.922v3.67A10.008,10.008,0,0,1,17.714,9V5.062H45.552V27.838H40.491V22.777H30.368v5.062h-6.03A10.08,10.08,0,0,1,27.477,32.9H46.818a3.865,3.865,0,0,0,3.8-3.922V3.922A3.865,3.865,0,0,0,46.818,0Z" transform="translate(15.694 23.755)" fill="#fff"/>
</svg>
