<svg id="icon-header-konten-perangkat-pembelajaran" xmlns="http://www.w3.org/2000/svg" width="86" height="86" viewBox="0 0 86 86">
  <circle id="Ellipse_53" data-name="Ellipse 53" cx="43" cy="43" r="43" fill="#2680eb"/>
  <path id="Union_49" data-name="Union 49" d="M-16003.306-13176.14a1.807,1.807,0,0,1-1.921-1.655v-32.085a1.807,1.807,0,0,1,1.921-1.659h16v9.4a1.8,1.8,0,0,0,1.92,1.659h10.882v22.683a1.807,1.807,0,0,1-1.921,1.655Zm2.347-6.887a1.642,1.642,0,0,0,1.64,1.644h9.977a1.645,1.645,0,0,0,1.64-1.644,1.641,1.641,0,0,0-1.64-1.64h-9.977A1.639,1.639,0,0,0-16000.959-13183.026Zm0-5.987a1.64,1.64,0,0,0,1.64,1.644h17.978a1.645,1.645,0,0,0,1.643-1.644,1.644,1.644,0,0,0-1.643-1.64h-17.978A1.639,1.639,0,0,0-16000.959-13189.014Zm0-6.011a1.639,1.639,0,0,0,1.64,1.639h17.978a1.644,1.644,0,0,0,1.643-1.639,1.644,1.644,0,0,0-1.643-1.64h-17.978A1.639,1.639,0,0,0-16000.959-13195.024Zm-6.814,17.121a4.213,4.213,0,0,1-2.9-3.941v-30.739a4.293,4.293,0,0,1,4.38-4.187h7.3a5.726,5.726,0,0,1,5.839-5.59,5.726,5.726,0,0,1,5.842,5.59h7.306a4.293,4.293,0,0,1,4.38,4.187v3.962l-5.518-4.673a2.5,2.5,0,0,0-1.619-.571h-22.723a2.142,2.142,0,0,0-2.29,1.945Zm12.432-38.867a2.145,2.145,0,0,0,2.19,2.093,2.145,2.145,0,0,0,2.193-2.093,2.149,2.149,0,0,0-2.193-2.1A2.149,2.149,0,0,0-15995.342-13216.771Zm10.926,14.079v-8.848h.47a1.977,1.977,0,0,1,1.318.482l7.586,6.778a1.574,1.574,0,0,1,.543,1.165v.422Z" transform="translate(16035.587 13242.25)" fill="#fff" stroke="rgba(0,0,0,0)" stroke-miterlimit="10" stroke-width="1"/>
</svg>
