<svg xmlns="http://www.w3.org/2000/svg" width="50" height="35" viewBox="0 0 50 35">
  <path id="icon-download-dropfile" d="M42,47.2A7.509,7.509,0,0,0,35,37a7.462,7.462,0,0,0-4.164,1.266A12.5,12.5,0,0,0,7.5,44.5c0,.211.008.422.016.633A11.253,11.253,0,0,0,11.25,67H40a10,10,0,0,0,2-19.8Zm-10.383,6.93-8.234,8.234a1.254,1.254,0,0,1-1.766,0l-8.234-8.234A1.249,1.249,0,0,1,14.266,52h5.109V43.25A1.254,1.254,0,0,1,20.625,42h3.75a1.254,1.254,0,0,1,1.25,1.25V52h5.109A1.249,1.249,0,0,1,31.617,54.133Z" transform="translate(0 -32)" fill="#2680eb"/>
</svg>
