<svg id="icon-total-perencanaan" xmlns="http://www.w3.org/2000/svg" width="51" height="51" viewBox="0 0 51 51">
  <path id="Path_38599" data-name="Path 38599" d="M25.5,0A25.5,25.5,0,1,1,0,25.5,25.5,25.5,0,0,1,25.5,0Z" fill="#eef5ff" opacity="0.75"/>
  <g id="Group_5358" data-name="Group 5358" transform="translate(-164.589 -240.285)">
    <path id="clipboard-list-solid" d="M19.406,3.7h-4.62a3.7,3.7,0,1,0-7.393,0H2.772A2.773,2.773,0,0,0,0,6.469V26.8a2.773,2.773,0,0,0,2.772,2.772H19.406A2.773,2.773,0,0,0,22.178,26.8V6.469A2.773,2.773,0,0,0,19.406,3.7ZM5.545,24.488A1.386,1.386,0,1,1,6.931,23.1,1.383,1.383,0,0,1,5.545,24.488Zm0-5.545a1.386,1.386,0,1,1,1.386-1.386A1.383,1.383,0,0,1,5.545,18.944Zm0-5.545a1.386,1.386,0,1,1,1.386-1.386A1.383,1.383,0,0,1,5.545,13.4ZM11.089,2.31A1.386,1.386,0,1,1,9.7,3.7,1.383,1.383,0,0,1,11.089,2.31Zm7.393,21.254a.463.463,0,0,1-.462.462H9.7a.463.463,0,0,1-.462-.462V22.64a.463.463,0,0,1,.462-.462H18.02a.463.463,0,0,1,.462.462Zm0-5.545a.463.463,0,0,1-.462.462H9.7a.463.463,0,0,1-.462-.462V17.1a.463.463,0,0,1,.462-.462H18.02a.463.463,0,0,1,.462.462Zm0-5.545a.463.463,0,0,1-.462.462H9.7a.463.463,0,0,1-.462-.462v-.924a.463.463,0,0,1,.462-.462H18.02a.463.463,0,0,1,.462.462Z" transform="translate(179.001 251)" fill="#2680eb"/>
    <path id="Intersection_4" data-name="Intersection 4" d="M0,6.468A2.772,2.772,0,0,1,2.777,3.7H7.394a3.7,3.7,0,0,1,3.7-3.7,3.654,3.654,0,0,1,.7.067,15.825,15.825,0,0,1,1.22,6.115,15.857,15.857,0,0,1-.771,4.905H9.71a.467.467,0,0,0-.466.464v.928a.465.465,0,0,0,.466.456h1.8A15.927,15.927,0,0,1,0,21.819ZM4.162,17.563A1.385,1.385,0,1,0,5.547,16.17,1.382,1.382,0,0,0,4.162,17.563Zm0-5.548A1.385,1.385,0,1,0,5.547,10.63,1.382,1.382,0,0,0,4.162,12.015ZM9.71,3.7a1.385,1.385,0,1,0,1.385-1.385A1.383,1.383,0,0,0,9.71,3.7Z" transform="translate(178.998 251)" fill="#6bb1fe" stroke="rgba(0,0,0,0)" stroke-miterlimit="10" stroke-width="1" opacity="0.5"/>
  </g>
</svg>
