<svg xmlns="http://www.w3.org/2000/svg" xmlns:xlink="http://www.w3.org/1999/xlink" width="24" height="24" viewBox="0 0 24 24">
  <defs>
    <clipPath id="clip-path">
      <path id="Path_287" data-name="Path 287" d="M14.445,11.607V.774A.772.772,0,0,0,13.671,0H3.1A3.1,3.1,0,0,0,0,3.1V13.413a3.1,3.1,0,0,0,3.1,3.1H13.671a.772.772,0,0,0,.774-.774v-.516a.78.78,0,0,0-.287-.6,7.19,7.19,0,0,1,0-2.409.768.768,0,0,0,.287-.6ZM4.127,4.32a.194.194,0,0,1,.193-.193h6.835a.194.194,0,0,1,.193.193v.645a.194.194,0,0,1-.193.193H4.32a.194.194,0,0,1-.193-.193Zm0,2.064a.194.194,0,0,1,.193-.193h6.835a.194.194,0,0,1,.193.193v.645a.194.194,0,0,1-.193.193H4.32a.194.194,0,0,1-.193-.193Zm8.17,8.061H3.1a1.032,1.032,0,0,1,0-2.064h9.2A11.607,11.607,0,0,0,12.3,14.445Z" transform="translate(0 0)" fill="#2680eb"/>
    </clipPath>
  </defs>
  <g id="icon-buku-saya" transform="translate(-431.541 -398.541)">
    <circle id="Ellipse_61" data-name="Ellipse 61" cx="12" cy="12" r="12" transform="translate(431.541 398.541)" fill="#d9eeff" opacity="0.7"/>
    <g id="Group_609" data-name="Group 609" transform="translate(436.341 402.539)">
      <path id="Path_212" data-name="Path 212" d="M14.445,11.607V.774A.772.772,0,0,0,13.671,0H3.1A3.1,3.1,0,0,0,0,3.1V13.413a3.1,3.1,0,0,0,3.1,3.1H13.671a.772.772,0,0,0,.774-.774v-.516a.78.78,0,0,0-.287-.6,7.19,7.19,0,0,1,0-2.409.768.768,0,0,0,.287-.6ZM4.127,4.32a.194.194,0,0,1,.193-.193h6.835a.194.194,0,0,1,.193.193v.645a.194.194,0,0,1-.193.193H4.32a.194.194,0,0,1-.193-.193Zm0,2.064a.194.194,0,0,1,.193-.193h6.835a.194.194,0,0,1,.193.193v.645a.194.194,0,0,1-.193.193H4.32a.194.194,0,0,1-.193-.193Zm8.17,8.061H3.1a1.032,1.032,0,0,1,0-2.064h9.2A11.607,11.607,0,0,0,12.3,14.445Z" transform="translate(0)" fill="#2680eb"/>
      <g id="Mask_Group_12" data-name="Mask Group 12" clip-path="url(#clip-path)">
        <circle id="Ellipse_100" data-name="Ellipse 100" cx="10.802" cy="10.802" r="10.802" transform="translate(-13.98 -6.893)" fill="#6bb1fe" opacity="0.5"/>
      </g>
    </g>
  </g>
</svg>
