<svg xmlns="http://www.w3.org/2000/svg" width="35.308" height="35.308" viewBox="0 0 35.308 35.308">
  <g id="Group_4332" data-name="Group 4332" transform="translate(17126.154 1416.154)">
    <g id="Group_1395" data-name="Group 1395" transform="translate(-17126.154 -1416.154)">
      <path id="Path_519" data-name="Path 519" d="M17.654,0A17.654,17.654,0,1,1,0,17.654,17.654,17.654,0,0,1,17.654,0Z" transform="translate(0 0)" fill="#63ed7a"/>
      <path id="Path_518" data-name="Path 518" d="M6.622,79.352.286,73.015a.975.975,0,0,1,0-1.379l1.379-1.379a.975.975,0,0,1,1.379,0l4.269,4.268,9.143-9.143a.975.975,0,0,1,1.379,0l1.379,1.379a.975.975,0,0,1,0,1.379L8,79.352a.975.975,0,0,1-1.379,0Z" transform="translate(7.905 -54.714)" fill="#fff"/>
    </g>
  </g>
</svg>
