<svg xmlns="http://www.w3.org/2000/svg" xmlns:xlink="http://www.w3.org/1999/xlink" width="80" height="80" viewBox="0 0 80 80">
  <defs>
    <clipPath id="clip-path">
      <path id="Path_258" data-name="Path 258" d="M1262.658,184.684a4.931,4.931,0,1,0-4.931-4.931A4.931,4.931,0,0,0,1262.658,184.684Zm0,13.566a3.4,3.4,0,0,1,1.051-2.465l5.557-5.245a3.252,3.252,0,0,1,.432-.275,4.924,4.924,0,0,0-4.575-3.115h-4.931a4.931,4.931,0,0,0-4.931,4.931v7.4a2.466,2.466,0,0,0,2.466,2.465V211.8a2.465,2.465,0,0,0,2.465,2.465h4.931a2.465,2.465,0,0,0,2.466-2.465v-7.427l-3.88-3.662a3.4,3.4,0,0,1-1.051-2.465Zm29.586-13.566a4.931,4.931,0,1,0-4.931-4.931A4.931,4.931,0,0,0,1292.245,184.684Zm2.465,2.465h-4.931a4.924,4.924,0,0,0-4.575,3.114,2.963,2.963,0,0,1,.433.277l5.557,5.244a3.419,3.419,0,0,1,.1,4.834c-.032.033-.065.066-.1.1l-3.88,3.664V211.8a2.466,2.466,0,0,0,2.466,2.465h4.931a2.465,2.465,0,0,0,2.465-2.465v-9.862a2.465,2.465,0,0,0,2.465-2.465v-7.4A4.931,4.931,0,0,0,1294.71,187.15Zm-5.208,10.428-5.557-5.244a.925.925,0,0,0-1.563.672v2.774h-9.862v-2.774a.924.924,0,0,0-1.562-.673l-5.557,5.245a.956.956,0,0,0,0,1.346l5.557,5.244a.924.924,0,0,0,1.562-.673V200.71h9.862v2.785a.925.925,0,0,0,1.563.673l5.557-5.244A.956.956,0,0,0,1289.5,197.577Z" transform="translate(-1255.262 -174.822)" fill="none"/>
    </clipPath>
  </defs>
  <g id="icon-humas" transform="translate(-367.979 -461.979)">
    <circle id="Ellipse_83" data-name="Ellipse 83" cx="40" cy="40" r="40" transform="translate(367.979 461.979)" fill="#d9eeff" opacity="0.7"/>
    <g id="Group_610" data-name="Group 610" transform="translate(385.789 482.255)">
      <path id="Path_257" data-name="Path 257" d="M1262.658,184.684a4.931,4.931,0,1,0-4.931-4.931A4.931,4.931,0,0,0,1262.658,184.684Zm0,13.566a3.4,3.4,0,0,1,1.051-2.465l5.557-5.245a3.252,3.252,0,0,1,.432-.275,4.924,4.924,0,0,0-4.575-3.115h-4.931a4.931,4.931,0,0,0-4.931,4.931v7.4a2.466,2.466,0,0,0,2.466,2.465V211.8a2.465,2.465,0,0,0,2.465,2.465h4.931a2.465,2.465,0,0,0,2.466-2.465v-7.427l-3.88-3.662a3.4,3.4,0,0,1-1.051-2.465Zm29.586-13.566a4.931,4.931,0,1,0-4.931-4.931A4.931,4.931,0,0,0,1292.245,184.684Zm2.465,2.465h-4.931a4.924,4.924,0,0,0-4.575,3.114,2.963,2.963,0,0,1,.433.277l5.557,5.244a3.419,3.419,0,0,1,.1,4.834c-.032.033-.065.066-.1.1l-3.88,3.664V211.8a2.466,2.466,0,0,0,2.466,2.465h4.931a2.465,2.465,0,0,0,2.465-2.465v-9.862a2.465,2.465,0,0,0,2.465-2.465v-7.4A4.931,4.931,0,0,0,1294.71,187.15Zm-5.208,10.428-5.557-5.244a.925.925,0,0,0-1.563.672v2.774h-9.862v-2.774a.924.924,0,0,0-1.562-.673l-5.557,5.245a.956.956,0,0,0,0,1.346l5.557,5.244a.924.924,0,0,0,1.562-.673V200.71h9.862v2.785a.925.925,0,0,0,1.563.673l5.557-5.244A.956.956,0,0,0,1289.5,197.577Z" transform="translate(-1255.262 -174.822)" fill="#2680eb"/>
      <g id="Group_609" data-name="Group 609" transform="translate(0 0)">
        <g id="Group_608" data-name="Group 608" clip-path="url(#clip-path)">
          <circle id="Ellipse_89" data-name="Ellipse 89" cx="21.834" cy="21.834" r="21.834" transform="translate(-7.397 -15.286)" fill="#6bb1fe" opacity="0.5"/>
        </g>
      </g>
    </g>
  </g>
</svg>
