<svg id="icon-side-nav-jadwal-mengajar" xmlns="http://www.w3.org/2000/svg" width="30" height="30" viewBox="0 0 30 30">
  <circle id="Ellipse_302" data-name="Ellipse 302" cx="15" cy="15" r="15" fill="#d9eeff" opacity="0.4"/>
  <path id="calendar-alt-solid" d="M0,17.017a1.761,1.761,0,0,0,1.76,1.76H14.67a1.761,1.761,0,0,0,1.76-1.76V7.041H0ZM11.736,9.829a.441.441,0,0,1,.44-.44h1.467a.441.441,0,0,1,.44.44V11.3a.441.441,0,0,1-.44.44H12.176a.441.441,0,0,1-.44-.44Zm0,4.694a.441.441,0,0,1,.44-.44h1.467a.441.441,0,0,1,.44.44V15.99a.441.441,0,0,1-.44.44H12.176a.441.441,0,0,1-.44-.44ZM7.041,9.829a.441.441,0,0,1,.44-.44H8.948a.441.441,0,0,1,.44.44V11.3a.441.441,0,0,1-.44.44H7.482a.441.441,0,0,1-.44-.44Zm0,4.694a.441.441,0,0,1,.44-.44H8.948a.441.441,0,0,1,.44.44V15.99a.441.441,0,0,1-.44.44H7.482a.441.441,0,0,1-.44-.44ZM2.347,9.829a.441.441,0,0,1,.44-.44H4.254a.441.441,0,0,1,.44.44V11.3a.441.441,0,0,1-.44.44H2.787a.441.441,0,0,1-.44-.44Zm0,4.694a.441.441,0,0,1,.44-.44H4.254a.441.441,0,0,1,.44.44V15.99a.441.441,0,0,1-.44.44H2.787a.441.441,0,0,1-.44-.44ZM14.67,2.347h-1.76V.587A.589.589,0,0,0,12.323,0H11.149a.589.589,0,0,0-.587.587v1.76H5.868V.587A.589.589,0,0,0,5.281,0H4.108a.589.589,0,0,0-.587.587v1.76H1.76A1.761,1.761,0,0,0,0,4.108v1.76H16.43V4.108A1.761,1.761,0,0,0,14.67,2.347Z" transform="translate(6.785 5.611)" fill="#2680eb"/>
  <path id="Intersection_1" data-name="Intersection 1" d="M13476.575,19.38h8.645a10.849,10.849,0,0,1-1.121,2.347h-.044a.443.443,0,0,0-.439.44v.26a10.886,10.886,0,0,1-7.04,4.233Zm2.347,2.787v1.47a.443.443,0,0,0,.439.44h1.467a.442.442,0,0,0,.44-.44v-1.47a.442.442,0,0,0-.44-.44h-1.467A.443.443,0,0,0,13478.922,22.167Zm-2.347-3.959V16.447a1.761,1.761,0,0,1,1.761-1.761h1.761V12.926a.588.588,0,0,1,.586-.586h1.175a.589.589,0,0,1,.586.586v1.761h3.279a11.007,11.007,0,0,1-.18,3.522Z" transform="translate(-13469.79 -6.728)" fill="#6bb1fe" stroke="rgba(0,0,0,0)" stroke-miterlimit="10" stroke-width="1" opacity="0.5"/>
</svg>
