<svg xmlns="http://www.w3.org/2000/svg" width="35" height="35" viewBox="0 0 35 35">
  <g id="Group_4757" data-name="Group 4757" transform="translate(-431 -398)">
    <circle id="Ellipse_61" data-name="Ellipse 61" cx="17.5" cy="17.5" r="17.5" transform="translate(431 398)" fill="#fff" opacity="0.4"/>
    <path id="Path_223" data-name="Path 223" d="M18.667,8A10.667,10.667,0,1,0,29.334,18.667,10.665,10.665,0,0,0,18.667,8Zm3.979,13.463h0l-.86,1.075a.689.689,0,0,1-.968.108h0l-2.882-2.138a1.719,1.719,0,0,1-.645-1.342V12.473a.69.69,0,0,1,.688-.688h1.376a.69.69,0,0,1,.688.688v6.194L22.538,20.5a.689.689,0,0,1,.108.968Z" transform="translate(429.833 396.833)" fill="#51d868"/>
  </g>
</svg>
