<svg xmlns="http://www.w3.org/2000/svg" xmlns:xlink="http://www.w3.org/1999/xlink" width="16" height="16" viewBox="0 0 16 16">
  <defs>
    <clipPath id="clip-path">
      <path id="Path_342" data-name="Path 342" d="M1.825,35.8a1.267,1.267,0,0,0,0-2.533,1.267,1.267,0,0,0,0,2.533Zm8.517,0a1.267,1.267,0,1,0-1.217-1.266A1.243,1.243,0,0,0,10.342,35.8Zm.608.633H9.734a1.19,1.19,0,0,0-.857.368A2.9,2.9,0,0,1,10.3,38.965h1.255a.62.62,0,0,0,.608-.633V37.7A1.243,1.243,0,0,0,10.95,36.432Zm-4.867,0a2.218,2.218,0,0,0,0-4.432,2.218,2.218,0,0,0,0,4.432Zm1.46.633H7.386a2.837,2.837,0,0,1-2.6,0H4.624a2.237,2.237,0,0,0-2.19,2.279v.57a.932.932,0,0,0,.913.95H8.821a.932.932,0,0,0,.913-.95v-.57A2.237,2.237,0,0,0,7.544,37.065ZM3.291,36.8a1.19,1.19,0,0,0-.857-.368H1.217A1.243,1.243,0,0,0,0,37.7v.633a.62.62,0,0,0,.608.633H1.861A2.9,2.9,0,0,1,3.291,36.8Z" transform="translate(0 -32)" fill="#2680eb"/>
    </clipPath>
  </defs>
  <g id="icon-anggota" transform="translate(-346.68 -409.68)">
    <circle id="Ellipse_61" data-name="Ellipse 61" cx="8" cy="8" r="8" transform="translate(346.68 409.68)" fill="#d9eeff" opacity="0.7"/>
    <g id="Group_823" data-name="Group 823" transform="translate(348.565 413.077)">
      <path id="Path_341" data-name="Path 341" d="M1.825,35.8a1.267,1.267,0,0,0,0-2.533,1.267,1.267,0,0,0,0,2.533Zm8.517,0a1.267,1.267,0,1,0-1.217-1.266A1.243,1.243,0,0,0,10.342,35.8Zm.608.633H9.734a1.19,1.19,0,0,0-.857.368A2.9,2.9,0,0,1,10.3,38.965h1.255a.62.62,0,0,0,.608-.633V37.7A1.243,1.243,0,0,0,10.95,36.432Zm-4.867,0a2.218,2.218,0,0,0,0-4.432,2.218,2.218,0,0,0,0,4.432Zm1.46.633H7.386a2.837,2.837,0,0,1-2.6,0H4.624a2.237,2.237,0,0,0-2.19,2.279v.57a.932.932,0,0,0,.913.95H8.821a.932.932,0,0,0,.913-.95v-.57A2.237,2.237,0,0,0,7.544,37.065ZM3.291,36.8a1.19,1.19,0,0,0-.857-.368H1.217A1.243,1.243,0,0,0,0,37.7v.633a.62.62,0,0,0,.608.633H1.861A2.9,2.9,0,0,1,3.291,36.8Z" transform="translate(0 -32)" fill="#2680eb"/>
      <g id="Mask_Group_8" data-name="Mask Group 8" transform="translate(0)" clip-path="url(#clip-path)">
        <ellipse id="Ellipse_114" data-name="Ellipse 114" cx="6.024" cy="6.27" rx="6.024" ry="6.27" transform="translate(-5.727 -3.56)" fill="#6bb1fe" opacity="0.5"/>
      </g>
    </g>
  </g>
</svg>
