<svg xmlns="http://www.w3.org/2000/svg" width="24" height="24" viewBox="0 0 24 24">
  <g id="icon-lulus-seleksi" transform="translate(-792 -1110)">
    <g id="Rectangle_1478" data-name="Rectangle 1478" transform="translate(792 1110)" fill="#fff" stroke="#707070" stroke-width="1" opacity="0">
      <rect width="24" height="24" stroke="none"/>
      <rect x="0.5" y="0.5" width="23" height="23" fill="none"/>
    </g>
    <g id="Check" transform="translate(-171.086 481.414)">
      <circle id="Ellipse_41" data-name="Ellipse 41" cx="8" cy="8" r="8" transform="translate(967.086 632.586)" fill="#51d868"/>
      <path id="Path_160" data-name="Path 160" d="M2.642,71.377.114,68.586a.462.462,0,0,1,0-.607l.55-.607a.364.364,0,0,1,.55,0l1.7,1.88,3.648-4.027a.364.364,0,0,1,.55,0l.55.607a.462.462,0,0,1,0,.607L3.192,71.377a.364.364,0,0,1-.55,0Z" transform="translate(971.197 572.267)" fill="#fff"/>
    </g>
  </g>
</svg>
