<svg xmlns="http://www.w3.org/2000/svg" xmlns:xlink="http://www.w3.org/1999/xlink" width="42" height="42" viewBox="0 0 42 42">
  <defs>
    <clipPath id="clip-path">
      <path id="user-solid" d="M9.5,10.863A5.431,5.431,0,1,0,4.073,5.431,5.431,5.431,0,0,0,9.5,10.863Zm3.8,1.358H12.6a7.386,7.386,0,0,1-6.187,0H5.7a5.7,5.7,0,0,0-5.7,5.7v1.765a2.037,2.037,0,0,0,2.037,2.037H16.973a2.037,2.037,0,0,0,2.037-2.037V17.923A5.7,5.7,0,0,0,13.307,12.22Z" fill="#2680eb"/>
    </clipPath>
  </defs>
  <g id="icon-user-pkl" transform="translate(-691 -820)">
    <circle id="Ellipse_777" data-name="Ellipse 777" cx="21" cy="21" r="21" transform="translate(691 820)" fill="#d9eeff" opacity="0.4"/>
    <g id="Group_5466" data-name="Group 5466" transform="translate(702.023 829.504)">
      <g id="Group_3297" data-name="Group 3297" transform="translate(0 0)">
        <path id="Subtraction_40" data-name="Subtraction 40" d="M1938.875-13553.826H1935v-1.549h3.875Zm0-2.323H1935v-.466a.389.389,0,0,1,.388-.39h3.1a.389.389,0,0,1,.387.39Z" transform="translate(-1919.101 13576.843)" fill="#2680eb"/>
        <path id="Subtraction_41" data-name="Subtraction 41" d="M1926.085-13547.614h0a1.473,1.473,0,0,1-.435-.218,1.6,1.6,0,0,1-.344-.335,1.543,1.543,0,0,1-.307-.93v-4.262a2.155,2.155,0,0,1,.171-.844,2.166,2.166,0,0,1,.465-.689,2.107,2.107,0,0,1,.69-.464,2.149,2.149,0,0,1,.844-.172v-.31a1.156,1.156,0,0,1,.341-.82,1.148,1.148,0,0,1,.822-.343h1.008a1.149,1.149,0,0,1,.822.343,1.156,1.156,0,0,1,.34.82v.312a2.159,2.159,0,0,1,1.482.658,2.164,2.164,0,0,1,.611,1.509v4.262a1.525,1.525,0,0,1-.307.926,1.58,1.58,0,0,1-.343.339,1.577,1.577,0,0,1-.435.218v-2.72a1.164,1.164,0,0,0-1.162-1.163h-3.1a1.164,1.164,0,0,0-1.163,1.163Zm1.318-6.051a.232.232,0,0,0-.233.231v.311a.232.232,0,0,0,.233.231h2.868a.231.231,0,0,0,.232-.231v-.311a.232.232,0,0,0-.232-.231Zm.852-2.638a.357.357,0,0,0-.31.389v.389h1.86v-.389a.357.357,0,0,0-.31-.389Z" transform="translate(-1910.96 13570.554)" fill="#2680eb"/>
        <path id="Subtraction_39" data-name="Subtraction 39" d="M13.313,21.725H2.038A2.039,2.039,0,0,1,0,19.689V17.924a5.71,5.71,0,0,1,5.7-5.7h.709a7.378,7.378,0,0,0,6.186,0h.709a5.684,5.684,0,0,1,3.07.9,1.676,1.676,0,0,0-.832,1.3,2.834,2.834,0,0,0-2.232,3.006v4.305ZM9.506,10.862A5.431,5.431,0,0,1,5.665,1.591a5.432,5.432,0,0,1,7.681,7.681A5.394,5.394,0,0,1,9.506,10.862Z" transform="translate(0 0.001)" fill="#2680eb"/>
        <g id="Mask_Group_1489" data-name="Mask Group 1489" clip-path="url(#clip-path)">
          <path id="Path_37195" data-name="Path 37195" d="M13.688,0c7.56,0,14.888,6.6,14.888,14.158,1.708,3.315-1.519,2.9-2.24,4.772A13.689,13.689,0,1,1,13.688,0Z" transform="translate(-12.803 -9.436)" fill="#6bb1fe" opacity="0.5"/>
        </g>
      </g>
    </g>
  </g>
</svg>
