<svg xmlns="http://www.w3.org/2000/svg" xmlns:xlink="http://www.w3.org/1999/xlink" width="60" height="60" viewBox="0 0 60 60">
  <defs>
    <clipPath id="clip-path">
      <path id="envelope-solid" d="M31.394,71.925a.376.376,0,0,1,.606.294V85a3,3,0,0,1-3,3H3a3,3,0,0,1-3-3V72.225a.374.374,0,0,1,.606-.294c1.4,1.088,3.256,2.469,9.631,7.1,1.319.963,3.544,2.988,5.762,2.975,2.231.019,4.5-2.05,5.769-2.975C28.144,74.4,29.994,73.013,31.394,71.925ZM16,80c1.45.025,3.538-1.825,4.587-2.588,8.294-6.019,8.925-6.544,10.837-8.044A1.5,1.5,0,0,0,32,68.188V67a3,3,0,0,0-3-3H3a3,3,0,0,0-3,3v1.188a1.5,1.5,0,0,0,.575,1.181c1.912,1.494,2.544,2.025,10.837,8.044C12.462,78.175,14.55,80.025,16,80Z" transform="translate(183 718)" fill="#2680eb"/>
    </clipPath>
  </defs>
  <g id="icon-email" transform="translate(-169 -764)">
    <circle id="Ellipse_389" data-name="Ellipse 389" cx="30" cy="30" r="30" transform="translate(169 764)" fill="#d9eeff" opacity="0.4"/>
    <path id="envelope-solid-2" data-name="envelope-solid" d="M31.394,71.925a.376.376,0,0,1,.606.294V85a3,3,0,0,1-3,3H3a3,3,0,0,1-3-3V72.225a.374.374,0,0,1,.606-.294c1.4,1.088,3.256,2.469,9.631,7.1,1.319.963,3.544,2.988,5.762,2.975,2.231.019,4.5-2.05,5.769-2.975C28.144,74.4,29.994,73.013,31.394,71.925ZM16,80c1.45.025,3.538-1.825,4.587-2.588,8.294-6.019,8.925-6.544,10.837-8.044A1.5,1.5,0,0,0,32,68.188V67a3,3,0,0,0-3-3H3a3,3,0,0,0-3,3v1.188a1.5,1.5,0,0,0,.575,1.181c1.912,1.494,2.544,2.025,10.837,8.044C12.462,78.175,14.55,80.025,16,80Z" transform="translate(183 718)" fill="#2680eb"/>
    <g id="Mask_Group_1466" data-name="Mask Group 1466" clip-path="url(#clip-path)">
      <circle id="Ellipse_518" data-name="Ellipse 518" cx="21.302" cy="21.302" r="21.302" transform="translate(163.698 760.698)" fill="#6bb1fe" opacity="0.5"/>
    </g>
  </g>
</svg>
