<svg xmlns="http://www.w3.org/2000/svg" xmlns:xlink="http://www.w3.org/1999/xlink" width="50" height="50" viewBox="0 0 50 50">
  <defs>
    <clipPath id="clip-path">
      <path id="Path_250" data-name="Path 250" d="M182.154,187.966a.812.812,0,0,0,.81-.81v-2.7a.812.812,0,0,0-.81-.81H180.8v-3.239a3.24,3.24,0,0,0-3.239-3.239H155.975a3.24,3.24,0,0,0-3.239,3.239v28.068a3.24,3.24,0,0,0,3.239,3.239h21.591a3.24,3.24,0,0,0,3.239-3.239v-3.239h1.349a.812.812,0,0,0,.81-.81v-2.7a.812.812,0,0,0-.81-.81H180.8V196.6h1.349a.812.812,0,0,0,.81-.81v-2.7a.812.812,0,0,0-.81-.81H180.8v-4.318Zm-15.383-2.159a4.318,4.318,0,1,1-4.318,4.318A4.322,4.322,0,0,1,166.77,185.807Zm7.557,15.977a1.415,1.415,0,0,1-1.511,1.3H160.725a1.415,1.415,0,0,1-1.511-1.3v-1.3c0-2.146,2.031-3.886,4.534-3.886h.337a6.949,6.949,0,0,0,5.371,0h.337c2.5,0,4.534,1.741,4.534,3.886Z" transform="translate(-152.736 -177.17)" fill="none"/>
    </clipPath>
    <clipPath id="clip-path-2">
      <path id="calendar-alt-solid" d="M0,24.857a2.572,2.572,0,0,0,2.571,2.571H21.429A2.572,2.572,0,0,0,24,24.857V10.286H0Zm17.143-10.5a.645.645,0,0,1,.643-.643h2.143a.645.645,0,0,1,.643.643V16.5a.645.645,0,0,1-.643.643H17.786a.645.645,0,0,1-.643-.643Zm0,6.857a.645.645,0,0,1,.643-.643h2.143a.645.645,0,0,1,.643.643v2.143a.645.645,0,0,1-.643.643H17.786a.645.645,0,0,1-.643-.643Zm-6.857-6.857a.645.645,0,0,1,.643-.643h2.143a.645.645,0,0,1,.643.643V16.5a.645.645,0,0,1-.643.643H10.929a.645.645,0,0,1-.643-.643Zm0,6.857a.645.645,0,0,1,.643-.643h2.143a.645.645,0,0,1,.643.643v2.143a.645.645,0,0,1-.643.643H10.929a.645.645,0,0,1-.643-.643ZM3.429,14.357a.645.645,0,0,1,.643-.643H6.214a.645.645,0,0,1,.643.643V16.5a.645.645,0,0,1-.643.643H4.071a.645.645,0,0,1-.643-.643Zm0,6.857a.645.645,0,0,1,.643-.643H6.214a.645.645,0,0,1,.643.643v2.143A.645.645,0,0,1,6.214,24H4.071a.645.645,0,0,1-.643-.643Zm18-17.786H18.857V.857A.86.86,0,0,0,18,0H16.286a.86.86,0,0,0-.857.857V3.429H8.571V.857A.86.86,0,0,0,7.714,0H6a.86.86,0,0,0-.857.857V3.429H2.571A2.572,2.572,0,0,0,0,6V8.571H24V6A2.572,2.572,0,0,0,21.429,3.429Z" transform="translate(0 0)" fill="#2680eb"/>
    </clipPath>
  </defs>
  <g id="icon-kegiatan-gelombang-ppdb" transform="translate(-34 -468.5)">
    <circle id="Ellipse_84" data-name="Ellipse 84" cx="25" cy="25" r="25" transform="translate(34 468.5)" fill="#d9eeff" opacity="0.7"/>
    <g id="Group_5089" data-name="Group 5089">
      <path id="calendar-alt-solid-2" data-name="calendar-alt-solid" d="M0,24.857a2.572,2.572,0,0,0,2.571,2.571H21.429A2.572,2.572,0,0,0,24,24.857V10.286H0Zm17.143-10.5a.645.645,0,0,1,.643-.643h2.143a.645.645,0,0,1,.643.643V16.5a.645.645,0,0,1-.643.643H17.786a.645.645,0,0,1-.643-.643Zm0,6.857a.645.645,0,0,1,.643-.643h2.143a.645.645,0,0,1,.643.643v2.143a.645.645,0,0,1-.643.643H17.786a.645.645,0,0,1-.643-.643Zm-6.857-6.857a.645.645,0,0,1,.643-.643h2.143a.645.645,0,0,1,.643.643V16.5a.645.645,0,0,1-.643.643H10.929a.645.645,0,0,1-.643-.643Zm0,6.857a.645.645,0,0,1,.643-.643h2.143a.645.645,0,0,1,.643.643v2.143a.645.645,0,0,1-.643.643H10.929a.645.645,0,0,1-.643-.643ZM3.429,14.357a.645.645,0,0,1,.643-.643H6.214a.645.645,0,0,1,.643.643V16.5a.645.645,0,0,1-.643.643H4.071a.645.645,0,0,1-.643-.643Zm0,6.857a.645.645,0,0,1,.643-.643H6.214a.645.645,0,0,1,.643.643v2.143A.645.645,0,0,1,6.214,24H4.071a.645.645,0,0,1-.643-.643Zm18-17.786H18.857V.857A.86.86,0,0,0,18,0H16.286a.86.86,0,0,0-.857.857V3.429H8.571V.857A.86.86,0,0,0,7.714,0H6a.86.86,0,0,0-.857.857V3.429H2.571A2.572,2.572,0,0,0,0,6V8.571H24V6A2.572,2.572,0,0,0,21.429,3.429Z" transform="translate(47 479.229)" fill="#2680eb"/>
      <g id="Mask_Group_1475" data-name="Mask Group 1475" transform="translate(47 479.229)" clip-path="url(#clip-path-2)">
        <ellipse id="Ellipse_527" data-name="Ellipse 527" cx="17.042" cy="17.042" rx="17.042" ry="17.042" transform="translate(-14.642 -13.842)" fill="#6bb1fe" opacity="0.5"/>
      </g>
    </g>
  </g>
</svg>
