<svg xmlns="http://www.w3.org/2000/svg" xmlns:xlink="http://www.w3.org/1999/xlink" width="70" height="70" viewBox="0 0 70 70">
  <defs>
    <clipPath id="clip-path">
      <path id="Path_2373" data-name="Path 2373" d="M1425.84,285c-1.426,2.851-14.031-6.988-23.681-6.988s-22.255,9.84-23.681,6.988a5.348,5.348,0,0,1-.287-2.769,37.042,37.042,0,0,1,2.436-8.579s11.859-6.822,21.533-6.822,21.534,6.822,21.534,6.822a37.058,37.058,0,0,1,2.435,8.579A5.349,5.349,0,0,1,1425.84,285Z" transform="translate(-1378.141 -266.83)" fill="#3c7ceb"/>
    </clipPath>
  </defs>
  <g id="icon-tk" transform="translate(-138 -522)">
    <circle id="Ellipse_139" data-name="Ellipse 139" cx="35" cy="35" r="35" transform="translate(138 522)" fill="#fce8d2" opacity="0.65"/>
    <g id="Group_1489" data-name="Group 1489" transform="translate(-32.883 50.598)">
      <g id="Group_1488" data-name="Group 1488" transform="translate(181.866 485.413)">
        <g id="Group_1312" data-name="Group 1312">
          <path id="Path_462" data-name="Path 462" d="M1477.761,63.242s.883-10.584-.275-14.23a19.507,19.507,0,0,0-7.844-10.643h0a29.072,29.072,0,0,0-19.019,0h0a20,20,0,0,0-8,11.155c-1.077,3.57-.117,13.718-.117,13.718,4.39-2.159,11.445-5.067,17.626-5.068S1473.372,61.082,1477.761,63.242Z" transform="translate(-1436.112 -36.77)" fill="#ededf4"/>
          <path id="Path_463" data-name="Path 463" d="M1403.877,75.626q0,.909.03,1.858l-.006.008-1.8,1.747-2.124.255s-.134-.667-.261-1.8h0c-.59-5.222-1.065-20.328,12.283-25.127C1411.9,52.646,1403.881,58.923,1403.877,75.626Z" transform="translate(-1397.48 -51.088)" fill="#f9ac50"/>
          <path id="Path_464" data-name="Path 464" d="M1747.813,77.7c-.128,1.13-.261,1.8-.261,1.8l-2.125-.255-1.8-1.747-.006-.008c.022-.633.031-1.252.031-1.858-.006-16.7-8.021-22.98-8.12-23.056C1748.877,57.369,1748.4,72.475,1747.813,77.7Z" transform="translate(-1702.001 -51.088)" fill="#f9ac50"/>
          <path id="Path_465" data-name="Path 465" d="M1425.84,285c-1.426,2.851-14.031-6.988-23.681-6.988s-22.255,9.84-23.681,6.988a5.348,5.348,0,0,1-.287-2.769,37.042,37.042,0,0,1,2.436-8.579s11.859-6.822,21.533-6.822,21.534,6.822,21.534,6.822a37.058,37.058,0,0,1,2.435,8.579A5.349,5.349,0,0,1,1425.84,285Z" transform="translate(-1378.141 -245.246)" fill="#ffc107"/>
        </g>
      </g>
      <g id="Mask_Group_1285" data-name="Mask Group 1285" transform="translate(181.866 506.996)" clip-path="url(#clip-path)">
        <ellipse id="Ellipse_271" data-name="Ellipse 271" cx="19" cy="18.5" rx="19" ry="18.5" transform="translate(-13.983 -18.448)" fill="#fce8d2" opacity="0.25"/>
      </g>
    </g>
  </g>
</svg>
