<svg xmlns="http://www.w3.org/2000/svg" xmlns:xlink="http://www.w3.org/1999/xlink" width="68" height="68" viewBox="0 0 68 68">
  <defs>
    <clipPath id="clip-path">
      <path id="Path_252" data-name="Path 252" d="M431.676,199.981l-20.184-6.32a5.676,5.676,0,0,0-3.386,0l-20.184,6.32a1.745,1.745,0,0,0,0,3.362l3.519,1.1a5.877,5.877,0,0,0-1.294,3.459,2.3,2.3,0,0,0-.184,3.91l-1.847,8.472a1.174,1.174,0,0,0,1.13,1.436h4.06a1.175,1.175,0,0,0,1.13-1.436l-1.848-8.472a2.293,2.293,0,0,0-.13-3.873,3.494,3.494,0,0,1,1.5-2.708l14.151,4.431a5.683,5.683,0,0,0,3.386,0l20.185-6.32a1.745,1.745,0,0,0,0-3.363Zm-19.5,11.939a7.954,7.954,0,0,1-4.746,0l-10.494-3.285L395.906,217c0,2.607,6.22,4.72,13.893,4.72s13.893-2.113,13.893-4.72l-1.026-8.368Z" transform="translate(-386.644 -193.403)" fill="none"/>
    </clipPath>
  </defs>
  <g id="icon-profil-pendidikan" transform="translate(0 0.244)">
    <circle id="Ellipse_83" data-name="Ellipse 83" cx="34" cy="34" r="34" transform="translate(0 -0.244)" fill="#d9eeff" opacity="0.7"/>
    <g id="Group_601" data-name="Group 601" transform="translate(10.768 19.664)">
      <path id="Path_251" data-name="Path 251" d="M431.676,199.981l-20.184-6.32a5.676,5.676,0,0,0-3.386,0l-20.184,6.32a1.745,1.745,0,0,0,0,3.362l3.519,1.1a5.877,5.877,0,0,0-1.294,3.459,2.3,2.3,0,0,0-.184,3.91l-1.847,8.472a1.174,1.174,0,0,0,1.13,1.436h4.06a1.175,1.175,0,0,0,1.13-1.436l-1.848-8.472a2.293,2.293,0,0,0-.13-3.873,3.494,3.494,0,0,1,1.5-2.708l14.151,4.431a5.683,5.683,0,0,0,3.386,0l20.185-6.32a1.745,1.745,0,0,0,0-3.363Zm-19.5,11.939a7.954,7.954,0,0,1-4.746,0l-10.494-3.285L395.906,217c0,2.607,6.22,4.72,13.893,4.72s13.893-2.113,13.893-4.72l-1.026-8.368Z" transform="translate(-386.644 -193.403)" fill="#2680eb"/>
      <g id="Group_600" data-name="Group 600" transform="translate(0 0)">
        <g id="Group_599" data-name="Group 599" clip-path="url(#clip-path)">
          <ellipse id="Ellipse_86" data-name="Ellipse 86" cx="15.124" cy="15.415" rx="15.124" ry="15.415" transform="translate(-7.222 -10.337)" fill="#6bb1fe" opacity="0.5"/>
        </g>
      </g>
    </g>
  </g>
</svg>
