<svg id="icon-side-nav-rombel" xmlns="http://www.w3.org/2000/svg" xmlns:xlink="http://www.w3.org/1999/xlink" width="30" height="30" viewBox="0 0 30 30">
  <defs>
    <clipPath id="clip-path">
      <path id="Path_38502" data-name="Path 38502" d="M2.853,1.9H16.168V12.364h1.9V1.189A1.19,1.19,0,0,0,16.882,0H2.14A1.19,1.19,0,0,0,.951,1.189V12.364h1.9ZM18.546,13.315h-4.28v-1.9H8.56v1.9H.476A.475.475,0,0,0,0,13.791v.951a.475.475,0,0,0,.476.476H18.546a.475.475,0,0,0,.476-.476v-.951A.475.475,0,0,0,18.546,13.315Z" transform="translate(5.489 7.782)" fill="#2680eb"/>
    </clipPath>
  </defs>
  <circle id="Ellipse_302" data-name="Ellipse 302" cx="15" cy="15" r="15" fill="#d9eeff" opacity="0.4"/>
  <g id="Group_4766" data-name="Group 4766">
    <path id="Path_38501" data-name="Path 38501" d="M2.853,1.9H16.168V12.364h1.9V1.189A1.19,1.19,0,0,0,16.882,0H2.14A1.19,1.19,0,0,0,.951,1.189V12.364h1.9ZM18.546,13.315h-4.28v-1.9H8.56v1.9H.476A.475.475,0,0,0,0,13.791v.951a.475.475,0,0,0,.476.476H18.546a.475.475,0,0,0,.476-.476v-.951A.475.475,0,0,0,18.546,13.315Z" transform="translate(5.489 7.782)" fill="#2680eb"/>
    <g id="Mask_Group_1551" data-name="Mask Group 1551" clip-path="url(#clip-path)">
      <circle id="Ellipse_689" data-name="Ellipse 689" cx="9.111" cy="9.111" r="9.111" transform="translate(-1.224 0.582)" fill="#6bb1fe" opacity="0.5"/>
    </g>
  </g>
</svg>
