<svg xmlns="http://www.w3.org/2000/svg" xmlns:xlink="http://www.w3.org/1999/xlink" width="51" height="51" viewBox="0 0 51 51">
  <defs>
    <clipPath id="clip-path">
      <path id="Union_2" data-name="Union 2" d="M4.015,28.1A4.015,4.015,0,0,1,0,24.089V4.014A4.014,4.014,0,0,1,4.015,0H27.1a3.011,3.011,0,0,1,3.011,3.011,1,1,0,0,1-1,1H5.018a1,1,0,0,0,0,2.008H28.931a3.106,3.106,0,0,1,3.187,3.011V25.092A3.106,3.106,0,0,1,28.931,28.1ZM7.779,17.146A8.28,8.28,0,1,0,16.06,8.865,8.279,8.279,0,0,0,7.779,17.146Zm1.54.063a6.74,6.74,0,0,1,6.567-6.738l.173,0h0l.17,0a6.74,6.74,0,1,1-6.913,6.738Zm7.516-1.4a.5.5,0,0,0-.152.382v4.053a.473.473,0,0,0,.159.372.612.612,0,0,0,.419.14.566.566,0,0,0,.393-.133.456.456,0,0,0,.149-.356v-1.4a1.1,1.1,0,0,0,.464.427,1.459,1.459,0,0,0,.671.152,1.492,1.492,0,0,0,1.407-.886,2.274,2.274,0,0,0,.2-.991,2.321,2.321,0,0,0-.2-1,1.6,1.6,0,0,0-.571-.676,1.491,1.491,0,0,0-.835-.241,1.453,1.453,0,0,0-.683.159,1.136,1.136,0,0,0-.467.442V16.19a.511.511,0,0,0-.149-.382.551.551,0,0,0-.4-.144A.562.562,0,0,0,16.834,15.808Zm-3.522,1.541a.674.674,0,0,1,.356.086.883.883,0,0,1,.267.278l.979,1.454a.557.557,0,0,0,.222.208.621.621,0,0,0,.664-.067.417.417,0,0,0,.167-.341.569.569,0,0,0-.111-.319l-.564-.846a1.489,1.489,0,0,0-.338-.375.977.977,0,0,0-.4-.175,1.6,1.6,0,0,0,.942-.527,1.51,1.51,0,0,0,.335-1,1.455,1.455,0,0,0-.472-1.169,2.084,2.084,0,0,0-1.391-.4H12.109a.491.491,0,0,0-.541.542v4.157a.537.537,0,0,0,.579.579.552.552,0,0,0,.412-.156.583.583,0,0,0,.152-.423v-1.5ZM18,18.317a1.494,1.494,0,0,1,0-1.544.736.736,0,0,1,.609-.271.724.724,0,0,1,.608.278,1.261,1.261,0,0,1,.215.784,1.178,1.178,0,0,1-.215.76A.827.827,0,0,1,18,18.317ZM12.7,16.472v-1.44H13.8a1.192,1.192,0,0,1,.72.171.785.785,0,0,1,0,1.094,1.177,1.177,0,0,1-.72.175Z" fill="#2680eb" stroke="rgba(0,0,0,0)" stroke-miterlimit="10" stroke-width="1"/>
    </clipPath>
  </defs>
  <g id="icon-total-saldo" transform="translate(-165 -197)">
    <circle id="Ellipse_111" data-name="Ellipse 111" cx="25.5" cy="25.5" r="25.5" transform="translate(165 197)" fill="#d9eeff" opacity="0.7"/>
    <g id="Group_853" data-name="Group 853" transform="translate(1.561 -0.447)">
      <g id="Group_851" data-name="Group 851" transform="translate(172.441 208.448)">
        <path id="Path_308" data-name="Path 308" d="M1572.535,38.022h-23.913a1,1,0,0,1,0-2.007h24.089a1,1,0,0,0,1-1A3.011,3.011,0,0,0,1570.7,32h-23.085a4.014,4.014,0,0,0-4.015,4.015V56.089a4.014,4.014,0,0,0,4.015,4.015h24.917a3.106,3.106,0,0,0,3.187-3.011V41.033A3.106,3.106,0,0,0,1572.535,38.022Zm-12.872,19.4a8.281,8.281,0,1,1,8.281-8.281A8.279,8.279,0,0,1,1559.662,57.426Z" transform="translate(-1543.603 -32)" fill="#2680eb"/>
        <path id="Path_309" data-name="Path 309" d="M1828,295.06a.733.733,0,0,0-.609.271,1.222,1.222,0,0,0-.215.776,1.208,1.208,0,0,0,.215.768.733.733,0,0,0,.609.271.741.741,0,0,0,.608-.264,1.175,1.175,0,0,0,.215-.761,1.254,1.254,0,0,0-.215-.783A.724.724,0,0,0,1828,295.06Z" transform="translate(-1809.384 -278.558)" fill="#2680eb"/>
        <path id="Path_310" data-name="Path 310" d="M1699.064,198.874l-.17,0h0l-.173,0a6.74,6.74,0,1,0,.345,0Zm-.429,8.837a.62.62,0,0,1-.664.067.558.558,0,0,1-.222-.208l-.98-1.455a.879.879,0,0,0-.267-.278.68.68,0,0,0-.356-.085h-.6v1.5a.581.581,0,0,1-.152.423.549.549,0,0,1-.412.156.538.538,0,0,1-.579-.579v-4.157a.491.491,0,0,1,.542-.542h1.863a2.087,2.087,0,0,1,1.392.4,1.457,1.457,0,0,1,.471,1.169,1.511,1.511,0,0,1-.334,1,1.6,1.6,0,0,1-.943.527.978.978,0,0,1,.4.174,1.5,1.5,0,0,1,.338.375l.564.846a.567.567,0,0,1,.111.319A.418.418,0,0,1,1698.635,207.712Zm4.543-.753a1.494,1.494,0,0,1-1.406.887,1.467,1.467,0,0,1-.672-.152,1.105,1.105,0,0,1-.464-.427v1.4a.456.456,0,0,1-.148.356.567.567,0,0,1-.394.134.61.61,0,0,1-.419-.141.471.471,0,0,1-.16-.371v-4.053a.5.5,0,0,1,.152-.382.563.563,0,0,1,.4-.145.55.55,0,0,1,.4.145.51.51,0,0,1,.148.382v.059a1.135,1.135,0,0,1,.468-.442,1.449,1.449,0,0,1,.683-.16,1.486,1.486,0,0,1,.835.241,1.6,1.6,0,0,1,.572.675,2.323,2.323,0,0,1,.2,1A2.273,2.273,0,0,1,1703.178,206.958Z" transform="translate(-1682.833 -188.404)" fill="#2680eb"/>
        <path id="Path_311" data-name="Path 311" d="M1748.053,272.352a.649.649,0,0,0-.223-.549,1.2,1.2,0,0,0-.72-.171H1746v1.44h1.106a1.176,1.176,0,0,0,.72-.174A.651.651,0,0,0,1748.053,272.352Z" transform="translate(-1733.307 -256.6)" fill="#2680eb"/>
      </g>
      <g id="Mask_Group_6" data-name="Mask Group 6" transform="translate(172.439 208.447)" clip-path="url(#clip-path)">
        <circle id="Ellipse_112" data-name="Ellipse 112" cx="15.244" cy="15.244" r="15.244" transform="translate(-12.873 -7.725)" fill="#6bb1fe" opacity="0.5"/>
      </g>
    </g>
  </g>
</svg>
