<svg xmlns="http://www.w3.org/2000/svg" xmlns:xlink="http://www.w3.org/1999/xlink" width="16.978" height="18" viewBox="0 0 16.978 18">
  <defs>
    <clipPath id="clip-path">
      <path id="Union_72" data-name="Union 72" d="M1.574,17A1.584,1.584,0,0,1,0,15.406V14.025A4.435,4.435,0,0,1,4.406,9.563h.548a5.637,5.637,0,0,0,4.778,0h.548a4.4,4.4,0,0,1,.461.024,1.4,1.4,0,0,0-1.1,1.356V11H9.112a1.393,1.393,0,0,0-1.364,1.383v3.836A1.386,1.386,0,0,0,7.994,17Zm7.538-.063a.731.731,0,0,1-.708-.719V14.059h2.839v.719a.238.238,0,0,0,.236.24H12.9a.237.237,0,0,0,.237-.24v-.719h2.841v2.158a.734.734,0,0,1-.711.719ZM8.4,13.58v-1.2a.731.731,0,0,1,.708-.719H10.3v-.719a.732.732,0,0,1,.71-.72h2.365a.733.733,0,0,1,.711.72v.719h1.184a.734.734,0,0,1,.711.719v1.2Zm2.839-1.918h1.893v-.479H11.244ZM3.148,4.25a4.2,4.2,0,1,1,8.39,0,4.2,4.2,0,1,1-8.39,0Z" transform="translate(0 0)" fill="#2680eb" stroke="rgba(0,0,0,0)" stroke-miterlimit="10" stroke-width="1"/>
    </clipPath>
  </defs>
  <g id="icon-alumni-bekerja" transform="translate(-734.405 -484.808)">
    <path id="Union_71" data-name="Union 71" d="M1.574,17A1.584,1.584,0,0,1,0,15.406V14.025A4.435,4.435,0,0,1,4.405,9.563h.548a5.637,5.637,0,0,0,4.778,0h.548a4.4,4.4,0,0,1,.461.024,1.4,1.4,0,0,0-1.1,1.356V11H9.112a1.393,1.393,0,0,0-1.364,1.383v3.836A1.386,1.386,0,0,0,7.994,17Zm7.538-.063a.731.731,0,0,1-.708-.719V14.059h2.839v.719a.238.238,0,0,0,.236.24H12.9a.237.237,0,0,0,.237-.24v-.719h2.841v2.158a.734.734,0,0,1-.71.719ZM8.4,13.58v-1.2a.731.731,0,0,1,.708-.719H10.3v-.719a.732.732,0,0,1,.71-.72h2.365a.733.733,0,0,1,.711.72v.719h1.184a.734.734,0,0,1,.71.719v1.2Zm2.839-1.918h1.893v-.479H11.244ZM3.148,4.25a4.2,4.2,0,1,1,8.39,0,4.2,4.2,0,1,1-8.39,0Z" transform="translate(734.905 485.308)" fill="#2680eb" stroke="rgba(0,0,0,0)" stroke-miterlimit="10" stroke-width="1"/>
    <g id="Mask_Group_1438" data-name="Mask Group 1438" transform="translate(734.905 485.308)" clip-path="url(#clip-path)">
      <path id="Path_37135" data-name="Path 37135" d="M14.282,0A14.282,14.282,0,1,1,0,14.282,14.282,14.282,0,0,1,14.282,0Z" transform="translate(-20.576 -10.283)" fill="#6bb1fe" opacity="0.5"/>
    </g>
  </g>
</svg>
