<svg id="icon-biaya-tambahan-ppdb" xmlns="http://www.w3.org/2000/svg" xmlns:xlink="http://www.w3.org/1999/xlink" width="30" height="30" viewBox="0 0 30 30">
  <defs>
    <clipPath id="clip-path">
      <path id="Path_250" data-name="Path 250" d="M170.387,183.647a.487.487,0,0,0,.486-.486v-1.619a.487.487,0,0,0-.486-.486h-.81v-1.943a1.944,1.944,0,0,0-1.943-1.943H154.679a1.944,1.944,0,0,0-1.943,1.943v16.841a1.944,1.944,0,0,0,1.943,1.943h12.955a1.944,1.944,0,0,0,1.943-1.943v-1.943h.81a.487.487,0,0,0,.486-.486v-1.619a.487.487,0,0,0-.486-.486h-.81v-2.591h.81a.487.487,0,0,0,.486-.486v-1.619a.487.487,0,0,0-.486-.486h-.81v-2.591Zm-9.23-1.3a2.591,2.591,0,1,1-2.591,2.591A2.593,2.593,0,0,1,161.157,182.352Zm4.534,9.586a.849.849,0,0,1-.907.777h-7.255a.849.849,0,0,1-.907-.777v-.777a2.549,2.549,0,0,1,2.721-2.332h.2a4.169,4.169,0,0,0,3.222,0h.2a2.549,2.549,0,0,1,2.72,2.332Z" transform="translate(-152.736 -177.17)" fill="none"/>
    </clipPath>
    <clipPath id="clip-path-2">
      <path id="Union_1" data-name="Union 1" d="M.564,12.754A.953.953,0,0,1,0,11.871V2.362a.954.954,0,0,1,.966-.953,1.024,1.024,0,0,1,.31.049,9.093,9.093,0,0,0,2.777.411C7.745,1.868,11.436,0,15.127,0a8.876,8.876,0,0,1,3.489.673h0a.954.954,0,0,1,.565.883v9.508a.954.954,0,0,1-.967.953,1.019,1.019,0,0,1-.31-.049,9.1,9.1,0,0,0-2.777-.411c-3.691,0-7.383,1.869-11.074,1.869A8.871,8.871,0,0,1,.564,12.754Zm5.359-6.04A3.667,3.667,0,1,0,9.59,3.047,3.667,3.667,0,0,0,5.924,6.713Zm4.146,1.7A.279.279,0,0,1,9.975,8.2V6.218a.3.3,0,0,1,.089-.224.331.331,0,0,1,.239-.085.345.345,0,0,1,.232.076.285.285,0,0,1,.1.2.543.543,0,0,1,.232-.208.8.8,0,0,1,.762.047.812.812,0,0,1,.29.345,1.192,1.192,0,0,1,.1.509,1.154,1.154,0,0,1-.1.5.758.758,0,0,1-.715.451.744.744,0,0,1-.326-.072.578.578,0,0,1-.232-.193V8.21a.267.267,0,0,1-.091.211.349.349,0,0,1-.238.079A.358.358,0,0,1,10.069,8.416Zm.66-1.892a.553.553,0,0,0-.094.347.538.538,0,0,0,.094.341A.326.326,0,0,0,11,7.331a.319.319,0,0,0,.266-.117.53.53,0,0,0,.092-.336.57.57,0,0,0-.094-.353.356.356,0,0,0-.536,0ZM9.156,7.8a.377.377,0,0,1-.136-.125L8.53,6.954a.387.387,0,0,0-.111-.111.257.257,0,0,0-.138-.036H8.036v.675a.343.343,0,0,1-.091.251.332.332,0,0,1-.249.092.319.319,0,0,1-.343-.343V5.464a.29.29,0,0,1,.321-.321h.947a1.088,1.088,0,0,1,.726.209.755.755,0,0,1,.243.606.8.8,0,0,1-.166.511.813.813,0,0,1-.468.281.512.512,0,0,1,.217.083.774.774,0,0,1,.183.193l.234.336a.351.351,0,0,1,.068.192.25.25,0,0,1-.1.2.357.357,0,0,1-.232.081A.362.362,0,0,1,9.156,7.8ZM8.028,6.286h.483a.582.582,0,0,0,.33-.072.268.268,0,0,0,.1-.234.278.278,0,0,0-.1-.24.57.57,0,0,0-.33-.074H8.028Z" transform="translate(0 0)" fill="#2680eb" stroke="rgba(0,0,0,0)" stroke-miterlimit="10" stroke-width="1"/>
    </clipPath>
  </defs>
  <circle id="Ellipse_84" data-name="Ellipse 84" cx="15" cy="15" r="15" fill="#d9eeff" opacity="0.7"/>
  <g id="Group_3732" data-name="Group 3732" transform="translate(6.454 4.005)">
    <g id="Group_4639" data-name="Group 4639" transform="translate(-374.072 -464.461)">
      <g id="Group_717" data-name="Group 717" transform="translate(372.728 468.743)">
        <path id="Path_279" data-name="Path 279" d="M787.784,331.915a.777.777,0,0,0-.183-.192.509.509,0,0,0-.217-.083.815.815,0,0,0,.468-.281.8.8,0,0,0,.166-.511.755.755,0,0,0-.244-.606,1.088,1.088,0,0,0-.726-.209H786.1a.29.29,0,0,0-.321.321v2.018a.319.319,0,0,0,.343.343.332.332,0,0,0,.249-.092.344.344,0,0,0,.091-.251V331.7h.245a.259.259,0,0,1,.138.036.391.391,0,0,1,.111.111l.49.717a.373.373,0,0,0,.136.125.37.37,0,0,0,.4-.04.251.251,0,0,0,.1-.2.351.351,0,0,0-.068-.192Zm-.515-.811a.581.581,0,0,1-.33.072h-.483v-.619h.483a.57.57,0,0,1,.33.074.278.278,0,0,1,.1.24A.268.268,0,0,1,787.269,331.1Z" transform="translate(-778.428 -324.889)" fill="#2680eb"/>
        <path id="Path_280" data-name="Path 280" d="M874.925,355.458a.794.794,0,0,0-.762-.047.54.54,0,0,0-.232.207.286.286,0,0,0-.1-.2.345.345,0,0,0-.232-.075.331.331,0,0,0-.24.085.3.3,0,0,0-.089.224v1.981a.279.279,0,0,0,.094.217.358.358,0,0,0,.249.085.348.348,0,0,0,.238-.079.267.267,0,0,0,.09-.211V357a.578.578,0,0,0,.232.192.745.745,0,0,0,.326.072.759.759,0,0,0,.715-.451,1.154,1.154,0,0,0,.1-.5,1.192,1.192,0,0,0-.1-.509A.812.812,0,0,0,874.925,355.458Zm-.362,1.19a.319.319,0,0,1-.266.117.326.326,0,0,1-.272-.119.538.538,0,0,1-.094-.341.553.553,0,0,1,.094-.347.356.356,0,0,1,.536,0,.57.57,0,0,1,.094.353A.532.532,0,0,1,874.563,356.648Z" transform="translate(-863.296 -349.434)" fill="#2680eb"/>
        <path id="Path_281" data-name="Path 281" d="M559.043,159.105h0a8.873,8.873,0,0,0-3.489-.673c-3.691,0-7.382,1.868-11.074,1.868a9.091,9.091,0,0,1-2.777-.411,1.027,1.027,0,0,0-.31-.049.954.954,0,0,0-.966.953V170.3a.953.953,0,0,0,.565.883,8.87,8.87,0,0,0,3.489.673c3.691,0,7.383-1.869,11.074-1.869a9.092,9.092,0,0,1,2.777.411,1.024,1.024,0,0,0,.31.049.954.954,0,0,0,.966-.953v-9.508A.954.954,0,0,0,559.043,159.105Zm-9.025,9.707a3.667,3.667,0,1,1,3.667-3.667A3.667,3.667,0,0,1,550.017,168.812Z" transform="translate(-540.427 -158.432)" fill="#2680eb"/>
      </g>
      <g id="Mask_Group_3" data-name="Mask Group 3" transform="translate(372.727 468.743)" clip-path="url(#clip-path-2)">
        <ellipse id="Ellipse_94" data-name="Ellipse 94" cx="9.304" cy="8.963" rx="9.304" ry="8.963" transform="translate(-9.059 -6.92)" fill="#6bb1fe" opacity="0.5"/>
      </g>
    </g>
  </g>
</svg>
