<svg xmlns="http://www.w3.org/2000/svg" width="50" height="50" viewBox="0 0 50 50">
  <g id="icon-kegiatan" transform="translate(-255 -512)">
    <circle id="Ellipse_626" data-name="Ellipse 626" cx="25" cy="25" r="25" transform="translate(255 512)" fill="#2680eb"/>
    <path id="Path_38468" data-name="Path 38468" d="M4.313,2.875H24.438V18.688h2.875V1.8a1.8,1.8,0,0,0-1.8-1.8H3.234a1.8,1.8,0,0,0-1.8,1.8V18.688H4.313Zm23.719,17.25H21.563V17.25H12.938v2.875H.719A.719.719,0,0,0,0,20.844v1.438A.719.719,0,0,0,.719,23H28.031a.719.719,0,0,0,.719-.719V20.844A.719.719,0,0,0,28.031,20.125Z" transform="translate(265.768 526)" fill="#fff"/>
  </g>
</svg>
