<svg xmlns="http://www.w3.org/2000/svg" width="60" height="60" viewBox="0 0 60 60">
  <g id="icon-help-close" transform="translate(-292 -583)">
    <path id="Path_40164" data-name="Path 40164" d="M30,0A30,30,0,1,1,0,30,30,30,0,0,1,30,0Z" transform="translate(292 583)" fill="#2680eb"/>
    <path id="times-solid" d="M15.1,90.95l6.226-6.226a1.957,1.957,0,0,0,0-2.767l-1.384-1.384a1.957,1.957,0,0,0-2.767,0L10.95,86.8,4.724,80.573a1.957,1.957,0,0,0-2.767,0L.573,81.957a1.957,1.957,0,0,0,0,2.767L6.8,90.95.573,97.176a1.957,1.957,0,0,0,0,2.767l1.384,1.384a1.957,1.957,0,0,0,2.767,0L10.95,95.1l6.226,6.226a1.957,1.957,0,0,0,2.767,0l1.384-1.384a1.957,1.957,0,0,0,0-2.767Z" transform="translate(311.05 522.05)" fill="#fff"/>
  </g>
</svg>
