<svg xmlns="http://www.w3.org/2000/svg" xmlns:xlink="http://www.w3.org/1999/xlink" width="180" height="180" viewBox="0 0 180 180">
  <defs>
    <clipPath id="clip-path">
      <path id="Union_16" data-name="Union 16" d="M95.2,122.5c-7.334-4.55-14.4-8.931-27.973,1.2-13.579-10.134-20.64-5.754-27.976-1.2-3.953,2.453-7.991,4.959-13.271,4.815l.315-2c5.844.093,10.151-2.413,14.374-4.873,6.7-3.9,13.164-7.663,25.81,1.336l.748.533.745-.533c12.647-9,19.116-5.234,25.81-1.336,4.224,2.46,8.532,4.965,14.374,4.873l.315,2c-.146,0-.29.006-.434.006C102.972,127.318,99.047,124.883,95.2,122.5Zm-.122-5.2c-7.293-4.245-14.343-8.348-27.851.94-13.507-9.288-20.559-5.185-27.851-.94-3.811,2.217-7.695,4.478-12.686,4.522l.951-6.046c4.307-.539,7.772-2.322,11.237-4.107,6.916-3.56,13.832-7.122,27.7.938l.647.375.647-.375c13.869-8.059,20.786-4.5,27.7-.938,3.465,1.785,6.931,3.568,11.237,4.107l.953,6.046C102.774,121.771,98.891,119.51,95.081,117.293Zm-30.573-9.654q.967.248,2.012.463l.708.871.707-.871q1.049-.216,2.012-.463-1.316.651-2.719,1.443Q65.824,108.289,64.507,107.639Zm35.88-4.65a8.222,8.222,0,0,1-2.209-1.652l-.575-.614-.8.288a7.712,7.712,0,0,1-5.5-.008,11.667,11.667,0,0,1-3.281-1.979,18.28,18.28,0,0,0,10.029-5.416A21.538,21.538,0,0,0,103.716,79.3v0l0-.1c.1-4.1-1.9-8.111-3.654-11.612-1.305-2.611-2.453-4.907-2.271-6.348h0l0-.023h0a5.333,5.333,0,0,1,.137-.67,6.115,6.115,0,0,1,2.974-3.63,7.069,7.069,0,0,1,4.261-.968,3.553,3.553,0,0,1,.424.083c.737.406,1.487.835,2.241,1.271,5.789,3.328,11.974,6.884,18.531,3.378l0,0a9.987,9.987,0,0,0,1.892-1.306,9.686,9.686,0,0,0,1.719-1.987c1.462-2.234,2.349-5.567,1.628-10.516l.416.589c2.671,3.785,4.851,6.874,4.374,10.855l0,.01a12.625,12.625,0,0,1-.562,2.488,12.76,12.76,0,0,1-1.112,2.434c-2.412,4.075-7.469,7.32-15.982,6.591l-.219,2.489c7.657.656,12.914-1.6,16.191-4.951a10.206,10.206,0,0,1-3.263,7.136c-2.194,1.991-5.525,3.3-10.025,3.842a44.436,44.436,0,0,1-6.351.274l-.049,2.489a47.115,47.115,0,0,0,6.708-.284c4.89-.591,8.616-2.049,11.2-4.288-.01.183-.025.364-.043.543a10.012,10.012,0,0,1-3.447,6.828c-2.079,1.781-5.111,2.978-9.115,3.463a42.343,42.343,0,0,1-9.112-.007l-.249,2.479a44.84,44.84,0,0,0,9.671.006,23.249,23.249,0,0,0,7.105-1.918c-.092.263-.189.522-.292.775h0a15.208,15.208,0,0,1-1.662,3.05c-3.389,4.8-9.514,7.262-17.321,6.529l-.239,2.479a27.3,27.3,0,0,0,8.53-.458,16.893,16.893,0,0,1-10.764,3.93A12.175,12.175,0,0,1,100.388,102.989Zm-74.631,1.02a16.4,16.4,0,0,1-8.055-3.7,27.305,27.305,0,0,0,8.531.458l-.238-2.479c-7.808.733-13.932-1.734-17.321-6.529a15.253,15.253,0,0,1-1.662-3.05h0c-.1-.253-.2-.512-.292-.775a23.243,23.243,0,0,0,7.1,1.918,44.856,44.856,0,0,0,9.672-.006l-.251-2.479a42.334,42.334,0,0,1-9.112.007c-4-.485-7.036-1.682-9.116-3.463a10.008,10.008,0,0,1-3.447-6.828c-.018-.179-.033-.36-.043-.543,2.588,2.238,6.314,3.7,11.2,4.288a47.127,47.127,0,0,0,6.708.284L19.39,78.62a44.437,44.437,0,0,1-6.352-.274C8.537,77.8,5.207,76.495,3.011,74.5A10.2,10.2,0,0,1-.251,67.368c3.277,3.349,8.534,5.607,16.192,4.951l-.219-2.489C7.208,70.559,2.15,67.315-.261,63.239a12.932,12.932,0,0,1-1.113-2.434,12.687,12.687,0,0,1-.562-2.488h0v-.01c-.477-3.981,1.7-7.07,4.373-10.855l.415-.589c-.719,4.949.169,8.282,1.629,10.516A9.689,9.689,0,0,0,6.2,59.368a9.953,9.953,0,0,0,1.891,1.306l0,0c6.558,3.506,12.741-.049,18.53-3.378.754-.436,1.5-.865,2.24-1.271a3.581,3.581,0,0,1,.426-.083,7.067,7.067,0,0,1,4.261.968,6.119,6.119,0,0,1,2.974,3.63,5.031,5.031,0,0,1,.137.67c.2,1.432-.954,3.742-2.267,6.371-1.741,3.479-3.733,7.463-3.657,11.534V79.2l0,.1v0A21.534,21.534,0,0,0,36.4,93.607,18.284,18.284,0,0,0,46.43,99.023,11.663,11.663,0,0,1,43.15,101a7.712,7.712,0,0,1-5.5.008l-.8-.288-.576.614a8.2,8.2,0,0,1-2.208,1.652,12.175,12.175,0,0,1-5.6,1.249A16.446,16.446,0,0,1,25.757,104.008Zm39.5-3.179c-.806-.831-1.662-1.639-2.585-2.419a18.849,18.849,0,0,0,1.392-2.484A24.842,24.842,0,0,0,65.361,92.5a4.784,4.784,0,0,0,.762-.557l.086-.078L67.226,93.2l1.018-1.337.086.079a4.832,4.832,0,0,0,.763.557,24.727,24.727,0,0,0,1.291,3.428,18.844,18.844,0,0,0,1.391,2.484c-.923.78-1.778,1.589-2.585,2.419-.689.711-1.339,1.434-1.964,2.165C66.6,102.263,65.951,101.541,65.262,100.83Zm5.776,1.718a31.621,31.621,0,0,1,3.253-2.937l.976-.764-.755-.968A15.375,15.375,0,0,1,72.7,94.892a22.87,22.87,0,0,1-1.3-3.577l-.163-.589-.584-.237a2.159,2.159,0,0,1-.621-.393l-.01-.008.385.125.532-.4a17.5,17.5,0,0,0,5.694-7.735,14.958,14.958,0,0,0,.545-1.819,13.313,13.313,0,0,0,.3-1.865l0-.021c.111-1.361-1.079-3.381-2.627-6.009-2.973-5.046-7.426-12.61-5.347-19.371h0l.022-.068-2.106-1.25c-3.3,3.185-4.064,6.979-3.807,10.836l-2.21-.224a14.625,14.625,0,0,0-1.012,5.147,14.663,14.663,0,0,1-.5,3.372v.01h0A10.939,10.939,0,0,1,57.7,73.958c-1.364,1.541-2.641,2.984-2.659,5.348a12.342,12.342,0,0,0,3.318,8.359,11.207,11.207,0,0,0,1.34,1.212,10.046,10.046,0,0,0,1.531.96c.074.038.148.074.219.108l.957.058a15.285,15.285,0,0,0,2.521-1.063c.229-.122.449-.25.664-.384L65,89.423a3.673,3.673,0,0,1-.577.674,2.159,2.159,0,0,1-.621.393l-.583.237-.164.589a22.87,22.87,0,0,1-1.3,3.577,15.419,15.419,0,0,1-1.811,2.986l-.757.968.977.764a31.7,31.7,0,0,1,3.252,2.937l.255.264a22.931,22.931,0,0,1-4.563-1.894,17.908,17.908,0,0,1-5.333-4.581l-.4-.49-.636.017-.085,0a16.159,16.159,0,0,1-12.4-4.956,19.067,19.067,0,0,1-4.983-12.677v-.095l0-.064c-.064-3.477,1.782-7.17,3.4-10.4,1.5-2.993,2.813-5.624,2.507-7.8a7.82,7.82,0,0,0-.2-.971,8.6,8.6,0,0,0-4.148-5.143,10.422,10.422,0,0,0-1.6-.743c2.827-.918,5.43-.757,7.69,1.839,2.951,3.389,1.873,7.161.887,10.612a21.983,21.983,0,0,0-1,4.732v.005l0,.035A8.379,8.379,0,0,0,44.855,75.9a4.236,4.236,0,0,0,.742.646,2.33,2.33,0,0,0,1.03.4l.041.005.031,0h.07l.082,0h.034c1.65-.01,5.327-2.049,8.547-6.2a32.033,32.033,0,0,0,6.383-18.072q.065-1.176.058-2.468l-.047-7.6,4.466,4.743.936.994.936-.994,4.468-4.743-.049,7.6q-.008,1.291.059,2.468a32.027,32.027,0,0,0,6.384,18.072c3.219,4.151,6.9,6.19,8.546,6.2h.036l.082,0h.069l.032,0,.04-.005a2.329,2.329,0,0,0,1.031-.4A4.2,4.2,0,0,0,89.6,75.9a8.383,8.383,0,0,0,2.037-5.658l0-.035v-.005a22.041,22.041,0,0,0-1-4.732c-.985-3.451-2.064-7.222.887-10.612,2.26-2.6,4.865-2.756,7.691-1.839a10.373,10.373,0,0,0-1.6.743,8.6,8.6,0,0,0-4.15,5.143,7.818,7.818,0,0,0-.2.971v.006l-.005.039-.005.009c-.273,2.158,1.034,4.771,2.52,7.744,1.622,3.245,3.483,6.966,3.394,10.461l0,.095a19.076,19.076,0,0,1-4.983,12.677A16.154,16.154,0,0,1,81.8,95.865l-.086,0-.637-.017-.392.49a17.945,17.945,0,0,1-5.334,4.581,22.863,22.863,0,0,1-4.563,1.894ZM66.577,88.979l-.972-.432c.2-.122.386-.25.571-.382a12.489,12.489,0,0,0,1.2.782c.088.049.178.1.27.149a3.752,3.752,0,0,0-.411.257A3.826,3.826,0,0,0,66.577,88.979Zm-5.311-2.073a8.289,8.289,0,0,1-1.03-.929,9.836,9.836,0,0,1-2.653-6.661c.011-1.433.994-2.542,2.042-3.728a12.877,12.877,0,0,0,2.636-3.883V71.7l0,0,0,0a15.475,15.475,0,0,0,.659-4c.155.38.313.757.471,1.134,1.444,3.454,2.891,6.908,2.667,11.3l2.431.571c1.238-2.671.292-6.3-.765-10.337-1.033-3.948-2.179-8.343-1.24-12.183.5,5.8,3.778,11.366,6.167,15.419,1.321,2.246,2.337,3.969,2.288,4.574l0,.022a10.613,10.613,0,0,1-.235,1.513,12.677,12.677,0,0,1-.457,1.527,15.043,15.043,0,0,1-4.314,6.168,10.057,10.057,0,0,1-1.283-.619,9.791,9.791,0,0,1-1.626-1.16l-.859-.754-.85.765A8.247,8.247,0,0,1,63.7,86.756a12.207,12.207,0,0,1-1.595.71A7.561,7.561,0,0,1,61.266,86.907ZM83.048,68.258A29.493,29.493,0,0,1,77.2,51.908a23.87,23.87,0,0,1,6.285,7.915,17.543,17.543,0,0,1,1.337,10.486A24.411,24.411,0,0,1,83.048,68.258ZM50.97,59.822a23.881,23.881,0,0,1,6.285-7.915,29.493,29.493,0,0,1-5.845,16.35,24.746,24.746,0,0,1-1.777,2.05A17.543,17.543,0,0,1,50.97,59.822ZM76.75,46.535l.072-10.654a4.934,4.934,0,0,0,.695-4.561,5.184,5.184,0,0,0-.431-.966v-.006a5.218,5.218,0,0,0-.644-.884l-.019-.024-.007-.012-7.992-8.823-1.192-1.319-1.2,1.319-7.992,8.823A5.272,5.272,0,0,0,56.9,34.481a4.628,4.628,0,0,0,.455.993,4.176,4.176,0,0,0,.28.405l.073,10.657a35.67,35.67,0,0,0-8.272,7.652L41.62,16.247h0A21.413,21.413,0,0,0,38.473,8.19a8.359,8.359,0,0,0-3.008-2.685A6.508,6.508,0,0,0,33.3,4.85a16.79,16.79,0,0,1,3.515-2.443,5.777,5.777,0,0,1,3.416-.723,4.273,4.273,0,0,1,2.654,1.757A16.22,16.22,0,0,1,45.5,10.036l4.325,20.627,3.02-.457L47.685,1.458C47.389-.183,49.1-.97,51.137-1.906a25.53,25.53,0,0,0,3.6-1.9l3.6,28.385,3.056-.159L61.114-1.627c-.017-1.38.962-1.934,2.122-2.591a10.488,10.488,0,0,0,4-3.339,10.453,10.453,0,0,0,3.992,3.339c1.159.657,2.137,1.211,2.122,2.591l-.283,26.046,3.057.159,3.6-28.385a25.7,25.7,0,0,0,3.6,1.9c2.035.936,3.746,1.724,3.45,3.364l-5.16,28.748,3.02.457,4.325-20.627a16.2,16.2,0,0,1,2.622-6.594,4.271,4.271,0,0,1,2.652-1.757,5.78,5.78,0,0,1,3.417.723,16.808,16.808,0,0,1,3.519,2.442,6.508,6.508,0,0,0-2.174.656A8.39,8.39,0,0,0,95.985,8.19a21.428,21.428,0,0,0-3.144,8.058h0l-7.816,37.94A35.73,35.73,0,0,0,76.75,46.535Zm-15.217-10.9v0l-.014-.014a1.681,1.681,0,0,1-.24-.341,2.023,2.023,0,0,1-.17-.412,2.683,2.683,0,0,1,.481-2.389L67.227,25.6l5.638,6.882h0l.011.013a2.516,2.516,0,0,1,.254.4h0a2.808,2.808,0,0,1,.186.463,2.356,2.356,0,0,1-.4,2.279l-5.694,6.047Z" fill="#2680eb" stroke="#2680eb" stroke-miterlimit="10" stroke-width="0.25"/>
    </clipPath>
  </defs>
  <g id="icon-rpp-kemendikbud" transform="translate(-1255.37 -260.37)">
    <circle id="Ellipse_273" data-name="Ellipse 273" cx="90" cy="90" r="90" transform="translate(1255.37 260.37)" fill="#d9eeff" opacity="0.7"/>
    <g id="Group_1495" data-name="Group 1495" transform="translate(1277.637 290.162)">
      <path id="Union_15" data-name="Union 15" d="M95.2,122.5c-7.334-4.55-14.4-8.931-27.973,1.2-13.579-10.134-20.64-5.754-27.976-1.2-3.953,2.453-7.991,4.959-13.271,4.815l.315-2c5.844.093,10.151-2.413,14.374-4.873,6.7-3.9,13.164-7.663,25.81,1.336l.748.533.745-.533c12.647-9,19.116-5.234,25.81-1.336,4.224,2.46,8.532,4.965,14.374,4.873l.315,2c-.146,0-.29.006-.434.006C102.972,127.318,99.047,124.883,95.2,122.5Zm-.122-5.2c-7.293-4.245-14.343-8.348-27.851.94-13.507-9.288-20.559-5.185-27.851-.94-3.811,2.217-7.695,4.478-12.686,4.522l.951-6.046c4.307-.539,7.772-2.322,11.237-4.107,6.916-3.56,13.832-7.122,27.7.938l.647.375.647-.375c13.869-8.059,20.786-4.5,27.7-.938,3.465,1.785,6.931,3.568,11.237,4.107l.953,6.046C102.774,121.771,98.891,119.51,95.081,117.293Zm-30.573-9.654q.967.248,2.012.463l.708.871.707-.871q1.049-.216,2.012-.463-1.316.651-2.719,1.443Q65.824,108.289,64.507,107.639Zm35.88-4.65a8.222,8.222,0,0,1-2.209-1.652l-.575-.614-.8.288a7.712,7.712,0,0,1-5.5-.008,11.667,11.667,0,0,1-3.281-1.979,18.28,18.28,0,0,0,10.029-5.416A21.538,21.538,0,0,0,103.716,79.3v0l0-.1c.1-4.1-1.9-8.111-3.654-11.612-1.305-2.611-2.453-4.907-2.271-6.348h0l0-.023h0a5.333,5.333,0,0,1,.137-.67,6.115,6.115,0,0,1,2.974-3.63,7.069,7.069,0,0,1,4.261-.968,3.553,3.553,0,0,1,.424.083c.737.406,1.487.835,2.241,1.271,5.789,3.328,11.974,6.884,18.531,3.378l0,0a9.987,9.987,0,0,0,1.892-1.306,9.686,9.686,0,0,0,1.719-1.987c1.462-2.234,2.349-5.567,1.628-10.516l.416.589c2.671,3.785,4.851,6.874,4.374,10.855l0,.01a12.625,12.625,0,0,1-.562,2.488,12.76,12.76,0,0,1-1.112,2.434c-2.412,4.075-7.469,7.32-15.982,6.591l-.219,2.489c7.657.656,12.914-1.6,16.191-4.951a10.206,10.206,0,0,1-3.263,7.136c-2.194,1.991-5.525,3.3-10.025,3.842a44.436,44.436,0,0,1-6.351.274l-.049,2.489a47.115,47.115,0,0,0,6.708-.284c4.89-.591,8.616-2.049,11.2-4.288-.01.183-.025.364-.043.543a10.012,10.012,0,0,1-3.447,6.828c-2.079,1.781-5.111,2.978-9.115,3.463a42.343,42.343,0,0,1-9.112-.007l-.249,2.479a44.84,44.84,0,0,0,9.671.006,23.249,23.249,0,0,0,7.105-1.918c-.092.263-.189.522-.292.775h0a15.208,15.208,0,0,1-1.662,3.05c-3.389,4.8-9.514,7.262-17.321,6.529l-.239,2.479a27.3,27.3,0,0,0,8.53-.458,16.893,16.893,0,0,1-10.764,3.93A12.175,12.175,0,0,1,100.388,102.989Zm-74.631,1.02a16.4,16.4,0,0,1-8.055-3.7,27.305,27.305,0,0,0,8.531.458l-.238-2.479c-7.808.733-13.932-1.734-17.321-6.529a15.253,15.253,0,0,1-1.662-3.05h0c-.1-.253-.2-.512-.292-.775a23.243,23.243,0,0,0,7.1,1.918,44.856,44.856,0,0,0,9.672-.006l-.251-2.479a42.334,42.334,0,0,1-9.112.007c-4-.485-7.036-1.682-9.116-3.463a10.008,10.008,0,0,1-3.447-6.828c-.018-.179-.033-.36-.043-.543,2.588,2.238,6.314,3.7,11.2,4.288a47.127,47.127,0,0,0,6.708.284L19.39,78.62a44.437,44.437,0,0,1-6.352-.274C8.537,77.8,5.207,76.495,3.011,74.5A10.2,10.2,0,0,1-.251,67.368c3.277,3.349,8.534,5.607,16.192,4.951l-.219-2.489C7.208,70.559,2.15,67.315-.261,63.239a12.932,12.932,0,0,1-1.113-2.434,12.687,12.687,0,0,1-.562-2.488h0v-.01c-.477-3.981,1.7-7.07,4.373-10.855l.415-.589c-.719,4.949.169,8.282,1.629,10.516A9.689,9.689,0,0,0,6.2,59.368a9.953,9.953,0,0,0,1.891,1.306l0,0c6.558,3.506,12.741-.049,18.53-3.378.754-.436,1.5-.865,2.24-1.271a3.581,3.581,0,0,1,.426-.083,7.067,7.067,0,0,1,4.261.968,6.119,6.119,0,0,1,2.974,3.63,5.031,5.031,0,0,1,.137.67c.2,1.432-.954,3.742-2.267,6.371-1.741,3.479-3.733,7.463-3.657,11.534V79.2l0,.1v0A21.534,21.534,0,0,0,36.4,93.607,18.284,18.284,0,0,0,46.43,99.023,11.663,11.663,0,0,1,43.15,101a7.712,7.712,0,0,1-5.5.008l-.8-.288-.576.614a8.2,8.2,0,0,1-2.208,1.652,12.175,12.175,0,0,1-5.6,1.249A16.446,16.446,0,0,1,25.757,104.008Zm39.5-3.179c-.806-.831-1.662-1.639-2.585-2.419a18.849,18.849,0,0,0,1.392-2.484A24.842,24.842,0,0,0,65.361,92.5a4.784,4.784,0,0,0,.762-.557l.086-.078L67.226,93.2l1.018-1.337.086.079a4.832,4.832,0,0,0,.763.557,24.727,24.727,0,0,0,1.291,3.428,18.844,18.844,0,0,0,1.391,2.484c-.923.78-1.778,1.589-2.585,2.419-.689.711-1.339,1.434-1.964,2.165C66.6,102.263,65.951,101.541,65.262,100.83Zm5.776,1.718a31.621,31.621,0,0,1,3.253-2.937l.976-.764-.755-.968A15.375,15.375,0,0,1,72.7,94.892a22.87,22.87,0,0,1-1.3-3.577l-.163-.589-.584-.237a2.159,2.159,0,0,1-.621-.393l-.01-.008.385.125.532-.4a17.5,17.5,0,0,0,5.694-7.735,14.958,14.958,0,0,0,.545-1.819,13.313,13.313,0,0,0,.3-1.865l0-.021c.111-1.361-1.079-3.381-2.627-6.009-2.973-5.046-7.426-12.61-5.347-19.371h0l.022-.068-2.106-1.25c-3.3,3.185-4.064,6.979-3.807,10.836l-2.21-.224a14.625,14.625,0,0,0-1.012,5.147,14.663,14.663,0,0,1-.5,3.372v.01h0A10.939,10.939,0,0,1,57.7,73.958c-1.364,1.541-2.641,2.984-2.659,5.348a12.342,12.342,0,0,0,3.318,8.359,11.207,11.207,0,0,0,1.34,1.212,10.046,10.046,0,0,0,1.531.96c.074.038.148.074.219.108l.957.058a15.285,15.285,0,0,0,2.521-1.063c.229-.122.449-.25.664-.384L65,89.423a3.673,3.673,0,0,1-.577.674,2.159,2.159,0,0,1-.621.393l-.583.237-.164.589a22.87,22.87,0,0,1-1.3,3.577,15.419,15.419,0,0,1-1.811,2.986l-.757.968.977.764a31.7,31.7,0,0,1,3.252,2.937l.255.264a22.931,22.931,0,0,1-4.563-1.894,17.908,17.908,0,0,1-5.333-4.581l-.4-.49-.636.017-.085,0a16.159,16.159,0,0,1-12.4-4.956,19.067,19.067,0,0,1-4.983-12.677v-.095l0-.064c-.064-3.477,1.782-7.17,3.4-10.4,1.5-2.993,2.813-5.624,2.507-7.8a7.82,7.82,0,0,0-.2-.971,8.6,8.6,0,0,0-4.148-5.143,10.422,10.422,0,0,0-1.6-.743c2.827-.918,5.43-.757,7.69,1.839,2.951,3.389,1.873,7.161.887,10.612a21.983,21.983,0,0,0-1,4.732v.005l0,.035A8.379,8.379,0,0,0,44.855,75.9a4.236,4.236,0,0,0,.742.646,2.33,2.33,0,0,0,1.03.4l.041.005.031,0h.07l.082,0h.034c1.65-.01,5.327-2.049,8.547-6.2a32.033,32.033,0,0,0,6.383-18.072q.065-1.176.058-2.468l-.047-7.6,4.466,4.743.936.994.936-.994,4.468-4.743-.049,7.6q-.008,1.291.059,2.468a32.027,32.027,0,0,0,6.384,18.072c3.219,4.151,6.9,6.19,8.546,6.2h.036l.082,0h.069l.032,0,.04-.005a2.329,2.329,0,0,0,1.031-.4A4.2,4.2,0,0,0,89.6,75.9a8.383,8.383,0,0,0,2.037-5.658l0-.035v-.005a22.041,22.041,0,0,0-1-4.732c-.985-3.451-2.064-7.222.887-10.612,2.26-2.6,4.865-2.756,7.691-1.839a10.373,10.373,0,0,0-1.6.743,8.6,8.6,0,0,0-4.15,5.143,7.818,7.818,0,0,0-.2.971v.006l-.005.039-.005.009c-.273,2.158,1.034,4.771,2.52,7.744,1.622,3.245,3.483,6.966,3.394,10.461l0,.095a19.076,19.076,0,0,1-4.983,12.677A16.154,16.154,0,0,1,81.8,95.865l-.086,0-.637-.017-.392.49a17.945,17.945,0,0,1-5.334,4.581,22.863,22.863,0,0,1-4.563,1.894ZM66.577,88.979l-.972-.432c.2-.122.386-.25.571-.382a12.489,12.489,0,0,0,1.2.782c.088.049.178.1.27.149a3.752,3.752,0,0,0-.411.257A3.826,3.826,0,0,0,66.577,88.979Zm-5.311-2.073a8.289,8.289,0,0,1-1.03-.929,9.836,9.836,0,0,1-2.653-6.661c.011-1.433.994-2.542,2.042-3.728a12.877,12.877,0,0,0,2.636-3.883V71.7l0,0,0,0a15.475,15.475,0,0,0,.659-4c.155.38.313.757.471,1.134,1.444,3.454,2.891,6.908,2.667,11.3l2.431.571c1.238-2.671.292-6.3-.765-10.337-1.033-3.948-2.179-8.343-1.24-12.183.5,5.8,3.778,11.366,6.167,15.419,1.321,2.246,2.337,3.969,2.288,4.574l0,.022a10.613,10.613,0,0,1-.235,1.513,12.677,12.677,0,0,1-.457,1.527,15.043,15.043,0,0,1-4.314,6.168,10.057,10.057,0,0,1-1.283-.619,9.791,9.791,0,0,1-1.626-1.16l-.859-.754-.85.765A8.247,8.247,0,0,1,63.7,86.756a12.207,12.207,0,0,1-1.595.71A7.561,7.561,0,0,1,61.266,86.907ZM83.048,68.258A29.493,29.493,0,0,1,77.2,51.908a23.87,23.87,0,0,1,6.285,7.915,17.543,17.543,0,0,1,1.337,10.486A24.411,24.411,0,0,1,83.048,68.258ZM50.97,59.822a23.881,23.881,0,0,1,6.285-7.915,29.493,29.493,0,0,1-5.845,16.35,24.746,24.746,0,0,1-1.777,2.05A17.543,17.543,0,0,1,50.97,59.822ZM76.75,46.535l.072-10.654a4.934,4.934,0,0,0,.695-4.561,5.184,5.184,0,0,0-.431-.966v-.006a5.218,5.218,0,0,0-.644-.884l-.019-.024-.007-.012-7.992-8.823-1.192-1.319-1.2,1.319-7.992,8.823A5.272,5.272,0,0,0,56.9,34.481a4.628,4.628,0,0,0,.455.993,4.176,4.176,0,0,0,.28.405l.073,10.657a35.67,35.67,0,0,0-8.272,7.652L41.62,16.247h0A21.413,21.413,0,0,0,38.473,8.19a8.359,8.359,0,0,0-3.008-2.685A6.508,6.508,0,0,0,33.3,4.85a16.79,16.79,0,0,1,3.515-2.443,5.777,5.777,0,0,1,3.416-.723,4.273,4.273,0,0,1,2.654,1.757A16.22,16.22,0,0,1,45.5,10.036l4.325,20.627,3.02-.457L47.685,1.458C47.389-.183,49.1-.97,51.137-1.906a25.53,25.53,0,0,0,3.6-1.9l3.6,28.385,3.056-.159L61.114-1.627c-.017-1.38.962-1.934,2.122-2.591a10.488,10.488,0,0,0,4-3.339,10.453,10.453,0,0,0,3.992,3.339c1.159.657,2.137,1.211,2.122,2.591l-.283,26.046,3.057.159,3.6-28.385a25.7,25.7,0,0,0,3.6,1.9c2.035.936,3.746,1.724,3.45,3.364l-5.16,28.748,3.02.457,4.325-20.627a16.2,16.2,0,0,1,2.622-6.594,4.271,4.271,0,0,1,2.652-1.757,5.78,5.78,0,0,1,3.417.723,16.808,16.808,0,0,1,3.519,2.442,6.508,6.508,0,0,0-2.174.656A8.39,8.39,0,0,0,95.985,8.19a21.428,21.428,0,0,0-3.144,8.058h0l-7.816,37.94A35.73,35.73,0,0,0,76.75,46.535Zm-15.217-10.9v0l-.014-.014a1.681,1.681,0,0,1-.24-.341,2.023,2.023,0,0,1-.17-.412,2.683,2.683,0,0,1,.481-2.389L67.227,25.6l5.638,6.882h0l.011.013a2.516,2.516,0,0,1,.254.4h0a2.808,2.808,0,0,1,.186.463,2.356,2.356,0,0,1-.4,2.279l-5.694,6.047Z" transform="translate(0)" fill="#2680eb" stroke="#2680eb" stroke-miterlimit="10" stroke-width="0.25"/>
      <g id="Mask_Group_1287" data-name="Mask Group 1287" clip-path="url(#clip-path)">
        <ellipse id="Ellipse_274" data-name="Ellipse 274" cx="94.073" cy="90.31" rx="94.073" ry="90.31" transform="translate(-107.512 -60.397)" fill="#6bb1fe" opacity="0.5"/>
      </g>
    </g>
  </g>
</svg>
