<svg id="Group_2268" data-name="Group 2268" xmlns="http://www.w3.org/2000/svg" xmlns:xlink="http://www.w3.org/1999/xlink" width="30" height="30" viewBox="0 0 30 30">
  <defs>
    <clipPath id="clip-path">
      <path id="gavel-solid" d="M16.521,6.521l-.74-.74a.785.785,0,0,0-1.11,0l-.185.185-3.7-3.7.185-.185a.785.785,0,0,0,0-1.11l-.74-.74a.785.785,0,0,0-1.11,0L5.046,4.3a.785.785,0,0,0,0,1.11l.74.74a.785.785,0,0,0,1.11,0l.185-.185,1.3,1.3L5.726,9.913l-.185-.185a1.047,1.047,0,0,0-1.481,0L.307,13.482a1.047,1.047,0,0,0,0,1.481l1.481,1.481a1.047,1.047,0,0,0,1.481,0l3.754-3.754a1.047,1.047,0,0,0,0-1.481l-.185-.185L9.488,8.372l1.3,1.3-.185.185a.785.785,0,0,0,0,1.11l.74.74a.785.785,0,0,0,1.11,0l4.071-4.071a.785.785,0,0,0,0-1.11Z" transform="translate(0 0.001)" fill="#2680eb"/>
    </clipPath>
  </defs>
  <circle id="Ellipse_279" data-name="Ellipse 279" cx="15" cy="15" r="15" fill="#d9eeff" opacity="0.4"/>
  <path id="gavel-solid-2" data-name="gavel-solid" d="M16.521,6.521l-.74-.74a.785.785,0,0,0-1.11,0l-.185.185-3.7-3.7.185-.185a.785.785,0,0,0,0-1.11l-.74-.74a.785.785,0,0,0-1.11,0L5.046,4.3a.785.785,0,0,0,0,1.11l.74.74a.785.785,0,0,0,1.11,0l.185-.185,1.3,1.3L5.726,9.913l-.185-.185a1.047,1.047,0,0,0-1.481,0L.307,13.482a1.047,1.047,0,0,0,0,1.481l1.481,1.481a1.047,1.047,0,0,0,1.481,0l3.754-3.754a1.047,1.047,0,0,0,0-1.481l-.185-.185L9.488,8.372l1.3,1.3-.185.185a.785.785,0,0,0,0,1.11l.74.74a.785.785,0,0,0,1.11,0l4.071-4.071a.785.785,0,0,0,0-1.11Z" transform="translate(7 7.001)" fill="#2680eb"/>
  <g id="Mask_Group_1357" data-name="Mask Group 1357" transform="translate(7 7)" clip-path="url(#clip-path)">
    <circle id="Ellipse_346" data-name="Ellipse 346" cx="8.927" cy="8.927" r="8.927" transform="translate(-3.505 -9.479)" fill="#6bb1fe" opacity="0.5"/>
  </g>
</svg>
