<svg xmlns="http://www.w3.org/2000/svg" width="35" height="35" viewBox="0 0 35 35">
  <g id="Group_5217" data-name="Group 5217" transform="translate(-431 -398)">
    <circle id="Ellipse_61" data-name="Ellipse 61" cx="17.5" cy="17.5" r="17.5" transform="translate(431 398)" fill="#fff" opacity="0.4"/>
    <path id="calendar-alt-solid" d="M0,21.75A2.251,2.251,0,0,0,2.25,24h16.5A2.251,2.251,0,0,0,21,21.75V9H0Zm15-9.187A.564.564,0,0,1,15.563,12h1.875a.564.564,0,0,1,.563.563v1.875a.564.564,0,0,1-.562.563H15.563A.564.564,0,0,1,15,14.438Zm0,6A.564.564,0,0,1,15.563,18h1.875a.564.564,0,0,1,.563.563v1.875a.564.564,0,0,1-.562.563H15.563A.564.564,0,0,1,15,20.438Zm-6-6A.564.564,0,0,1,9.563,12h1.875a.564.564,0,0,1,.563.563v1.875a.564.564,0,0,1-.562.563H9.563A.564.564,0,0,1,9,14.438Zm0,6A.564.564,0,0,1,9.563,18h1.875a.564.564,0,0,1,.563.563v1.875a.564.564,0,0,1-.562.563H9.563A.564.564,0,0,1,9,20.438Zm-6-6A.564.564,0,0,1,3.563,12H5.438A.564.564,0,0,1,6,12.563v1.875A.564.564,0,0,1,5.438,15H3.563A.564.564,0,0,1,3,14.438Zm0,6A.564.564,0,0,1,3.563,18H5.438A.564.564,0,0,1,6,18.563v1.875A.564.564,0,0,1,5.438,21H3.563A.564.564,0,0,1,3,20.438ZM18.75,3H16.5V.75A.752.752,0,0,0,15.75,0h-1.5a.752.752,0,0,0-.75.75V3h-6V.75A.752.752,0,0,0,6.75,0H5.25A.752.752,0,0,0,4.5.75V3H2.25A2.251,2.251,0,0,0,0,5.25V7.5H21V5.25A2.251,2.251,0,0,0,18.75,3Z" transform="translate(438 404)" fill="#2680eb"/>
  </g>
</svg>
