<svg xmlns="http://www.w3.org/2000/svg" xmlns:xlink="http://www.w3.org/1999/xlink" width="41.541" height="42.302" viewBox="0 0 41.541 42.302">
  <defs>
    <style>
      .cls-1 {
        fill: #8cbcf6;
        stroke: rgba(0,0,0,0);
        stroke-miterlimit: 10;
      }

      .cls-2 {
        clip-path: url(#clip-path);
      }

      .cls-3 {
        fill: #acd0fb;
      }
    </style>
    <clipPath id="clip-path">
      <path id="Union_64" data-name="Union 64" class="cls-1" d="M11712.492,5596.939a3.873,3.873,0,0,1-3.871-3.872v-3.355a10.845,10.845,0,0,1,10.842-10.841h1.35a14.041,14.041,0,0,0,11.758,0h1.348a10.919,10.919,0,0,1,1.842.156,2.214,2.214,0,0,0,.625,1.457l.139.14a3.066,3.066,0,0,1,.4.442,3.215,3.215,0,0,1,.178.575l.047.188a2.3,2.3,0,0,0,.156.417l-.039-.03-1.992,4.891a1.282,1.282,0,0,0,1.236,1.766l1.592-.061,1.1,1.157a1.282,1.282,0,0,0,2.117-.4l1.525-3.738,1.521,3.738a1.307,1.307,0,0,0,.4.526v2.971a3.871,3.871,0,0,1-3.869,3.872Zm32.266-8.358-1.736-4.25a2.454,2.454,0,0,0,1.178.319,2.406,2.406,0,0,0,1.719-.712c.291-.289.137-.207.84-.4a2.367,2.367,0,0,0,.846-.444l1.51,3.706a.532.532,0,0,1-.512.735l-1.756-.068-1.207,1.276a.534.534,0,0,1-.881-.166Zm-4.877.166-1.209-1.276-1.754.068a.535.535,0,0,1-.514-.735l1.512-3.706a2.4,2.4,0,0,0,.846.444c.7.188.549.105.84.4a2.386,2.386,0,0,0,2.893.393l-1.732,4.25a.534.534,0,0,1-.881.166Zm3.586-5.37a1.321,1.321,0,0,0-1.414,0,1.324,1.324,0,0,1-1.658-.194c-.49-.5-.545-.467-1.291-.67a1.35,1.35,0,0,1-.947-.966,2.137,2.137,0,0,0-.865-1.523,1.388,1.388,0,0,1-.35-1.318,2.142,2.142,0,0,0,0-1.759,1.391,1.391,0,0,1,.35-1.32,2.135,2.135,0,0,0,.865-1.522,1.348,1.348,0,0,1,.947-.966,2.082,2.082,0,0,0,1.5-.879,1.331,1.331,0,0,1,1.3-.354,2.048,2.048,0,0,0,1.727,0,1.328,1.328,0,0,1,1.3.354,2.09,2.09,0,0,0,1.5.879,1.361,1.361,0,0,1,.947.966,2.124,2.124,0,0,0,.861,1.522,1.385,1.385,0,0,1,.348,1.32,2.173,2.173,0,0,0,0,1.759,1.382,1.382,0,0,1-.348,1.318,2.126,2.126,0,0,0-.861,1.523,1.364,1.364,0,0,1-.947.966c-.729.2-.787.152-1.295.67a1.321,1.321,0,0,1-1.658.194Zm-3.85-5.658a3.143,3.143,0,1,0,3.141-3.2A3.172,3.172,0,0,0,11739.617,5577.72Zm-23.252-11.756a10.325,10.325,0,1,1,10.328,10.325A10.326,10.326,0,0,1,11716.365,5565.964Z" transform="translate(-10471.174 -3298.638)"/>
    </clipPath>
  </defs>
  <g id="Group_2536" data-name="Group 2536" transform="translate(-1161.967 -2254.5)">
    <path id="Union_63" data-name="Union 63" class="cls-1" d="M11712.494,5596.939a3.873,3.873,0,0,1-3.873-3.872v-3.355a10.846,10.846,0,0,1,10.842-10.842h1.348a14.035,14.035,0,0,0,11.76,0h1.348a10.919,10.919,0,0,1,1.842.156,2.2,2.2,0,0,0,.627,1.457l.135.14a3.086,3.086,0,0,1,.4.442,3.035,3.035,0,0,1,.178.575l.049.188a2.174,2.174,0,0,0,.154.417l-.037-.03-1.994,4.891a1.285,1.285,0,0,0,1.236,1.767l1.594-.062,1.1,1.157a1.282,1.282,0,0,0,2.117-.4l1.525-3.738,1.523,3.738a1.3,1.3,0,0,0,.4.526v2.971a3.873,3.873,0,0,1-3.871,3.872Zm32.264-8.358-1.734-4.251a2.389,2.389,0,0,0,2.895-.393c.291-.289.137-.206.838-.395a2.4,2.4,0,0,0,.848-.444l1.51,3.705a.534.534,0,0,1-.514.735l-1.756-.067-1.207,1.275a.532.532,0,0,1-.879-.166Zm-4.877.166-1.209-1.275-1.754.067a.536.536,0,0,1-.516-.735l1.514-3.705a2.391,2.391,0,0,0,.846.444c.7.188.549.105.838.395a2.389,2.389,0,0,0,2.895.393l-1.734,4.251a.532.532,0,0,1-.879.166Zm3.586-5.369a1.321,1.321,0,0,0-1.416,0,1.322,1.322,0,0,1-1.656-.194c-.49-.5-.547-.468-1.293-.67a1.354,1.354,0,0,1-.947-.967,2.144,2.144,0,0,0-.863-1.523,1.387,1.387,0,0,1-.35-1.318,2.148,2.148,0,0,0,0-1.759,1.39,1.39,0,0,1,.35-1.319,2.14,2.14,0,0,0,.863-1.522,1.352,1.352,0,0,1,.947-.967,2.084,2.084,0,0,0,1.5-.879,1.327,1.327,0,0,1,1.295-.354,2.056,2.056,0,0,0,1.729,0,1.325,1.325,0,0,1,1.295.354,2.091,2.091,0,0,0,1.5.879,1.359,1.359,0,0,1,.947.967,2.133,2.133,0,0,0,.863,1.522,1.383,1.383,0,0,1,.346,1.319,2.171,2.171,0,0,0,0,1.759,1.38,1.38,0,0,1-.346,1.318,2.137,2.137,0,0,0-.863,1.523,1.361,1.361,0,0,1-.947.967c-.727.2-.783.152-1.295.67a1.322,1.322,0,0,1-1.656.194Zm-3.85-5.658a3.143,3.143,0,1,0,3.141-3.2A3.17,3.17,0,0,0,11739.617,5577.72Zm-23.252-11.756a10.325,10.325,0,1,1,10.326,10.325A10.325,10.325,0,0,1,11716.365,5565.964Z" transform="translate(-10546.154 -3300.638)"/>
    <g id="Mask_Group_1395" data-name="Mask Group 1395" class="cls-2" transform="translate(-74.98 -2)">
      <ellipse id="Ellipse_439" data-name="Ellipse 439" class="cls-3" cx="24" cy="24" rx="24" ry="24" transform="translate(1209.98 2244.207)"/>
    </g>
  </g>
</svg>
