<svg xmlns="http://www.w3.org/2000/svg" xmlns:xlink="http://www.w3.org/1999/xlink" width="30" height="30" viewBox="0 0 30 30">
  <defs>
    <clipPath id="clip-path">
      <path id="Path_330" data-name="Path 330" d="M6.053,39.062a3.531,3.531,0,1,0-3.531-3.531A3.529,3.529,0,0,0,6.053,39.062Zm2.421,1.009H8.213a4.875,4.875,0,0,1-4.319,0H3.632A3.633,3.633,0,0,0,0,43.7v.908a1.514,1.514,0,0,0,1.513,1.513h9.08a1.514,1.514,0,0,0,1.513-1.513V43.7A3.633,3.633,0,0,0,8.475,40.071Zm6.659-1.009a3.027,3.027,0,1,0-3.027-3.027A3.028,3.028,0,0,0,15.134,39.062Zm1.513,1.009h-.12a3.976,3.976,0,0,1-2.787,0h-.12a3.5,3.5,0,0,0-1.756.486A4.614,4.614,0,0,1,13.116,43.7v1.211c0,.069-.016.136-.019.2h5.568A1.514,1.514,0,0,0,20.178,43.6,3.529,3.529,0,0,0,16.647,40.071Z" transform="translate(0 -32)" fill="#2680eb"/>
    </clipPath>
  </defs>
  <g id="icon-cari-partner" transform="translate(-35 -613)">
    <g id="Group_885" data-name="Group 885" transform="translate(35 613)">
      <circle id="Ellipse_118" data-name="Ellipse 118" cx="15" cy="15" r="15" fill="#d9eeff" opacity="0.7"/>
      <path id="Path_329" data-name="Path 329" d="M6.053,39.062a3.531,3.531,0,1,0-3.531-3.531A3.529,3.529,0,0,0,6.053,39.062Zm2.421,1.009H8.213a4.875,4.875,0,0,1-4.319,0H3.632A3.633,3.633,0,0,0,0,43.7v.908a1.514,1.514,0,0,0,1.513,1.513h9.08a1.514,1.514,0,0,0,1.513-1.513V43.7A3.633,3.633,0,0,0,8.475,40.071Zm6.659-1.009a3.027,3.027,0,1,0-3.027-3.027A3.028,3.028,0,0,0,15.134,39.062Zm1.513,1.009h-.12a3.976,3.976,0,0,1-2.787,0h-.12a3.5,3.5,0,0,0-1.756.486A4.614,4.614,0,0,1,13.116,43.7v1.211c0,.069-.016.136-.019.2h5.568A1.514,1.514,0,0,0,20.178,43.6,3.529,3.529,0,0,0,16.647,40.071Z" transform="translate(4.838 -24.125)" fill="#2680eb"/>
      <g id="Mask_Group_10" data-name="Mask Group 10" transform="translate(4.838 7.875)" clip-path="url(#clip-path)">
        <circle id="Ellipse_119" data-name="Ellipse 119" cx="14.841" cy="14.841" r="14.841" transform="translate(-13.783 -15.557)" fill="#6bb1fe" opacity="0.5"/>
      </g>
    </g>
  </g>
</svg>
