<svg xmlns="http://www.w3.org/2000/svg" width="22" height="20" viewBox="0 0 22 20">
  <path id="icon-button-arsip" d="M19.25,20H2.75a1.325,1.325,0,0,1-.536-.112,1.366,1.366,0,0,1-.437-.306,1.425,1.425,0,0,1-.294-.454,1.471,1.471,0,0,1-.108-.557V5.714h19.25V18.572a1.471,1.471,0,0,1-.108.557,1.425,1.425,0,0,1-.294.454,1.366,1.366,0,0,1-.437.306A1.325,1.325,0,0,1,19.25,20ZM7.36,13a.434.434,0,0,0-.408.283.463.463,0,0,0,.1.5l3.63,3.771a.429.429,0,0,0,.623,0l3.63-3.771a.466.466,0,0,0,.094-.5.433.433,0,0,0-.405-.28H12.163V8.582a.449.449,0,0,0-.44-.457H10.256a.449.449,0,0,0-.44.457V13ZM21.313,4.286H.688A.67.67,0,0,1,.2,4.076a.723.723,0,0,1-.2-.5V1.429A1.471,1.471,0,0,1,.108.872,1.426,1.426,0,0,1,.4.418,1.366,1.366,0,0,1,.839.112,1.325,1.325,0,0,1,1.375,0h19.25a1.325,1.325,0,0,1,.536.112A1.366,1.366,0,0,1,21.6.418a1.426,1.426,0,0,1,.294.454A1.471,1.471,0,0,1,22,1.429V3.571a.723.723,0,0,1-.2.5A.67.67,0,0,1,21.313,4.286Z" transform="translate(0 0)" fill="#80849c"/>
</svg>
