<svg xmlns="http://www.w3.org/2000/svg" xmlns:xlink="http://www.w3.org/1999/xlink" width="121" height="121" viewBox="0 0 121 121">
  <defs>
    <clipPath id="clip-path">
      <path id="book-solid" d="M52.567,42.241V2.816A2.809,2.809,0,0,0,49.751,0H11.264A11.267,11.267,0,0,0,0,11.264V48.812A11.267,11.267,0,0,0,11.264,60.076H49.751a2.809,2.809,0,0,0,2.816-2.816V55.383a2.838,2.838,0,0,0-1.044-2.194,26.167,26.167,0,0,1,0-8.765,2.8,2.8,0,0,0,1.044-2.182ZM44.753,52.567H11.264a3.755,3.755,0,1,1,0-7.51H44.753A42.242,42.242,0,0,0,44.753,52.567Z" fill="#2680eb"/>
    </clipPath>
  </defs>
  <g id="icon-rapor-admin-portal" transform="translate(-195.885 -316.883)">
    <g id="Ellipse_302" data-name="Ellipse 302" transform="translate(195.885 316.883)" fill="#fff" stroke="#a3a6b7" stroke-width="1">
      <circle cx="60.5" cy="60.5" r="60.5" stroke="none"/>
      <circle cx="60.5" cy="60.5" r="60" fill="none"/>
    </g>
    <g id="Group_1779" data-name="Group 1779" transform="translate(229.242 346.435)">
      <path id="book-solid-2" data-name="book-solid" d="M52.567,42.241V2.816A2.809,2.809,0,0,0,49.751,0H11.264A11.267,11.267,0,0,0,0,11.264V48.812A11.267,11.267,0,0,0,11.264,60.076H49.751a2.809,2.809,0,0,0,2.816-2.816V55.383a2.838,2.838,0,0,0-1.044-2.194,26.167,26.167,0,0,1,0-8.765,2.8,2.8,0,0,0,1.044-2.182ZM44.753,52.567H11.264a3.755,3.755,0,1,1,0-7.51H44.753A42.242,42.242,0,0,0,44.753,52.567Z" transform="translate(0 0)" fill="#a3a6b7"/>
      <g id="Mask_Group_1318" data-name="Mask Group 1318" transform="translate(0 0)" clip-path="url(#clip-path)">
        <ellipse id="Ellipse_303" data-name="Ellipse 303" cx="37.373" cy="37.372" rx="37.373" ry="37.372" transform="translate(-40.262 -32.624)" fill="#b3b5c3"/>
      </g>
    </g>
    <path id="Union_39" data-name="Union 39" d="M11.525,14.7a1.541,1.541,0,0,1-.57-.684L10.1,12.1H3.945l-.874,1.919a1.52,1.52,0,0,1-.58.684,1.509,1.509,0,0,1-.807.229,1.777,1.777,0,0,1-1.169-.437,1.34,1.34,0,0,1-.522-1.064,1.629,1.629,0,0,1,.171-.7L5.18,2.426a1.765,1.765,0,0,1,.732-.788,2.211,2.211,0,0,1,2.138,0,1.75,1.75,0,0,1,.741.788l5.017,10.3a1.642,1.642,0,0,1,.171.7,1.359,1.359,0,0,1-.5,1.064,1.7,1.7,0,0,1-1.149.437A1.466,1.466,0,0,1,11.525,14.7Zm-6.4-5.224h3.8l-1.9-4.237ZM15.233,6.17a.626.626,0,0,1-.187-.462V4.333H13.66A.615.615,0,0,1,13.2,4.14a.644.644,0,0,1-.187-.467.638.638,0,0,1,.649-.649h1.386V1.638a.649.649,0,1,1,1.3,0V3.024H17.73a.636.636,0,0,1,.649.649.647.647,0,0,1-.186.467.619.619,0,0,1-.463.193H16.344V5.708a.638.638,0,0,1-.181.462.671.671,0,0,1-.93,0Z" transform="translate(247.49 361.042)" fill="#fff" stroke="rgba(0,0,0,0)" stroke-miterlimit="10" stroke-width="1"/>
  </g>
</svg>
