<svg id="icon-side-nav-surat-keputusan" xmlns="http://www.w3.org/2000/svg" xmlns:xlink="http://www.w3.org/1999/xlink" width="30" height="30" viewBox="0 0 30 30">
  <defs>
    <clipPath id="clip-path">
      <path id="envelope-solid" d="M18.148,68.581a.218.218,0,0,1,.35.17V76.14a1.735,1.735,0,0,1-1.734,1.734H1.734A1.735,1.735,0,0,1,0,76.14V68.755a.216.216,0,0,1,.35-.17c.809.629,1.882,1.427,5.568,4.1.762.556,2.049,1.727,3.331,1.72,1.29.011,2.6-1.185,3.335-1.72C16.269,70.012,17.339,69.21,18.148,68.581Zm-8.9,4.668c.838.014,2.045-1.055,2.652-1.5,4.794-3.479,5.159-3.783,6.265-4.65a.865.865,0,0,0,.332-.683v-.686A1.735,1.735,0,0,0,16.764,64H1.734A1.735,1.735,0,0,0,0,65.734v.686a.87.87,0,0,0,.332.683c1.106.864,1.471,1.171,6.265,4.65C7.2,72.194,8.411,73.264,9.249,73.249Z" transform="translate(5.751 -55.937)" fill="#2680eb"/>
    </clipPath>
  </defs>
  <circle id="Ellipse_302" data-name="Ellipse 302" cx="15" cy="15" r="15" fill="#d9eeff" opacity="0.4"/>
  <path id="envelope-solid-2" data-name="envelope-solid" d="M18.148,68.581a.218.218,0,0,1,.35.17V76.14a1.735,1.735,0,0,1-1.734,1.734H1.734A1.735,1.735,0,0,1,0,76.14V68.755a.216.216,0,0,1,.35-.17c.809.629,1.882,1.427,5.568,4.1.762.556,2.049,1.727,3.331,1.72,1.29.011,2.6-1.185,3.335-1.72C16.269,70.012,17.339,69.21,18.148,68.581Zm-8.9,4.668c.838.014,2.045-1.055,2.652-1.5,4.794-3.479,5.159-3.783,6.265-4.65a.865.865,0,0,0,.332-.683v-.686A1.735,1.735,0,0,0,16.764,64H1.734A1.735,1.735,0,0,0,0,65.734v.686a.87.87,0,0,0,.332.683c1.106.864,1.471,1.171,6.265,4.65C7.2,72.194,8.411,73.264,9.249,73.249Z" transform="translate(5.751 -55.937)" fill="#2680eb"/>
  <g id="Mask_Group_1553" data-name="Mask Group 1553" clip-path="url(#clip-path)">
    <ellipse id="Ellipse_692" data-name="Ellipse 692" cx="10.895" cy="10.895" rx="10.895" ry="10.895" transform="translate(-5.79 -2.832)" fill="#6bb1fe" stroke="rgba(0,0,0,0)" stroke-miterlimit="10" stroke-width="1" opacity="0.5"/>
  </g>
</svg>
