<svg xmlns="http://www.w3.org/2000/svg" xmlns:xlink="http://www.w3.org/1999/xlink" width="30" height="30" viewBox="0 0 30 30">
  <defs>
    <clipPath id="clip-path">
      <path id="balance-scale-solid" d="M8.281,10.869h0c0-.523.043-.282-2.751-5.872A1.554,1.554,0,0,0,2.752,5C-.067,10.635,0,10.362,0,10.869H0c0,1.429,1.854,2.588,4.141,2.588S8.281,12.3,8.281,10.869ZM4.141,5.693,6.47,10.352H1.812ZM20.7,10.869c0-.523.043-.282-2.751-5.872a1.554,1.554,0,0,0-2.778,0c-2.818,5.637-2.751,5.365-2.751,5.872h0c0,1.429,1.854,2.588,4.141,2.588S20.7,12.3,20.7,10.869Zm-6.469-.518,2.329-4.658,2.329,4.658Zm2.847,4.141H11.387V4.957a2.59,2.59,0,0,0,1.5-1.852H17.08a.517.517,0,0,0,.518-.518V1.553a.517.517,0,0,0-.518-.518H12.41a2.565,2.565,0,0,0-4.117,0H3.623a.517.517,0,0,0-.518.518V2.588a.517.517,0,0,0,.518.518H7.816a2.59,2.59,0,0,0,1.5,1.852v9.535H3.623a.517.517,0,0,0-.518.518v1.035a.517.517,0,0,0,.518.518H17.08a.517.517,0,0,0,.518-.518V15.01A.517.517,0,0,0,17.08,14.492Z" transform="translate(184.734 284.75)" fill="#2680eb"/>
    </clipPath>
  </defs>
  <g id="icon-bobot-nilai" transform="translate(-20.768 -158.768)">
    <circle id="Ellipse_279" data-name="Ellipse 279" cx="15" cy="15" r="15" transform="translate(20.768 158.768)" fill="#d9eeff" opacity="0.4"/>
    <g id="Group_4735" data-name="Group 4735" transform="translate(-159.232 -119.232)">
      <path id="balance-scale-solid-2" data-name="balance-scale-solid" d="M8.281,10.869h0c0-.523.043-.282-2.751-5.872A1.554,1.554,0,0,0,2.752,5C-.067,10.635,0,10.362,0,10.869H0c0,1.429,1.854,2.588,4.141,2.588S8.281,12.3,8.281,10.869ZM4.141,5.693,6.47,10.352H1.812ZM20.7,10.869c0-.523.043-.282-2.751-5.872a1.554,1.554,0,0,0-2.778,0c-2.818,5.637-2.751,5.365-2.751,5.872h0c0,1.429,1.854,2.588,4.141,2.588S20.7,12.3,20.7,10.869Zm-6.469-.518,2.329-4.658,2.329,4.658Zm2.847,4.141H11.387V4.957a2.59,2.59,0,0,0,1.5-1.852H17.08a.517.517,0,0,0,.518-.518V1.553a.517.517,0,0,0-.518-.518H12.41a2.565,2.565,0,0,0-4.117,0H3.623a.517.517,0,0,0-.518.518V2.588a.517.517,0,0,0,.518.518H7.816a2.59,2.59,0,0,0,1.5,1.852v9.535H3.623a.517.517,0,0,0-.518.518v1.035a.517.517,0,0,0,.518.518H17.08a.517.517,0,0,0,.518-.518V15.01A.517.517,0,0,0,17.08,14.492Z" transform="translate(184.734 284.75)" fill="#2680eb"/>
      <g id="Mask_Group_1549" data-name="Mask Group 1549" clip-path="url(#clip-path)">
        <circle id="Ellipse_686" data-name="Ellipse 686" cx="8.927" cy="8.927" r="8.927" transform="translate(177.495 278.016)" fill="#6bb1fe" opacity="0.5"/>
      </g>
    </g>
  </g>
</svg>
