<svg xmlns="http://www.w3.org/2000/svg" xmlns:xlink="http://www.w3.org/1999/xlink" width="80" height="80" viewBox="0 0 80 80">
  <defs>
    <clipPath id="clip-path">
      <path id="book-solid" d="M41.522,33.366V2.224A2.219,2.219,0,0,0,39.3,0H8.9A8.9,8.9,0,0,0,0,8.9V38.556a8.9,8.9,0,0,0,8.9,8.9H39.3a2.219,2.219,0,0,0,2.224-2.224V43.747a2.242,2.242,0,0,0-.825-1.733,20.669,20.669,0,0,1,0-6.923,2.209,2.209,0,0,0,.825-1.724ZM35.35,41.522H8.9a2.966,2.966,0,0,1,0-5.932H35.35A33.367,33.367,0,0,0,35.35,41.522Z" fill="#2680eb"/>
    </clipPath>
  </defs>
  <g id="icon-rapor-admin" transform="translate(-196 -317)">
    <circle id="Ellipse_302" data-name="Ellipse 302" cx="40" cy="40" r="40" transform="translate(196 317)" fill="#d9eeff" opacity="0.7"/>
    <g id="Group_1779" data-name="Group 1779" transform="translate(215 333)">
      <path id="book-solid-2" data-name="book-solid" d="M41.522,33.366V2.224A2.219,2.219,0,0,0,39.3,0H8.9A8.9,8.9,0,0,0,0,8.9V38.556a8.9,8.9,0,0,0,8.9,8.9H39.3a2.219,2.219,0,0,0,2.224-2.224V43.747a2.242,2.242,0,0,0-.825-1.733,20.669,20.669,0,0,1,0-6.923,2.209,2.209,0,0,0,.825-1.724ZM35.35,41.522H8.9a2.966,2.966,0,0,1,0-5.932H35.35A33.367,33.367,0,0,0,35.35,41.522Z" fill="#2680eb"/>
      <g id="Mask_Group_1318" data-name="Mask Group 1318" clip-path="url(#clip-path)">
        <circle id="Ellipse_303" data-name="Ellipse 303" cx="29.52" cy="29.52" r="29.52" transform="translate(-31.803 -25.77)" fill="#6bb1fe" opacity="0.5"/>
      </g>
    </g>
    <path id="Union_39" data-name="Union 39" d="M10.305,11.98a1.376,1.376,0,0,1-.51-.612L9.03,9.651H3.522L2.74,11.368a1.33,1.33,0,0,1-1.241.816,1.586,1.586,0,0,1-1.045-.392,1.2,1.2,0,0,1-.468-.951,1.467,1.467,0,0,1,.153-.629L4.627,1A1.578,1.578,0,0,1,5.281.293a1.977,1.977,0,0,1,1.913,0A1.573,1.573,0,0,1,7.857,1l4.487,9.214a1.454,1.454,0,0,1,.153.629,1.215,1.215,0,0,1-.45.951,1.525,1.525,0,0,1-1.029.392A1.309,1.309,0,0,1,10.305,11.98ZM4.576,7.305h3.4l-1.7-3.791ZM15.856,3.584a.51.51,0,0,1-.153-.378V2.081H14.569a.5.5,0,0,1-.378-.158.525.525,0,0,1-.153-.382.523.523,0,0,1,.531-.531H15.7V-.124A.513.513,0,0,1,15.856-.5a.514.514,0,0,1,.378-.153.517.517,0,0,1,.378.153.517.517,0,0,1,.153.378V1.01H17.9a.523.523,0,0,1,.531.531.528.528,0,0,1-.153.382.507.507,0,0,1-.378.158H16.765V3.206a.521.521,0,0,1-.148.378.549.549,0,0,1-.761,0Z" transform="translate(228.004 343.804)" fill="#eaf2fb" stroke="rgba(0,0,0,0)" stroke-miterlimit="10" stroke-width="1"/>
  </g>
</svg>
