<svg xmlns="http://www.w3.org/2000/svg" xmlns:xlink="http://www.w3.org/1999/xlink" width="80" height="80" viewBox="0 0 80 80">
  <defs>
    <clipPath id="clip-path">
      <path id="Path_254" data-name="Path 254" d="M679.434,201.9a5.172,5.172,0,1,0-5.172-5.172A5.177,5.177,0,0,0,679.434,201.9Zm36.205,0a5.172,5.172,0,1,0-5.172-5.172A5.177,5.177,0,0,0,715.64,201.9Zm2.586,2.586h-5.172a5.156,5.156,0,0,0-3.645,1.5,11.821,11.821,0,0,1,6.069,8.841h5.334a2.583,2.583,0,0,0,2.586-2.586V209.66A5.177,5.177,0,0,0,718.226,204.488Zm-20.689,0a9.051,9.051,0,1,0-9.051-9.051A9.047,9.047,0,0,0,697.537,204.488Zm6.207,2.586h-.671a12.5,12.5,0,0,1-11.072,0h-.671a9.313,9.313,0,0,0-9.31,9.31v2.327a3.88,3.88,0,0,0,3.879,3.879h23.275a3.88,3.88,0,0,0,3.879-3.879v-2.327A9.313,9.313,0,0,0,703.743,207.074Zm-18.078-1.083a5.156,5.156,0,0,0-3.645-1.5h-5.172a5.177,5.177,0,0,0-5.172,5.172v2.586a2.583,2.583,0,0,0,2.586,2.586h5.326a11.851,11.851,0,0,1,6.077-8.841Z" transform="translate(-671.676 -186.385)" fill="none"/>
    </clipPath>
  </defs>
  <g id="icon-kesiswaan" transform="translate(-368.497 -462.497)">
    <circle id="Ellipse_83" data-name="Ellipse 83" cx="40" cy="40" r="40" transform="translate(368.497 462.497)" fill="#d9eeff" opacity="0.7"/>
    <g id="Group_604" data-name="Group 604" transform="translate(382.636 484.393)">
      <path id="Path_253" data-name="Path 253" d="M679.434,201.9a5.172,5.172,0,1,0-5.172-5.172A5.177,5.177,0,0,0,679.434,201.9Zm36.205,0a5.172,5.172,0,1,0-5.172-5.172A5.177,5.177,0,0,0,715.64,201.9Zm2.586,2.586h-5.172a5.156,5.156,0,0,0-3.645,1.5,11.821,11.821,0,0,1,6.069,8.841h5.334a2.583,2.583,0,0,0,2.586-2.586V209.66A5.177,5.177,0,0,0,718.226,204.488Zm-20.689,0a9.051,9.051,0,1,0-9.051-9.051A9.047,9.047,0,0,0,697.537,204.488Zm6.207,2.586h-.671a12.5,12.5,0,0,1-11.072,0h-.671a9.313,9.313,0,0,0-9.31,9.31v2.327a3.88,3.88,0,0,0,3.879,3.879h23.275a3.88,3.88,0,0,0,3.879-3.879v-2.327A9.313,9.313,0,0,0,703.743,207.074Zm-18.078-1.083a5.156,5.156,0,0,0-3.645-1.5h-5.172a5.177,5.177,0,0,0-5.172,5.172v2.586a2.583,2.583,0,0,0,2.586,2.586h5.326a11.851,11.851,0,0,1,6.077-8.841Z" transform="translate(-671.676 -186.385)" fill="#2680eb"/>
      <g id="Group_603" data-name="Group 603" transform="translate(0 0)">
        <g id="Group_602" data-name="Group 602" clip-path="url(#clip-path)">
          <circle id="Ellipse_87" data-name="Ellipse 87" cx="18.466" cy="18.466" r="18.466" transform="translate(-9.268 -6.91)" fill="#6bb1fe" opacity="0.5"/>
        </g>
      </g>
    </g>
  </g>
</svg>
