<svg xmlns="http://www.w3.org/2000/svg" xmlns:xlink="http://www.w3.org/1999/xlink" width="50" height="50" viewBox="0 0 50 50">
  <defs>
    <clipPath id="clip-path">
      <path id="Path_257" data-name="Path 257" d="M4.843,3.229h22.6V20.985h3.229V2.018A2.02,2.02,0,0,0,28.653,0H3.632A2.02,2.02,0,0,0,1.614,2.018V20.985H4.843ZM31.478,22.6H24.214V19.371H14.528V22.6H.807A.807.807,0,0,0,0,23.407v1.614a.807.807,0,0,0,.807.807H31.478a.807.807,0,0,0,.807-.807V23.407A.807.807,0,0,0,31.478,22.6Z" transform="translate(0 0)" fill="#2680eb"/>
    </clipPath>
  </defs>
  <g id="icon-ubah-password-guru" transform="translate(-235 -276)">
    <circle id="Ellipse_1" data-name="Ellipse 1" cx="25" cy="25" r="25" transform="translate(235 276)" fill="#d9eeff" opacity="0.4"/>
    <path id="Path_252" data-name="Path 252" d="M4.843,3.229h22.6V20.985h3.229V2.018A2.02,2.02,0,0,0,28.653,0H3.632A2.02,2.02,0,0,0,1.614,2.018V20.985H4.843ZM31.478,22.6H24.214V19.371H14.528V22.6H.807A.807.807,0,0,0,0,23.407v1.614a.807.807,0,0,0,.807.807H31.478a.807.807,0,0,0,.807-.807V23.407A.807.807,0,0,0,31.478,22.6Z" transform="translate(243.49 287.992)" fill="#2680eb"/>
    <g id="Mask_Group_3" data-name="Mask Group 3" transform="translate(243.49 287.992)" clip-path="url(#clip-path)">
      <circle id="Ellipse_84" data-name="Ellipse 84" cx="27.5" cy="27.5" r="27.5" transform="translate(-34.49 -24.993)" fill="#6bb1fe" opacity="0.5"/>
    </g>
  </g>
</svg>
