<svg xmlns="http://www.w3.org/2000/svg" xmlns:xlink="http://www.w3.org/1999/xlink" width="50" height="50" viewBox="0 0 50 50">
  <defs>
    <clipPath id="clip-path">
      <path id="Subtraction_76" data-name="Subtraction 76" d="M19149.639,21008.646a.848.848,0,0,1-.506-.174l-2.9-2.389-2.9,2.389a.874.874,0,0,1-.512.174.892.892,0,0,1-.512-.174l-2.895-2.389-2.051,2.389a.868.868,0,0,1-.506.168.85.85,0,0,1-.855-.854v-9.8a1.042,1.042,0,0,1,0-.109v-18.75a1.111,1.111,0,0,1,1.1-1.123h12.059v6.375a1.11,1.11,0,0,0,1.1,1.123h6.211v12.375a.9.9,0,0,1,0,.1h0v9.813a.852.852,0,0,1-1.359.686l-2.045-2.389-2.9,2.389A.882.882,0,0,1,19149.639,21008.646Zm-10.133-9.676a.5.5,0,0,0-.5.5v1a.5.5,0,0,0,.5.5h13.244a.5.5,0,0,0,.506-.5v-1a.5.5,0,0,0-.506-.5Zm0-4.973a.5.5,0,0,0-.5.5v1a.5.5,0,0,0,.5.5h13.244a.5.5,0,0,0,.506-.5v-1a.5.5,0,0,0-.506-.5Zm0-5a.5.5,0,0,0-.5.5v1a.5.5,0,0,0,.5.5h13.244a.5.5,0,0,0,.506-.5v-1a.5.5,0,0,0-.506-.5Zm16.955-5h-5.846v-6h.279a1.081,1.081,0,0,1,.77.326l4.477,4.594a1.141,1.141,0,0,1,.32.8v.279Z" transform="translate(-18886.23 -20692.324)" fill="#2680eb"/>
    </clipPath>
  </defs>
  <g id="icon-pengaturan-sarpras-nota-barang" transform="translate(-235 -276)">
    <circle id="Ellipse_1" data-name="Ellipse 1" cx="25" cy="25" r="25" transform="translate(235 276)" fill="#d9eeff" opacity="0.4"/>
    <path id="Subtraction_74" data-name="Subtraction 74" d="M19149.639,21008.646a.848.848,0,0,1-.506-.174l-2.9-2.389-2.9,2.389a.874.874,0,0,1-.512.174.892.892,0,0,1-.512-.174l-2.895-2.389-2.051,2.389a.868.868,0,0,1-.506.168.85.85,0,0,1-.855-.854v-9.8a1.042,1.042,0,0,1,0-.109v-18.75a1.111,1.111,0,0,1,1.1-1.123h12.059v6.375a1.11,1.11,0,0,0,1.1,1.123h6.211v12.375a.9.9,0,0,1,0,.1h0v9.813a.852.852,0,0,1-1.359.686l-2.045-2.389-2.9,2.389A.882.882,0,0,1,19149.639,21008.646Zm-10.133-9.676a.5.5,0,0,0-.5.5v1a.5.5,0,0,0,.5.5h13.244a.5.5,0,0,0,.506-.5v-1a.5.5,0,0,0-.506-.5Zm0-4.973a.5.5,0,0,0-.5.5v1a.5.5,0,0,0,.5.5h13.244a.5.5,0,0,0,.506-.5v-1a.5.5,0,0,0-.506-.5Zm0-5a.5.5,0,0,0-.5.5v1a.5.5,0,0,0,.5.5h13.244a.5.5,0,0,0,.506-.5v-1a.5.5,0,0,0-.506-.5Zm16.955-5h-5.846v-6h.279a1.081,1.081,0,0,1,.77.326l4.477,4.594a1.141,1.141,0,0,1,.32.8v.279Z" transform="translate(-18886.23 -20692.324)" fill="#2680eb"/>
    <g id="Mask_Group_1595" data-name="Mask Group 1595" clip-path="url(#clip-path)">
      <circle id="Ellipse_757" data-name="Ellipse 757" cx="27.5" cy="27.5" r="27.5" transform="translate(209 260)" fill="#6bb1fe" opacity="0.5"/>
    </g>
  </g>
</svg>
