<svg xmlns="http://www.w3.org/2000/svg" xmlns:xlink="http://www.w3.org/1999/xlink" width="50" height="50" viewBox="0 0 50 50">
  <defs>
    <clipPath id="clip-path">
      <path id="Path_250" data-name="Path 250" d="M182.154,187.966a.812.812,0,0,0,.81-.81v-2.7a.812.812,0,0,0-.81-.81H180.8v-3.239a3.24,3.24,0,0,0-3.239-3.239H155.975a3.24,3.24,0,0,0-3.239,3.239v28.068a3.24,3.24,0,0,0,3.239,3.239h21.591a3.24,3.24,0,0,0,3.239-3.239v-3.239h1.349a.812.812,0,0,0,.81-.81v-2.7a.812.812,0,0,0-.81-.81H180.8V196.6h1.349a.812.812,0,0,0,.81-.81v-2.7a.812.812,0,0,0-.81-.81H180.8v-4.318Zm-15.383-2.159a4.318,4.318,0,1,1-4.318,4.318A4.322,4.322,0,0,1,166.77,185.807Zm7.557,15.977a1.415,1.415,0,0,1-1.511,1.3H160.725a1.415,1.415,0,0,1-1.511-1.3v-1.3c0-2.146,2.031-3.886,4.534-3.886h.337a6.949,6.949,0,0,0,5.371,0h.337c2.5,0,4.534,1.741,4.534,3.886Z" transform="translate(-152.736 -177.17)" fill="none"/>
    </clipPath>
  </defs>
  <g id="icon-pengumuman-gelombang-ppdb" transform="translate(-279 -1066)">
    <g id="icon-pengumuman-gelombang-ppdb-2" data-name="icon-pengumuman-gelombang-ppdb" transform="translate(245 597.5)">
      <circle id="Ellipse_84" data-name="Ellipse 84" cx="25" cy="25" r="25" transform="translate(34 468.5)" fill="#d9eeff" opacity="0.7"/>
    </g>
    <g id="Group_5096" data-name="Group 5096" transform="translate(-1.654 17.75)">
      <path id="bullhorn-solid" d="M25.313,10.547a2.8,2.8,0,0,0-1.406-2.422V1.407A1.42,1.42,0,0,0,22.5,0a1.4,1.4,0,0,0-.878.308L17.885,3.3A10.666,10.666,0,0,1,11.25,5.625H2.812A2.812,2.812,0,0,0,0,8.437v4.219a2.812,2.812,0,0,0,2.812,2.813H4.293a10.679,10.679,0,0,0-.1,1.406A11.132,11.132,0,0,0,5.321,21.75a1.379,1.379,0,0,0,1.248.75H9.833a1.4,1.4,0,0,0,1.138-2.222,5.6,5.6,0,0,1-1.149-3.4,5.318,5.318,0,0,1,.194-1.406H11.25A10.664,10.664,0,0,1,17.885,17.8l3.737,2.99a1.406,1.406,0,0,0,2.284-1.1V12.97A2.8,2.8,0,0,0,25.313,10.547Zm-4.219,6.215L19.641,15.6a13.483,13.483,0,0,0-8.391-2.943V8.437a13.483,13.483,0,0,0,8.391-2.943l1.452-1.162Z" transform="translate(293 1062)" fill="#2680eb"/>
      <path id="Intersection_3" data-name="Intersection 3" d="M4.3,11.016H2.818A2.821,2.821,0,0,1,0,8.2V3.984A2.817,2.817,0,0,1,2.818,1.171h8.437A10.645,10.645,0,0,0,16.094,0a14.807,14.807,0,0,1-1.011,3.422,13.43,13.43,0,0,1-3.827.562V8.2c.174,0,.346,0,.519.011A14.865,14.865,0,0,1,4.2,12.155,10.2,10.2,0,0,1,4.3,11.016Z" transform="translate(292.998 1066.454)" fill="#6bb1fe" stroke="rgba(0,0,0,0)" stroke-miterlimit="10" stroke-width="1" opacity="0.5"/>
    </g>
  </g>
</svg>
