<svg xmlns="http://www.w3.org/2000/svg" xmlns:xlink="http://www.w3.org/1999/xlink" width="50" height="50" viewBox="0 0 50 50">
  <defs>
    <clipPath id="clip-path">
      <path id="Path_250" data-name="Path 250" d="M182.154,187.966a.812.812,0,0,0,.81-.81v-2.7a.812.812,0,0,0-.81-.81H180.8v-3.239a3.24,3.24,0,0,0-3.239-3.239H155.975a3.24,3.24,0,0,0-3.239,3.239v28.068a3.24,3.24,0,0,0,3.239,3.239h21.591a3.24,3.24,0,0,0,3.239-3.239v-3.239h1.349a.812.812,0,0,0,.81-.81v-2.7a.812.812,0,0,0-.81-.81H180.8V196.6h1.349a.812.812,0,0,0,.81-.81v-2.7a.812.812,0,0,0-.81-.81H180.8v-4.318Zm-15.383-2.159a4.318,4.318,0,1,1-4.318,4.318A4.322,4.322,0,0,1,166.77,185.807Zm7.557,15.977a1.415,1.415,0,0,1-1.511,1.3H160.725a1.415,1.415,0,0,1-1.511-1.3v-1.3c0-2.146,2.031-3.886,4.534-3.886h.337a6.949,6.949,0,0,0,5.371,0h.337c2.5,0,4.534,1.741,4.534,3.886Z" transform="translate(-152.736 -177.17)" fill="#fff"/>
    </clipPath>
    <clipPath id="clip-path-2">
      <path id="Path_37333" data-name="Path 37333" d="M18.375,3.5H14a3.5,3.5,0,1,0-7,0H2.625A2.626,2.626,0,0,0,0,6.125v19.25A2.626,2.626,0,0,0,2.625,28h15.75A2.626,2.626,0,0,0,21,25.375V6.125A2.626,2.626,0,0,0,18.375,3.5ZM5.25,23.187a1.313,1.313,0,1,1,1.312-1.312A1.309,1.309,0,0,1,5.25,23.187Zm0-5.25a1.312,1.312,0,1,1,1.312-1.312A1.309,1.309,0,0,1,5.25,17.937Zm0-5.25a1.312,1.312,0,1,1,1.312-1.312A1.309,1.309,0,0,1,5.25,12.687Zm5.25-10.5A1.312,1.312,0,1,1,9.187,3.5,1.309,1.309,0,0,1,10.5,2.187Zm7,20.125a.439.439,0,0,1-.438.438H9.187a.439.439,0,0,1-.437-.437v-.875A.439.439,0,0,1,9.187,21h7.875a.439.439,0,0,1,.438.438Zm0-5.25a.439.439,0,0,1-.438.438H9.187a.439.439,0,0,1-.437-.438v-.875a.439.439,0,0,1,.437-.438h7.875a.439.439,0,0,1,.438.438Zm0-5.25a.439.439,0,0,1-.438.438H9.187a.439.439,0,0,1-.437-.437v-.875a.439.439,0,0,1,.437-.438h7.875a.439.439,0,0,1,.438.438Z" transform="translate(0)" fill="#fff"/>
    </clipPath>
  </defs>
  <g id="icon-nav-kegiatan-tugas-active" transform="translate(-34 -468.5)">
    <circle id="Ellipse_84" data-name="Ellipse 84" cx="25" cy="25" r="25" transform="translate(34 468.5)" fill="#fff" opacity="0.1"/>
    <g id="Group_3732" data-name="Group 3732" transform="translate(-0.44 -1)">
      <path id="Path_37332" data-name="Path 37332" d="M18.375,3.5H14a3.5,3.5,0,1,0-7,0H2.625A2.626,2.626,0,0,0,0,6.125v19.25A2.626,2.626,0,0,0,2.625,28h15.75A2.626,2.626,0,0,0,21,25.375V6.125A2.626,2.626,0,0,0,18.375,3.5ZM5.25,23.187a1.313,1.313,0,1,1,1.312-1.312A1.309,1.309,0,0,1,5.25,23.187Zm0-5.25a1.312,1.312,0,1,1,1.312-1.312A1.309,1.309,0,0,1,5.25,17.937Zm0-5.25a1.312,1.312,0,1,1,1.312-1.312A1.309,1.309,0,0,1,5.25,12.687Zm5.25-10.5A1.312,1.312,0,1,1,9.187,3.5,1.309,1.309,0,0,1,10.5,2.187Zm7,20.125a.439.439,0,0,1-.438.438H9.187a.439.439,0,0,1-.437-.437v-.875A.439.439,0,0,1,9.187,21h7.875a.439.439,0,0,1,.438.438Zm0-5.25a.439.439,0,0,1-.438.438H9.187a.439.439,0,0,1-.437-.438v-.875a.439.439,0,0,1,.437-.438h7.875a.439.439,0,0,1,.438.438Zm0-5.25a.439.439,0,0,1-.438.438H9.187a.439.439,0,0,1-.437-.437v-.875a.439.439,0,0,1,.437-.438h7.875a.439.439,0,0,1,.438.438Z" transform="translate(48.44 480.5)" fill="#fff"/>
      <g id="Mask_Group_1522" data-name="Mask Group 1522" transform="translate(48.44 480.5)" clip-path="url(#clip-path-2)">
        <circle id="Ellipse_627" data-name="Ellipse 627" cx="12.365" cy="12.365" r="12.365" transform="translate(-10.211 -10.73)" fill="#fff" opacity="0.5"/>
      </g>
    </g>
  </g>
</svg>
