<svg xmlns="http://www.w3.org/2000/svg" xmlns:xlink="http://www.w3.org/1999/xlink" width="42" height="38" viewBox="0 0 42 38">
  <defs>
    <clipPath id="clip-path">
      <path id="Union_45" data-name="Union 45" d="M6612.332,10728.144a2.556,2.556,0,0,1-2.5-1.906l7.108-14.905a3.4,3.4,0,0,1,3.088-1.914H6646.9a3.394,3.394,0,0,1,2.911,1.586,3.115,3.115,0,0,1,.143,3.04l-6.144,12.314a3.228,3.228,0,0,1-2.886,1.785Zm-2.571-29a2.468,2.468,0,0,1,2.51-2.42h9.6a2.535,2.535,0,0,1,2.067,1.047l2.642,3.691a.057.057,0,0,0,.04.011h14.757a2.468,2.468,0,0,1,2.509,2.421v3.236h-25.306a3.393,3.393,0,0,0-3.088,1.914l-5.732,12.014Z" transform="translate(-6087.523 -10398.941)" fill="#2680eb"/>
    </clipPath>
  </defs>
  <g id="icon-folder-pin" transform="translate(-463 -297)">
    <g id="icon-folder">
      <g id="folder" transform="translate(463.001 296.5)">
        <path id="Path_2657" data-name="Path 2657" d="M40.853,162.528a3.389,3.389,0,0,0-2.911-1.587H11.067a3.4,3.4,0,0,0-3.088,1.914L.87,177.759a2.558,2.558,0,0,0,2.5,1.907H31.966a3.225,3.225,0,0,0,2.886-1.785L41,165.566a3.107,3.107,0,0,0-.143-3.038Zm0,0" transform="translate(-0.802 -147.743)" fill="#2680eb"/>
        <path id="Path_2658" data-name="Path 2658" d="M5.73,12.819a3.4,3.4,0,0,1,3.088-1.914H34.126V7.669a2.469,2.469,0,0,0-2.509-2.42H16.86a.079.079,0,0,1-.042-.01L14.177,1.546A2.536,2.536,0,0,0,12.111.5H2.51A2.469,2.469,0,0,0,0,2.92V24.834Zm0,0" transform="translate(0 0)" fill="#2680eb"/>
      </g>
      <g id="Mask_Group_1365" data-name="Mask Group 1365" transform="translate(-59.237 -0.779)" clip-path="url(#clip-path)">
        <ellipse id="Ellipse_389" data-name="Ellipse 389" cx="22.354" cy="21.854" rx="22.354" ry="21.854" transform="translate(495 284.494)" fill="#6bb1fe" opacity="0.5"/>
      </g>
    </g>
    <g id="Group_2352" data-name="Group 2352">
      <g id="Ellipse_390" data-name="Ellipse 390" transform="translate(487 317)" fill="#f9ac50" stroke="#f5f5f8" stroke-width="1">
        <circle cx="9" cy="9" r="9" stroke="none"/>
        <circle cx="9" cy="9" r="8.5" fill="none"/>
      </g>
      <path id="thumbtack-solid" d="M4.729,3.4,4.535,1.523H5.2a.381.381,0,0,0,.381-.381V.381A.381.381,0,0,0,5.2,0H.889A.381.381,0,0,0,.508.381v.762a.381.381,0,0,0,.381.381h.67L1.364,3.4A2.094,2.094,0,0,0,0,5.2a.381.381,0,0,0,.381.381H2.539v1.65a.127.127,0,0,0,.013.057l.381.762a.127.127,0,0,0,.227,0l.381-.762a.127.127,0,0,0,.013-.057V5.585H5.712A.381.381,0,0,0,6.093,5.2,2.1,2.1,0,0,0,4.729,3.4Z" transform="translate(496.405 321.737) rotate(45)" fill="#fff"/>
    </g>
  </g>
</svg>
