<svg xmlns="http://www.w3.org/2000/svg" width="30" height="30" viewBox="0 0 30 30">
  <g id="icon-subnav-detail-jawaban" transform="translate(-182.652 -189.652)">
    <circle id="Ellipse_29" data-name="Ellipse 29" cx="15" cy="15" r="15" transform="translate(182.652 189.652)" fill="#d9eeff"/>
    <path id="Path_224" data-name="Path 224" d="M17.752,15.562l-3.5-3.5a.843.843,0,0,0-.6-.246h-.573a7.308,7.308,0,1,0-1.266,1.266v.573a.843.843,0,0,0,.246.6l3.5,3.5a.84.84,0,0,0,1.192,0l.995-.995A.848.848,0,0,0,17.752,15.562ZM7.312,11.811a4.5,4.5,0,1,1,4.5-4.5A4.5,4.5,0,0,1,7.312,11.811Z" transform="translate(188.652 195.694)" fill="#2680eb"/>
  </g>
</svg>
