<svg xmlns="http://www.w3.org/2000/svg" xmlns:xlink="http://www.w3.org/1999/xlink" width="20" height="16" viewBox="0 0 20 16">
  <defs>
    <clipPath id="clip-path">
      <path id="Path_37167" data-name="Path 37167" d="M19.25,6H15V.75A.75.75,0,0,0,14.25,0H9.75A.75.75,0,0,0,9,.75V3H7V.5A.5.5,0,0,0,6.5,0H6a.5.5,0,0,0-.5.5V3h-2V.5A.5.5,0,0,0,3,0H2.5A.5.5,0,0,0,2,.5V3H.75A.75.75,0,0,0,0,3.75V15a1,1,0,0,0,1,1H19a1,1,0,0,0,1-1V6.75A.75.75,0,0,0,19.25,6ZM4,12.625A.375.375,0,0,1,3.625,13H2.375A.375.375,0,0,1,2,12.625v-1.25A.375.375,0,0,1,2.375,11h1.25A.375.375,0,0,1,4,11.375Zm0-3A.375.375,0,0,1,3.625,10H2.375A.375.375,0,0,1,2,9.625V8.375A.375.375,0,0,1,2.375,8h1.25A.375.375,0,0,1,4,8.375Zm0-3A.375.375,0,0,1,3.625,7H2.375A.375.375,0,0,1,2,6.625V5.375A.375.375,0,0,1,2.375,5h1.25A.375.375,0,0,1,4,5.375Zm4,6A.375.375,0,0,1,7.625,13H6.375A.375.375,0,0,1,6,12.625v-1.25A.375.375,0,0,1,6.375,11h1.25A.375.375,0,0,1,8,11.375Zm0-3A.375.375,0,0,1,7.625,10H6.375A.375.375,0,0,1,6,9.625V8.375A.375.375,0,0,1,6.375,8h1.25A.375.375,0,0,1,8,8.375Zm0-3A.375.375,0,0,1,7.625,7H6.375A.375.375,0,0,1,6,6.625V5.375A.375.375,0,0,1,6.375,5h1.25A.375.375,0,0,1,8,5.375Zm5,3a.375.375,0,0,1-.375.375h-1.25A.375.375,0,0,1,11,9.625V8.375A.375.375,0,0,1,11.375,8h1.25A.375.375,0,0,1,13,8.375Zm0-3A.375.375,0,0,1,12.625,7h-1.25A.375.375,0,0,1,11,6.625V5.375A.375.375,0,0,1,11.375,5h1.25A.375.375,0,0,1,13,5.375Zm0-3A.375.375,0,0,1,12.625,4h-1.25A.375.375,0,0,1,11,3.625V2.375A.375.375,0,0,1,11.375,2h1.25A.375.375,0,0,1,13,2.375Zm5,9a.375.375,0,0,1-.375.375h-1.25A.375.375,0,0,1,16,12.625v-1.25A.375.375,0,0,1,16.375,11h1.25a.375.375,0,0,1,.375.375Zm0-3a.375.375,0,0,1-.375.375h-1.25A.375.375,0,0,1,16,9.625V8.375A.375.375,0,0,1,16.375,8h1.25A.375.375,0,0,1,18,8.375Z" transform="translate(0 0)" fill="#3a4166"/>
    </clipPath>
  </defs>
  <g id="icon-alumni-berwirausaha" transform="translate(-407 -482.2)">
    <path id="Path_255" data-name="Path 255" d="M19.25,6H15V.75A.75.75,0,0,0,14.25,0H9.75A.75.75,0,0,0,9,.75V3H7V.5A.5.5,0,0,0,6.5,0H6a.5.5,0,0,0-.5.5V3h-2V.5A.5.5,0,0,0,3,0H2.5A.5.5,0,0,0,2,.5V3H.75A.75.75,0,0,0,0,3.75V15a1,1,0,0,0,1,1H19a1,1,0,0,0,1-1V6.75A.75.75,0,0,0,19.25,6ZM4,12.625A.375.375,0,0,1,3.625,13H2.375A.375.375,0,0,1,2,12.625v-1.25A.375.375,0,0,1,2.375,11h1.25A.375.375,0,0,1,4,11.375Zm0-3A.375.375,0,0,1,3.625,10H2.375A.375.375,0,0,1,2,9.625V8.375A.375.375,0,0,1,2.375,8h1.25A.375.375,0,0,1,4,8.375Zm0-3A.375.375,0,0,1,3.625,7H2.375A.375.375,0,0,1,2,6.625V5.375A.375.375,0,0,1,2.375,5h1.25A.375.375,0,0,1,4,5.375Zm4,6A.375.375,0,0,1,7.625,13H6.375A.375.375,0,0,1,6,12.625v-1.25A.375.375,0,0,1,6.375,11h1.25A.375.375,0,0,1,8,11.375Zm0-3A.375.375,0,0,1,7.625,10H6.375A.375.375,0,0,1,6,9.625V8.375A.375.375,0,0,1,6.375,8h1.25A.375.375,0,0,1,8,8.375Zm0-3A.375.375,0,0,1,7.625,7H6.375A.375.375,0,0,1,6,6.625V5.375A.375.375,0,0,1,6.375,5h1.25A.375.375,0,0,1,8,5.375Zm5,3a.375.375,0,0,1-.375.375h-1.25A.375.375,0,0,1,11,9.625V8.375A.375.375,0,0,1,11.375,8h1.25A.375.375,0,0,1,13,8.375Zm0-3A.375.375,0,0,1,12.625,7h-1.25A.375.375,0,0,1,11,6.625V5.375A.375.375,0,0,1,11.375,5h1.25A.375.375,0,0,1,13,5.375Zm0-3A.375.375,0,0,1,12.625,4h-1.25A.375.375,0,0,1,11,3.625V2.375A.375.375,0,0,1,11.375,2h1.25A.375.375,0,0,1,13,2.375Zm5,9a.375.375,0,0,1-.375.375h-1.25A.375.375,0,0,1,16,12.625v-1.25A.375.375,0,0,1,16.375,11h1.25a.375.375,0,0,1,.375.375Zm0-3a.375.375,0,0,1-.375.375h-1.25A.375.375,0,0,1,16,9.625V8.375A.375.375,0,0,1,16.375,8h1.25A.375.375,0,0,1,18,8.375Z" transform="translate(407 482.2)" fill="#2680eb"/>
    <g id="Mask_Group_1457" data-name="Mask Group 1457" transform="translate(407 482.2)" clip-path="url(#clip-path)">
      <ellipse id="Ellipse_515" data-name="Ellipse 515" cx="15.943" cy="15.943" rx="15.943" ry="15.943" transform="translate(-18.36 -19.591)" fill="#87beff" opacity="0.5"/>
    </g>
  </g>
</svg>
