<svg xmlns="http://www.w3.org/2000/svg" xmlns:xlink="http://www.w3.org/1999/xlink" width="30" height="30" viewBox="0 0 30 30">
  <defs>
    <clipPath id="clip-path">
      <path id="Union_52" data-name="Union 52" d="M-16007.486-13202.086a.789.789,0,0,1-.832-.728v-14.071a.786.786,0,0,1,.832-.728h6.923v4.123a.782.782,0,0,0,.828.727h4.709v9.949a.788.788,0,0,1-.831.728Zm1.013-3.021a.718.718,0,0,0,.719.719h4.3a.721.721,0,0,0,.72-.719.722.722,0,0,0-.72-.72h-4.3A.718.718,0,0,0-16006.474-13205.107Zm0-2.628a.718.718,0,0,0,.719.719h7.76a.718.718,0,0,0,.719-.719.721.721,0,0,0-.719-.72h-7.76A.721.721,0,0,0-16006.474-13207.735Zm0-2.637a.718.718,0,0,0,.719.72h7.76a.718.718,0,0,0,.719-.72.718.718,0,0,0-.719-.719h-7.76A.718.718,0,0,0-16006.474-13210.372Zm-4.2,5.778v-13.48a1.873,1.873,0,0,1,1.9-1.837h3.158a2.493,2.493,0,0,1,2.527-2.45,2.493,2.493,0,0,1,2.527,2.45h3.158a1.874,1.874,0,0,1,1.9,1.837v1.739l-2.388-2.049a1.062,1.062,0,0,0-.7-.249h-9.828a.928.928,0,0,0-.988.852v14.92A1.85,1.85,0,0,1-16010.677-13204.594Zm6.634-15.317a.934.934,0,0,0,.948.921.934.934,0,0,0,.948-.921.937.937,0,0,0-.948-.92A.937.937,0,0,0-16004.043-13219.911Zm4.726,6.177v-3.882h.205a.848.848,0,0,1,.57.213l3.279,2.974a.687.687,0,0,1,.236.51v.186Z" transform="translate(16052.852 13571.223)" fill="#2680eb" stroke="rgba(0,0,0,0)" stroke-miterlimit="10" stroke-width="1"/>
    </clipPath>
  </defs>
  <g id="icon-perangkat-pembelajaran" transform="translate(-35 -344)">
    <circle id="Ellipse_116" data-name="Ellipse 116" cx="15" cy="15" r="15" transform="translate(35 344)" fill="#d9eeff" opacity="0.7"/>
    <path id="Union_49" data-name="Union 49" d="M-16007.486-13202.086a.789.789,0,0,1-.832-.728v-14.071a.786.786,0,0,1,.832-.728h6.923v4.123a.782.782,0,0,0,.828.727h4.709v9.949a.788.788,0,0,1-.831.728Zm1.013-3.021a.718.718,0,0,0,.719.719h4.3a.721.721,0,0,0,.72-.719.722.722,0,0,0-.72-.72h-4.3A.718.718,0,0,0-16006.474-13205.107Zm0-2.628a.718.718,0,0,0,.719.719h7.76a.718.718,0,0,0,.719-.719.721.721,0,0,0-.719-.72h-7.76A.721.721,0,0,0-16006.474-13207.735Zm0-2.637a.718.718,0,0,0,.719.72h7.76a.718.718,0,0,0,.719-.72.718.718,0,0,0-.719-.719h-7.76A.718.718,0,0,0-16006.474-13210.372Zm-4.2,5.778v-13.48a1.873,1.873,0,0,1,1.9-1.837h3.158a2.493,2.493,0,0,1,2.527-2.45,2.493,2.493,0,0,1,2.527,2.45h3.158a1.874,1.874,0,0,1,1.9,1.837v1.739l-2.388-2.049a1.062,1.062,0,0,0-.7-.249h-9.828a.928.928,0,0,0-.988.852v14.92A1.85,1.85,0,0,1-16010.677-13204.594Zm6.634-15.317a.934.934,0,0,0,.948.921.934.934,0,0,0,.948-.921.937.937,0,0,0-.948-.92A.937.937,0,0,0-16004.043-13219.911Zm4.726,6.177v-3.882h.205a.848.848,0,0,1,.57.213l3.279,2.974a.687.687,0,0,1,.236.51v.186Z" transform="translate(16052.852 13570.224)" fill="#2680eb" stroke="rgba(0,0,0,0)" stroke-miterlimit="10" stroke-width="1"/>
    <g id="Mask_Group_3734" data-name="Mask Group 3734" transform="translate(0 -0.999)" clip-path="url(#clip-path)">
      <ellipse id="Ellipse_892" data-name="Ellipse 892" cx="11.476" cy="11.476" rx="11.476" ry="11.476" transform="translate(29.728 342.699)" fill="#6bb1fe" opacity="0.5"/>
    </g>
  </g>
</svg>
