<svg xmlns="http://www.w3.org/2000/svg" width="29.9" height="26.645" viewBox="0 0 29.9 26.645">
  <g id="icon-jadwal-ujian" transform="translate(0 -20.9)">
    <g id="Group_210" data-name="Group 210" transform="translate(0 20.9)">
      <g id="Group_209" data-name="Group 209" transform="translate(0 0)">
        <path id="Path_116" data-name="Path 116" d="M26.8,23.166H24.923V21.679a.779.779,0,1,0-1.558,0v1.488H15.733V21.679a.779.779,0,1,0-1.558,0v1.488H6.464V21.679a.779.779,0,1,0-1.558,0v1.488h-1.8A3.152,3.152,0,0,0,0,26.321V44.429a3.108,3.108,0,0,0,3.108,3.115H26.793A3.106,3.106,0,0,0,29.9,44.437V26.321A3.14,3.14,0,0,0,26.8,23.166Zm1.55,21.263a1.554,1.554,0,0,1-1.542,1.558H3.108a1.549,1.549,0,0,1-1.55-1.55V26.321a1.584,1.584,0,0,1,1.55-1.6h1.8v1.129a.779.779,0,0,0,1.558,0V24.724h7.711v1.129a.779.779,0,0,0,1.558,0V24.724h7.633v1.129a.779.779,0,0,0,1.558,0V24.724H26.8a1.584,1.584,0,0,1,1.55,1.6Z" transform="translate(0 -20.9)" fill="#fff"/>
      </g>
    </g>
    <g id="Group_212" data-name="Group 212" transform="translate(10.764 29.787)">
      <g id="Group_211" data-name="Group 211">
        <path id="Path_117" data-name="Path 117" d="M140.342,135h-1.363a.779.779,0,0,0,0,1.558h1.363a.779.779,0,1,0,0-1.558Z" transform="translate(-138.2 -135)" fill="#fff"/>
      </g>
    </g>
    <g id="Group_214" data-name="Group 214" transform="translate(16.185 29.787)">
      <g id="Group_213" data-name="Group 213">
        <path id="Path_118" data-name="Path 118" d="M209.942,135h-1.363a.779.779,0,0,0,0,1.558h1.363a.779.779,0,1,0,0-1.558Z" transform="translate(-207.8 -135)" fill="#fff"/>
      </g>
    </g>
    <g id="Group_216" data-name="Group 216" transform="translate(21.652 29.787)">
      <g id="Group_215" data-name="Group 215">
        <path id="Path_119" data-name="Path 119" d="M280.142,135h-1.363a.779.779,0,0,0,0,1.558h1.363a.779.779,0,1,0,0-1.558Z" transform="translate(-278 -135)" fill="#fff"/>
      </g>
    </g>
    <g id="Group_218" data-name="Group 218" transform="translate(10.764 35.161)">
      <g id="Group_217" data-name="Group 217">
        <path id="Path_120" data-name="Path 120" d="M140.342,204h-1.363a.779.779,0,1,0,0,1.558h1.363a.779.779,0,1,0,0-1.558Z" transform="translate(-138.2 -204)" fill="#fff"/>
      </g>
    </g>
    <g id="Group_220" data-name="Group 220" transform="translate(5.296 35.161)">
      <g id="Group_219" data-name="Group 219">
        <path id="Path_121" data-name="Path 121" d="M70.15,204H68.779a.779.779,0,1,0,0,1.558h1.363A.779.779,0,0,0,70.15,204Z" transform="translate(-68 -204)" fill="#fff"/>
      </g>
    </g>
    <g id="Group_222" data-name="Group 222" transform="translate(16.185 35.161)">
      <g id="Group_221" data-name="Group 221">
        <path id="Path_122" data-name="Path 122" d="M209.942,204h-1.363a.779.779,0,1,0,0,1.558h1.363a.779.779,0,1,0,0-1.558Z" transform="translate(-207.8 -204)" fill="#fff"/>
      </g>
    </g>
    <g id="Group_224" data-name="Group 224" transform="translate(21.652 35.161)">
      <g id="Group_223" data-name="Group 223">
        <path id="Path_123" data-name="Path 123" d="M280.142,204h-1.363a.779.779,0,0,0,0,1.558h1.363a.779.779,0,1,0,0-1.558Z" transform="translate(-278 -204)" fill="#fff"/>
      </g>
    </g>
    <g id="Group_226" data-name="Group 226" transform="translate(10.764 40.457)">
      <g id="Group_225" data-name="Group 225">
        <path id="Path_124" data-name="Path 124" d="M140.342,272h-1.363a.779.779,0,1,0,0,1.558h1.363a.779.779,0,1,0,0-1.558Z" transform="translate(-138.2 -272)" fill="#fff"/>
      </g>
    </g>
    <g id="Group_228" data-name="Group 228" transform="translate(5.296 40.457)">
      <g id="Group_227" data-name="Group 227">
        <path id="Path_125" data-name="Path 125" d="M70.15,272H68.779a.779.779,0,0,0,0,1.558h1.363A.779.779,0,0,0,70.15,272Z" transform="translate(-68 -272)" fill="#fff"/>
      </g>
    </g>
    <g id="Group_230" data-name="Group 230" transform="translate(16.185 40.457)">
      <g id="Group_229" data-name="Group 229">
        <path id="Path_126" data-name="Path 126" d="M209.942,272h-1.363a.779.779,0,1,0,0,1.558h1.363a.779.779,0,1,0,0-1.558Z" transform="translate(-207.8 -272)" fill="#fff"/>
      </g>
    </g>
  </g>
</svg>
