<svg xmlns="http://www.w3.org/2000/svg" width="19.34" height="19.34" viewBox="0 0 19.34 19.34">
  <g id="info-icon-white" transform="translate(-445.348 -232.347)">
    <g id="Group_444" data-name="Group 444" transform="translate(445.348 232.347)">
      <path id="Path_183" data-name="Path 183" d="M9.67,0a9.67,9.67,0,1,0,9.67,9.67A9.681,9.681,0,0,0,9.67,0Zm0,17.582A7.912,7.912,0,1,1,17.582,9.67,7.921,7.921,0,0,1,9.67,17.582Z" fill="#fff"/>
      <path id="Path_184" data-name="Path 184" d="M146.174,70a1.172,1.172,0,1,0,1.172,1.173A1.174,1.174,0,0,0,146.174,70Z" transform="translate(-136.504 -65.898)" fill="#fff"/>
      <path id="Path_185" data-name="Path 185" d="M150.879,140a.879.879,0,0,0-.879.879v5.275a.879.879,0,0,0,1.758,0v-5.275A.879.879,0,0,0,150.879,140Z" transform="translate(-141.209 -131.795)" fill="#fff"/>
    </g>
  </g>
</svg>
