<svg xmlns="http://www.w3.org/2000/svg" xmlns:xlink="http://www.w3.org/1999/xlink" width="50" height="50" viewBox="0 0 50 50"><defs><clipPath id="a"><path d="M18.75,10.5H17.625V7.125a7.125,7.125,0,0,0-14.25,0V10.5H2.25A2.251,2.251,0,0,0,0,12.75v9A2.251,2.251,0,0,0,2.25,24h16.5A2.251,2.251,0,0,0,21,21.75v-9A2.251,2.251,0,0,0,18.75,10.5Zm-4.875,0H7.125V7.125a3.375,3.375,0,0,1,6.75,0Z" transform="translate(448 574)" fill="#2680eb"/></clipPath></defs><g transform="translate(-433 -561)"><circle cx="25" cy="25" r="25" transform="translate(433 561)" fill="#d9eeff" opacity="0.4"/><g transform="translate(0 -1)"><path d="M18.75,10.5H17.625V7.125a7.125,7.125,0,0,0-14.25,0V10.5H2.25A2.251,2.251,0,0,0,0,12.75v9A2.251,2.251,0,0,0,2.25,24h16.5A2.251,2.251,0,0,0,21,21.75v-9A2.251,2.251,0,0,0,18.75,10.5Zm-4.875,0H7.125V7.125a3.375,3.375,0,0,1,6.75,0Z" transform="translate(448 574)" fill="#2680eb"/><g clip-path="url(#a)"><circle cx="12.365" cy="12.365" r="12.365" transform="translate(435.635 570.17)" fill="#6bb1fe" opacity="0.5"/></g></g></g></svg>