<svg width="40" height="40" viewBox="0 0 40 40" fill="none" xmlns="http://www.w3.org/2000/svg">
<rect width="40" height="40" rx="8" fill="#D4E6FB" fill-opacity="0.5"/>
<g clip-path="url(#clip0_5986_4925)">
<path d="M20 9C17.1004 9 14.75 11.3504 14.75 14.25C14.75 16.5942 18.1812 20.8667 19.4958 22.4175C19.7621 22.7317 20.2383 22.7317 20.5042 22.4175C21.8188 20.8667 25.25 16.5942 25.25 14.25C25.25 11.3504 22.8996 9 20 9ZM20 16C19.0333 16 18.25 15.2167 18.25 14.25C18.25 13.2833 19.0333 12.5 20 12.5C20.9667 12.5 21.75 13.2833 21.75 14.25C21.75 15.2167 20.9667 16 20 16ZM8.83833 17.9979C8.59091 18.0969 8.3788 18.2677 8.22938 18.4883C8.07995 18.709 8.00006 18.9694 8 19.2358V29.6658C8 30.1375 8.47625 30.46 8.91417 30.285L14.6667 27.6667V17.955C14.2983 17.2892 13.9971 16.6408 13.7812 16.0208L8.83833 17.9979ZM20 23.9863C19.4138 23.9863 18.8592 23.7288 18.4788 23.2796C17.6596 22.3129 16.7883 21.2121 16 20.0829V27.6663L24 30.3329V20.0833C23.2117 21.2121 22.3408 22.3133 21.5213 23.28C21.1408 23.7288 20.5863 23.9863 20 23.9863ZM31.0858 15.715L25.3333 18.3333V30.3333L31.1617 28.0021C31.4091 27.9032 31.6213 27.7324 31.7707 27.5117C31.9201 27.291 32 27.0307 32 26.7642V16.3342C32 15.8625 31.5238 15.54 31.0858 15.715Z" fill="#2680EB"/>
</g>
<g opacity="0.3">
<mask id="mask0_5986_4925" style="mask-type:alpha" maskUnits="userSpaceOnUse" x="8" y="9" width="24" height="22">
<path d="M20 9C17.1004 9 14.75 11.3504 14.75 14.25C14.75 16.5942 18.1812 20.8667 19.4958 22.4175C19.7621 22.7317 20.2383 22.7317 20.5042 22.4175C21.8188 20.8667 25.25 16.5942 25.25 14.25C25.25 11.3504 22.8996 9 20 9ZM20 16C19.0333 16 18.25 15.2167 18.25 14.25C18.25 13.2833 19.0333 12.5 20 12.5C20.9667 12.5 21.75 13.2833 21.75 14.25C21.75 15.2167 20.9667 16 20 16ZM8.83833 17.9979C8.59091 18.0969 8.3788 18.2677 8.22938 18.4883C8.07995 18.709 8.00006 18.9694 8 19.2358V29.6658C8 30.1375 8.47625 30.46 8.91417 30.285L14.6667 27.6667V17.955C14.2983 17.2892 13.9971 16.6408 13.7812 16.0208L8.83833 17.9979ZM20 23.9863C19.4137 23.9863 18.8592 23.7287 18.4788 23.2796C17.6596 22.3129 16.7883 21.2121 16 20.0829V27.6663L24 30.3329V20.0833C23.2117 21.2121 22.3408 22.3133 21.5213 23.28C21.1408 23.7288 20.5863 23.9863 20 23.9863ZM31.0858 15.715L25.3333 18.3333V30.3333L31.1617 28.0021C31.4091 27.9032 31.6213 27.7324 31.7707 27.5117C31.9201 27.291 32 27.0307 32 26.7642V16.3342C32 15.8625 31.5238 15.54 31.0858 15.715Z" fill="#2680EB"/>
</mask>
<g mask="url(#mask0_5986_4925)">
<circle cx="0.5" cy="16.5" r="20.5" fill="#D4E6FB"/>
</g>
</g>
<defs>
<clipPath id="clip0_5986_4925">
<rect width="24" height="24" fill="white" transform="translate(8 8)"/>
</clipPath>
</defs>
</svg>
