<svg width="40" height="40" viewBox="0 0 40 40" fill="none" xmlns="http://www.w3.org/2000/svg">
<rect width="40" height="40" rx="8" fill="#D4E6FB" fill-opacity="0.5"/>
<g clip-path="url(#clip0_5986_4934)">
<path d="M16.4 19.6C19.0512 19.6 21.2 17.4512 21.2 14.8C21.2 12.1487 19.0512 10 16.4 10C13.7487 10 11.6 12.1487 11.6 14.8C11.6 17.4512 13.7487 19.6 16.4 19.6ZM19.76 20.8H19.1337C18.3012 21.1825 17.375 21.4 16.4 21.4C15.425 21.4 14.5025 21.1825 13.6662 20.8H13.04C10.2575 20.8 8 23.0575 8 25.84V27.4C8 28.3937 8.80625 29.2 9.8 29.2H23C23.9937 29.2 24.8 28.3937 24.8 27.4V25.84C24.8 23.0575 22.5425 20.8 19.76 20.8ZM31.8725 15.985L30.83 14.9312C30.6575 14.755 30.3762 14.755 30.2 14.9275L26.27 18.8275L24.5637 17.11C24.3912 16.9337 24.11 16.9337 23.9337 17.1062L22.88 18.1525C22.7037 18.325 22.7037 18.6062 22.8762 18.7825L25.94 21.8687C26.1125 22.045 26.3937 22.045 26.57 21.8725L31.8687 16.615C32.0412 16.4387 32.045 16.1575 31.8725 15.985Z" fill="#2680EB"/>
</g>
<g opacity="0.3">
<mask id="mask0_5986_4934" style="mask-type:alpha" maskUnits="userSpaceOnUse" x="8" y="10" width="24" height="20">
<path d="M16.4 19.6C19.0512 19.6 21.2 17.4512 21.2 14.8C21.2 12.1487 19.0512 10 16.4 10C13.7487 10 11.6 12.1487 11.6 14.8C11.6 17.4512 13.7487 19.6 16.4 19.6ZM19.76 20.8H19.1337C18.3012 21.1825 17.375 21.4 16.4 21.4C15.425 21.4 14.5025 21.1825 13.6662 20.8H13.04C10.2575 20.8 8 23.0575 8 25.84V27.4C8 28.3937 8.80625 29.2 9.8 29.2H23C23.9937 29.2 24.8 28.3937 24.8 27.4V25.84C24.8 23.0575 22.5425 20.8 19.76 20.8ZM31.8725 15.985L30.83 14.9312C30.6575 14.755 30.3762 14.755 30.2 14.9275L26.27 18.8275L24.5637 17.11C24.3912 16.9337 24.11 16.9337 23.9337 17.1062L22.88 18.1525C22.7037 18.325 22.7037 18.6062 22.8762 18.7825L25.94 21.8687C26.1125 22.045 26.3937 22.045 26.57 21.8725L31.8687 16.615C32.0412 16.4387 32.045 16.1575 31.8725 15.985Z" fill="#2680EB"/>
</mask>
<g mask="url(#mask0_5986_4934)">
<circle cx="7" cy="16" r="14" fill="#D4E6FB"/>
</g>
</g>
<defs>
<clipPath id="clip0_5986_4934">
<rect width="24" height="24" fill="white" transform="translate(8 8)"/>
</clipPath>
</defs>
</svg>
