<svg xmlns="http://www.w3.org/2000/svg" xmlns:xlink="http://www.w3.org/1999/xlink" width="200" height="200" viewBox="0 0 200 200">
  <defs>
    <style>
      .cls-1 {
        fill: #2680eb;
      }

      .cls-2 {
        fill: #fff;
      }

      .cls-3 {
        fill: #d9eeff;
        opacity: 0.4;
      }

      .cls-4 {
        clip-path: url(#clip-path);
      }

      .cls-5 {
        clip-path: url(#clip-path-2);
      }

      .cls-6 {
        fill: #e6f2ff;
      }

      .cls-7 {
        fill: #6bb1fe;
        opacity: 0.5;
      }
    </style>
    <clipPath id="clip-path">
      <path id="user-solid" class="cls-1" d="M52.463,59.958A29.979,29.979,0,1,0,22.484,29.979,29.977,29.977,0,0,0,52.463,59.958Zm20.985,7.495H69.537a40.77,40.77,0,0,1-34.148,0H31.478A31.486,31.486,0,0,0,0,98.931v9.743a11.245,11.245,0,0,0,11.242,11.242H93.684a11.245,11.245,0,0,0,11.242-11.242V98.931A31.486,31.486,0,0,0,73.448,67.453Z"/>
    </clipPath>
    <clipPath id="clip-path-2">
      <path id="user-solid-2" data-name="user-solid" class="cls-2" d="M52.463,59.958A29.979,29.979,0,1,0,22.484,29.979,29.977,29.977,0,0,0,52.463,59.958Zm20.985,7.495H69.537a40.77,40.77,0,0,1-34.148,0H31.478A31.486,31.486,0,0,0,0,98.931v9.743a11.245,11.245,0,0,0,11.242,11.242H93.684a11.245,11.245,0,0,0,11.242-11.242V98.931A31.486,31.486,0,0,0,73.448,67.453Z"/>
    </clipPath>
  </defs>
  <g id="Group_2859" data-name="Group 2859" transform="translate(-171 -139)">
    <g id="Group_2860" data-name="Group 2860" transform="translate(171 139)">
      <circle id="Ellipse_302" data-name="Ellipse 302" class="cls-3" cx="100" cy="100" r="100"/>
      <g id="Group_2690" data-name="Group 2690" transform="translate(39.926 39.926)">
        <g id="Mask_Group_1427" data-name="Mask Group 1427" class="cls-5" transform="translate(0 0)">
          <path id="user-solid-4" data-name="user-solid" class="cls-1" d="M52.463,59.958A29.979,29.979,0,1,0,22.484,29.979,29.977,29.977,0,0,0,52.463,59.958Zm20.985,7.495H69.537a40.77,40.77,0,0,1-34.148,0H31.478A31.486,31.486,0,0,0,0,98.931v9.743a11.245,11.245,0,0,0,11.242,11.242H93.684a11.245,11.245,0,0,0,11.242-11.242V98.931A31.486,31.486,0,0,0,73.448,67.453Z"/>
          <path id="Union_67" data-name="Union 67" class="cls-6" d="M56.133,64.044l-2.373-2.373L51.278,64.15,37.435,50.324a26.356,26.356,0,1,1,10.319-8.5l.8.776h.67a3.049,3.049,0,0,1,2.168.891L64.024,56.145a3.04,3.04,0,0,1-.016,4.3l-3.579,3.595a3.019,3.019,0,0,1-2.144.883A2.984,2.984,0,0,1,56.133,64.044Z" transform="translate(63.613 48.117)"/>
        </g>
        <path id="search-solid" class="cls-1" d="M53.747,47.117,43.136,36.505a2.552,2.552,0,0,0-1.809-.745H39.592a22.127,22.127,0,1,0-3.831,3.831v1.735a2.552,2.552,0,0,0,.745,1.809L47.117,53.747a2.544,2.544,0,0,0,3.608,0l3.012-3.012A2.566,2.566,0,0,0,53.747,47.117ZM22.137,35.76A13.623,13.623,0,1,1,35.76,22.137,13.615,13.615,0,0,1,22.137,35.76Z" transform="translate(67.68 52.22)"/>
        <g id="Mask_Group_1428" data-name="Mask Group 1428" class="cls-4" transform="translate(0 0)">
          <path id="Path_37061" data-name="Path 37061" class="cls-7" d="M75.552,0c41.726,0,82.175,36.423,82.175,78.148,9.429,18.3-8.382,16.019-12.364,26.341-10.095,26.454-37.6,46.613-69.811,46.613a75.552,75.552,0,0,1,0-151.1Z" transform="translate(-70.669 -52.084)"/>
        </g>
      </g>
    </g>
  </g>
</svg>
