<svg xmlns="http://www.w3.org/2000/svg" width="173.382" height="198.15" viewBox="0 0 173.382 198.15">
  <defs>
    <style>
      .cls-1 {
        fill: #80849c;
      }
    </style>
  </defs>
  <path id="user-solid" class="cls-1" d="M86.691,99.075A49.538,49.538,0,1,0,37.153,49.538,49.534,49.534,0,0,0,86.691,99.075Zm34.676,12.384H114.9a67.369,67.369,0,0,1-56.426,0H52.014A52.028,52.028,0,0,0,0,163.474v16.1A18.581,18.581,0,0,0,18.577,198.15H154.805a18.581,18.581,0,0,0,18.577-18.577v-16.1A52.028,52.028,0,0,0,121.367,111.46Z"/>
</svg>
