<svg xmlns="http://www.w3.org/2000/svg" width="50" height="50" viewBox="0 0 50 50">
  <g id="Group_499" data-name="Group 499" transform="translate(-1153 -863)">
    <circle id="Ellipse_70" data-name="Ellipse 70" cx="25" cy="25" r="25" transform="translate(1153 863)" fill="#63ed7a"/>
    <path id="Path_188" data-name="Path 188" d="M27.486,36.7A16.025,16.025,0,0,0,2.273,56.03L0,64.328,8.493,62.1a15.971,15.971,0,0,0,7.656,1.948h.007A15.918,15.918,0,0,0,27.486,36.7ZM16.157,61.348a13.291,13.291,0,0,1-6.783-1.855L8.89,59.2,3.853,60.525,5.2,55.611l-.318-.505a13.341,13.341,0,1,1,24.744-7.079A13.464,13.464,0,0,1,16.157,61.348Zm7.3-9.973c-.4-.2-2.367-1.169-2.735-1.3s-.635-.2-.9.2-1.032,1.3-1.27,1.573-.469.3-.866.1c-2.352-1.176-3.9-2.1-5.448-4.763-.411-.707.411-.657,1.176-2.186a.742.742,0,0,0-.036-.7c-.1-.2-.9-2.172-1.234-2.973-.325-.779-.657-.671-.9-.686s-.5-.014-.765-.014a1.483,1.483,0,0,0-1.068.5,4.5,4.5,0,0,0-1.4,3.341,7.842,7.842,0,0,0,1.631,4.142c.2.267,2.821,4.308,6.841,6.047,2.54,1.1,3.536,1.191,4.806,1a4.1,4.1,0,0,0,2.7-1.905,3.348,3.348,0,0,0,.231-1.905C24.123,51.671,23.856,51.57,23.46,51.375Z" transform="translate(1162 840)" fill="#fff"/>
  </g>
</svg>
